G75*
G70*
%OFA0B0*%
%FSLAX24Y24*%
%IPPOS*%
%LPD*%
%AMOC8*
5,1,8,0,0,1.08239X$1,22.5*
%
%ADD10C,0.0000*%
%ADD11OC8,0.0885*%
%ADD12C,0.0885*%
%ADD13OC8,0.0480*%
%ADD14C,0.0480*%
%ADD15C,0.0740*%
%ADD16OC8,0.0500*%
%ADD17R,0.0630X0.0460*%
%ADD18C,0.0591*%
%ADD19C,0.0160*%
%ADD20C,0.0436*%
%ADD21C,0.0860*%
%ADD22C,0.0660*%
%ADD23C,0.0240*%
%ADD24C,0.0500*%
%ADD25C,0.0320*%
D10*
X003701Y001338D02*
X044201Y001338D01*
X044296Y001340D01*
X044391Y001347D01*
X044486Y001358D01*
X044580Y001374D01*
X044673Y001394D01*
X044764Y001419D01*
X044855Y001448D01*
X044944Y001481D01*
X045032Y001519D01*
X045117Y001560D01*
X045201Y001606D01*
X045282Y001655D01*
X045361Y001709D01*
X045437Y001766D01*
X045511Y001827D01*
X045581Y001891D01*
X045648Y001958D01*
X045712Y002028D01*
X045773Y002102D01*
X045830Y002178D01*
X045884Y002257D01*
X045933Y002338D01*
X045979Y002422D01*
X046020Y002507D01*
X046058Y002595D01*
X046091Y002684D01*
X046120Y002775D01*
X046145Y002866D01*
X046165Y002959D01*
X046181Y003053D01*
X046192Y003148D01*
X046199Y003243D01*
X046201Y003338D01*
X046201Y030338D01*
X046199Y030433D01*
X046192Y030528D01*
X046181Y030623D01*
X046165Y030717D01*
X046145Y030810D01*
X046120Y030901D01*
X046091Y030992D01*
X046058Y031081D01*
X046020Y031169D01*
X045979Y031254D01*
X045933Y031338D01*
X045884Y031419D01*
X045830Y031498D01*
X045773Y031574D01*
X045712Y031648D01*
X045648Y031718D01*
X045581Y031785D01*
X045511Y031849D01*
X045437Y031910D01*
X045361Y031967D01*
X045282Y032021D01*
X045201Y032070D01*
X045117Y032116D01*
X045032Y032157D01*
X044944Y032195D01*
X044855Y032228D01*
X044764Y032257D01*
X044673Y032282D01*
X044580Y032302D01*
X044486Y032318D01*
X044391Y032329D01*
X044296Y032336D01*
X044201Y032338D01*
X003701Y032338D01*
X003606Y032336D01*
X003511Y032329D01*
X003416Y032318D01*
X003322Y032302D01*
X003229Y032282D01*
X003138Y032257D01*
X003047Y032228D01*
X002958Y032195D01*
X002870Y032157D01*
X002785Y032116D01*
X002701Y032070D01*
X002620Y032021D01*
X002541Y031967D01*
X002465Y031910D01*
X002391Y031849D01*
X002321Y031785D01*
X002254Y031718D01*
X002190Y031648D01*
X002129Y031574D01*
X002072Y031498D01*
X002018Y031419D01*
X001969Y031338D01*
X001923Y031254D01*
X001882Y031169D01*
X001844Y031081D01*
X001811Y030992D01*
X001782Y030901D01*
X001757Y030810D01*
X001737Y030717D01*
X001721Y030623D01*
X001710Y030528D01*
X001703Y030433D01*
X001701Y030338D01*
X001701Y003338D01*
X001703Y003243D01*
X001710Y003148D01*
X001721Y003053D01*
X001737Y002959D01*
X001757Y002866D01*
X001782Y002775D01*
X001811Y002684D01*
X001844Y002595D01*
X001882Y002507D01*
X001923Y002422D01*
X001969Y002338D01*
X002018Y002257D01*
X002072Y002178D01*
X002129Y002102D01*
X002190Y002028D01*
X002254Y001958D01*
X002321Y001891D01*
X002391Y001827D01*
X002465Y001766D01*
X002541Y001709D01*
X002620Y001655D01*
X002701Y001606D01*
X002785Y001560D01*
X002870Y001519D01*
X002958Y001481D01*
X003047Y001448D01*
X003138Y001419D01*
X003229Y001394D01*
X003322Y001374D01*
X003416Y001358D01*
X003511Y001347D01*
X003606Y001340D01*
X003701Y001338D01*
X008651Y017088D02*
X008653Y017138D01*
X008659Y017188D01*
X008669Y017238D01*
X008682Y017286D01*
X008699Y017334D01*
X008720Y017380D01*
X008744Y017424D01*
X008772Y017466D01*
X008803Y017506D01*
X008837Y017543D01*
X008874Y017578D01*
X008913Y017609D01*
X008954Y017638D01*
X008998Y017663D01*
X009044Y017685D01*
X009091Y017703D01*
X009139Y017717D01*
X009188Y017728D01*
X009238Y017735D01*
X009288Y017738D01*
X009339Y017737D01*
X009389Y017732D01*
X009439Y017723D01*
X009487Y017711D01*
X009535Y017694D01*
X009581Y017674D01*
X009626Y017651D01*
X009669Y017624D01*
X009709Y017594D01*
X009747Y017561D01*
X009782Y017525D01*
X009815Y017486D01*
X009844Y017445D01*
X009870Y017402D01*
X009893Y017357D01*
X009912Y017310D01*
X009927Y017262D01*
X009939Y017213D01*
X009947Y017163D01*
X009951Y017113D01*
X009951Y017063D01*
X009947Y017013D01*
X009939Y016963D01*
X009927Y016914D01*
X009912Y016866D01*
X009893Y016819D01*
X009870Y016774D01*
X009844Y016731D01*
X009815Y016690D01*
X009782Y016651D01*
X009747Y016615D01*
X009709Y016582D01*
X009669Y016552D01*
X009626Y016525D01*
X009581Y016502D01*
X009535Y016482D01*
X009487Y016465D01*
X009439Y016453D01*
X009389Y016444D01*
X009339Y016439D01*
X009288Y016438D01*
X009238Y016441D01*
X009188Y016448D01*
X009139Y016459D01*
X009091Y016473D01*
X009044Y016491D01*
X008998Y016513D01*
X008954Y016538D01*
X008913Y016567D01*
X008874Y016598D01*
X008837Y016633D01*
X008803Y016670D01*
X008772Y016710D01*
X008744Y016752D01*
X008720Y016796D01*
X008699Y016842D01*
X008682Y016890D01*
X008669Y016938D01*
X008659Y016988D01*
X008653Y017038D01*
X008651Y017088D01*
X044051Y017088D02*
X044053Y017138D01*
X044059Y017188D01*
X044069Y017238D01*
X044082Y017286D01*
X044099Y017334D01*
X044120Y017380D01*
X044144Y017424D01*
X044172Y017466D01*
X044203Y017506D01*
X044237Y017543D01*
X044274Y017578D01*
X044313Y017609D01*
X044354Y017638D01*
X044398Y017663D01*
X044444Y017685D01*
X044491Y017703D01*
X044539Y017717D01*
X044588Y017728D01*
X044638Y017735D01*
X044688Y017738D01*
X044739Y017737D01*
X044789Y017732D01*
X044839Y017723D01*
X044887Y017711D01*
X044935Y017694D01*
X044981Y017674D01*
X045026Y017651D01*
X045069Y017624D01*
X045109Y017594D01*
X045147Y017561D01*
X045182Y017525D01*
X045215Y017486D01*
X045244Y017445D01*
X045270Y017402D01*
X045293Y017357D01*
X045312Y017310D01*
X045327Y017262D01*
X045339Y017213D01*
X045347Y017163D01*
X045351Y017113D01*
X045351Y017063D01*
X045347Y017013D01*
X045339Y016963D01*
X045327Y016914D01*
X045312Y016866D01*
X045293Y016819D01*
X045270Y016774D01*
X045244Y016731D01*
X045215Y016690D01*
X045182Y016651D01*
X045147Y016615D01*
X045109Y016582D01*
X045069Y016552D01*
X045026Y016525D01*
X044981Y016502D01*
X044935Y016482D01*
X044887Y016465D01*
X044839Y016453D01*
X044789Y016444D01*
X044739Y016439D01*
X044688Y016438D01*
X044638Y016441D01*
X044588Y016448D01*
X044539Y016459D01*
X044491Y016473D01*
X044444Y016491D01*
X044398Y016513D01*
X044354Y016538D01*
X044313Y016567D01*
X044274Y016598D01*
X044237Y016633D01*
X044203Y016670D01*
X044172Y016710D01*
X044144Y016752D01*
X044120Y016796D01*
X044099Y016842D01*
X044082Y016890D01*
X044069Y016938D01*
X044059Y016988D01*
X044053Y017038D01*
X044051Y017088D01*
D11*
X041671Y006598D03*
X041881Y003648D03*
X040031Y002368D03*
X036881Y003648D03*
X035031Y002368D03*
X031881Y003648D03*
X030031Y002368D03*
X026881Y003648D03*
X025031Y002368D03*
X021881Y003648D03*
X020031Y002368D03*
X016881Y003648D03*
X015031Y002368D03*
X011881Y003648D03*
X010031Y002368D03*
X006881Y003648D03*
X005031Y002368D03*
X006671Y006598D03*
X011671Y006598D03*
X016671Y006598D03*
X021671Y006598D03*
X026671Y006598D03*
X031671Y006598D03*
X036671Y006598D03*
D12*
X038021Y005458D03*
X039011Y004908D03*
X034011Y004908D03*
X033021Y005458D03*
X029011Y004908D03*
X028021Y005458D03*
X024011Y004908D03*
X023021Y005458D03*
X019011Y004908D03*
X018021Y005458D03*
X014011Y004908D03*
X013021Y005458D03*
X009011Y004908D03*
X008021Y005458D03*
X004011Y004908D03*
X003021Y005458D03*
D13*
X003951Y007838D03*
X002951Y008838D03*
X002951Y010088D03*
X002951Y011338D03*
X003826Y012463D03*
X005826Y012463D03*
X006951Y011338D03*
X007951Y011338D03*
X007951Y010088D03*
X006951Y010088D03*
X006951Y008838D03*
X007951Y008838D03*
X008951Y007838D03*
X010951Y007838D03*
X011951Y008838D03*
X012951Y008838D03*
X013939Y007838D03*
X015939Y007838D03*
X016951Y008838D03*
X017951Y008838D03*
X018701Y007838D03*
X020701Y007838D03*
X021951Y008838D03*
X022951Y008838D03*
X024201Y007838D03*
X026201Y007838D03*
X026951Y008838D03*
X027951Y008838D03*
X028951Y007838D03*
X030951Y007838D03*
X031951Y008838D03*
X032951Y008838D03*
X033951Y007838D03*
X035951Y007838D03*
X036951Y008838D03*
X037951Y008838D03*
X038951Y007838D03*
X040951Y007838D03*
X041951Y008838D03*
X041951Y010088D03*
X041951Y011338D03*
X040951Y012338D03*
X038951Y012338D03*
X037951Y011338D03*
X036951Y011338D03*
X036951Y010088D03*
X037951Y010088D03*
X035951Y012338D03*
X033951Y012338D03*
X032951Y011338D03*
X031951Y011213D03*
X031951Y010088D03*
X032951Y010088D03*
X030201Y013338D03*
X030201Y015338D03*
X031576Y017338D03*
X031576Y018338D03*
X030201Y018338D03*
X029451Y017838D03*
X029451Y018838D03*
X033576Y018338D03*
X033576Y017338D03*
X033951Y013838D03*
X035951Y013838D03*
X027951Y011213D03*
X026951Y011188D03*
X026951Y010088D03*
X027951Y010088D03*
X022951Y010088D03*
X021951Y010088D03*
X021951Y011188D03*
X022951Y011188D03*
X023701Y013588D03*
X021701Y013588D03*
X020951Y013588D03*
X018951Y013588D03*
X017951Y011188D03*
X016951Y011151D03*
X016951Y010088D03*
X017951Y010088D03*
X012951Y010088D03*
X011951Y010088D03*
X011951Y011338D03*
X012951Y011151D03*
X012951Y012088D03*
X010826Y012463D03*
X008826Y012463D03*
X012951Y014088D03*
X005951Y007838D03*
X020701Y020588D03*
X024701Y020588D03*
D14*
X024951Y018578D02*
X024951Y018098D01*
X023951Y018098D02*
X023951Y018578D01*
X022951Y018578D02*
X022951Y018098D01*
X021951Y018098D02*
X021951Y018578D01*
X020951Y018578D02*
X020951Y018098D01*
X019951Y018098D02*
X019951Y018578D01*
X019951Y015578D02*
X019951Y015098D01*
X020951Y015098D02*
X020951Y015578D01*
X021951Y015578D02*
X021951Y015098D01*
X022951Y015098D02*
X022951Y015578D01*
X023951Y015578D02*
X023951Y015098D01*
X024951Y015098D02*
X024951Y015578D01*
X025951Y015578D02*
X025951Y015098D01*
X026951Y015098D02*
X026951Y015578D01*
X026951Y018098D02*
X026951Y018578D01*
X025951Y018578D02*
X025951Y018098D01*
D15*
X037451Y014208D02*
X037451Y013468D01*
X038451Y013468D02*
X038451Y014208D01*
X039451Y014208D02*
X039451Y013468D01*
X040451Y013468D02*
X040451Y014208D01*
X041451Y014208D02*
X041451Y013468D01*
X042451Y013468D02*
X042451Y014208D01*
D16*
X030201Y012338D03*
X029201Y012338D03*
X028201Y012338D03*
X027201Y012338D03*
X026201Y012338D03*
X025201Y012338D03*
X024201Y012338D03*
X023201Y012338D03*
X021451Y012338D03*
X020451Y012338D03*
X019451Y012338D03*
X018451Y012338D03*
X017451Y012338D03*
X016451Y012338D03*
X015451Y012338D03*
X014451Y012338D03*
X014451Y031338D03*
X015451Y031338D03*
X016451Y031338D03*
X017451Y031338D03*
X018451Y031338D03*
X019451Y031338D03*
X021451Y031338D03*
X022451Y031338D03*
X023451Y031338D03*
X024451Y031338D03*
X025451Y031338D03*
X026451Y031338D03*
D17*
X028201Y019888D03*
X028201Y019288D03*
X042701Y008138D03*
X042701Y007538D03*
D18*
X031326Y016213D03*
X020451Y030463D03*
X002826Y012838D03*
D19*
X002485Y002122D02*
X002786Y001882D01*
X003133Y001715D01*
X003508Y001629D01*
X003701Y001618D01*
X003701Y004298D01*
X003624Y004330D02*
X003875Y004226D01*
X004147Y004226D01*
X004398Y004330D01*
X004590Y004522D01*
X004694Y004772D01*
X004694Y005044D01*
X004590Y005295D01*
X004398Y005487D01*
X004147Y005591D01*
X003875Y005591D01*
X003704Y005520D01*
X003704Y005594D01*
X003600Y005845D01*
X003408Y006037D01*
X003157Y006141D01*
X002885Y006141D01*
X002634Y006037D01*
X002442Y005845D01*
X002339Y005594D01*
X002339Y005322D01*
X002442Y005072D01*
X002634Y004880D01*
X002885Y004776D01*
X003157Y004776D01*
X003329Y004847D01*
X003329Y004772D01*
X003432Y004522D01*
X003624Y004330D01*
X003616Y004338D02*
X001981Y004338D01*
X001981Y003838D02*
X006199Y003838D01*
X006199Y003931D02*
X006199Y003366D01*
X006598Y002966D01*
X007164Y002966D01*
X007564Y003366D01*
X007564Y003931D01*
X007201Y004293D01*
X007201Y006163D01*
X007354Y006316D02*
X007354Y006881D01*
X006954Y007281D01*
X006388Y007281D01*
X006271Y007163D01*
X006271Y007479D01*
X006431Y007639D01*
X006431Y008037D01*
X006150Y008318D01*
X005752Y008318D01*
X005471Y008037D01*
X005471Y007639D01*
X005631Y007479D01*
X005631Y005652D01*
X005631Y005525D01*
X005680Y005407D01*
X006561Y004526D01*
X006561Y004293D01*
X006199Y003931D01*
X006201Y003933D02*
X006201Y004886D01*
X006249Y004838D02*
X004694Y004838D01*
X004546Y005338D02*
X005749Y005338D01*
X005701Y005386D02*
X005701Y001618D01*
X005353Y001838D02*
X009709Y001838D01*
X009701Y001846D02*
X009701Y001618D01*
X009782Y001766D02*
X009429Y002119D01*
X009429Y002301D01*
X009963Y002301D01*
X009963Y002436D01*
X009429Y002436D01*
X009429Y002618D01*
X009782Y002971D01*
X009964Y002971D01*
X009964Y002436D01*
X010099Y002436D01*
X010634Y002436D01*
X010634Y002618D01*
X010281Y002971D01*
X010099Y002971D01*
X010099Y002436D01*
X010099Y002301D01*
X010634Y002301D01*
X010634Y002119D01*
X010281Y001766D01*
X010099Y001766D01*
X010099Y002301D01*
X009964Y002301D01*
X009964Y001766D01*
X009782Y001766D01*
X009964Y001838D02*
X010099Y001838D01*
X010201Y001766D02*
X010201Y001618D01*
X010353Y001838D02*
X014709Y001838D01*
X014701Y001846D02*
X014701Y001618D01*
X014782Y001766D02*
X014429Y002119D01*
X014429Y002301D01*
X014963Y002301D01*
X014963Y002436D01*
X014429Y002436D01*
X014429Y002618D01*
X014782Y002971D01*
X014964Y002971D01*
X014964Y002436D01*
X015099Y002436D01*
X015634Y002436D01*
X015634Y002618D01*
X015281Y002971D01*
X015099Y002971D01*
X015099Y002436D01*
X015099Y002301D01*
X015634Y002301D01*
X015634Y002119D01*
X015281Y001766D01*
X015099Y001766D01*
X015099Y002301D01*
X014964Y002301D01*
X014964Y001766D01*
X014782Y001766D01*
X014964Y001838D02*
X015099Y001838D01*
X015201Y001766D02*
X015201Y001618D01*
X015353Y001838D02*
X019709Y001838D01*
X019701Y001846D02*
X019701Y001618D01*
X019782Y001766D02*
X019429Y002119D01*
X019429Y002301D01*
X019963Y002301D01*
X019963Y002436D01*
X019429Y002436D01*
X019429Y002618D01*
X019782Y002971D01*
X019964Y002971D01*
X019964Y002436D01*
X020099Y002436D01*
X020634Y002436D01*
X020634Y002618D01*
X020281Y002971D01*
X020099Y002971D01*
X020099Y002436D01*
X020099Y002301D01*
X020634Y002301D01*
X020634Y002119D01*
X020281Y001766D01*
X020099Y001766D01*
X020099Y002301D01*
X019964Y002301D01*
X019964Y001766D01*
X019782Y001766D01*
X019964Y001838D02*
X020099Y001838D01*
X020201Y001766D02*
X020201Y001618D01*
X020353Y001838D02*
X024709Y001838D01*
X024701Y001846D02*
X024701Y001618D01*
X024782Y001766D02*
X024429Y002119D01*
X024429Y002301D01*
X024963Y002301D01*
X024963Y002436D01*
X024429Y002436D01*
X024429Y002618D01*
X024782Y002971D01*
X024964Y002971D01*
X024964Y002436D01*
X025099Y002436D01*
X025634Y002436D01*
X025634Y002618D01*
X025281Y002971D01*
X025099Y002971D01*
X025099Y002436D01*
X025099Y002301D01*
X025634Y002301D01*
X025634Y002119D01*
X025281Y001766D01*
X025099Y001766D01*
X025099Y002301D01*
X024964Y002301D01*
X024964Y001766D01*
X024782Y001766D01*
X024964Y001838D02*
X025099Y001838D01*
X025201Y001766D02*
X025201Y001618D01*
X025353Y001838D02*
X029709Y001838D01*
X029701Y001846D02*
X029701Y001618D01*
X029782Y001766D02*
X029429Y002119D01*
X029429Y002301D01*
X029963Y002301D01*
X029963Y002436D01*
X029429Y002436D01*
X029429Y002618D01*
X029782Y002971D01*
X029964Y002971D01*
X029964Y002436D01*
X030099Y002436D01*
X030634Y002436D01*
X030634Y002618D01*
X030281Y002971D01*
X030099Y002971D01*
X030099Y002436D01*
X030099Y002301D01*
X030634Y002301D01*
X030634Y002119D01*
X030281Y001766D01*
X030099Y001766D01*
X030099Y002301D01*
X029964Y002301D01*
X029964Y001766D01*
X029782Y001766D01*
X029964Y001838D02*
X030099Y001838D01*
X030201Y001766D02*
X030201Y001618D01*
X030353Y001838D02*
X034709Y001838D01*
X034701Y001846D02*
X034701Y001618D01*
X034782Y001766D02*
X034429Y002119D01*
X034429Y002301D01*
X034963Y002301D01*
X034963Y002436D01*
X034429Y002436D01*
X034429Y002618D01*
X034782Y002971D01*
X034964Y002971D01*
X034964Y002436D01*
X035099Y002436D01*
X035634Y002436D01*
X035634Y002618D01*
X035281Y002971D01*
X035099Y002971D01*
X035099Y002436D01*
X035099Y002301D01*
X035634Y002301D01*
X035634Y002119D01*
X035281Y001766D01*
X035099Y001766D01*
X035099Y002301D01*
X034964Y002301D01*
X034964Y001766D01*
X034782Y001766D01*
X034964Y001838D02*
X035099Y001838D01*
X035201Y001766D02*
X035201Y001618D01*
X035353Y001838D02*
X039709Y001838D01*
X039701Y001846D02*
X039701Y001618D01*
X039782Y001766D02*
X039429Y002119D01*
X039429Y002301D01*
X039963Y002301D01*
X039963Y002436D01*
X039429Y002436D01*
X039429Y002618D01*
X039782Y002971D01*
X039964Y002971D01*
X039964Y002436D01*
X040099Y002436D01*
X040634Y002436D01*
X040634Y002618D01*
X040281Y002971D01*
X040099Y002971D01*
X040099Y002436D01*
X040099Y002301D01*
X040634Y002301D01*
X040634Y002119D01*
X040281Y001766D01*
X040099Y001766D01*
X040099Y002301D01*
X039964Y002301D01*
X039964Y001766D01*
X039782Y001766D01*
X039964Y001838D02*
X040099Y001838D01*
X040201Y001766D02*
X040201Y001618D01*
X040353Y001838D02*
X045026Y001838D01*
X045116Y001882D02*
X044769Y001715D01*
X044394Y001629D01*
X044201Y001618D01*
X044201Y016196D01*
X044188Y016200D02*
X044523Y016078D01*
X044645Y016078D01*
X044645Y016078D01*
X044675Y016078D01*
X044701Y016078D01*
X044701Y001699D01*
X045116Y001882D02*
X045417Y002122D01*
X045657Y002423D01*
X045825Y002770D01*
X045910Y003146D01*
X045921Y003338D01*
X045921Y019338D01*
X042771Y019338D01*
X042771Y014736D01*
X042797Y014725D01*
X042968Y014554D01*
X043061Y014330D01*
X043061Y013347D01*
X042968Y013123D01*
X042797Y012951D01*
X042572Y012858D01*
X042330Y012858D01*
X042106Y012951D01*
X041951Y013106D01*
X041797Y012951D01*
X041572Y012858D01*
X041330Y012858D01*
X041106Y012951D01*
X040951Y013106D01*
X040797Y012951D01*
X040771Y012941D01*
X040771Y012818D01*
X041150Y012818D01*
X041431Y012537D01*
X041431Y012139D01*
X041150Y011858D01*
X040771Y011858D01*
X040771Y011775D01*
X040722Y011657D01*
X040632Y011567D01*
X040632Y011567D01*
X040521Y011456D01*
X040521Y009721D01*
X041471Y008771D01*
X041471Y009037D01*
X041752Y009318D01*
X042150Y009318D01*
X042431Y009037D01*
X042431Y008639D01*
X042400Y008608D01*
X043064Y008608D01*
X043152Y008572D01*
X043220Y008504D01*
X043256Y008416D01*
X043256Y007861D01*
X043247Y007838D01*
X043256Y007816D01*
X043256Y007261D01*
X043220Y007172D01*
X043152Y007105D01*
X043064Y007068D01*
X043021Y007068D01*
X043021Y006402D01*
X043021Y006275D01*
X042972Y006157D01*
X042472Y005657D01*
X042472Y005657D01*
X042382Y005567D01*
X042265Y005518D01*
X039322Y005518D01*
X039398Y005487D01*
X039590Y005295D01*
X039694Y005044D01*
X039694Y004772D01*
X039590Y004522D01*
X039398Y004330D01*
X039147Y004226D01*
X038875Y004226D01*
X038624Y004330D01*
X038432Y004522D01*
X038329Y004772D01*
X038329Y004847D01*
X038157Y004776D01*
X037885Y004776D01*
X037634Y004880D01*
X037442Y005072D01*
X037339Y005322D01*
X037339Y005594D01*
X037442Y005845D01*
X037634Y006037D01*
X037885Y006141D01*
X038157Y006141D01*
X038226Y006112D01*
X038337Y006158D01*
X038465Y006158D01*
X041146Y006158D01*
X040989Y006316D01*
X040989Y006881D01*
X041388Y007281D01*
X041954Y007281D01*
X042354Y006881D01*
X042354Y006443D01*
X042381Y006471D01*
X042381Y007068D01*
X042338Y007068D01*
X042250Y007105D01*
X042183Y007172D01*
X042146Y007261D01*
X042146Y007816D01*
X042147Y007818D01*
X041715Y007818D01*
X041587Y007818D01*
X041470Y007867D01*
X041431Y007906D01*
X041431Y007639D01*
X041150Y007358D01*
X040752Y007358D01*
X040471Y007639D01*
X040471Y008037D01*
X040752Y008318D01*
X041019Y008318D01*
X039930Y009407D01*
X039881Y009525D01*
X039881Y009652D01*
X039881Y011525D01*
X039881Y011652D01*
X039930Y011770D01*
X040131Y011971D01*
X040131Y012941D01*
X040106Y012951D01*
X039951Y013106D01*
X039797Y012951D01*
X039792Y012949D01*
X039882Y012860D01*
X039972Y012770D01*
X040021Y012652D01*
X040021Y012152D01*
X040021Y012025D01*
X039972Y011907D01*
X038597Y010532D01*
X038507Y010442D01*
X038390Y010393D01*
X038325Y010393D01*
X038431Y010287D01*
X038431Y009889D01*
X038271Y009729D01*
X038271Y009197D01*
X038431Y009037D01*
X038431Y008639D01*
X038150Y008358D01*
X037752Y008358D01*
X037471Y008639D01*
X037471Y009037D01*
X037631Y009197D01*
X037631Y009729D01*
X037471Y009889D01*
X037471Y010287D01*
X037577Y010393D01*
X037212Y010393D01*
X037351Y010254D01*
X037351Y010088D01*
X036951Y010088D01*
X036951Y010088D01*
X036951Y009688D01*
X036785Y009688D01*
X036551Y009923D01*
X036551Y010088D01*
X036951Y010088D01*
X036951Y009688D01*
X037117Y009688D01*
X037351Y009923D01*
X037351Y010088D01*
X036951Y010088D01*
X036951Y010088D01*
X036951Y010088D01*
X036551Y010088D01*
X036551Y010254D01*
X036691Y010393D01*
X036084Y010393D01*
X034009Y008318D01*
X034150Y008318D01*
X034431Y008037D01*
X034431Y007639D01*
X034150Y007358D01*
X033752Y007358D01*
X033471Y007639D01*
X033471Y007802D01*
X033390Y007768D01*
X031765Y007768D01*
X031637Y007768D01*
X031520Y007817D01*
X031431Y007906D01*
X031431Y007639D01*
X031271Y007479D01*
X031271Y007163D01*
X031388Y007281D01*
X031954Y007281D01*
X032354Y006881D01*
X032354Y006316D01*
X031954Y005916D01*
X031388Y005916D01*
X031271Y006033D01*
X031271Y005721D01*
X032152Y004840D01*
X032201Y004722D01*
X032201Y004595D01*
X032201Y004293D01*
X032201Y006163D01*
X032354Y006338D02*
X035631Y006338D01*
X035631Y005838D02*
X033602Y005838D01*
X033600Y005845D02*
X033408Y006037D01*
X033157Y006141D01*
X032885Y006141D01*
X032634Y006037D01*
X032442Y005845D01*
X032339Y005594D01*
X032339Y005322D01*
X032442Y005072D01*
X032634Y004880D01*
X032885Y004776D01*
X033157Y004776D01*
X033329Y004847D01*
X033329Y004772D01*
X033432Y004522D01*
X033624Y004330D01*
X033875Y004226D01*
X034147Y004226D01*
X034398Y004330D01*
X034590Y004522D01*
X034694Y004772D01*
X034694Y005044D01*
X034590Y005295D01*
X034398Y005487D01*
X034147Y005591D01*
X033875Y005591D01*
X033704Y005520D01*
X033704Y005594D01*
X033600Y005845D01*
X033701Y005600D02*
X033701Y007409D01*
X034201Y007409D02*
X034201Y005568D01*
X034546Y005338D02*
X035749Y005338D01*
X035701Y005386D02*
X035701Y001618D01*
X036201Y001618D02*
X036201Y003363D01*
X036199Y003366D02*
X036598Y002966D01*
X037164Y002966D01*
X037564Y003366D01*
X037564Y003931D01*
X037201Y004293D01*
X037201Y006163D01*
X037354Y006316D02*
X037354Y006881D01*
X036954Y007281D01*
X036388Y007281D01*
X036271Y007163D01*
X036271Y007479D01*
X036431Y007639D01*
X036431Y008037D01*
X036150Y008318D01*
X035752Y008318D01*
X035471Y008037D01*
X035471Y007639D01*
X035631Y007479D01*
X035631Y005652D01*
X035631Y005525D01*
X035680Y005407D01*
X036561Y004526D01*
X036561Y004293D01*
X036199Y003931D01*
X036199Y003366D01*
X036226Y003338D02*
X032536Y003338D01*
X032564Y003366D02*
X032164Y002966D01*
X031598Y002966D01*
X031199Y003366D01*
X031199Y003931D01*
X031561Y004293D01*
X031561Y004526D01*
X030680Y005407D01*
X030631Y005525D01*
X030631Y005652D01*
X030631Y007479D01*
X030471Y007639D01*
X030471Y007906D01*
X029472Y006907D01*
X029382Y006817D01*
X029265Y006768D01*
X027890Y006768D01*
X027762Y006768D01*
X027645Y006817D01*
X026681Y007781D01*
X026681Y007639D01*
X026400Y007358D01*
X026174Y007358D01*
X026021Y007206D01*
X026021Y006913D01*
X026388Y007281D01*
X026954Y007281D01*
X027354Y006881D01*
X027354Y006316D01*
X026954Y005916D01*
X026388Y005916D01*
X026021Y006283D01*
X026021Y006221D01*
X027152Y005090D01*
X027201Y004972D01*
X027201Y004845D01*
X027201Y004293D01*
X027201Y006163D01*
X027354Y006338D02*
X030631Y006338D01*
X030631Y005838D02*
X028602Y005838D01*
X028600Y005845D02*
X028408Y006037D01*
X028157Y006141D01*
X027885Y006141D01*
X027634Y006037D01*
X027442Y005845D01*
X027339Y005594D01*
X027339Y005322D01*
X027442Y005072D01*
X027634Y004880D01*
X027885Y004776D01*
X028157Y004776D01*
X028329Y004847D01*
X028329Y004772D01*
X028432Y004522D01*
X028624Y004330D01*
X028875Y004226D01*
X029147Y004226D01*
X029398Y004330D01*
X029590Y004522D01*
X029694Y004772D01*
X029694Y005044D01*
X029590Y005295D01*
X029398Y005487D01*
X029147Y005591D01*
X028875Y005591D01*
X028704Y005520D01*
X028704Y005594D01*
X028600Y005845D01*
X028701Y005600D02*
X028701Y006768D01*
X028201Y006768D02*
X028201Y006122D01*
X027701Y006064D02*
X027701Y006794D01*
X027624Y006838D02*
X027354Y006838D01*
X027201Y007033D02*
X027201Y007261D01*
X027124Y007338D02*
X026154Y007338D01*
X026201Y007358D02*
X026201Y007093D01*
X026701Y007281D02*
X026701Y007761D01*
X026201Y007838D02*
X025701Y007338D01*
X025701Y006088D01*
X026881Y004908D01*
X026881Y003648D01*
X026199Y003838D02*
X022564Y003838D01*
X022564Y003931D02*
X022201Y004293D01*
X022201Y006163D01*
X022354Y006316D02*
X021954Y005916D01*
X021388Y005916D01*
X021021Y006283D01*
X021021Y005971D01*
X022152Y004840D01*
X022201Y004722D01*
X022201Y004595D01*
X022201Y004293D01*
X022201Y004338D02*
X023616Y004338D01*
X023624Y004330D02*
X023875Y004226D01*
X024147Y004226D01*
X024398Y004330D01*
X024590Y004522D01*
X024694Y004772D01*
X024694Y005044D01*
X024590Y005295D01*
X024398Y005487D01*
X024147Y005591D01*
X023875Y005591D01*
X023704Y005520D01*
X023704Y005594D01*
X023600Y005845D01*
X023408Y006037D01*
X023157Y006141D01*
X022885Y006141D01*
X022634Y006037D01*
X022442Y005845D01*
X022339Y005594D01*
X022339Y005322D01*
X022442Y005072D01*
X022634Y004880D01*
X022885Y004776D01*
X023157Y004776D01*
X023329Y004847D01*
X023329Y004772D01*
X023432Y004522D01*
X023624Y004330D01*
X023701Y004298D02*
X023701Y001618D01*
X024201Y001618D02*
X024201Y004248D01*
X024406Y004338D02*
X026561Y004338D01*
X026561Y004293D02*
X026199Y003931D01*
X026199Y003366D01*
X026598Y002966D01*
X027164Y002966D01*
X027564Y003366D01*
X027564Y003931D01*
X027201Y004293D01*
X027201Y004338D02*
X028616Y004338D01*
X028701Y004298D02*
X028701Y001618D01*
X028201Y001618D02*
X028201Y004794D01*
X028308Y004838D02*
X028329Y004838D01*
X027734Y004838D02*
X027201Y004838D01*
X027701Y004852D02*
X027701Y001618D01*
X027201Y001618D02*
X027201Y003003D01*
X027536Y003338D02*
X031226Y003338D01*
X031201Y003363D02*
X031201Y001618D01*
X030701Y001618D02*
X030701Y005386D01*
X030749Y005338D02*
X029546Y005338D01*
X029201Y005568D02*
X029201Y006768D01*
X029404Y006838D02*
X030631Y006838D01*
X030631Y007338D02*
X029904Y007338D01*
X029701Y007136D02*
X029701Y002890D01*
X029649Y002838D02*
X025413Y002838D01*
X025201Y002971D02*
X025201Y007386D01*
X025154Y007338D02*
X025381Y007338D01*
X025381Y007275D02*
X025381Y006025D01*
X025430Y005907D01*
X025520Y005817D01*
X026561Y004776D01*
X026561Y004293D01*
X026201Y003933D02*
X026201Y005136D01*
X025999Y005338D02*
X024546Y005338D01*
X024201Y005568D02*
X024201Y006893D01*
X024512Y006893D02*
X024640Y006893D01*
X024757Y006942D01*
X025696Y007880D01*
X025721Y007880D01*
X025721Y007811D01*
X025430Y007520D01*
X025381Y007402D01*
X025381Y007275D01*
X025381Y006838D02*
X022354Y006838D01*
X022354Y006881D02*
X021954Y007281D01*
X021388Y007281D01*
X021021Y006913D01*
X021021Y007479D01*
X021181Y007639D01*
X021181Y008037D01*
X020900Y008318D01*
X020502Y008318D01*
X020221Y008037D01*
X020221Y007639D01*
X020381Y007479D01*
X020381Y005902D01*
X020381Y005775D01*
X020430Y005657D01*
X021561Y004526D01*
X021561Y004293D01*
X021199Y003931D01*
X021199Y003366D01*
X021598Y002966D01*
X022164Y002966D01*
X022564Y003366D01*
X022564Y003931D01*
X021881Y003648D02*
X021881Y004658D01*
X020701Y005838D01*
X020701Y007838D01*
X020221Y007838D02*
X019181Y007838D01*
X019181Y007639D02*
X018900Y007358D01*
X018502Y007358D01*
X018221Y007639D01*
X018221Y008037D01*
X018502Y008318D01*
X018900Y008318D01*
X019181Y008037D01*
X019181Y007639D01*
X018701Y007358D02*
X018701Y005600D01*
X018704Y005594D02*
X018600Y005845D01*
X018408Y006037D01*
X018157Y006141D01*
X017885Y006141D01*
X017634Y006037D01*
X017442Y005845D01*
X017339Y005594D01*
X017339Y005322D01*
X017442Y005072D01*
X017634Y004880D01*
X017885Y004776D01*
X018157Y004776D01*
X018329Y004847D01*
X018329Y004772D01*
X018432Y004522D01*
X018624Y004330D01*
X018875Y004226D01*
X019147Y004226D01*
X019398Y004330D01*
X019590Y004522D01*
X019694Y004772D01*
X019694Y005044D01*
X019590Y005295D01*
X019398Y005487D01*
X019147Y005591D01*
X018875Y005591D01*
X018704Y005520D01*
X018704Y005594D01*
X018602Y005838D02*
X020381Y005838D01*
X020381Y006338D02*
X017354Y006338D01*
X017354Y006316D02*
X016954Y005916D01*
X016388Y005916D01*
X016259Y006046D01*
X016259Y005733D01*
X017152Y004840D01*
X017201Y004722D01*
X017201Y004595D01*
X017201Y004293D01*
X017201Y006163D01*
X017354Y006316D02*
X017354Y006881D01*
X016954Y007281D01*
X016388Y007281D01*
X016259Y007151D01*
X016259Y007479D01*
X016419Y007639D01*
X016419Y008037D01*
X016137Y008318D01*
X015740Y008318D01*
X015459Y008037D01*
X015459Y007639D01*
X015619Y007479D01*
X015619Y005664D01*
X015619Y005537D01*
X015667Y005419D01*
X015770Y005317D01*
X016561Y004526D01*
X016561Y004293D01*
X016199Y003931D01*
X016199Y003366D01*
X016598Y002966D01*
X017164Y002966D01*
X017564Y003366D01*
X017564Y003931D01*
X017201Y004293D01*
X017201Y004338D02*
X018616Y004338D01*
X018701Y004298D02*
X018701Y001618D01*
X018201Y001618D02*
X018201Y004794D01*
X018308Y004838D02*
X018329Y004838D01*
X017734Y004838D02*
X017153Y004838D01*
X016881Y004658D02*
X015951Y005588D01*
X015939Y005601D01*
X015939Y007838D01*
X016419Y007838D02*
X018221Y007838D01*
X018701Y008318D02*
X018701Y009143D01*
X018431Y009037D02*
X018325Y009143D01*
X021577Y009143D01*
X021471Y009037D01*
X021471Y008639D01*
X021631Y008479D01*
X021631Y008025D01*
X021680Y007907D01*
X021770Y007817D01*
X022555Y007032D01*
X022645Y006942D01*
X022762Y006893D01*
X024512Y006893D01*
X024701Y006919D02*
X024701Y002890D01*
X024649Y002838D02*
X020413Y002838D01*
X020201Y002971D02*
X020201Y009143D01*
X019701Y009143D02*
X019701Y002890D01*
X019649Y002838D02*
X015413Y002838D01*
X015201Y002971D02*
X015201Y009169D01*
X015145Y009192D02*
X015262Y009143D01*
X016577Y009143D01*
X016471Y009037D01*
X016471Y008639D01*
X016752Y008358D01*
X017150Y008358D01*
X017431Y008639D01*
X017431Y009037D01*
X017325Y009143D01*
X017577Y009143D01*
X017471Y009037D01*
X017471Y008639D01*
X017752Y008358D01*
X018150Y008358D01*
X018431Y008639D01*
X018431Y009037D01*
X018431Y008838D02*
X021471Y008838D01*
X021201Y009143D02*
X021201Y007093D01*
X021021Y007338D02*
X022249Y007338D01*
X022201Y007386D02*
X022201Y007033D01*
X022354Y006881D02*
X022354Y006316D01*
X022354Y006338D02*
X025381Y006338D01*
X025499Y005838D02*
X023602Y005838D01*
X023701Y005600D02*
X023701Y006893D01*
X022826Y007213D02*
X024576Y007213D01*
X025701Y008338D01*
X025701Y007880D02*
X025701Y007791D01*
X025721Y007838D02*
X025654Y007838D01*
X025451Y009463D02*
X027826Y007088D01*
X029201Y007088D01*
X030701Y008588D01*
X031201Y008588D01*
X031701Y008088D01*
X033326Y008088D01*
X035951Y010713D01*
X038326Y010713D01*
X039701Y012088D01*
X039701Y012588D01*
X039451Y012838D01*
X039451Y013838D01*
X038951Y013106D02*
X039106Y012951D01*
X039131Y012941D01*
X039131Y012902D01*
X039131Y012775D01*
X039167Y012688D01*
X039117Y012738D01*
X038951Y012738D01*
X038785Y012738D01*
X038771Y012724D01*
X038771Y012941D01*
X038797Y012951D01*
X038951Y013106D01*
X038771Y012838D02*
X039131Y012838D01*
X038951Y012738D02*
X038951Y012339D01*
X038951Y012738D01*
X038451Y012588D02*
X038451Y013838D01*
X037951Y013106D02*
X038106Y012951D01*
X038131Y012941D01*
X038131Y012721D01*
X037819Y012408D01*
X036765Y012408D01*
X036637Y012408D01*
X036520Y012360D01*
X036431Y012271D01*
X036431Y012537D01*
X036150Y012818D01*
X035924Y012818D01*
X035472Y013270D01*
X035382Y013360D01*
X035265Y013408D01*
X034200Y013408D01*
X034431Y013639D01*
X034431Y014037D01*
X034150Y014318D01*
X033752Y014318D01*
X033471Y014037D01*
X033471Y013639D01*
X033702Y013408D01*
X032334Y013408D01*
X030722Y015020D01*
X030632Y015110D01*
X030566Y015137D01*
X030601Y015173D01*
X030601Y015338D01*
X030201Y015338D01*
X029801Y015338D01*
X029801Y015173D01*
X029816Y015158D01*
X027431Y015158D01*
X027431Y015674D01*
X027366Y015831D01*
X027700Y015831D01*
X027827Y015831D01*
X027945Y015879D01*
X029424Y017358D01*
X029479Y017358D01*
X029680Y017157D01*
X029702Y017135D01*
X029770Y017067D01*
X029887Y017018D01*
X029887Y017018D01*
X029906Y017018D01*
X030015Y017018D01*
X031217Y017018D01*
X031377Y016858D01*
X031604Y016858D01*
X033645Y014817D01*
X033762Y014768D01*
X033890Y014768D01*
X037209Y014768D01*
X037106Y014725D01*
X036934Y014554D01*
X036841Y014330D01*
X036841Y014158D01*
X036310Y014158D01*
X036150Y014318D01*
X035752Y014318D01*
X035471Y014037D01*
X035471Y013639D01*
X035752Y013358D01*
X036150Y013358D01*
X036310Y013518D01*
X036841Y013518D01*
X036841Y013347D01*
X036934Y013123D01*
X037106Y012951D01*
X037330Y012858D01*
X037572Y012858D01*
X037797Y012951D01*
X037951Y013106D01*
X037701Y012912D02*
X037701Y012408D01*
X037951Y012088D02*
X038451Y012588D01*
X038551Y012236D02*
X038551Y012173D01*
X038785Y011938D01*
X038951Y011938D01*
X038951Y012338D01*
X038951Y012338D01*
X038951Y011938D01*
X039099Y011938D01*
X038431Y011271D01*
X038431Y011537D01*
X038150Y011818D01*
X038134Y011818D01*
X038551Y012236D01*
X038701Y012023D02*
X038701Y011541D01*
X038499Y011338D02*
X038431Y011338D01*
X038904Y010838D02*
X039881Y010838D01*
X039881Y011338D02*
X039404Y011338D01*
X039201Y011136D02*
X039201Y008267D01*
X039150Y008318D02*
X038752Y008318D01*
X038471Y008037D01*
X038471Y007639D01*
X038752Y007358D01*
X039150Y007358D01*
X039431Y007639D01*
X039431Y008037D01*
X039150Y008318D01*
X038701Y008267D02*
X038701Y010636D01*
X038380Y010338D02*
X039881Y010338D01*
X039881Y009838D02*
X038380Y009838D01*
X037951Y010088D02*
X037951Y008838D01*
X037471Y008838D02*
X037431Y008838D01*
X037431Y008639D02*
X037150Y008358D01*
X036752Y008358D01*
X036471Y008639D01*
X036471Y009037D01*
X036752Y009318D01*
X037150Y009318D01*
X037431Y009037D01*
X037431Y008639D01*
X037201Y008409D02*
X037201Y007033D01*
X037354Y006838D02*
X040989Y006838D01*
X041201Y007093D02*
X041201Y007409D01*
X041431Y007838D02*
X041539Y007838D01*
X041701Y007818D02*
X041701Y007281D01*
X042146Y007338D02*
X036271Y007338D01*
X036701Y007281D02*
X036701Y008409D01*
X036471Y008838D02*
X034529Y008838D01*
X034701Y009011D02*
X034701Y002890D01*
X034649Y002838D02*
X030413Y002838D01*
X030201Y002971D02*
X030201Y007636D01*
X030404Y007838D02*
X030471Y007838D01*
X030951Y007838D02*
X030951Y005588D01*
X031881Y004658D01*
X031881Y003648D01*
X032564Y003838D02*
X036199Y003838D01*
X036201Y003933D02*
X036201Y004886D01*
X036249Y004838D02*
X034694Y004838D01*
X034406Y004338D02*
X036561Y004338D01*
X036881Y004658D02*
X035951Y005588D01*
X035951Y007838D01*
X035471Y007838D02*
X034431Y007838D01*
X034201Y008267D02*
X034201Y008511D01*
X034029Y008338D02*
X040999Y008338D01*
X040701Y008267D02*
X040701Y008636D01*
X040499Y008838D02*
X038431Y008838D01*
X038201Y008409D02*
X038201Y006122D01*
X038401Y005838D02*
X038021Y005458D01*
X038401Y005838D02*
X042201Y005838D01*
X042701Y006338D01*
X042701Y007538D01*
X043256Y007338D02*
X045921Y007338D01*
X045921Y006838D02*
X043021Y006838D01*
X043201Y007154D02*
X043201Y001618D01*
X042701Y001618D02*
X042701Y005886D01*
X042654Y005838D02*
X045921Y005838D01*
X045921Y006338D02*
X043021Y006338D01*
X042381Y006838D02*
X042354Y006838D01*
X042201Y007033D02*
X042201Y007154D01*
X043247Y007838D02*
X045921Y007838D01*
X045921Y008338D02*
X043256Y008338D01*
X043201Y008523D02*
X043201Y019338D01*
X043701Y019338D02*
X043701Y017233D01*
X043720Y017338D02*
X042771Y017338D01*
X042771Y016838D02*
X043720Y016838D01*
X043737Y016738D02*
X043737Y016737D01*
X043915Y016429D01*
X044188Y016200D01*
X044188Y016200D01*
X044024Y016338D02*
X042771Y016338D01*
X042771Y015838D02*
X045921Y015838D01*
X045921Y016338D02*
X045378Y016338D01*
X045487Y016429D02*
X045214Y016200D01*
X045214Y016200D01*
X044879Y016078D01*
X044879Y016078D01*
X044757Y016078D01*
X044757Y016078D01*
X044720Y016078D01*
X044701Y016078D01*
X044523Y016078D02*
X044523Y016078D01*
X043915Y016429D02*
X043915Y016429D01*
X043737Y016738D02*
X043676Y017088D01*
X043676Y017088D01*
X043737Y017439D01*
X043737Y017439D01*
X043915Y017747D01*
X043915Y017747D01*
X043916Y017747D01*
X044188Y017976D01*
X044188Y017976D01*
X044523Y018098D01*
X044523Y018098D01*
X044645Y018098D01*
X044645Y018098D01*
X044700Y018098D01*
X044701Y018098D01*
X044701Y019338D01*
X044201Y019338D02*
X044201Y017981D01*
X044024Y017838D02*
X042771Y017838D01*
X042771Y018338D02*
X045921Y018338D01*
X045921Y017838D02*
X045378Y017838D01*
X045487Y017747D02*
X045214Y017976D01*
X045214Y017976D01*
X044879Y018098D01*
X044757Y018098D01*
X044757Y018098D01*
X044701Y018098D01*
X044879Y018098D02*
X044879Y018098D01*
X045201Y017981D02*
X045201Y019338D01*
X045701Y019338D02*
X045701Y017233D01*
X045683Y017338D02*
X045921Y017338D01*
X045665Y017439D02*
X045727Y017088D01*
X045727Y017088D01*
X045665Y016738D01*
X045665Y016737D01*
X045487Y016429D01*
X045487Y016429D01*
X045487Y016429D01*
X045201Y016195D02*
X045201Y001950D01*
X045590Y002338D02*
X040099Y002338D01*
X040201Y002301D02*
X040201Y002436D01*
X039963Y002338D02*
X035099Y002338D01*
X035201Y002301D02*
X035201Y002436D01*
X034963Y002338D02*
X030099Y002338D01*
X030201Y002301D02*
X030201Y002436D01*
X029963Y002338D02*
X025099Y002338D01*
X025201Y002301D02*
X025201Y002436D01*
X024963Y002338D02*
X020099Y002338D01*
X020201Y002301D02*
X020201Y002436D01*
X019963Y002338D02*
X015099Y002338D01*
X015201Y002301D02*
X015201Y002436D01*
X014963Y002338D02*
X010099Y002338D01*
X010201Y002301D02*
X010201Y002436D01*
X009963Y002338D02*
X005099Y002338D01*
X005099Y002301D02*
X005099Y002436D01*
X005634Y002436D01*
X005634Y002618D01*
X005281Y002971D01*
X005099Y002971D01*
X005099Y002436D01*
X004964Y002436D01*
X004964Y002971D01*
X004782Y002971D01*
X004429Y002618D01*
X004429Y002436D01*
X004963Y002436D01*
X004963Y002301D01*
X004429Y002301D01*
X004429Y002119D01*
X004782Y001766D01*
X004964Y001766D01*
X004964Y002301D01*
X005099Y002301D01*
X005634Y002301D01*
X005634Y002119D01*
X005281Y001766D01*
X005099Y001766D01*
X005099Y002301D01*
X005201Y002301D02*
X005201Y002436D01*
X004963Y002338D02*
X002312Y002338D01*
X002245Y002423D02*
X002078Y002770D01*
X001992Y003146D01*
X001981Y003338D01*
X001981Y003387D01*
X001981Y003394D01*
X001981Y014838D01*
X018249Y014838D01*
X017069Y013658D01*
X006765Y013658D01*
X006637Y013658D01*
X006520Y013610D01*
X005854Y012943D01*
X005627Y012943D01*
X005346Y012662D01*
X005346Y012264D01*
X005627Y011983D01*
X005854Y011983D01*
X006471Y011366D01*
X006471Y011139D01*
X006752Y010858D01*
X007150Y010858D01*
X007431Y011139D01*
X007431Y011537D01*
X007150Y011818D01*
X006924Y011818D01*
X006306Y012436D01*
X006306Y012491D01*
X006834Y013018D01*
X017265Y013018D01*
X017382Y013067D01*
X017472Y013157D01*
X019154Y014838D01*
X019539Y014838D01*
X019544Y014826D01*
X019679Y014691D01*
X019856Y014618D01*
X020047Y014618D01*
X020223Y014691D01*
X020358Y014826D01*
X020431Y015003D01*
X020431Y015674D01*
X020358Y015850D01*
X020223Y015985D01*
X020047Y016058D01*
X019856Y016058D01*
X019701Y015994D01*
X019701Y016511D01*
X019770Y016442D01*
X020242Y015970D01*
X020242Y015969D01*
X020332Y015879D01*
X020450Y015831D01*
X020536Y015831D01*
X020471Y015674D01*
X020471Y015003D01*
X020544Y014826D01*
X020679Y014691D01*
X020856Y014618D01*
X021047Y014618D01*
X021223Y014691D01*
X021358Y014826D01*
X021431Y015003D01*
X021431Y015674D01*
X021366Y015831D01*
X021536Y015831D01*
X021471Y015674D01*
X021471Y015003D01*
X021544Y014826D01*
X021679Y014691D01*
X021856Y014618D01*
X022047Y014618D01*
X022223Y014691D01*
X022358Y014826D01*
X022431Y015003D01*
X022431Y015674D01*
X022366Y015831D01*
X022536Y015831D01*
X022471Y015674D01*
X022471Y015003D01*
X022544Y014826D01*
X022631Y014739D01*
X022631Y013221D01*
X022576Y013166D01*
X022382Y013360D01*
X022265Y013408D01*
X022137Y013408D01*
X022087Y013408D01*
X022101Y013423D01*
X022101Y013588D01*
X021701Y013588D01*
X021701Y013588D01*
X021701Y013589D02*
X021701Y014682D01*
X021539Y014838D02*
X021363Y014838D01*
X021201Y014682D02*
X021201Y014017D01*
X021150Y014068D02*
X020752Y014068D01*
X020471Y013787D01*
X020471Y013389D01*
X020752Y013108D01*
X020979Y013108D01*
X021180Y012907D01*
X021259Y012828D01*
X021248Y012828D01*
X020961Y012541D01*
X020961Y012135D01*
X021248Y011848D01*
X021654Y011848D01*
X021941Y012135D01*
X021941Y012541D01*
X021714Y012768D01*
X022069Y012768D01*
X022256Y012581D01*
X022256Y011946D01*
X021979Y011668D01*
X021752Y011668D01*
X021471Y011387D01*
X021471Y010989D01*
X021552Y010908D01*
X018350Y010908D01*
X018431Y010989D01*
X018431Y011387D01*
X018150Y011668D01*
X017752Y011668D01*
X017471Y011387D01*
X017471Y010989D01*
X017552Y010908D01*
X017387Y010908D01*
X017431Y010952D01*
X017431Y011350D01*
X017150Y011631D01*
X016752Y011631D01*
X016471Y011350D01*
X016471Y010952D01*
X016515Y010908D01*
X016084Y010908D01*
X015771Y011221D01*
X015771Y011965D01*
X015941Y012135D01*
X015941Y012541D01*
X015654Y012828D01*
X015248Y012828D01*
X014961Y012541D01*
X014961Y012135D01*
X015131Y011965D01*
X015131Y011152D01*
X015131Y011025D01*
X015180Y010907D01*
X015680Y010407D01*
X015770Y010317D01*
X015887Y010268D01*
X016566Y010268D01*
X016551Y010254D01*
X016551Y010088D01*
X016551Y009923D01*
X016691Y009783D01*
X015459Y009783D01*
X014771Y010471D01*
X014771Y011965D01*
X014941Y012135D01*
X014941Y012541D01*
X014654Y012828D01*
X014248Y012828D01*
X013961Y012541D01*
X013961Y012135D01*
X014131Y011965D01*
X014131Y010275D01*
X014180Y010157D01*
X014270Y010067D01*
X015055Y009282D01*
X015145Y009192D01*
X015055Y009282D02*
X015055Y009282D01*
X014999Y009338D02*
X013271Y009338D01*
X013271Y009197D02*
X013271Y009729D01*
X013431Y009889D01*
X013431Y010287D01*
X013271Y010447D01*
X013271Y010792D01*
X013431Y010952D01*
X013431Y011350D01*
X013161Y011619D01*
X013431Y011889D01*
X013431Y012287D01*
X013150Y012568D01*
X012752Y012568D01*
X012471Y012287D01*
X012471Y011889D01*
X012741Y011620D01*
X012471Y011350D01*
X012471Y010952D01*
X012631Y010792D01*
X012631Y010447D01*
X012471Y010287D01*
X012471Y009889D01*
X012631Y009729D01*
X012631Y009197D01*
X012471Y009037D01*
X012471Y008639D01*
X012752Y008358D01*
X012979Y008358D01*
X013459Y007878D01*
X013459Y007639D01*
X013740Y007358D01*
X014137Y007358D01*
X014419Y007639D01*
X014419Y008037D01*
X014137Y008318D01*
X013924Y008318D01*
X013431Y008811D01*
X013431Y009037D01*
X013271Y009197D01*
X013431Y008838D02*
X016471Y008838D01*
X016201Y009143D02*
X016201Y008255D01*
X015701Y008280D02*
X015701Y009143D01*
X015326Y009463D02*
X025451Y009463D01*
X026451Y009463D02*
X034076Y009463D01*
X036701Y012088D01*
X037951Y012088D01*
X038154Y011838D02*
X038999Y011838D01*
X038951Y012339D02*
X038951Y012339D01*
X038201Y011886D02*
X038201Y011767D01*
X037201Y012408D02*
X037201Y012912D01*
X036845Y013338D02*
X035404Y013338D01*
X035201Y013408D02*
X035201Y014768D01*
X034701Y014768D02*
X034701Y013408D01*
X034201Y013408D02*
X034201Y013409D01*
X034431Y013838D02*
X035471Y013838D01*
X035951Y013838D02*
X037451Y013838D01*
X036845Y014338D02*
X031404Y014338D01*
X031201Y014541D02*
X031201Y015686D01*
X031220Y015678D02*
X031433Y015678D01*
X031629Y015759D01*
X031780Y015910D01*
X031861Y016107D01*
X031861Y016320D01*
X031780Y016516D01*
X031629Y016667D01*
X031433Y016749D01*
X031220Y016749D01*
X031023Y016667D01*
X030872Y016516D01*
X030791Y016320D01*
X030791Y016107D01*
X030872Y015910D01*
X031023Y015759D01*
X031220Y015678D01*
X030944Y015838D02*
X027845Y015838D01*
X027701Y015831D02*
X027701Y015158D01*
X027431Y015338D02*
X030201Y015338D01*
X030201Y015338D01*
X030201Y015338D01*
X033124Y015338D01*
X033201Y015261D02*
X033201Y013408D01*
X032701Y013408D02*
X032701Y015761D01*
X032624Y015838D02*
X031708Y015838D01*
X031701Y015831D02*
X031701Y014041D01*
X031904Y013838D02*
X033471Y013838D01*
X033951Y013838D02*
X033951Y013838D01*
X033701Y013409D02*
X033701Y013408D01*
X033701Y012768D02*
X033701Y012654D01*
X033785Y012738D02*
X033551Y012504D01*
X033551Y012338D01*
X033551Y012173D01*
X033785Y011938D01*
X033951Y011938D01*
X033951Y012338D01*
X033951Y012338D01*
X033951Y011938D01*
X034117Y011938D01*
X034351Y012173D01*
X034351Y012338D01*
X033951Y012338D01*
X033551Y012338D01*
X033951Y012338D01*
X033951Y012338D01*
X032271Y012338D01*
X032271Y012275D02*
X032271Y012402D01*
X032222Y012520D01*
X031222Y013520D01*
X031132Y013610D01*
X031015Y013658D01*
X030560Y013658D01*
X030400Y013818D01*
X030002Y013818D01*
X029721Y013537D01*
X029721Y013139D01*
X030002Y012858D01*
X030400Y012858D01*
X030560Y013018D01*
X030819Y013018D01*
X031631Y012206D01*
X031631Y011572D01*
X031471Y011412D01*
X031471Y011014D01*
X031752Y010733D01*
X032150Y010733D01*
X032431Y011014D01*
X032431Y011412D01*
X032271Y011572D01*
X032271Y012275D01*
X032201Y012541D02*
X032201Y012768D01*
X032137Y012768D02*
X032265Y012768D01*
X035069Y012768D01*
X035471Y012366D01*
X035471Y012139D01*
X035752Y011858D01*
X036019Y011858D01*
X033944Y009783D01*
X033325Y009783D01*
X033431Y009889D01*
X033431Y010287D01*
X033150Y010568D01*
X032752Y010568D01*
X032471Y010287D01*
X032471Y009889D01*
X032577Y009783D01*
X032212Y009783D01*
X032351Y009923D01*
X032351Y010088D01*
X031951Y010088D01*
X031551Y010088D01*
X031551Y009923D01*
X031691Y009783D01*
X028325Y009783D01*
X028431Y009889D01*
X028431Y010287D01*
X028311Y010407D01*
X028311Y010894D01*
X028431Y011014D01*
X028431Y011412D01*
X028150Y011693D01*
X027752Y011693D01*
X027471Y011412D01*
X027471Y011014D01*
X027591Y010894D01*
X027591Y010407D01*
X027471Y010287D01*
X027471Y009889D01*
X027577Y009783D01*
X027212Y009783D01*
X027351Y009923D01*
X027351Y010088D01*
X026951Y010088D01*
X026551Y010088D01*
X026551Y009923D01*
X026691Y009783D01*
X026584Y009783D01*
X025507Y010860D01*
X025486Y010868D01*
X026592Y010868D01*
X026752Y010708D01*
X027150Y010708D01*
X027431Y010989D01*
X027431Y011387D01*
X027150Y011668D01*
X026752Y011668D01*
X026592Y011508D01*
X024184Y011508D01*
X024021Y011671D01*
X024021Y011848D01*
X024404Y011848D01*
X024691Y012135D01*
X024691Y012541D01*
X024404Y012828D01*
X024021Y012828D01*
X024021Y013229D01*
X024181Y013389D01*
X024181Y013787D01*
X024021Y013947D01*
X024021Y014206D01*
X024222Y014407D01*
X024271Y014525D01*
X024271Y014652D01*
X024271Y014739D01*
X024358Y014826D01*
X024431Y015003D01*
X024431Y015674D01*
X024366Y015831D01*
X024536Y015831D01*
X024471Y015674D01*
X024471Y015003D01*
X024544Y014826D01*
X024679Y014691D01*
X024856Y014618D01*
X025047Y014618D01*
X025223Y014691D01*
X025358Y014826D01*
X025431Y015003D01*
X025431Y015674D01*
X025366Y015831D01*
X025536Y015831D01*
X025471Y015674D01*
X025471Y015003D01*
X025544Y014826D01*
X025631Y014739D01*
X025631Y014652D01*
X025631Y014525D01*
X025680Y014407D01*
X025930Y014157D01*
X026020Y014067D01*
X026046Y014056D01*
X025993Y013929D01*
X025993Y013747D01*
X026041Y013631D01*
X025239Y012828D01*
X024998Y012828D01*
X024711Y012541D01*
X024711Y012135D01*
X024998Y011848D01*
X025404Y011848D01*
X025691Y012135D01*
X025691Y012376D01*
X025711Y012396D01*
X025711Y012135D01*
X025998Y011848D01*
X026404Y011848D01*
X026691Y012135D01*
X026691Y012541D01*
X026404Y012828D01*
X026144Y012828D01*
X026632Y013317D01*
X026722Y013407D01*
X026761Y013500D01*
X026839Y013579D01*
X026881Y013679D01*
X026881Y012711D01*
X026711Y012541D01*
X026711Y012135D01*
X026998Y011848D01*
X027404Y011848D01*
X027691Y012135D01*
X027691Y012541D01*
X027521Y012711D01*
X027521Y013706D01*
X027696Y013880D01*
X027792Y013880D01*
X027961Y013950D01*
X028089Y014079D01*
X028159Y014247D01*
X028159Y014429D01*
X028122Y014518D01*
X030319Y014518D01*
X032020Y012817D01*
X032137Y012768D01*
X031999Y012838D02*
X031904Y012838D01*
X031701Y013041D02*
X031701Y013136D01*
X031499Y013338D02*
X031404Y013338D01*
X031201Y013541D02*
X031201Y013636D01*
X030999Y013838D02*
X027654Y013838D01*
X027701Y013880D02*
X027701Y011642D01*
X027998Y011848D02*
X028404Y011848D01*
X028691Y012135D01*
X028691Y012541D01*
X028404Y012828D01*
X027998Y012828D01*
X027711Y012541D01*
X027711Y012135D01*
X027998Y011848D01*
X028201Y011848D02*
X028201Y011642D01*
X028431Y011338D02*
X031471Y011338D01*
X031951Y011213D02*
X031951Y012338D01*
X030951Y013338D01*
X030201Y013338D01*
X030201Y013338D01*
X030201Y012858D02*
X030201Y012828D01*
X029998Y012828D02*
X029711Y012541D01*
X029711Y012135D01*
X029998Y011848D01*
X030404Y011848D01*
X030691Y012135D01*
X030691Y012541D01*
X030404Y012828D01*
X029998Y012828D01*
X029691Y012541D02*
X029404Y012828D01*
X028998Y012828D01*
X028711Y012541D01*
X028711Y012135D01*
X028998Y011848D01*
X029404Y011848D01*
X029691Y012135D01*
X029691Y012541D01*
X029691Y012338D02*
X029711Y012338D01*
X030201Y011848D02*
X030201Y009783D01*
X029701Y009783D02*
X029701Y014518D01*
X029201Y014518D02*
X029201Y012828D01*
X029721Y013338D02*
X027521Y013338D01*
X027521Y012838D02*
X030999Y012838D01*
X031201Y012636D02*
X031201Y009783D01*
X031635Y009838D02*
X028380Y009838D01*
X028701Y009783D02*
X028701Y014518D01*
X028201Y014518D02*
X028201Y012828D01*
X027711Y012338D02*
X027691Y012338D01*
X027201Y012338D02*
X027201Y013838D01*
X027701Y014338D01*
X028159Y014338D02*
X030499Y014338D01*
X030701Y014136D02*
X030701Y013658D01*
X030201Y013818D02*
X030201Y014518D01*
X030451Y014838D02*
X027451Y014838D01*
X026951Y014338D01*
X026201Y014338D01*
X025951Y014588D01*
X025951Y015338D01*
X025471Y015338D02*
X025431Y015338D01*
X025363Y014838D02*
X025539Y014838D01*
X025201Y014682D02*
X025201Y012828D01*
X025249Y012838D02*
X024021Y012838D01*
X024201Y012828D02*
X024201Y014386D01*
X024154Y014338D02*
X025749Y014338D01*
X025701Y014386D02*
X025701Y013291D01*
X025749Y013338D02*
X024130Y013338D01*
X023701Y013588D02*
X023701Y014338D01*
X023951Y014588D01*
X023951Y015338D01*
X024431Y015338D02*
X024471Y015338D01*
X024539Y014838D02*
X024363Y014838D01*
X024701Y014682D02*
X024701Y011508D01*
X024201Y011508D02*
X024201Y011848D01*
X024021Y011838D02*
X031631Y011838D01*
X031499Y012338D02*
X030691Y012338D01*
X030701Y013018D02*
X030701Y009783D01*
X031551Y010088D02*
X031951Y010088D01*
X031951Y010088D01*
X031951Y010088D01*
X031951Y010089D02*
X031951Y010488D01*
X031785Y010488D01*
X031551Y010254D01*
X031551Y010088D01*
X031701Y010088D02*
X031701Y010088D01*
X031951Y010089D02*
X031951Y010089D01*
X031951Y010488D01*
X032117Y010488D01*
X032351Y010254D01*
X032351Y010088D01*
X031951Y010088D01*
X032201Y010088D02*
X032201Y010088D01*
X032267Y009838D02*
X032522Y009838D01*
X032522Y010338D02*
X032267Y010338D01*
X032201Y010404D02*
X032201Y010784D01*
X032255Y010838D02*
X034999Y010838D01*
X035201Y011041D02*
X035201Y012636D01*
X035471Y012338D02*
X033951Y012338D01*
X033951Y012338D01*
X034351Y012338D01*
X034351Y012504D01*
X034117Y012738D01*
X033951Y012738D01*
X033785Y012738D01*
X033951Y012738D02*
X033951Y012339D01*
X033951Y012339D01*
X033951Y012738D01*
X034201Y012768D02*
X034201Y012654D01*
X034201Y012338D02*
X034201Y012338D01*
X034201Y012023D02*
X034201Y010041D01*
X033999Y009838D02*
X033380Y009838D01*
X033701Y009783D02*
X033701Y012023D01*
X033701Y012338D02*
X033701Y012338D01*
X033201Y012768D02*
X033201Y011767D01*
X033150Y011818D02*
X033431Y011537D01*
X033431Y011139D01*
X033150Y010858D01*
X032752Y010858D01*
X032471Y011139D01*
X032471Y011537D01*
X032752Y011818D01*
X033150Y011818D01*
X032701Y011767D02*
X032701Y012768D01*
X032201Y013088D02*
X030451Y014838D01*
X030701Y015041D02*
X030701Y017018D01*
X030201Y017018D02*
X030201Y015339D01*
X030201Y015738D01*
X030035Y015738D01*
X029801Y015504D01*
X029801Y015338D01*
X030201Y015338D01*
X030601Y015338D01*
X030601Y015504D01*
X030367Y015738D01*
X030201Y015738D01*
X030201Y015339D01*
X030201Y015339D01*
X029701Y015158D02*
X029701Y017136D01*
X029680Y017157D02*
X029680Y017157D01*
X029498Y017338D02*
X029404Y017338D01*
X029201Y017136D02*
X029201Y015158D01*
X028701Y015158D02*
X028701Y016636D01*
X028904Y016838D02*
X031624Y016838D01*
X031701Y016761D02*
X031701Y016595D01*
X031854Y016338D02*
X032124Y016338D01*
X032201Y016261D02*
X032201Y013541D01*
X032201Y013088D02*
X035201Y013088D01*
X035951Y012338D01*
X036431Y012338D02*
X036499Y012338D01*
X036701Y012408D02*
X036701Y013518D01*
X036201Y013409D02*
X036201Y012767D01*
X035904Y012838D02*
X038131Y012838D01*
X039904Y012838D02*
X040131Y012838D01*
X040131Y012338D02*
X040021Y012338D01*
X039999Y011838D02*
X039904Y011838D01*
X039701Y011636D02*
X039701Y006158D01*
X039201Y006158D02*
X039201Y007409D01*
X039431Y007838D02*
X040471Y007838D01*
X040701Y007409D02*
X040701Y006158D01*
X040989Y006338D02*
X037354Y006338D01*
X037354Y006316D02*
X036954Y005916D01*
X036388Y005916D01*
X036271Y006033D01*
X036271Y005721D01*
X037152Y004840D01*
X037201Y004722D01*
X037201Y004595D01*
X037201Y004293D01*
X037201Y004338D02*
X038616Y004338D01*
X038701Y004298D02*
X038701Y001618D01*
X038201Y001618D02*
X038201Y004794D01*
X038308Y004838D02*
X038329Y004838D01*
X037734Y004838D02*
X037153Y004838D01*
X036881Y004658D02*
X036881Y003648D01*
X036701Y002966D02*
X036701Y001618D01*
X037201Y001618D02*
X037201Y003003D01*
X037536Y003338D02*
X041226Y003338D01*
X041201Y003363D02*
X041201Y001618D01*
X040701Y001618D02*
X040701Y005518D01*
X040201Y005518D02*
X040201Y002971D01*
X040099Y002838D02*
X039964Y002838D01*
X039701Y002890D02*
X039701Y005518D01*
X039546Y005338D02*
X045921Y005338D01*
X045921Y004838D02*
X039694Y004838D01*
X039406Y004338D02*
X045921Y004338D01*
X045921Y003838D02*
X042564Y003838D01*
X042564Y003931D02*
X042164Y004331D01*
X041598Y004331D01*
X041199Y003931D01*
X041199Y003366D01*
X041598Y002966D01*
X042164Y002966D01*
X042564Y003366D01*
X042564Y003931D01*
X042201Y004293D02*
X042201Y005518D01*
X041701Y005518D02*
X041701Y004331D01*
X041201Y003933D02*
X041201Y005518D01*
X040201Y006158D02*
X040201Y009136D01*
X039999Y009338D02*
X038271Y009338D01*
X037631Y009338D02*
X035029Y009338D01*
X035201Y009511D02*
X035201Y002971D01*
X035099Y002838D02*
X034964Y002838D01*
X035413Y002838D02*
X039649Y002838D01*
X039701Y002436D02*
X039701Y002301D01*
X039201Y001618D02*
X039201Y004248D01*
X037701Y004852D02*
X037701Y001618D01*
X040413Y002838D02*
X045840Y002838D01*
X045701Y002514D02*
X045701Y016944D01*
X045683Y016838D02*
X045921Y016838D01*
X045665Y017439D02*
X045665Y017439D01*
X045487Y017747D01*
X045487Y017747D01*
X045921Y018838D02*
X042771Y018838D01*
X042131Y018838D02*
X029451Y018838D01*
X029051Y018838D01*
X029051Y018673D01*
X029087Y018637D01*
X029020Y018609D01*
X027194Y016783D01*
X022959Y016783D01*
X022909Y016833D01*
X022909Y016929D01*
X022839Y017098D01*
X022711Y017227D01*
X022542Y017296D01*
X022360Y017296D01*
X022192Y017227D01*
X022123Y017158D01*
X021584Y017158D01*
X021271Y017471D01*
X021271Y017739D01*
X021358Y017826D01*
X021431Y018003D01*
X021431Y018674D01*
X021358Y018850D01*
X021223Y018985D01*
X021047Y019058D01*
X020856Y019058D01*
X020679Y018985D01*
X020544Y018850D01*
X020471Y018674D01*
X020471Y018003D01*
X020544Y017826D01*
X020631Y017739D01*
X020631Y017402D01*
X020631Y017275D01*
X020680Y017157D01*
X021180Y016657D01*
X021270Y016567D01*
X021387Y016518D01*
X022123Y016518D01*
X022171Y016471D01*
X020646Y016471D01*
X020271Y016846D01*
X020271Y017739D01*
X020358Y017826D01*
X020431Y018003D01*
X020431Y018674D01*
X020358Y018850D01*
X020271Y018937D01*
X020271Y019338D01*
X025499Y019338D01*
X025631Y019206D01*
X025631Y018937D01*
X025544Y018850D01*
X025471Y018674D01*
X025471Y018003D01*
X025544Y017826D01*
X025679Y017691D01*
X025759Y017658D01*
X025143Y017658D01*
X025223Y017691D01*
X025358Y017826D01*
X025431Y018003D01*
X025431Y018674D01*
X025358Y018850D01*
X025223Y018985D01*
X025047Y019058D01*
X024856Y019058D01*
X024679Y018985D01*
X024544Y018850D01*
X024471Y018674D01*
X024471Y018003D01*
X024544Y017826D01*
X024679Y017691D01*
X024759Y017658D01*
X024143Y017658D01*
X024223Y017691D01*
X024358Y017826D01*
X024431Y018003D01*
X024431Y018674D01*
X024358Y018850D01*
X024223Y018985D01*
X024047Y019058D01*
X023856Y019058D01*
X023679Y018985D01*
X023544Y018850D01*
X023471Y018674D01*
X023471Y018003D01*
X023544Y017826D01*
X023679Y017691D01*
X023759Y017658D01*
X023334Y017658D01*
X023271Y017721D01*
X023271Y017739D01*
X023358Y017826D01*
X023431Y018003D01*
X023431Y018674D01*
X023358Y018850D01*
X023223Y018985D01*
X023047Y019058D01*
X022856Y019058D01*
X022679Y018985D01*
X022544Y018850D01*
X022471Y018674D01*
X022471Y018003D01*
X022544Y017826D01*
X022631Y017739D01*
X022631Y017652D01*
X022631Y017525D01*
X022680Y017407D01*
X022895Y017192D01*
X022930Y017157D01*
X023020Y017067D01*
X023137Y017018D01*
X026623Y017018D01*
X026692Y016950D01*
X026860Y016880D01*
X027042Y016880D01*
X027211Y016950D01*
X027339Y017079D01*
X027409Y017247D01*
X027409Y017429D01*
X027339Y017598D01*
X027234Y017703D01*
X027358Y017826D01*
X027431Y018003D01*
X027431Y018674D01*
X027358Y018850D01*
X027271Y018937D01*
X027271Y019338D01*
X027726Y019338D01*
X027726Y019323D01*
X028166Y019323D01*
X028166Y019253D01*
X028236Y019253D01*
X028236Y018898D01*
X028537Y018898D01*
X028578Y018909D01*
X028614Y018930D01*
X028644Y018960D01*
X028665Y018996D01*
X028676Y019037D01*
X028676Y019253D01*
X028236Y019253D01*
X028236Y019323D01*
X028676Y019323D01*
X028676Y019338D01*
X042131Y019338D01*
X042131Y014736D01*
X042106Y014725D01*
X041951Y014571D01*
X041797Y014725D01*
X041572Y014818D01*
X041330Y014818D01*
X041106Y014725D01*
X040951Y014571D01*
X040797Y014725D01*
X040771Y014736D01*
X040771Y014902D01*
X040722Y015020D01*
X040632Y015110D01*
X040472Y015269D01*
X040472Y015270D02*
X040382Y015360D01*
X040265Y015408D01*
X033959Y015408D01*
X032056Y017311D01*
X032056Y017537D01*
X031775Y017818D01*
X031377Y017818D01*
X031217Y017658D01*
X030084Y017658D01*
X029931Y017811D01*
X029931Y017929D01*
X030002Y017858D01*
X030400Y017858D01*
X030560Y018018D01*
X031137Y018018D01*
X031143Y018018D01*
X031217Y018018D01*
X031377Y017858D01*
X031775Y017858D01*
X032056Y018139D01*
X032056Y018537D01*
X031775Y018818D01*
X031377Y018818D01*
X031217Y018658D01*
X031137Y018658D01*
X030560Y018658D01*
X030400Y018818D01*
X030002Y018818D01*
X029842Y018658D01*
X029837Y018658D01*
X029851Y018673D01*
X029851Y018838D01*
X029451Y018838D01*
X029451Y018838D01*
X027363Y018838D01*
X027737Y018996D02*
X027726Y019037D01*
X027726Y019253D01*
X028166Y019253D01*
X028166Y018898D01*
X027865Y018898D01*
X027824Y018909D01*
X027788Y018930D01*
X027758Y018960D01*
X027737Y018996D01*
X027701Y019338D02*
X027701Y017291D01*
X027749Y017338D02*
X027409Y017338D01*
X027201Y016946D02*
X027201Y016791D01*
X027249Y016838D02*
X022909Y016838D01*
X023201Y016783D02*
X023201Y017018D01*
X022930Y017157D02*
X022930Y017157D01*
X022895Y017192D02*
X022895Y017192D01*
X022701Y017231D02*
X022701Y017386D01*
X022749Y017338D02*
X021404Y017338D01*
X021701Y017158D02*
X021701Y017784D01*
X021696Y017788D02*
X021762Y017744D01*
X021834Y017714D01*
X021912Y017698D01*
X021951Y017698D01*
X021951Y018338D01*
X021951Y018338D01*
X021951Y017698D01*
X021991Y017698D01*
X022068Y017714D01*
X022141Y017744D01*
X022206Y017788D01*
X022262Y017843D01*
X022306Y017909D01*
X022336Y017982D01*
X022351Y018059D01*
X022351Y018338D01*
X021951Y018338D01*
X021551Y018338D01*
X021551Y018059D01*
X021566Y017982D01*
X021597Y017909D01*
X021640Y017843D01*
X021696Y017788D01*
X021645Y017838D02*
X021363Y017838D01*
X021431Y018338D02*
X021951Y018338D01*
X021951Y018338D01*
X021951Y018338D01*
X021551Y018338D01*
X021551Y018618D01*
X021566Y018695D01*
X021597Y018768D01*
X021640Y018833D01*
X021696Y018889D01*
X021762Y018933D01*
X021834Y018963D01*
X021912Y018978D01*
X021951Y018978D01*
X021951Y018339D01*
X021951Y018339D01*
X021951Y018978D01*
X021991Y018978D01*
X022068Y018963D01*
X022141Y018933D01*
X022206Y018889D01*
X022262Y018833D01*
X022306Y018768D01*
X022336Y018695D01*
X022351Y018618D01*
X022351Y018338D01*
X021951Y018338D01*
X022471Y018338D01*
X022201Y018338D02*
X022201Y018338D01*
X021701Y018338D02*
X021701Y018338D01*
X021951Y017838D02*
X021951Y017838D01*
X022201Y017784D02*
X022201Y017231D01*
X022451Y016838D02*
X021451Y016838D01*
X020951Y017338D01*
X020951Y018338D01*
X020471Y018338D02*
X020431Y018338D01*
X019951Y018338D02*
X019951Y019838D01*
X020701Y020588D01*
X023451Y020588D01*
X024201Y021338D01*
X024201Y027838D01*
X023701Y028338D01*
X024451Y029088D01*
X024451Y031338D01*
X023961Y031338D02*
X023451Y031338D01*
X023451Y031338D01*
X023451Y030928D01*
X023281Y030928D01*
X023041Y031168D01*
X023041Y031338D01*
X023451Y031338D01*
X023451Y031338D01*
X023451Y030928D01*
X023621Y030928D01*
X023861Y031168D01*
X023861Y031338D01*
X023451Y031338D01*
X022451Y031338D01*
X022451Y031338D01*
X022451Y030928D01*
X022281Y030928D01*
X022041Y031168D01*
X022041Y031338D01*
X022451Y031338D01*
X022451Y031338D01*
X022451Y030928D01*
X022621Y030928D01*
X022861Y031168D01*
X022861Y031338D01*
X022451Y031338D01*
X021941Y031338D01*
X022041Y031338D02*
X022451Y031338D01*
X022451Y031338D01*
X022451Y031339D02*
X022451Y031748D01*
X022281Y031748D01*
X022041Y031508D01*
X022041Y031338D01*
X022201Y031338D02*
X022201Y031338D01*
X022451Y031339D02*
X022451Y031339D01*
X022451Y031748D01*
X022621Y031748D01*
X022861Y031508D01*
X022861Y031338D01*
X022451Y031338D01*
X022701Y031338D02*
X022701Y031338D01*
X022701Y031008D02*
X022701Y029008D01*
X022568Y029008D02*
X022322Y028906D01*
X022244Y028828D01*
X022159Y028828D01*
X022081Y028906D01*
X021834Y029008D01*
X021597Y029008D01*
X021040Y029565D01*
X020928Y029677D01*
X020781Y029738D01*
X013867Y029738D01*
X012040Y031565D01*
X011928Y031677D01*
X011781Y031738D01*
X011249Y031738D01*
X011081Y031906D01*
X010834Y032008D01*
X010568Y032008D01*
X010322Y031906D01*
X010201Y031786D01*
X010201Y032058D01*
X010081Y031906D02*
X009834Y032008D01*
X009568Y032008D01*
X009322Y031906D01*
X009201Y031786D01*
X009201Y032058D01*
X009081Y031906D02*
X008834Y032008D01*
X008568Y032008D01*
X008322Y031906D01*
X008201Y031786D01*
X008201Y032058D01*
X008081Y031906D02*
X007834Y032008D01*
X007568Y032008D01*
X007322Y031906D01*
X007201Y031786D01*
X007201Y032058D01*
X007081Y031906D02*
X007201Y031786D01*
X007149Y031838D02*
X007254Y031838D01*
X007081Y031906D02*
X006834Y032008D01*
X006568Y032008D01*
X006322Y031906D01*
X006201Y031786D01*
X006201Y032058D01*
X006081Y031906D02*
X006201Y031786D01*
X006149Y031838D02*
X006254Y031838D01*
X006081Y031906D02*
X005834Y032008D01*
X005568Y032008D01*
X005322Y031906D01*
X005201Y031786D01*
X005201Y032058D01*
X005081Y031906D02*
X004834Y032008D01*
X004568Y032008D01*
X004322Y031906D01*
X004201Y031786D01*
X004201Y032058D01*
X004081Y031906D02*
X003834Y032008D01*
X003568Y032008D01*
X003322Y031906D01*
X003133Y031718D01*
X003031Y031472D01*
X003031Y031205D01*
X003133Y030959D01*
X003254Y030838D01*
X003133Y030718D01*
X003031Y030472D01*
X003031Y030205D01*
X003133Y029959D01*
X003254Y029838D01*
X001981Y029838D01*
X001981Y030338D02*
X003031Y030338D01*
X003201Y029891D02*
X003201Y029786D01*
X003254Y029838D02*
X003133Y029718D01*
X003031Y029472D01*
X003031Y029205D01*
X003133Y028959D01*
X003254Y028838D01*
X001981Y028838D01*
X001981Y029338D02*
X003031Y029338D01*
X003201Y028891D02*
X003201Y028786D01*
X003254Y028838D02*
X003133Y028718D01*
X003031Y028472D01*
X003031Y028205D01*
X003133Y027959D01*
X003254Y027838D01*
X001981Y027838D01*
X001981Y028338D02*
X003031Y028338D01*
X003201Y027891D02*
X003201Y027786D01*
X003254Y027838D02*
X003133Y027718D01*
X003031Y027472D01*
X003031Y027205D01*
X003133Y026959D01*
X003254Y026838D01*
X001981Y026838D01*
X001981Y027338D02*
X003031Y027338D01*
X003201Y026891D02*
X003201Y026786D01*
X003254Y026838D02*
X003133Y026718D01*
X003031Y026472D01*
X003031Y026205D01*
X003133Y025959D01*
X003254Y025838D01*
X001981Y025838D01*
X001981Y026338D02*
X003031Y026338D01*
X003201Y025891D02*
X003201Y025786D01*
X003254Y025838D02*
X003133Y025718D01*
X003031Y025472D01*
X003031Y025205D01*
X003133Y024959D01*
X003254Y024838D01*
X001981Y024838D01*
X001981Y025338D02*
X003031Y025338D01*
X003201Y024891D02*
X003201Y024786D01*
X003254Y024838D02*
X003133Y024718D01*
X003031Y024472D01*
X003031Y024205D01*
X003133Y023959D01*
X003254Y023838D01*
X003133Y023718D01*
X003031Y023472D01*
X003031Y023205D01*
X003133Y022959D01*
X003254Y022838D01*
X003133Y022718D01*
X003031Y022472D01*
X003031Y022205D01*
X003133Y021959D01*
X003254Y021838D01*
X003133Y021718D01*
X003031Y021472D01*
X003031Y021205D01*
X003133Y020959D01*
X003322Y020770D01*
X003568Y020668D01*
X003834Y020668D01*
X004081Y020770D01*
X004201Y020891D01*
X004322Y020770D01*
X004568Y020668D01*
X004834Y020668D01*
X005081Y020770D01*
X005201Y020891D01*
X005201Y015338D01*
X005201Y014838D02*
X005201Y002971D01*
X005099Y002838D02*
X004964Y002838D01*
X004701Y002890D02*
X004701Y014838D01*
X004201Y014838D02*
X004201Y012654D01*
X004226Y012629D02*
X003992Y012863D01*
X003826Y012863D01*
X003660Y012863D01*
X003426Y012629D01*
X003426Y012463D01*
X003426Y012298D01*
X003660Y012063D01*
X003826Y012063D01*
X003826Y012463D01*
X003826Y012463D01*
X003826Y012063D01*
X003992Y012063D01*
X004226Y012298D01*
X004226Y012463D01*
X003826Y012463D01*
X003426Y012463D01*
X003826Y012463D01*
X003826Y012463D01*
X003826Y012463D01*
X004226Y012463D01*
X004226Y012629D01*
X004201Y012463D02*
X004201Y012463D01*
X004226Y012338D02*
X005346Y012338D01*
X005826Y012463D02*
X006701Y013338D01*
X017201Y013338D01*
X019201Y015338D01*
X019951Y015338D01*
X020431Y015338D02*
X020471Y015338D01*
X020539Y014838D02*
X020363Y014838D01*
X020201Y014682D02*
X020201Y012781D01*
X020248Y012828D02*
X019961Y012541D01*
X019961Y012135D01*
X020248Y011848D01*
X020654Y011848D01*
X020941Y012135D01*
X020941Y012541D01*
X020654Y012828D01*
X020248Y012828D01*
X019941Y012541D02*
X019654Y012828D01*
X019248Y012828D01*
X018961Y012541D01*
X018961Y012135D01*
X019248Y011848D01*
X019654Y011848D01*
X019941Y012135D01*
X019941Y012541D01*
X019941Y012338D02*
X019961Y012338D01*
X020201Y011895D02*
X020201Y010908D01*
X019701Y010908D02*
X019701Y011895D01*
X019201Y011895D02*
X019201Y010908D01*
X018701Y010908D02*
X018701Y011895D01*
X018654Y011848D02*
X018941Y012135D01*
X018941Y012541D01*
X018654Y012828D01*
X018248Y012828D01*
X017961Y012541D01*
X017961Y012135D01*
X018248Y011848D01*
X018654Y011848D01*
X018201Y011895D02*
X018201Y011617D01*
X018431Y011338D02*
X021471Y011338D01*
X021701Y011617D02*
X021701Y011895D01*
X022149Y011838D02*
X015771Y011838D01*
X015961Y012135D02*
X016248Y011848D01*
X016654Y011848D01*
X016941Y012135D01*
X016941Y012541D01*
X016654Y012828D01*
X016248Y012828D01*
X015961Y012541D01*
X015961Y012135D01*
X015941Y012338D02*
X015961Y012338D01*
X016201Y011895D02*
X016201Y010908D01*
X015951Y010588D02*
X025326Y010588D01*
X026451Y009463D01*
X026529Y009838D02*
X026635Y009838D01*
X026701Y010088D02*
X026701Y010088D01*
X026551Y010088D02*
X026951Y010088D01*
X026951Y010088D01*
X026951Y010088D01*
X026951Y010089D02*
X026951Y010488D01*
X026785Y010488D01*
X026551Y010254D01*
X026551Y010088D01*
X026635Y010338D02*
X026029Y010338D01*
X026201Y010166D02*
X026201Y010868D01*
X026622Y010838D02*
X025529Y010838D01*
X025701Y010868D02*
X025701Y010666D01*
X026701Y010759D02*
X026701Y010404D01*
X026951Y010338D02*
X026951Y010338D01*
X026951Y010488D02*
X026951Y010089D01*
X026951Y010089D01*
X026951Y010088D02*
X027351Y010088D01*
X027351Y010254D01*
X027117Y010488D01*
X026951Y010488D01*
X027201Y010404D02*
X027201Y010759D01*
X027280Y010838D02*
X027591Y010838D01*
X027471Y011338D02*
X027431Y011338D01*
X027201Y011617D02*
X027201Y011848D01*
X026701Y011617D02*
X026701Y013386D01*
X026654Y013338D02*
X026881Y013338D01*
X026451Y013588D02*
X026451Y013838D01*
X026451Y013588D02*
X025201Y012338D01*
X025201Y011848D02*
X025201Y011508D01*
X025701Y011508D02*
X025701Y012386D01*
X025691Y012338D02*
X025711Y012338D01*
X026201Y011848D02*
X026201Y011508D01*
X026951Y011188D02*
X024051Y011188D01*
X023701Y011538D01*
X023701Y013588D01*
X024130Y013838D02*
X025993Y013838D01*
X026201Y012886D02*
X026201Y012828D01*
X026154Y012838D02*
X026881Y012838D01*
X026711Y012338D02*
X026691Y012338D01*
X024711Y012338D02*
X024691Y012338D01*
X022951Y013088D02*
X022576Y012713D01*
X022201Y013088D01*
X021451Y013088D01*
X020951Y013588D01*
X020701Y013159D02*
X020701Y012781D01*
X021201Y012781D02*
X021201Y012886D01*
X021249Y012838D02*
X011130Y012838D01*
X011201Y012767D02*
X011201Y013018D01*
X011025Y012943D02*
X010627Y012943D01*
X010346Y012662D01*
X010346Y012264D01*
X010627Y011983D01*
X010854Y011983D01*
X011471Y011366D01*
X011471Y011139D01*
X011752Y010858D01*
X012150Y010858D01*
X012431Y011139D01*
X012431Y011537D01*
X012150Y011818D01*
X011924Y011818D01*
X011306Y012436D01*
X011306Y012662D01*
X011025Y012943D01*
X010701Y012943D02*
X010701Y013018D01*
X010522Y012838D02*
X009017Y012838D01*
X008992Y012863D02*
X009226Y012629D01*
X009226Y012463D01*
X008826Y012463D01*
X008826Y012463D01*
X008826Y012063D01*
X008660Y012063D01*
X008426Y012298D01*
X008426Y012463D01*
X008826Y012463D01*
X008826Y012063D01*
X008992Y012063D01*
X009226Y012298D01*
X009226Y012463D01*
X008826Y012463D01*
X008826Y012463D01*
X008826Y012463D01*
X008426Y012463D01*
X008426Y012629D01*
X008660Y012863D01*
X008826Y012863D01*
X008826Y012464D01*
X008826Y012464D01*
X008826Y012863D01*
X008992Y012863D01*
X008826Y012838D02*
X008826Y012838D01*
X008701Y012863D02*
X008701Y013018D01*
X008635Y012838D02*
X006654Y012838D01*
X006701Y012886D02*
X006701Y012041D01*
X006904Y011838D02*
X010999Y011838D01*
X011201Y011636D02*
X011201Y008267D01*
X011150Y008318D02*
X010752Y008318D01*
X010471Y008037D01*
X010471Y007639D01*
X010631Y007479D01*
X010631Y005652D01*
X010631Y005525D01*
X010680Y005407D01*
X011561Y004526D01*
X011561Y004293D01*
X011199Y003931D01*
X011199Y003366D01*
X011598Y002966D01*
X012164Y002966D01*
X012564Y003366D01*
X012564Y003931D01*
X012201Y004293D01*
X012201Y006163D01*
X012354Y006316D02*
X011954Y005916D01*
X011388Y005916D01*
X011271Y006033D01*
X011271Y005721D01*
X012152Y004840D01*
X012201Y004722D01*
X012201Y004595D01*
X012201Y004293D01*
X012201Y004338D02*
X013616Y004338D01*
X013624Y004330D02*
X013875Y004226D01*
X014147Y004226D01*
X014398Y004330D01*
X014590Y004522D01*
X014694Y004772D01*
X014694Y005044D01*
X014590Y005295D01*
X014398Y005487D01*
X014147Y005591D01*
X013875Y005591D01*
X013704Y005520D01*
X013704Y005594D01*
X013600Y005845D01*
X013408Y006037D01*
X013157Y006141D01*
X012885Y006141D01*
X012634Y006037D01*
X012442Y005845D01*
X012339Y005594D01*
X012339Y005322D01*
X012442Y005072D01*
X012634Y004880D01*
X012885Y004776D01*
X013157Y004776D01*
X013329Y004847D01*
X013329Y004772D01*
X013432Y004522D01*
X013624Y004330D01*
X013701Y004298D02*
X013701Y001618D01*
X013201Y001618D02*
X013201Y004794D01*
X013308Y004838D02*
X013329Y004838D01*
X012734Y004838D02*
X012153Y004838D01*
X011881Y004658D02*
X010951Y005588D01*
X010951Y007838D01*
X010471Y007838D02*
X009431Y007838D01*
X009431Y007639D02*
X009150Y007358D01*
X008752Y007358D01*
X008471Y007639D01*
X008471Y008037D01*
X008752Y008318D01*
X009150Y008318D01*
X009431Y008037D01*
X009431Y007639D01*
X009201Y007409D02*
X009201Y005568D01*
X009147Y005591D02*
X008875Y005591D01*
X008704Y005520D01*
X008704Y005594D01*
X008600Y005845D01*
X008408Y006037D01*
X008157Y006141D01*
X007885Y006141D01*
X007634Y006037D01*
X007442Y005845D01*
X007339Y005594D01*
X007339Y005322D01*
X007442Y005072D01*
X007634Y004880D01*
X007885Y004776D01*
X008157Y004776D01*
X008329Y004847D01*
X008329Y004772D01*
X008432Y004522D01*
X008624Y004330D01*
X008875Y004226D01*
X009147Y004226D01*
X009398Y004330D01*
X009590Y004522D01*
X009694Y004772D01*
X009694Y005044D01*
X009590Y005295D01*
X009398Y005487D01*
X009147Y005591D01*
X008701Y005600D02*
X008701Y007409D01*
X008471Y007838D02*
X006431Y007838D01*
X005951Y007838D02*
X005951Y005588D01*
X006881Y004658D01*
X006881Y003648D01*
X007564Y003838D02*
X011199Y003838D01*
X011201Y003933D02*
X011201Y004886D01*
X011249Y004838D02*
X009694Y004838D01*
X009546Y005338D02*
X010749Y005338D01*
X010701Y005386D02*
X010701Y001618D01*
X011201Y001618D02*
X011201Y003363D01*
X011226Y003338D02*
X007536Y003338D01*
X007201Y003003D02*
X007201Y001618D01*
X006701Y001618D02*
X006701Y002966D01*
X006226Y003338D02*
X001981Y003338D01*
X002062Y002838D02*
X004649Y002838D01*
X004701Y002436D02*
X004701Y002301D01*
X004701Y001846D02*
X004701Y001618D01*
X004709Y001838D02*
X002876Y001838D01*
X002701Y001949D02*
X002701Y004852D01*
X002734Y004838D02*
X001981Y004838D01*
X001981Y005338D02*
X002339Y005338D01*
X002440Y005838D02*
X001981Y005838D01*
X001981Y006338D02*
X005631Y006338D01*
X005631Y005838D02*
X003602Y005838D01*
X003701Y005600D02*
X003701Y007409D01*
X003752Y007358D02*
X004150Y007358D01*
X004431Y007639D01*
X004431Y008037D01*
X004150Y008318D01*
X003752Y008318D01*
X003471Y008037D01*
X003471Y007639D01*
X003752Y007358D01*
X004201Y007409D02*
X004201Y005568D01*
X003329Y004838D02*
X003308Y004838D01*
X003201Y004794D02*
X003201Y001699D01*
X003701Y001618D02*
X044201Y001618D01*
X043701Y001618D02*
X043701Y016943D01*
X042131Y016838D02*
X032529Y016838D01*
X032701Y016666D02*
X032701Y019338D01*
X033201Y019338D02*
X033201Y018529D01*
X033176Y018504D02*
X033176Y018338D01*
X033176Y018173D01*
X033410Y017938D01*
X033576Y017938D01*
X033576Y018338D01*
X033576Y018338D01*
X033576Y017938D01*
X033742Y017938D01*
X033976Y018173D01*
X033976Y018338D01*
X033576Y018338D01*
X033176Y018338D01*
X033576Y018338D01*
X033576Y018338D01*
X032056Y018338D01*
X031576Y018338D02*
X031201Y018338D01*
X030201Y018338D01*
X029201Y018338D01*
X027326Y016463D01*
X022826Y016463D01*
X022451Y016838D01*
X023076Y017463D02*
X023201Y017338D01*
X026951Y017338D01*
X026701Y016946D02*
X026701Y016783D01*
X026201Y016783D02*
X026201Y017018D01*
X025701Y017018D02*
X025701Y016783D01*
X025201Y016783D02*
X025201Y017018D01*
X024701Y017018D02*
X024701Y016783D01*
X024201Y016783D02*
X024201Y017018D01*
X023701Y017018D02*
X023701Y016783D01*
X023701Y017658D02*
X023701Y017682D01*
X023539Y017838D02*
X023363Y017838D01*
X023076Y017463D02*
X022951Y017588D01*
X022951Y018338D01*
X023431Y018338D02*
X023471Y018338D01*
X023539Y018838D02*
X023363Y018838D01*
X023201Y018994D02*
X023201Y019338D01*
X022701Y019338D02*
X022701Y018994D01*
X022539Y018838D02*
X022257Y018838D01*
X022201Y018892D02*
X022201Y019338D01*
X021701Y019338D02*
X021701Y018892D01*
X021645Y018838D02*
X021363Y018838D01*
X021201Y018994D02*
X021201Y019338D01*
X020701Y019338D02*
X020701Y018994D01*
X020539Y018838D02*
X020363Y018838D01*
X019951Y018338D02*
X019951Y016713D01*
X020514Y016151D01*
X027764Y016151D01*
X029451Y017838D01*
X029451Y017838D01*
X029951Y017338D01*
X031576Y017338D01*
X033826Y015088D01*
X040201Y015088D01*
X040451Y014838D01*
X040451Y013838D01*
X040451Y011838D01*
X040201Y011588D01*
X040201Y009588D01*
X041651Y008138D01*
X042701Y008138D01*
X042701Y008608D02*
X042701Y012912D01*
X042201Y012912D02*
X042201Y011767D01*
X042150Y011818D02*
X042431Y011537D01*
X042431Y011139D01*
X042150Y010858D01*
X041752Y010858D01*
X041471Y011139D01*
X041471Y011537D01*
X041752Y011818D01*
X042150Y011818D01*
X041701Y011767D02*
X041701Y012912D01*
X041201Y012912D02*
X041201Y012767D01*
X040771Y012838D02*
X045921Y012838D01*
X045921Y013338D02*
X043057Y013338D01*
X043061Y013838D02*
X045921Y013838D01*
X045921Y014338D02*
X043057Y014338D01*
X042451Y013838D02*
X041451Y013838D01*
X042451Y013838D02*
X042451Y020338D01*
X042201Y019838D02*
X042201Y021891D01*
X042149Y021838D02*
X045921Y021838D01*
X045921Y022338D02*
X042371Y022338D01*
X042371Y022205D02*
X042371Y022472D01*
X042269Y022718D01*
X042149Y022838D01*
X045921Y022838D01*
X045921Y023338D02*
X042371Y023338D01*
X042371Y023205D02*
X042371Y023472D01*
X042269Y023718D01*
X042149Y023838D01*
X045921Y023838D01*
X045921Y024338D02*
X042371Y024338D01*
X042371Y024205D02*
X042371Y024472D01*
X042269Y024718D01*
X042149Y024838D01*
X045921Y024838D01*
X045921Y025338D02*
X042371Y025338D01*
X042371Y025205D02*
X042371Y025472D01*
X042269Y025718D01*
X042149Y025838D01*
X045921Y025838D01*
X045921Y026338D02*
X042371Y026338D01*
X042371Y026205D02*
X042371Y026472D01*
X042269Y026718D01*
X042149Y026838D01*
X045921Y026838D01*
X045921Y027338D02*
X042371Y027338D01*
X042371Y027205D02*
X042371Y027472D01*
X042269Y027718D01*
X042149Y027838D01*
X045921Y027838D01*
X045921Y028338D02*
X042371Y028338D01*
X042371Y028205D02*
X042371Y028472D01*
X042269Y028718D01*
X042149Y028838D01*
X045921Y028838D01*
X045921Y029338D02*
X042371Y029338D01*
X042371Y029205D02*
X042371Y029472D01*
X042269Y029718D01*
X042149Y029838D01*
X045921Y029838D01*
X045921Y030283D02*
X045921Y019838D01*
X028676Y019838D01*
X028676Y019853D01*
X028236Y019853D01*
X028236Y019923D01*
X028676Y019923D01*
X028676Y020139D01*
X028665Y020180D01*
X028644Y020216D01*
X028614Y020246D01*
X028578Y020267D01*
X028537Y020278D01*
X028236Y020278D01*
X028236Y019924D01*
X028166Y019924D01*
X028166Y020278D01*
X027865Y020278D01*
X027824Y020267D01*
X027788Y020246D01*
X027758Y020216D01*
X027737Y020180D01*
X027726Y020139D01*
X027726Y019923D01*
X028166Y019923D01*
X028166Y019853D01*
X027726Y019853D01*
X027726Y019838D01*
X026843Y019838D01*
X026909Y019997D01*
X026909Y020179D01*
X026839Y020348D01*
X026771Y020416D01*
X026771Y020527D01*
X026722Y020645D01*
X026521Y020846D01*
X026521Y021796D01*
X026588Y021768D01*
X026814Y021768D01*
X027024Y021855D01*
X027132Y021963D01*
X027133Y021959D01*
X027322Y021770D01*
X027568Y021668D01*
X027834Y021668D01*
X028081Y021770D01*
X028201Y021891D01*
X028201Y019924D01*
X028201Y019888D02*
X027151Y019888D01*
X027076Y019963D01*
X026951Y019838D01*
X026951Y018338D01*
X027431Y018338D02*
X028749Y018338D01*
X028701Y018291D02*
X028701Y019338D01*
X029051Y019004D02*
X029051Y018838D01*
X029451Y018838D01*
X029451Y018838D01*
X029451Y018839D02*
X029451Y019238D01*
X029285Y019238D01*
X029051Y019004D01*
X029201Y019154D02*
X029201Y019338D01*
X029451Y019238D02*
X029451Y018839D01*
X029451Y018839D01*
X029451Y018838D02*
X029851Y018838D01*
X029851Y019004D01*
X029617Y019238D01*
X029451Y019238D01*
X029701Y019154D02*
X029701Y019338D01*
X029701Y018838D02*
X029701Y018838D01*
X029201Y018838D02*
X029201Y018838D01*
X030201Y018818D02*
X030201Y019338D01*
X030701Y019338D02*
X030701Y018658D01*
X031201Y018658D02*
X031201Y019338D01*
X031701Y019338D02*
X031701Y018818D01*
X032201Y019338D02*
X032201Y017166D01*
X032056Y017338D02*
X033576Y017338D01*
X033576Y017338D01*
X033576Y016938D01*
X033410Y016938D01*
X033176Y017173D01*
X033176Y017338D01*
X033576Y017338D01*
X033576Y016938D01*
X033742Y016938D01*
X033976Y017173D01*
X033976Y017338D01*
X033576Y017338D01*
X033576Y017338D01*
X033576Y017338D01*
X033176Y017338D01*
X033176Y017504D01*
X033410Y017738D01*
X033576Y017738D01*
X033576Y017339D01*
X033576Y017339D01*
X033576Y017738D01*
X033742Y017738D01*
X033976Y017504D01*
X033976Y017338D01*
X033576Y017338D01*
X042131Y017338D01*
X042131Y017838D02*
X029931Y017838D01*
X030201Y017858D02*
X030201Y017658D01*
X030701Y017658D02*
X030701Y018018D01*
X031201Y018018D02*
X031201Y017658D01*
X031701Y017818D02*
X031701Y017858D01*
X031201Y017018D02*
X031201Y016741D01*
X030799Y016338D02*
X028404Y016338D01*
X028201Y016136D02*
X028201Y015158D01*
X030904Y014838D02*
X033624Y014838D01*
X033701Y014794D02*
X033701Y014267D01*
X034201Y014267D02*
X034201Y014768D01*
X034201Y015408D02*
X034201Y019338D01*
X033701Y019338D02*
X033701Y018738D01*
X033742Y018738D02*
X033576Y018738D01*
X033410Y018738D01*
X033176Y018504D01*
X033201Y018338D02*
X033201Y018338D01*
X033201Y018148D02*
X033201Y017529D01*
X033201Y017338D02*
X033201Y017338D01*
X033201Y017148D02*
X033201Y016166D01*
X033029Y016338D02*
X042131Y016338D01*
X042131Y015838D02*
X033529Y015838D01*
X033701Y015666D02*
X033701Y016938D01*
X033701Y017338D02*
X033701Y017338D01*
X033701Y017738D02*
X033701Y017938D01*
X033701Y018338D02*
X033701Y018338D01*
X033576Y018338D02*
X033976Y018338D01*
X033976Y018504D01*
X033742Y018738D01*
X033576Y018738D02*
X033576Y018339D01*
X033576Y018738D01*
X033576Y018339D02*
X033576Y018339D01*
X033576Y018338D02*
X033576Y018338D01*
X042131Y018338D01*
X041701Y019338D02*
X041701Y014765D01*
X042131Y014838D02*
X040771Y014838D01*
X040701Y015041D02*
X040701Y019338D01*
X040201Y019338D02*
X040201Y015408D01*
X040404Y015338D02*
X042131Y015338D01*
X042771Y015338D02*
X045921Y015338D01*
X045921Y014838D02*
X042771Y014838D01*
X041201Y014765D02*
X041201Y019338D01*
X041201Y019838D02*
X041201Y021891D01*
X041322Y021770D01*
X041568Y021668D01*
X041834Y021668D01*
X042081Y021770D01*
X042269Y021959D01*
X042371Y022205D01*
X042201Y022786D02*
X042201Y022891D01*
X042149Y022838D02*
X042269Y022959D01*
X042371Y023205D01*
X042201Y023786D02*
X042201Y023891D01*
X042149Y023838D02*
X042269Y023959D01*
X042371Y024205D01*
X042201Y024786D02*
X042201Y024891D01*
X042149Y024838D02*
X042269Y024959D01*
X042371Y025205D01*
X042201Y025786D02*
X042201Y025891D01*
X042149Y025838D02*
X042269Y025959D01*
X042371Y026205D01*
X042201Y026786D02*
X042201Y026891D01*
X042149Y026838D02*
X042269Y026959D01*
X042371Y027205D01*
X042201Y027786D02*
X042201Y027891D01*
X042149Y027838D02*
X042269Y027959D01*
X042371Y028205D01*
X042201Y028786D02*
X042201Y028891D01*
X042149Y028838D02*
X042269Y028959D01*
X042371Y029205D01*
X042201Y029786D02*
X042201Y029891D01*
X042149Y029838D02*
X042269Y029959D01*
X042371Y030205D01*
X042371Y030472D01*
X042269Y030718D01*
X042149Y030838D01*
X045840Y030838D01*
X045825Y030906D02*
X045910Y030531D01*
X045921Y030338D01*
X042371Y030338D01*
X042201Y030786D02*
X042201Y030891D01*
X042149Y030838D02*
X042269Y030959D01*
X042371Y031205D01*
X042371Y031472D01*
X042269Y031718D01*
X042081Y031906D01*
X041834Y032008D01*
X041568Y032008D01*
X041322Y031906D01*
X041201Y031786D01*
X041201Y032058D01*
X041081Y031906D02*
X040834Y032008D01*
X040568Y032008D01*
X040322Y031906D01*
X040201Y031786D01*
X040201Y032058D01*
X040081Y031906D02*
X039834Y032008D01*
X039568Y032008D01*
X039322Y031906D01*
X039201Y031786D01*
X039201Y032058D01*
X039081Y031906D02*
X038834Y032008D01*
X038568Y032008D01*
X038322Y031906D01*
X038201Y031786D01*
X038201Y032058D01*
X038081Y031906D02*
X037834Y032008D01*
X037568Y032008D01*
X037322Y031906D01*
X037201Y031786D01*
X037201Y032058D01*
X037081Y031906D02*
X036834Y032008D01*
X036568Y032008D01*
X036322Y031906D01*
X036201Y031786D01*
X036201Y032058D01*
X036081Y031906D02*
X035834Y032008D01*
X035568Y032008D01*
X035322Y031906D01*
X035201Y031786D01*
X035201Y032058D01*
X035081Y031906D02*
X034834Y032008D01*
X034568Y032008D01*
X034322Y031906D01*
X034201Y031786D01*
X034201Y032058D01*
X034081Y031906D02*
X034201Y031786D01*
X034149Y031838D02*
X034254Y031838D01*
X034081Y031906D02*
X033834Y032008D01*
X033568Y032008D01*
X033322Y031906D01*
X033201Y031786D01*
X033201Y032058D01*
X033081Y031906D02*
X033201Y031786D01*
X033149Y031838D02*
X033254Y031838D01*
X033081Y031906D02*
X032834Y032008D01*
X032568Y032008D01*
X032322Y031906D01*
X032201Y031786D01*
X032201Y032058D01*
X032081Y031906D02*
X031834Y032008D01*
X031568Y032008D01*
X031322Y031906D01*
X031201Y031786D01*
X031201Y032058D01*
X031081Y031906D02*
X030834Y032008D01*
X030568Y032008D01*
X030322Y031906D01*
X030201Y031786D01*
X030201Y032058D01*
X030081Y031906D02*
X029834Y032008D01*
X029568Y032008D01*
X029322Y031906D01*
X029154Y031738D01*
X028621Y031738D01*
X028474Y031677D01*
X028362Y031565D01*
X028362Y031565D01*
X027475Y030677D01*
X027474Y030677D01*
X027362Y030565D01*
X027301Y030418D01*
X027301Y029886D01*
X027133Y029718D01*
X027031Y029472D01*
X027031Y029234D01*
X026705Y028908D01*
X026588Y028908D01*
X026521Y028881D01*
X026521Y029956D01*
X026632Y030067D01*
X026722Y030157D01*
X026771Y030275D01*
X026771Y030965D01*
X026941Y031135D01*
X026941Y031541D01*
X026654Y031828D01*
X026248Y031828D01*
X025961Y031541D01*
X025961Y031135D01*
X026131Y030965D01*
X026131Y030471D01*
X025930Y030270D01*
X025881Y030152D01*
X025881Y030025D01*
X025881Y028881D01*
X025814Y028908D01*
X025588Y028908D01*
X025395Y028828D01*
X025008Y028828D01*
X024814Y028908D01*
X024723Y028908D01*
X024771Y029025D01*
X024771Y029152D01*
X024771Y030965D01*
X024941Y031135D01*
X024941Y031541D01*
X024654Y031828D01*
X024248Y031828D01*
X023961Y031541D01*
X023961Y031135D01*
X024131Y030965D01*
X024131Y029221D01*
X023817Y028907D01*
X023814Y028908D01*
X023588Y028908D01*
X023395Y028828D01*
X023159Y028828D01*
X023081Y028906D01*
X022834Y029008D01*
X022568Y029008D01*
X022254Y028838D02*
X022149Y028838D01*
X022201Y028828D02*
X022201Y031008D01*
X021941Y031135D02*
X021654Y030848D01*
X021248Y030848D01*
X020961Y031135D01*
X020961Y031541D01*
X021248Y031828D01*
X021654Y031828D01*
X021941Y031541D01*
X021941Y031135D01*
X021701Y030895D02*
X021701Y029008D01*
X021267Y029338D02*
X024131Y029338D01*
X023701Y028908D02*
X023701Y031008D01*
X023701Y031338D02*
X023701Y031338D01*
X023861Y031338D02*
X023861Y031508D01*
X023621Y031748D01*
X023451Y031748D01*
X023281Y031748D01*
X023041Y031508D01*
X023041Y031338D01*
X023451Y031338D01*
X023451Y031338D01*
X023451Y031339D02*
X023451Y031748D01*
X023451Y031339D01*
X023451Y031339D01*
X023451Y031338D02*
X023861Y031338D01*
X023701Y031668D02*
X023701Y032058D01*
X024201Y032058D02*
X024201Y031781D01*
X024701Y031781D02*
X024701Y032058D01*
X025201Y032058D02*
X025201Y031781D01*
X025248Y031828D02*
X024961Y031541D01*
X024961Y031135D01*
X025248Y030848D01*
X025654Y030848D01*
X025941Y031135D01*
X025941Y031541D01*
X025654Y031828D01*
X025248Y031828D01*
X025701Y031781D02*
X025701Y032058D01*
X026201Y032058D02*
X026201Y031781D01*
X026701Y031781D02*
X026701Y032058D01*
X027201Y032058D02*
X027201Y029786D01*
X027254Y029838D02*
X026521Y029838D01*
X026701Y030136D02*
X026701Y028908D01*
X026521Y029338D02*
X027031Y029338D01*
X026771Y030338D02*
X027301Y030338D01*
X027635Y030838D02*
X026771Y030838D01*
X026941Y031338D02*
X028135Y031338D01*
X028201Y031404D02*
X028201Y032058D01*
X027701Y032058D02*
X027701Y030904D01*
X028701Y031738D02*
X028701Y032058D01*
X029201Y032058D02*
X029201Y031786D01*
X029254Y031838D02*
X011149Y031838D01*
X011201Y031786D02*
X011201Y032058D01*
X010701Y032058D02*
X010701Y032008D01*
X010254Y031838D02*
X010149Y031838D01*
X010201Y031786D02*
X010081Y031906D01*
X009701Y032008D02*
X009701Y032058D01*
X009254Y031838D02*
X009149Y031838D01*
X009201Y031786D02*
X009081Y031906D01*
X008701Y032008D02*
X008701Y032058D01*
X008254Y031838D02*
X008149Y031838D01*
X008201Y031786D02*
X008081Y031906D01*
X007701Y032008D02*
X007701Y032058D01*
X006701Y032058D02*
X006701Y032008D01*
X005701Y032008D02*
X005701Y032058D01*
X005254Y031838D02*
X005149Y031838D01*
X005201Y031786D02*
X005081Y031906D01*
X004701Y032008D02*
X004701Y032058D01*
X004254Y031838D02*
X004149Y031838D01*
X004201Y031786D02*
X004081Y031906D01*
X003757Y032058D02*
X044201Y032058D01*
X044201Y019838D01*
X043701Y019838D02*
X043701Y032058D01*
X043201Y032058D02*
X043201Y019838D01*
X042701Y019838D02*
X042701Y032058D01*
X042201Y032058D02*
X042201Y031786D01*
X042149Y031838D02*
X045026Y031838D01*
X045116Y031795D02*
X045417Y031554D01*
X045657Y031253D01*
X045825Y030906D01*
X045701Y031163D02*
X045701Y019838D01*
X045921Y019838D02*
X028676Y019838D01*
X028701Y019838D02*
X028701Y021668D01*
X028568Y021668D02*
X028834Y021668D01*
X029081Y021770D01*
X029201Y021891D01*
X029322Y021770D01*
X029568Y021668D01*
X029834Y021668D01*
X030081Y021770D01*
X030201Y021891D01*
X030201Y019838D01*
X029701Y019838D02*
X029701Y021668D01*
X029254Y021838D02*
X029149Y021838D01*
X029201Y021891D02*
X029201Y019838D01*
X028201Y019253D02*
X028201Y017791D01*
X028249Y017838D02*
X027363Y017838D01*
X025951Y018338D02*
X025951Y019338D01*
X024701Y020588D01*
X024701Y020108D02*
X024701Y019838D01*
X024729Y020108D02*
X024999Y019838D01*
X020404Y019838D01*
X020674Y020108D01*
X020900Y020108D01*
X021060Y020268D01*
X023387Y020268D01*
X023515Y020268D01*
X023632Y020317D01*
X024382Y021067D01*
X024382Y021067D01*
X024472Y021157D01*
X024521Y021275D01*
X024521Y022796D01*
X024588Y022768D01*
X024814Y022768D01*
X025024Y022855D01*
X025184Y023015D01*
X025201Y023056D01*
X025201Y022621D01*
X025218Y022661D02*
X025131Y022452D01*
X025131Y022225D01*
X025218Y022015D01*
X025378Y021855D01*
X025588Y021768D01*
X025814Y021768D01*
X025881Y021796D01*
X025881Y020650D01*
X025930Y020532D01*
X026020Y020442D01*
X026088Y020373D01*
X026063Y020348D01*
X025993Y020179D01*
X025993Y019997D01*
X026059Y019838D01*
X025904Y019838D01*
X025181Y020561D01*
X025181Y020787D01*
X024900Y021068D01*
X024502Y021068D01*
X024221Y020787D01*
X024221Y020389D01*
X024502Y020108D01*
X024729Y020108D01*
X024999Y019838D02*
X020404Y019838D01*
X020701Y019838D02*
X020701Y020108D01*
X021201Y020268D02*
X021201Y019838D01*
X021701Y019838D02*
X021701Y020268D01*
X022201Y020268D02*
X022201Y019838D01*
X022701Y019838D02*
X022701Y020268D01*
X023201Y020268D02*
X023201Y019838D01*
X023654Y020338D02*
X024272Y020338D01*
X024201Y019838D02*
X024201Y020886D01*
X024154Y020838D02*
X024272Y020838D01*
X024701Y021068D02*
X024701Y022768D01*
X024983Y022838D02*
X025419Y022838D01*
X025378Y022821D01*
X025218Y022661D01*
X025378Y022855D02*
X025419Y022838D01*
X025378Y022855D02*
X025218Y023015D01*
X025201Y023056D01*
X025131Y022338D02*
X024521Y022338D01*
X024521Y021838D02*
X025419Y021838D01*
X025701Y021768D02*
X025701Y020041D01*
X025904Y019838D02*
X026059Y019838D01*
X026451Y020088D02*
X026451Y020463D01*
X026201Y020713D01*
X026201Y030088D01*
X026451Y030338D01*
X026451Y031338D01*
X025961Y031338D02*
X025941Y031338D01*
X025701Y030895D02*
X025701Y028908D01*
X025419Y028838D02*
X024983Y028838D01*
X025201Y028828D02*
X025201Y030895D01*
X024771Y030838D02*
X026131Y030838D01*
X025999Y030338D02*
X024771Y030338D01*
X024771Y029838D02*
X025881Y029838D01*
X025881Y029338D02*
X024771Y029338D01*
X024131Y029838D02*
X013767Y029838D01*
X013701Y029904D02*
X013701Y032058D01*
X013201Y032058D02*
X013201Y030404D01*
X013267Y030338D02*
X019923Y030338D01*
X019916Y030357D02*
X019997Y030160D01*
X020148Y030009D01*
X020345Y029928D01*
X020558Y029928D01*
X020754Y030009D01*
X020905Y030160D01*
X020986Y030357D01*
X020986Y030570D01*
X020905Y030766D01*
X020754Y030917D01*
X020558Y030999D01*
X020345Y030999D01*
X020148Y030917D01*
X019997Y030766D01*
X019916Y030570D01*
X019916Y030357D01*
X020201Y029987D02*
X020201Y029738D01*
X019701Y029738D02*
X019701Y030895D01*
X019654Y030848D02*
X019941Y031135D01*
X019941Y031541D01*
X019654Y031828D01*
X019248Y031828D01*
X018961Y031541D01*
X018961Y031135D01*
X019248Y030848D01*
X019654Y030848D01*
X020069Y030838D02*
X012767Y030838D01*
X012701Y030904D02*
X012701Y032058D01*
X012201Y032058D02*
X012201Y031404D01*
X012267Y031338D02*
X013961Y031338D01*
X013961Y031135D02*
X014248Y030848D01*
X014654Y030848D01*
X014941Y031135D01*
X014941Y031541D01*
X014654Y031828D01*
X014248Y031828D01*
X013961Y031541D01*
X013961Y031135D01*
X014201Y030895D02*
X014201Y029738D01*
X014701Y029738D02*
X014701Y030895D01*
X014961Y031135D02*
X015248Y030848D01*
X015654Y030848D01*
X015941Y031135D01*
X015941Y031541D01*
X015654Y031828D01*
X015248Y031828D01*
X014961Y031541D01*
X014961Y031135D01*
X014941Y031338D02*
X014961Y031338D01*
X015201Y030895D02*
X015201Y029738D01*
X015701Y029738D02*
X015701Y030895D01*
X015961Y031135D02*
X016248Y030848D01*
X016654Y030848D01*
X016941Y031135D01*
X016941Y031541D01*
X016654Y031828D01*
X016248Y031828D01*
X015961Y031541D01*
X015961Y031135D01*
X015941Y031338D02*
X015961Y031338D01*
X016201Y030895D02*
X016201Y029738D01*
X016701Y029738D02*
X016701Y030895D01*
X016961Y031135D02*
X017248Y030848D01*
X017654Y030848D01*
X017941Y031135D01*
X017941Y031541D01*
X017654Y031828D01*
X017248Y031828D01*
X016961Y031541D01*
X016961Y031135D01*
X016941Y031338D02*
X016961Y031338D01*
X017201Y030895D02*
X017201Y029738D01*
X017701Y029738D02*
X017701Y030895D01*
X017961Y031135D02*
X018248Y030848D01*
X018654Y030848D01*
X018941Y031135D01*
X018941Y031541D01*
X018654Y031828D01*
X018248Y031828D01*
X017961Y031541D01*
X017961Y031135D01*
X017941Y031338D02*
X017961Y031338D01*
X018201Y030895D02*
X018201Y029738D01*
X018701Y029738D02*
X018701Y030895D01*
X019201Y030895D02*
X019201Y029738D01*
X020701Y029738D02*
X020701Y029987D01*
X020979Y030338D02*
X024131Y030338D01*
X024131Y030838D02*
X020833Y030838D01*
X020701Y030939D02*
X020701Y032058D01*
X020201Y032058D02*
X020201Y030939D01*
X019941Y031338D02*
X020961Y031338D01*
X021201Y030895D02*
X021201Y029404D01*
X021040Y029565D02*
X021040Y029565D01*
X023149Y028838D02*
X023419Y028838D01*
X023201Y028828D02*
X023201Y031008D01*
X023201Y031338D02*
X023201Y031338D01*
X023201Y031668D02*
X023201Y032058D01*
X022701Y032058D02*
X022701Y031668D01*
X022201Y031668D02*
X022201Y032058D01*
X021701Y032058D02*
X021701Y031781D01*
X021201Y031781D02*
X021201Y032058D01*
X019701Y032058D02*
X019701Y031781D01*
X019201Y031781D02*
X019201Y032058D01*
X018701Y032058D02*
X018701Y031781D01*
X018201Y031781D02*
X018201Y032058D01*
X017701Y032058D02*
X017701Y031781D01*
X017201Y031781D02*
X017201Y032058D01*
X016701Y032058D02*
X016701Y031781D01*
X016201Y031781D02*
X016201Y032058D01*
X015701Y032058D02*
X015701Y031781D01*
X015201Y031781D02*
X015201Y032058D01*
X014701Y032058D02*
X014701Y031781D01*
X014201Y031781D02*
X014201Y032058D01*
X012040Y031565D02*
X012040Y031565D01*
X011701Y031738D02*
X011701Y032058D01*
X018941Y031338D02*
X018961Y031338D01*
X024941Y031338D02*
X024961Y031338D01*
X029701Y032008D02*
X029701Y032058D01*
X030081Y031906D02*
X030201Y031786D01*
X030149Y031838D02*
X030254Y031838D01*
X030701Y032008D02*
X030701Y032058D01*
X031081Y031906D02*
X031201Y031786D01*
X031149Y031838D02*
X031254Y031838D01*
X031701Y032008D02*
X031701Y032058D01*
X032081Y031906D02*
X032201Y031786D01*
X032149Y031838D02*
X032254Y031838D01*
X032701Y032008D02*
X032701Y032058D01*
X033701Y032058D02*
X033701Y032008D01*
X034701Y032008D02*
X034701Y032058D01*
X035081Y031906D02*
X035201Y031786D01*
X035149Y031838D02*
X035254Y031838D01*
X035701Y032008D02*
X035701Y032058D01*
X036081Y031906D02*
X036201Y031786D01*
X036149Y031838D02*
X036254Y031838D01*
X036701Y032008D02*
X036701Y032058D01*
X037081Y031906D02*
X037201Y031786D01*
X037149Y031838D02*
X037254Y031838D01*
X037701Y032008D02*
X037701Y032058D01*
X038081Y031906D02*
X038201Y031786D01*
X038149Y031838D02*
X038254Y031838D01*
X038701Y032008D02*
X038701Y032058D01*
X039081Y031906D02*
X039201Y031786D01*
X039149Y031838D02*
X039254Y031838D01*
X039701Y032008D02*
X039701Y032058D01*
X040081Y031906D02*
X040201Y031786D01*
X040149Y031838D02*
X040254Y031838D01*
X040701Y032008D02*
X040701Y032058D01*
X041081Y031906D02*
X041201Y031786D01*
X041149Y031838D02*
X041254Y031838D01*
X041701Y032008D02*
X041701Y032058D01*
X042371Y031338D02*
X045590Y031338D01*
X045201Y031727D02*
X045201Y019838D01*
X044701Y019838D02*
X044701Y031977D01*
X044769Y031962D02*
X045116Y031795D01*
X044769Y031962D02*
X044394Y032047D01*
X044201Y032058D01*
X045921Y030338D02*
X045921Y030304D01*
X045921Y030283D01*
X041201Y021891D02*
X041081Y021770D01*
X040834Y021668D01*
X040568Y021668D01*
X040322Y021770D01*
X040201Y021891D01*
X040201Y019838D01*
X039701Y019838D02*
X039701Y021668D01*
X039568Y021668D02*
X039834Y021668D01*
X040081Y021770D01*
X040201Y021891D01*
X040149Y021838D02*
X040254Y021838D01*
X040701Y021668D02*
X040701Y019838D01*
X041701Y019838D02*
X041701Y021668D01*
X041254Y021838D02*
X041149Y021838D01*
X039568Y021668D02*
X039322Y021770D01*
X039201Y021891D01*
X039081Y021770D01*
X038834Y021668D01*
X038568Y021668D01*
X038322Y021770D01*
X038201Y021891D01*
X038201Y019838D01*
X037701Y019838D02*
X037701Y021668D01*
X037568Y021668D02*
X037834Y021668D01*
X038081Y021770D01*
X038201Y021891D01*
X038149Y021838D02*
X038254Y021838D01*
X038701Y021668D02*
X038701Y019838D01*
X039201Y019838D02*
X039201Y021891D01*
X039149Y021838D02*
X039254Y021838D01*
X037568Y021668D02*
X037322Y021770D01*
X037201Y021891D01*
X037201Y019838D01*
X036701Y019838D02*
X036701Y021668D01*
X036568Y021668D02*
X036834Y021668D01*
X037081Y021770D01*
X037201Y021891D01*
X037149Y021838D02*
X037254Y021838D01*
X036568Y021668D02*
X036322Y021770D01*
X036201Y021891D01*
X036201Y019838D01*
X035701Y019838D02*
X035701Y021668D01*
X035568Y021668D02*
X035834Y021668D01*
X036081Y021770D01*
X036201Y021891D01*
X036149Y021838D02*
X036254Y021838D01*
X035568Y021668D02*
X035322Y021770D01*
X035201Y021891D01*
X035081Y021770D01*
X034834Y021668D01*
X034568Y021668D01*
X034322Y021770D01*
X034201Y021891D01*
X034081Y021770D01*
X033834Y021668D01*
X033568Y021668D01*
X033322Y021770D01*
X033201Y021891D01*
X033081Y021770D01*
X032834Y021668D01*
X032568Y021668D01*
X032322Y021770D01*
X032201Y021891D01*
X032081Y021770D01*
X031834Y021668D01*
X031568Y021668D01*
X031322Y021770D01*
X031201Y021891D01*
X031081Y021770D01*
X030834Y021668D01*
X030568Y021668D01*
X030322Y021770D01*
X030201Y021891D01*
X030149Y021838D02*
X030254Y021838D01*
X030701Y021668D02*
X030701Y019838D01*
X031201Y019838D02*
X031201Y021891D01*
X031149Y021838D02*
X031254Y021838D01*
X031701Y021668D02*
X031701Y019838D01*
X032201Y019838D02*
X032201Y021891D01*
X032149Y021838D02*
X032254Y021838D01*
X032701Y021668D02*
X032701Y019838D01*
X033201Y019838D02*
X033201Y021891D01*
X033149Y021838D02*
X033254Y021838D01*
X033701Y021668D02*
X033701Y019838D01*
X034201Y019838D02*
X034201Y021891D01*
X034149Y021838D02*
X034254Y021838D01*
X034701Y021668D02*
X034701Y019838D01*
X035201Y019838D02*
X035201Y021891D01*
X035149Y021838D02*
X035254Y021838D01*
X035201Y019338D02*
X035201Y015408D01*
X034701Y015408D02*
X034701Y019338D01*
X035701Y019338D02*
X035701Y015408D01*
X036201Y015408D02*
X036201Y019338D01*
X036701Y019338D02*
X036701Y015408D01*
X037201Y015408D02*
X037201Y019338D01*
X037701Y019338D02*
X037701Y015408D01*
X038201Y015408D02*
X038201Y019338D01*
X038701Y019338D02*
X038701Y015408D01*
X039201Y015408D02*
X039201Y019338D01*
X039701Y019338D02*
X039701Y015408D01*
X040472Y015269D02*
X040472Y015270D01*
X040632Y015110D02*
X040632Y015110D01*
X037201Y014765D02*
X037201Y014768D01*
X036701Y014768D02*
X036701Y014158D01*
X036201Y014267D02*
X036201Y014768D01*
X035701Y014768D02*
X035701Y014267D01*
X035701Y013409D02*
X035701Y013041D01*
X034701Y012768D02*
X034701Y010541D01*
X034499Y010338D02*
X033380Y010338D01*
X033201Y010517D02*
X033201Y010909D01*
X033431Y011338D02*
X035499Y011338D01*
X035701Y011541D02*
X035701Y011909D01*
X035999Y011838D02*
X032271Y011838D01*
X032431Y011338D02*
X032471Y011338D01*
X032701Y010909D02*
X032701Y010517D01*
X031951Y010338D02*
X031951Y010338D01*
X031701Y010404D02*
X031701Y010784D01*
X031647Y010838D02*
X028311Y010838D01*
X028380Y010338D02*
X031635Y010338D01*
X029201Y009783D02*
X029201Y011848D01*
X028711Y012338D02*
X028691Y012338D01*
X027522Y010338D02*
X027267Y010338D01*
X027201Y010088D02*
X027201Y010088D01*
X027267Y009838D02*
X027522Y009838D01*
X027951Y008838D02*
X028951Y007838D01*
X031271Y007338D02*
X035631Y007338D01*
X035631Y006838D02*
X032354Y006838D01*
X032201Y007033D02*
X032201Y007768D01*
X031701Y007768D02*
X031701Y007281D01*
X031499Y007838D02*
X031431Y007838D01*
X032701Y007768D02*
X032701Y006064D01*
X032440Y005838D02*
X031271Y005838D01*
X031701Y005916D02*
X031701Y005291D01*
X031654Y005338D02*
X032339Y005338D01*
X032153Y004838D02*
X032734Y004838D01*
X032701Y004852D02*
X032701Y001618D01*
X033201Y001618D02*
X033201Y004794D01*
X033308Y004838D02*
X033329Y004838D01*
X033616Y004338D02*
X032201Y004338D01*
X032201Y004293D02*
X032564Y003931D01*
X032564Y003366D01*
X032201Y003003D02*
X032201Y001618D01*
X031701Y001618D02*
X031701Y002966D01*
X031199Y003838D02*
X027564Y003838D01*
X026701Y002966D02*
X026701Y001618D01*
X026201Y001618D02*
X026201Y003363D01*
X026226Y003338D02*
X022536Y003338D01*
X022201Y003003D02*
X022201Y001618D01*
X021701Y001618D02*
X021701Y002966D01*
X021226Y003338D02*
X017536Y003338D01*
X017201Y003003D02*
X017201Y001618D01*
X016701Y001618D02*
X016701Y002966D01*
X016226Y003338D02*
X012536Y003338D01*
X012201Y003003D02*
X012201Y001618D01*
X011701Y001618D02*
X011701Y002966D01*
X011881Y003648D02*
X011881Y004658D01*
X011561Y004338D02*
X009406Y004338D01*
X009201Y004248D02*
X009201Y001618D01*
X008701Y001618D02*
X008701Y004298D01*
X008616Y004338D02*
X007201Y004338D01*
X007201Y004293D02*
X007201Y004595D01*
X007201Y004722D01*
X007152Y004840D01*
X006271Y005721D01*
X006271Y006033D01*
X006388Y005916D01*
X006954Y005916D01*
X007354Y006316D01*
X007354Y006338D02*
X010631Y006338D01*
X010631Y005838D02*
X008602Y005838D01*
X008201Y006122D02*
X008201Y008409D01*
X008150Y008358D02*
X008431Y008639D01*
X008431Y009037D01*
X008150Y009318D01*
X007752Y009318D01*
X007471Y009037D01*
X007471Y008639D01*
X007752Y008358D01*
X008150Y008358D01*
X007701Y008409D02*
X007701Y006064D01*
X007440Y005838D02*
X006271Y005838D01*
X006701Y005916D02*
X006701Y005291D01*
X006654Y005338D02*
X007339Y005338D01*
X007153Y004838D02*
X007734Y004838D01*
X007701Y004852D02*
X007701Y001618D01*
X008201Y001618D02*
X008201Y004794D01*
X008308Y004838D02*
X008329Y004838D01*
X006561Y004338D02*
X004406Y004338D01*
X004201Y004248D02*
X004201Y001618D01*
X004964Y001838D02*
X005099Y001838D01*
X005201Y001766D02*
X005201Y001618D01*
X006201Y001618D02*
X006201Y003363D01*
X005413Y002838D02*
X009649Y002838D01*
X009701Y002890D02*
X009701Y013018D01*
X009201Y013018D02*
X009201Y012654D01*
X009201Y012463D02*
X009201Y012463D01*
X009226Y012338D02*
X010346Y012338D01*
X010826Y012463D02*
X011951Y011338D01*
X011471Y011338D02*
X008431Y011338D01*
X008431Y011139D02*
X008431Y011537D01*
X008150Y011818D01*
X007752Y011818D01*
X007471Y011537D01*
X007471Y011139D01*
X007591Y011019D01*
X007591Y010407D01*
X007471Y010287D01*
X007471Y009889D01*
X007752Y009608D01*
X008150Y009608D01*
X008431Y009889D01*
X008431Y010287D01*
X008311Y010407D01*
X008311Y011019D01*
X008431Y011139D01*
X008311Y010838D02*
X012585Y010838D01*
X012201Y010909D02*
X012201Y010404D01*
X012267Y010338D02*
X012522Y010338D01*
X012351Y010254D02*
X012117Y010488D01*
X011951Y010488D01*
X011785Y010488D01*
X011551Y010254D01*
X011551Y010088D01*
X011551Y009923D01*
X011785Y009688D01*
X011951Y009688D01*
X011951Y010088D01*
X011951Y010088D01*
X011951Y009688D01*
X012117Y009688D01*
X012351Y009923D01*
X012351Y010088D01*
X011951Y010088D01*
X011551Y010088D01*
X011951Y010088D01*
X011951Y010088D01*
X011951Y010088D01*
X012351Y010088D01*
X012351Y010254D01*
X012201Y010088D02*
X012201Y010088D01*
X011951Y010089D02*
X011951Y010089D01*
X011951Y010488D01*
X011951Y010089D01*
X011951Y010338D02*
X011951Y010338D01*
X011701Y010404D02*
X011701Y010909D01*
X011635Y010338D02*
X008380Y010338D01*
X008380Y009838D02*
X011635Y009838D01*
X011701Y009773D02*
X011701Y009267D01*
X011752Y009318D02*
X011471Y009037D01*
X011471Y008639D01*
X011752Y008358D01*
X012150Y008358D01*
X012431Y008639D01*
X012431Y009037D01*
X012150Y009318D01*
X011752Y009318D01*
X012201Y009267D02*
X012201Y009773D01*
X012267Y009838D02*
X012522Y009838D01*
X012951Y010088D02*
X012951Y008838D01*
X013939Y007851D01*
X013939Y007838D01*
X014419Y007838D02*
X015459Y007838D01*
X015619Y007338D02*
X011271Y007338D01*
X011388Y007281D02*
X011271Y007163D01*
X011271Y007479D01*
X011431Y007639D01*
X011431Y008037D01*
X011150Y008318D01*
X010701Y008267D02*
X010701Y011983D01*
X011404Y012338D02*
X012522Y012338D01*
X012701Y012517D02*
X012701Y013018D01*
X012201Y013018D02*
X012201Y011767D01*
X011904Y011838D02*
X012522Y011838D01*
X012701Y011659D02*
X012701Y011580D01*
X012471Y011338D02*
X012431Y011338D01*
X012951Y011151D02*
X012951Y010088D01*
X012951Y010088D01*
X013380Y009838D02*
X014499Y009838D01*
X014701Y009636D02*
X014701Y002890D01*
X014649Y002838D02*
X010413Y002838D01*
X010201Y002971D02*
X010201Y013018D01*
X010201Y013658D02*
X010201Y014838D01*
X009701Y014838D02*
X009701Y013658D01*
X009201Y013658D02*
X009201Y014838D01*
X008701Y014838D02*
X008701Y013658D01*
X008201Y013658D02*
X008201Y014838D01*
X007701Y014838D02*
X007701Y013658D01*
X007201Y013658D02*
X007201Y014838D01*
X006701Y014838D02*
X006701Y013658D01*
X006249Y013338D02*
X003018Y013338D01*
X002933Y013374D02*
X003129Y013292D01*
X003280Y013141D01*
X003361Y012945D01*
X003361Y012732D01*
X003280Y012535D01*
X003129Y012384D01*
X002933Y012303D01*
X002720Y012303D01*
X002523Y012384D01*
X002372Y012535D01*
X002291Y012732D01*
X002291Y012945D01*
X002372Y013141D01*
X002523Y013292D01*
X002720Y013374D01*
X002933Y013374D01*
X002701Y013366D02*
X002701Y014838D01*
X002201Y014838D02*
X002201Y002514D01*
X002245Y002423D02*
X002485Y002122D01*
X002701Y006064D02*
X002701Y008409D01*
X002752Y008358D02*
X003150Y008358D01*
X003431Y008639D01*
X003431Y009037D01*
X003150Y009318D01*
X002752Y009318D01*
X002471Y009037D01*
X002471Y008639D01*
X002752Y008358D01*
X003201Y008409D02*
X003201Y006122D01*
X001981Y006838D02*
X005631Y006838D01*
X005631Y007338D02*
X001981Y007338D01*
X001981Y007838D02*
X003471Y007838D01*
X003701Y008267D02*
X003701Y012063D01*
X003826Y012338D02*
X003826Y012338D01*
X003826Y012464D02*
X003826Y012863D01*
X003826Y012464D01*
X003826Y012464D01*
X003701Y012463D02*
X003701Y012463D01*
X003426Y012338D02*
X003018Y012338D01*
X003201Y012456D02*
X003201Y011767D01*
X003150Y011818D02*
X002752Y011818D01*
X002471Y011537D01*
X002471Y011139D01*
X002752Y010858D01*
X003150Y010858D01*
X003431Y011139D01*
X003431Y011537D01*
X003150Y011818D01*
X002701Y011767D02*
X002701Y012311D01*
X002634Y012338D02*
X001981Y012338D01*
X001981Y011838D02*
X005999Y011838D01*
X006201Y011636D02*
X006201Y008267D01*
X006471Y008639D02*
X006752Y008358D01*
X007150Y008358D01*
X007431Y008639D01*
X007431Y009037D01*
X007150Y009318D01*
X006752Y009318D01*
X006471Y009037D01*
X006471Y008639D01*
X006471Y008838D02*
X003431Y008838D01*
X003201Y009267D02*
X003201Y009659D01*
X003150Y009608D02*
X003431Y009889D01*
X003431Y010287D01*
X003150Y010568D01*
X002752Y010568D01*
X002471Y010287D01*
X002471Y009889D01*
X002752Y009608D01*
X003150Y009608D01*
X003380Y009838D02*
X006635Y009838D01*
X006701Y009773D02*
X006701Y009267D01*
X007201Y009267D02*
X007201Y009773D01*
X007267Y009838D02*
X007522Y009838D01*
X007351Y009923D02*
X007351Y010088D01*
X006951Y010088D01*
X006951Y010088D01*
X006951Y009688D01*
X006785Y009688D01*
X006551Y009923D01*
X006551Y010088D01*
X006951Y010088D01*
X006951Y009688D01*
X007117Y009688D01*
X007351Y009923D01*
X007351Y010088D02*
X006951Y010088D01*
X006951Y010088D01*
X006951Y010088D01*
X006551Y010088D01*
X006551Y010254D01*
X006785Y010488D01*
X006951Y010488D01*
X006951Y010089D01*
X006951Y010089D01*
X006951Y010488D01*
X007117Y010488D01*
X007351Y010254D01*
X007351Y010088D01*
X007201Y010088D02*
X007201Y010088D01*
X007267Y010338D02*
X007522Y010338D01*
X007201Y010404D02*
X007201Y010909D01*
X007591Y010838D02*
X001981Y010838D01*
X001981Y011338D02*
X002471Y011338D01*
X002701Y010909D02*
X002701Y010517D01*
X002522Y010338D02*
X001981Y010338D01*
X001981Y009838D02*
X002522Y009838D01*
X002701Y009659D02*
X002701Y009267D01*
X002471Y008838D02*
X001981Y008838D01*
X001981Y009338D02*
X012631Y009338D01*
X012471Y008838D02*
X012431Y008838D01*
X012201Y008409D02*
X012201Y007033D01*
X012354Y006881D02*
X011954Y007281D01*
X011388Y007281D01*
X011701Y007281D02*
X011701Y008409D01*
X011471Y008838D02*
X008431Y008838D01*
X008201Y009267D02*
X008201Y009659D01*
X007701Y009659D02*
X007701Y009267D01*
X007471Y008838D02*
X007431Y008838D01*
X007201Y008409D02*
X007201Y007033D01*
X007354Y006838D02*
X010631Y006838D01*
X010631Y007338D02*
X006271Y007338D01*
X006701Y007281D02*
X006701Y008409D01*
X005701Y008267D02*
X005701Y011983D01*
X006404Y012338D02*
X008426Y012338D01*
X008701Y012463D02*
X008701Y012463D01*
X008826Y012338D02*
X008826Y012338D01*
X008701Y012063D02*
X008701Y008267D01*
X009201Y008267D02*
X009201Y012273D01*
X008201Y011767D02*
X008201Y013018D01*
X007701Y013018D02*
X007701Y011767D01*
X007201Y011767D02*
X007201Y013018D01*
X006201Y013291D02*
X006201Y014838D01*
X005701Y014838D02*
X005701Y012943D01*
X005522Y012838D02*
X004017Y012838D01*
X003826Y012838D02*
X003826Y012838D01*
X003701Y012863D02*
X003701Y014838D01*
X003201Y014838D02*
X003201Y013220D01*
X003361Y012838D02*
X003635Y012838D01*
X004201Y012273D02*
X004201Y008267D01*
X004431Y007838D02*
X005471Y007838D01*
X006951Y009838D02*
X006951Y009838D01*
X006701Y010088D02*
X006701Y010088D01*
X006635Y010338D02*
X003380Y010338D01*
X003201Y010517D02*
X003201Y010909D01*
X003431Y011338D02*
X006471Y011338D01*
X006951Y011338D02*
X005826Y012463D01*
X007431Y011338D02*
X007471Y011338D01*
X006701Y010909D02*
X006701Y010404D01*
X006951Y010338D02*
X006951Y010338D01*
X002635Y013338D02*
X001981Y013338D01*
X001981Y012838D02*
X002291Y012838D01*
X001981Y013838D02*
X012635Y013838D01*
X012701Y013773D02*
X012701Y013658D01*
X012785Y013688D02*
X012551Y013923D01*
X012551Y014088D01*
X012951Y014088D01*
X012951Y014088D01*
X012951Y013688D01*
X012785Y013688D01*
X012951Y013688D02*
X013117Y013688D01*
X013351Y013923D01*
X013351Y014088D01*
X012951Y014088D01*
X012951Y014088D01*
X012951Y013688D01*
X012951Y013838D02*
X012951Y013838D01*
X012951Y014088D02*
X012951Y014088D01*
X012551Y014088D01*
X012551Y014254D01*
X012785Y014488D01*
X012951Y014488D01*
X012951Y014089D01*
X012951Y014089D01*
X012951Y014488D01*
X013117Y014488D01*
X013351Y014254D01*
X013351Y014088D01*
X012951Y014088D01*
X012701Y014088D02*
X012701Y014088D01*
X012635Y014338D02*
X001981Y014338D01*
X001981Y015338D02*
X018749Y015338D01*
X001981Y015338D01*
X001981Y030338D01*
X001992Y030531D01*
X002078Y030906D01*
X002245Y031253D01*
X002485Y031554D01*
X002786Y031795D01*
X003133Y031962D01*
X003509Y032047D01*
X003701Y032058D01*
X003701Y032008D01*
X003701Y032058D02*
X003746Y032058D01*
X003757Y032058D01*
X003254Y031838D02*
X002877Y031838D01*
X002701Y031727D02*
X002701Y015338D01*
X002201Y015338D02*
X002201Y031163D01*
X002312Y031338D02*
X003031Y031338D01*
X003201Y030891D02*
X003201Y030786D01*
X003254Y030838D02*
X002062Y030838D01*
X003201Y031786D02*
X003201Y031977D01*
X003031Y024338D02*
X001981Y024338D01*
X001981Y023838D02*
X003254Y023838D01*
X003201Y023786D02*
X003201Y023891D01*
X003031Y023338D02*
X001981Y023338D01*
X001981Y022838D02*
X003254Y022838D01*
X003201Y022786D02*
X003201Y022891D01*
X003031Y022338D02*
X001981Y022338D01*
X001981Y021838D02*
X003254Y021838D01*
X003201Y021786D02*
X003201Y021891D01*
X003031Y021338D02*
X001981Y021338D01*
X001981Y020838D02*
X003254Y020838D01*
X003201Y020891D02*
X003201Y015338D01*
X003701Y015338D02*
X003701Y020668D01*
X004149Y020838D02*
X004254Y020838D01*
X004201Y020891D02*
X004201Y015338D01*
X004701Y015338D02*
X004701Y020668D01*
X005149Y020838D02*
X005254Y020838D01*
X005201Y020891D02*
X005322Y020770D01*
X005568Y020668D01*
X005834Y020668D01*
X006081Y020770D01*
X006201Y020891D01*
X006201Y015338D01*
X005701Y015338D02*
X005701Y020668D01*
X006149Y020838D02*
X006254Y020838D01*
X006201Y020891D02*
X006322Y020770D01*
X006568Y020668D01*
X006834Y020668D01*
X007081Y020770D01*
X007201Y020891D01*
X007322Y020770D01*
X007568Y020668D01*
X007834Y020668D01*
X008081Y020770D01*
X008201Y020891D01*
X008322Y020770D01*
X008568Y020668D01*
X008834Y020668D01*
X009081Y020770D01*
X009201Y020891D01*
X009322Y020770D01*
X009568Y020668D01*
X009834Y020668D01*
X010081Y020770D01*
X010201Y020891D01*
X010322Y020770D01*
X010568Y020668D01*
X010834Y020668D01*
X011081Y020770D01*
X011201Y020891D01*
X011322Y020770D01*
X011568Y020668D01*
X011834Y020668D01*
X012081Y020770D01*
X012201Y020891D01*
X012322Y020770D01*
X012568Y020668D01*
X012834Y020668D01*
X013081Y020770D01*
X013201Y020891D01*
X013322Y020770D01*
X013568Y020668D01*
X013834Y020668D01*
X014081Y020770D01*
X014201Y020891D01*
X014322Y020770D01*
X014568Y020668D01*
X014834Y020668D01*
X015081Y020770D01*
X015201Y020891D01*
X015322Y020770D01*
X015568Y020668D01*
X015834Y020668D01*
X016081Y020770D01*
X016201Y020891D01*
X016322Y020770D01*
X016568Y020668D01*
X016834Y020668D01*
X017081Y020770D01*
X017201Y020891D01*
X017322Y020770D01*
X017568Y020668D01*
X017834Y020668D01*
X018081Y020770D01*
X018201Y020891D01*
X018201Y015338D01*
X018201Y014838D02*
X018201Y014791D01*
X017701Y014838D02*
X017701Y014291D01*
X017749Y014338D02*
X013267Y014338D01*
X013201Y014404D02*
X013201Y014838D01*
X012701Y014838D02*
X012701Y014404D01*
X012951Y014338D02*
X012951Y014338D01*
X013201Y014088D02*
X013201Y014088D01*
X013267Y013838D02*
X017249Y013838D01*
X017201Y013791D02*
X017201Y014838D01*
X016701Y014838D02*
X016701Y013658D01*
X016201Y013658D02*
X016201Y014838D01*
X015701Y014838D02*
X015701Y013658D01*
X015201Y013658D02*
X015201Y014838D01*
X014701Y014838D02*
X014701Y013658D01*
X014201Y013658D02*
X014201Y014838D01*
X013701Y014838D02*
X013701Y013658D01*
X013201Y013658D02*
X013201Y013773D01*
X012201Y013658D02*
X012201Y014838D01*
X011701Y014838D02*
X011701Y013658D01*
X011201Y013658D02*
X011201Y014838D01*
X010701Y014838D02*
X010701Y013658D01*
X011701Y013018D02*
X011701Y012041D01*
X013201Y011659D02*
X013201Y011579D01*
X013380Y011838D02*
X014131Y011838D01*
X013961Y012338D02*
X013380Y012338D01*
X013201Y012517D02*
X013201Y013018D01*
X013701Y013018D02*
X013701Y008541D01*
X013904Y008338D02*
X021631Y008338D01*
X021951Y008088D02*
X021951Y008838D01*
X021951Y008088D02*
X022826Y007213D01*
X022701Y006919D02*
X022701Y006064D01*
X022440Y005838D02*
X021154Y005838D01*
X021201Y005791D02*
X021201Y006103D01*
X021701Y005916D02*
X021701Y005291D01*
X021654Y005338D02*
X022339Y005338D01*
X022153Y004838D02*
X022734Y004838D01*
X022701Y004852D02*
X022701Y001618D01*
X023201Y001618D02*
X023201Y004794D01*
X023308Y004838D02*
X023329Y004838D01*
X024694Y004838D02*
X026499Y004838D01*
X026904Y005338D02*
X027339Y005338D01*
X026701Y005541D02*
X026701Y005916D01*
X026404Y005838D02*
X027440Y005838D01*
X026201Y006041D02*
X026201Y006103D01*
X025701Y005636D02*
X025701Y001618D01*
X024701Y002301D02*
X024701Y002436D01*
X024964Y002838D02*
X025099Y002838D01*
X021561Y004338D02*
X019406Y004338D01*
X019201Y004248D02*
X019201Y001618D01*
X019701Y002301D02*
X019701Y002436D01*
X019964Y002838D02*
X020099Y002838D01*
X021201Y003363D02*
X021201Y001618D01*
X020701Y001618D02*
X020701Y005386D01*
X020749Y005338D02*
X019546Y005338D01*
X019201Y005568D02*
X019201Y009143D01*
X019201Y009783D02*
X019201Y010268D01*
X018701Y010268D02*
X018701Y009783D01*
X018431Y009889D02*
X018431Y010268D01*
X021566Y010268D01*
X021551Y010254D01*
X021551Y010088D01*
X021551Y009923D01*
X021691Y009783D01*
X018325Y009783D01*
X018431Y009889D01*
X018380Y009838D02*
X021635Y009838D01*
X021701Y010088D02*
X021701Y010088D01*
X021551Y010088D02*
X021951Y010088D01*
X021951Y010088D01*
X021951Y010088D01*
X022351Y010088D01*
X022351Y009923D01*
X022212Y009783D01*
X022577Y009783D01*
X022471Y009889D01*
X022471Y010268D01*
X022337Y010268D01*
X022351Y010254D01*
X022351Y010088D01*
X021951Y010088D01*
X021551Y010088D01*
X021201Y010268D02*
X021201Y009783D01*
X020701Y009783D02*
X020701Y010268D01*
X020201Y010268D02*
X020201Y009783D01*
X019701Y009783D02*
X019701Y010268D01*
X020701Y010908D02*
X020701Y011895D01*
X021201Y011895D02*
X021201Y010908D01*
X021951Y011188D02*
X022576Y011813D01*
X022576Y012713D01*
X022201Y012636D02*
X022201Y011891D01*
X022256Y012338D02*
X021941Y012338D01*
X020961Y012338D02*
X020941Y012338D01*
X020522Y013338D02*
X019267Y013338D01*
X019201Y013273D02*
X019201Y012781D01*
X019117Y013188D02*
X018951Y013188D01*
X018951Y013588D01*
X018951Y013588D01*
X018951Y013188D01*
X018785Y013188D01*
X018551Y013423D01*
X018551Y013588D01*
X018951Y013588D01*
X018951Y013588D01*
X018951Y013588D01*
X019351Y013588D01*
X019351Y013423D01*
X019117Y013188D01*
X018951Y013338D02*
X018951Y013338D01*
X018951Y013588D02*
X019351Y013588D01*
X019351Y013754D01*
X019117Y013988D01*
X018951Y013988D01*
X018785Y013988D01*
X018551Y013754D01*
X018551Y013588D01*
X018951Y013588D01*
X018951Y013589D02*
X018951Y013988D01*
X018951Y013589D01*
X018951Y013589D01*
X018951Y013838D02*
X018951Y013838D01*
X018701Y013904D02*
X018701Y014386D01*
X018654Y014338D02*
X022631Y014338D01*
X022631Y013838D02*
X022017Y013838D01*
X022101Y013754D02*
X021867Y013988D01*
X021701Y013988D01*
X021535Y013988D01*
X021383Y013835D01*
X021150Y014068D01*
X021380Y013838D02*
X021386Y013838D01*
X021701Y013838D02*
X021701Y013838D01*
X021701Y013988D02*
X021701Y013589D01*
X021701Y013589D01*
X021701Y013988D01*
X021701Y013588D02*
X022101Y013588D01*
X022101Y013754D01*
X022201Y013408D02*
X022201Y014682D01*
X022363Y014838D02*
X022539Y014838D01*
X022471Y015338D02*
X022431Y015338D01*
X022951Y015338D02*
X022951Y013088D01*
X022631Y013338D02*
X022404Y013338D01*
X020701Y014017D02*
X020701Y014682D01*
X020522Y013838D02*
X019267Y013838D01*
X019201Y013904D02*
X019201Y014838D01*
X019701Y014682D02*
X019701Y012781D01*
X018961Y012338D02*
X018941Y012338D01*
X018701Y012781D02*
X018701Y013273D01*
X018635Y013338D02*
X017654Y013338D01*
X017701Y013386D02*
X017701Y012781D01*
X017654Y012828D02*
X017248Y012828D01*
X016961Y012541D01*
X016961Y012135D01*
X017248Y011848D01*
X017654Y011848D01*
X017941Y012135D01*
X017941Y012541D01*
X017654Y012828D01*
X017472Y013157D02*
X017472Y013157D01*
X017201Y013018D02*
X017201Y012781D01*
X016701Y012781D02*
X016701Y013018D01*
X016201Y013018D02*
X016201Y012781D01*
X015701Y012781D02*
X015701Y013018D01*
X015201Y013018D02*
X015201Y012781D01*
X014701Y012781D02*
X014701Y013018D01*
X014201Y013018D02*
X014201Y012781D01*
X014451Y012338D02*
X014451Y010338D01*
X015326Y009463D01*
X015404Y009838D02*
X016635Y009838D01*
X016701Y010088D02*
X016701Y010088D01*
X016551Y010088D02*
X016951Y010088D01*
X016951Y010088D01*
X016951Y010088D01*
X017351Y010088D01*
X017351Y009923D01*
X017212Y009783D01*
X017577Y009783D01*
X017471Y009889D01*
X017471Y010268D01*
X017337Y010268D01*
X017351Y010254D01*
X017351Y010088D01*
X016951Y010088D01*
X016551Y010088D01*
X016201Y010268D02*
X016201Y009783D01*
X015701Y009783D02*
X015701Y010386D01*
X015749Y010338D02*
X014904Y010338D01*
X015201Y010041D02*
X015201Y010886D01*
X015249Y010838D02*
X014771Y010838D01*
X014771Y011338D02*
X015131Y011338D01*
X015451Y011088D02*
X015951Y010588D01*
X015451Y011088D02*
X015451Y012338D01*
X014961Y012338D02*
X014941Y012338D01*
X014771Y011838D02*
X015131Y011838D01*
X015771Y011338D02*
X016471Y011338D01*
X016701Y011580D02*
X016701Y011895D01*
X017201Y011895D02*
X017201Y011579D01*
X017431Y011338D02*
X017471Y011338D01*
X017701Y011617D02*
X017701Y011895D01*
X017941Y012338D02*
X017961Y012338D01*
X018201Y012781D02*
X018201Y013886D01*
X018154Y013838D02*
X018635Y013838D01*
X018701Y013588D02*
X018701Y013588D01*
X019201Y013588D02*
X019201Y013588D01*
X018749Y015338D02*
X019020Y015610D01*
X019137Y015658D01*
X019201Y015658D01*
X019201Y019838D01*
X019201Y020891D01*
X019149Y020838D02*
X020272Y020838D01*
X020221Y020787D02*
X020221Y020561D01*
X019680Y020020D01*
X019631Y019902D01*
X019631Y019838D01*
X001981Y019838D01*
X001981Y020338D02*
X019999Y020338D01*
X020201Y020541D02*
X020201Y021891D01*
X020149Y021838D02*
X023881Y021838D01*
X023881Y021471D02*
X023319Y020908D01*
X021060Y020908D01*
X020900Y021068D01*
X020502Y021068D01*
X020221Y020787D01*
X020701Y021068D02*
X020701Y022668D01*
X020568Y022668D02*
X020834Y022668D01*
X021081Y022770D01*
X021201Y022891D01*
X021322Y022770D01*
X021568Y022668D01*
X021834Y022668D01*
X022081Y022770D01*
X022201Y022891D01*
X022322Y022770D01*
X022568Y022668D01*
X022834Y022668D01*
X023081Y022770D01*
X023269Y022959D01*
X023271Y022963D01*
X023378Y022855D01*
X023588Y022768D01*
X023814Y022768D01*
X023881Y022796D01*
X023881Y021471D01*
X023749Y021338D02*
X019371Y021338D01*
X019371Y021205D02*
X019371Y021472D01*
X019269Y021718D01*
X019149Y021838D01*
X019254Y021838D01*
X019201Y021786D02*
X019201Y021891D01*
X019322Y021770D01*
X019568Y021668D01*
X019834Y021668D01*
X020081Y021770D01*
X020269Y021959D01*
X020371Y022205D01*
X020371Y022472D01*
X020269Y022718D01*
X020149Y022838D01*
X020254Y022838D01*
X020201Y022786D02*
X020201Y022891D01*
X020149Y022838D01*
X020201Y022891D02*
X020322Y022770D01*
X020568Y022668D01*
X020371Y022338D02*
X023881Y022338D01*
X023701Y022768D02*
X023701Y021291D01*
X024521Y021338D02*
X025881Y021338D01*
X025881Y020838D02*
X025130Y020838D01*
X025201Y020541D02*
X025201Y022056D01*
X026521Y021338D02*
X045921Y021338D01*
X045921Y020838D02*
X026529Y020838D01*
X026701Y020666D02*
X026701Y021768D01*
X026983Y021838D02*
X027254Y021838D01*
X027201Y021891D02*
X027201Y019838D01*
X027076Y019963D02*
X026951Y020088D01*
X026843Y019838D02*
X027726Y019838D01*
X027701Y019838D02*
X027701Y021668D01*
X028149Y021838D02*
X028254Y021838D01*
X028201Y021891D02*
X028322Y021770D01*
X028568Y021668D01*
X026843Y020338D02*
X045921Y020338D01*
X045921Y012338D02*
X041431Y012338D01*
X041201Y011909D02*
X041201Y009041D01*
X041404Y008838D02*
X041471Y008838D01*
X041701Y009267D02*
X041701Y009773D01*
X041635Y009838D02*
X040521Y009838D01*
X040701Y009541D02*
X040701Y011636D01*
X040771Y011838D02*
X045921Y011838D01*
X045921Y011338D02*
X042431Y011338D01*
X042201Y010909D02*
X042201Y010404D01*
X042267Y010338D02*
X045921Y010338D01*
X045921Y009838D02*
X042267Y009838D01*
X042201Y009773D02*
X042201Y009267D01*
X042431Y008838D02*
X045921Y008838D01*
X045921Y009338D02*
X040904Y009338D01*
X041551Y009923D02*
X041785Y009688D01*
X041951Y009688D01*
X041951Y010088D01*
X041951Y010088D01*
X041951Y009688D01*
X042117Y009688D01*
X042351Y009923D01*
X042351Y010088D01*
X041951Y010088D01*
X041551Y010088D01*
X041551Y009923D01*
X041551Y010088D02*
X041951Y010088D01*
X041951Y010088D01*
X041951Y010088D01*
X042351Y010088D01*
X042351Y010254D01*
X042117Y010488D01*
X041951Y010488D01*
X041785Y010488D01*
X041551Y010254D01*
X041551Y010088D01*
X041701Y010088D02*
X041701Y010088D01*
X041951Y010089D02*
X041951Y010488D01*
X041951Y010089D01*
X041951Y010089D01*
X041951Y010338D02*
X041951Y010338D01*
X041701Y010404D02*
X041701Y010909D01*
X041471Y011338D02*
X040521Y011338D01*
X040521Y010838D02*
X045921Y010838D01*
X042201Y010088D02*
X042201Y010088D01*
X041951Y009838D02*
X041951Y009838D01*
X041635Y010338D02*
X040521Y010338D01*
X037522Y010338D02*
X037267Y010338D01*
X037201Y010088D02*
X037201Y010088D01*
X037267Y009838D02*
X037522Y009838D01*
X037201Y009773D02*
X037201Y009267D01*
X036701Y009267D02*
X036701Y009773D01*
X036635Y009838D02*
X035529Y009838D01*
X035701Y010011D02*
X035701Y008267D01*
X036201Y008267D02*
X036201Y010393D01*
X036029Y010338D02*
X036636Y010338D01*
X036701Y010088D02*
X036701Y010088D01*
X036951Y009838D02*
X036951Y009838D01*
X037701Y008409D02*
X037701Y006064D01*
X037440Y005838D02*
X036271Y005838D01*
X036701Y005916D02*
X036701Y005291D01*
X036654Y005338D02*
X037339Y005338D01*
X038701Y006158D02*
X038701Y007409D01*
X038471Y007838D02*
X036431Y007838D01*
X033201Y007768D02*
X033201Y006122D01*
X031249Y004838D02*
X029694Y004838D01*
X029406Y004338D02*
X031561Y004338D01*
X031201Y003933D02*
X031201Y004886D01*
X029201Y004248D02*
X029201Y001618D01*
X029701Y002301D02*
X029701Y002436D01*
X029964Y002838D02*
X030099Y002838D01*
X033701Y001618D02*
X033701Y004298D01*
X034201Y004248D02*
X034201Y001618D01*
X034701Y002301D02*
X034701Y002436D01*
X037564Y003838D02*
X041199Y003838D01*
X041701Y002966D02*
X041701Y001618D01*
X042201Y001618D02*
X042201Y003003D01*
X042536Y003338D02*
X045921Y003338D01*
X025701Y017658D02*
X025701Y017682D01*
X025539Y017838D02*
X025363Y017838D01*
X025201Y017682D02*
X025201Y017658D01*
X024701Y017658D02*
X024701Y017682D01*
X024539Y017838D02*
X024363Y017838D01*
X024201Y017682D02*
X024201Y017658D01*
X024431Y018338D02*
X024471Y018338D01*
X024539Y018838D02*
X024363Y018838D01*
X024201Y018994D02*
X024201Y019338D01*
X023701Y019338D02*
X023701Y018994D01*
X024701Y018994D02*
X024701Y019338D01*
X025201Y019338D02*
X025201Y018994D01*
X025363Y018838D02*
X025539Y018838D01*
X025471Y018338D02*
X025431Y018338D01*
X023701Y019838D02*
X023701Y020386D01*
X023201Y020908D02*
X023201Y022891D01*
X023149Y022838D02*
X023419Y022838D01*
X022701Y022668D02*
X022701Y020908D01*
X022201Y020908D02*
X022201Y022891D01*
X022149Y022838D02*
X022254Y022838D01*
X021701Y022668D02*
X021701Y020908D01*
X021201Y020908D02*
X021201Y022891D01*
X021149Y022838D02*
X021254Y022838D01*
X019701Y021668D02*
X019701Y020041D01*
X019631Y019838D02*
X019201Y019838D01*
X019201Y019338D02*
X001981Y019338D01*
X001981Y018838D02*
X019201Y018838D01*
X019201Y018338D02*
X001981Y018338D01*
X001981Y017838D02*
X008624Y017838D01*
X008701Y017903D02*
X008701Y020668D01*
X008254Y020838D02*
X008149Y020838D01*
X008201Y020891D02*
X008201Y015338D01*
X007701Y015338D02*
X007701Y020668D01*
X007254Y020838D02*
X007149Y020838D01*
X007201Y020891D02*
X007201Y015338D01*
X006701Y015338D02*
X006701Y020668D01*
X009149Y020838D02*
X009254Y020838D01*
X009201Y020891D02*
X009201Y018098D01*
X009245Y018098D02*
X009123Y018098D01*
X008788Y017976D01*
X008516Y017747D01*
X008515Y017747D02*
X008337Y017439D01*
X008276Y017088D01*
X008337Y016738D01*
X008337Y016737D01*
X008515Y016429D01*
X008788Y016200D01*
X008788Y016200D01*
X009123Y016078D01*
X009245Y016078D01*
X009245Y016078D01*
X009274Y016078D01*
X009301Y016078D01*
X009357Y016078D01*
X009479Y016078D01*
X009814Y016200D01*
X010087Y016429D01*
X010265Y016737D01*
X010265Y016738D01*
X010327Y017088D01*
X010327Y017088D01*
X010265Y017439D01*
X010087Y017747D01*
X010087Y017747D01*
X009814Y017976D01*
X009814Y017976D01*
X009479Y018098D01*
X009357Y018098D01*
X009357Y018098D01*
X009301Y018098D01*
X009300Y018098D01*
X009245Y018098D01*
X009245Y018098D01*
X009123Y018098D02*
X009123Y018098D01*
X008788Y017976D02*
X008788Y017976D01*
X008515Y017747D02*
X008515Y017747D01*
X008516Y017747D01*
X008337Y017439D02*
X008337Y017439D01*
X008320Y017338D02*
X001981Y017338D01*
X001981Y016838D02*
X008320Y016838D01*
X008276Y017088D02*
X008276Y017088D01*
X008515Y016429D02*
X008515Y016429D01*
X008624Y016338D02*
X001981Y016338D01*
X001981Y015838D02*
X019201Y015838D01*
X019201Y016338D02*
X009978Y016338D01*
X010087Y016429D02*
X010087Y016429D01*
X010087Y016429D01*
X010201Y016627D02*
X010201Y015338D01*
X009701Y015338D02*
X009701Y016159D01*
X009814Y016200D02*
X009814Y016200D01*
X009479Y016078D02*
X009479Y016078D01*
X009357Y016078D02*
X009357Y016078D01*
X009201Y016078D02*
X009201Y015338D01*
X008701Y015338D02*
X008701Y016273D01*
X009123Y016078D02*
X009123Y016078D01*
X010283Y016838D02*
X019201Y016838D01*
X019201Y017338D02*
X010283Y017338D01*
X010265Y017439D02*
X010265Y017439D01*
X010201Y017549D02*
X010201Y020891D01*
X010149Y020838D02*
X010254Y020838D01*
X010701Y020668D02*
X010701Y015338D01*
X011201Y015338D02*
X011201Y020891D01*
X011149Y020838D02*
X011254Y020838D01*
X011701Y020668D02*
X011701Y015338D01*
X012201Y015338D02*
X012201Y020891D01*
X012149Y020838D02*
X012254Y020838D01*
X012701Y020668D02*
X012701Y015338D01*
X013201Y015338D02*
X013201Y020891D01*
X013149Y020838D02*
X013254Y020838D01*
X013701Y020668D02*
X013701Y015338D01*
X014201Y015338D02*
X014201Y020891D01*
X014149Y020838D02*
X014254Y020838D01*
X014701Y020668D02*
X014701Y015338D01*
X015201Y015338D02*
X015201Y020891D01*
X015149Y020838D02*
X015254Y020838D01*
X015701Y020668D02*
X015701Y015338D01*
X016201Y015338D02*
X016201Y020891D01*
X016149Y020838D02*
X016254Y020838D01*
X016701Y020668D02*
X016701Y015338D01*
X017201Y015338D02*
X017201Y020891D01*
X017149Y020838D02*
X017254Y020838D01*
X017701Y020668D02*
X017701Y015338D01*
X018701Y015338D02*
X018701Y020668D01*
X018568Y020668D02*
X018834Y020668D01*
X019081Y020770D01*
X019269Y020959D01*
X019371Y021205D01*
X019149Y021838D02*
X019201Y021891D01*
X018568Y020668D02*
X018322Y020770D01*
X018201Y020891D01*
X018149Y020838D02*
X018254Y020838D01*
X021951Y018838D02*
X021951Y018838D01*
X022257Y017838D02*
X022539Y017838D01*
X020999Y016838D02*
X020279Y016838D01*
X020271Y017338D02*
X020631Y017338D01*
X020701Y017136D02*
X020701Y016471D01*
X021201Y016471D02*
X021201Y016636D01*
X021701Y016518D02*
X021701Y016471D01*
X020450Y015831D02*
X020450Y015831D01*
X020432Y015838D02*
X020363Y015838D01*
X020201Y015994D02*
X020201Y016011D01*
X019874Y016338D02*
X019701Y016338D01*
X019770Y016442D02*
X019770Y016442D01*
X019701Y016511D02*
X019701Y015994D01*
X021431Y015338D02*
X021471Y015338D01*
X020539Y017838D02*
X020363Y017838D01*
X019201Y017838D02*
X009978Y017838D01*
X009701Y018017D02*
X009701Y020668D01*
X009479Y018098D02*
X009479Y018098D01*
X016941Y012338D02*
X016961Y012338D01*
X017201Y010088D02*
X017201Y010088D01*
X017267Y009838D02*
X017522Y009838D01*
X017471Y008838D02*
X017431Y008838D01*
X017201Y008409D02*
X017201Y007033D01*
X017354Y006838D02*
X020381Y006838D01*
X020381Y007338D02*
X016259Y007338D01*
X016701Y007281D02*
X016701Y008409D01*
X017701Y008409D02*
X017701Y006064D01*
X017440Y005838D02*
X016259Y005838D01*
X016701Y005916D02*
X016701Y005291D01*
X016654Y005338D02*
X017339Y005338D01*
X017701Y004852D02*
X017701Y001618D01*
X016201Y001618D02*
X016201Y003363D01*
X016199Y003838D02*
X012564Y003838D01*
X012701Y004852D02*
X012701Y001618D01*
X014201Y001618D02*
X014201Y004248D01*
X014406Y004338D02*
X016561Y004338D01*
X016881Y004658D02*
X016881Y003648D01*
X016201Y003933D02*
X016201Y004886D01*
X016249Y004838D02*
X014694Y004838D01*
X014546Y005338D02*
X015749Y005338D01*
X015701Y005386D02*
X015701Y001618D01*
X014701Y002301D02*
X014701Y002436D01*
X014964Y002838D02*
X015099Y002838D01*
X017564Y003838D02*
X021199Y003838D01*
X021201Y003933D02*
X021201Y004886D01*
X021249Y004838D02*
X019694Y004838D01*
X018201Y006122D02*
X018201Y008409D01*
X020701Y008318D02*
X020701Y009143D01*
X022267Y009838D02*
X022522Y009838D01*
X022201Y010088D02*
X022201Y010088D01*
X021701Y007886D02*
X021701Y007281D01*
X021749Y007838D02*
X021181Y007838D01*
X022555Y007032D02*
X022555Y007032D01*
X023201Y006893D02*
X023201Y006122D01*
X015619Y006338D02*
X012354Y006338D01*
X012354Y006316D02*
X012354Y006881D01*
X012354Y006838D02*
X015619Y006838D01*
X015619Y005838D02*
X013602Y005838D01*
X013701Y005600D02*
X013701Y007397D01*
X014201Y007422D02*
X014201Y005568D01*
X013201Y006122D02*
X013201Y008136D01*
X012999Y008338D02*
X001981Y008338D01*
X009964Y002838D02*
X010099Y002838D01*
X009701Y002436D02*
X009701Y002301D01*
X011701Y005291D02*
X011701Y005916D01*
X011271Y005838D02*
X012440Y005838D01*
X012701Y006064D02*
X012701Y008409D01*
X013459Y007838D02*
X011431Y007838D01*
X014201Y008255D02*
X014201Y010136D01*
X014131Y010338D02*
X013380Y010338D01*
X013317Y010838D02*
X014131Y010838D01*
X014131Y011338D02*
X013431Y011338D01*
X011951Y009838D02*
X011951Y009838D01*
X011701Y010088D02*
X011701Y010088D01*
X011654Y005338D02*
X012339Y005338D01*
X025404Y020338D02*
X026059Y020338D01*
D20*
X026451Y020088D03*
X026951Y017338D03*
X027701Y014338D03*
X026451Y013838D03*
X022451Y016838D03*
X025701Y008338D03*
D21*
X018701Y020338D03*
X017701Y020338D03*
X016701Y020338D03*
X015701Y020338D03*
X014701Y020338D03*
X013701Y020338D03*
X012701Y020338D03*
X011701Y020338D03*
X010701Y020338D03*
X009701Y020338D03*
X008701Y020338D03*
X007701Y020338D03*
X006701Y020338D03*
X005701Y020338D03*
X004701Y020338D03*
X003701Y020338D03*
X003701Y021338D03*
X004701Y021338D03*
X005701Y021338D03*
X006701Y021338D03*
X007701Y021338D03*
X008701Y021338D03*
X009701Y021338D03*
X010701Y021338D03*
X011701Y021338D03*
X012701Y021338D03*
X013701Y021338D03*
X014701Y021338D03*
X015701Y021338D03*
X016701Y021338D03*
X017701Y021338D03*
X018701Y021338D03*
X019701Y021338D03*
X019701Y022338D03*
X018701Y022338D03*
X017701Y022338D03*
X016701Y022338D03*
X015701Y022338D03*
X014701Y022338D03*
X013701Y022338D03*
X012701Y022338D03*
X011701Y022338D03*
X010701Y022338D03*
X009701Y022338D03*
X008701Y022338D03*
X007701Y022338D03*
X006701Y022338D03*
X005701Y022338D03*
X004701Y022338D03*
X003701Y022338D03*
X003701Y023338D03*
X004701Y023338D03*
X005701Y023338D03*
X006701Y023338D03*
X007701Y023338D03*
X008701Y023338D03*
X009701Y023338D03*
X010701Y023338D03*
X011701Y023338D03*
X012701Y023338D03*
X013701Y023338D03*
X014701Y023338D03*
X015701Y023338D03*
X016701Y023338D03*
X017701Y023338D03*
X018701Y023338D03*
X019701Y023338D03*
X020701Y023338D03*
X021701Y023338D03*
X022701Y023338D03*
X022701Y022338D03*
X021701Y022338D03*
X020701Y022338D03*
X020701Y024338D03*
X019701Y024338D03*
X018701Y024338D03*
X017701Y024338D03*
X016701Y024338D03*
X015701Y024338D03*
X014701Y024338D03*
X013701Y024338D03*
X012701Y024338D03*
X011701Y024338D03*
X010701Y024338D03*
X009701Y024338D03*
X008701Y024338D03*
X007701Y024338D03*
X006701Y024338D03*
X005701Y024338D03*
X004701Y024338D03*
X003701Y024338D03*
X003701Y025338D03*
X004701Y025338D03*
X005701Y025338D03*
X006701Y025338D03*
X007701Y025338D03*
X008701Y025338D03*
X009701Y025338D03*
X010701Y025338D03*
X011701Y025338D03*
X012701Y025338D03*
X013701Y025338D03*
X014701Y025338D03*
X015701Y025338D03*
X016701Y025338D03*
X017701Y025338D03*
X018701Y025338D03*
X019701Y025338D03*
X020701Y025338D03*
X021701Y025338D03*
X022701Y025338D03*
X022701Y024338D03*
X021701Y024338D03*
X021701Y026338D03*
X020701Y026338D03*
X019701Y026338D03*
X018701Y026338D03*
X017701Y026338D03*
X016701Y026338D03*
X015701Y026338D03*
X014701Y026338D03*
X013701Y026338D03*
X012701Y026338D03*
X011701Y026338D03*
X010701Y026338D03*
X009701Y026338D03*
X008701Y026338D03*
X007701Y026338D03*
X006701Y026338D03*
X005701Y026338D03*
X004701Y026338D03*
X003701Y026338D03*
X003701Y027338D03*
X004701Y027338D03*
X005701Y027338D03*
X006701Y027338D03*
X007701Y027338D03*
X008701Y027338D03*
X009701Y027338D03*
X010701Y027338D03*
X011701Y027338D03*
X012701Y027338D03*
X013701Y027338D03*
X014701Y027338D03*
X015701Y027338D03*
X016701Y027338D03*
X017701Y027338D03*
X018701Y027338D03*
X019701Y027338D03*
X020701Y027338D03*
X021701Y027338D03*
X022701Y027338D03*
X022701Y026338D03*
X022701Y028338D03*
X021701Y028338D03*
X020701Y028338D03*
X019701Y028338D03*
X018701Y028338D03*
X017701Y028338D03*
X016701Y028338D03*
X015701Y028338D03*
X014701Y028338D03*
X013701Y028338D03*
X012701Y028338D03*
X011701Y028338D03*
X010701Y028338D03*
X009701Y028338D03*
X008701Y028338D03*
X007701Y028338D03*
X006701Y028338D03*
X005701Y028338D03*
X004701Y028338D03*
X003701Y028338D03*
X003701Y029338D03*
X004701Y029338D03*
X005701Y029338D03*
X006701Y029338D03*
X007701Y029338D03*
X008701Y029338D03*
X009701Y029338D03*
X010701Y029338D03*
X011701Y029338D03*
X012701Y029338D03*
X011701Y030338D03*
X010701Y030338D03*
X009701Y030338D03*
X008701Y030338D03*
X007701Y030338D03*
X006701Y030338D03*
X005701Y030338D03*
X004701Y030338D03*
X003701Y030338D03*
X003701Y031338D03*
X004701Y031338D03*
X005701Y031338D03*
X006701Y031338D03*
X007701Y031338D03*
X008701Y031338D03*
X009701Y031338D03*
X010701Y031338D03*
X027701Y029338D03*
X028701Y029338D03*
X029701Y029338D03*
X030701Y029338D03*
X031701Y029338D03*
X031701Y028338D03*
X030701Y028338D03*
X029701Y028338D03*
X028701Y028338D03*
X027701Y028338D03*
X027701Y027338D03*
X028701Y027338D03*
X029701Y027338D03*
X030701Y027338D03*
X031701Y027338D03*
X031701Y026338D03*
X030701Y026338D03*
X029701Y026338D03*
X028701Y026338D03*
X027701Y026338D03*
X027701Y025338D03*
X028701Y025338D03*
X029701Y025338D03*
X030701Y025338D03*
X031701Y025338D03*
X031701Y024338D03*
X030701Y024338D03*
X029701Y024338D03*
X028701Y024338D03*
X027701Y024338D03*
X027701Y023338D03*
X028701Y023338D03*
X029701Y023338D03*
X030701Y023338D03*
X031701Y023338D03*
X031701Y022338D03*
X030701Y022338D03*
X029701Y022338D03*
X028701Y022338D03*
X027701Y022338D03*
X027701Y021338D03*
X028701Y021338D03*
X029701Y021338D03*
X030701Y021338D03*
X031701Y021338D03*
X032701Y021338D03*
X033701Y021338D03*
X034701Y021338D03*
X035701Y021338D03*
X036701Y021338D03*
X037701Y021338D03*
X038701Y021338D03*
X039701Y021338D03*
X040701Y021338D03*
X041701Y021338D03*
X041701Y022338D03*
X040701Y022338D03*
X039701Y022338D03*
X038701Y022338D03*
X037701Y022338D03*
X036701Y022338D03*
X035701Y022338D03*
X034701Y022338D03*
X033701Y022338D03*
X032701Y022338D03*
X032701Y023338D03*
X033701Y023338D03*
X034701Y023338D03*
X035701Y023338D03*
X036701Y023338D03*
X037701Y023338D03*
X038701Y023338D03*
X039701Y023338D03*
X040701Y023338D03*
X041701Y023338D03*
X041701Y024338D03*
X040701Y024338D03*
X039701Y024338D03*
X038701Y024338D03*
X037701Y024338D03*
X036701Y024338D03*
X035701Y024338D03*
X034701Y024338D03*
X033701Y024338D03*
X032701Y024338D03*
X032701Y025338D03*
X033701Y025338D03*
X034701Y025338D03*
X035701Y025338D03*
X036701Y025338D03*
X037701Y025338D03*
X038701Y025338D03*
X039701Y025338D03*
X040701Y025338D03*
X041701Y025338D03*
X041701Y026338D03*
X040701Y026338D03*
X039701Y026338D03*
X038701Y026338D03*
X037701Y026338D03*
X036701Y026338D03*
X035701Y026338D03*
X034701Y026338D03*
X033701Y026338D03*
X032701Y026338D03*
X032701Y027338D03*
X033701Y027338D03*
X034701Y027338D03*
X035701Y027338D03*
X036701Y027338D03*
X037701Y027338D03*
X038701Y027338D03*
X039701Y027338D03*
X040701Y027338D03*
X041701Y027338D03*
X041701Y028338D03*
X040701Y028338D03*
X039701Y028338D03*
X038701Y028338D03*
X037701Y028338D03*
X036701Y028338D03*
X035701Y028338D03*
X034701Y028338D03*
X033701Y028338D03*
X032701Y028338D03*
X032701Y029338D03*
X033701Y029338D03*
X034701Y029338D03*
X035701Y029338D03*
X036701Y029338D03*
X037701Y029338D03*
X038701Y029338D03*
X039701Y029338D03*
X040701Y029338D03*
X041701Y029338D03*
X041701Y030338D03*
X040701Y030338D03*
X039701Y030338D03*
X038701Y030338D03*
X037701Y030338D03*
X036701Y030338D03*
X035701Y030338D03*
X034701Y030338D03*
X033701Y030338D03*
X032701Y030338D03*
X031701Y030338D03*
X030701Y030338D03*
X029701Y030338D03*
X028701Y030338D03*
X029701Y031338D03*
X030701Y031338D03*
X031701Y031338D03*
X032701Y031338D03*
X033701Y031338D03*
X034701Y031338D03*
X035701Y031338D03*
X036701Y031338D03*
X037701Y031338D03*
X038701Y031338D03*
X039701Y031338D03*
X040701Y031338D03*
X041701Y031338D03*
D22*
X026701Y028338D03*
X025701Y028338D03*
X024701Y028338D03*
X023701Y028338D03*
X023701Y027338D03*
X024701Y027338D03*
X025701Y027338D03*
X026701Y027338D03*
X026701Y026338D03*
X025701Y026338D03*
X024701Y026338D03*
X023701Y026338D03*
X023701Y025338D03*
X024701Y025338D03*
X025701Y025338D03*
X026701Y025338D03*
X026701Y024338D03*
X025701Y024338D03*
X024701Y024338D03*
X023701Y024338D03*
X023701Y023338D03*
X024701Y023338D03*
X025701Y023338D03*
X026701Y023338D03*
X026701Y022338D03*
X025701Y022338D03*
X024701Y022338D03*
X023701Y022338D03*
X025701Y021338D03*
X026701Y021338D03*
D23*
X037451Y013838D02*
X037451Y013838D01*
X027951Y011213D02*
X027951Y010088D01*
X007951Y010088D02*
X007951Y011338D01*
D24*
X021701Y028338D02*
X022701Y028338D01*
X023701Y028338D01*
X024701Y028338D01*
X025701Y028338D01*
D25*
X026701Y028338D02*
X027701Y029338D01*
X027701Y030338D01*
X028701Y031338D01*
X029701Y031338D01*
X030701Y031338D01*
X031701Y031338D01*
X032701Y031338D01*
X033701Y031338D01*
X034701Y031338D01*
X035701Y031338D01*
X036701Y031338D01*
X037701Y031338D01*
X038701Y031338D01*
X039701Y031338D01*
X040701Y031338D01*
X041701Y031338D01*
X021701Y028338D02*
X020701Y029338D01*
X013701Y029338D01*
X011701Y031338D01*
X010701Y031338D01*
X009701Y031338D01*
X008701Y031338D01*
X007701Y031338D01*
X006701Y031338D01*
X005701Y031338D01*
X004701Y031338D01*
X003701Y031338D01*
M02*
