G75*
G70*
%OFA0B0*%
%FSLAX24Y24*%
%IPPOS*%
%LPD*%
%AMOC8*
5,1,8,0,0,1.08239X$1,22.5*
%
%ADD10OC8,0.0945*%
%ADD11C,0.0945*%
%ADD12OC8,0.0540*%
%ADD13C,0.0540*%
%ADD14C,0.0800*%
%ADD15OC8,0.0560*%
%ADD16R,0.0690X0.0520*%
%ADD17R,0.0720X0.0060*%
%ADD18C,0.0651*%
%ADD19C,0.0500*%
%ADD20C,0.1360*%
%ADD21C,0.0496*%
%ADD22C,0.0720*%
D10*
X005031Y002368D03*
X006881Y003648D03*
X010031Y002368D03*
X011881Y003648D03*
X015031Y002368D03*
X016881Y003648D03*
X020031Y002368D03*
X021881Y003648D03*
X025031Y002368D03*
X026881Y003648D03*
X030031Y002368D03*
X031881Y003648D03*
X035031Y002368D03*
X036881Y003648D03*
X040031Y002368D03*
X041881Y003648D03*
X041671Y006598D03*
X036671Y006598D03*
X031671Y006598D03*
X026671Y006598D03*
X021671Y006598D03*
X016671Y006598D03*
X011671Y006598D03*
X006671Y006598D03*
D11*
X008021Y005458D03*
X009011Y004908D03*
X013021Y005458D03*
X014011Y004908D03*
X018021Y005458D03*
X019011Y004908D03*
X023021Y005458D03*
X024011Y004908D03*
X028021Y005458D03*
X029011Y004908D03*
X033021Y005458D03*
X034011Y004908D03*
X038021Y005458D03*
X039011Y004908D03*
X004011Y004908D03*
X003021Y005458D03*
D12*
X003951Y007838D03*
X002951Y008838D03*
X002951Y010088D03*
X002951Y011338D03*
X003826Y012463D03*
X005826Y012463D03*
X006951Y011338D03*
X007951Y011338D03*
X007951Y010088D03*
X006951Y010088D03*
X006951Y008838D03*
X007951Y008838D03*
X008951Y007838D03*
X010951Y007838D03*
X011951Y008838D03*
X012951Y008838D03*
X013939Y007838D03*
X015939Y007838D03*
X016951Y008838D03*
X017951Y008838D03*
X018701Y007838D03*
X020701Y007838D03*
X021951Y008838D03*
X022951Y008838D03*
X024201Y007838D03*
X026201Y007838D03*
X026951Y008838D03*
X027951Y008838D03*
X028951Y007838D03*
X030951Y007838D03*
X031951Y008838D03*
X032951Y008838D03*
X033951Y007838D03*
X035951Y007838D03*
X036951Y008838D03*
X037951Y008838D03*
X038951Y007838D03*
X040951Y007838D03*
X041951Y008838D03*
X041951Y010088D03*
X041951Y011338D03*
X040951Y012338D03*
X038951Y012338D03*
X037951Y011338D03*
X036951Y011338D03*
X036951Y010088D03*
X037951Y010088D03*
X035951Y012338D03*
X033951Y012338D03*
X032951Y011338D03*
X031951Y011213D03*
X031951Y010088D03*
X032951Y010088D03*
X030201Y013338D03*
X030201Y015338D03*
X031576Y017338D03*
X031576Y018338D03*
X030201Y018338D03*
X029451Y017838D03*
X029451Y018838D03*
X033576Y018338D03*
X033576Y017338D03*
X033951Y013838D03*
X035951Y013838D03*
X027951Y011213D03*
X026951Y011188D03*
X026951Y010088D03*
X027951Y010088D03*
X022951Y010088D03*
X021951Y010088D03*
X021951Y011188D03*
X022951Y011188D03*
X023701Y013588D03*
X021701Y013588D03*
X020951Y013588D03*
X018951Y013588D03*
X017951Y011188D03*
X016951Y011151D03*
X016951Y010088D03*
X017951Y010088D03*
X012951Y010088D03*
X011951Y010088D03*
X011951Y011338D03*
X012951Y011151D03*
X012951Y012088D03*
X010826Y012463D03*
X008826Y012463D03*
X012951Y014088D03*
X005951Y007838D03*
X020701Y020588D03*
X024701Y020588D03*
D13*
X024951Y018578D02*
X024951Y018098D01*
X023951Y018098D02*
X023951Y018578D01*
X022951Y018578D02*
X022951Y018098D01*
X021951Y018098D02*
X021951Y018578D01*
X020951Y018578D02*
X020951Y018098D01*
X019951Y018098D02*
X019951Y018578D01*
X019951Y015578D02*
X019951Y015098D01*
X020951Y015098D02*
X020951Y015578D01*
X021951Y015578D02*
X021951Y015098D01*
X022951Y015098D02*
X022951Y015578D01*
X023951Y015578D02*
X023951Y015098D01*
X024951Y015098D02*
X024951Y015578D01*
X025951Y015578D02*
X025951Y015098D01*
X026951Y015098D02*
X026951Y015578D01*
X026951Y018098D02*
X026951Y018578D01*
X025951Y018578D02*
X025951Y018098D01*
D14*
X037451Y014208D02*
X037451Y013468D01*
X038451Y013468D02*
X038451Y014208D01*
X039451Y014208D02*
X039451Y013468D01*
X040451Y013468D02*
X040451Y014208D01*
X041451Y014208D02*
X041451Y013468D01*
X042451Y013468D02*
X042451Y014208D01*
D15*
X030201Y012338D03*
X029201Y012338D03*
X028201Y012338D03*
X027201Y012338D03*
X026201Y012338D03*
X025201Y012338D03*
X024201Y012338D03*
X023201Y012338D03*
X021451Y012338D03*
X020451Y012338D03*
X019451Y012338D03*
X018451Y012338D03*
X017451Y012338D03*
X016451Y012338D03*
X015451Y012338D03*
X014451Y012338D03*
X014451Y031338D03*
X015451Y031338D03*
X016451Y031338D03*
X017451Y031338D03*
X018451Y031338D03*
X019451Y031338D03*
X021451Y031338D03*
X022451Y031338D03*
X023451Y031338D03*
X024451Y031338D03*
X025451Y031338D03*
X026451Y031338D03*
D16*
X028201Y019888D03*
X028201Y019288D03*
X042701Y008138D03*
X042701Y007538D03*
D17*
X042701Y007838D03*
X028201Y019588D03*
D18*
X031326Y016213D03*
X020451Y030463D03*
X002826Y012838D03*
D19*
X002470Y012838D02*
X002472Y012875D01*
X002478Y012912D01*
X002487Y012948D01*
X002501Y012983D01*
X002518Y013016D01*
X002538Y013047D01*
X002561Y013076D01*
X002588Y013103D01*
X002617Y013126D01*
X002648Y013146D01*
X002681Y013163D01*
X002716Y013177D01*
X002752Y013186D01*
X002789Y013192D01*
X002826Y013194D01*
X002863Y013192D01*
X002900Y013186D01*
X002936Y013177D01*
X002971Y013163D01*
X003004Y013146D01*
X003035Y013126D01*
X003064Y013103D01*
X003091Y013076D01*
X003114Y013047D01*
X003134Y013016D01*
X003151Y012983D01*
X003165Y012948D01*
X003174Y012912D01*
X003180Y012875D01*
X003182Y012838D01*
X003180Y012801D01*
X003174Y012764D01*
X003165Y012728D01*
X003151Y012693D01*
X003134Y012660D01*
X003114Y012629D01*
X003091Y012600D01*
X003064Y012573D01*
X003035Y012550D01*
X003004Y012530D01*
X002971Y012513D01*
X002936Y012499D01*
X002900Y012490D01*
X002863Y012484D01*
X002826Y012482D01*
X002789Y012484D01*
X002752Y012490D01*
X002716Y012499D01*
X002681Y012513D01*
X002648Y012530D01*
X002617Y012550D01*
X002588Y012573D01*
X002561Y012600D01*
X002538Y012629D01*
X002518Y012660D01*
X002501Y012693D01*
X002487Y012728D01*
X002478Y012764D01*
X002472Y012801D01*
X002470Y012838D01*
X020095Y030463D02*
X020097Y030500D01*
X020103Y030537D01*
X020112Y030573D01*
X020126Y030608D01*
X020143Y030641D01*
X020163Y030672D01*
X020186Y030701D01*
X020213Y030728D01*
X020242Y030751D01*
X020273Y030771D01*
X020306Y030788D01*
X020341Y030802D01*
X020377Y030811D01*
X020414Y030817D01*
X020451Y030819D01*
X020488Y030817D01*
X020525Y030811D01*
X020561Y030802D01*
X020596Y030788D01*
X020629Y030771D01*
X020660Y030751D01*
X020689Y030728D01*
X020716Y030701D01*
X020739Y030672D01*
X020759Y030641D01*
X020776Y030608D01*
X020790Y030573D01*
X020799Y030537D01*
X020805Y030500D01*
X020807Y030463D01*
X020805Y030426D01*
X020799Y030389D01*
X020790Y030353D01*
X020776Y030318D01*
X020759Y030285D01*
X020739Y030254D01*
X020716Y030225D01*
X020689Y030198D01*
X020660Y030175D01*
X020629Y030155D01*
X020596Y030138D01*
X020561Y030124D01*
X020525Y030115D01*
X020488Y030109D01*
X020451Y030107D01*
X020414Y030109D01*
X020377Y030115D01*
X020341Y030124D01*
X020306Y030138D01*
X020273Y030155D01*
X020242Y030175D01*
X020213Y030198D01*
X020186Y030225D01*
X020163Y030254D01*
X020143Y030285D01*
X020126Y030318D01*
X020112Y030353D01*
X020103Y030389D01*
X020097Y030426D01*
X020095Y030463D01*
X030970Y016213D02*
X030972Y016250D01*
X030978Y016287D01*
X030987Y016323D01*
X031001Y016358D01*
X031018Y016391D01*
X031038Y016422D01*
X031061Y016451D01*
X031088Y016478D01*
X031117Y016501D01*
X031148Y016521D01*
X031181Y016538D01*
X031216Y016552D01*
X031252Y016561D01*
X031289Y016567D01*
X031326Y016569D01*
X031363Y016567D01*
X031400Y016561D01*
X031436Y016552D01*
X031471Y016538D01*
X031504Y016521D01*
X031535Y016501D01*
X031564Y016478D01*
X031591Y016451D01*
X031614Y016422D01*
X031634Y016391D01*
X031651Y016358D01*
X031665Y016323D01*
X031674Y016287D01*
X031680Y016250D01*
X031682Y016213D01*
X031680Y016176D01*
X031674Y016139D01*
X031665Y016103D01*
X031651Y016068D01*
X031634Y016035D01*
X031614Y016004D01*
X031591Y015975D01*
X031564Y015948D01*
X031535Y015925D01*
X031504Y015905D01*
X031471Y015888D01*
X031436Y015874D01*
X031400Y015865D01*
X031363Y015859D01*
X031326Y015857D01*
X031289Y015859D01*
X031252Y015865D01*
X031216Y015874D01*
X031181Y015888D01*
X031148Y015905D01*
X031117Y015925D01*
X031088Y015948D01*
X031061Y015975D01*
X031038Y016004D01*
X031018Y016035D01*
X031001Y016068D01*
X030987Y016103D01*
X030978Y016139D01*
X030972Y016176D01*
X030970Y016213D01*
D20*
X044701Y017088D03*
X009301Y017088D03*
D21*
X022451Y016838D03*
X026951Y017338D03*
X026451Y020088D03*
X027701Y014338D03*
X026451Y013838D03*
X025701Y008338D03*
D22*
X018701Y020338D03*
X017701Y020338D03*
X016701Y020338D03*
X015701Y020338D03*
X014701Y020338D03*
X013701Y020338D03*
X012701Y020338D03*
X011701Y020338D03*
X010701Y020338D03*
X009701Y020338D03*
X008701Y020338D03*
X007701Y020338D03*
X006701Y020338D03*
X005701Y020338D03*
X004701Y020338D03*
X003701Y020338D03*
X003701Y021338D03*
X004701Y021338D03*
X005701Y021338D03*
X006701Y021338D03*
X007701Y021338D03*
X008701Y021338D03*
X009701Y021338D03*
X010701Y021338D03*
X011701Y021338D03*
X012701Y021338D03*
X013701Y021338D03*
X014701Y021338D03*
X015701Y021338D03*
X016701Y021338D03*
X017701Y021338D03*
X018701Y021338D03*
X019701Y021338D03*
X019701Y022338D03*
X018701Y022338D03*
X017701Y022338D03*
X016701Y022338D03*
X015701Y022338D03*
X014701Y022338D03*
X013701Y022338D03*
X012701Y022338D03*
X011701Y022338D03*
X010701Y022338D03*
X009701Y022338D03*
X008701Y022338D03*
X007701Y022338D03*
X006701Y022338D03*
X005701Y022338D03*
X004701Y022338D03*
X003701Y022338D03*
X003701Y023338D03*
X004701Y023338D03*
X005701Y023338D03*
X006701Y023338D03*
X007701Y023338D03*
X008701Y023338D03*
X009701Y023338D03*
X010701Y023338D03*
X011701Y023338D03*
X012701Y023338D03*
X013701Y023338D03*
X014701Y023338D03*
X015701Y023338D03*
X016701Y023338D03*
X017701Y023338D03*
X018701Y023338D03*
X019701Y023338D03*
X020701Y023338D03*
X021701Y023338D03*
X022701Y023338D03*
X022701Y022338D03*
X021701Y022338D03*
X020701Y022338D03*
X020701Y024338D03*
X019701Y024338D03*
X018701Y024338D03*
X017701Y024338D03*
X016701Y024338D03*
X015701Y024338D03*
X014701Y024338D03*
X013701Y024338D03*
X012701Y024338D03*
X011701Y024338D03*
X010701Y024338D03*
X009701Y024338D03*
X008701Y024338D03*
X007701Y024338D03*
X006701Y024338D03*
X005701Y024338D03*
X004701Y024338D03*
X003701Y024338D03*
X003701Y025338D03*
X004701Y025338D03*
X005701Y025338D03*
X006701Y025338D03*
X007701Y025338D03*
X008701Y025338D03*
X009701Y025338D03*
X010701Y025338D03*
X011701Y025338D03*
X012701Y025338D03*
X013701Y025338D03*
X014701Y025338D03*
X015701Y025338D03*
X016701Y025338D03*
X017701Y025338D03*
X018701Y025338D03*
X019701Y025338D03*
X020701Y025338D03*
X021701Y025338D03*
X022701Y025338D03*
X022701Y024338D03*
X021701Y024338D03*
X023701Y024338D03*
X024701Y024338D03*
X025701Y024338D03*
X026701Y024338D03*
X027701Y024338D03*
X028701Y024338D03*
X029701Y024338D03*
X030701Y024338D03*
X031701Y024338D03*
X031701Y023338D03*
X030701Y023338D03*
X029701Y023338D03*
X028701Y023338D03*
X027701Y023338D03*
X026701Y023338D03*
X025701Y023338D03*
X024701Y023338D03*
X023701Y023338D03*
X023701Y022338D03*
X024701Y022338D03*
X025701Y021338D03*
X026701Y021338D03*
X027701Y021338D03*
X028701Y021338D03*
X029701Y021338D03*
X030701Y021338D03*
X031701Y021338D03*
X032701Y021338D03*
X033701Y021338D03*
X034701Y021338D03*
X035701Y021338D03*
X036701Y021338D03*
X037701Y021338D03*
X038701Y021338D03*
X039701Y021338D03*
X040701Y021338D03*
X041701Y021338D03*
X041701Y022338D03*
X040701Y022338D03*
X039701Y022338D03*
X038701Y022338D03*
X037701Y022338D03*
X036701Y022338D03*
X035701Y022338D03*
X034701Y022338D03*
X033701Y022338D03*
X032701Y022338D03*
X031701Y022338D03*
X030701Y022338D03*
X029701Y022338D03*
X028701Y022338D03*
X027701Y022338D03*
X026701Y022338D03*
X026701Y025338D03*
X025701Y025338D03*
X024701Y025338D03*
X023701Y025338D03*
X023701Y026338D03*
X024701Y026338D03*
X025701Y026338D03*
X026701Y026338D03*
X027701Y026338D03*
X028701Y026338D03*
X029701Y026338D03*
X030701Y026338D03*
X031701Y026338D03*
X031701Y025338D03*
X030701Y025338D03*
X029701Y025338D03*
X028701Y025338D03*
X027701Y025338D03*
X027701Y027338D03*
X026701Y027338D03*
X025701Y027338D03*
X024701Y027338D03*
X023701Y027338D03*
X022701Y027338D03*
X021701Y027338D03*
X020701Y027338D03*
X019701Y027338D03*
X018701Y027338D03*
X017701Y027338D03*
X016701Y027338D03*
X015701Y027338D03*
X014701Y027338D03*
X014701Y026338D03*
X015701Y026338D03*
X016701Y026338D03*
X017701Y026338D03*
X018701Y026338D03*
X019701Y026338D03*
X020701Y026338D03*
X021701Y026338D03*
X022701Y026338D03*
X022701Y028338D03*
X021701Y028338D03*
X020701Y028338D03*
X019701Y028338D03*
X018701Y028338D03*
X017701Y028338D03*
X016701Y028338D03*
X015701Y028338D03*
X014701Y028338D03*
X013701Y028338D03*
X012701Y028338D03*
X011701Y028338D03*
X010701Y028338D03*
X009701Y028338D03*
X008701Y028338D03*
X007701Y028338D03*
X006701Y028338D03*
X005701Y028338D03*
X005701Y027338D03*
X006701Y027338D03*
X007701Y027338D03*
X008701Y027338D03*
X009701Y027338D03*
X010701Y027338D03*
X011701Y027338D03*
X012701Y027338D03*
X013701Y027338D03*
X013701Y026338D03*
X012701Y026338D03*
X011701Y026338D03*
X010701Y026338D03*
X009701Y026338D03*
X008701Y026338D03*
X007701Y026338D03*
X006701Y026338D03*
X005701Y026338D03*
X004701Y026338D03*
X003701Y026338D03*
X003701Y027338D03*
X004701Y027338D03*
X004701Y028338D03*
X003701Y028338D03*
X003701Y029338D03*
X004701Y029338D03*
X005701Y029338D03*
X006701Y029338D03*
X007701Y029338D03*
X008701Y029338D03*
X009701Y029338D03*
X010701Y029338D03*
X011701Y029338D03*
X012701Y029338D03*
X013701Y029338D03*
X014701Y029338D03*
X015701Y029338D03*
X016701Y029338D03*
X017701Y029338D03*
X018701Y029338D03*
X019701Y029338D03*
X020701Y029338D03*
X023701Y028338D03*
X024701Y028338D03*
X025701Y028338D03*
X026701Y028338D03*
X027701Y028338D03*
X028701Y028338D03*
X029701Y028338D03*
X030701Y028338D03*
X031701Y028338D03*
X031701Y027338D03*
X030701Y027338D03*
X029701Y027338D03*
X028701Y027338D03*
X028701Y029338D03*
X027701Y029338D03*
X027701Y030338D03*
X028701Y030338D03*
X029701Y030338D03*
X030701Y030338D03*
X031701Y030338D03*
X031701Y029338D03*
X030701Y029338D03*
X029701Y029338D03*
X029701Y031338D03*
X028701Y031338D03*
X030701Y031338D03*
X031701Y031338D03*
X032701Y031338D03*
X033701Y031338D03*
X034701Y031338D03*
X035701Y031338D03*
X036701Y031338D03*
X037701Y031338D03*
X038701Y031338D03*
X039701Y031338D03*
X040701Y031338D03*
X041701Y031338D03*
X041701Y030338D03*
X040701Y030338D03*
X039701Y030338D03*
X038701Y030338D03*
X037701Y030338D03*
X036701Y030338D03*
X035701Y030338D03*
X034701Y030338D03*
X033701Y030338D03*
X032701Y030338D03*
X032701Y029338D03*
X033701Y029338D03*
X034701Y029338D03*
X035701Y029338D03*
X036701Y029338D03*
X037701Y029338D03*
X038701Y029338D03*
X039701Y029338D03*
X040701Y029338D03*
X041701Y029338D03*
X041701Y028338D03*
X040701Y028338D03*
X039701Y028338D03*
X038701Y028338D03*
X037701Y028338D03*
X036701Y028338D03*
X035701Y028338D03*
X034701Y028338D03*
X033701Y028338D03*
X032701Y028338D03*
X032701Y027338D03*
X033701Y027338D03*
X034701Y027338D03*
X035701Y027338D03*
X036701Y027338D03*
X037701Y027338D03*
X038701Y027338D03*
X039701Y027338D03*
X040701Y027338D03*
X041701Y027338D03*
X041701Y026338D03*
X040701Y026338D03*
X039701Y026338D03*
X038701Y026338D03*
X037701Y026338D03*
X036701Y026338D03*
X035701Y026338D03*
X034701Y026338D03*
X033701Y026338D03*
X032701Y026338D03*
X032701Y025338D03*
X033701Y025338D03*
X034701Y025338D03*
X035701Y025338D03*
X036701Y025338D03*
X037701Y025338D03*
X038701Y025338D03*
X039701Y025338D03*
X040701Y025338D03*
X041701Y025338D03*
X041701Y024338D03*
X040701Y024338D03*
X039701Y024338D03*
X038701Y024338D03*
X037701Y024338D03*
X036701Y024338D03*
X035701Y024338D03*
X034701Y024338D03*
X033701Y024338D03*
X032701Y024338D03*
X032701Y023338D03*
X033701Y023338D03*
X034701Y023338D03*
X035701Y023338D03*
X036701Y023338D03*
X037701Y023338D03*
X038701Y023338D03*
X039701Y023338D03*
X040701Y023338D03*
X041701Y023338D03*
X012701Y030338D03*
X011701Y030338D03*
X010701Y030338D03*
X009701Y030338D03*
X008701Y030338D03*
X007701Y030338D03*
X006701Y030338D03*
X005701Y030338D03*
X004701Y030338D03*
X003701Y030338D03*
X003701Y031338D03*
X004701Y031338D03*
X005701Y031338D03*
X006701Y031338D03*
X007701Y031338D03*
X008701Y031338D03*
X009701Y031338D03*
X010701Y031338D03*
X011701Y031338D03*
M02*
