%
M48
M72
T01C0.0236
T02C0.0315
T03C0.0320
T04C0.0354
T05C0.0400
T06C0.0590
T07C0.1300
%
T01
X21453Y16838
X25453Y13838
X26703Y14338
X25953Y17338
X25453Y20088
X24703Y8338
T02
X24203Y12338
X23203Y12338
X22203Y12338
X20453Y12338
X19453Y12338
X18453Y12338
X17453Y12338
X16453Y12338
X15453Y12338
X14453Y12338
X13453Y12338
X25203Y12338
X26203Y12338
X27203Y12338
X28203Y12338
X29203Y12338
X25453Y31338
X24453Y31338
X23453Y31338
X22453Y31338
X21453Y31338
X20453Y31338
X18453Y31338
X17453Y31338
X16453Y31338
X15453Y31338
X14453Y31338
X13453Y31338
T03
X19703Y20588
X19953Y18338
X18953Y18338
X20953Y18338
X21953Y18338
X22953Y18338
X23953Y18338
X24953Y18338
X25953Y18338
X28453Y17838
X29203Y18338
X28453Y18838
X30578Y18338
X30578Y17338
X32578Y17338
X32578Y18338
X29203Y15338
X29203Y13338
X30953Y11213
X31953Y11338
X32953Y12338
X34953Y12338
X35953Y11338
X36953Y11338
X37953Y12338
X39953Y12338
X40953Y11338
X40953Y10088
X40953Y8838
X39953Y7838
X37953Y7838
X36953Y8838
X35953Y8838
X34953Y7838
X32953Y7838
X31953Y8838
X30953Y8838
X29953Y7838
X27953Y7838
X26953Y8838
X25953Y8838
X25203Y7838
X23203Y7838
X21953Y8838
X20953Y8838
X19703Y7838
X17703Y7838
X16953Y8838
X15953Y8838
X14941Y7838
X12941Y7838
X11953Y8838
X10953Y8838
X9953Y7838
X7953Y7838
X6953Y8838
X5953Y8838
X4953Y7838
X2953Y7838
X1953Y8838
X1953Y10088
X1953Y11338
X2828Y12463
X4828Y12463
X5953Y11338
X6953Y11338
X7828Y12463
X9828Y12463
X10953Y11338
X11953Y11151
X11953Y12088
X11953Y10088
X10953Y10088
X6953Y10088
X5953Y10088
X11953Y14088
X15953Y11151
X16953Y11188
X16953Y10088
X15953Y10088
X17953Y13588
X19953Y13588
X20703Y13588
X22703Y13588
X22953Y15338
X23953Y15338
X24953Y15338
X25953Y15338
X21953Y15338
X20953Y15338
X19953Y15338
X18953Y15338
X20953Y11188
X21953Y11188
X21953Y10088
X20953Y10088
X25953Y10088
X26953Y10088
X26953Y11213
X25953Y11188
X30953Y10088
X31953Y10088
X35953Y10088
X36953Y10088
X34953Y13838
X32953Y13838
X23703Y20588
T04
X24703Y21338
X24703Y22338
X23703Y22338
X22703Y22338
X21703Y22338
X20703Y22338
X19703Y22338
X18703Y22338
X17703Y22338
X16703Y22338
X15703Y22338
X14703Y22338
X13703Y22338
X12703Y22338
X11703Y22338
X10703Y22338
X9703Y22338
X8703Y22338
X7703Y22338
X6703Y22338
X5703Y22338
X4703Y22338
X3703Y22338
X2703Y22338
X2703Y21338
X2703Y20338
X3703Y20338
X4703Y20338
X5703Y20338
X6703Y20338
X7703Y20338
X7703Y21338
X6703Y21338
X5703Y21338
X4703Y21338
X3703Y21338
X3703Y23338
X4703Y23338
X5703Y23338
X6703Y23338
X7703Y23338
X7703Y24338
X6703Y24338
X5703Y24338
X4703Y24338
X3703Y24338
X2703Y24338
X2703Y23338
X2703Y25338
X2703Y26338
X2703Y27338
X2703Y28338
X2703Y29338
X2703Y30338
X2703Y31338
X3703Y31338
X4703Y31338
X5703Y31338
X6703Y31338
X7703Y31338
X7703Y30338
X6703Y30338
X5703Y30338
X4703Y30338
X3703Y30338
X3703Y29338
X4703Y29338
X5703Y29338
X6703Y29338
X7703Y29338
X7703Y28338
X6703Y28338
X5703Y28338
X4703Y28338
X3703Y28338
X3703Y27338
X4703Y27338
X5703Y27338
X6703Y27338
X7703Y27338
X7703Y26338
X6703Y26338
X5703Y26338
X4703Y26338
X3703Y26338
X3703Y25338
X4703Y25338
X5703Y25338
X6703Y25338
X7703Y25338
X8703Y25338
X9703Y25338
X10703Y25338
X11703Y25338
X12703Y25338
X13703Y25338
X13703Y26338
X12703Y26338
X11703Y26338
X10703Y26338
X9703Y26338
X8703Y26338
X8703Y27338
X9703Y27338
X10703Y27338
X11703Y27338
X12703Y27338
X13703Y27338
X13703Y28338
X12703Y28338
X11703Y28338
X10703Y28338
X9703Y28338
X8703Y28338
X8703Y29338
X9703Y29338
X10703Y29338
X11703Y29338
X10703Y30338
X9703Y30338
X8703Y30338
X8703Y31338
X9703Y31338
X14703Y28338
X15703Y28338
X16703Y28338
X17703Y28338
X18703Y28338
X18703Y27338
X17703Y27338
X16703Y27338
X15703Y27338
X14703Y27338
X14703Y26338
X15703Y26338
X16703Y26338
X17703Y26338
X18703Y26338
X18703Y25338
X17703Y25338
X16703Y25338
X15703Y25338
X14703Y25338
X14703Y24338
X15703Y24338
X16703Y24338
X17703Y24338
X18703Y24338
X18703Y23338
X17703Y23338
X16703Y23338
X15703Y23338
X14703Y23338
X13703Y23338
X12703Y23338
X11703Y23338
X10703Y23338
X9703Y23338
X8703Y23338
X8703Y24338
X9703Y24338
X10703Y24338
X11703Y24338
X12703Y24338
X13703Y24338
X13703Y21338
X12703Y21338
X11703Y21338
X10703Y21338
X9703Y21338
X8703Y21338
X8703Y20338
X9703Y20338
X10703Y20338
X11703Y20338
X12703Y20338
X13703Y20338
X14703Y20338
X15703Y20338
X16703Y20338
X17703Y20338
X17703Y21338
X16703Y21338
X15703Y21338
X14703Y21338
X18703Y21338
X19703Y23338
X20703Y23338
X21703Y23338
X22703Y23338
X23703Y23338
X24703Y23338
X24703Y24338
X23703Y24338
X22703Y24338
X21703Y24338
X20703Y24338
X19703Y24338
X19703Y25338
X20703Y25338
X21703Y25338
X22703Y25338
X23703Y25338
X24703Y25338
X24703Y26338
X23703Y26338
X22703Y26338
X21703Y26338
X20703Y26338
X19703Y26338
X19703Y27338
X20703Y27338
X21703Y27338
X22703Y27338
X23703Y27338
X24703Y27338
X24703Y28338
X23703Y28338
X22703Y28338
X21703Y28338
X20703Y28338
X19703Y28338
X25703Y28338
X26703Y28338
X27703Y28338
X28703Y28338
X29703Y28338
X29703Y27338
X28703Y27338
X27703Y27338
X26703Y27338
X25703Y27338
X25703Y26338
X26703Y26338
X27703Y26338
X28703Y26338
X29703Y26338
X29703Y25338
X28703Y25338
X27703Y25338
X26703Y25338
X25703Y25338
X25703Y24338
X26703Y24338
X27703Y24338
X28703Y24338
X29703Y24338
X29703Y23338
X28703Y23338
X27703Y23338
X26703Y23338
X25703Y23338
X25703Y22338
X26703Y22338
X27703Y22338
X28703Y22338
X29703Y22338
X29703Y21338
X28703Y21338
X27703Y21338
X26703Y21338
X25703Y21338
X30703Y21338
X31703Y21338
X32703Y21338
X33703Y21338
X34703Y21338
X34703Y22338
X33703Y22338
X32703Y22338
X31703Y22338
X30703Y22338
X30703Y23338
X31703Y23338
X32703Y23338
X33703Y23338
X34703Y23338
X34703Y24338
X33703Y24338
X32703Y24338
X31703Y24338
X30703Y24338
X30703Y25338
X31703Y25338
X32703Y25338
X33703Y25338
X34703Y25338
X34703Y26338
X33703Y26338
X32703Y26338
X31703Y26338
X30703Y26338
X30703Y27338
X31703Y27338
X32703Y27338
X33703Y27338
X34703Y27338
X34703Y28338
X33703Y28338
X32703Y28338
X31703Y28338
X30703Y28338
X30703Y29338
X31703Y29338
X32703Y29338
X33703Y29338
X34703Y29338
X34703Y30338
X33703Y30338
X32703Y30338
X31703Y30338
X30703Y30338
X29703Y30338
X28703Y30338
X27703Y30338
X27703Y29338
X26703Y29338
X28703Y29338
X29703Y29338
X29703Y31338
X28703Y31338
X30703Y31338
X31703Y31338
X32703Y31338
X33703Y31338
X34703Y31338
X35703Y31338
X36703Y31338
X37703Y31338
X38703Y31338
X39703Y31338
X40703Y31338
X40703Y30338
X39703Y30338
X38703Y30338
X37703Y30338
X36703Y30338
X35703Y30338
X35703Y29338
X36703Y29338
X37703Y29338
X38703Y29338
X39703Y29338
X40703Y29338
X40703Y28338
X39703Y28338
X38703Y28338
X37703Y28338
X36703Y28338
X35703Y28338
X35703Y27338
X36703Y27338
X37703Y27338
X38703Y27338
X39703Y27338
X40703Y27338
X40703Y26338
X39703Y26338
X38703Y26338
X37703Y26338
X36703Y26338
X35703Y26338
X35703Y25338
X36703Y25338
X37703Y25338
X38703Y25338
X39703Y25338
X40703Y25338
X40703Y24338
X39703Y24338
X38703Y24338
X37703Y24338
X36703Y24338
X35703Y24338
X35703Y23338
X36703Y23338
X37703Y23338
X38703Y23338
X39703Y23338
X40703Y23338
X40703Y22338
X39703Y22338
X38703Y22338
X37703Y22338
X36703Y22338
X35703Y22338
X35703Y21338
X36703Y21338
X37703Y21338
X38703Y21338
X39703Y21338
X40703Y21338
T05
X40453Y13838
X39453Y13838
X38453Y13838
X37453Y13838
X36453Y13838
X41453Y13838
T06
X4033Y2368
X5883Y3648
X7023Y5458
X8013Y4908
X5673Y6598
X3013Y4908
X2023Y5458
X9033Y2368
X10883Y3648
X12023Y5458
X13013Y4908
X10673Y6598
X15673Y6598
X17023Y5458
X18013Y4908
X15883Y3648
X14033Y2368
X19033Y2368
X20883Y3648
X22023Y5458
X23013Y4908
X20673Y6598
X25673Y6598
X27023Y5458
X28013Y4908
X25883Y3648
X24033Y2368
X29033Y2368
X30883Y3648
X32023Y5458
X33013Y4908
X30673Y6598
X35673Y6598
X37023Y5458
X38013Y4908
X35883Y3648
X34033Y2368
X39033Y2368
X40883Y3648
X40673Y6598
T07
X43703Y17088
X8303Y17088
M30
