G75*
G70*
%OFA0B0*%
%FSLAX24Y24*%
%IPPOS*%
%LPD*%
%AMOC8*
5,1,8,0,0,1.08239X$1,22.5*
%
%ADD10C,0.0000*%
%ADD11OC8,0.0885*%
%ADD12C,0.0885*%
%ADD13OC8,0.0480*%
%ADD14C,0.0480*%
%ADD15C,0.0740*%
%ADD16OC8,0.0500*%
%ADD17R,0.0630X0.0460*%
%ADD18C,0.0591*%
%ADD19C,0.0160*%
%ADD20C,0.0436*%
%ADD21C,0.0860*%
%ADD22C,0.0660*%
%ADD23C,0.0240*%
%ADD24C,0.0500*%
%ADD25C,0.0320*%
D10*
X002703Y001338D02*
X043203Y001338D01*
X043298Y001340D01*
X043393Y001347D01*
X043488Y001358D01*
X043582Y001374D01*
X043675Y001394D01*
X043766Y001419D01*
X043857Y001448D01*
X043946Y001481D01*
X044034Y001519D01*
X044119Y001560D01*
X044203Y001606D01*
X044284Y001655D01*
X044363Y001709D01*
X044439Y001766D01*
X044513Y001827D01*
X044583Y001891D01*
X044650Y001958D01*
X044714Y002028D01*
X044775Y002102D01*
X044832Y002178D01*
X044886Y002257D01*
X044935Y002338D01*
X044981Y002422D01*
X045022Y002507D01*
X045060Y002595D01*
X045093Y002684D01*
X045122Y002775D01*
X045147Y002866D01*
X045167Y002959D01*
X045183Y003053D01*
X045194Y003148D01*
X045201Y003243D01*
X045203Y003338D01*
X045203Y030338D01*
X045201Y030433D01*
X045194Y030528D01*
X045183Y030623D01*
X045167Y030717D01*
X045147Y030810D01*
X045122Y030901D01*
X045093Y030992D01*
X045060Y031081D01*
X045022Y031169D01*
X044981Y031254D01*
X044935Y031338D01*
X044886Y031419D01*
X044832Y031498D01*
X044775Y031574D01*
X044714Y031648D01*
X044650Y031718D01*
X044583Y031785D01*
X044513Y031849D01*
X044439Y031910D01*
X044363Y031967D01*
X044284Y032021D01*
X044203Y032070D01*
X044119Y032116D01*
X044034Y032157D01*
X043946Y032195D01*
X043857Y032228D01*
X043766Y032257D01*
X043675Y032282D01*
X043582Y032302D01*
X043488Y032318D01*
X043393Y032329D01*
X043298Y032336D01*
X043203Y032338D01*
X002703Y032338D01*
X002608Y032336D01*
X002513Y032329D01*
X002418Y032318D01*
X002324Y032302D01*
X002231Y032282D01*
X002140Y032257D01*
X002049Y032228D01*
X001960Y032195D01*
X001872Y032157D01*
X001787Y032116D01*
X001703Y032070D01*
X001622Y032021D01*
X001543Y031967D01*
X001467Y031910D01*
X001393Y031849D01*
X001323Y031785D01*
X001256Y031718D01*
X001192Y031648D01*
X001131Y031574D01*
X001074Y031498D01*
X001020Y031419D01*
X000971Y031338D01*
X000925Y031254D01*
X000884Y031169D01*
X000846Y031081D01*
X000813Y030992D01*
X000784Y030901D01*
X000759Y030810D01*
X000739Y030717D01*
X000723Y030623D01*
X000712Y030528D01*
X000705Y030433D01*
X000703Y030338D01*
X000703Y003338D01*
X000705Y003243D01*
X000712Y003148D01*
X000723Y003053D01*
X000739Y002959D01*
X000759Y002866D01*
X000784Y002775D01*
X000813Y002684D01*
X000846Y002595D01*
X000884Y002507D01*
X000925Y002422D01*
X000971Y002338D01*
X001020Y002257D01*
X001074Y002178D01*
X001131Y002102D01*
X001192Y002028D01*
X001256Y001958D01*
X001323Y001891D01*
X001393Y001827D01*
X001467Y001766D01*
X001543Y001709D01*
X001622Y001655D01*
X001703Y001606D01*
X001787Y001560D01*
X001872Y001519D01*
X001960Y001481D01*
X002049Y001448D01*
X002140Y001419D01*
X002231Y001394D01*
X002324Y001374D01*
X002418Y001358D01*
X002513Y001347D01*
X002608Y001340D01*
X002703Y001338D01*
X007653Y017088D02*
X007655Y017138D01*
X007661Y017188D01*
X007671Y017238D01*
X007684Y017286D01*
X007701Y017334D01*
X007722Y017380D01*
X007746Y017424D01*
X007774Y017466D01*
X007805Y017506D01*
X007839Y017543D01*
X007876Y017578D01*
X007915Y017609D01*
X007956Y017638D01*
X008000Y017663D01*
X008046Y017685D01*
X008093Y017703D01*
X008141Y017717D01*
X008190Y017728D01*
X008240Y017735D01*
X008290Y017738D01*
X008341Y017737D01*
X008391Y017732D01*
X008441Y017723D01*
X008489Y017711D01*
X008537Y017694D01*
X008583Y017674D01*
X008628Y017651D01*
X008671Y017624D01*
X008711Y017594D01*
X008749Y017561D01*
X008784Y017525D01*
X008817Y017486D01*
X008846Y017445D01*
X008872Y017402D01*
X008895Y017357D01*
X008914Y017310D01*
X008929Y017262D01*
X008941Y017213D01*
X008949Y017163D01*
X008953Y017113D01*
X008953Y017063D01*
X008949Y017013D01*
X008941Y016963D01*
X008929Y016914D01*
X008914Y016866D01*
X008895Y016819D01*
X008872Y016774D01*
X008846Y016731D01*
X008817Y016690D01*
X008784Y016651D01*
X008749Y016615D01*
X008711Y016582D01*
X008671Y016552D01*
X008628Y016525D01*
X008583Y016502D01*
X008537Y016482D01*
X008489Y016465D01*
X008441Y016453D01*
X008391Y016444D01*
X008341Y016439D01*
X008290Y016438D01*
X008240Y016441D01*
X008190Y016448D01*
X008141Y016459D01*
X008093Y016473D01*
X008046Y016491D01*
X008000Y016513D01*
X007956Y016538D01*
X007915Y016567D01*
X007876Y016598D01*
X007839Y016633D01*
X007805Y016670D01*
X007774Y016710D01*
X007746Y016752D01*
X007722Y016796D01*
X007701Y016842D01*
X007684Y016890D01*
X007671Y016938D01*
X007661Y016988D01*
X007655Y017038D01*
X007653Y017088D01*
X043053Y017088D02*
X043055Y017138D01*
X043061Y017188D01*
X043071Y017238D01*
X043084Y017286D01*
X043101Y017334D01*
X043122Y017380D01*
X043146Y017424D01*
X043174Y017466D01*
X043205Y017506D01*
X043239Y017543D01*
X043276Y017578D01*
X043315Y017609D01*
X043356Y017638D01*
X043400Y017663D01*
X043446Y017685D01*
X043493Y017703D01*
X043541Y017717D01*
X043590Y017728D01*
X043640Y017735D01*
X043690Y017738D01*
X043741Y017737D01*
X043791Y017732D01*
X043841Y017723D01*
X043889Y017711D01*
X043937Y017694D01*
X043983Y017674D01*
X044028Y017651D01*
X044071Y017624D01*
X044111Y017594D01*
X044149Y017561D01*
X044184Y017525D01*
X044217Y017486D01*
X044246Y017445D01*
X044272Y017402D01*
X044295Y017357D01*
X044314Y017310D01*
X044329Y017262D01*
X044341Y017213D01*
X044349Y017163D01*
X044353Y017113D01*
X044353Y017063D01*
X044349Y017013D01*
X044341Y016963D01*
X044329Y016914D01*
X044314Y016866D01*
X044295Y016819D01*
X044272Y016774D01*
X044246Y016731D01*
X044217Y016690D01*
X044184Y016651D01*
X044149Y016615D01*
X044111Y016582D01*
X044071Y016552D01*
X044028Y016525D01*
X043983Y016502D01*
X043937Y016482D01*
X043889Y016465D01*
X043841Y016453D01*
X043791Y016444D01*
X043741Y016439D01*
X043690Y016438D01*
X043640Y016441D01*
X043590Y016448D01*
X043541Y016459D01*
X043493Y016473D01*
X043446Y016491D01*
X043400Y016513D01*
X043356Y016538D01*
X043315Y016567D01*
X043276Y016598D01*
X043239Y016633D01*
X043205Y016670D01*
X043174Y016710D01*
X043146Y016752D01*
X043122Y016796D01*
X043101Y016842D01*
X043084Y016890D01*
X043071Y016938D01*
X043061Y016988D01*
X043055Y017038D01*
X043053Y017088D01*
D11*
X040673Y006598D03*
X040883Y003648D03*
X039033Y002368D03*
X035883Y003648D03*
X034033Y002368D03*
X030883Y003648D03*
X029033Y002368D03*
X025883Y003648D03*
X024033Y002368D03*
X020883Y003648D03*
X019033Y002368D03*
X015883Y003648D03*
X014033Y002368D03*
X010883Y003648D03*
X009033Y002368D03*
X005883Y003648D03*
X004033Y002368D03*
X005673Y006598D03*
X010673Y006598D03*
X015673Y006598D03*
X020673Y006598D03*
X025673Y006598D03*
X030673Y006598D03*
X035673Y006598D03*
D12*
X037023Y005458D03*
X038013Y004908D03*
X033013Y004908D03*
X032023Y005458D03*
X028013Y004908D03*
X027023Y005458D03*
X023013Y004908D03*
X022023Y005458D03*
X018013Y004908D03*
X017023Y005458D03*
X013013Y004908D03*
X012023Y005458D03*
X008013Y004908D03*
X007023Y005458D03*
X003013Y004908D03*
X002023Y005458D03*
D13*
X002953Y007838D03*
X001953Y008838D03*
X001953Y010088D03*
X001953Y011338D03*
X002828Y012463D03*
X004828Y012463D03*
X005953Y011338D03*
X006953Y011338D03*
X007828Y012463D03*
X009828Y012463D03*
X010953Y011338D03*
X011953Y011151D03*
X011953Y012088D03*
X011953Y010088D03*
X010953Y010088D03*
X010953Y008838D03*
X011953Y008838D03*
X012941Y007838D03*
X014941Y007838D03*
X015953Y008838D03*
X016953Y008838D03*
X017703Y007838D03*
X019703Y007838D03*
X020953Y008838D03*
X021953Y008838D03*
X023203Y007838D03*
X025203Y007838D03*
X025953Y008838D03*
X026953Y008838D03*
X027953Y007838D03*
X029953Y007838D03*
X030953Y008838D03*
X031953Y008838D03*
X032953Y007838D03*
X034953Y007838D03*
X035953Y008838D03*
X036953Y008838D03*
X037953Y007838D03*
X039953Y007838D03*
X040953Y008838D03*
X040953Y010088D03*
X040953Y011338D03*
X039953Y012338D03*
X037953Y012338D03*
X036953Y011338D03*
X035953Y011338D03*
X034953Y012338D03*
X032953Y012338D03*
X031953Y011338D03*
X030953Y011213D03*
X030953Y010088D03*
X031953Y010088D03*
X035953Y010088D03*
X036953Y010088D03*
X034953Y013838D03*
X032953Y013838D03*
X029203Y013338D03*
X029203Y015338D03*
X030578Y017338D03*
X030578Y018338D03*
X029203Y018338D03*
X028453Y017838D03*
X028453Y018838D03*
X032578Y018338D03*
X032578Y017338D03*
X026953Y011213D03*
X025953Y011188D03*
X025953Y010088D03*
X026953Y010088D03*
X021953Y010088D03*
X020953Y010088D03*
X020953Y011188D03*
X021953Y011188D03*
X022703Y013588D03*
X020703Y013588D03*
X019953Y013588D03*
X017953Y013588D03*
X016953Y011188D03*
X015953Y011151D03*
X015953Y010088D03*
X016953Y010088D03*
X011953Y014088D03*
X006953Y010088D03*
X005953Y010088D03*
X005953Y008838D03*
X006953Y008838D03*
X007953Y007838D03*
X009953Y007838D03*
X004953Y007838D03*
X019703Y020588D03*
X023703Y020588D03*
D14*
X023953Y018578D02*
X023953Y018098D01*
X022953Y018098D02*
X022953Y018578D01*
X021953Y018578D02*
X021953Y018098D01*
X020953Y018098D02*
X020953Y018578D01*
X019953Y018578D02*
X019953Y018098D01*
X018953Y018098D02*
X018953Y018578D01*
X018953Y015578D02*
X018953Y015098D01*
X019953Y015098D02*
X019953Y015578D01*
X020953Y015578D02*
X020953Y015098D01*
X021953Y015098D02*
X021953Y015578D01*
X022953Y015578D02*
X022953Y015098D01*
X023953Y015098D02*
X023953Y015578D01*
X024953Y015578D02*
X024953Y015098D01*
X025953Y015098D02*
X025953Y015578D01*
X025953Y018098D02*
X025953Y018578D01*
X024953Y018578D02*
X024953Y018098D01*
D15*
X036453Y014208D02*
X036453Y013468D01*
X037453Y013468D02*
X037453Y014208D01*
X038453Y014208D02*
X038453Y013468D01*
X039453Y013468D02*
X039453Y014208D01*
X040453Y014208D02*
X040453Y013468D01*
X041453Y013468D02*
X041453Y014208D01*
D16*
X029203Y012338D03*
X028203Y012338D03*
X027203Y012338D03*
X026203Y012338D03*
X025203Y012338D03*
X024203Y012338D03*
X023203Y012338D03*
X022203Y012338D03*
X020453Y012338D03*
X019453Y012338D03*
X018453Y012338D03*
X017453Y012338D03*
X016453Y012338D03*
X015453Y012338D03*
X014453Y012338D03*
X013453Y012338D03*
X013453Y031338D03*
X014453Y031338D03*
X015453Y031338D03*
X016453Y031338D03*
X017453Y031338D03*
X018453Y031338D03*
X020453Y031338D03*
X021453Y031338D03*
X022453Y031338D03*
X023453Y031338D03*
X024453Y031338D03*
X025453Y031338D03*
D17*
X027203Y019888D03*
X027203Y019288D03*
X041703Y008138D03*
X041703Y007538D03*
D18*
X030328Y016213D03*
X019453Y030463D03*
X001828Y012838D03*
D19*
X001703Y004852D02*
X001703Y001949D01*
X001788Y001882D02*
X001487Y002122D01*
X001247Y002423D01*
X001080Y002770D01*
X000994Y003146D01*
X000983Y003338D01*
X000983Y003387D01*
X000983Y003394D01*
X000983Y014838D01*
X017251Y014838D01*
X016071Y013658D01*
X005767Y013658D01*
X005640Y013658D01*
X005522Y013610D01*
X004856Y012943D01*
X004629Y012943D01*
X004348Y012662D01*
X004348Y012264D01*
X004629Y011983D01*
X004856Y011983D01*
X005473Y011366D01*
X005473Y011139D01*
X005754Y010858D01*
X006152Y010858D01*
X006433Y011139D01*
X006433Y011537D01*
X006152Y011818D01*
X005926Y011818D01*
X005308Y012436D01*
X005308Y012491D01*
X005836Y013018D01*
X016267Y013018D01*
X016385Y013067D01*
X016475Y013157D01*
X018156Y014838D01*
X018541Y014838D01*
X018546Y014826D01*
X018681Y014691D01*
X018858Y014618D01*
X019049Y014618D01*
X019225Y014691D01*
X019360Y014826D01*
X019433Y015003D01*
X019433Y015674D01*
X019360Y015850D01*
X019225Y015985D01*
X019049Y016058D01*
X018858Y016058D01*
X018703Y015994D01*
X018703Y016511D01*
X018772Y016442D01*
X019245Y015970D01*
X019245Y015969D01*
X019335Y015879D01*
X019452Y015831D01*
X019452Y015831D01*
X019538Y015831D01*
X019473Y015674D01*
X019473Y015003D01*
X019546Y014826D01*
X019681Y014691D01*
X019858Y014618D01*
X020049Y014618D01*
X020225Y014691D01*
X020360Y014826D01*
X020433Y015003D01*
X020433Y015674D01*
X020368Y015831D01*
X020538Y015831D01*
X020473Y015674D01*
X020473Y015003D01*
X020546Y014826D01*
X020681Y014691D01*
X020858Y014618D01*
X021049Y014618D01*
X021225Y014691D01*
X021360Y014826D01*
X021433Y015003D01*
X021433Y015674D01*
X021368Y015831D01*
X021538Y015831D01*
X021473Y015674D01*
X021473Y015003D01*
X021546Y014826D01*
X021633Y014739D01*
X021633Y013221D01*
X021578Y013166D01*
X021385Y013360D01*
X021267Y013408D01*
X021140Y013408D01*
X021089Y013408D01*
X021103Y013423D01*
X021103Y013588D01*
X020704Y013588D01*
X020704Y013588D01*
X021103Y013588D01*
X021103Y013754D01*
X020869Y013988D01*
X020703Y013988D01*
X020538Y013988D01*
X020385Y013835D01*
X020152Y014068D01*
X019754Y014068D01*
X019473Y013787D01*
X019473Y013389D01*
X019754Y013108D01*
X019981Y013108D01*
X020182Y012907D01*
X020261Y012828D01*
X020250Y012828D01*
X019963Y012541D01*
X019963Y012135D01*
X020250Y011848D01*
X020656Y011848D01*
X020943Y012135D01*
X020943Y012541D01*
X020716Y012768D01*
X021071Y012768D01*
X021258Y012581D01*
X021258Y011946D01*
X020981Y011668D01*
X020754Y011668D01*
X020473Y011387D01*
X020473Y010989D01*
X020555Y010908D01*
X017352Y010908D01*
X017433Y010989D01*
X017433Y011387D01*
X017152Y011668D01*
X016754Y011668D01*
X016473Y011387D01*
X016473Y010989D01*
X016555Y010908D01*
X016389Y010908D01*
X016433Y010952D01*
X016433Y011350D01*
X016152Y011631D01*
X015754Y011631D01*
X015473Y011350D01*
X015473Y010952D01*
X015517Y010908D01*
X015086Y010908D01*
X014773Y011221D01*
X014773Y011965D01*
X014943Y012135D01*
X014943Y012541D01*
X014656Y012828D01*
X014250Y012828D01*
X013963Y012541D01*
X013963Y012135D01*
X014133Y011965D01*
X014133Y011152D01*
X014133Y011025D01*
X014182Y010907D01*
X014682Y010407D01*
X014772Y010317D01*
X014890Y010268D01*
X015568Y010268D01*
X015553Y010254D01*
X015553Y010088D01*
X015553Y009923D01*
X015693Y009783D01*
X014461Y009783D01*
X013773Y010471D01*
X013773Y011965D01*
X013943Y012135D01*
X013943Y012541D01*
X013656Y012828D01*
X013250Y012828D01*
X012963Y012541D01*
X012963Y012135D01*
X013133Y011965D01*
X013133Y010275D01*
X013182Y010157D01*
X013272Y010067D01*
X014057Y009282D01*
X014057Y009282D01*
X014147Y009192D01*
X014265Y009143D01*
X015580Y009143D01*
X015473Y009037D01*
X015473Y008639D01*
X015754Y008358D01*
X016152Y008358D01*
X016433Y008639D01*
X016433Y009037D01*
X016327Y009143D01*
X016580Y009143D01*
X016473Y009037D01*
X016473Y008639D01*
X016754Y008358D01*
X017152Y008358D01*
X017433Y008639D01*
X017433Y009037D01*
X017327Y009143D01*
X020580Y009143D01*
X020473Y009037D01*
X020473Y008639D01*
X020633Y008479D01*
X020633Y008025D01*
X020682Y007907D01*
X020772Y007817D01*
X021557Y007032D01*
X021557Y007032D01*
X021647Y006942D01*
X021765Y006893D01*
X023515Y006893D01*
X023642Y006893D01*
X023760Y006942D01*
X024698Y007880D01*
X024723Y007880D01*
X024723Y007811D01*
X024432Y007520D01*
X024383Y007402D01*
X024383Y007275D01*
X024383Y006025D01*
X024432Y005907D01*
X024522Y005817D01*
X025563Y004776D01*
X025563Y004293D01*
X025201Y003931D01*
X025201Y003366D01*
X025601Y002966D01*
X026166Y002966D01*
X026566Y003366D01*
X026566Y003931D01*
X026203Y004293D01*
X026203Y006163D01*
X026356Y006316D02*
X025956Y005916D01*
X025391Y005916D01*
X025023Y006283D01*
X025023Y006221D01*
X026155Y005090D01*
X026203Y004972D01*
X026203Y004845D01*
X026203Y004293D01*
X026203Y004338D02*
X027618Y004338D01*
X027627Y004330D02*
X027878Y004226D01*
X028149Y004226D01*
X028400Y004330D01*
X028592Y004522D01*
X028696Y004772D01*
X028696Y005044D01*
X028592Y005295D01*
X028400Y005487D01*
X028149Y005591D01*
X027878Y005591D01*
X027706Y005520D01*
X027706Y005594D01*
X027602Y005845D01*
X027410Y006037D01*
X027159Y006141D01*
X026888Y006141D01*
X026637Y006037D01*
X026445Y005845D01*
X026341Y005594D01*
X026341Y005322D01*
X026445Y005072D01*
X026637Y004880D01*
X026888Y004776D01*
X027159Y004776D01*
X027331Y004847D01*
X027331Y004772D01*
X027435Y004522D01*
X027627Y004330D01*
X027703Y004298D02*
X027703Y001618D01*
X027203Y001618D02*
X027203Y004794D01*
X027310Y004838D02*
X027331Y004838D01*
X026737Y004838D02*
X026203Y004838D01*
X025883Y004908D02*
X024703Y006088D01*
X024703Y007338D01*
X025203Y007838D01*
X024723Y007838D02*
X024656Y007838D01*
X024703Y007880D02*
X024703Y007791D01*
X024383Y007338D02*
X024156Y007338D01*
X024203Y007386D02*
X024203Y002971D01*
X024283Y002971D02*
X024101Y002971D01*
X024101Y002436D01*
X023966Y002436D01*
X023966Y002971D01*
X023784Y002971D01*
X023431Y002618D01*
X023431Y002436D01*
X023966Y002436D01*
X023966Y002301D01*
X023431Y002301D01*
X023431Y002119D01*
X023784Y001766D01*
X023966Y001766D01*
X023966Y002301D01*
X024101Y002301D01*
X024101Y002436D01*
X024636Y002436D01*
X024636Y002618D01*
X024283Y002971D01*
X024415Y002838D02*
X028651Y002838D01*
X028703Y002890D02*
X028703Y007136D01*
X028906Y007338D02*
X029633Y007338D01*
X029633Y007479D02*
X029633Y005652D01*
X029633Y005525D01*
X029682Y005407D01*
X030563Y004526D01*
X030563Y004293D01*
X030201Y003931D01*
X030201Y003366D01*
X030601Y002966D01*
X031166Y002966D01*
X031566Y003366D01*
X031566Y003931D01*
X031203Y004293D01*
X031203Y006163D01*
X031356Y006316D02*
X030956Y005916D01*
X030391Y005916D01*
X030273Y006033D01*
X030273Y005721D01*
X031155Y004840D01*
X031203Y004722D01*
X031203Y004595D01*
X031203Y004293D01*
X031203Y004338D02*
X032618Y004338D01*
X032627Y004330D02*
X032878Y004226D01*
X033149Y004226D01*
X033400Y004330D01*
X033592Y004522D01*
X033696Y004772D01*
X033696Y005044D01*
X033592Y005295D01*
X033400Y005487D01*
X033149Y005591D01*
X032878Y005591D01*
X032706Y005520D01*
X032706Y005594D01*
X032602Y005845D01*
X032410Y006037D01*
X032159Y006141D01*
X031888Y006141D01*
X031637Y006037D01*
X031445Y005845D01*
X031341Y005594D01*
X031341Y005322D01*
X031445Y005072D01*
X031637Y004880D01*
X031888Y004776D01*
X032159Y004776D01*
X032331Y004847D01*
X032331Y004772D01*
X032435Y004522D01*
X032627Y004330D01*
X032703Y004298D02*
X032703Y001618D01*
X032203Y001618D02*
X032203Y004794D01*
X032310Y004838D02*
X032331Y004838D01*
X031737Y004838D02*
X031155Y004838D01*
X030883Y004658D02*
X029953Y005588D01*
X029953Y007838D01*
X029473Y007838D02*
X029406Y007838D01*
X029473Y007906D02*
X029473Y007639D01*
X029633Y007479D01*
X029203Y007636D02*
X029203Y002971D01*
X029283Y002971D02*
X029101Y002971D01*
X029101Y002436D01*
X028966Y002436D01*
X028966Y002971D01*
X028784Y002971D01*
X028431Y002618D01*
X028431Y002436D01*
X028966Y002436D01*
X028966Y002301D01*
X028431Y002301D01*
X028431Y002119D01*
X028784Y001766D01*
X028966Y001766D01*
X028966Y002301D01*
X029101Y002301D01*
X029101Y002436D01*
X029636Y002436D01*
X029636Y002618D01*
X029283Y002971D01*
X029415Y002838D02*
X033651Y002838D01*
X033703Y002890D02*
X033703Y009011D01*
X033531Y008838D02*
X035473Y008838D01*
X035473Y008639D02*
X035754Y008358D01*
X036152Y008358D01*
X036433Y008639D01*
X036433Y009037D01*
X036152Y009318D01*
X035754Y009318D01*
X035473Y009037D01*
X035473Y008639D01*
X035703Y008409D02*
X035703Y007281D01*
X035956Y007281D02*
X035391Y007281D01*
X035273Y007163D01*
X035273Y007479D01*
X035433Y007639D01*
X035433Y008037D01*
X035152Y008318D01*
X034754Y008318D01*
X034473Y008037D01*
X034473Y007639D01*
X034633Y007479D01*
X034633Y005652D01*
X034633Y005525D01*
X034682Y005407D01*
X035563Y004526D01*
X035563Y004293D01*
X035201Y003931D01*
X035201Y003366D01*
X035601Y002966D01*
X036166Y002966D01*
X036566Y003366D01*
X036566Y003931D01*
X036203Y004293D01*
X036203Y006163D01*
X036356Y006316D02*
X035956Y005916D01*
X035391Y005916D01*
X035273Y006033D01*
X035273Y005721D01*
X036155Y004840D01*
X036203Y004722D01*
X036203Y004595D01*
X036203Y004293D01*
X036203Y004338D02*
X037618Y004338D01*
X037627Y004330D02*
X037878Y004226D01*
X038149Y004226D01*
X038400Y004330D01*
X038592Y004522D01*
X038696Y004772D01*
X038696Y005044D01*
X038592Y005295D01*
X038400Y005487D01*
X038324Y005518D01*
X041267Y005518D01*
X041385Y005567D01*
X041475Y005657D01*
X041975Y006157D01*
X042023Y006275D01*
X042023Y006402D01*
X042023Y007068D01*
X042066Y007068D01*
X042154Y007105D01*
X042222Y007172D01*
X042258Y007261D01*
X042258Y007816D01*
X042249Y007838D01*
X042258Y007861D01*
X042258Y008416D01*
X042222Y008504D01*
X042154Y008572D01*
X042066Y008608D01*
X041402Y008608D01*
X041433Y008639D01*
X041433Y009037D01*
X041152Y009318D01*
X040754Y009318D01*
X040473Y009037D01*
X040473Y008771D01*
X039523Y009721D01*
X039523Y011456D01*
X039635Y011567D01*
X039725Y011657D01*
X039773Y011775D01*
X039773Y011858D01*
X040152Y011858D01*
X040433Y012139D01*
X040433Y012537D01*
X040152Y012818D01*
X039773Y012818D01*
X039773Y012941D01*
X039799Y012951D01*
X039953Y013106D01*
X040108Y012951D01*
X040332Y012858D01*
X040575Y012858D01*
X040799Y012951D01*
X040953Y013106D01*
X041108Y012951D01*
X041332Y012858D01*
X041575Y012858D01*
X041799Y012951D01*
X041970Y013123D01*
X042063Y013347D01*
X042063Y014330D01*
X041970Y014554D01*
X041799Y014725D01*
X041773Y014736D01*
X041773Y019338D01*
X044923Y019338D01*
X044923Y003338D01*
X041539Y003338D01*
X041566Y003366D02*
X041166Y002966D01*
X040601Y002966D01*
X040201Y003366D01*
X040201Y003931D01*
X040601Y004331D01*
X041166Y004331D01*
X041566Y003931D01*
X041566Y003366D01*
X041566Y003838D02*
X044923Y003838D01*
X044923Y003338D02*
X044912Y003146D01*
X044827Y002770D01*
X044660Y002423D01*
X044420Y002122D01*
X044118Y001882D01*
X043771Y001715D01*
X043396Y001629D01*
X043203Y001618D01*
X043203Y016196D01*
X043191Y016200D02*
X043525Y016078D01*
X043525Y016078D01*
X043648Y016078D01*
X043648Y016078D01*
X043677Y016078D01*
X043703Y016078D01*
X043703Y001699D01*
X044028Y001838D02*
X039355Y001838D01*
X039283Y001766D02*
X039636Y002119D01*
X039636Y002301D01*
X039101Y002301D01*
X039101Y002436D01*
X038966Y002436D01*
X038966Y002971D01*
X038784Y002971D01*
X038431Y002618D01*
X038431Y002436D01*
X038966Y002436D01*
X038966Y002301D01*
X038431Y002301D01*
X038431Y002119D01*
X038784Y001766D01*
X038966Y001766D01*
X038966Y002301D01*
X039101Y002301D01*
X039101Y001766D01*
X039283Y001766D01*
X039203Y001766D02*
X039203Y001618D01*
X039101Y001838D02*
X038966Y001838D01*
X038711Y001838D02*
X034355Y001838D01*
X034283Y001766D02*
X034636Y002119D01*
X034636Y002301D01*
X034101Y002301D01*
X034101Y002436D01*
X033966Y002436D01*
X033966Y002971D01*
X033784Y002971D01*
X033431Y002618D01*
X033431Y002436D01*
X033966Y002436D01*
X033966Y002301D01*
X033431Y002301D01*
X033431Y002119D01*
X033784Y001766D01*
X033966Y001766D01*
X033966Y002301D01*
X034101Y002301D01*
X034101Y001766D01*
X034283Y001766D01*
X034203Y001766D02*
X034203Y001618D01*
X034101Y001838D02*
X033966Y001838D01*
X033711Y001838D02*
X029355Y001838D01*
X029283Y001766D02*
X029636Y002119D01*
X029636Y002301D01*
X029101Y002301D01*
X029101Y001766D01*
X029283Y001766D01*
X029203Y001766D02*
X029203Y001618D01*
X029101Y001838D02*
X028966Y001838D01*
X028711Y001838D02*
X024355Y001838D01*
X024283Y001766D02*
X024636Y002119D01*
X024636Y002301D01*
X024101Y002301D01*
X024101Y001766D01*
X024283Y001766D01*
X024203Y001766D02*
X024203Y001618D01*
X024101Y001838D02*
X023966Y001838D01*
X023711Y001838D02*
X019355Y001838D01*
X019283Y001766D02*
X019636Y002119D01*
X019636Y002301D01*
X019101Y002301D01*
X019101Y002436D01*
X018966Y002436D01*
X018966Y002971D01*
X018784Y002971D01*
X018431Y002618D01*
X018431Y002436D01*
X018966Y002436D01*
X018966Y002301D01*
X018431Y002301D01*
X018431Y002119D01*
X018784Y001766D01*
X018966Y001766D01*
X018966Y002301D01*
X019101Y002301D01*
X019101Y001766D01*
X019283Y001766D01*
X019203Y001766D02*
X019203Y001618D01*
X019101Y001838D02*
X018966Y001838D01*
X018711Y001838D02*
X014355Y001838D01*
X014283Y001766D02*
X014636Y002119D01*
X014636Y002301D01*
X014101Y002301D01*
X014101Y002436D01*
X013966Y002436D01*
X013966Y002971D01*
X013784Y002971D01*
X013431Y002618D01*
X013431Y002436D01*
X013966Y002436D01*
X013966Y002301D01*
X013431Y002301D01*
X013431Y002119D01*
X013784Y001766D01*
X013966Y001766D01*
X013966Y002301D01*
X014101Y002301D01*
X014101Y001766D01*
X014283Y001766D01*
X014203Y001766D02*
X014203Y001618D01*
X014101Y001838D02*
X013966Y001838D01*
X013711Y001838D02*
X009355Y001838D01*
X009283Y001766D02*
X009636Y002119D01*
X009636Y002301D01*
X009101Y002301D01*
X009101Y002436D01*
X008966Y002436D01*
X008966Y002971D01*
X008784Y002971D01*
X008431Y002618D01*
X008431Y002436D01*
X008966Y002436D01*
X008966Y002301D01*
X008431Y002301D01*
X008431Y002119D01*
X008784Y001766D01*
X008966Y001766D01*
X008966Y002301D01*
X009101Y002301D01*
X009101Y001766D01*
X009283Y001766D01*
X009203Y001766D02*
X009203Y001618D01*
X009101Y001838D02*
X008966Y001838D01*
X008711Y001838D02*
X004355Y001838D01*
X004283Y001766D02*
X004636Y002119D01*
X004636Y002301D01*
X004101Y002301D01*
X004101Y002436D01*
X003966Y002436D01*
X003966Y002971D01*
X003784Y002971D01*
X003431Y002618D01*
X003431Y002436D01*
X003966Y002436D01*
X003966Y002301D01*
X003431Y002301D01*
X003431Y002119D01*
X003784Y001766D01*
X003966Y001766D01*
X003966Y002301D01*
X004101Y002301D01*
X004101Y001766D01*
X004283Y001766D01*
X004203Y001766D02*
X004203Y001618D01*
X004101Y001838D02*
X003966Y001838D01*
X003711Y001838D02*
X001879Y001838D01*
X001788Y001882D02*
X002135Y001715D01*
X002511Y001629D01*
X002703Y001618D01*
X043203Y001618D01*
X042703Y001618D02*
X042703Y016943D01*
X042722Y016838D02*
X041773Y016838D01*
X041773Y017338D02*
X042722Y017338D01*
X042740Y017439D02*
X042678Y017088D01*
X042740Y016738D01*
X042740Y016737D01*
X042918Y016429D01*
X043191Y016200D01*
X043191Y016200D01*
X043026Y016338D02*
X041773Y016338D01*
X041773Y015838D02*
X044923Y015838D01*
X044923Y016338D02*
X044381Y016338D01*
X044489Y016429D02*
X044216Y016200D01*
X044216Y016200D01*
X043881Y016078D01*
X043881Y016078D01*
X043759Y016078D01*
X043759Y016078D01*
X043722Y016078D01*
X043703Y016078D01*
X044203Y016195D02*
X044203Y001950D01*
X044592Y002338D02*
X039101Y002338D01*
X039101Y002436D02*
X039636Y002436D01*
X039636Y002618D01*
X039283Y002971D01*
X039101Y002971D01*
X039101Y002436D01*
X039203Y002436D02*
X039203Y002301D01*
X038966Y002338D02*
X034101Y002338D01*
X034101Y002436D02*
X034636Y002436D01*
X034636Y002618D01*
X034283Y002971D01*
X034101Y002971D01*
X034101Y002436D01*
X034203Y002436D02*
X034203Y002301D01*
X033966Y002338D02*
X029101Y002338D01*
X029203Y002301D02*
X029203Y002436D01*
X028966Y002338D02*
X024101Y002338D01*
X024203Y002301D02*
X024203Y002436D01*
X023966Y002338D02*
X019101Y002338D01*
X019101Y002436D02*
X019636Y002436D01*
X019636Y002618D01*
X019283Y002971D01*
X019101Y002971D01*
X019101Y002436D01*
X019203Y002436D02*
X019203Y002301D01*
X018966Y002338D02*
X014101Y002338D01*
X014101Y002436D02*
X014636Y002436D01*
X014636Y002618D01*
X014283Y002971D01*
X014101Y002971D01*
X014101Y002436D01*
X014203Y002436D02*
X014203Y002301D01*
X013966Y002338D02*
X009101Y002338D01*
X009101Y002436D02*
X009636Y002436D01*
X009636Y002618D01*
X009283Y002971D01*
X009101Y002971D01*
X009101Y002436D01*
X009203Y002436D02*
X009203Y002301D01*
X008966Y002338D02*
X004101Y002338D01*
X004101Y002436D02*
X004636Y002436D01*
X004636Y002618D01*
X004283Y002971D01*
X004101Y002971D01*
X004101Y002436D01*
X004203Y002436D02*
X004203Y002301D01*
X003966Y002338D02*
X001315Y002338D01*
X001203Y002514D02*
X001203Y014838D01*
X001203Y015338D02*
X001203Y031163D01*
X001247Y031253D02*
X001080Y030906D01*
X000994Y030531D01*
X000983Y030338D01*
X002033Y030338D01*
X002033Y030205D02*
X002033Y030472D01*
X002135Y030718D01*
X002256Y030838D01*
X002135Y030959D01*
X002033Y031205D01*
X002033Y031472D01*
X002135Y031718D01*
X002324Y031906D01*
X002570Y032008D01*
X002837Y032008D01*
X003083Y031906D01*
X003203Y031786D01*
X003324Y031906D01*
X003570Y032008D01*
X003837Y032008D01*
X004083Y031906D01*
X004203Y031786D01*
X004324Y031906D01*
X004570Y032008D01*
X004837Y032008D01*
X005083Y031906D01*
X005203Y031786D01*
X005203Y032058D01*
X005324Y031906D02*
X005203Y031786D01*
X005151Y031838D02*
X005256Y031838D01*
X005324Y031906D02*
X005570Y032008D01*
X005837Y032008D01*
X006083Y031906D01*
X006203Y031786D01*
X006324Y031906D01*
X006570Y032008D01*
X006837Y032008D01*
X007083Y031906D01*
X007203Y031786D01*
X007324Y031906D01*
X007570Y032008D01*
X007837Y032008D01*
X008083Y031906D01*
X008203Y031786D01*
X008324Y031906D01*
X008570Y032008D01*
X008837Y032008D01*
X009083Y031906D01*
X009203Y031786D01*
X009324Y031906D01*
X009570Y032008D01*
X009837Y032008D01*
X010083Y031906D01*
X010251Y031738D01*
X010783Y031738D01*
X010930Y031677D01*
X011042Y031565D01*
X011042Y031565D01*
X012869Y029738D01*
X019783Y029738D01*
X019930Y029677D01*
X020042Y029565D01*
X020042Y029565D01*
X020599Y029008D01*
X020837Y029008D01*
X021083Y028906D01*
X021161Y028828D01*
X021246Y028828D01*
X021324Y028906D01*
X021570Y029008D01*
X021837Y029008D01*
X022083Y028906D01*
X022161Y028828D01*
X022397Y028828D01*
X022590Y028908D01*
X022817Y028908D01*
X022820Y028907D01*
X023133Y029221D01*
X023133Y030965D01*
X022963Y031135D01*
X022963Y031541D01*
X023250Y031828D01*
X023656Y031828D01*
X023943Y031541D01*
X023943Y031135D01*
X023773Y030965D01*
X023773Y029152D01*
X023773Y029025D01*
X023725Y028908D01*
X023817Y028908D01*
X024010Y028828D01*
X024397Y028828D01*
X024590Y028908D01*
X024817Y028908D01*
X024883Y028881D01*
X024883Y030025D01*
X024883Y030152D01*
X024932Y030270D01*
X025133Y030471D01*
X025133Y030965D01*
X024963Y031135D01*
X024963Y031541D01*
X025250Y031828D01*
X025656Y031828D01*
X025943Y031541D01*
X025943Y031135D01*
X025773Y030965D01*
X025773Y030275D01*
X025725Y030157D01*
X025635Y030067D01*
X025523Y029956D01*
X025523Y028881D01*
X025590Y028908D01*
X025708Y028908D01*
X026033Y029234D01*
X026033Y029472D01*
X026135Y029718D01*
X026303Y029886D01*
X026303Y030418D01*
X026364Y030565D01*
X026477Y030677D01*
X026477Y030677D01*
X027364Y031565D01*
X027364Y031565D01*
X027477Y031677D01*
X027624Y031738D01*
X028156Y031738D01*
X028324Y031906D01*
X028570Y032008D01*
X028837Y032008D01*
X029083Y031906D01*
X029203Y031786D01*
X029324Y031906D01*
X029570Y032008D01*
X029837Y032008D01*
X030083Y031906D01*
X030203Y031786D01*
X030324Y031906D01*
X030570Y032008D01*
X030837Y032008D01*
X031083Y031906D01*
X031203Y031786D01*
X031324Y031906D01*
X031570Y032008D01*
X031837Y032008D01*
X032083Y031906D01*
X032203Y031786D01*
X032324Y031906D01*
X032570Y032008D01*
X032837Y032008D01*
X033083Y031906D01*
X033203Y031786D01*
X033324Y031906D01*
X033570Y032008D01*
X033837Y032008D01*
X034083Y031906D01*
X034203Y031786D01*
X034324Y031906D01*
X034570Y032008D01*
X034837Y032008D01*
X035083Y031906D01*
X035203Y031786D01*
X035324Y031906D01*
X035570Y032008D01*
X035837Y032008D01*
X036083Y031906D01*
X036203Y031786D01*
X036324Y031906D01*
X036570Y032008D01*
X036837Y032008D01*
X037083Y031906D01*
X037203Y031786D01*
X037324Y031906D01*
X037570Y032008D01*
X037837Y032008D01*
X038083Y031906D01*
X038203Y031786D01*
X038324Y031906D01*
X038570Y032008D01*
X038837Y032008D01*
X039083Y031906D01*
X039203Y031786D01*
X039324Y031906D01*
X039570Y032008D01*
X039837Y032008D01*
X040083Y031906D01*
X040203Y031786D01*
X040324Y031906D01*
X040570Y032008D01*
X040837Y032008D01*
X041083Y031906D01*
X041271Y031718D01*
X041373Y031472D01*
X041373Y031205D01*
X041271Y030959D01*
X041151Y030838D01*
X044842Y030838D01*
X044827Y030906D02*
X044912Y030531D01*
X044923Y030338D01*
X041373Y030338D01*
X041373Y030205D02*
X041373Y030472D01*
X041271Y030718D01*
X041151Y030838D01*
X041203Y030786D02*
X041203Y030891D01*
X041373Y031338D02*
X044592Y031338D01*
X044660Y031253D02*
X044827Y030906D01*
X044703Y031163D02*
X044703Y019838D01*
X044923Y019838D02*
X027678Y019838D01*
X027678Y019853D01*
X027239Y019853D01*
X027239Y019923D01*
X027678Y019923D01*
X027678Y020139D01*
X027667Y020180D01*
X027646Y020216D01*
X027617Y020246D01*
X027580Y020267D01*
X027539Y020278D01*
X027238Y020278D01*
X027238Y019924D01*
X027168Y019924D01*
X027168Y020278D01*
X026867Y020278D01*
X026827Y020267D01*
X026790Y020246D01*
X026760Y020216D01*
X026739Y020180D01*
X026728Y020139D01*
X026728Y019923D01*
X027168Y019923D01*
X027168Y019853D01*
X026728Y019853D01*
X026728Y019838D01*
X025846Y019838D01*
X025911Y019997D01*
X025911Y020179D01*
X025842Y020348D01*
X025773Y020416D01*
X025773Y020527D01*
X025725Y020645D01*
X025523Y020846D01*
X025523Y021796D01*
X025590Y021768D01*
X025817Y021768D01*
X026026Y021855D01*
X026134Y021963D01*
X026135Y021959D01*
X026324Y021770D01*
X026570Y021668D01*
X026837Y021668D01*
X027083Y021770D01*
X027203Y021891D01*
X027203Y019924D01*
X027203Y019888D02*
X026153Y019888D01*
X026078Y019963D01*
X025953Y019838D01*
X025953Y018338D01*
X026433Y018338D02*
X027751Y018338D01*
X027703Y018291D02*
X027703Y019338D01*
X027678Y019338D02*
X041133Y019338D01*
X041133Y014736D01*
X041108Y014725D01*
X040953Y014571D01*
X040799Y014725D01*
X040575Y014818D01*
X040332Y014818D01*
X040108Y014725D01*
X039953Y014571D01*
X039799Y014725D01*
X039773Y014736D01*
X039773Y014902D01*
X039725Y015020D01*
X039635Y015110D01*
X039475Y015269D01*
X039475Y015270D01*
X039385Y015360D01*
X039267Y015408D01*
X032961Y015408D01*
X031058Y017311D01*
X031058Y017537D01*
X030777Y017818D01*
X030379Y017818D01*
X030220Y017658D01*
X029086Y017658D01*
X028933Y017811D01*
X028933Y017929D01*
X029004Y017858D01*
X029402Y017858D01*
X029562Y018018D01*
X030140Y018018D01*
X030145Y018018D01*
X030220Y018018D01*
X030379Y017858D01*
X030777Y017858D01*
X031058Y018139D01*
X031058Y018537D01*
X030777Y018818D01*
X030379Y018818D01*
X030219Y018658D01*
X030140Y018658D01*
X029562Y018658D01*
X029402Y018818D01*
X029004Y018818D01*
X028844Y018658D01*
X028839Y018658D01*
X028853Y018673D01*
X028853Y018838D01*
X028454Y018838D01*
X028454Y018838D01*
X041133Y018838D01*
X040703Y019338D02*
X040703Y014765D01*
X041133Y014838D02*
X039773Y014838D01*
X039703Y015041D02*
X039703Y019338D01*
X039203Y019338D02*
X039203Y015408D01*
X039406Y015338D02*
X041133Y015338D01*
X041133Y015838D02*
X032531Y015838D01*
X032703Y015666D02*
X032703Y016938D01*
X032744Y016938D02*
X032978Y017173D01*
X032978Y017338D01*
X032579Y017338D01*
X032579Y017338D01*
X041133Y017338D01*
X041133Y016838D02*
X031531Y016838D01*
X031703Y016666D02*
X031703Y019338D01*
X031203Y019338D02*
X031203Y017166D01*
X031058Y017338D02*
X032578Y017338D01*
X032178Y017338D01*
X032178Y017173D01*
X032413Y016938D01*
X032578Y016938D01*
X032578Y017338D01*
X032578Y017338D01*
X032578Y017338D01*
X032178Y017338D01*
X032178Y017504D01*
X032413Y017738D01*
X032578Y017738D01*
X032578Y017339D01*
X032578Y017339D01*
X032578Y017738D01*
X032744Y017738D01*
X032978Y017504D01*
X032978Y017338D01*
X032579Y017338D01*
X032578Y017338D02*
X032578Y016938D01*
X032744Y016938D01*
X032703Y017338D02*
X032703Y017338D01*
X032703Y017738D02*
X032703Y017938D01*
X032744Y017938D02*
X032978Y018173D01*
X032978Y018338D01*
X032579Y018338D01*
X032579Y018338D01*
X041133Y018338D01*
X041133Y017838D02*
X028933Y017838D01*
X029203Y017858D02*
X029203Y017658D01*
X028953Y017338D02*
X028453Y017838D01*
X028453Y017838D01*
X026766Y016151D01*
X019516Y016151D01*
X018953Y016713D01*
X018953Y018338D01*
X018953Y019838D01*
X019703Y020588D01*
X022453Y020588D01*
X023203Y021338D01*
X023203Y027838D01*
X022703Y028338D01*
X023453Y029088D01*
X023453Y031338D01*
X022963Y031338D02*
X022454Y031338D01*
X022454Y031338D01*
X022863Y031338D01*
X022863Y031168D01*
X022623Y030928D01*
X022453Y030928D01*
X022453Y031338D01*
X022043Y031338D01*
X022043Y031168D01*
X022283Y030928D01*
X022453Y030928D01*
X022453Y031338D01*
X022453Y031338D01*
X022453Y031338D01*
X021454Y031338D01*
X021454Y031338D01*
X021863Y031338D01*
X021863Y031168D01*
X021623Y030928D01*
X021453Y030928D01*
X021453Y031338D01*
X021043Y031338D01*
X021043Y031168D01*
X021283Y030928D01*
X021453Y030928D01*
X021453Y031338D01*
X021453Y031338D01*
X021453Y031338D01*
X020943Y031338D01*
X021043Y031338D02*
X021453Y031338D01*
X021453Y031339D02*
X021453Y031748D01*
X021283Y031748D01*
X021043Y031508D01*
X021043Y031338D01*
X021203Y031338D02*
X021203Y031338D01*
X021453Y031339D02*
X021453Y031339D01*
X021453Y031748D01*
X021623Y031748D01*
X021863Y031508D01*
X021863Y031338D01*
X021454Y031338D01*
X021703Y031338D02*
X021703Y031338D01*
X021703Y031008D02*
X021703Y029008D01*
X021256Y028838D02*
X021151Y028838D01*
X021203Y028828D02*
X021203Y031008D01*
X020943Y031135D02*
X020656Y030848D01*
X020250Y030848D01*
X019963Y031135D01*
X019963Y031541D01*
X020250Y031828D01*
X020656Y031828D01*
X020943Y031541D01*
X020943Y031135D01*
X020703Y030895D02*
X020703Y029008D01*
X020269Y029338D02*
X023133Y029338D01*
X023133Y029838D02*
X012769Y029838D01*
X012703Y029904D02*
X012703Y032058D01*
X012203Y032058D02*
X012203Y030404D01*
X012269Y030338D02*
X018926Y030338D01*
X018918Y030357D02*
X019000Y030160D01*
X019150Y030009D01*
X019347Y029928D01*
X019560Y029928D01*
X019756Y030009D01*
X019907Y030160D01*
X019989Y030357D01*
X019989Y030570D01*
X019907Y030766D01*
X019756Y030917D01*
X019560Y030999D01*
X019347Y030999D01*
X019150Y030917D01*
X019000Y030766D01*
X018918Y030570D01*
X018918Y030357D01*
X019203Y029987D02*
X019203Y029738D01*
X018703Y029738D02*
X018703Y030895D01*
X018656Y030848D02*
X018943Y031135D01*
X018943Y031541D01*
X018656Y031828D01*
X018250Y031828D01*
X017963Y031541D01*
X017963Y031135D01*
X018250Y030848D01*
X018656Y030848D01*
X019071Y030838D02*
X011769Y030838D01*
X011703Y030904D02*
X011703Y032058D01*
X011203Y032058D02*
X011203Y031404D01*
X011269Y031338D02*
X012963Y031338D01*
X012963Y031541D02*
X012963Y031135D01*
X013250Y030848D01*
X013656Y030848D01*
X013943Y031135D01*
X013943Y031541D01*
X013656Y031828D01*
X013250Y031828D01*
X012963Y031541D01*
X013203Y031781D02*
X013203Y032058D01*
X013703Y032058D02*
X013703Y031781D01*
X013963Y031541D02*
X013963Y031135D01*
X014250Y030848D01*
X014656Y030848D01*
X014943Y031135D01*
X014943Y031541D01*
X014656Y031828D01*
X014250Y031828D01*
X013963Y031541D01*
X013943Y031338D02*
X013963Y031338D01*
X014203Y031781D02*
X014203Y032058D01*
X014703Y032058D02*
X014703Y031781D01*
X014963Y031541D02*
X014963Y031135D01*
X015250Y030848D01*
X015656Y030848D01*
X015943Y031135D01*
X015943Y031541D01*
X015656Y031828D01*
X015250Y031828D01*
X014963Y031541D01*
X014943Y031338D02*
X014963Y031338D01*
X015203Y031781D02*
X015203Y032058D01*
X015703Y032058D02*
X015703Y031781D01*
X015963Y031541D02*
X015963Y031135D01*
X016250Y030848D01*
X016656Y030848D01*
X016943Y031135D01*
X016943Y031541D01*
X016656Y031828D01*
X016250Y031828D01*
X015963Y031541D01*
X015943Y031338D02*
X015963Y031338D01*
X016203Y031781D02*
X016203Y032058D01*
X016703Y032058D02*
X016703Y031781D01*
X016963Y031541D02*
X016963Y031135D01*
X017250Y030848D01*
X017656Y030848D01*
X017943Y031135D01*
X017943Y031541D01*
X017656Y031828D01*
X017250Y031828D01*
X016963Y031541D01*
X016943Y031338D02*
X016963Y031338D01*
X017203Y031781D02*
X017203Y032058D01*
X017703Y032058D02*
X017703Y031781D01*
X018203Y031781D02*
X018203Y032058D01*
X018703Y032058D02*
X018703Y031781D01*
X018943Y031338D02*
X019963Y031338D01*
X019703Y030939D02*
X019703Y032058D01*
X020203Y032058D02*
X020203Y031781D01*
X020703Y031781D02*
X020703Y032058D01*
X021203Y032058D02*
X021203Y031668D01*
X021703Y031668D02*
X021703Y032058D01*
X022203Y032058D02*
X022203Y031668D01*
X022283Y031748D02*
X022043Y031508D01*
X022043Y031338D01*
X022453Y031338D01*
X022453Y031339D02*
X022453Y031748D01*
X022283Y031748D01*
X022453Y031748D02*
X022453Y031339D01*
X022453Y031339D01*
X022454Y031338D02*
X022863Y031338D01*
X022863Y031508D01*
X022623Y031748D01*
X022453Y031748D01*
X022703Y031668D02*
X022703Y032058D01*
X023203Y032058D02*
X023203Y031781D01*
X023703Y031781D02*
X023703Y032058D01*
X024203Y032058D02*
X024203Y031781D01*
X024250Y031828D02*
X023963Y031541D01*
X023963Y031135D01*
X024250Y030848D01*
X024656Y030848D01*
X024943Y031135D01*
X024943Y031541D01*
X024656Y031828D01*
X024250Y031828D01*
X024703Y031781D02*
X024703Y032058D01*
X025203Y032058D02*
X025203Y031781D01*
X025703Y031781D02*
X025703Y032058D01*
X026203Y032058D02*
X026203Y029786D01*
X026256Y029838D02*
X025523Y029838D01*
X025703Y030136D02*
X025703Y028908D01*
X025523Y029338D02*
X026033Y029338D01*
X025203Y030088D02*
X025453Y030338D01*
X025453Y031338D01*
X024963Y031338D02*
X024943Y031338D01*
X024703Y030895D02*
X024703Y028908D01*
X024421Y028838D02*
X023986Y028838D01*
X024203Y028828D02*
X024203Y030895D01*
X023773Y030838D02*
X025133Y030838D01*
X025001Y030338D02*
X023773Y030338D01*
X023133Y030338D02*
X019981Y030338D01*
X019703Y029987D02*
X019703Y029738D01*
X020203Y029404D02*
X020203Y030895D01*
X019835Y030838D02*
X023133Y030838D01*
X022703Y031008D02*
X022703Y028908D01*
X022421Y028838D02*
X022151Y028838D01*
X022203Y028828D02*
X022203Y031008D01*
X022203Y031338D02*
X022203Y031338D01*
X022703Y031338D02*
X022703Y031338D01*
X023943Y031338D02*
X023963Y031338D01*
X025203Y030088D02*
X025203Y020713D01*
X025453Y020463D01*
X025453Y020088D01*
X025091Y020373D02*
X025022Y020442D01*
X024932Y020532D01*
X024883Y020650D01*
X024883Y021796D01*
X024817Y021768D01*
X024590Y021768D01*
X024380Y021855D01*
X024220Y022015D01*
X024133Y022225D01*
X024133Y022452D01*
X024220Y022661D01*
X024380Y022821D01*
X024421Y022838D01*
X024380Y022855D01*
X024220Y023015D01*
X024203Y023056D01*
X024203Y022621D01*
X024133Y022338D02*
X023523Y022338D01*
X023523Y021838D02*
X024421Y021838D01*
X024703Y021768D02*
X024703Y020041D01*
X024906Y019838D02*
X025061Y019838D01*
X024906Y019838D01*
X024183Y020561D01*
X024183Y020787D01*
X023902Y021068D01*
X023504Y021068D01*
X023223Y020787D01*
X023223Y020389D01*
X023504Y020108D01*
X023731Y020108D01*
X024001Y019838D01*
X019406Y019838D01*
X019676Y020108D01*
X019902Y020108D01*
X020062Y020268D01*
X022390Y020268D01*
X022517Y020268D01*
X022635Y020317D01*
X023385Y021067D01*
X023475Y021157D01*
X023523Y021275D01*
X023523Y022796D01*
X023590Y022768D01*
X023817Y022768D01*
X024026Y022855D01*
X024186Y023015D01*
X024203Y023056D01*
X023986Y022838D02*
X024421Y022838D01*
X023703Y022768D02*
X023703Y021068D01*
X023385Y021067D02*
X023385Y021067D01*
X023275Y020838D02*
X023156Y020838D01*
X023203Y020886D02*
X023203Y019838D01*
X022703Y019838D02*
X022703Y020386D01*
X022656Y020338D02*
X023274Y020338D01*
X023703Y020108D02*
X023703Y019838D01*
X024001Y019838D02*
X019406Y019838D01*
X019703Y019838D02*
X019703Y020108D01*
X020203Y020268D02*
X020203Y019838D01*
X020703Y019838D02*
X020703Y020268D01*
X021203Y020268D02*
X021203Y019838D01*
X021703Y019838D02*
X021703Y020268D01*
X022203Y020268D02*
X022203Y019838D01*
X022203Y019338D02*
X022203Y018994D01*
X022225Y018985D02*
X022049Y019058D01*
X021858Y019058D01*
X021681Y018985D01*
X021546Y018850D01*
X021473Y018674D01*
X021473Y018003D01*
X021546Y017826D01*
X021633Y017739D01*
X021633Y017652D01*
X021633Y017525D01*
X021682Y017407D01*
X021897Y017192D01*
X021932Y017157D01*
X021932Y017157D01*
X022022Y017067D01*
X022140Y017018D01*
X025625Y017018D01*
X025694Y016950D01*
X025862Y016880D01*
X026044Y016880D01*
X026213Y016950D01*
X026342Y017079D01*
X026411Y017247D01*
X026411Y017429D01*
X026342Y017598D01*
X026237Y017703D01*
X026360Y017826D01*
X026433Y018003D01*
X026433Y018674D01*
X026360Y018850D01*
X026273Y018937D01*
X026273Y019338D01*
X026728Y019338D01*
X026728Y019323D01*
X027168Y019323D01*
X027168Y019253D01*
X026728Y019253D01*
X026728Y019037D01*
X026739Y018996D01*
X026760Y018960D01*
X026790Y018930D01*
X026827Y018909D01*
X026867Y018898D01*
X027168Y018898D01*
X027168Y019253D01*
X027238Y019253D01*
X027238Y018898D01*
X027539Y018898D01*
X027580Y018909D01*
X027617Y018930D01*
X027646Y018960D01*
X027667Y018996D01*
X027678Y019037D01*
X027678Y019253D01*
X027239Y019253D01*
X027239Y019323D01*
X027678Y019323D01*
X027678Y019338D01*
X027203Y019253D02*
X027203Y017791D01*
X027251Y017838D02*
X026365Y017838D01*
X026411Y017338D02*
X026751Y017338D01*
X026703Y017291D02*
X026703Y019338D01*
X026365Y018838D02*
X028453Y018838D01*
X028053Y018838D01*
X028053Y018673D01*
X028089Y018637D01*
X028022Y018609D01*
X026196Y016783D01*
X021961Y016783D01*
X021911Y016833D01*
X021911Y016929D01*
X021842Y017098D01*
X021713Y017227D01*
X021544Y017296D01*
X021362Y017296D01*
X021194Y017227D01*
X021125Y017158D01*
X020586Y017158D01*
X020273Y017471D01*
X020273Y017739D01*
X020360Y017826D01*
X020433Y018003D01*
X020433Y018674D01*
X020360Y018850D01*
X020225Y018985D01*
X020049Y019058D01*
X019858Y019058D01*
X019681Y018985D01*
X019546Y018850D01*
X019473Y018674D01*
X019473Y018003D01*
X019546Y017826D01*
X019633Y017739D01*
X019633Y017402D01*
X019633Y017275D01*
X019682Y017157D01*
X020182Y016657D01*
X020272Y016567D01*
X020390Y016518D01*
X021125Y016518D01*
X021173Y016471D01*
X019648Y016471D01*
X019273Y016846D01*
X019273Y017739D01*
X019360Y017826D01*
X019433Y018003D01*
X019433Y018674D01*
X019360Y018850D01*
X019273Y018937D01*
X019273Y019338D01*
X024501Y019338D01*
X024633Y019206D01*
X024633Y018937D01*
X024546Y018850D01*
X024473Y018674D01*
X024473Y018003D01*
X024546Y017826D01*
X024681Y017691D01*
X024761Y017658D01*
X024145Y017658D01*
X024225Y017691D01*
X024360Y017826D01*
X024433Y018003D01*
X024433Y018674D01*
X024360Y018850D01*
X024225Y018985D01*
X024049Y019058D01*
X023858Y019058D01*
X023681Y018985D01*
X023546Y018850D01*
X023473Y018674D01*
X023473Y018003D01*
X023546Y017826D01*
X023681Y017691D01*
X023761Y017658D01*
X023145Y017658D01*
X023225Y017691D01*
X023360Y017826D01*
X023433Y018003D01*
X023433Y018674D01*
X023360Y018850D01*
X023225Y018985D01*
X023049Y019058D01*
X022858Y019058D01*
X022681Y018985D01*
X022546Y018850D01*
X022473Y018674D01*
X022473Y018003D01*
X022546Y017826D01*
X022681Y017691D01*
X022761Y017658D01*
X022336Y017658D01*
X022273Y017721D01*
X022273Y017739D01*
X022360Y017826D01*
X022433Y018003D01*
X022433Y018674D01*
X022360Y018850D01*
X022225Y018985D01*
X022365Y018838D02*
X022541Y018838D01*
X022703Y018994D02*
X022703Y019338D01*
X023203Y019338D02*
X023203Y018994D01*
X023365Y018838D02*
X023541Y018838D01*
X023703Y018994D02*
X023703Y019338D01*
X024203Y019338D02*
X024203Y018994D01*
X024365Y018838D02*
X024541Y018838D01*
X024953Y018338D02*
X024953Y019338D01*
X023703Y020588D01*
X024132Y020838D02*
X024883Y020838D01*
X024883Y021338D02*
X023523Y021338D01*
X022883Y021471D02*
X022321Y020908D01*
X020062Y020908D01*
X019902Y021068D01*
X019504Y021068D01*
X019223Y020787D01*
X019223Y020561D01*
X018682Y020020D01*
X018633Y019902D01*
X018633Y019838D01*
X000983Y019838D01*
X000983Y020338D02*
X019001Y020338D01*
X019203Y020541D02*
X019203Y021891D01*
X019151Y021838D02*
X022883Y021838D01*
X022883Y021471D02*
X022883Y022796D01*
X022817Y022768D01*
X022590Y022768D01*
X022380Y022855D01*
X022273Y022963D01*
X022271Y022959D01*
X022083Y022770D01*
X021837Y022668D01*
X021570Y022668D01*
X021324Y022770D01*
X021203Y022891D01*
X021083Y022770D01*
X020837Y022668D01*
X020570Y022668D01*
X020324Y022770D01*
X020203Y022891D01*
X020083Y022770D01*
X019837Y022668D01*
X019570Y022668D01*
X019324Y022770D01*
X019203Y022891D01*
X019151Y022838D01*
X019256Y022838D01*
X019203Y022786D02*
X019203Y022891D01*
X019151Y022838D02*
X019271Y022718D01*
X019373Y022472D01*
X019373Y022205D01*
X019271Y021959D01*
X019083Y021770D01*
X018837Y021668D01*
X018570Y021668D01*
X018324Y021770D01*
X018203Y021891D01*
X018203Y021786D01*
X018151Y021838D02*
X018256Y021838D01*
X018203Y021891D02*
X018151Y021838D01*
X018271Y021718D01*
X018373Y021472D01*
X018373Y021205D01*
X018271Y020959D01*
X018083Y020770D01*
X017837Y020668D01*
X017570Y020668D01*
X017324Y020770D01*
X017203Y020891D01*
X017203Y015338D01*
X016703Y015338D02*
X016703Y020668D01*
X016570Y020668D02*
X016837Y020668D01*
X017083Y020770D01*
X017203Y020891D01*
X017151Y020838D02*
X017256Y020838D01*
X017703Y020668D02*
X017703Y015338D01*
X017751Y015338D02*
X000983Y015338D01*
X000983Y030338D01*
X001064Y030838D02*
X002256Y030838D01*
X002203Y030786D02*
X002203Y030891D01*
X002033Y031338D02*
X001315Y031338D01*
X001247Y031253D02*
X001487Y031554D01*
X001788Y031795D01*
X002135Y031962D01*
X002511Y032047D01*
X002703Y032058D01*
X002748Y032058D01*
X002759Y032058D01*
X043203Y032058D01*
X043203Y019838D01*
X042703Y019838D02*
X042703Y032058D01*
X042203Y032058D02*
X042203Y019838D01*
X041703Y019838D02*
X041703Y032058D01*
X041203Y032058D02*
X041203Y031786D01*
X041151Y031838D02*
X044028Y031838D01*
X044118Y031795D02*
X044420Y031554D01*
X044660Y031253D01*
X044203Y031727D02*
X044203Y019838D01*
X043703Y019838D02*
X043703Y031977D01*
X043771Y031962D02*
X044118Y031795D01*
X043771Y031962D02*
X043396Y032047D01*
X043203Y032058D01*
X044923Y030338D02*
X044923Y030304D01*
X044923Y030283D01*
X044923Y019838D01*
X027678Y019838D01*
X027703Y019838D02*
X027703Y021668D01*
X027570Y021668D02*
X027837Y021668D01*
X028083Y021770D01*
X028203Y021891D01*
X028324Y021770D01*
X028570Y021668D01*
X028837Y021668D01*
X029083Y021770D01*
X029203Y021891D01*
X029203Y019838D01*
X028703Y019838D02*
X028703Y021668D01*
X028256Y021838D02*
X028151Y021838D01*
X028203Y021891D02*
X028203Y019838D01*
X028203Y019338D02*
X028203Y019154D01*
X028288Y019238D02*
X028053Y019004D01*
X028053Y018838D01*
X028453Y018838D01*
X028453Y018838D01*
X028453Y018839D02*
X028453Y019238D01*
X028288Y019238D01*
X028453Y019238D02*
X028453Y018839D01*
X028453Y018839D01*
X028454Y018838D02*
X028853Y018838D01*
X028853Y019004D01*
X028619Y019238D01*
X028453Y019238D01*
X028703Y019154D02*
X028703Y019338D01*
X028703Y018838D02*
X028703Y018838D01*
X028203Y018838D02*
X028203Y018838D01*
X028203Y018338D02*
X026328Y016463D01*
X021828Y016463D01*
X021453Y016838D01*
X020453Y016838D01*
X019953Y017338D01*
X019953Y018338D01*
X019473Y018338D02*
X019433Y018338D01*
X019365Y017838D02*
X019541Y017838D01*
X019633Y017338D02*
X019273Y017338D01*
X019703Y017136D02*
X019703Y016471D01*
X020001Y016838D02*
X019281Y016838D01*
X018876Y016338D02*
X018703Y016338D01*
X018772Y016442D02*
X018772Y016442D01*
X018703Y016511D02*
X018703Y015994D01*
X019203Y015994D02*
X019203Y016011D01*
X019365Y015838D02*
X019434Y015838D01*
X019433Y015338D02*
X019473Y015338D01*
X019541Y014838D02*
X019365Y014838D01*
X019203Y014682D02*
X019203Y012781D01*
X019250Y012828D02*
X018963Y012541D01*
X018963Y012135D01*
X019250Y011848D01*
X019656Y011848D01*
X019943Y012135D01*
X019943Y012541D01*
X019656Y012828D01*
X019250Y012828D01*
X018943Y012541D02*
X018656Y012828D01*
X018250Y012828D01*
X017963Y012541D01*
X017963Y012135D01*
X018250Y011848D01*
X018656Y011848D01*
X018943Y012135D01*
X018943Y012541D01*
X018943Y012338D02*
X018963Y012338D01*
X019203Y011895D02*
X019203Y010908D01*
X018703Y010908D02*
X018703Y011895D01*
X018203Y011895D02*
X018203Y010908D01*
X017703Y010908D02*
X017703Y011895D01*
X017656Y011848D02*
X017943Y012135D01*
X017943Y012541D01*
X017656Y012828D01*
X017250Y012828D01*
X016963Y012541D01*
X016963Y012135D01*
X017250Y011848D01*
X017656Y011848D01*
X017203Y011895D02*
X017203Y011617D01*
X017433Y011338D02*
X020473Y011338D01*
X020703Y011617D02*
X020703Y011895D01*
X021151Y011838D02*
X014773Y011838D01*
X014963Y012135D02*
X015250Y011848D01*
X015656Y011848D01*
X015943Y012135D01*
X015943Y012541D01*
X015656Y012828D01*
X015250Y012828D01*
X014963Y012541D01*
X014963Y012135D01*
X014943Y012338D02*
X014963Y012338D01*
X015203Y011895D02*
X015203Y010908D01*
X014953Y010588D02*
X024328Y010588D01*
X025453Y009463D01*
X033078Y009463D01*
X035703Y012088D01*
X036953Y012088D01*
X037453Y012588D01*
X037453Y013838D01*
X036453Y013838D02*
X034953Y013838D01*
X034473Y013838D02*
X033433Y013838D01*
X033433Y013639D02*
X033433Y014037D01*
X033152Y014318D01*
X032754Y014318D01*
X032473Y014037D01*
X032473Y013639D01*
X032704Y013408D01*
X031336Y013408D01*
X029725Y015020D01*
X029635Y015110D01*
X029568Y015137D01*
X029603Y015173D01*
X029603Y015338D01*
X029204Y015338D01*
X029204Y015338D01*
X032126Y015338D01*
X032203Y015261D02*
X032203Y013408D01*
X031703Y013408D02*
X031703Y015761D01*
X031626Y015838D02*
X030710Y015838D01*
X030703Y015831D02*
X030703Y014041D01*
X030906Y013838D02*
X032473Y013838D01*
X032703Y014267D02*
X032703Y014794D01*
X032647Y014817D02*
X032765Y014768D01*
X032892Y014768D01*
X036211Y014768D01*
X036108Y014725D01*
X035936Y014554D01*
X035843Y014330D01*
X035843Y014158D01*
X035312Y014158D01*
X035152Y014318D01*
X034754Y014318D01*
X034473Y014037D01*
X034473Y013639D01*
X034754Y013358D01*
X035152Y013358D01*
X035312Y013518D01*
X035843Y013518D01*
X035843Y013347D01*
X035936Y013123D01*
X036108Y012951D01*
X036332Y012858D01*
X036575Y012858D01*
X036799Y012951D01*
X036953Y013106D01*
X037108Y012951D01*
X037133Y012941D01*
X037133Y012721D01*
X036821Y012408D01*
X035767Y012408D01*
X035640Y012408D01*
X035522Y012360D01*
X035433Y012271D01*
X035433Y012537D01*
X035152Y012818D01*
X034926Y012818D01*
X034475Y013270D01*
X034385Y013360D01*
X034267Y013408D01*
X033202Y013408D01*
X033433Y013639D01*
X033203Y013408D02*
X033203Y013409D01*
X032703Y013408D02*
X032703Y013409D01*
X032953Y013838D02*
X032953Y013838D01*
X033203Y014267D02*
X033203Y014768D01*
X032828Y015088D02*
X030578Y017338D01*
X028953Y017338D01*
X028704Y017135D02*
X028772Y017067D01*
X028890Y017018D01*
X028909Y017018D01*
X029017Y017018D01*
X030220Y017018D01*
X030379Y016858D01*
X030606Y016858D01*
X032647Y014817D01*
X032626Y014838D02*
X029906Y014838D01*
X029703Y015041D02*
X029703Y017018D01*
X030025Y016667D02*
X029875Y016516D01*
X029793Y016320D01*
X029793Y016107D01*
X029875Y015910D01*
X030025Y015759D01*
X030222Y015678D01*
X030435Y015678D01*
X030631Y015759D01*
X030782Y015910D01*
X030864Y016107D01*
X030864Y016320D01*
X030782Y016516D01*
X030631Y016667D01*
X030435Y016749D01*
X030222Y016749D01*
X030025Y016667D01*
X030203Y016741D02*
X030203Y017018D01*
X030626Y016838D02*
X027906Y016838D01*
X027703Y016636D02*
X027703Y015158D01*
X027203Y015158D02*
X027203Y016136D01*
X027406Y016338D02*
X029801Y016338D01*
X029946Y015838D02*
X026848Y015838D01*
X026830Y015831D02*
X026947Y015879D01*
X028426Y017358D01*
X028481Y017358D01*
X028682Y017157D01*
X028682Y017157D01*
X028704Y017135D01*
X028703Y017136D02*
X028703Y015158D01*
X028803Y015173D02*
X028818Y015158D01*
X026433Y015158D01*
X026433Y015674D01*
X026368Y015831D01*
X026702Y015831D01*
X026830Y015831D01*
X026703Y015831D02*
X026703Y015158D01*
X026433Y015338D02*
X029203Y015338D01*
X028803Y015338D01*
X028803Y015173D01*
X028803Y015338D02*
X029203Y015338D01*
X029203Y015338D01*
X029203Y015339D02*
X029203Y015738D01*
X029038Y015738D01*
X028803Y015504D01*
X028803Y015338D01*
X029203Y015339D02*
X029203Y015339D01*
X029203Y017018D01*
X028890Y017018D02*
X028890Y017018D01*
X028501Y017338D02*
X028406Y017338D01*
X028203Y017136D02*
X028203Y015158D01*
X028203Y014518D02*
X028203Y012828D01*
X028000Y012828D02*
X027713Y012541D01*
X027713Y012135D01*
X028000Y011848D01*
X028406Y011848D01*
X028693Y012135D01*
X028693Y012541D01*
X028406Y012828D01*
X028000Y012828D01*
X027693Y012541D02*
X027406Y012828D01*
X027000Y012828D01*
X026713Y012541D01*
X026713Y012135D01*
X027000Y011848D01*
X027406Y011848D01*
X027693Y012135D01*
X027693Y012541D01*
X027693Y012338D02*
X027713Y012338D01*
X028203Y011848D02*
X028203Y009783D01*
X027703Y009783D02*
X027703Y014518D01*
X027203Y014518D02*
X027203Y012828D01*
X026693Y012541D02*
X026523Y012711D01*
X026523Y013706D01*
X026698Y013880D01*
X026794Y013880D01*
X026963Y013950D01*
X027092Y014079D01*
X027161Y014247D01*
X027161Y014429D01*
X027125Y014518D01*
X029321Y014518D01*
X031022Y012817D01*
X031140Y012768D01*
X031267Y012768D01*
X034071Y012768D01*
X034473Y012366D01*
X034473Y012139D01*
X034754Y011858D01*
X035021Y011858D01*
X032946Y009783D01*
X032327Y009783D01*
X032433Y009889D01*
X032433Y010287D01*
X032152Y010568D01*
X031754Y010568D01*
X031473Y010287D01*
X031473Y009889D01*
X031580Y009783D01*
X031214Y009783D01*
X031353Y009923D01*
X031353Y010088D01*
X030954Y010088D01*
X030954Y010088D01*
X031353Y010088D01*
X031353Y010254D01*
X031119Y010488D01*
X030953Y010488D01*
X030788Y010488D01*
X030553Y010254D01*
X030553Y010088D01*
X030553Y009923D01*
X030693Y009783D01*
X027327Y009783D01*
X027433Y009889D01*
X027433Y010287D01*
X027313Y010407D01*
X027313Y010894D01*
X027433Y011014D01*
X027433Y011412D01*
X027152Y011693D01*
X026754Y011693D01*
X026473Y011412D01*
X026473Y011014D01*
X026593Y010894D01*
X026593Y010407D01*
X026473Y010287D01*
X026473Y009889D01*
X026580Y009783D01*
X026214Y009783D01*
X026353Y009923D01*
X026353Y010088D01*
X025954Y010088D01*
X025954Y010088D01*
X026353Y010088D01*
X026353Y010254D01*
X026119Y010488D01*
X025953Y010488D01*
X025788Y010488D01*
X025553Y010254D01*
X025553Y010088D01*
X025553Y009923D01*
X025693Y009783D01*
X025586Y009783D01*
X024510Y010860D01*
X024488Y010868D01*
X025595Y010868D01*
X025754Y010708D01*
X026152Y010708D01*
X026433Y010989D01*
X026433Y011387D01*
X026152Y011668D01*
X025754Y011668D01*
X025595Y011508D01*
X023186Y011508D01*
X023023Y011671D01*
X023023Y011848D01*
X023406Y011848D01*
X023693Y012135D01*
X023693Y012541D01*
X023406Y012828D01*
X023023Y012828D01*
X023023Y013229D01*
X023183Y013389D01*
X023183Y013787D01*
X023023Y013947D01*
X023023Y014206D01*
X023225Y014407D01*
X023273Y014525D01*
X023273Y014652D01*
X023273Y014739D01*
X023360Y014826D01*
X023433Y015003D01*
X023433Y015674D01*
X023368Y015831D01*
X023538Y015831D01*
X023473Y015674D01*
X023473Y015003D01*
X023546Y014826D01*
X023681Y014691D01*
X023858Y014618D01*
X024049Y014618D01*
X024225Y014691D01*
X024360Y014826D01*
X024433Y015003D01*
X024433Y015674D01*
X024368Y015831D01*
X024538Y015831D01*
X024473Y015674D01*
X024473Y015003D01*
X024546Y014826D01*
X024633Y014739D01*
X024633Y014652D01*
X024633Y014525D01*
X024682Y014407D01*
X024932Y014157D01*
X025022Y014067D01*
X025048Y014056D01*
X024995Y013929D01*
X024995Y013747D01*
X025043Y013631D01*
X024241Y012828D01*
X024000Y012828D01*
X023713Y012541D01*
X023713Y012135D01*
X024000Y011848D01*
X024406Y011848D01*
X024693Y012135D01*
X024693Y012376D01*
X024713Y012396D01*
X024713Y012135D01*
X025000Y011848D01*
X025406Y011848D01*
X025693Y012135D01*
X025693Y012541D01*
X025406Y012828D01*
X025146Y012828D01*
X025635Y013317D01*
X025725Y013407D01*
X025763Y013500D01*
X025842Y013579D01*
X025883Y013679D01*
X025883Y012711D01*
X025713Y012541D01*
X025713Y012135D01*
X026000Y011848D01*
X026406Y011848D01*
X026693Y012135D01*
X026693Y012541D01*
X026693Y012338D02*
X026713Y012338D01*
X026203Y012338D02*
X026203Y013838D01*
X026703Y014338D01*
X026703Y013880D02*
X026703Y011642D01*
X026473Y011338D02*
X026433Y011338D01*
X026203Y011617D02*
X026203Y011848D01*
X025703Y011617D02*
X025703Y013386D01*
X025656Y013338D02*
X025883Y013338D01*
X025453Y013588D02*
X025453Y013838D01*
X025453Y013588D02*
X024203Y012338D01*
X023713Y012338D02*
X023693Y012338D01*
X023203Y011848D02*
X023203Y011508D01*
X023053Y011188D02*
X022703Y011538D01*
X022703Y013588D01*
X022703Y014338D01*
X022953Y014588D01*
X022953Y015338D01*
X023433Y015338D02*
X023473Y015338D01*
X023541Y014838D02*
X023365Y014838D01*
X023703Y014682D02*
X023703Y011508D01*
X024203Y011508D02*
X024203Y011848D01*
X024703Y011508D02*
X024703Y012386D01*
X024693Y012338D02*
X024713Y012338D01*
X025203Y011848D02*
X025203Y011508D01*
X025203Y010868D02*
X025203Y010166D01*
X025031Y010338D02*
X025638Y010338D01*
X025703Y010404D02*
X025703Y010759D01*
X025624Y010838D02*
X024531Y010838D01*
X024703Y010868D02*
X024703Y010666D01*
X025553Y010088D02*
X025953Y010088D01*
X025553Y010088D01*
X025703Y010088D02*
X025703Y010088D01*
X025953Y010088D02*
X025953Y010088D01*
X025953Y010089D02*
X025953Y010488D01*
X025953Y010089D01*
X025953Y010089D01*
X025953Y010338D02*
X025953Y010338D01*
X026203Y010404D02*
X026203Y010759D01*
X026282Y010838D02*
X026593Y010838D01*
X026525Y010338D02*
X026269Y010338D01*
X026203Y010088D02*
X026203Y010088D01*
X026269Y009838D02*
X026524Y009838D01*
X025638Y009838D02*
X025531Y009838D01*
X024453Y009463D02*
X014328Y009463D01*
X013453Y010338D01*
X013453Y012338D01*
X012963Y012338D02*
X012382Y012338D01*
X012433Y012287D02*
X012152Y012568D01*
X011754Y012568D01*
X011473Y012287D01*
X011473Y011889D01*
X011743Y011620D01*
X011473Y011350D01*
X011473Y010952D01*
X011633Y010792D01*
X011633Y010447D01*
X011473Y010287D01*
X011473Y009889D01*
X011633Y009729D01*
X011633Y009197D01*
X011473Y009037D01*
X011473Y008639D01*
X011754Y008358D01*
X011981Y008358D01*
X012461Y007878D01*
X012461Y007639D01*
X012742Y007358D01*
X013140Y007358D01*
X013421Y007639D01*
X013421Y008037D01*
X013140Y008318D01*
X012926Y008318D01*
X012433Y008811D01*
X012433Y009037D01*
X012273Y009197D01*
X012273Y009729D01*
X012433Y009889D01*
X012433Y010287D01*
X012273Y010447D01*
X012273Y010792D01*
X012433Y010952D01*
X012433Y011350D01*
X012163Y011619D01*
X012433Y011889D01*
X012433Y012287D01*
X012203Y012517D02*
X012203Y013018D01*
X011703Y013018D02*
X011703Y012517D01*
X011525Y012338D02*
X010406Y012338D01*
X010308Y012436D02*
X010308Y012662D01*
X010027Y012943D01*
X009629Y012943D01*
X009348Y012662D01*
X009348Y012264D01*
X009629Y011983D01*
X009856Y011983D01*
X010473Y011366D01*
X010473Y011139D01*
X010754Y010858D01*
X011152Y010858D01*
X011433Y011139D01*
X011433Y011537D01*
X011152Y011818D01*
X010926Y011818D01*
X010308Y012436D01*
X010203Y012767D02*
X010203Y013018D01*
X010132Y012838D02*
X020251Y012838D01*
X020203Y012886D02*
X020203Y012781D01*
X020453Y013088D02*
X021203Y013088D01*
X021578Y012713D01*
X021578Y011813D01*
X020953Y011188D01*
X020203Y010908D02*
X020203Y011895D01*
X019703Y011895D02*
X019703Y010908D01*
X019703Y010268D02*
X019703Y009783D01*
X020203Y009783D02*
X020203Y010268D01*
X020553Y010254D02*
X020568Y010268D01*
X017433Y010268D01*
X017433Y009889D01*
X017327Y009783D01*
X020693Y009783D01*
X020553Y009923D01*
X020553Y010088D01*
X020953Y010088D01*
X020953Y010088D01*
X020553Y010088D01*
X020553Y010254D01*
X020703Y010088D02*
X020703Y010088D01*
X020954Y010088D02*
X021353Y010088D01*
X020954Y010088D01*
X020954Y010088D01*
X021203Y010088D02*
X021203Y010088D01*
X021353Y010088D02*
X021353Y010254D01*
X021339Y010268D01*
X021473Y010268D01*
X021473Y009889D01*
X021580Y009783D01*
X021214Y009783D01*
X021353Y009923D01*
X021353Y010088D01*
X021269Y009838D02*
X021524Y009838D01*
X020638Y009838D02*
X017382Y009838D01*
X017703Y009783D02*
X017703Y010268D01*
X018203Y010268D02*
X018203Y009783D01*
X018703Y009783D02*
X018703Y010268D01*
X019203Y010268D02*
X019203Y009783D01*
X019203Y009143D02*
X019203Y002971D01*
X019101Y002838D02*
X018966Y002838D01*
X018703Y002890D02*
X018703Y009143D01*
X018203Y009143D02*
X018203Y005568D01*
X018149Y005591D02*
X017878Y005591D01*
X017706Y005520D01*
X017706Y005594D01*
X017602Y005845D01*
X017410Y006037D01*
X017159Y006141D01*
X016888Y006141D01*
X016637Y006037D01*
X016445Y005845D01*
X016341Y005594D01*
X016341Y005322D01*
X016445Y005072D01*
X016637Y004880D01*
X016888Y004776D01*
X017159Y004776D01*
X017331Y004847D01*
X017331Y004772D01*
X017435Y004522D01*
X017627Y004330D01*
X017878Y004226D01*
X018149Y004226D01*
X018400Y004330D01*
X018592Y004522D01*
X018696Y004772D01*
X018696Y005044D01*
X018592Y005295D01*
X018400Y005487D01*
X018149Y005591D01*
X017703Y005600D02*
X017703Y007358D01*
X017504Y007358D02*
X017902Y007358D01*
X018183Y007639D01*
X018183Y008037D01*
X017902Y008318D01*
X017504Y008318D01*
X017223Y008037D01*
X017223Y007639D01*
X017504Y007358D01*
X017223Y007838D02*
X015421Y007838D01*
X015421Y007639D02*
X015421Y008037D01*
X015140Y008318D01*
X014742Y008318D01*
X014461Y008037D01*
X014461Y007639D01*
X014621Y007479D01*
X014621Y005664D01*
X014621Y005537D01*
X014670Y005419D01*
X014772Y005317D01*
X015563Y004526D01*
X015563Y004293D01*
X015201Y003931D01*
X015201Y003366D01*
X015601Y002966D01*
X016166Y002966D01*
X016566Y003366D01*
X016566Y003931D01*
X016203Y004293D01*
X016203Y006163D01*
X016356Y006316D02*
X015956Y005916D01*
X015391Y005916D01*
X015261Y006046D01*
X015261Y005733D01*
X016155Y004840D01*
X016203Y004722D01*
X016203Y004595D01*
X016203Y004293D01*
X016203Y004338D02*
X017618Y004338D01*
X017703Y004298D02*
X017703Y001618D01*
X017203Y001618D02*
X017203Y004794D01*
X017310Y004838D02*
X017331Y004838D01*
X016737Y004838D02*
X016155Y004838D01*
X015883Y004658D02*
X014953Y005588D01*
X014941Y005601D01*
X014941Y007838D01*
X014461Y007838D02*
X013421Y007838D01*
X013203Y007422D02*
X013203Y005568D01*
X013149Y005591D02*
X012878Y005591D01*
X012706Y005520D01*
X012706Y005594D01*
X012602Y005845D01*
X012410Y006037D01*
X012159Y006141D01*
X011888Y006141D01*
X011637Y006037D01*
X011445Y005845D01*
X011341Y005594D01*
X011341Y005322D01*
X011445Y005072D01*
X011637Y004880D01*
X011888Y004776D01*
X012159Y004776D01*
X012331Y004847D01*
X012331Y004772D01*
X012435Y004522D01*
X012627Y004330D01*
X012878Y004226D01*
X013149Y004226D01*
X013400Y004330D01*
X013592Y004522D01*
X013696Y004772D01*
X013696Y005044D01*
X013592Y005295D01*
X013400Y005487D01*
X013149Y005591D01*
X012703Y005600D02*
X012703Y007397D01*
X012941Y007838D02*
X012941Y007851D01*
X011953Y008838D01*
X011953Y010088D01*
X011953Y010088D01*
X011953Y011151D01*
X011587Y010838D02*
X007313Y010838D01*
X007313Y011019D02*
X007313Y010407D01*
X007433Y010287D01*
X007433Y009889D01*
X007152Y009608D01*
X006754Y009608D01*
X006473Y009889D01*
X006473Y010287D01*
X006593Y010407D01*
X006593Y011019D01*
X006473Y011139D01*
X006473Y011537D01*
X006754Y011818D01*
X007152Y011818D01*
X007433Y011537D01*
X007433Y011139D01*
X007313Y011019D01*
X007433Y011338D02*
X010473Y011338D01*
X010203Y011636D02*
X010203Y008267D01*
X010152Y008318D02*
X009754Y008318D01*
X009473Y008037D01*
X009473Y007639D01*
X009633Y007479D01*
X009633Y005652D01*
X009633Y005525D01*
X009682Y005407D01*
X010563Y004526D01*
X010563Y004293D01*
X010201Y003931D01*
X010201Y003366D01*
X010601Y002966D01*
X011166Y002966D01*
X011566Y003366D01*
X011566Y003931D01*
X011203Y004293D01*
X011203Y006163D01*
X011356Y006316D02*
X010956Y005916D01*
X010391Y005916D01*
X010273Y006033D01*
X010273Y005721D01*
X011155Y004840D01*
X011203Y004722D01*
X011203Y004595D01*
X011203Y004293D01*
X011203Y004338D02*
X012618Y004338D01*
X012703Y004298D02*
X012703Y001618D01*
X012203Y001618D02*
X012203Y004794D01*
X012310Y004838D02*
X012331Y004838D01*
X011737Y004838D02*
X011155Y004838D01*
X010883Y004658D02*
X009953Y005588D01*
X009953Y007838D01*
X009473Y007838D02*
X008433Y007838D01*
X008433Y007639D02*
X008152Y007358D01*
X007754Y007358D01*
X007473Y007639D01*
X007473Y008037D01*
X007754Y008318D01*
X008152Y008318D01*
X008433Y008037D01*
X008433Y007639D01*
X008203Y007409D02*
X008203Y005568D01*
X008149Y005591D02*
X007878Y005591D01*
X007706Y005520D01*
X007706Y005594D01*
X007602Y005845D01*
X007410Y006037D01*
X007159Y006141D01*
X006888Y006141D01*
X006637Y006037D01*
X006445Y005845D01*
X006341Y005594D01*
X006341Y005322D01*
X006445Y005072D01*
X006637Y004880D01*
X006888Y004776D01*
X007159Y004776D01*
X007331Y004847D01*
X007331Y004772D01*
X007435Y004522D01*
X007627Y004330D01*
X007878Y004226D01*
X008149Y004226D01*
X008400Y004330D01*
X008592Y004522D01*
X008696Y004772D01*
X008696Y005044D01*
X008592Y005295D01*
X008400Y005487D01*
X008149Y005591D01*
X007703Y005600D02*
X007703Y007409D01*
X007473Y007838D02*
X005433Y007838D01*
X005433Y007639D02*
X005433Y008037D01*
X005152Y008318D01*
X004754Y008318D01*
X004473Y008037D01*
X004473Y007639D01*
X004633Y007479D01*
X004633Y005652D01*
X004633Y005525D01*
X004682Y005407D01*
X005563Y004526D01*
X005563Y004293D01*
X005201Y003931D01*
X005201Y003366D01*
X005601Y002966D01*
X006166Y002966D01*
X006566Y003366D01*
X006566Y003931D01*
X006203Y004293D01*
X006203Y006163D01*
X006356Y006316D02*
X005956Y005916D01*
X005391Y005916D01*
X005273Y006033D01*
X005273Y005721D01*
X006155Y004840D01*
X006203Y004722D01*
X006203Y004595D01*
X006203Y004293D01*
X006203Y004338D02*
X007618Y004338D01*
X007703Y004298D02*
X007703Y001618D01*
X007203Y001618D02*
X007203Y004794D01*
X007310Y004838D02*
X007331Y004838D01*
X006737Y004838D02*
X006155Y004838D01*
X005883Y004658D02*
X004953Y005588D01*
X004953Y007838D01*
X004473Y007838D02*
X003433Y007838D01*
X003433Y007639D02*
X003152Y007358D01*
X002754Y007358D01*
X002473Y007639D01*
X002473Y008037D01*
X002754Y008318D01*
X003152Y008318D01*
X003433Y008037D01*
X003433Y007639D01*
X003203Y007409D02*
X003203Y005568D01*
X003149Y005591D02*
X002878Y005591D01*
X002706Y005520D01*
X002706Y005594D01*
X002602Y005845D01*
X002410Y006037D01*
X002159Y006141D01*
X001888Y006141D01*
X001637Y006037D01*
X001445Y005845D01*
X001341Y005594D01*
X001341Y005322D01*
X001445Y005072D01*
X001637Y004880D01*
X001888Y004776D01*
X002159Y004776D01*
X002331Y004847D01*
X002331Y004772D01*
X002435Y004522D01*
X002627Y004330D01*
X002878Y004226D01*
X003149Y004226D01*
X003400Y004330D01*
X003592Y004522D01*
X003696Y004772D01*
X003696Y005044D01*
X003592Y005295D01*
X003400Y005487D01*
X003149Y005591D01*
X002703Y005600D02*
X002703Y007409D01*
X002473Y007838D02*
X000983Y007838D01*
X000983Y007338D02*
X004633Y007338D01*
X005273Y007338D02*
X009633Y007338D01*
X010273Y007338D02*
X014621Y007338D01*
X014621Y006838D02*
X011356Y006838D01*
X011356Y006881D02*
X010956Y007281D01*
X010391Y007281D01*
X010273Y007163D01*
X010273Y007479D01*
X010433Y007639D01*
X010433Y008037D01*
X010152Y008318D01*
X009703Y008267D02*
X009703Y011983D01*
X010001Y011838D02*
X005906Y011838D01*
X005703Y012041D02*
X005703Y012886D01*
X005656Y012838D02*
X007638Y012838D01*
X007663Y012863D02*
X007428Y012629D01*
X007428Y012463D01*
X007428Y012298D01*
X007663Y012063D01*
X007828Y012063D01*
X007828Y012463D01*
X007428Y012463D01*
X007828Y012463D01*
X007828Y012463D01*
X007828Y012463D01*
X007828Y012063D01*
X007994Y012063D01*
X008228Y012298D01*
X008228Y012463D01*
X007829Y012463D01*
X007829Y012463D01*
X008228Y012463D01*
X008228Y012629D01*
X007994Y012863D01*
X007828Y012863D01*
X007663Y012863D01*
X007703Y012863D02*
X007703Y013018D01*
X007828Y012863D02*
X007828Y012464D01*
X007828Y012464D01*
X007828Y012863D01*
X007828Y012838D02*
X007828Y012838D01*
X008019Y012838D02*
X009525Y012838D01*
X009703Y012943D02*
X009703Y013018D01*
X009203Y013018D02*
X009203Y002971D01*
X009101Y002838D02*
X008966Y002838D01*
X008703Y002890D02*
X008703Y013018D01*
X008203Y013018D02*
X008203Y012654D01*
X008203Y012463D02*
X008203Y012463D01*
X008228Y012338D02*
X009348Y012338D01*
X009828Y012463D02*
X010953Y011338D01*
X011433Y011338D02*
X011473Y011338D01*
X011703Y011580D02*
X011703Y011659D01*
X011524Y011838D02*
X010906Y011838D01*
X010703Y012041D02*
X010703Y013018D01*
X011203Y013018D02*
X011203Y011767D01*
X011203Y010909D02*
X011203Y010404D01*
X011269Y010338D02*
X011525Y010338D01*
X011353Y010254D02*
X011353Y010088D01*
X010954Y010088D01*
X010954Y010088D01*
X011353Y010088D01*
X011353Y009923D01*
X011119Y009688D01*
X010953Y009688D01*
X010953Y010088D01*
X010553Y010088D01*
X010553Y009923D01*
X010788Y009688D01*
X010953Y009688D01*
X010953Y010088D01*
X010953Y010088D01*
X010953Y010088D01*
X010553Y010088D01*
X010553Y010254D01*
X010788Y010488D01*
X010953Y010488D01*
X010953Y010089D01*
X010953Y010089D01*
X010953Y010488D01*
X011119Y010488D01*
X011353Y010254D01*
X011203Y010088D02*
X011203Y010088D01*
X011269Y009838D02*
X011524Y009838D01*
X011203Y009773D02*
X011203Y009267D01*
X011152Y009318D02*
X010754Y009318D01*
X010473Y009037D01*
X010473Y008639D01*
X010754Y008358D01*
X011152Y008358D01*
X011433Y008639D01*
X011433Y009037D01*
X011152Y009318D01*
X010703Y009267D02*
X010703Y009773D01*
X010638Y009838D02*
X007382Y009838D01*
X007203Y009659D02*
X007203Y009267D01*
X007152Y009318D02*
X006754Y009318D01*
X006473Y009037D01*
X006473Y008639D01*
X006754Y008358D01*
X007152Y008358D01*
X007433Y008639D01*
X007433Y009037D01*
X007152Y009318D01*
X006703Y009267D02*
X006703Y009659D01*
X006524Y009838D02*
X006269Y009838D01*
X006203Y009773D02*
X006203Y009267D01*
X006152Y009318D02*
X005754Y009318D01*
X005473Y009037D01*
X005473Y008639D01*
X005754Y008358D01*
X006152Y008358D01*
X006433Y008639D01*
X006433Y009037D01*
X006152Y009318D01*
X006119Y009688D02*
X006353Y009923D01*
X006353Y010088D01*
X005954Y010088D01*
X005954Y010088D01*
X006353Y010088D01*
X006353Y010254D01*
X006119Y010488D01*
X005953Y010488D01*
X005788Y010488D01*
X005553Y010254D01*
X005553Y010088D01*
X005553Y009923D01*
X005788Y009688D01*
X005953Y009688D01*
X005953Y010088D01*
X005553Y010088D01*
X005953Y010088D01*
X005953Y010088D01*
X005953Y010088D01*
X005953Y009688D01*
X006119Y009688D01*
X005953Y009838D02*
X005953Y009838D01*
X005953Y010089D02*
X005953Y010488D01*
X005953Y010089D01*
X005953Y010089D01*
X005953Y010338D02*
X005953Y010338D01*
X005703Y010404D02*
X005703Y010909D01*
X005473Y011338D02*
X002433Y011338D01*
X002433Y011139D02*
X002152Y010858D01*
X001754Y010858D01*
X001473Y011139D01*
X001473Y011537D01*
X001754Y011818D01*
X002152Y011818D01*
X002433Y011537D01*
X002433Y011139D01*
X002203Y010909D02*
X002203Y010517D01*
X002152Y010568D02*
X001754Y010568D01*
X001473Y010287D01*
X001473Y009889D01*
X001754Y009608D01*
X002152Y009608D01*
X002433Y009889D01*
X002433Y010287D01*
X002152Y010568D01*
X002382Y010338D02*
X005638Y010338D01*
X005703Y010088D02*
X005703Y010088D01*
X005638Y009838D02*
X002382Y009838D01*
X002203Y009659D02*
X002203Y009267D01*
X002152Y009318D02*
X001754Y009318D01*
X001473Y009037D01*
X001473Y008639D01*
X001754Y008358D01*
X002152Y008358D01*
X002433Y008639D01*
X002433Y009037D01*
X002152Y009318D01*
X001703Y009267D02*
X001703Y009659D01*
X001524Y009838D02*
X000983Y009838D01*
X000983Y009338D02*
X011633Y009338D01*
X012273Y009338D02*
X014001Y009338D01*
X014203Y009169D02*
X014203Y002971D01*
X014101Y002838D02*
X013966Y002838D01*
X013703Y002890D02*
X013703Y009636D01*
X013501Y009838D02*
X012382Y009838D01*
X013203Y010136D02*
X013203Y008255D01*
X012906Y008338D02*
X020633Y008338D01*
X020953Y008088D02*
X020953Y008838D01*
X020473Y008838D02*
X017433Y008838D01*
X017703Y009143D02*
X017703Y008318D01*
X017203Y008409D02*
X017203Y006122D01*
X017605Y005838D02*
X019383Y005838D01*
X019383Y005775D02*
X019432Y005657D01*
X020563Y004526D01*
X020563Y004293D01*
X020201Y003931D01*
X020201Y003366D01*
X020601Y002966D01*
X021166Y002966D01*
X021566Y003366D01*
X021566Y003931D01*
X021203Y004293D01*
X021203Y006163D01*
X021356Y006316D02*
X020956Y005916D01*
X020391Y005916D01*
X020023Y006283D01*
X020023Y005971D01*
X021155Y004840D01*
X021203Y004722D01*
X021203Y004595D01*
X021203Y004293D01*
X021203Y004338D02*
X022618Y004338D01*
X022627Y004330D02*
X022878Y004226D01*
X023149Y004226D01*
X023400Y004330D01*
X023592Y004522D01*
X023696Y004772D01*
X023696Y005044D01*
X023592Y005295D01*
X023400Y005487D01*
X023149Y005591D01*
X022878Y005591D01*
X022706Y005520D01*
X022706Y005594D01*
X022602Y005845D01*
X022410Y006037D01*
X022159Y006141D01*
X021888Y006141D01*
X021637Y006037D01*
X021445Y005845D01*
X021341Y005594D01*
X021341Y005322D01*
X021445Y005072D01*
X021637Y004880D01*
X021888Y004776D01*
X022159Y004776D01*
X022331Y004847D01*
X022331Y004772D01*
X022435Y004522D01*
X022627Y004330D01*
X022703Y004298D02*
X022703Y001618D01*
X022203Y001618D02*
X022203Y004794D01*
X022310Y004838D02*
X022331Y004838D01*
X021737Y004838D02*
X021155Y004838D01*
X020883Y004658D02*
X019703Y005838D01*
X019703Y007838D01*
X019223Y007838D02*
X018183Y007838D01*
X019223Y007639D02*
X019383Y007479D01*
X019383Y005902D01*
X019383Y005775D01*
X019703Y005386D02*
X019703Y001618D01*
X020203Y001618D02*
X020203Y003363D01*
X020228Y003338D02*
X016539Y003338D01*
X016203Y003003D02*
X016203Y001618D01*
X015703Y001618D02*
X015703Y002966D01*
X015228Y003338D02*
X011539Y003338D01*
X011203Y003003D02*
X011203Y001618D01*
X010703Y001618D02*
X010703Y002966D01*
X010228Y003338D02*
X006539Y003338D01*
X006203Y003003D02*
X006203Y001618D01*
X005703Y001618D02*
X005703Y002966D01*
X005228Y003338D02*
X000983Y003338D01*
X000983Y003838D02*
X005201Y003838D01*
X005203Y003933D02*
X005203Y004886D01*
X005251Y004838D02*
X003696Y004838D01*
X003409Y004338D02*
X005563Y004338D01*
X005883Y004658D02*
X005883Y003648D01*
X005203Y003363D02*
X005203Y001618D01*
X004703Y001618D02*
X004703Y005386D01*
X004751Y005338D02*
X003548Y005338D01*
X002605Y005838D02*
X004633Y005838D01*
X005273Y005838D02*
X006442Y005838D01*
X006703Y006064D02*
X006703Y008409D01*
X006473Y008838D02*
X006433Y008838D01*
X006203Y008409D02*
X006203Y007033D01*
X006356Y006881D02*
X005956Y007281D01*
X005391Y007281D01*
X005273Y007163D01*
X005273Y007479D01*
X005433Y007639D01*
X005703Y007281D02*
X005703Y008409D01*
X005473Y008838D02*
X002433Y008838D01*
X002203Y008409D02*
X002203Y006122D01*
X001703Y006064D02*
X001703Y008409D01*
X001473Y008838D02*
X000983Y008838D01*
X000983Y008338D02*
X012001Y008338D01*
X012203Y008136D02*
X012203Y006122D01*
X012605Y005838D02*
X014621Y005838D01*
X014703Y005386D02*
X014703Y001618D01*
X015203Y001618D02*
X015203Y003363D01*
X015201Y003838D02*
X011566Y003838D01*
X010883Y003648D02*
X010883Y004658D01*
X010563Y004338D02*
X008409Y004338D01*
X008203Y004248D02*
X008203Y001618D01*
X008703Y001618D02*
X008703Y001846D01*
X008703Y002301D02*
X008703Y002436D01*
X008651Y002838D02*
X004415Y002838D01*
X004203Y002971D02*
X004203Y014838D01*
X003703Y014838D02*
X003703Y002890D01*
X003651Y002838D02*
X001064Y002838D01*
X002203Y001699D02*
X002203Y004794D01*
X002310Y004838D02*
X002331Y004838D01*
X002618Y004338D02*
X000983Y004338D01*
X000983Y004838D02*
X001737Y004838D01*
X001341Y005338D02*
X000983Y005338D01*
X000983Y005838D02*
X001442Y005838D01*
X000983Y006338D02*
X004633Y006338D01*
X004633Y006838D02*
X000983Y006838D01*
X002703Y008267D02*
X002703Y012063D01*
X002663Y012063D02*
X002828Y012063D01*
X002828Y012463D01*
X002428Y012463D01*
X002428Y012298D01*
X002663Y012063D01*
X002828Y012063D02*
X002828Y012463D01*
X002828Y012463D01*
X002828Y012463D01*
X002428Y012463D01*
X002428Y012629D01*
X002663Y012863D01*
X002828Y012863D01*
X002828Y012464D01*
X002828Y012464D01*
X002828Y012863D01*
X002994Y012863D01*
X003228Y012629D01*
X003228Y012463D01*
X002829Y012463D01*
X002829Y012463D01*
X003228Y012463D01*
X003228Y012298D01*
X002994Y012063D01*
X002828Y012063D01*
X002828Y012338D02*
X002828Y012338D01*
X002703Y012463D02*
X002703Y012463D01*
X002428Y012338D02*
X002020Y012338D01*
X001935Y012303D02*
X002131Y012384D01*
X002282Y012535D01*
X002364Y012732D01*
X002364Y012945D01*
X002282Y013141D01*
X002131Y013292D01*
X001935Y013374D01*
X001722Y013374D01*
X001525Y013292D01*
X001375Y013141D01*
X001293Y012945D01*
X001293Y012732D01*
X001375Y012535D01*
X001525Y012384D01*
X001722Y012303D01*
X001935Y012303D01*
X001703Y012311D02*
X001703Y011767D01*
X001473Y011338D02*
X000983Y011338D01*
X000983Y011838D02*
X005001Y011838D01*
X005203Y011636D02*
X005203Y008267D01*
X004703Y008267D02*
X004703Y011983D01*
X004828Y012463D02*
X005703Y013338D01*
X016203Y013338D01*
X018203Y015338D01*
X018953Y015338D01*
X018703Y014682D02*
X018703Y012781D01*
X018203Y012781D02*
X018203Y013273D01*
X018269Y013338D02*
X019524Y013338D01*
X019703Y013159D02*
X019703Y012781D01*
X019943Y012338D02*
X019963Y012338D01*
X020453Y013088D02*
X019953Y013588D01*
X019525Y013838D02*
X018269Y013838D01*
X018203Y013904D02*
X018203Y014838D01*
X017751Y015338D02*
X000983Y015338D01*
X001703Y015338D02*
X001703Y031727D01*
X001879Y031838D02*
X002256Y031838D01*
X002203Y031786D02*
X002203Y031977D01*
X002703Y032008D02*
X002703Y032058D01*
X003151Y031838D02*
X003256Y031838D01*
X003203Y031786D02*
X003203Y032058D01*
X003703Y032058D02*
X003703Y032008D01*
X004151Y031838D02*
X004256Y031838D01*
X004203Y031786D02*
X004203Y032058D01*
X004703Y032058D02*
X004703Y032008D01*
X005703Y032008D02*
X005703Y032058D01*
X006151Y031838D02*
X006256Y031838D01*
X006203Y031786D02*
X006203Y032058D01*
X006703Y032058D02*
X006703Y032008D01*
X007151Y031838D02*
X007256Y031838D01*
X007203Y031786D02*
X007203Y032058D01*
X007703Y032058D02*
X007703Y032008D01*
X008151Y031838D02*
X008256Y031838D01*
X008203Y031786D02*
X008203Y032058D01*
X008703Y032058D02*
X008703Y032008D01*
X009151Y031838D02*
X009256Y031838D01*
X009203Y031786D02*
X009203Y032058D01*
X009703Y032058D02*
X009703Y032008D01*
X010151Y031838D02*
X028256Y031838D01*
X028203Y031786D02*
X028203Y032058D01*
X027703Y032058D02*
X027703Y031738D01*
X027203Y032058D02*
X027203Y031404D01*
X027138Y031338D02*
X025943Y031338D01*
X025773Y030838D02*
X026638Y030838D01*
X026703Y030904D02*
X026703Y032058D01*
X028703Y032008D02*
X028703Y032058D01*
X029151Y031838D02*
X029256Y031838D01*
X029203Y031786D02*
X029203Y032058D01*
X029703Y032058D02*
X029703Y032008D01*
X030151Y031838D02*
X030256Y031838D01*
X030203Y031786D02*
X030203Y032058D01*
X030703Y032058D02*
X030703Y032008D01*
X031151Y031838D02*
X031256Y031838D01*
X031203Y031786D02*
X031203Y032058D01*
X031703Y032058D02*
X031703Y032008D01*
X032151Y031838D02*
X032256Y031838D01*
X032203Y031786D02*
X032203Y032058D01*
X032703Y032058D02*
X032703Y032008D01*
X033151Y031838D02*
X033256Y031838D01*
X033203Y031786D02*
X033203Y032058D01*
X033703Y032058D02*
X033703Y032008D01*
X034151Y031838D02*
X034256Y031838D01*
X034203Y031786D02*
X034203Y032058D01*
X034703Y032058D02*
X034703Y032008D01*
X035151Y031838D02*
X035256Y031838D01*
X035203Y031786D02*
X035203Y032058D01*
X035703Y032058D02*
X035703Y032008D01*
X036151Y031838D02*
X036256Y031838D01*
X036203Y031786D02*
X036203Y032058D01*
X036703Y032058D02*
X036703Y032008D01*
X037151Y031838D02*
X037256Y031838D01*
X037203Y031786D02*
X037203Y032058D01*
X037703Y032058D02*
X037703Y032008D01*
X038151Y031838D02*
X038256Y031838D01*
X038203Y031786D02*
X038203Y032058D01*
X038703Y032058D02*
X038703Y032008D01*
X039151Y031838D02*
X039256Y031838D01*
X039203Y031786D02*
X039203Y032058D01*
X039703Y032058D02*
X039703Y032008D01*
X040151Y031838D02*
X040256Y031838D01*
X040203Y031786D02*
X040203Y032058D01*
X040703Y032058D02*
X040703Y032008D01*
X041373Y030205D02*
X041271Y029959D01*
X041151Y029838D01*
X044923Y029838D01*
X044923Y029338D02*
X041373Y029338D01*
X041373Y029205D02*
X041373Y029472D01*
X041271Y029718D01*
X041151Y029838D01*
X041203Y029786D02*
X041203Y029891D01*
X041373Y029205D02*
X041271Y028959D01*
X041151Y028838D01*
X044923Y028838D01*
X044923Y028338D02*
X041373Y028338D01*
X041373Y028205D02*
X041373Y028472D01*
X041271Y028718D01*
X041151Y028838D01*
X041203Y028786D02*
X041203Y028891D01*
X041373Y028205D02*
X041271Y027959D01*
X041151Y027838D01*
X044923Y027838D01*
X044923Y027338D02*
X041373Y027338D01*
X041373Y027205D02*
X041373Y027472D01*
X041271Y027718D01*
X041151Y027838D01*
X041203Y027786D02*
X041203Y027891D01*
X041373Y027205D02*
X041271Y026959D01*
X041151Y026838D01*
X044923Y026838D01*
X044923Y026338D02*
X041373Y026338D01*
X041373Y026205D02*
X041373Y026472D01*
X041271Y026718D01*
X041151Y026838D01*
X041203Y026786D02*
X041203Y026891D01*
X041373Y026205D02*
X041271Y025959D01*
X041151Y025838D01*
X044923Y025838D01*
X044923Y025338D02*
X041373Y025338D01*
X041373Y025205D02*
X041373Y025472D01*
X041271Y025718D01*
X041151Y025838D01*
X041203Y025786D02*
X041203Y025891D01*
X041373Y025205D02*
X041271Y024959D01*
X041151Y024838D01*
X044923Y024838D01*
X044923Y024338D02*
X041373Y024338D01*
X041373Y024205D02*
X041373Y024472D01*
X041271Y024718D01*
X041151Y024838D01*
X041203Y024786D02*
X041203Y024891D01*
X041373Y024205D02*
X041271Y023959D01*
X041151Y023838D01*
X044923Y023838D01*
X044923Y023338D02*
X041373Y023338D01*
X041373Y023205D02*
X041373Y023472D01*
X041271Y023718D01*
X041151Y023838D01*
X041203Y023786D02*
X041203Y023891D01*
X041373Y023205D02*
X041271Y022959D01*
X041151Y022838D01*
X044923Y022838D01*
X044923Y022338D02*
X041373Y022338D01*
X041373Y022205D02*
X041373Y022472D01*
X041271Y022718D01*
X041151Y022838D01*
X041203Y022786D02*
X041203Y022891D01*
X041373Y022205D02*
X041271Y021959D01*
X041083Y021770D01*
X040837Y021668D01*
X040570Y021668D01*
X040324Y021770D01*
X040203Y021891D01*
X040203Y019838D01*
X039703Y019838D02*
X039703Y021668D01*
X039570Y021668D02*
X039837Y021668D01*
X040083Y021770D01*
X040203Y021891D01*
X040151Y021838D02*
X040256Y021838D01*
X040703Y021668D02*
X040703Y019838D01*
X041203Y019838D02*
X041203Y021891D01*
X041151Y021838D02*
X044923Y021838D01*
X044923Y021338D02*
X025523Y021338D01*
X025531Y020838D02*
X044923Y020838D01*
X044923Y020338D02*
X025846Y020338D01*
X025953Y020088D02*
X026078Y019963D01*
X026203Y019838D02*
X026203Y021891D01*
X026256Y021838D02*
X025986Y021838D01*
X025703Y021768D02*
X025703Y020666D01*
X025091Y020373D02*
X025065Y020348D01*
X024995Y020179D01*
X024995Y019997D01*
X025061Y019838D01*
X025061Y020338D02*
X024406Y020338D01*
X024203Y020541D02*
X024203Y022056D01*
X022883Y022338D02*
X019373Y022338D01*
X019703Y022668D02*
X019703Y021068D01*
X019275Y020838D02*
X018151Y020838D01*
X018203Y020891D02*
X018203Y019838D01*
X018203Y015658D01*
X018140Y015658D01*
X018022Y015610D01*
X017751Y015338D01*
X017203Y014838D02*
X017203Y014791D01*
X016703Y014838D02*
X016703Y014291D01*
X016751Y014338D02*
X012269Y014338D01*
X012203Y014404D02*
X012203Y014838D01*
X012119Y014488D02*
X011953Y014488D01*
X011788Y014488D01*
X011553Y014254D01*
X011553Y014088D01*
X011553Y013923D01*
X011788Y013688D01*
X011953Y013688D01*
X011953Y014088D01*
X011553Y014088D01*
X011953Y014088D01*
X011953Y014088D01*
X011953Y014088D01*
X011953Y013688D01*
X012119Y013688D01*
X012353Y013923D01*
X012353Y014088D01*
X011954Y014088D01*
X011954Y014088D01*
X012353Y014088D01*
X012353Y014254D01*
X012119Y014488D01*
X011953Y014488D02*
X011953Y014089D01*
X011953Y014488D01*
X011953Y014338D02*
X011953Y014338D01*
X011953Y014089D02*
X011953Y014089D01*
X011703Y014088D02*
X011703Y014088D01*
X011638Y013838D02*
X000983Y013838D01*
X000983Y014338D02*
X011638Y014338D01*
X011703Y014404D02*
X011703Y014838D01*
X011203Y014838D02*
X011203Y013658D01*
X010703Y013658D02*
X010703Y014838D01*
X010203Y014838D02*
X010203Y013658D01*
X009703Y013658D02*
X009703Y014838D01*
X009203Y014838D02*
X009203Y013658D01*
X008703Y013658D02*
X008703Y014838D01*
X008703Y015338D02*
X008703Y016159D01*
X008816Y016200D02*
X008816Y016200D01*
X009089Y016429D01*
X009267Y016737D01*
X009267Y016738D01*
X009329Y017088D01*
X009329Y017088D01*
X009267Y017439D01*
X009089Y017747D01*
X009089Y017747D01*
X008816Y017976D01*
X008481Y018098D01*
X008359Y018098D01*
X008359Y018098D01*
X008303Y018098D01*
X008302Y018098D01*
X008248Y018098D01*
X008125Y018098D01*
X007791Y017976D01*
X007791Y017976D01*
X007518Y017747D01*
X007340Y017439D01*
X007278Y017088D01*
X007340Y016738D01*
X007340Y016737D01*
X007518Y016429D01*
X007791Y016200D01*
X008125Y016078D01*
X008125Y016078D01*
X008248Y016078D01*
X008248Y016078D01*
X008276Y016078D01*
X008303Y016078D01*
X008359Y016078D01*
X008359Y016078D01*
X008481Y016078D01*
X008816Y016200D01*
X008981Y016338D02*
X018203Y016338D01*
X018203Y015838D02*
X000983Y015838D01*
X000983Y016338D02*
X007626Y016338D01*
X007703Y016273D02*
X007703Y015338D01*
X007203Y015338D02*
X007203Y020891D01*
X007324Y020770D01*
X007570Y020668D01*
X007837Y020668D01*
X008083Y020770D01*
X008203Y020891D01*
X008324Y020770D01*
X008570Y020668D01*
X008837Y020668D01*
X009083Y020770D01*
X009203Y020891D01*
X009324Y020770D01*
X009570Y020668D01*
X009837Y020668D01*
X010083Y020770D01*
X010203Y020891D01*
X010324Y020770D01*
X010570Y020668D01*
X010837Y020668D01*
X011083Y020770D01*
X011203Y020891D01*
X011324Y020770D01*
X011570Y020668D01*
X011837Y020668D01*
X012083Y020770D01*
X012203Y020891D01*
X012324Y020770D01*
X012570Y020668D01*
X012837Y020668D01*
X013083Y020770D01*
X013203Y020891D01*
X013324Y020770D01*
X013570Y020668D01*
X013837Y020668D01*
X014083Y020770D01*
X014203Y020891D01*
X014324Y020770D01*
X014570Y020668D01*
X014837Y020668D01*
X015083Y020770D01*
X015203Y020891D01*
X015324Y020770D01*
X015570Y020668D01*
X015837Y020668D01*
X016083Y020770D01*
X016203Y020891D01*
X016324Y020770D01*
X016570Y020668D01*
X016256Y020838D02*
X016151Y020838D01*
X016203Y020891D02*
X016203Y015338D01*
X015703Y015338D02*
X015703Y020668D01*
X015256Y020838D02*
X015151Y020838D01*
X015203Y020891D02*
X015203Y015338D01*
X014703Y015338D02*
X014703Y020668D01*
X014256Y020838D02*
X014151Y020838D01*
X014203Y020891D02*
X014203Y015338D01*
X014203Y014838D02*
X014203Y013658D01*
X014703Y013658D02*
X014703Y014838D01*
X015203Y014838D02*
X015203Y013658D01*
X015703Y013658D02*
X015703Y014838D01*
X016203Y014838D02*
X016203Y013791D01*
X016251Y013838D02*
X012269Y013838D01*
X012203Y013773D02*
X012203Y013658D01*
X011953Y013838D02*
X011953Y013838D01*
X011703Y013773D02*
X011703Y013658D01*
X012203Y014088D02*
X012203Y014088D01*
X012703Y013658D02*
X012703Y014838D01*
X012703Y015338D02*
X012703Y020668D01*
X012256Y020838D02*
X012151Y020838D01*
X012203Y020891D02*
X012203Y015338D01*
X011703Y015338D02*
X011703Y020668D01*
X011256Y020838D02*
X011151Y020838D01*
X011203Y020891D02*
X011203Y015338D01*
X010703Y015338D02*
X010703Y020668D01*
X010256Y020838D02*
X010151Y020838D01*
X010203Y020891D02*
X010203Y015338D01*
X009703Y015338D02*
X009703Y020668D01*
X009256Y020838D02*
X009151Y020838D01*
X009203Y020891D02*
X009203Y017549D01*
X009267Y017439D02*
X009267Y017439D01*
X009285Y017338D02*
X018203Y017338D01*
X018203Y016838D02*
X009285Y016838D01*
X009203Y016627D02*
X009203Y015338D01*
X008481Y016078D02*
X008481Y016078D01*
X008203Y016078D02*
X008203Y015338D01*
X008203Y014838D02*
X008203Y013658D01*
X007703Y013658D02*
X007703Y014838D01*
X007203Y014838D02*
X007203Y013658D01*
X006703Y013658D02*
X006703Y014838D01*
X006203Y014838D02*
X006203Y013658D01*
X005703Y013658D02*
X005703Y014838D01*
X005203Y014838D02*
X005203Y013291D01*
X005251Y013338D02*
X002020Y013338D01*
X002203Y013220D02*
X002203Y014838D01*
X001703Y014838D02*
X001703Y013366D01*
X001637Y013338D02*
X000983Y013338D01*
X000983Y012838D02*
X001293Y012838D01*
X000983Y012338D02*
X001637Y012338D01*
X002203Y012456D02*
X002203Y011767D01*
X001703Y010909D02*
X001703Y010517D01*
X001525Y010338D02*
X000983Y010338D01*
X000983Y010838D02*
X006593Y010838D01*
X006203Y010909D02*
X006203Y010404D01*
X006269Y010338D02*
X006525Y010338D01*
X006203Y010088D02*
X006203Y010088D01*
X005703Y009773D02*
X005703Y009267D01*
X007203Y008409D02*
X007203Y006122D01*
X007605Y005838D02*
X009633Y005838D01*
X009703Y005386D02*
X009703Y001618D01*
X010203Y001618D02*
X010203Y003363D01*
X010201Y003838D02*
X006566Y003838D01*
X006703Y004852D02*
X006703Y001618D01*
X004101Y002838D02*
X003966Y002838D01*
X003703Y002436D02*
X003703Y002301D01*
X003703Y001846D02*
X003703Y001618D01*
X003203Y001618D02*
X003203Y004248D01*
X002703Y004298D02*
X002703Y001618D01*
X005703Y005291D02*
X005703Y005916D01*
X005656Y005338D02*
X006341Y005338D01*
X006356Y006316D02*
X006356Y006881D01*
X006356Y006838D02*
X009633Y006838D01*
X009633Y006338D02*
X006356Y006338D01*
X008548Y005338D02*
X009751Y005338D01*
X010273Y005838D02*
X011442Y005838D01*
X011703Y006064D02*
X011703Y008409D01*
X011473Y008838D02*
X011433Y008838D01*
X011203Y008409D02*
X011203Y007033D01*
X011356Y006881D02*
X011356Y006316D01*
X011356Y006338D02*
X014621Y006338D01*
X015261Y005838D02*
X016442Y005838D01*
X016703Y006064D02*
X016703Y008409D01*
X016473Y008838D02*
X016433Y008838D01*
X016203Y008409D02*
X016203Y007033D01*
X016356Y006881D02*
X015956Y007281D01*
X015391Y007281D01*
X015261Y007151D01*
X015261Y007479D01*
X015421Y007639D01*
X015261Y007338D02*
X019383Y007338D01*
X019223Y007639D02*
X019223Y008037D01*
X019504Y008318D01*
X019902Y008318D01*
X020183Y008037D01*
X020183Y007639D01*
X020023Y007479D01*
X020023Y006913D01*
X020391Y007281D01*
X020956Y007281D01*
X021356Y006881D01*
X021356Y006316D01*
X021356Y006338D02*
X024383Y006338D01*
X024383Y006838D02*
X021356Y006838D01*
X021203Y007033D02*
X021203Y007386D01*
X021251Y007338D02*
X020023Y007338D01*
X020203Y007093D02*
X020203Y009143D01*
X019703Y009143D02*
X019703Y008318D01*
X020183Y007838D02*
X020751Y007838D01*
X020703Y007886D02*
X020703Y007281D01*
X020953Y008088D02*
X021828Y007213D01*
X023578Y007213D01*
X024703Y008338D01*
X025176Y007358D02*
X025402Y007358D01*
X025683Y007639D01*
X025683Y007781D01*
X026647Y006817D01*
X026765Y006768D01*
X026892Y006768D01*
X028267Y006768D01*
X028385Y006817D01*
X028475Y006907D01*
X029473Y007906D01*
X029703Y008588D02*
X028203Y007088D01*
X026828Y007088D01*
X024453Y009463D01*
X025703Y007761D02*
X025703Y007281D01*
X025956Y007281D02*
X025391Y007281D01*
X025023Y006913D01*
X025023Y007206D01*
X025176Y007358D01*
X025203Y007358D02*
X025203Y007093D01*
X025156Y007338D02*
X026126Y007338D01*
X026203Y007261D02*
X026203Y007033D01*
X026356Y006881D02*
X025956Y007281D01*
X026356Y006881D02*
X026356Y006316D01*
X026356Y006338D02*
X029633Y006338D01*
X029633Y006838D02*
X028406Y006838D01*
X028203Y006768D02*
X028203Y005568D01*
X028548Y005338D02*
X029751Y005338D01*
X029703Y005386D02*
X029703Y001618D01*
X030203Y001618D02*
X030203Y003363D01*
X030228Y003338D02*
X026539Y003338D01*
X026203Y003003D02*
X026203Y001618D01*
X025703Y001618D02*
X025703Y002966D01*
X025228Y003338D02*
X021539Y003338D01*
X021203Y003003D02*
X021203Y001618D01*
X020703Y001618D02*
X020703Y002966D01*
X020883Y003648D02*
X020883Y004658D01*
X020563Y004338D02*
X018409Y004338D01*
X018203Y004248D02*
X018203Y001618D01*
X018703Y001618D02*
X018703Y001846D01*
X018703Y002301D02*
X018703Y002436D01*
X018651Y002838D02*
X014415Y002838D01*
X013651Y002838D02*
X009415Y002838D01*
X010203Y003933D02*
X010203Y004886D01*
X010251Y004838D02*
X008696Y004838D01*
X010656Y005338D02*
X011341Y005338D01*
X010703Y005291D02*
X010703Y005916D01*
X011703Y004852D02*
X011703Y001618D01*
X013203Y001618D02*
X013203Y004248D01*
X013409Y004338D02*
X015563Y004338D01*
X015883Y004658D02*
X015883Y003648D01*
X015203Y003933D02*
X015203Y004886D01*
X015251Y004838D02*
X013696Y004838D01*
X013548Y005338D02*
X014751Y005338D01*
X015656Y005338D02*
X016341Y005338D01*
X015703Y005291D02*
X015703Y005916D01*
X016356Y006316D02*
X016356Y006881D01*
X016356Y006838D02*
X019383Y006838D01*
X019383Y006338D02*
X016356Y006338D01*
X015703Y007281D02*
X015703Y008409D01*
X015473Y008838D02*
X012433Y008838D01*
X012703Y008541D02*
X012703Y013018D01*
X013203Y013018D02*
X013203Y012781D01*
X013703Y012781D02*
X013703Y013018D01*
X014203Y013018D02*
X014203Y012781D01*
X014703Y012781D02*
X014703Y013018D01*
X015203Y013018D02*
X015203Y012781D01*
X015703Y012781D02*
X015703Y013018D01*
X016203Y013018D02*
X016203Y012781D01*
X016250Y012828D02*
X015963Y012541D01*
X015963Y012135D01*
X016250Y011848D01*
X016656Y011848D01*
X016943Y012135D01*
X016943Y012541D01*
X016656Y012828D01*
X016250Y012828D01*
X016475Y013157D02*
X016475Y013157D01*
X016656Y013338D02*
X017638Y013338D01*
X017703Y013273D02*
X017703Y012781D01*
X017203Y012781D02*
X017203Y013886D01*
X017156Y013838D02*
X017638Y013838D01*
X017703Y013904D02*
X017703Y014386D01*
X017656Y014338D02*
X021633Y014338D01*
X021633Y013838D02*
X021019Y013838D01*
X020703Y013838D02*
X020703Y013838D01*
X020703Y013988D02*
X020703Y013589D01*
X020703Y013589D01*
X020703Y014682D01*
X020541Y014838D02*
X020365Y014838D01*
X020203Y014682D02*
X020203Y014017D01*
X020382Y013838D02*
X020388Y013838D01*
X020703Y013988D02*
X020703Y013589D01*
X021203Y013408D02*
X021203Y014682D01*
X021365Y014838D02*
X021541Y014838D01*
X021473Y015338D02*
X021433Y015338D01*
X021953Y015338D02*
X021953Y013088D01*
X021578Y012713D01*
X021203Y012636D02*
X021203Y011891D01*
X021258Y012338D02*
X020943Y012338D01*
X021406Y013338D02*
X021633Y013338D01*
X023023Y012838D02*
X024251Y012838D01*
X024203Y012828D02*
X024203Y014682D01*
X024365Y014838D02*
X024541Y014838D01*
X024953Y014588D02*
X025203Y014338D01*
X025953Y014338D01*
X026453Y014838D01*
X029453Y014838D01*
X031203Y013088D01*
X034203Y013088D01*
X034953Y012338D01*
X034473Y012338D02*
X032954Y012338D01*
X032954Y012338D01*
X033353Y012338D01*
X033353Y012173D01*
X033119Y011938D01*
X032953Y011938D01*
X032953Y012338D01*
X032553Y012338D01*
X032553Y012173D01*
X032788Y011938D01*
X032953Y011938D01*
X032953Y012338D01*
X032953Y012338D01*
X032953Y012338D01*
X031273Y012338D01*
X031273Y012275D02*
X031273Y012402D01*
X031225Y012520D01*
X030225Y013520D01*
X030135Y013610D01*
X030017Y013658D01*
X029562Y013658D01*
X029402Y013818D01*
X029004Y013818D01*
X028723Y013537D01*
X028723Y013139D01*
X029004Y012858D01*
X029402Y012858D01*
X029562Y013018D01*
X029821Y013018D01*
X030633Y012206D01*
X030633Y011572D01*
X030473Y011412D01*
X030473Y011014D01*
X030754Y010733D01*
X031152Y010733D01*
X031433Y011014D01*
X031433Y011412D01*
X031273Y011572D01*
X031273Y012275D01*
X031203Y012541D02*
X031203Y012768D01*
X031001Y012838D02*
X030906Y012838D01*
X030703Y013041D02*
X030703Y013136D01*
X030501Y013338D02*
X030406Y013338D01*
X030203Y013541D02*
X030203Y013636D01*
X030001Y013838D02*
X026656Y013838D01*
X027161Y014338D02*
X029501Y014338D01*
X029703Y014136D02*
X029703Y013658D01*
X029953Y013338D02*
X029203Y013338D01*
X029203Y013338D01*
X029203Y012858D02*
X029203Y012828D01*
X029000Y012828D02*
X028713Y012541D01*
X028713Y012135D01*
X029000Y011848D01*
X029406Y011848D01*
X029693Y012135D01*
X029693Y012541D01*
X029406Y012828D01*
X029000Y012828D01*
X028713Y012338D02*
X028693Y012338D01*
X029203Y011848D02*
X029203Y009783D01*
X028703Y009783D02*
X028703Y014518D01*
X029203Y014518D02*
X029203Y013818D01*
X028723Y013338D02*
X026523Y013338D01*
X026523Y012838D02*
X030001Y012838D01*
X030203Y012636D02*
X030203Y009783D01*
X030638Y009838D02*
X027382Y009838D01*
X027382Y010338D02*
X030638Y010338D01*
X030703Y010404D02*
X030703Y010784D01*
X030649Y010838D02*
X027313Y010838D01*
X027433Y011338D02*
X030473Y011338D01*
X030953Y011213D02*
X030953Y012338D01*
X029953Y013338D01*
X029703Y013018D02*
X029703Y009783D01*
X030553Y010088D02*
X030953Y010088D01*
X030953Y010088D01*
X030553Y010088D01*
X030703Y010088D02*
X030703Y010088D01*
X030953Y010089D02*
X030953Y010488D01*
X030953Y010089D01*
X030953Y010089D01*
X030953Y010338D02*
X030953Y010338D01*
X031203Y010404D02*
X031203Y010784D01*
X031257Y010838D02*
X034001Y010838D01*
X034203Y011041D02*
X034203Y012636D01*
X033703Y012768D02*
X033703Y010541D01*
X033501Y010338D02*
X032382Y010338D01*
X032203Y010517D02*
X032203Y010909D01*
X032152Y010858D02*
X032433Y011139D01*
X032433Y011537D01*
X032152Y011818D01*
X031754Y011818D01*
X031473Y011537D01*
X031473Y011139D01*
X031754Y010858D01*
X032152Y010858D01*
X031703Y010909D02*
X031703Y010517D01*
X031525Y010338D02*
X031269Y010338D01*
X031203Y010088D02*
X031203Y010088D01*
X031269Y009838D02*
X031524Y009838D01*
X032382Y009838D02*
X033001Y009838D01*
X033203Y010041D02*
X033203Y012023D01*
X033203Y012338D02*
X033203Y012338D01*
X033353Y012338D02*
X033353Y012504D01*
X033119Y012738D01*
X032953Y012738D01*
X032788Y012738D01*
X032553Y012504D01*
X032553Y012338D01*
X032953Y012338D01*
X032953Y012339D02*
X032953Y012738D01*
X032953Y012339D01*
X032953Y012339D01*
X032954Y012338D02*
X033353Y012338D01*
X033203Y012654D02*
X033203Y012768D01*
X032703Y012768D02*
X032703Y012654D01*
X032703Y012338D02*
X032703Y012338D01*
X032703Y012023D02*
X032703Y009783D01*
X034031Y009338D02*
X036633Y009338D01*
X036633Y009197D02*
X036473Y009037D01*
X036473Y008639D01*
X036754Y008358D01*
X037152Y008358D01*
X037433Y008639D01*
X037433Y009037D01*
X037273Y009197D01*
X037273Y009729D01*
X037433Y009889D01*
X037433Y010287D01*
X037327Y010393D01*
X037392Y010393D01*
X037510Y010442D01*
X037600Y010532D01*
X038975Y011907D01*
X039023Y012025D01*
X039023Y012152D01*
X039023Y012652D01*
X038975Y012770D01*
X038885Y012860D01*
X038795Y012949D01*
X038799Y012951D01*
X038953Y013106D01*
X039108Y012951D01*
X039133Y012941D01*
X039133Y011971D01*
X038932Y011770D01*
X038883Y011652D01*
X038883Y011525D01*
X038883Y009652D01*
X038883Y009525D01*
X038932Y009407D01*
X040021Y008318D01*
X039754Y008318D01*
X039473Y008037D01*
X039473Y007639D01*
X039754Y007358D01*
X040152Y007358D01*
X040433Y007639D01*
X040433Y007906D01*
X040472Y007867D01*
X040590Y007818D01*
X040717Y007818D01*
X041149Y007818D01*
X041148Y007816D01*
X041148Y007261D01*
X041185Y007172D01*
X041252Y007105D01*
X041341Y007068D01*
X041383Y007068D01*
X041383Y006471D01*
X041356Y006443D01*
X041356Y006881D01*
X040956Y007281D01*
X040391Y007281D01*
X039991Y006881D01*
X039991Y006316D01*
X040148Y006158D01*
X037467Y006158D01*
X037340Y006158D01*
X037228Y006112D01*
X037159Y006141D01*
X036888Y006141D01*
X036637Y006037D01*
X036445Y005845D01*
X036341Y005594D01*
X036341Y005322D01*
X036445Y005072D01*
X036637Y004880D01*
X036888Y004776D01*
X037159Y004776D01*
X037331Y004847D01*
X037331Y004772D01*
X037435Y004522D01*
X037627Y004330D01*
X037703Y004298D02*
X037703Y001618D01*
X037203Y001618D02*
X037203Y004794D01*
X037310Y004838D02*
X037331Y004838D01*
X036737Y004838D02*
X036155Y004838D01*
X035883Y004658D02*
X034953Y005588D01*
X034953Y007838D01*
X034473Y007838D02*
X033433Y007838D01*
X033433Y007639D02*
X033433Y008037D01*
X033152Y008318D01*
X033011Y008318D01*
X035086Y010393D01*
X035693Y010393D01*
X035553Y010254D01*
X035553Y010088D01*
X035553Y009923D01*
X035788Y009688D01*
X035953Y009688D01*
X035953Y010088D01*
X035553Y010088D01*
X035953Y010088D01*
X035953Y010088D01*
X035953Y010088D01*
X035953Y009688D01*
X036119Y009688D01*
X036353Y009923D01*
X036353Y010088D01*
X035954Y010088D01*
X035954Y010088D01*
X036353Y010088D01*
X036353Y010254D01*
X036214Y010393D01*
X036580Y010393D01*
X036473Y010287D01*
X036473Y009889D01*
X036633Y009729D01*
X036633Y009197D01*
X036473Y008838D02*
X036433Y008838D01*
X036203Y008409D02*
X036203Y007033D01*
X036356Y006881D02*
X035956Y007281D01*
X035273Y007338D02*
X041148Y007338D01*
X041203Y007154D02*
X041203Y007033D01*
X041356Y006838D02*
X041383Y006838D01*
X041703Y006338D02*
X041203Y005838D01*
X037403Y005838D01*
X037023Y005458D01*
X036341Y005338D02*
X035656Y005338D01*
X035703Y005291D02*
X035703Y005916D01*
X035273Y005838D02*
X036442Y005838D01*
X036703Y006064D02*
X036703Y008409D01*
X036953Y008838D02*
X036953Y010088D01*
X036524Y009838D02*
X036269Y009838D01*
X036203Y009773D02*
X036203Y009267D01*
X035703Y009267D02*
X035703Y009773D01*
X035638Y009838D02*
X034531Y009838D01*
X034703Y010011D02*
X034703Y008267D01*
X035203Y008267D02*
X035203Y010393D01*
X035031Y010338D02*
X035638Y010338D01*
X035703Y010088D02*
X035703Y010088D01*
X035953Y009838D02*
X035953Y009838D01*
X036203Y010088D02*
X036203Y010088D01*
X036269Y010338D02*
X036525Y010338D01*
X037382Y010338D02*
X038883Y010338D01*
X038883Y010838D02*
X037906Y010838D01*
X037703Y010636D02*
X037703Y008267D01*
X037754Y008318D02*
X037473Y008037D01*
X037473Y007639D01*
X037754Y007358D01*
X038152Y007358D01*
X038433Y007639D01*
X038433Y008037D01*
X038152Y008318D01*
X037754Y008318D01*
X038203Y008267D02*
X038203Y011136D01*
X038406Y011338D02*
X038883Y011338D01*
X038703Y011636D02*
X038703Y006158D01*
X038203Y006158D02*
X038203Y007409D01*
X038433Y007838D02*
X039473Y007838D01*
X039703Y007409D02*
X039703Y006158D01*
X039991Y006338D02*
X036356Y006338D01*
X036356Y006316D02*
X036356Y006881D01*
X036356Y006838D02*
X039991Y006838D01*
X040203Y007093D02*
X040203Y007409D01*
X040433Y007838D02*
X040541Y007838D01*
X040703Y007818D02*
X040703Y007281D01*
X040653Y008138D02*
X039203Y009588D01*
X039203Y011588D01*
X039453Y011838D01*
X039453Y013838D01*
X039453Y014838D01*
X039203Y015088D01*
X032828Y015088D01*
X033203Y015408D02*
X033203Y019338D01*
X032703Y019338D02*
X032703Y018738D01*
X032744Y018738D02*
X032578Y018738D01*
X032413Y018738D01*
X032178Y018504D01*
X032178Y018338D01*
X032178Y018173D01*
X032413Y017938D01*
X032578Y017938D01*
X032578Y018338D01*
X032578Y018338D01*
X032178Y018338D01*
X032578Y018338D01*
X032578Y018338D01*
X031058Y018338D01*
X030578Y018338D02*
X030203Y018338D01*
X029203Y018338D01*
X028203Y018338D01*
X029203Y018818D02*
X029203Y019338D01*
X029703Y019338D02*
X029703Y018658D01*
X030203Y018658D02*
X030203Y019338D01*
X030203Y019838D02*
X030203Y021891D01*
X030324Y021770D01*
X030570Y021668D01*
X030837Y021668D01*
X031083Y021770D01*
X031203Y021891D01*
X031324Y021770D01*
X031570Y021668D01*
X031837Y021668D01*
X032083Y021770D01*
X032203Y021891D01*
X032324Y021770D01*
X032570Y021668D01*
X032837Y021668D01*
X033083Y021770D01*
X033203Y021891D01*
X033324Y021770D01*
X033570Y021668D01*
X033837Y021668D01*
X034083Y021770D01*
X034203Y021891D01*
X034324Y021770D01*
X034570Y021668D01*
X034837Y021668D01*
X035083Y021770D01*
X035203Y021891D01*
X035203Y019838D01*
X034703Y019838D02*
X034703Y021668D01*
X034256Y021838D02*
X034151Y021838D01*
X034203Y021891D02*
X034203Y019838D01*
X033703Y019838D02*
X033703Y021668D01*
X033256Y021838D02*
X033151Y021838D01*
X033203Y021891D02*
X033203Y019838D01*
X032703Y019838D02*
X032703Y021668D01*
X032256Y021838D02*
X032151Y021838D01*
X032203Y021891D02*
X032203Y019838D01*
X031703Y019838D02*
X031703Y021668D01*
X031256Y021838D02*
X031151Y021838D01*
X031203Y021891D02*
X031203Y019838D01*
X030703Y019838D02*
X030703Y021668D01*
X030256Y021838D02*
X030151Y021838D01*
X030203Y021891D02*
X030083Y021770D01*
X029837Y021668D01*
X029570Y021668D01*
X029324Y021770D01*
X029203Y021891D01*
X029151Y021838D02*
X029256Y021838D01*
X029703Y021668D02*
X029703Y019838D01*
X030703Y019338D02*
X030703Y018818D01*
X030203Y018018D02*
X030203Y017658D01*
X029703Y017658D02*
X029703Y018018D01*
X030703Y017858D02*
X030703Y017818D01*
X032203Y017529D02*
X032203Y018148D01*
X032203Y018338D02*
X032203Y018338D01*
X032203Y018529D02*
X032203Y019338D01*
X032578Y018738D02*
X032578Y018339D01*
X032578Y018339D01*
X032578Y018738D01*
X032744Y018738D02*
X032978Y018504D01*
X032978Y018338D01*
X032579Y018338D01*
X032578Y018338D02*
X032578Y017938D01*
X032744Y017938D01*
X032703Y018338D02*
X032703Y018338D01*
X032203Y017338D02*
X032203Y017338D01*
X032203Y017148D02*
X032203Y016166D01*
X032031Y016338D02*
X041133Y016338D01*
X041773Y015338D02*
X044923Y015338D01*
X044923Y014838D02*
X041773Y014838D01*
X042060Y014338D02*
X044923Y014338D01*
X044923Y013838D02*
X042063Y013838D01*
X041453Y013838D02*
X040453Y013838D01*
X040203Y014765D02*
X040203Y019338D01*
X039203Y019838D02*
X039203Y021891D01*
X039324Y021770D01*
X039570Y021668D01*
X039256Y021838D02*
X039151Y021838D01*
X039203Y021891D02*
X039083Y021770D01*
X038837Y021668D01*
X038570Y021668D01*
X038324Y021770D01*
X038203Y021891D01*
X038083Y021770D01*
X037837Y021668D01*
X037570Y021668D01*
X037324Y021770D01*
X037203Y021891D01*
X037203Y019838D01*
X036703Y019838D02*
X036703Y021668D01*
X036570Y021668D02*
X036837Y021668D01*
X037083Y021770D01*
X037203Y021891D01*
X037151Y021838D02*
X037256Y021838D01*
X037703Y021668D02*
X037703Y019838D01*
X038203Y019838D02*
X038203Y021891D01*
X038151Y021838D02*
X038256Y021838D01*
X038703Y021668D02*
X038703Y019838D01*
X038703Y019338D02*
X038703Y015408D01*
X038203Y015408D02*
X038203Y019338D01*
X037703Y019338D02*
X037703Y015408D01*
X037203Y015408D02*
X037203Y019338D01*
X036703Y019338D02*
X036703Y015408D01*
X036203Y015408D02*
X036203Y019338D01*
X035703Y019338D02*
X035703Y015408D01*
X035203Y015408D02*
X035203Y019338D01*
X034703Y019338D02*
X034703Y015408D01*
X034203Y015408D02*
X034203Y019338D01*
X033703Y019338D02*
X033703Y015408D01*
X033703Y014768D02*
X033703Y013408D01*
X034203Y013408D02*
X034203Y014768D01*
X034703Y014768D02*
X034703Y014267D01*
X035203Y014267D02*
X035203Y014768D01*
X035703Y014768D02*
X035703Y014158D01*
X035847Y014338D02*
X030406Y014338D01*
X030203Y014541D02*
X030203Y015686D01*
X029603Y015504D02*
X029603Y015338D01*
X029204Y015338D01*
X029203Y015339D02*
X029203Y015738D01*
X029369Y015738D01*
X029603Y015504D01*
X030856Y016338D02*
X031126Y016338D01*
X031203Y016261D02*
X031203Y013541D01*
X031703Y012768D02*
X031703Y011767D01*
X031273Y011838D02*
X035001Y011838D01*
X034703Y011909D02*
X034703Y011541D01*
X034501Y011338D02*
X032433Y011338D01*
X032203Y011767D02*
X032203Y012768D01*
X031473Y011338D02*
X031433Y011338D01*
X030633Y011838D02*
X023023Y011838D01*
X023053Y011188D02*
X025953Y011188D01*
X025713Y012338D02*
X025693Y012338D01*
X025203Y012828D02*
X025203Y012886D01*
X025156Y012838D02*
X025883Y012838D01*
X024751Y013338D02*
X023132Y013338D01*
X023132Y013838D02*
X024995Y013838D01*
X024751Y014338D02*
X023156Y014338D01*
X023203Y014386D02*
X023203Y012828D01*
X024703Y013291D02*
X024703Y014386D01*
X024953Y014588D02*
X024953Y015338D01*
X024473Y015338D02*
X024433Y015338D01*
X024203Y016783D02*
X024203Y017018D01*
X023703Y017018D02*
X023703Y016783D01*
X023203Y016783D02*
X023203Y017018D01*
X022703Y017018D02*
X022703Y016783D01*
X022203Y016783D02*
X022203Y017018D01*
X022203Y017338D02*
X025953Y017338D01*
X025703Y016946D02*
X025703Y016783D01*
X025203Y016783D02*
X025203Y017018D01*
X024703Y017018D02*
X024703Y016783D01*
X024703Y017658D02*
X024703Y017682D01*
X024541Y017838D02*
X024365Y017838D01*
X024203Y017682D02*
X024203Y017658D01*
X023703Y017658D02*
X023703Y017682D01*
X023541Y017838D02*
X023365Y017838D01*
X023203Y017682D02*
X023203Y017658D01*
X022703Y017658D02*
X022703Y017682D01*
X022541Y017838D02*
X022365Y017838D01*
X022078Y017463D02*
X021953Y017588D01*
X021953Y018338D01*
X021473Y018338D02*
X020954Y018338D01*
X020954Y018338D01*
X021353Y018338D01*
X021353Y018059D01*
X021338Y017982D01*
X021308Y017909D01*
X021264Y017843D01*
X021208Y017788D01*
X021143Y017744D01*
X021070Y017714D01*
X020993Y017698D01*
X020953Y017698D01*
X020953Y018338D01*
X020553Y018338D01*
X020553Y018059D01*
X020569Y017982D01*
X020599Y017909D01*
X020643Y017843D01*
X020698Y017788D01*
X020764Y017744D01*
X020837Y017714D01*
X020914Y017698D01*
X020953Y017698D01*
X020953Y018338D01*
X020953Y018338D01*
X020953Y018338D01*
X020433Y018338D01*
X020553Y018338D02*
X020953Y018338D01*
X020953Y018339D02*
X020953Y018978D01*
X020914Y018978D01*
X020837Y018963D01*
X020764Y018933D01*
X020698Y018889D01*
X020643Y018833D01*
X020599Y018768D01*
X020569Y018695D01*
X020553Y018618D01*
X020553Y018338D01*
X020703Y018338D02*
X020703Y018338D01*
X020953Y018339D02*
X020953Y018339D01*
X020953Y018978D01*
X020993Y018978D01*
X021070Y018963D01*
X021143Y018933D01*
X021208Y018889D01*
X021264Y018833D01*
X021308Y018768D01*
X021338Y018695D01*
X021353Y018618D01*
X021353Y018338D01*
X020954Y018338D01*
X021203Y018338D02*
X021203Y018338D01*
X021259Y017838D02*
X021541Y017838D01*
X021203Y017784D02*
X021203Y017231D01*
X021703Y017231D02*
X021703Y017386D01*
X021751Y017338D02*
X020406Y017338D01*
X020703Y017158D02*
X020703Y017784D01*
X020648Y017838D02*
X020365Y017838D01*
X020953Y017838D02*
X020953Y017838D01*
X021897Y017192D02*
X021897Y017192D01*
X022078Y017463D02*
X022203Y017338D01*
X021911Y016838D02*
X026251Y016838D01*
X026203Y016791D02*
X026203Y016946D01*
X024473Y018338D02*
X024433Y018338D01*
X023473Y018338D02*
X023433Y018338D01*
X022473Y018338D02*
X022433Y018338D01*
X021703Y018994D02*
X021703Y019338D01*
X021203Y019338D02*
X021203Y018892D01*
X021259Y018838D02*
X021541Y018838D01*
X020953Y018838D02*
X020953Y018838D01*
X020703Y018892D02*
X020703Y019338D01*
X020203Y019338D02*
X020203Y018994D01*
X020365Y018838D02*
X020648Y018838D01*
X019703Y018994D02*
X019703Y019338D01*
X019541Y018838D02*
X019365Y018838D01*
X018203Y018838D02*
X000983Y018838D01*
X000983Y019338D02*
X018203Y019338D01*
X018203Y019838D02*
X018633Y019838D01*
X018703Y020041D02*
X018703Y021668D01*
X018373Y021338D02*
X022751Y021338D01*
X022703Y021291D02*
X022703Y022768D01*
X022421Y022838D02*
X022151Y022838D01*
X022203Y022891D02*
X022203Y020908D01*
X021703Y020908D02*
X021703Y022668D01*
X021256Y022838D02*
X021151Y022838D01*
X021203Y022891D02*
X021203Y020908D01*
X020703Y020908D02*
X020703Y022668D01*
X020256Y022838D02*
X020151Y022838D01*
X020203Y022891D02*
X020203Y020908D01*
X018203Y018338D02*
X000983Y018338D01*
X000983Y017838D02*
X007626Y017838D01*
X007703Y017903D02*
X007703Y020668D01*
X007256Y020838D02*
X007151Y020838D01*
X007203Y020891D02*
X007083Y020770D01*
X006837Y020668D01*
X006570Y020668D01*
X006324Y020770D01*
X006203Y020891D01*
X006083Y020770D01*
X005837Y020668D01*
X005570Y020668D01*
X005324Y020770D01*
X005203Y020891D01*
X005203Y015338D01*
X004703Y015338D02*
X004703Y020668D01*
X004570Y020668D02*
X004837Y020668D01*
X005083Y020770D01*
X005203Y020891D01*
X005151Y020838D02*
X005256Y020838D01*
X005703Y020668D02*
X005703Y015338D01*
X006203Y015338D02*
X006203Y020891D01*
X006151Y020838D02*
X006256Y020838D01*
X006703Y020668D02*
X006703Y015338D01*
X007518Y016429D02*
X007518Y016429D01*
X007791Y016200D02*
X007791Y016200D01*
X007322Y016838D02*
X000983Y016838D01*
X000983Y017338D02*
X007322Y017338D01*
X007340Y017439D02*
X007340Y017439D01*
X007518Y017747D02*
X007518Y017747D01*
X007518Y017747D01*
X007278Y017088D02*
X007278Y017088D01*
X008125Y018098D02*
X008125Y018098D01*
X008203Y018098D02*
X008203Y020891D01*
X008151Y020838D02*
X008256Y020838D01*
X008703Y020668D02*
X008703Y018017D01*
X008816Y017976D02*
X008816Y017976D01*
X008981Y017838D02*
X018203Y017838D01*
X020203Y016636D02*
X020203Y016471D01*
X020703Y016471D02*
X020703Y016518D01*
X020473Y015338D02*
X020433Y015338D01*
X019703Y014682D02*
X019703Y014017D01*
X018353Y013754D02*
X018119Y013988D01*
X017953Y013988D01*
X017788Y013988D01*
X017553Y013754D01*
X017553Y013588D01*
X017553Y013423D01*
X017788Y013188D01*
X017953Y013188D01*
X017953Y013588D01*
X017553Y013588D01*
X017953Y013588D01*
X017953Y013588D01*
X017953Y013588D01*
X017953Y013188D01*
X018119Y013188D01*
X018353Y013423D01*
X018353Y013588D01*
X017954Y013588D01*
X017954Y013588D01*
X018353Y013588D01*
X018353Y013754D01*
X018203Y013588D02*
X018203Y013588D01*
X017953Y013589D02*
X017953Y013589D01*
X017953Y013988D01*
X017953Y013589D01*
X017953Y013838D02*
X017953Y013838D01*
X017703Y013588D02*
X017703Y013588D01*
X017953Y013338D02*
X017953Y013338D01*
X017943Y012338D02*
X017963Y012338D01*
X016963Y012338D02*
X016943Y012338D01*
X016703Y011895D02*
X016703Y011617D01*
X016473Y011338D02*
X016433Y011338D01*
X016203Y011579D02*
X016203Y011895D01*
X015703Y011895D02*
X015703Y011580D01*
X015473Y011338D02*
X014773Y011338D01*
X014453Y011088D02*
X014953Y010588D01*
X014703Y010386D02*
X014703Y009783D01*
X014406Y009838D02*
X015638Y009838D01*
X015703Y010088D02*
X015703Y010088D01*
X015553Y010088D02*
X015953Y010088D01*
X015953Y010088D01*
X015553Y010088D01*
X015203Y010268D02*
X015203Y009783D01*
X015954Y010088D02*
X015954Y010088D01*
X016353Y010088D01*
X016353Y009923D01*
X016214Y009783D01*
X016580Y009783D01*
X016473Y009889D01*
X016473Y010268D01*
X016339Y010268D01*
X016353Y010254D01*
X016353Y010088D01*
X015954Y010088D01*
X016203Y010088D02*
X016203Y010088D01*
X016269Y009838D02*
X016524Y009838D01*
X015203Y009143D02*
X015203Y008255D01*
X014703Y008280D02*
X014703Y009143D01*
X014203Y010041D02*
X014203Y010886D01*
X014251Y010838D02*
X013773Y010838D01*
X013906Y010338D02*
X014751Y010338D01*
X014453Y011088D02*
X014453Y012338D01*
X013963Y012338D02*
X013943Y012338D01*
X013773Y011838D02*
X014133Y011838D01*
X014133Y011338D02*
X013773Y011338D01*
X013133Y011338D02*
X012433Y011338D01*
X012203Y011579D02*
X012203Y011659D01*
X012382Y011838D02*
X013133Y011838D01*
X013133Y010838D02*
X012320Y010838D01*
X012382Y010338D02*
X013133Y010338D01*
X010953Y010338D02*
X010953Y010338D01*
X010703Y010404D02*
X010703Y010909D01*
X010638Y010338D02*
X007382Y010338D01*
X006473Y011338D02*
X006433Y011338D01*
X005953Y011338D02*
X004828Y012463D01*
X004348Y012338D02*
X003228Y012338D01*
X003203Y012273D02*
X003203Y008267D01*
X007433Y008838D02*
X010473Y008838D01*
X010703Y008409D02*
X010703Y007281D01*
X010433Y007838D02*
X012461Y007838D01*
X010953Y009838D02*
X010953Y009838D01*
X010703Y010088D02*
X010703Y010088D01*
X008203Y008267D02*
X008203Y012273D01*
X007828Y012338D02*
X007828Y012338D01*
X007703Y012463D02*
X007703Y012463D01*
X007428Y012338D02*
X005406Y012338D01*
X004703Y012943D02*
X004703Y014838D01*
X004203Y015338D02*
X004203Y020891D01*
X004324Y020770D01*
X004570Y020668D01*
X004256Y020838D02*
X004151Y020838D01*
X004203Y020891D02*
X004083Y020770D01*
X003837Y020668D01*
X003570Y020668D01*
X003324Y020770D01*
X003203Y020891D01*
X003083Y020770D01*
X002837Y020668D01*
X002570Y020668D01*
X002324Y020770D01*
X002135Y020959D01*
X002033Y021205D01*
X002033Y021472D01*
X002135Y021718D01*
X002256Y021838D01*
X002135Y021959D01*
X002033Y022205D01*
X002033Y022472D01*
X002135Y022718D01*
X002256Y022838D01*
X002135Y022959D01*
X002033Y023205D01*
X002033Y023472D01*
X002135Y023718D01*
X002256Y023838D01*
X002135Y023959D01*
X002033Y024205D01*
X002033Y024472D01*
X002135Y024718D01*
X002256Y024838D01*
X000983Y024838D01*
X000983Y024338D02*
X002033Y024338D01*
X002203Y023891D02*
X002203Y023786D01*
X002256Y023838D02*
X000983Y023838D01*
X000983Y023338D02*
X002033Y023338D01*
X002203Y022891D02*
X002203Y022786D01*
X002256Y022838D02*
X000983Y022838D01*
X000983Y022338D02*
X002033Y022338D01*
X002203Y021891D02*
X002203Y021786D01*
X002256Y021838D02*
X000983Y021838D01*
X000983Y021338D02*
X002033Y021338D01*
X002203Y020891D02*
X002203Y015338D01*
X002703Y015338D02*
X002703Y020668D01*
X002256Y020838D02*
X000983Y020838D01*
X003151Y020838D02*
X003256Y020838D01*
X003203Y020891D02*
X003203Y015338D01*
X003203Y014838D02*
X003203Y012654D01*
X003203Y012463D02*
X003203Y012463D01*
X003019Y012838D02*
X004525Y012838D01*
X002828Y012838D02*
X002828Y012838D01*
X002703Y012863D02*
X002703Y014838D01*
X003703Y015338D02*
X003703Y020668D01*
X008248Y018098D02*
X008248Y018098D01*
X008481Y018098D02*
X008481Y018098D01*
X009089Y016429D02*
X009089Y016429D01*
X009089Y016429D01*
X013203Y015338D02*
X013203Y020891D01*
X013151Y020838D02*
X013256Y020838D01*
X013703Y020668D02*
X013703Y015338D01*
X013703Y014838D02*
X013703Y013658D01*
X013203Y013658D02*
X013203Y014838D01*
X015943Y012338D02*
X015963Y012338D01*
X016703Y012781D02*
X016703Y013386D01*
X021703Y006919D02*
X021703Y006064D01*
X021442Y005838D02*
X020156Y005838D01*
X020203Y005791D02*
X020203Y006103D01*
X020703Y005916D02*
X020703Y005291D01*
X020656Y005338D02*
X021341Y005338D01*
X021703Y004852D02*
X021703Y001618D01*
X023203Y001618D02*
X023203Y004248D01*
X023409Y004338D02*
X025563Y004338D01*
X025501Y004838D02*
X023696Y004838D01*
X023548Y005338D02*
X025001Y005338D01*
X025203Y005136D02*
X025203Y003933D01*
X025201Y003838D02*
X021566Y003838D01*
X020201Y003838D02*
X016566Y003838D01*
X016703Y004852D02*
X016703Y001618D01*
X019415Y002838D02*
X023651Y002838D01*
X023703Y002890D02*
X023703Y006919D01*
X023203Y006893D02*
X023203Y005568D01*
X022703Y005600D02*
X022703Y006893D01*
X022203Y006893D02*
X022203Y006122D01*
X022605Y005838D02*
X024501Y005838D01*
X024703Y005636D02*
X024703Y001618D01*
X025203Y001618D02*
X025203Y003363D01*
X025883Y003648D02*
X025883Y004908D01*
X025906Y005338D02*
X026341Y005338D01*
X026442Y005838D02*
X025406Y005838D01*
X025203Y006041D02*
X025203Y006103D01*
X025703Y005916D02*
X025703Y005541D01*
X026703Y006064D02*
X026703Y006794D01*
X026626Y006838D02*
X026356Y006838D01*
X027203Y006768D02*
X027203Y006122D01*
X027605Y005838D02*
X029633Y005838D01*
X030273Y005838D02*
X031442Y005838D01*
X031703Y006064D02*
X031703Y007768D01*
X031203Y007768D02*
X031203Y007033D01*
X031356Y006881D02*
X030956Y007281D01*
X030391Y007281D01*
X030273Y007163D01*
X030273Y007479D01*
X030433Y007639D01*
X030433Y007906D01*
X030522Y007817D01*
X030640Y007768D01*
X030767Y007768D01*
X032392Y007768D01*
X032473Y007802D01*
X032473Y007639D01*
X032754Y007358D01*
X033152Y007358D01*
X033433Y007639D01*
X033203Y007409D02*
X033203Y005568D01*
X033548Y005338D02*
X034751Y005338D01*
X034703Y005386D02*
X034703Y001618D01*
X035203Y001618D02*
X035203Y003363D01*
X035228Y003338D02*
X031539Y003338D01*
X031203Y003003D02*
X031203Y001618D01*
X030703Y001618D02*
X030703Y002966D01*
X030883Y003648D02*
X030883Y004658D01*
X030563Y004338D02*
X028409Y004338D01*
X028203Y004248D02*
X028203Y001618D01*
X028703Y001618D02*
X028703Y001846D01*
X028703Y002301D02*
X028703Y002436D01*
X028966Y002838D02*
X029101Y002838D01*
X030201Y003838D02*
X026566Y003838D01*
X026703Y004852D02*
X026703Y001618D01*
X024101Y002838D02*
X023966Y002838D01*
X023703Y002436D02*
X023703Y002301D01*
X023703Y001846D02*
X023703Y001618D01*
X020203Y003933D02*
X020203Y004886D01*
X020251Y004838D02*
X018696Y004838D01*
X018548Y005338D02*
X019751Y005338D01*
X013703Y002436D02*
X013703Y002301D01*
X013703Y001846D02*
X013703Y001618D01*
X007703Y008267D02*
X007703Y012063D01*
X007203Y011767D02*
X007203Y013018D01*
X006703Y013018D02*
X006703Y011767D01*
X006203Y011767D02*
X006203Y013018D01*
X002638Y012838D02*
X002364Y012838D01*
X002203Y024786D02*
X002203Y024891D01*
X002256Y024838D02*
X002135Y024959D01*
X002033Y025205D01*
X002033Y025472D01*
X002135Y025718D01*
X002256Y025838D01*
X000983Y025838D01*
X000983Y025338D02*
X002033Y025338D01*
X002203Y025786D02*
X002203Y025891D01*
X002256Y025838D02*
X002135Y025959D01*
X002033Y026205D01*
X002033Y026472D01*
X002135Y026718D01*
X002256Y026838D01*
X000983Y026838D01*
X000983Y026338D02*
X002033Y026338D01*
X002203Y026786D02*
X002203Y026891D01*
X002256Y026838D02*
X002135Y026959D01*
X002033Y027205D01*
X002033Y027472D01*
X002135Y027718D01*
X002256Y027838D01*
X000983Y027838D01*
X000983Y027338D02*
X002033Y027338D01*
X002203Y027786D02*
X002203Y027891D01*
X002256Y027838D02*
X002135Y027959D01*
X002033Y028205D01*
X002033Y028472D01*
X002135Y028718D01*
X002256Y028838D01*
X000983Y028838D01*
X000983Y028338D02*
X002033Y028338D01*
X002203Y028786D02*
X002203Y028891D01*
X002256Y028838D02*
X002135Y028959D01*
X002033Y029205D01*
X002033Y029472D01*
X002135Y029718D01*
X002256Y029838D01*
X000983Y029838D01*
X000983Y029338D02*
X002033Y029338D01*
X002203Y029786D02*
X002203Y029891D01*
X002256Y029838D02*
X002135Y029959D01*
X002033Y030205D01*
X010203Y031786D02*
X010203Y032058D01*
X010703Y032058D02*
X010703Y031738D01*
X013203Y030895D02*
X013203Y029738D01*
X013703Y029738D02*
X013703Y030895D01*
X014203Y030895D02*
X014203Y029738D01*
X014703Y029738D02*
X014703Y030895D01*
X015203Y030895D02*
X015203Y029738D01*
X015703Y029738D02*
X015703Y030895D01*
X016203Y030895D02*
X016203Y029738D01*
X016703Y029738D02*
X016703Y030895D01*
X017203Y030895D02*
X017203Y029738D01*
X017703Y029738D02*
X017703Y030895D01*
X018203Y030895D02*
X018203Y029738D01*
X019203Y030939D02*
X019203Y032058D01*
X017963Y031338D02*
X017943Y031338D01*
X023773Y029838D02*
X024883Y029838D01*
X024883Y029338D02*
X023773Y029338D01*
X025773Y030338D02*
X026303Y030338D01*
X027203Y021891D02*
X027324Y021770D01*
X027570Y021668D01*
X027256Y021838D02*
X027151Y021838D01*
X026703Y021668D02*
X026703Y019838D01*
X026728Y019838D02*
X025846Y019838D01*
X030703Y016761D02*
X030703Y016595D01*
X034406Y013338D02*
X035847Y013338D01*
X035703Y013518D02*
X035703Y012408D01*
X035501Y012338D02*
X035433Y012338D01*
X035203Y012767D02*
X035203Y013409D01*
X034703Y013409D02*
X034703Y013041D01*
X034906Y012838D02*
X037133Y012838D01*
X036703Y012912D02*
X036703Y012408D01*
X036203Y012408D02*
X036203Y012912D01*
X037203Y011886D02*
X037203Y011767D01*
X037152Y011818D02*
X037136Y011818D01*
X037553Y012236D01*
X037553Y012173D01*
X037788Y011938D01*
X037953Y011938D01*
X037953Y012338D01*
X037953Y012338D01*
X037953Y011938D01*
X038101Y011938D01*
X037433Y011271D01*
X037433Y011537D01*
X037152Y011818D01*
X037156Y011838D02*
X038001Y011838D01*
X037703Y012023D02*
X037703Y011541D01*
X037501Y011338D02*
X037433Y011338D01*
X037328Y010713D02*
X034953Y010713D01*
X032328Y008088D01*
X030703Y008088D01*
X030203Y008588D01*
X029703Y008588D01*
X030433Y007838D02*
X030501Y007838D01*
X030703Y007768D02*
X030703Y007281D01*
X030273Y007338D02*
X034633Y007338D01*
X034633Y006838D02*
X031356Y006838D01*
X031356Y006881D02*
X031356Y006316D01*
X031356Y006338D02*
X034633Y006338D01*
X034633Y005838D02*
X032605Y005838D01*
X032703Y005600D02*
X032703Y007409D01*
X032203Y007768D02*
X032203Y006122D01*
X031341Y005338D02*
X030656Y005338D01*
X030703Y005291D02*
X030703Y005916D01*
X030203Y004886D02*
X030203Y003933D01*
X030251Y004838D02*
X028696Y004838D01*
X027703Y005600D02*
X027703Y006768D01*
X027953Y007838D02*
X026953Y008838D01*
X027203Y011642D02*
X027203Y011848D01*
X029693Y012338D02*
X030501Y012338D01*
X034203Y009511D02*
X034203Y002971D01*
X034101Y002838D02*
X033966Y002838D01*
X034415Y002838D02*
X038651Y002838D01*
X038703Y002890D02*
X038703Y005518D01*
X038548Y005338D02*
X044923Y005338D01*
X044923Y005838D02*
X041656Y005838D01*
X041703Y005886D02*
X041703Y001618D01*
X041203Y001618D02*
X041203Y003003D01*
X040703Y002966D02*
X040703Y001618D01*
X040203Y001618D02*
X040203Y003363D01*
X040228Y003338D02*
X036539Y003338D01*
X036203Y003003D02*
X036203Y001618D01*
X035703Y001618D02*
X035703Y002966D01*
X035883Y003648D02*
X035883Y004658D01*
X035563Y004338D02*
X033409Y004338D01*
X033203Y004248D02*
X033203Y001618D01*
X033703Y001618D02*
X033703Y001846D01*
X033703Y002301D02*
X033703Y002436D01*
X035201Y003838D02*
X031566Y003838D01*
X031703Y004852D02*
X031703Y001618D01*
X035203Y003933D02*
X035203Y004886D01*
X035251Y004838D02*
X033696Y004838D01*
X036566Y003838D02*
X040201Y003838D01*
X040203Y003933D02*
X040203Y005518D01*
X039703Y005518D02*
X039703Y001618D01*
X038703Y001618D02*
X038703Y001846D01*
X038703Y002301D02*
X038703Y002436D01*
X038966Y002838D02*
X039101Y002838D01*
X039203Y002971D02*
X039203Y005518D01*
X039203Y006158D02*
X039203Y009136D01*
X039001Y009338D02*
X037273Y009338D01*
X037382Y009838D02*
X038883Y009838D01*
X039523Y009838D02*
X040638Y009838D01*
X040703Y009773D02*
X040703Y009267D01*
X040788Y009688D02*
X040953Y009688D01*
X040953Y010088D01*
X040553Y010088D01*
X040553Y009923D01*
X040788Y009688D01*
X040953Y009688D02*
X041119Y009688D01*
X041353Y009923D01*
X041353Y010088D01*
X040954Y010088D01*
X040954Y010088D01*
X041353Y010088D01*
X041353Y010254D01*
X041119Y010488D01*
X040953Y010488D01*
X040788Y010488D01*
X040553Y010254D01*
X040553Y010088D01*
X040953Y010088D01*
X040953Y010088D01*
X040953Y010088D01*
X040953Y009688D01*
X040953Y009838D02*
X040953Y009838D01*
X040953Y010089D02*
X040953Y010488D01*
X040953Y010089D01*
X040953Y010089D01*
X040953Y010338D02*
X040953Y010338D01*
X040703Y010404D02*
X040703Y010909D01*
X040754Y010858D02*
X040473Y011139D01*
X040473Y011537D01*
X040754Y011818D01*
X041152Y011818D01*
X041433Y011537D01*
X041433Y011139D01*
X041152Y010858D01*
X040754Y010858D01*
X041203Y010909D02*
X041203Y010404D01*
X041269Y010338D02*
X044923Y010338D01*
X044923Y010838D02*
X039523Y010838D01*
X039523Y010338D02*
X040638Y010338D01*
X040703Y010088D02*
X040703Y010088D01*
X041203Y010088D02*
X041203Y010088D01*
X041269Y009838D02*
X044923Y009838D01*
X044923Y009338D02*
X039906Y009338D01*
X039703Y009541D02*
X039703Y011636D01*
X039635Y011567D02*
X039635Y011567D01*
X039523Y011338D02*
X040473Y011338D01*
X040703Y011767D02*
X040703Y012912D01*
X040203Y012912D02*
X040203Y012767D01*
X039773Y012838D02*
X044923Y012838D01*
X044923Y013338D02*
X042060Y013338D01*
X041703Y012912D02*
X041703Y008608D01*
X041433Y008838D02*
X044923Y008838D01*
X044923Y008338D02*
X042258Y008338D01*
X042203Y008523D02*
X042203Y019338D01*
X042703Y019338D02*
X042703Y017233D01*
X042678Y017088D02*
X042678Y017088D01*
X042740Y017439D02*
X042740Y017439D01*
X042918Y017747D01*
X042918Y017747D01*
X042918Y017747D01*
X043191Y017976D01*
X043191Y017976D01*
X043525Y018098D01*
X043525Y018098D01*
X043648Y018098D01*
X043648Y018098D01*
X043703Y018098D01*
X043703Y018098D01*
X043759Y018098D01*
X043759Y018098D01*
X043881Y018098D01*
X043881Y018098D01*
X044216Y017976D01*
X044216Y017976D01*
X044489Y017747D01*
X044489Y017747D01*
X044667Y017439D01*
X044667Y017439D01*
X044729Y017088D01*
X044729Y017088D01*
X044667Y016738D01*
X044667Y016737D01*
X044489Y016429D01*
X044489Y016429D01*
X044489Y016429D01*
X044685Y016838D02*
X044923Y016838D01*
X044703Y016944D02*
X044703Y002514D01*
X044842Y002838D02*
X039415Y002838D01*
X038203Y001618D02*
X038203Y004248D01*
X038409Y004338D02*
X044923Y004338D01*
X044923Y004838D02*
X038696Y004838D01*
X037703Y006158D02*
X037703Y007409D01*
X037473Y007838D02*
X035433Y007838D01*
X037203Y008409D02*
X037203Y006122D01*
X036703Y004852D02*
X036703Y001618D01*
X040703Y004331D02*
X040703Y005518D01*
X041203Y005518D02*
X041203Y004293D01*
X041475Y005657D02*
X041475Y005657D01*
X041703Y006338D02*
X041703Y007538D01*
X042258Y007338D02*
X044923Y007338D01*
X044923Y007838D02*
X042249Y007838D01*
X041703Y008138D02*
X040653Y008138D01*
X040001Y008338D02*
X033031Y008338D01*
X033203Y008267D02*
X033203Y008511D01*
X037433Y008838D02*
X039501Y008838D01*
X039703Y008636D02*
X039703Y008267D01*
X040406Y008838D02*
X040473Y008838D01*
X040203Y009041D02*
X040203Y011909D01*
X039773Y011838D02*
X044923Y011838D01*
X044923Y011338D02*
X041433Y011338D01*
X041203Y011767D02*
X041203Y012912D01*
X040433Y012338D02*
X044923Y012338D01*
X041453Y013838D02*
X041453Y020338D01*
X041773Y018838D02*
X044923Y018838D01*
X044703Y019338D02*
X044703Y017233D01*
X044685Y017338D02*
X044923Y017338D01*
X044923Y017838D02*
X044381Y017838D01*
X044203Y017981D02*
X044203Y019338D01*
X043703Y019338D02*
X043703Y018098D01*
X043203Y017981D02*
X043203Y019338D01*
X041773Y018338D02*
X044923Y018338D01*
X043026Y017838D02*
X041773Y017838D01*
X042918Y016429D02*
X042918Y016429D01*
X039635Y015110D02*
X039635Y015110D01*
X038453Y013838D02*
X038453Y012838D01*
X038703Y012588D01*
X038703Y012088D01*
X037328Y010713D01*
X038906Y011838D02*
X039001Y011838D01*
X039023Y012338D02*
X039133Y012338D01*
X039133Y012838D02*
X038906Y012838D01*
X038169Y012688D02*
X038119Y012738D01*
X037953Y012738D01*
X037788Y012738D01*
X037773Y012724D01*
X037773Y012941D01*
X037799Y012951D01*
X037953Y013106D01*
X038108Y012951D01*
X038133Y012941D01*
X038133Y012902D01*
X038133Y012775D01*
X038169Y012688D01*
X038133Y012838D02*
X037773Y012838D01*
X037953Y012738D02*
X037953Y012339D01*
X037953Y012339D01*
X037953Y012738D01*
X036203Y014765D02*
X036203Y014768D01*
X041203Y009773D02*
X041203Y009267D01*
X042203Y007154D02*
X042203Y001618D01*
X042023Y006338D02*
X044923Y006338D01*
X044923Y006838D02*
X042023Y006838D01*
X036203Y019838D02*
X036203Y021891D01*
X036324Y021770D01*
X036570Y021668D01*
X036256Y021838D02*
X036151Y021838D01*
X036203Y021891D02*
X036083Y021770D01*
X035837Y021668D01*
X035570Y021668D01*
X035324Y021770D01*
X035203Y021891D01*
X035151Y021838D02*
X035256Y021838D01*
X035703Y021668D02*
X035703Y019838D01*
D20*
X026703Y014338D03*
X025453Y013838D03*
X021453Y016838D03*
X025953Y017338D03*
X025453Y020088D03*
X024703Y008338D03*
D21*
X017703Y020338D03*
X016703Y020338D03*
X015703Y020338D03*
X014703Y020338D03*
X013703Y020338D03*
X012703Y020338D03*
X011703Y020338D03*
X010703Y020338D03*
X009703Y020338D03*
X008703Y020338D03*
X007703Y020338D03*
X006703Y020338D03*
X005703Y020338D03*
X004703Y020338D03*
X003703Y020338D03*
X002703Y020338D03*
X002703Y021338D03*
X002703Y022338D03*
X002703Y023338D03*
X002703Y024338D03*
X003703Y024338D03*
X004703Y024338D03*
X005703Y024338D03*
X006703Y024338D03*
X007703Y024338D03*
X007703Y023338D03*
X006703Y023338D03*
X005703Y023338D03*
X004703Y023338D03*
X003703Y023338D03*
X003703Y022338D03*
X004703Y022338D03*
X005703Y022338D03*
X006703Y022338D03*
X007703Y022338D03*
X007703Y021338D03*
X006703Y021338D03*
X005703Y021338D03*
X004703Y021338D03*
X003703Y021338D03*
X008703Y021338D03*
X009703Y021338D03*
X010703Y021338D03*
X011703Y021338D03*
X012703Y021338D03*
X013703Y021338D03*
X013703Y022338D03*
X012703Y022338D03*
X011703Y022338D03*
X010703Y022338D03*
X009703Y022338D03*
X008703Y022338D03*
X008703Y023338D03*
X009703Y023338D03*
X010703Y023338D03*
X011703Y023338D03*
X012703Y023338D03*
X013703Y023338D03*
X013703Y024338D03*
X012703Y024338D03*
X011703Y024338D03*
X010703Y024338D03*
X009703Y024338D03*
X008703Y024338D03*
X008703Y025338D03*
X009703Y025338D03*
X010703Y025338D03*
X011703Y025338D03*
X012703Y025338D03*
X013703Y025338D03*
X013703Y026338D03*
X012703Y026338D03*
X011703Y026338D03*
X010703Y026338D03*
X009703Y026338D03*
X008703Y026338D03*
X007703Y026338D03*
X006703Y026338D03*
X005703Y026338D03*
X004703Y026338D03*
X003703Y026338D03*
X002703Y026338D03*
X002703Y025338D03*
X003703Y025338D03*
X004703Y025338D03*
X005703Y025338D03*
X006703Y025338D03*
X007703Y025338D03*
X007703Y027338D03*
X006703Y027338D03*
X005703Y027338D03*
X004703Y027338D03*
X003703Y027338D03*
X002703Y027338D03*
X002703Y028338D03*
X002703Y029338D03*
X002703Y030338D03*
X002703Y031338D03*
X003703Y031338D03*
X004703Y031338D03*
X005703Y031338D03*
X006703Y031338D03*
X007703Y031338D03*
X007703Y030338D03*
X006703Y030338D03*
X005703Y030338D03*
X004703Y030338D03*
X003703Y030338D03*
X003703Y029338D03*
X004703Y029338D03*
X005703Y029338D03*
X006703Y029338D03*
X007703Y029338D03*
X007703Y028338D03*
X006703Y028338D03*
X005703Y028338D03*
X004703Y028338D03*
X003703Y028338D03*
X008703Y028338D03*
X009703Y028338D03*
X010703Y028338D03*
X011703Y028338D03*
X012703Y028338D03*
X013703Y028338D03*
X013703Y027338D03*
X012703Y027338D03*
X011703Y027338D03*
X010703Y027338D03*
X009703Y027338D03*
X008703Y027338D03*
X008703Y029338D03*
X009703Y029338D03*
X010703Y029338D03*
X011703Y029338D03*
X010703Y030338D03*
X009703Y030338D03*
X008703Y030338D03*
X008703Y031338D03*
X009703Y031338D03*
X014703Y028338D03*
X015703Y028338D03*
X016703Y028338D03*
X017703Y028338D03*
X018703Y028338D03*
X018703Y027338D03*
X017703Y027338D03*
X016703Y027338D03*
X015703Y027338D03*
X014703Y027338D03*
X014703Y026338D03*
X015703Y026338D03*
X016703Y026338D03*
X017703Y026338D03*
X018703Y026338D03*
X018703Y025338D03*
X017703Y025338D03*
X016703Y025338D03*
X015703Y025338D03*
X014703Y025338D03*
X014703Y024338D03*
X015703Y024338D03*
X016703Y024338D03*
X017703Y024338D03*
X018703Y024338D03*
X018703Y023338D03*
X017703Y023338D03*
X016703Y023338D03*
X015703Y023338D03*
X014703Y023338D03*
X014703Y022338D03*
X015703Y022338D03*
X016703Y022338D03*
X017703Y022338D03*
X018703Y022338D03*
X018703Y021338D03*
X017703Y021338D03*
X016703Y021338D03*
X015703Y021338D03*
X014703Y021338D03*
X019703Y022338D03*
X020703Y022338D03*
X021703Y022338D03*
X021703Y023338D03*
X020703Y023338D03*
X019703Y023338D03*
X019703Y024338D03*
X020703Y024338D03*
X021703Y024338D03*
X021703Y025338D03*
X020703Y025338D03*
X019703Y025338D03*
X019703Y026338D03*
X020703Y026338D03*
X021703Y026338D03*
X021703Y027338D03*
X020703Y027338D03*
X019703Y027338D03*
X019703Y028338D03*
X020703Y028338D03*
X021703Y028338D03*
X026703Y028338D03*
X027703Y028338D03*
X028703Y028338D03*
X029703Y028338D03*
X029703Y027338D03*
X028703Y027338D03*
X027703Y027338D03*
X026703Y027338D03*
X026703Y026338D03*
X027703Y026338D03*
X028703Y026338D03*
X029703Y026338D03*
X029703Y025338D03*
X028703Y025338D03*
X027703Y025338D03*
X026703Y025338D03*
X026703Y024338D03*
X027703Y024338D03*
X028703Y024338D03*
X029703Y024338D03*
X029703Y023338D03*
X028703Y023338D03*
X027703Y023338D03*
X026703Y023338D03*
X026703Y022338D03*
X027703Y022338D03*
X028703Y022338D03*
X029703Y022338D03*
X029703Y021338D03*
X028703Y021338D03*
X027703Y021338D03*
X026703Y021338D03*
X030703Y021338D03*
X031703Y021338D03*
X032703Y021338D03*
X033703Y021338D03*
X034703Y021338D03*
X034703Y022338D03*
X033703Y022338D03*
X032703Y022338D03*
X031703Y022338D03*
X030703Y022338D03*
X030703Y023338D03*
X031703Y023338D03*
X032703Y023338D03*
X033703Y023338D03*
X034703Y023338D03*
X034703Y024338D03*
X033703Y024338D03*
X032703Y024338D03*
X031703Y024338D03*
X030703Y024338D03*
X030703Y025338D03*
X031703Y025338D03*
X032703Y025338D03*
X033703Y025338D03*
X034703Y025338D03*
X034703Y026338D03*
X033703Y026338D03*
X032703Y026338D03*
X031703Y026338D03*
X030703Y026338D03*
X030703Y027338D03*
X031703Y027338D03*
X032703Y027338D03*
X033703Y027338D03*
X034703Y027338D03*
X034703Y028338D03*
X033703Y028338D03*
X032703Y028338D03*
X031703Y028338D03*
X030703Y028338D03*
X030703Y029338D03*
X031703Y029338D03*
X032703Y029338D03*
X033703Y029338D03*
X034703Y029338D03*
X034703Y030338D03*
X033703Y030338D03*
X032703Y030338D03*
X031703Y030338D03*
X030703Y030338D03*
X029703Y030338D03*
X028703Y030338D03*
X027703Y030338D03*
X027703Y029338D03*
X026703Y029338D03*
X028703Y029338D03*
X029703Y029338D03*
X029703Y031338D03*
X028703Y031338D03*
X030703Y031338D03*
X031703Y031338D03*
X032703Y031338D03*
X033703Y031338D03*
X034703Y031338D03*
X035703Y031338D03*
X036703Y031338D03*
X037703Y031338D03*
X038703Y031338D03*
X039703Y031338D03*
X040703Y031338D03*
X040703Y030338D03*
X039703Y030338D03*
X038703Y030338D03*
X037703Y030338D03*
X036703Y030338D03*
X035703Y030338D03*
X035703Y029338D03*
X036703Y029338D03*
X037703Y029338D03*
X038703Y029338D03*
X039703Y029338D03*
X040703Y029338D03*
X040703Y028338D03*
X039703Y028338D03*
X038703Y028338D03*
X037703Y028338D03*
X036703Y028338D03*
X035703Y028338D03*
X035703Y027338D03*
X036703Y027338D03*
X037703Y027338D03*
X038703Y027338D03*
X039703Y027338D03*
X040703Y027338D03*
X040703Y026338D03*
X039703Y026338D03*
X038703Y026338D03*
X037703Y026338D03*
X036703Y026338D03*
X035703Y026338D03*
X035703Y025338D03*
X036703Y025338D03*
X037703Y025338D03*
X038703Y025338D03*
X039703Y025338D03*
X040703Y025338D03*
X040703Y024338D03*
X039703Y024338D03*
X038703Y024338D03*
X037703Y024338D03*
X036703Y024338D03*
X035703Y024338D03*
X035703Y023338D03*
X036703Y023338D03*
X037703Y023338D03*
X038703Y023338D03*
X039703Y023338D03*
X040703Y023338D03*
X040703Y022338D03*
X039703Y022338D03*
X038703Y022338D03*
X037703Y022338D03*
X036703Y022338D03*
X035703Y022338D03*
X035703Y021338D03*
X036703Y021338D03*
X037703Y021338D03*
X038703Y021338D03*
X039703Y021338D03*
X040703Y021338D03*
D22*
X025703Y021338D03*
X024703Y021338D03*
X024703Y022338D03*
X023703Y022338D03*
X022703Y022338D03*
X022703Y023338D03*
X023703Y023338D03*
X024703Y023338D03*
X024703Y024338D03*
X023703Y024338D03*
X022703Y024338D03*
X022703Y025338D03*
X023703Y025338D03*
X024703Y025338D03*
X024703Y026338D03*
X023703Y026338D03*
X022703Y026338D03*
X022703Y027338D03*
X023703Y027338D03*
X024703Y027338D03*
X024703Y028338D03*
X023703Y028338D03*
X022703Y028338D03*
X025703Y028338D03*
X025703Y027338D03*
X025703Y026338D03*
X025703Y025338D03*
X025703Y024338D03*
X025703Y023338D03*
X025703Y022338D03*
D23*
X036453Y013838D02*
X036453Y013838D01*
X026953Y011213D02*
X026953Y010088D01*
X006953Y010088D02*
X006953Y011338D01*
D24*
X020703Y028338D02*
X021703Y028338D01*
X022703Y028338D01*
X023703Y028338D01*
X024703Y028338D01*
D25*
X025703Y028338D02*
X026703Y029338D01*
X026703Y030338D01*
X027703Y031338D01*
X028703Y031338D01*
X029703Y031338D01*
X030703Y031338D01*
X031703Y031338D01*
X032703Y031338D01*
X033703Y031338D01*
X034703Y031338D01*
X035703Y031338D01*
X036703Y031338D01*
X037703Y031338D01*
X038703Y031338D01*
X039703Y031338D01*
X040703Y031338D01*
X020703Y028338D02*
X019703Y029338D01*
X012703Y029338D01*
X010703Y031338D01*
X009703Y031338D01*
X008703Y031338D01*
X007703Y031338D01*
X006703Y031338D01*
X005703Y031338D01*
X004703Y031338D01*
X003703Y031338D01*
X002703Y031338D01*
M02*
