%
M48
M72
T01C0.0236
T02C0.0315
T03C0.0320
T04C0.0400
T05C0.0590
T06C0.1300
%
T01
X22451Y16838
X26951Y17338
X26451Y20088
X26701Y21338
X25701Y21338
X24701Y22338
X23701Y22338
X22701Y22338
X21701Y22338
X20701Y22338
X19701Y22338
X18701Y22338
X17701Y22338
X16701Y22338
X15701Y22338
X14701Y22338
X14701Y21338
X15701Y21338
X16701Y21338
X17701Y21338
X18701Y21338
X19701Y21338
X18701Y20338
X17701Y20338
X16701Y20338
X15701Y20338
X14701Y20338
X13701Y20338
X12701Y20338
X11701Y20338
X10701Y20338
X9701Y20338
X8701Y20338
X7701Y20338
X6701Y20338
X5701Y20338
X4701Y20338
X3701Y20338
X3701Y21338
X4701Y21338
X5701Y21338
X6701Y21338
X7701Y21338
X8701Y21338
X9701Y21338
X10701Y21338
X11701Y21338
X12701Y21338
X13701Y21338
X13701Y22338
X12701Y22338
X11701Y22338
X10701Y22338
X9701Y22338
X8701Y22338
X7701Y22338
X6701Y22338
X5701Y22338
X4701Y22338
X3701Y22338
X3701Y23338
X4701Y23338
X5701Y23338
X6701Y23338
X7701Y23338
X8701Y23338
X9701Y23338
X10701Y23338
X11701Y23338
X12701Y23338
X13701Y23338
X14701Y23338
X15701Y23338
X16701Y23338
X17701Y23338
X18701Y23338
X19701Y23338
X20701Y23338
X21701Y23338
X22701Y23338
X23701Y23338
X24701Y23338
X25701Y23338
X26701Y23338
X27701Y23338
X28701Y23338
X29701Y23338
X30701Y23338
X31701Y23338
X31701Y22338
X30701Y22338
X29701Y22338
X28701Y22338
X27701Y22338
X26701Y22338
X27701Y21338
X28701Y21338
X29701Y21338
X30701Y21338
X31701Y21338
X32701Y21338
X33701Y21338
X34701Y21338
X35701Y21338
X36701Y21338
X37701Y21338
X38701Y21338
X39701Y21338
X40701Y21338
X41701Y21338
X41701Y22338
X40701Y22338
X39701Y22338
X38701Y22338
X37701Y22338
X36701Y22338
X35701Y22338
X34701Y22338
X33701Y22338
X32701Y22338
X32701Y23338
X33701Y23338
X34701Y23338
X35701Y23338
X36701Y23338
X37701Y23338
X38701Y23338
X39701Y23338
X40701Y23338
X41701Y23338
X41701Y24338
X40701Y24338
X39701Y24338
X38701Y24338
X37701Y24338
X36701Y24338
X35701Y24338
X34701Y24338
X33701Y24338
X32701Y24338
X31701Y24338
X30701Y24338
X29701Y24338
X28701Y24338
X27701Y24338
X26701Y24338
X25701Y24338
X24701Y24338
X23701Y24338
X22701Y24338
X21701Y24338
X20701Y24338
X19701Y24338
X18701Y24338
X17701Y24338
X16701Y24338
X15701Y24338
X14701Y24338
X13701Y24338
X12701Y24338
X11701Y24338
X10701Y24338
X9701Y24338
X8701Y24338
X7701Y24338
X6701Y24338
X5701Y24338
X4701Y24338
X3701Y24338
X3701Y25338
X4701Y25338
X5701Y25338
X6701Y25338
X7701Y25338
X8701Y25338
X9701Y25338
X10701Y25338
X11701Y25338
X12701Y25338
X13701Y25338
X14701Y25338
X15701Y25338
X16701Y25338
X17701Y25338
X18701Y25338
X19701Y25338
X20701Y25338
X21701Y25338
X22701Y25338
X23701Y25338
X24701Y25338
X25701Y25338
X26701Y25338
X27701Y25338
X28701Y25338
X29701Y25338
X30701Y25338
X31701Y25338
X32701Y25338
X33701Y25338
X34701Y25338
X35701Y25338
X36701Y25338
X37701Y25338
X38701Y25338
X39701Y25338
X40701Y25338
X41701Y25338
X41701Y26338
X40701Y26338
X39701Y26338
X38701Y26338
X37701Y26338
X36701Y26338
X35701Y26338
X34701Y26338
X33701Y26338
X32701Y26338
X31701Y26338
X30701Y26338
X29701Y26338
X28701Y26338
X27701Y26338
X26701Y26338
X25701Y26338
X24701Y26338
X23701Y26338
X22701Y26338
X21701Y26338
X20701Y26338
X19701Y26338
X18701Y26338
X17701Y26338
X16701Y26338
X15701Y26338
X14701Y26338
X13701Y26338
X12701Y26338
X11701Y26338
X10701Y26338
X9701Y26338
X8701Y26338
X7701Y26338
X6701Y26338
X5701Y26338
X4701Y26338
X3701Y26338
X3701Y27338
X4701Y27338
X5701Y27338
X6701Y27338
X7701Y27338
X8701Y27338
X9701Y27338
X10701Y27338
X11701Y27338
X12701Y27338
X13701Y27338
X14701Y27338
X15701Y27338
X16701Y27338
X17701Y27338
X18701Y27338
X19701Y27338
X20701Y27338
X21701Y27338
X22701Y27338
X23701Y27338
X24701Y27338
X25701Y27338
X26701Y27338
X27701Y27338
X28701Y27338
X29701Y27338
X30701Y27338
X31701Y27338
X32701Y27338
X33701Y27338
X34701Y27338
X35701Y27338
X36701Y27338
X37701Y27338
X38701Y27338
X39701Y27338
X40701Y27338
X41701Y27338
X41701Y28338
X40701Y28338
X39701Y28338
X38701Y28338
X37701Y28338
X36701Y28338
X35701Y28338
X34701Y28338
X33701Y28338
X32701Y28338
X31701Y28338
X30701Y28338
X29701Y28338
X28701Y28338
X27701Y28338
X26701Y28338
X25701Y28338
X24701Y28338
X23701Y28338
X22701Y28338
X21701Y28338
X20701Y28338
X19701Y28338
X18701Y28338
X17701Y28338
X16701Y28338
X15701Y28338
X14701Y28338
X13701Y28338
X12701Y28338
X11701Y28338
X10701Y28338
X9701Y28338
X8701Y28338
X7701Y28338
X6701Y28338
X5701Y28338
X4701Y28338
X3701Y28338
X3701Y29338
X4701Y29338
X5701Y29338
X6701Y29338
X7701Y29338
X8701Y29338
X9701Y29338
X10701Y29338
X11701Y29338
X12701Y29338
X13701Y29338
X14701Y29338
X15701Y29338
X16701Y29338
X17701Y29338
X18701Y29338
X19701Y29338
X20701Y29338
X27701Y29338
X28701Y29338
X29701Y29338
X30701Y29338
X31701Y29338
X32701Y29338
X33701Y29338
X34701Y29338
X35701Y29338
X36701Y29338
X37701Y29338
X38701Y29338
X39701Y29338
X40701Y29338
X41701Y29338
X41701Y30338
X40701Y30338
X39701Y30338
X38701Y30338
X37701Y30338
X36701Y30338
X35701Y30338
X34701Y30338
X33701Y30338
X32701Y30338
X31701Y30338
X30701Y30338
X29701Y30338
X28701Y30338
X27701Y30338
X28701Y31338
X29701Y31338
X30701Y31338
X31701Y31338
X32701Y31338
X33701Y31338
X34701Y31338
X35701Y31338
X36701Y31338
X37701Y31338
X38701Y31338
X39701Y31338
X40701Y31338
X41701Y31338
X27701Y14338
X26451Y13838
X25701Y8338
X12701Y30338
X11701Y30338
X10701Y30338
X9701Y30338
X8701Y30338
X7701Y30338
X6701Y30338
X5701Y30338
X4701Y30338
X3701Y30338
X3701Y31338
X4701Y31338
X5701Y31338
X6701Y31338
X7701Y31338
X8701Y31338
X9701Y31338
X10701Y31338
X11701Y31338
T02
X14451Y31338
X15451Y31338
X16451Y31338
X17451Y31338
X18451Y31338
X19451Y31338
X21451Y31338
X22451Y31338
X23451Y31338
X24451Y31338
X25451Y31338
X26451Y31338
X26201Y12338
X25201Y12338
X24201Y12338
X23201Y12338
X21451Y12338
X20451Y12338
X19451Y12338
X18451Y12338
X17451Y12338
X16451Y12338
X15451Y12338
X14451Y12338
X27201Y12338
X28201Y12338
X29201Y12338
X30201Y12338
T03
X30201Y13338
X30201Y15338
X31576Y17338
X31576Y18338
X30201Y18338
X29451Y17838
X29451Y18838
X26951Y18338
X25951Y18338
X24951Y18338
X23951Y18338
X22951Y18338
X21951Y18338
X20951Y18338
X19951Y18338
X20701Y20588
X24701Y20588
X24951Y15338
X23951Y15338
X22951Y15338
X21951Y15338
X20951Y15338
X19951Y15338
X18951Y13588
X20951Y13588
X21701Y13588
X23701Y13588
X25951Y15338
X26951Y15338
X26951Y11188
X27951Y11213
X27951Y10088
X26951Y10088
X26951Y8838
X27951Y8838
X28951Y7838
X30951Y7838
X31951Y8838
X32951Y8838
X33951Y7838
X35951Y7838
X36951Y8838
X37951Y8838
X38951Y7838
X40951Y7838
X41951Y8838
X41951Y10088
X41951Y11338
X40951Y12338
X38951Y12338
X37951Y11338
X36951Y11338
X36951Y10088
X37951Y10088
X35951Y12338
X33951Y12338
X32951Y11338
X31951Y11213
X31951Y10088
X32951Y10088
X33951Y13838
X35951Y13838
X33576Y17338
X33576Y18338
X22951Y11188
X21951Y11188
X21951Y10088
X22951Y10088
X22951Y8838
X21951Y8838
X20701Y7838
X18701Y7838
X17951Y8838
X16951Y8838
X15939Y7838
X13939Y7838
X12951Y8838
X11951Y8838
X10951Y7838
X8951Y7838
X7951Y8838
X6951Y8838
X5951Y7838
X3951Y7838
X2951Y8838
X2951Y10088
X2951Y11338
X3826Y12463
X5826Y12463
X6951Y11338
X7951Y11338
X7951Y10088
X6951Y10088
X8826Y12463
X10826Y12463
X11951Y11338
X12951Y11151
X12951Y12088
X12951Y10088
X11951Y10088
X16951Y10088
X17951Y10088
X17951Y11188
X16951Y11151
X12951Y14088
X24201Y7838
X26201Y7838
T04
X37451Y13838
X38451Y13838
X39451Y13838
X40451Y13838
X41451Y13838
X42451Y13838
T05
X5031Y2368
X6881Y3648
X9011Y4908
X8021Y5458
X6671Y6598
X4011Y4908
X3021Y5458
X10031Y2368
X11881Y3648
X14011Y4908
X13021Y5458
X11671Y6598
X16671Y6598
X18021Y5458
X19011Y4908
X16881Y3648
X15031Y2368
X20031Y2368
X21881Y3648
X24011Y4908
X23021Y5458
X21671Y6598
X26671Y6598
X28021Y5458
X29011Y4908
X26881Y3648
X25031Y2368
X30031Y2368
X31881Y3648
X34011Y4908
X33021Y5458
X31671Y6598
X36671Y6598
X38021Y5458
X39011Y4908
X36881Y3648
X35031Y2368
X40031Y2368
X41881Y3648
X41671Y6598
T06
X44701Y17088
X9301Y17088
M30
