G75*
G70*
%OFA0B0*%
%FSLAX24Y24*%
%IPPOS*%
%LPD*%
%AMOC8*
5,1,8,0,0,1.08239X$1,22.5*
%
%ADD10OC8,0.0885*%
%ADD11C,0.0885*%
%ADD12OC8,0.0480*%
%ADD13C,0.0480*%
%ADD14C,0.0740*%
%ADD15OC8,0.0500*%
%ADD16C,0.0160*%
%ADD17C,0.0436*%
%ADD18C,0.0240*%
%ADD19C,0.0860*%
%ADD20C,0.0660*%
%ADD21C,0.0320*%
D10*
X005031Y002368D03*
X006881Y003648D03*
X010031Y002368D03*
X011881Y003648D03*
X015031Y002368D03*
X016881Y003648D03*
X020031Y002368D03*
X021881Y003648D03*
X025031Y002368D03*
X026881Y003648D03*
X030031Y002368D03*
X031881Y003648D03*
X035031Y002368D03*
X036881Y003648D03*
X040031Y002368D03*
X041881Y003648D03*
X041671Y006598D03*
X036671Y006598D03*
X031671Y006598D03*
X026671Y006598D03*
X021671Y006598D03*
X016671Y006598D03*
X011671Y006598D03*
X006671Y006598D03*
D11*
X008021Y005458D03*
X009011Y004908D03*
X013021Y005458D03*
X014011Y004908D03*
X018021Y005458D03*
X019011Y004908D03*
X023021Y005458D03*
X024011Y004908D03*
X028021Y005458D03*
X029011Y004908D03*
X033021Y005458D03*
X034011Y004908D03*
X038021Y005458D03*
X039011Y004908D03*
X004011Y004908D03*
X003021Y005458D03*
D12*
X003951Y007838D03*
X002951Y008838D03*
X002951Y010088D03*
X002951Y011338D03*
X003826Y012463D03*
X005826Y012463D03*
X006951Y011338D03*
X007951Y011338D03*
X007951Y010088D03*
X006951Y010088D03*
X006951Y008838D03*
X007951Y008838D03*
X008951Y007838D03*
X010951Y007838D03*
X011951Y008838D03*
X012951Y008838D03*
X013939Y007838D03*
X015939Y007838D03*
X016951Y008838D03*
X017951Y008838D03*
X018701Y007838D03*
X020701Y007838D03*
X021951Y008838D03*
X022951Y008838D03*
X024201Y007838D03*
X026201Y007838D03*
X026951Y008838D03*
X027951Y008838D03*
X028951Y007838D03*
X030951Y007838D03*
X031951Y008838D03*
X032951Y008838D03*
X033951Y007838D03*
X035951Y007838D03*
X036951Y008838D03*
X037951Y008838D03*
X038951Y007838D03*
X040951Y007838D03*
X041951Y008838D03*
X041951Y010088D03*
X041951Y011338D03*
X040951Y012338D03*
X038951Y012338D03*
X037951Y011338D03*
X036951Y011338D03*
X036951Y010088D03*
X037951Y010088D03*
X035951Y012338D03*
X033951Y012338D03*
X032951Y011338D03*
X031951Y011213D03*
X031951Y010088D03*
X032951Y010088D03*
X030201Y013338D03*
X030201Y015338D03*
X031576Y017338D03*
X031576Y018338D03*
X030201Y018338D03*
X029451Y017838D03*
X029451Y018838D03*
X033576Y018338D03*
X033576Y017338D03*
X033951Y013838D03*
X035951Y013838D03*
X027951Y011213D03*
X026951Y011188D03*
X026951Y010088D03*
X027951Y010088D03*
X022951Y010088D03*
X021951Y010088D03*
X021951Y011188D03*
X022951Y011188D03*
X023701Y013588D03*
X021701Y013588D03*
X020951Y013588D03*
X018951Y013588D03*
X017951Y011188D03*
X016951Y011151D03*
X016951Y010088D03*
X017951Y010088D03*
X012951Y010088D03*
X011951Y010088D03*
X011951Y011338D03*
X012951Y011151D03*
X012951Y012088D03*
X010826Y012463D03*
X008826Y012463D03*
X012951Y014088D03*
X005951Y007838D03*
X020701Y020588D03*
X024701Y020588D03*
D13*
X024951Y018578D02*
X024951Y018098D01*
X023951Y018098D02*
X023951Y018578D01*
X022951Y018578D02*
X022951Y018098D01*
X021951Y018098D02*
X021951Y018578D01*
X020951Y018578D02*
X020951Y018098D01*
X019951Y018098D02*
X019951Y018578D01*
X019951Y015578D02*
X019951Y015098D01*
X020951Y015098D02*
X020951Y015578D01*
X021951Y015578D02*
X021951Y015098D01*
X022951Y015098D02*
X022951Y015578D01*
X023951Y015578D02*
X023951Y015098D01*
X024951Y015098D02*
X024951Y015578D01*
X025951Y015578D02*
X025951Y015098D01*
X026951Y015098D02*
X026951Y015578D01*
X026951Y018098D02*
X026951Y018578D01*
X025951Y018578D02*
X025951Y018098D01*
D14*
X037451Y014208D02*
X037451Y013468D01*
X038451Y013468D02*
X038451Y014208D01*
X039451Y014208D02*
X039451Y013468D01*
X040451Y013468D02*
X040451Y014208D01*
X041451Y014208D02*
X041451Y013468D01*
X042451Y013468D02*
X042451Y014208D01*
D15*
X030201Y012338D03*
X029201Y012338D03*
X028201Y012338D03*
X027201Y012338D03*
X026201Y012338D03*
X025201Y012338D03*
X024201Y012338D03*
X023201Y012338D03*
X021451Y012338D03*
X020451Y012338D03*
X019451Y012338D03*
X018451Y012338D03*
X017451Y012338D03*
X016451Y012338D03*
X015451Y012338D03*
X014451Y012338D03*
X014451Y031338D03*
X015451Y031338D03*
X016451Y031338D03*
X017451Y031338D03*
X018451Y031338D03*
X019451Y031338D03*
X021451Y031338D03*
X022451Y031338D03*
X023451Y031338D03*
X024451Y031338D03*
X025451Y031338D03*
X026451Y031338D03*
D16*
X002786Y001882D02*
X002485Y002122D01*
X002245Y002423D01*
X002078Y002770D01*
X001992Y003146D01*
X001981Y003338D01*
X001981Y003387D01*
X001981Y003394D01*
X001981Y014838D01*
X019539Y014838D01*
X019544Y014826D01*
X019679Y014691D01*
X019759Y014658D01*
X014265Y014658D01*
X014137Y014658D01*
X014020Y014610D01*
X013351Y013941D01*
X013351Y014088D01*
X012951Y014088D01*
X012951Y014088D01*
X012951Y013688D01*
X012785Y013688D01*
X012551Y013923D01*
X012551Y014088D01*
X012951Y014088D01*
X012951Y013688D01*
X013099Y013688D01*
X012194Y012783D01*
X011185Y012783D01*
X011025Y012943D01*
X010627Y012943D01*
X010346Y012662D01*
X010346Y012264D01*
X010627Y011983D01*
X011025Y011983D01*
X011185Y012143D01*
X012390Y012143D01*
X012471Y012177D01*
X012471Y011889D01*
X012741Y011620D01*
X012471Y011350D01*
X012471Y010952D01*
X012752Y010671D01*
X013150Y010671D01*
X013431Y010952D01*
X013431Y011156D01*
X013707Y010879D01*
X013825Y010831D01*
X013952Y010831D01*
X016592Y010831D01*
X016752Y010671D01*
X017150Y010671D01*
X017431Y010952D01*
X017431Y011350D01*
X017150Y011631D01*
X016752Y011631D01*
X016592Y011471D01*
X014021Y011471D01*
X013431Y012061D01*
X013431Y012116D01*
X013959Y012643D01*
X014063Y012643D01*
X013961Y012541D01*
X013961Y012135D01*
X014248Y011848D01*
X014654Y011848D01*
X014941Y012135D01*
X014941Y012541D01*
X014839Y012643D01*
X015063Y012643D01*
X014961Y012541D01*
X014961Y012135D01*
X015248Y011848D01*
X015654Y011848D01*
X015941Y012135D01*
X015941Y012541D01*
X015839Y012643D01*
X016063Y012643D01*
X015961Y012541D01*
X015961Y012135D01*
X016248Y011848D01*
X016654Y011848D01*
X016941Y012135D01*
X016941Y012541D01*
X016839Y012643D01*
X017063Y012643D01*
X016961Y012541D01*
X016961Y012135D01*
X017248Y011848D01*
X017654Y011848D01*
X017941Y012135D01*
X017941Y012541D01*
X017839Y012643D01*
X018063Y012643D01*
X017961Y012541D01*
X017961Y012135D01*
X018248Y011848D01*
X018654Y011848D01*
X018941Y012135D01*
X018941Y012541D01*
X018839Y012643D01*
X019063Y012643D01*
X018961Y012541D01*
X018961Y012135D01*
X019248Y011848D01*
X019654Y011848D01*
X019941Y012135D01*
X019941Y012541D01*
X019774Y012708D01*
X019847Y012782D01*
X020471Y013406D01*
X020471Y013389D01*
X020752Y013108D01*
X021150Y013108D01*
X021383Y013341D01*
X021535Y013188D01*
X021701Y013188D01*
X021701Y013588D01*
X021701Y012781D01*
X021654Y012828D02*
X021248Y012828D01*
X020961Y012541D01*
X020961Y012135D01*
X021248Y011848D01*
X021654Y011848D01*
X021941Y012135D01*
X021941Y012541D01*
X021654Y012828D01*
X021701Y013188D02*
X021867Y013188D01*
X022101Y013423D01*
X022101Y013588D01*
X021701Y013588D01*
X021701Y013588D01*
X021701Y013188D01*
X021701Y013338D02*
X021701Y013338D01*
X021701Y013588D02*
X021701Y013588D01*
X021701Y013589D02*
X021701Y014636D01*
X021734Y014669D02*
X021856Y014618D01*
X022047Y014618D01*
X022131Y014653D01*
X022131Y011668D01*
X021752Y011668D01*
X021471Y011387D01*
X021471Y010989D01*
X021752Y010708D01*
X022131Y010708D01*
X022131Y010474D01*
X022117Y010488D01*
X021951Y010488D01*
X021785Y010488D01*
X021551Y010254D01*
X021551Y010088D01*
X021551Y009923D01*
X021785Y009688D01*
X021951Y009688D01*
X021951Y010088D01*
X021951Y010088D01*
X021951Y009688D01*
X022117Y009688D01*
X022131Y009703D01*
X022131Y009471D01*
X021979Y009318D01*
X021752Y009318D01*
X021592Y009158D01*
X020512Y009158D01*
X020395Y009110D01*
X020305Y009020D01*
X019181Y007896D01*
X019181Y008037D01*
X019021Y008197D01*
X019021Y009275D01*
X019021Y009402D01*
X018972Y009520D01*
X018431Y010061D01*
X018431Y010287D01*
X018271Y010447D01*
X018271Y010829D01*
X018431Y010989D01*
X018431Y011387D01*
X018150Y011668D01*
X017752Y011668D01*
X017471Y011387D01*
X017471Y010989D01*
X017631Y010829D01*
X017631Y010447D01*
X017471Y010287D01*
X017471Y009889D01*
X017631Y009729D01*
X017631Y009197D01*
X017471Y009037D01*
X017471Y008639D01*
X017752Y008358D01*
X018150Y008358D01*
X018381Y008590D01*
X018381Y008197D01*
X018221Y008037D01*
X018221Y007639D01*
X018327Y007533D01*
X017959Y007533D01*
X017271Y008221D01*
X017271Y008479D01*
X017431Y008639D01*
X017431Y009037D01*
X017150Y009318D01*
X016752Y009318D01*
X016592Y009158D01*
X014015Y009158D01*
X013887Y009158D01*
X013770Y009110D01*
X013431Y008771D01*
X013431Y009037D01*
X013150Y009318D01*
X012752Y009318D01*
X012471Y009037D01*
X012471Y008771D01*
X012431Y008811D01*
X012431Y009037D01*
X012150Y009318D01*
X011752Y009318D01*
X011592Y009158D01*
X010887Y009158D01*
X010770Y009110D01*
X010680Y009020D01*
X009431Y007771D01*
X009431Y008037D01*
X009150Y008318D01*
X008924Y008318D01*
X008431Y008811D01*
X008431Y009037D01*
X008271Y009197D01*
X008271Y009729D01*
X008431Y009889D01*
X008431Y010287D01*
X008150Y010568D01*
X007752Y010568D01*
X007471Y010287D01*
X007471Y009889D01*
X007631Y009729D01*
X007631Y009197D01*
X007471Y009037D01*
X007471Y008771D01*
X007431Y008811D01*
X007431Y009037D01*
X007150Y009318D01*
X006752Y009318D01*
X006471Y009037D01*
X006471Y008639D01*
X006752Y008358D01*
X006979Y008358D01*
X008305Y007032D01*
X008395Y006942D01*
X008512Y006893D01*
X009262Y006893D01*
X009390Y006893D01*
X009507Y006942D01*
X010471Y007906D01*
X010471Y007639D01*
X010752Y007358D01*
X011150Y007358D01*
X011431Y007639D01*
X011431Y008037D01*
X011150Y008318D01*
X010884Y008318D01*
X011084Y008518D01*
X011592Y008518D01*
X011752Y008358D01*
X011979Y008358D01*
X012520Y007817D01*
X012637Y007768D01*
X012765Y007768D01*
X013265Y007768D01*
X013382Y007817D01*
X013459Y007893D01*
X013459Y007639D01*
X013740Y007358D01*
X014137Y007358D01*
X014419Y007639D01*
X014419Y008037D01*
X014137Y008318D01*
X013884Y008318D01*
X014084Y008518D01*
X016592Y008518D01*
X016631Y008479D01*
X016631Y008025D01*
X016680Y007907D01*
X016770Y007817D01*
X017645Y006942D01*
X017762Y006893D01*
X017890Y006893D01*
X018887Y006893D01*
X019015Y006893D01*
X019132Y006942D01*
X020221Y008031D01*
X020221Y007639D01*
X020502Y007358D01*
X020900Y007358D01*
X021181Y007639D01*
X021181Y008037D01*
X020900Y008318D01*
X020509Y008318D01*
X020709Y008518D01*
X021592Y008518D01*
X021752Y008358D01*
X022150Y008358D01*
X022431Y008639D01*
X022431Y008866D01*
X022471Y008906D01*
X022471Y008639D01*
X022752Y008358D01*
X023150Y008358D01*
X023310Y008518D01*
X023694Y008518D01*
X023881Y008331D01*
X023881Y008197D01*
X023721Y008037D01*
X023721Y007639D01*
X024002Y007358D01*
X024400Y007358D01*
X024681Y007639D01*
X024681Y008037D01*
X024521Y008197D01*
X024521Y008527D01*
X024472Y008645D01*
X024382Y008735D01*
X024007Y009110D01*
X023890Y009158D01*
X023762Y009158D01*
X023310Y009158D01*
X023271Y009197D01*
X023271Y009729D01*
X023431Y009889D01*
X023431Y010287D01*
X023271Y010447D01*
X023271Y010829D01*
X023431Y010989D01*
X023431Y011387D01*
X023150Y011668D01*
X022771Y011668D01*
X022771Y012075D01*
X022998Y011848D01*
X023404Y011848D01*
X023691Y012135D01*
X023691Y012541D01*
X023404Y012828D01*
X022998Y012828D01*
X022771Y012601D01*
X022771Y014653D01*
X022856Y014618D01*
X023047Y014618D01*
X023223Y014691D01*
X023358Y014826D01*
X023431Y015003D01*
X023431Y015674D01*
X023358Y015850D01*
X023223Y015985D01*
X023047Y016058D01*
X022856Y016058D01*
X022771Y016023D01*
X022771Y016510D01*
X022839Y016579D01*
X022909Y016747D01*
X022909Y016929D01*
X022839Y017098D01*
X022711Y017227D01*
X022542Y017296D01*
X022360Y017296D01*
X022192Y017227D01*
X022063Y017098D01*
X021993Y016929D01*
X021993Y016747D01*
X022063Y016579D01*
X022131Y016510D01*
X022131Y016023D01*
X022047Y016058D01*
X021856Y016058D01*
X021679Y015985D01*
X021544Y015850D01*
X021471Y015674D01*
X021471Y015311D01*
X021431Y015271D01*
X021431Y015674D01*
X021358Y015850D01*
X021223Y015985D01*
X021047Y016058D01*
X020856Y016058D01*
X020679Y015985D01*
X020544Y015850D01*
X020471Y015674D01*
X020471Y015311D01*
X020431Y015271D01*
X020431Y015674D01*
X020358Y015850D01*
X020223Y015985D01*
X020047Y016058D01*
X019856Y016058D01*
X019701Y015994D01*
X019701Y017682D01*
X019856Y017618D01*
X020047Y017618D01*
X020223Y017691D01*
X020358Y017826D01*
X020431Y018003D01*
X020431Y018674D01*
X020358Y018850D01*
X020223Y018985D01*
X020047Y019058D01*
X019856Y019058D01*
X019701Y018994D01*
X019701Y019338D01*
X023749Y019338D01*
X023680Y019270D01*
X023631Y019152D01*
X023631Y019025D01*
X023631Y018937D01*
X023544Y018850D01*
X023471Y018674D01*
X023471Y018003D01*
X023544Y017826D01*
X023679Y017691D01*
X023856Y017618D01*
X024047Y017618D01*
X024223Y017691D01*
X024358Y017826D01*
X024431Y018003D01*
X024431Y018674D01*
X024358Y018850D01*
X024271Y018937D01*
X024271Y018956D01*
X024334Y019018D01*
X024759Y019018D01*
X024679Y018985D01*
X024544Y018850D01*
X024471Y018674D01*
X024471Y018003D01*
X024544Y017826D01*
X024656Y017715D01*
X024680Y017657D01*
X024770Y017567D01*
X025131Y017206D01*
X025131Y016023D01*
X025047Y016058D01*
X024856Y016058D01*
X024679Y015985D01*
X024544Y015850D01*
X024471Y015674D01*
X024471Y015003D01*
X024544Y014826D01*
X024631Y014739D01*
X024631Y013221D01*
X024520Y013110D01*
X024430Y013020D01*
X024381Y012902D01*
X024381Y012828D01*
X023998Y012828D01*
X023711Y012541D01*
X023711Y012135D01*
X023998Y011848D01*
X024381Y011848D01*
X024381Y011152D01*
X024381Y011025D01*
X024430Y010907D01*
X024930Y010407D01*
X025020Y010317D01*
X025137Y010268D01*
X026566Y010268D01*
X026551Y010254D01*
X026551Y010088D01*
X026551Y009923D01*
X026785Y009688D01*
X026951Y009688D01*
X026951Y010088D01*
X026951Y010088D01*
X026951Y009688D01*
X027117Y009688D01*
X027351Y009923D01*
X027351Y010088D01*
X026951Y010088D01*
X026551Y010088D01*
X026951Y010088D01*
X026951Y010088D01*
X026951Y010088D01*
X027351Y010088D01*
X027351Y010254D01*
X027337Y010268D01*
X027471Y010268D01*
X027471Y009889D01*
X027631Y009729D01*
X027631Y009197D01*
X027471Y009037D01*
X027471Y008771D01*
X027431Y008811D01*
X027431Y009037D01*
X027150Y009318D01*
X026752Y009318D01*
X026592Y009158D01*
X026265Y009158D01*
X026137Y009158D01*
X026020Y009110D01*
X025707Y008796D01*
X025610Y008796D01*
X025442Y008727D01*
X025313Y008598D01*
X025243Y008429D01*
X025243Y008247D01*
X025313Y008079D01*
X025442Y007950D01*
X025610Y007880D01*
X025721Y007880D01*
X025721Y007639D01*
X026002Y007358D01*
X026400Y007358D01*
X026681Y007639D01*
X026681Y008037D01*
X026400Y008318D01*
X026159Y008318D01*
X026159Y008344D01*
X026334Y008518D01*
X026592Y008518D01*
X026752Y008358D01*
X026979Y008358D01*
X028305Y007032D01*
X028395Y006942D01*
X028512Y006893D01*
X029262Y006893D01*
X029390Y006893D01*
X029507Y006942D01*
X030471Y007906D01*
X030471Y007639D01*
X030752Y007358D01*
X031150Y007358D01*
X031431Y007639D01*
X031431Y008037D01*
X031150Y008318D01*
X030884Y008318D01*
X031084Y008518D01*
X031592Y008518D01*
X031752Y008358D01*
X031979Y008358D01*
X033305Y007032D01*
X033395Y006942D01*
X033512Y006893D01*
X034262Y006893D01*
X034390Y006893D01*
X034507Y006942D01*
X035471Y007906D01*
X035471Y007639D01*
X035752Y007358D01*
X036150Y007358D01*
X036431Y007639D01*
X036431Y008037D01*
X036150Y008318D01*
X035884Y008318D01*
X036084Y008518D01*
X036592Y008518D01*
X036752Y008358D01*
X036979Y008358D01*
X038305Y007032D01*
X038395Y006942D01*
X038512Y006893D01*
X039262Y006893D01*
X039390Y006893D01*
X039507Y006942D01*
X040471Y007906D01*
X040471Y007639D01*
X040631Y007479D01*
X040631Y005652D01*
X040631Y005525D01*
X040680Y005407D01*
X041561Y004526D01*
X041561Y004293D01*
X041199Y003931D01*
X041199Y003366D01*
X041598Y002966D01*
X042164Y002966D01*
X042564Y003366D01*
X042564Y003931D01*
X042201Y004293D01*
X042201Y006163D01*
X042354Y006316D02*
X042354Y006881D01*
X041954Y007281D01*
X041388Y007281D01*
X041271Y007163D01*
X041271Y007479D01*
X041431Y007639D01*
X041431Y008037D01*
X041150Y008318D01*
X040884Y008318D01*
X041084Y008518D01*
X041592Y008518D01*
X041752Y008358D01*
X042150Y008358D01*
X042431Y008639D01*
X042431Y009037D01*
X042150Y009318D01*
X041752Y009318D01*
X041592Y009158D01*
X040887Y009158D01*
X040770Y009110D01*
X040680Y009020D01*
X040680Y009019D02*
X039431Y007771D01*
X039431Y008037D01*
X039150Y008318D01*
X038924Y008318D01*
X038431Y008811D01*
X038431Y009037D01*
X038267Y009201D01*
X040924Y011858D01*
X040979Y011858D01*
X041471Y011366D01*
X041471Y011139D01*
X041752Y010858D01*
X042150Y010858D01*
X042431Y011139D01*
X042431Y011537D01*
X042150Y011818D01*
X041924Y011818D01*
X041431Y012311D01*
X041431Y012537D01*
X041150Y012818D01*
X040752Y012818D01*
X040471Y012537D01*
X040471Y012311D01*
X038431Y010271D01*
X038431Y010287D01*
X038271Y010447D01*
X038271Y010979D01*
X038431Y011139D01*
X038431Y011537D01*
X038150Y011818D01*
X037752Y011818D01*
X037471Y011537D01*
X037471Y011139D01*
X037631Y010979D01*
X037631Y010447D01*
X037471Y010287D01*
X037471Y009889D01*
X037702Y009658D01*
X036084Y009658D01*
X033804Y011938D01*
X033951Y011938D01*
X033951Y012338D01*
X033951Y012338D01*
X033551Y012338D01*
X033551Y012191D01*
X033507Y012235D01*
X033390Y012283D01*
X033262Y012283D01*
X031512Y012283D01*
X031395Y012235D01*
X031305Y012145D01*
X031194Y012033D01*
X030589Y012033D01*
X030691Y012135D01*
X030691Y012541D01*
X030404Y012828D01*
X029998Y012828D01*
X029711Y012541D01*
X029711Y012135D01*
X029813Y012033D01*
X029589Y012033D01*
X029691Y012135D01*
X029691Y012541D01*
X029521Y012711D01*
X029521Y016025D01*
X029521Y016152D01*
X029472Y016270D01*
X027431Y018311D01*
X027431Y018656D01*
X030349Y015738D01*
X030201Y015738D01*
X030035Y015738D01*
X029801Y015504D01*
X029801Y015338D01*
X029801Y015173D01*
X030035Y014938D01*
X030201Y014938D01*
X030201Y015338D01*
X030201Y013818D01*
X030002Y013818D02*
X029721Y013537D01*
X029721Y013139D01*
X030002Y012858D01*
X030400Y012858D01*
X030681Y013139D01*
X030681Y013537D01*
X030400Y013818D01*
X030002Y013818D01*
X029521Y013838D02*
X032249Y013838D01*
X032201Y013886D02*
X032201Y012283D01*
X031701Y012283D02*
X031701Y014386D01*
X031749Y014338D02*
X029521Y014338D01*
X029521Y014838D02*
X031249Y014838D01*
X031201Y014886D02*
X031201Y012041D01*
X031326Y011713D02*
X028076Y011713D01*
X027701Y012088D01*
X027701Y013588D01*
X026951Y014338D01*
X026951Y015338D01*
X026451Y015963D02*
X026451Y013838D01*
X025451Y013088D02*
X026201Y012338D01*
X025451Y013088D02*
X025451Y017338D01*
X024951Y017838D01*
X024951Y018338D01*
X024471Y018338D02*
X024431Y018338D01*
X023951Y018338D02*
X023951Y019088D01*
X024201Y019338D01*
X026201Y019338D01*
X026451Y019088D01*
X026451Y016963D01*
X027701Y015713D01*
X027701Y014338D01*
X029521Y013338D02*
X029721Y013338D01*
X029521Y012838D02*
X045921Y012838D01*
X045921Y013338D02*
X043057Y013338D01*
X043061Y013347D02*
X043061Y014330D01*
X042968Y014554D01*
X042797Y014725D01*
X042572Y014818D01*
X042330Y014818D01*
X042106Y014725D01*
X041951Y014571D01*
X041797Y014725D01*
X041572Y014818D01*
X041330Y014818D01*
X041106Y014725D01*
X040951Y014571D01*
X040797Y014725D01*
X040572Y014818D01*
X040330Y014818D01*
X040106Y014725D01*
X039951Y014571D01*
X039797Y014725D01*
X039572Y014818D01*
X039330Y014818D01*
X039106Y014725D01*
X038951Y014571D01*
X038797Y014725D01*
X038572Y014818D01*
X038330Y014818D01*
X038106Y014725D01*
X037951Y014571D01*
X037797Y014725D01*
X037572Y014818D01*
X037330Y014818D01*
X037106Y014725D01*
X036934Y014554D01*
X036841Y014330D01*
X036841Y013347D01*
X036934Y013123D01*
X037106Y012951D01*
X037330Y012858D01*
X037572Y012858D01*
X037797Y012951D01*
X037951Y013106D01*
X038106Y012951D01*
X038330Y012858D01*
X038572Y012858D01*
X038797Y012951D01*
X038951Y013106D01*
X039106Y012951D01*
X039330Y012858D01*
X039572Y012858D01*
X039797Y012951D01*
X039951Y013106D01*
X040106Y012951D01*
X040330Y012858D01*
X040572Y012858D01*
X040797Y012951D01*
X040951Y013106D01*
X041106Y012951D01*
X041330Y012858D01*
X041572Y012858D01*
X041797Y012951D01*
X041951Y013106D01*
X042106Y012951D01*
X042330Y012858D01*
X042572Y012858D01*
X042797Y012951D01*
X042968Y013123D01*
X043061Y013347D01*
X042701Y012912D02*
X042701Y001618D01*
X042201Y001618D02*
X042201Y003003D01*
X042536Y003338D02*
X045921Y003338D01*
X045910Y003146D01*
X045825Y002770D01*
X045657Y002423D01*
X045417Y002122D01*
X045116Y001882D01*
X044769Y001715D01*
X044394Y001629D01*
X044201Y001618D01*
X044201Y016196D01*
X044188Y016200D02*
X044523Y016078D01*
X044645Y016078D01*
X044645Y016078D01*
X044672Y016078D01*
X044701Y016078D01*
X044701Y001699D01*
X045026Y001838D02*
X040353Y001838D01*
X040281Y001766D02*
X040634Y002119D01*
X040634Y002301D01*
X040099Y002301D01*
X040099Y002436D01*
X040634Y002436D01*
X040634Y002618D01*
X040281Y002971D01*
X040099Y002971D01*
X040099Y002436D01*
X039964Y002436D01*
X039964Y002971D01*
X039782Y002971D01*
X039429Y002618D01*
X039429Y002436D01*
X039963Y002436D01*
X039963Y002301D01*
X039429Y002301D01*
X039429Y002119D01*
X039782Y001766D01*
X039964Y001766D01*
X039964Y002301D01*
X040099Y002301D01*
X040099Y001766D01*
X040281Y001766D01*
X040201Y001766D02*
X040201Y001618D01*
X040099Y001838D02*
X039964Y001838D01*
X039709Y001838D02*
X035353Y001838D01*
X035281Y001766D02*
X035634Y002119D01*
X035634Y002301D01*
X035099Y002301D01*
X035099Y002436D01*
X035634Y002436D01*
X035634Y002618D01*
X035281Y002971D01*
X035099Y002971D01*
X035099Y002436D01*
X034964Y002436D01*
X034964Y002971D01*
X034782Y002971D01*
X034429Y002618D01*
X034429Y002436D01*
X034963Y002436D01*
X034963Y002301D01*
X034429Y002301D01*
X034429Y002119D01*
X034782Y001766D01*
X034964Y001766D01*
X034964Y002301D01*
X035099Y002301D01*
X035099Y001766D01*
X035281Y001766D01*
X035201Y001766D02*
X035201Y001618D01*
X035099Y001838D02*
X034964Y001838D01*
X034709Y001838D02*
X030353Y001838D01*
X030281Y001766D02*
X030634Y002119D01*
X030634Y002301D01*
X030099Y002301D01*
X030099Y002436D01*
X030634Y002436D01*
X030634Y002618D01*
X030281Y002971D01*
X030099Y002971D01*
X030099Y002436D01*
X029964Y002436D01*
X029964Y002971D01*
X029782Y002971D01*
X029429Y002618D01*
X029429Y002436D01*
X029963Y002436D01*
X029963Y002301D01*
X029429Y002301D01*
X029429Y002119D01*
X029782Y001766D01*
X029964Y001766D01*
X029964Y002301D01*
X030099Y002301D01*
X030099Y001766D01*
X030281Y001766D01*
X030201Y001766D02*
X030201Y001618D01*
X030099Y001838D02*
X029964Y001838D01*
X029709Y001838D02*
X025353Y001838D01*
X025281Y001766D02*
X025634Y002119D01*
X025634Y002301D01*
X025099Y002301D01*
X025099Y002436D01*
X025634Y002436D01*
X025634Y002618D01*
X025281Y002971D01*
X025099Y002971D01*
X025099Y002436D01*
X024964Y002436D01*
X024964Y002971D01*
X024782Y002971D01*
X024429Y002618D01*
X024429Y002436D01*
X024963Y002436D01*
X024963Y002301D01*
X024429Y002301D01*
X024429Y002119D01*
X024782Y001766D01*
X024964Y001766D01*
X024964Y002301D01*
X025099Y002301D01*
X025099Y001766D01*
X025281Y001766D01*
X025201Y001766D02*
X025201Y001618D01*
X025099Y001838D02*
X024964Y001838D01*
X024709Y001838D02*
X020353Y001838D01*
X020281Y001766D02*
X020634Y002119D01*
X020634Y002301D01*
X020099Y002301D01*
X020099Y002436D01*
X020634Y002436D01*
X020634Y002618D01*
X020281Y002971D01*
X020099Y002971D01*
X020099Y002436D01*
X019964Y002436D01*
X019964Y002971D01*
X019782Y002971D01*
X019429Y002618D01*
X019429Y002436D01*
X019963Y002436D01*
X019963Y002301D01*
X019429Y002301D01*
X019429Y002119D01*
X019782Y001766D01*
X019964Y001766D01*
X019964Y002301D01*
X020099Y002301D01*
X020099Y001766D01*
X020281Y001766D01*
X020201Y001766D02*
X020201Y001618D01*
X020099Y001838D02*
X019964Y001838D01*
X019709Y001838D02*
X015353Y001838D01*
X015281Y001766D02*
X015634Y002119D01*
X015634Y002301D01*
X015099Y002301D01*
X015099Y002436D01*
X015634Y002436D01*
X015634Y002618D01*
X015281Y002971D01*
X015099Y002971D01*
X015099Y002436D01*
X014964Y002436D01*
X014964Y002971D01*
X014782Y002971D01*
X014429Y002618D01*
X014429Y002436D01*
X014963Y002436D01*
X014963Y002301D01*
X014429Y002301D01*
X014429Y002119D01*
X014782Y001766D01*
X014964Y001766D01*
X014964Y002301D01*
X015099Y002301D01*
X015099Y001766D01*
X015281Y001766D01*
X015201Y001766D02*
X015201Y001618D01*
X015099Y001838D02*
X014964Y001838D01*
X014709Y001838D02*
X010353Y001838D01*
X010281Y001766D02*
X010634Y002119D01*
X010634Y002301D01*
X010099Y002301D01*
X010099Y002436D01*
X010634Y002436D01*
X010634Y002618D01*
X010281Y002971D01*
X010099Y002971D01*
X010099Y002436D01*
X009964Y002436D01*
X009964Y002971D01*
X009782Y002971D01*
X009429Y002618D01*
X009429Y002436D01*
X009963Y002436D01*
X009963Y002301D01*
X009429Y002301D01*
X009429Y002119D01*
X009782Y001766D01*
X009964Y001766D01*
X009964Y002301D01*
X010099Y002301D01*
X010099Y001766D01*
X010281Y001766D01*
X010201Y001766D02*
X010201Y001618D01*
X010099Y001838D02*
X009964Y001838D01*
X009709Y001838D02*
X005353Y001838D01*
X005281Y001766D02*
X005634Y002119D01*
X005634Y002301D01*
X005099Y002301D01*
X005099Y002436D01*
X005634Y002436D01*
X005634Y002618D01*
X005281Y002971D01*
X005099Y002971D01*
X005099Y002436D01*
X004964Y002436D01*
X004964Y002971D01*
X004782Y002971D01*
X004429Y002618D01*
X004429Y002436D01*
X004963Y002436D01*
X004963Y002301D01*
X004429Y002301D01*
X004429Y002119D01*
X004782Y001766D01*
X004964Y001766D01*
X004964Y002301D01*
X005099Y002301D01*
X005099Y001766D01*
X005281Y001766D01*
X005201Y001766D02*
X005201Y001618D01*
X005099Y001838D02*
X004964Y001838D01*
X004709Y001838D02*
X002876Y001838D01*
X002786Y001882D02*
X003133Y001715D01*
X003508Y001629D01*
X003701Y001618D01*
X003701Y004298D01*
X003624Y004330D02*
X003875Y004226D01*
X004147Y004226D01*
X004398Y004330D01*
X004590Y004522D01*
X004694Y004772D01*
X004694Y005044D01*
X004655Y005138D01*
X007415Y005138D01*
X007442Y005072D01*
X007634Y004880D01*
X007885Y004776D01*
X008157Y004776D01*
X008329Y004847D01*
X008329Y004772D01*
X008432Y004522D01*
X008624Y004330D01*
X008875Y004226D01*
X009147Y004226D01*
X009398Y004330D01*
X009590Y004522D01*
X009694Y004772D01*
X009694Y005044D01*
X009655Y005138D01*
X012415Y005138D01*
X012442Y005072D01*
X012634Y004880D01*
X012885Y004776D01*
X013157Y004776D01*
X013329Y004847D01*
X013329Y004772D01*
X013432Y004522D01*
X013624Y004330D01*
X013875Y004226D01*
X014147Y004226D01*
X014398Y004330D01*
X014590Y004522D01*
X014694Y004772D01*
X014694Y005044D01*
X014655Y005138D01*
X017415Y005138D01*
X017442Y005072D01*
X017634Y004880D01*
X017885Y004776D01*
X018157Y004776D01*
X018329Y004847D01*
X018329Y004772D01*
X018432Y004522D01*
X018624Y004330D01*
X018875Y004226D01*
X019147Y004226D01*
X019398Y004330D01*
X019590Y004522D01*
X019694Y004772D01*
X019694Y005044D01*
X019655Y005138D01*
X022415Y005138D01*
X022442Y005072D01*
X022634Y004880D01*
X022885Y004776D01*
X023157Y004776D01*
X023329Y004847D01*
X023329Y004772D01*
X023432Y004522D01*
X023624Y004330D01*
X023875Y004226D01*
X024147Y004226D01*
X024398Y004330D01*
X024590Y004522D01*
X024694Y004772D01*
X024694Y005044D01*
X024655Y005138D01*
X027415Y005138D01*
X027442Y005072D01*
X027634Y004880D01*
X027885Y004776D01*
X028157Y004776D01*
X028329Y004847D01*
X028329Y004772D01*
X028432Y004522D01*
X028624Y004330D01*
X028875Y004226D01*
X029147Y004226D01*
X029398Y004330D01*
X029590Y004522D01*
X029694Y004772D01*
X029694Y005044D01*
X029655Y005138D01*
X032415Y005138D01*
X032442Y005072D01*
X032634Y004880D01*
X032885Y004776D01*
X033157Y004776D01*
X033329Y004847D01*
X033329Y004772D01*
X033432Y004522D01*
X033624Y004330D01*
X033875Y004226D01*
X034147Y004226D01*
X034398Y004330D01*
X034590Y004522D01*
X034694Y004772D01*
X034694Y005044D01*
X034655Y005138D01*
X037415Y005138D01*
X037442Y005072D01*
X037634Y004880D01*
X037885Y004776D01*
X038157Y004776D01*
X038329Y004847D01*
X038329Y004772D01*
X038432Y004522D01*
X038624Y004330D01*
X038875Y004226D01*
X039147Y004226D01*
X039398Y004330D01*
X039590Y004522D01*
X039694Y004772D01*
X039694Y005044D01*
X039590Y005295D01*
X039398Y005487D01*
X039147Y005591D01*
X038875Y005591D01*
X038704Y005520D01*
X038704Y005594D01*
X038600Y005845D01*
X038408Y006037D01*
X038157Y006141D01*
X037885Y006141D01*
X037634Y006037D01*
X037442Y005845D01*
X037415Y005778D01*
X034714Y005778D01*
X034472Y006020D01*
X034382Y006110D01*
X034265Y006158D01*
X033337Y006158D01*
X033226Y006112D01*
X033157Y006141D01*
X032885Y006141D01*
X032634Y006037D01*
X032442Y005845D01*
X032415Y005778D01*
X029714Y005778D01*
X029472Y006020D01*
X029382Y006110D01*
X029265Y006158D01*
X028337Y006158D01*
X028226Y006112D01*
X028157Y006141D01*
X027885Y006141D01*
X027634Y006037D01*
X027442Y005845D01*
X027415Y005778D01*
X024714Y005778D01*
X024472Y006020D01*
X024382Y006110D01*
X024265Y006158D01*
X023337Y006158D01*
X023226Y006112D01*
X023157Y006141D01*
X022885Y006141D01*
X022634Y006037D01*
X022442Y005845D01*
X022415Y005778D01*
X019714Y005778D01*
X019472Y006020D01*
X019382Y006110D01*
X019265Y006158D01*
X018337Y006158D01*
X018226Y006112D01*
X018157Y006141D01*
X017885Y006141D01*
X017634Y006037D01*
X017442Y005845D01*
X017415Y005778D01*
X014714Y005778D01*
X014472Y006020D01*
X014382Y006110D01*
X014265Y006158D01*
X013337Y006158D01*
X013226Y006112D01*
X013157Y006141D01*
X012885Y006141D01*
X012634Y006037D01*
X012442Y005845D01*
X012415Y005778D01*
X009714Y005778D01*
X009472Y006020D01*
X009382Y006110D01*
X009265Y006158D01*
X008465Y006158D01*
X008337Y006158D01*
X008226Y006112D01*
X008157Y006141D01*
X007885Y006141D01*
X007634Y006037D01*
X007442Y005845D01*
X007415Y005778D01*
X004714Y005778D01*
X004472Y006019D01*
X004472Y006020D02*
X004382Y006110D01*
X004265Y006158D01*
X003515Y006158D01*
X003387Y006158D01*
X003270Y006110D01*
X003259Y006099D01*
X003157Y006141D01*
X002885Y006141D01*
X002634Y006037D01*
X002442Y005845D01*
X002339Y005594D01*
X002339Y005322D01*
X002442Y005072D01*
X002634Y004880D01*
X002885Y004776D01*
X003157Y004776D01*
X003329Y004847D01*
X003329Y004772D01*
X003432Y004522D01*
X003624Y004330D01*
X003616Y004338D02*
X001981Y004338D01*
X001981Y003838D02*
X006199Y003838D01*
X006199Y003931D02*
X006199Y003366D01*
X006598Y002966D01*
X007164Y002966D01*
X007564Y003366D01*
X007564Y003931D01*
X007164Y004331D01*
X006598Y004331D01*
X006199Y003931D01*
X006201Y003933D02*
X006201Y005138D01*
X005701Y005138D02*
X005701Y001618D01*
X006201Y001618D02*
X006201Y003363D01*
X006226Y003338D02*
X001981Y003338D01*
X002062Y002838D02*
X004649Y002838D01*
X004701Y002890D02*
X004701Y005138D01*
X004694Y004838D02*
X007734Y004838D01*
X007701Y004852D02*
X007701Y001618D01*
X007201Y001618D02*
X007201Y003003D01*
X007536Y003338D02*
X011226Y003338D01*
X011201Y003363D02*
X011201Y001618D01*
X010701Y001618D02*
X010701Y005138D01*
X010201Y005138D02*
X010201Y002971D01*
X010099Y002838D02*
X009964Y002838D01*
X009701Y002890D02*
X009701Y005138D01*
X009694Y004838D02*
X012734Y004838D01*
X012701Y004852D02*
X012701Y001618D01*
X012201Y001618D02*
X012201Y003003D01*
X012164Y002966D02*
X012564Y003366D01*
X012564Y003931D01*
X012164Y004331D01*
X011598Y004331D01*
X011199Y003931D01*
X011199Y003366D01*
X011598Y002966D01*
X012164Y002966D01*
X011701Y002966D02*
X011701Y001618D01*
X013201Y001618D02*
X013201Y004794D01*
X013308Y004838D02*
X013329Y004838D01*
X013616Y004338D02*
X009406Y004338D01*
X009201Y004248D02*
X009201Y001618D01*
X008701Y001618D02*
X008701Y004298D01*
X008616Y004338D02*
X004406Y004338D01*
X004201Y004248D02*
X004201Y001618D01*
X003701Y001618D02*
X044201Y001618D01*
X043701Y001618D02*
X043701Y016943D01*
X043720Y016838D02*
X030154Y016838D01*
X030201Y016791D02*
X030201Y017858D01*
X030002Y017858D02*
X030400Y017858D01*
X030681Y018139D01*
X030681Y018537D01*
X030400Y018818D01*
X030002Y018818D01*
X029721Y018537D01*
X029721Y018247D01*
X029650Y018318D01*
X029252Y018318D01*
X028971Y018037D01*
X028971Y018021D01*
X027654Y019338D01*
X045921Y019338D01*
X045921Y003338D01*
X045840Y002838D02*
X040413Y002838D01*
X040201Y002971D02*
X040201Y007636D01*
X040404Y007838D02*
X040471Y007838D01*
X040951Y007838D02*
X040951Y005588D01*
X041881Y004658D01*
X041881Y003648D01*
X042564Y003838D02*
X045921Y003838D01*
X045921Y004338D02*
X042201Y004338D01*
X042201Y004293D02*
X042201Y004595D01*
X042201Y004722D01*
X042152Y004840D01*
X041271Y005721D01*
X041271Y006033D01*
X041388Y005916D01*
X041954Y005916D01*
X042354Y006316D01*
X042354Y006338D02*
X045921Y006338D01*
X045921Y005838D02*
X041271Y005838D01*
X041701Y005916D02*
X041701Y005291D01*
X041654Y005338D02*
X045921Y005338D01*
X045921Y004838D02*
X042153Y004838D01*
X041249Y004838D02*
X039694Y004838D01*
X039546Y005338D02*
X040749Y005338D01*
X040701Y005386D02*
X040701Y001618D01*
X041201Y001618D02*
X041201Y003363D01*
X041226Y003338D02*
X037536Y003338D01*
X037564Y003366D02*
X037164Y002966D01*
X036598Y002966D01*
X036199Y003366D01*
X036199Y003931D01*
X036598Y004331D01*
X037164Y004331D01*
X037564Y003931D01*
X037564Y003366D01*
X037564Y003838D02*
X041199Y003838D01*
X041201Y003933D02*
X041201Y004886D01*
X041561Y004338D02*
X039406Y004338D01*
X039201Y004248D02*
X039201Y001618D01*
X038701Y001618D02*
X038701Y004298D01*
X038616Y004338D02*
X034406Y004338D01*
X034201Y004248D02*
X034201Y001618D01*
X033701Y001618D02*
X033701Y004298D01*
X033616Y004338D02*
X029406Y004338D01*
X029201Y004248D02*
X029201Y001618D01*
X028701Y001618D02*
X028701Y004298D01*
X028616Y004338D02*
X024406Y004338D01*
X024201Y004248D02*
X024201Y001618D01*
X023701Y001618D02*
X023701Y004298D01*
X023616Y004338D02*
X019406Y004338D01*
X019201Y004248D02*
X019201Y001618D01*
X018701Y001618D02*
X018701Y004298D01*
X018616Y004338D02*
X014406Y004338D01*
X014201Y004248D02*
X014201Y001618D01*
X013701Y001618D02*
X013701Y004298D01*
X012564Y003838D02*
X016199Y003838D01*
X016199Y003931D02*
X016199Y003366D01*
X016598Y002966D01*
X017164Y002966D01*
X017564Y003366D01*
X017564Y003931D01*
X017164Y004331D01*
X016598Y004331D01*
X016199Y003931D01*
X016201Y003933D02*
X016201Y005138D01*
X015701Y005138D02*
X015701Y001618D01*
X016201Y001618D02*
X016201Y003363D01*
X016226Y003338D02*
X012536Y003338D01*
X012201Y004293D02*
X012201Y005138D01*
X011701Y005138D02*
X011701Y004331D01*
X011201Y003933D02*
X011201Y005138D01*
X011201Y005778D02*
X011201Y006103D01*
X011388Y005916D02*
X010989Y006316D01*
X010989Y006881D01*
X011388Y007281D01*
X011954Y007281D01*
X012354Y006881D01*
X012354Y006316D01*
X011954Y005916D01*
X011388Y005916D01*
X011701Y005916D02*
X011701Y005778D01*
X012201Y005778D02*
X012201Y006163D01*
X012354Y006338D02*
X015989Y006338D01*
X015989Y006316D02*
X016388Y005916D01*
X016954Y005916D01*
X017354Y006316D01*
X017354Y006881D01*
X016954Y007281D01*
X016388Y007281D01*
X015989Y006881D01*
X015989Y006316D01*
X016201Y006103D02*
X016201Y005778D01*
X015701Y005778D02*
X015701Y007397D01*
X015740Y007358D02*
X016137Y007358D01*
X016419Y007639D01*
X016419Y008037D01*
X016137Y008318D01*
X015740Y008318D01*
X015459Y008037D01*
X015459Y007639D01*
X015740Y007358D01*
X016201Y007422D02*
X016201Y007093D01*
X015989Y006838D02*
X012354Y006838D01*
X012201Y007033D02*
X012201Y008136D01*
X011999Y008338D02*
X010904Y008338D01*
X011201Y008267D02*
X011201Y008518D01*
X010951Y008838D02*
X011951Y008838D01*
X012701Y008088D01*
X013201Y008088D01*
X013951Y008838D01*
X016951Y008838D01*
X016951Y008088D01*
X017826Y007213D01*
X018951Y007213D01*
X020576Y008838D01*
X021951Y008838D01*
X022451Y009338D01*
X022451Y016838D01*
X021993Y016838D02*
X019701Y016838D01*
X019201Y016838D02*
X010283Y016838D01*
X010265Y016737D02*
X010327Y017088D01*
X010327Y017088D01*
X010265Y017439D01*
X010087Y017747D01*
X010087Y017747D01*
X009814Y017976D01*
X009814Y017976D01*
X009479Y018098D01*
X009357Y018098D01*
X009357Y018098D01*
X009301Y018098D01*
X009299Y018098D01*
X009245Y018098D01*
X009123Y018098D01*
X008788Y017976D01*
X008516Y017747D01*
X008515Y017747D02*
X008337Y017439D01*
X008276Y017088D01*
X008337Y016738D01*
X008337Y016737D01*
X008515Y016429D01*
X008788Y016200D01*
X008788Y016200D01*
X009123Y016078D01*
X009245Y016078D01*
X009245Y016078D01*
X009301Y016078D01*
X009316Y016078D01*
X009357Y016078D01*
X009357Y016078D01*
X009479Y016078D01*
X009814Y016200D01*
X010087Y016429D01*
X010265Y016737D01*
X010201Y016627D02*
X010201Y015338D01*
X010201Y014838D02*
X010201Y008541D01*
X009999Y008338D02*
X008904Y008338D01*
X008701Y008541D02*
X008701Y012063D01*
X008660Y012063D02*
X008826Y012063D01*
X008826Y012463D01*
X008826Y012463D01*
X008826Y012063D01*
X008992Y012063D01*
X009226Y012298D01*
X009226Y012463D01*
X008826Y012463D01*
X008426Y012463D01*
X008426Y012298D01*
X008660Y012063D01*
X008826Y012338D02*
X008826Y012338D01*
X008826Y012463D02*
X008826Y012463D01*
X008826Y012463D01*
X008426Y012463D01*
X008426Y012629D01*
X008660Y012863D01*
X008826Y012863D01*
X008826Y012464D01*
X008826Y012464D01*
X008826Y012863D01*
X008992Y012863D01*
X009226Y012629D01*
X009226Y012463D01*
X008826Y012463D01*
X008701Y012463D02*
X008701Y012463D01*
X008426Y012338D02*
X006306Y012338D01*
X006306Y012264D02*
X006025Y011983D01*
X005627Y011983D01*
X005346Y012264D01*
X005346Y012662D01*
X005627Y012943D01*
X006025Y012943D01*
X006306Y012662D01*
X006306Y012264D01*
X006201Y012159D02*
X006201Y008267D01*
X006150Y008318D02*
X006431Y008037D01*
X006431Y007639D01*
X006150Y007358D01*
X005752Y007358D01*
X005471Y007639D01*
X005471Y008037D01*
X005752Y008318D01*
X006150Y008318D01*
X005701Y008267D02*
X005701Y011983D01*
X005346Y012338D02*
X004226Y012338D01*
X004226Y012298D02*
X004226Y012463D01*
X003826Y012463D01*
X003826Y012463D01*
X003826Y012063D01*
X003660Y012063D01*
X003426Y012298D01*
X003426Y012463D01*
X003826Y012463D01*
X003826Y012063D01*
X003992Y012063D01*
X004226Y012298D01*
X004201Y012273D02*
X004201Y008267D01*
X004150Y008318D02*
X003924Y008318D01*
X003431Y008811D01*
X003431Y009037D01*
X003271Y009197D01*
X003271Y009729D01*
X003431Y009889D01*
X003431Y010287D01*
X003271Y010447D01*
X003271Y010979D01*
X003431Y011139D01*
X003431Y011537D01*
X003150Y011818D01*
X002752Y011818D01*
X002471Y011537D01*
X002471Y011139D01*
X002631Y010979D01*
X002631Y010447D01*
X002471Y010287D01*
X002471Y009889D01*
X002631Y009729D01*
X002631Y009197D01*
X002471Y009037D01*
X002471Y008639D01*
X002752Y008358D01*
X002979Y008358D01*
X003471Y007866D01*
X003471Y007639D01*
X003752Y007358D01*
X004150Y007358D01*
X004431Y007639D01*
X004431Y008037D01*
X004150Y008318D01*
X003904Y008338D02*
X006999Y008338D01*
X007201Y008136D02*
X007201Y007033D01*
X007354Y006881D02*
X006954Y007281D01*
X006388Y007281D01*
X005989Y006881D01*
X005989Y006316D01*
X006388Y005916D01*
X006954Y005916D01*
X007354Y006316D01*
X007354Y006881D01*
X007354Y006838D02*
X010989Y006838D01*
X011201Y007093D02*
X011201Y007409D01*
X011431Y007838D02*
X012499Y007838D01*
X012701Y007768D02*
X012701Y006064D01*
X012440Y005838D02*
X009654Y005838D01*
X009701Y005791D02*
X009701Y007136D01*
X009904Y007338D02*
X017249Y007338D01*
X017201Y007386D02*
X017201Y007033D01*
X017354Y006838D02*
X020989Y006838D01*
X020989Y006881D02*
X020989Y006316D01*
X021388Y005916D01*
X021954Y005916D01*
X022354Y006316D01*
X022354Y006881D01*
X021954Y007281D01*
X021388Y007281D01*
X020989Y006881D01*
X021201Y007093D02*
X021201Y008518D01*
X020701Y008511D02*
X020701Y008318D01*
X020529Y008338D02*
X023874Y008338D01*
X023701Y008511D02*
X023701Y006158D01*
X023401Y005838D02*
X023021Y005458D01*
X019581Y005458D01*
X019201Y005838D01*
X018401Y005838D01*
X018021Y005458D01*
X014581Y005458D01*
X014201Y005838D01*
X013401Y005838D01*
X013021Y005458D01*
X009581Y005458D01*
X009201Y005838D01*
X008401Y005838D01*
X008021Y005458D01*
X004581Y005458D01*
X004201Y005838D01*
X003451Y005838D01*
X003071Y005458D01*
X003021Y005458D01*
X002440Y005838D02*
X001981Y005838D01*
X001981Y006338D02*
X005989Y006338D01*
X006201Y006103D02*
X006201Y005778D01*
X005701Y005778D02*
X005701Y007409D01*
X005471Y007838D02*
X004431Y007838D01*
X003951Y007838D02*
X002951Y008838D01*
X002951Y010088D01*
X002951Y011338D01*
X002471Y011338D02*
X001981Y011338D01*
X001981Y010838D02*
X002631Y010838D01*
X003271Y010838D02*
X012585Y010838D01*
X012701Y010722D02*
X012701Y010517D01*
X012752Y010568D02*
X012471Y010287D01*
X012471Y009889D01*
X012752Y009608D01*
X013150Y009608D01*
X013431Y009889D01*
X013431Y010287D01*
X013150Y010568D01*
X012752Y010568D01*
X012522Y010338D02*
X012267Y010338D01*
X012201Y010404D02*
X012201Y010909D01*
X012150Y010858D02*
X012431Y011139D01*
X012431Y011537D01*
X012150Y011818D01*
X011752Y011818D01*
X011471Y011537D01*
X011471Y011139D01*
X011752Y010858D01*
X012150Y010858D01*
X012117Y010488D02*
X011951Y010488D01*
X011785Y010488D01*
X011551Y010254D01*
X011551Y010088D01*
X011551Y009923D01*
X011785Y009688D01*
X011951Y009688D01*
X011951Y010088D01*
X011951Y010088D01*
X011951Y009688D01*
X012117Y009688D01*
X012351Y009923D01*
X012351Y010088D01*
X011951Y010088D01*
X011551Y010088D01*
X011951Y010088D01*
X011951Y010088D01*
X011951Y010088D01*
X012351Y010088D01*
X012351Y010254D01*
X012117Y010488D01*
X011951Y010488D02*
X011951Y010089D01*
X011951Y010488D01*
X011951Y010338D02*
X011951Y010338D01*
X011951Y010089D02*
X011951Y010089D01*
X011701Y010088D02*
X011701Y010088D01*
X011635Y009838D02*
X008380Y009838D01*
X007951Y010088D02*
X007951Y008838D01*
X008951Y007838D01*
X009431Y007838D02*
X009499Y007838D01*
X009701Y008041D02*
X009701Y014838D01*
X009201Y014838D02*
X009201Y012654D01*
X009201Y012463D02*
X009201Y012463D01*
X009226Y012338D02*
X010346Y012338D01*
X010826Y012463D02*
X012326Y012463D01*
X014201Y014338D01*
X019951Y014338D01*
X020951Y015338D01*
X020471Y015338D02*
X020431Y015338D01*
X020363Y015838D02*
X020539Y015838D01*
X020701Y015994D02*
X020701Y017682D01*
X020679Y017691D02*
X020856Y017618D01*
X021047Y017618D01*
X021223Y017691D01*
X021358Y017826D01*
X021431Y018003D01*
X021431Y018674D01*
X021358Y018850D01*
X021223Y018985D01*
X021047Y019058D01*
X020856Y019058D01*
X020679Y018985D01*
X020544Y018850D01*
X020471Y018674D01*
X020471Y018003D01*
X020544Y017826D01*
X020679Y017691D01*
X020539Y017838D02*
X020363Y017838D01*
X020201Y017682D02*
X020201Y015994D01*
X019701Y015994D02*
X019701Y017682D01*
X019701Y017338D02*
X024999Y017338D01*
X024701Y017636D02*
X024701Y015994D01*
X024539Y015838D02*
X024363Y015838D01*
X024358Y015850D02*
X024223Y015985D01*
X024047Y016058D01*
X023856Y016058D01*
X023679Y015985D01*
X023544Y015850D01*
X023471Y015674D01*
X023471Y015003D01*
X023544Y014826D01*
X023679Y014691D01*
X023856Y014618D01*
X024047Y014618D01*
X024223Y014691D01*
X024358Y014826D01*
X024431Y015003D01*
X024431Y015674D01*
X024358Y015850D01*
X024201Y015994D02*
X024201Y017682D01*
X024363Y017838D02*
X024539Y017838D01*
X023701Y017682D02*
X023701Y015994D01*
X023539Y015838D02*
X023363Y015838D01*
X023201Y015994D02*
X023201Y017682D01*
X023223Y017691D02*
X023047Y017618D01*
X022856Y017618D01*
X022679Y017691D01*
X022544Y017826D01*
X022471Y018003D01*
X022471Y018674D01*
X022544Y018850D01*
X022679Y018985D01*
X022856Y019058D01*
X023047Y019058D01*
X023223Y018985D01*
X023358Y018850D01*
X023431Y018674D01*
X023431Y018003D01*
X023358Y017826D01*
X023223Y017691D01*
X023363Y017838D02*
X023539Y017838D01*
X023471Y018338D02*
X023431Y018338D01*
X023363Y018838D02*
X023539Y018838D01*
X023201Y018994D02*
X023201Y019338D01*
X022701Y019338D02*
X022701Y018994D01*
X022539Y018838D02*
X022257Y018838D01*
X022262Y018833D02*
X022206Y018889D01*
X022141Y018933D01*
X022068Y018963D01*
X021991Y018978D01*
X021951Y018978D01*
X021912Y018978D01*
X021834Y018963D01*
X021762Y018933D01*
X021696Y018889D01*
X021640Y018833D01*
X021597Y018768D01*
X021566Y018695D01*
X021551Y018618D01*
X021551Y018338D01*
X021551Y018059D01*
X021566Y017982D01*
X021597Y017909D01*
X021640Y017843D01*
X021696Y017788D01*
X021762Y017744D01*
X021834Y017714D01*
X021912Y017698D01*
X021951Y017698D01*
X021951Y018338D01*
X021951Y018338D01*
X021951Y017698D01*
X021991Y017698D01*
X022068Y017714D01*
X022141Y017744D01*
X022206Y017788D01*
X022262Y017843D01*
X022306Y017909D01*
X022336Y017982D01*
X022351Y018059D01*
X022351Y018338D01*
X021951Y018338D01*
X021551Y018338D01*
X021951Y018338D01*
X021951Y018338D01*
X021431Y018338D01*
X021701Y018338D02*
X021701Y018338D01*
X021951Y018339D02*
X021951Y018978D01*
X021951Y018339D01*
X021951Y018339D01*
X021951Y018338D02*
X022351Y018338D01*
X022351Y018618D01*
X022336Y018695D01*
X022306Y018768D01*
X022262Y018833D01*
X022201Y018892D02*
X022201Y019338D01*
X021701Y019338D02*
X021701Y018892D01*
X021645Y018838D02*
X021363Y018838D01*
X021201Y018994D02*
X021201Y019338D01*
X020701Y019338D02*
X020701Y018994D01*
X020539Y018838D02*
X020363Y018838D01*
X020201Y018994D02*
X020201Y019338D01*
X019701Y019338D02*
X019701Y018994D01*
X019201Y018838D02*
X001981Y018838D01*
X001981Y019338D02*
X019201Y019338D01*
X019201Y019838D02*
X019201Y020891D01*
X019149Y020838D02*
X020272Y020838D01*
X020221Y020787D02*
X020221Y020389D01*
X020502Y020108D01*
X020900Y020108D01*
X021181Y020389D01*
X021181Y020787D01*
X020900Y021068D01*
X020502Y021068D01*
X020221Y020787D01*
X020701Y021068D02*
X020701Y022668D01*
X020568Y022668D02*
X020834Y022668D01*
X021081Y022770D01*
X021201Y022891D01*
X021322Y022770D01*
X021568Y022668D01*
X021834Y022668D01*
X022081Y022770D01*
X022201Y022891D01*
X022322Y022770D01*
X022568Y022668D01*
X022834Y022668D01*
X023081Y022770D01*
X023269Y022959D01*
X023271Y022963D01*
X023378Y022855D01*
X023588Y022768D01*
X023814Y022768D01*
X024024Y022855D01*
X024184Y023015D01*
X024201Y023056D01*
X024218Y023015D01*
X024378Y022855D01*
X024588Y022768D01*
X024814Y022768D01*
X025024Y022855D01*
X025184Y023015D01*
X025201Y023056D01*
X025201Y022621D01*
X025218Y022661D02*
X025131Y022452D01*
X025131Y022225D01*
X025218Y022015D01*
X025378Y021855D01*
X025588Y021768D01*
X025814Y021768D01*
X026024Y021855D01*
X026184Y022015D01*
X026201Y022056D01*
X026218Y022015D01*
X026378Y021855D01*
X026588Y021768D01*
X026814Y021768D01*
X027024Y021855D01*
X027132Y021963D01*
X027133Y021959D01*
X027322Y021770D01*
X027568Y021668D01*
X027834Y021668D01*
X028081Y021770D01*
X028201Y021891D01*
X028322Y021770D01*
X028568Y021668D01*
X028834Y021668D01*
X029081Y021770D01*
X029201Y021891D01*
X029322Y021770D01*
X029568Y021668D01*
X029834Y021668D01*
X030081Y021770D01*
X030201Y021891D01*
X030201Y019838D01*
X029701Y019838D02*
X029701Y021668D01*
X029254Y021838D02*
X029149Y021838D01*
X029201Y021891D02*
X029201Y019838D01*
X028701Y019838D02*
X028701Y021668D01*
X028254Y021838D02*
X028149Y021838D01*
X028201Y021891D02*
X028201Y019838D01*
X027701Y019838D02*
X027701Y021668D01*
X027254Y021838D02*
X026983Y021838D01*
X027201Y021891D02*
X027201Y019838D01*
X027154Y019838D02*
X045921Y019838D01*
X027154Y019838D01*
X026909Y020083D01*
X026909Y020179D01*
X026839Y020348D01*
X026711Y020477D01*
X026542Y020546D01*
X026360Y020546D01*
X026192Y020477D01*
X026063Y020348D01*
X025993Y020179D01*
X025993Y019997D01*
X026059Y019838D01*
X001981Y019838D01*
X001981Y020338D02*
X020272Y020338D01*
X020701Y020108D02*
X020701Y019838D01*
X020201Y019838D02*
X020201Y021891D01*
X020149Y021838D02*
X025419Y021838D01*
X025701Y021768D02*
X025701Y019838D01*
X026059Y019838D02*
X019201Y019838D01*
X019201Y015338D01*
X001981Y015338D01*
X001981Y030338D01*
X003031Y030338D01*
X003031Y030205D02*
X003133Y029959D01*
X003254Y029838D01*
X001981Y029838D01*
X001981Y030338D02*
X001992Y030531D01*
X002078Y030906D01*
X002245Y031253D01*
X002485Y031554D01*
X002786Y031795D01*
X003133Y031962D01*
X003509Y032047D01*
X003701Y032058D01*
X003701Y032008D01*
X003701Y032058D02*
X003746Y032058D01*
X003757Y032058D01*
X044201Y032058D01*
X044201Y019838D01*
X043701Y019838D02*
X043701Y032058D01*
X043201Y032058D02*
X043201Y019838D01*
X042701Y019838D02*
X042701Y032058D01*
X042201Y032058D02*
X042201Y031786D01*
X042149Y031838D02*
X045026Y031838D01*
X045116Y031795D02*
X045417Y031554D01*
X045657Y031253D01*
X045825Y030906D01*
X045910Y030531D01*
X045921Y030338D01*
X042371Y030338D01*
X042371Y030205D02*
X042371Y030472D01*
X042269Y030718D01*
X042149Y030838D01*
X045840Y030838D01*
X045701Y031163D02*
X045701Y019838D01*
X045921Y019838D02*
X045921Y030283D01*
X045921Y030304D01*
X045921Y030338D01*
X045921Y029838D02*
X042149Y029838D01*
X042269Y029959D01*
X042371Y030205D01*
X042201Y029891D02*
X042201Y029786D01*
X042149Y029838D02*
X042269Y029718D01*
X042371Y029472D01*
X042371Y029205D01*
X042269Y028959D01*
X042149Y028838D01*
X045921Y028838D01*
X045921Y029338D02*
X042371Y029338D01*
X042201Y028891D02*
X042201Y028786D01*
X042149Y028838D02*
X042269Y028718D01*
X042371Y028472D01*
X042371Y028205D01*
X042269Y027959D01*
X042149Y027838D01*
X045921Y027838D01*
X045921Y028338D02*
X042371Y028338D01*
X042201Y027891D02*
X042201Y027786D01*
X042149Y027838D02*
X042269Y027718D01*
X042371Y027472D01*
X042371Y027205D01*
X042269Y026959D01*
X042149Y026838D01*
X045921Y026838D01*
X045921Y027338D02*
X042371Y027338D01*
X042201Y026891D02*
X042201Y026786D01*
X042149Y026838D02*
X042269Y026718D01*
X042371Y026472D01*
X042371Y026205D01*
X042269Y025959D01*
X042149Y025838D01*
X045921Y025838D01*
X045921Y026338D02*
X042371Y026338D01*
X042201Y025891D02*
X042201Y025786D01*
X042149Y025838D02*
X042269Y025718D01*
X042371Y025472D01*
X042371Y025205D01*
X042269Y024959D01*
X042149Y024838D01*
X045921Y024838D01*
X045921Y025338D02*
X042371Y025338D01*
X042201Y024891D02*
X042201Y024786D01*
X042149Y024838D02*
X042269Y024718D01*
X042371Y024472D01*
X042371Y024205D01*
X042269Y023959D01*
X042149Y023838D01*
X045921Y023838D01*
X045921Y024338D02*
X042371Y024338D01*
X042201Y023891D02*
X042201Y023786D01*
X042149Y023838D02*
X042269Y023718D01*
X042371Y023472D01*
X042371Y023205D01*
X042269Y022959D01*
X042149Y022838D01*
X045921Y022838D01*
X045921Y023338D02*
X042371Y023338D01*
X042201Y022891D02*
X042201Y022786D01*
X042149Y022838D02*
X042269Y022718D01*
X042371Y022472D01*
X042371Y022205D01*
X042269Y021959D01*
X042081Y021770D01*
X041834Y021668D01*
X041568Y021668D01*
X041322Y021770D01*
X041201Y021891D01*
X041081Y021770D01*
X040834Y021668D01*
X040568Y021668D01*
X040322Y021770D01*
X040201Y021891D01*
X040201Y019838D01*
X039701Y019838D02*
X039701Y021668D01*
X039568Y021668D02*
X039834Y021668D01*
X040081Y021770D01*
X040201Y021891D01*
X040149Y021838D02*
X040254Y021838D01*
X040701Y021668D02*
X040701Y019838D01*
X041201Y019838D02*
X041201Y021891D01*
X041149Y021838D02*
X041254Y021838D01*
X041701Y021668D02*
X041701Y019838D01*
X041701Y019338D02*
X041701Y014765D01*
X041201Y014765D02*
X041201Y019338D01*
X040701Y019338D02*
X040701Y014765D01*
X040201Y014765D02*
X040201Y019338D01*
X039701Y019338D02*
X039701Y014765D01*
X039201Y014765D02*
X039201Y019338D01*
X038701Y019338D02*
X038701Y014765D01*
X038201Y014765D02*
X038201Y019338D01*
X037701Y019338D02*
X037701Y014765D01*
X037201Y014765D02*
X037201Y019338D01*
X036701Y019338D02*
X036701Y012041D01*
X036904Y011838D02*
X039999Y011838D01*
X040201Y012041D02*
X040201Y012912D01*
X039701Y012912D02*
X039701Y011541D01*
X039499Y011338D02*
X038431Y011338D01*
X037951Y011338D02*
X037951Y010088D01*
X037522Y009838D02*
X037267Y009838D01*
X037201Y009773D02*
X037201Y009658D01*
X037117Y009688D02*
X036951Y009688D01*
X036951Y010088D01*
X036951Y010088D01*
X036951Y009688D01*
X036785Y009688D01*
X036551Y009923D01*
X036551Y010088D01*
X036951Y010088D01*
X036951Y010088D01*
X036951Y010088D01*
X037351Y010088D01*
X037351Y009923D01*
X037117Y009688D01*
X036951Y009838D02*
X036951Y009838D01*
X036951Y010088D02*
X037351Y010088D01*
X037351Y010254D01*
X037117Y010488D01*
X036951Y010488D01*
X036785Y010488D01*
X036551Y010254D01*
X036551Y010088D01*
X036951Y010088D01*
X036951Y010089D02*
X036951Y010488D01*
X036951Y010089D01*
X036951Y010089D01*
X036951Y010338D02*
X036951Y010338D01*
X036701Y010404D02*
X036701Y010909D01*
X036752Y010858D02*
X037150Y010858D01*
X037431Y011139D01*
X037431Y011537D01*
X037150Y011818D01*
X036924Y011818D01*
X036431Y012311D01*
X036431Y012537D01*
X036150Y012818D01*
X035752Y012818D01*
X035471Y012537D01*
X035471Y012139D01*
X035752Y011858D01*
X035979Y011858D01*
X036471Y011366D01*
X036471Y011139D01*
X036752Y010858D01*
X037201Y010909D02*
X037201Y010404D01*
X037267Y010338D02*
X037522Y010338D01*
X037201Y010088D02*
X037201Y010088D01*
X036701Y010088D02*
X036701Y010088D01*
X036635Y009838D02*
X035904Y009838D01*
X035701Y010041D02*
X035701Y011909D01*
X035999Y011838D02*
X033904Y011838D01*
X033951Y011938D02*
X034117Y011938D01*
X034351Y012173D01*
X034351Y012338D01*
X033951Y012338D01*
X033951Y012338D01*
X033951Y011938D01*
X034201Y012023D02*
X034201Y011541D01*
X034404Y011338D02*
X036471Y011338D01*
X036201Y011636D02*
X036201Y009658D01*
X035951Y009338D02*
X037951Y009338D01*
X040951Y012338D01*
X041951Y011338D01*
X041471Y011338D02*
X040404Y011338D01*
X040201Y011136D02*
X040201Y008541D01*
X039999Y008338D02*
X038904Y008338D01*
X038701Y008541D02*
X038701Y009636D01*
X038904Y009838D02*
X041635Y009838D01*
X041701Y009773D02*
X041701Y009267D01*
X041951Y008838D02*
X040951Y008838D01*
X039326Y007213D01*
X038576Y007213D01*
X036951Y008838D01*
X035951Y008838D01*
X034326Y007213D01*
X033576Y007213D01*
X031951Y008838D01*
X030951Y008838D01*
X029326Y007213D01*
X028576Y007213D01*
X026951Y008838D01*
X026201Y008838D01*
X025701Y008338D01*
X025701Y007880D02*
X025701Y005778D01*
X025201Y005778D02*
X025201Y010268D01*
X024999Y010338D02*
X023380Y010338D01*
X022951Y010088D02*
X022951Y011188D01*
X023280Y010838D02*
X024499Y010838D01*
X024701Y010636D02*
X024701Y005791D01*
X024654Y005838D02*
X027440Y005838D01*
X027201Y005778D02*
X027201Y006163D01*
X027354Y006316D02*
X026954Y005916D01*
X026388Y005916D01*
X025989Y006316D01*
X025989Y006881D01*
X026388Y007281D01*
X026954Y007281D01*
X027354Y006881D01*
X027354Y006316D01*
X027354Y006338D02*
X030989Y006338D01*
X030989Y006316D02*
X031388Y005916D01*
X031954Y005916D01*
X032354Y006316D01*
X032354Y006881D01*
X031954Y007281D01*
X031388Y007281D01*
X030989Y006881D01*
X030989Y006316D01*
X031201Y006103D02*
X031201Y005778D01*
X030701Y005778D02*
X030701Y007409D01*
X030471Y007838D02*
X030404Y007838D01*
X030201Y007636D02*
X030201Y005778D01*
X029701Y005791D02*
X029701Y007136D01*
X029904Y007338D02*
X032999Y007338D01*
X033201Y007136D02*
X033201Y006122D01*
X033401Y005838D02*
X033021Y005458D01*
X029581Y005458D01*
X029201Y005838D01*
X028401Y005838D01*
X028021Y005458D01*
X024581Y005458D01*
X024201Y005838D01*
X023401Y005838D01*
X023201Y006122D02*
X023201Y008409D01*
X022951Y008838D02*
X023826Y008838D01*
X024201Y008463D01*
X024201Y007838D01*
X024201Y007358D02*
X024201Y006158D01*
X024701Y005138D02*
X024701Y002890D01*
X024649Y002838D02*
X020413Y002838D01*
X020201Y002971D02*
X020201Y005138D01*
X019701Y005138D02*
X019701Y002890D01*
X019649Y002838D02*
X015413Y002838D01*
X015201Y002971D02*
X015201Y005138D01*
X014701Y005138D02*
X014701Y002890D01*
X014649Y002838D02*
X010413Y002838D01*
X010201Y002436D02*
X010201Y002301D01*
X010099Y002338D02*
X014963Y002338D01*
X015099Y002338D02*
X019963Y002338D01*
X020099Y002338D02*
X024963Y002338D01*
X025099Y002338D02*
X029963Y002338D01*
X030099Y002338D02*
X034963Y002338D01*
X035099Y002338D02*
X039963Y002338D01*
X040099Y002338D02*
X045590Y002338D01*
X045701Y002514D02*
X045701Y016944D01*
X045683Y016838D02*
X045921Y016838D01*
X045665Y016738D02*
X045727Y017088D01*
X045727Y017088D01*
X045665Y017439D01*
X045487Y017747D01*
X045487Y017747D01*
X045214Y017976D01*
X045214Y017976D01*
X044879Y018098D01*
X044757Y018098D01*
X044757Y018098D01*
X044701Y018098D01*
X044701Y019338D01*
X044201Y019338D02*
X044201Y017981D01*
X044188Y017976D02*
X044188Y017976D01*
X043916Y017747D01*
X043915Y017747D02*
X043737Y017439D01*
X043676Y017088D01*
X043737Y016738D01*
X043737Y016737D01*
X043915Y016429D01*
X044188Y016200D01*
X044188Y016200D01*
X044024Y016338D02*
X030654Y016338D01*
X030701Y016291D02*
X030701Y019338D01*
X030201Y019338D02*
X030201Y018818D01*
X029851Y018838D02*
X029851Y018673D01*
X029617Y018438D01*
X029451Y018438D01*
X029451Y018838D01*
X029451Y018838D01*
X029051Y018838D01*
X029051Y018673D01*
X029285Y018438D01*
X029451Y018438D01*
X029451Y018838D01*
X029451Y018838D01*
X028154Y018838D01*
X028201Y018791D02*
X028201Y019338D01*
X027701Y019338D02*
X027701Y019291D01*
X027701Y018386D02*
X027701Y018041D01*
X027904Y017838D02*
X028249Y017838D01*
X028201Y017886D02*
X028201Y017541D01*
X028404Y017338D02*
X028749Y017338D01*
X028701Y017386D02*
X028701Y017041D01*
X028904Y016838D02*
X029249Y016838D01*
X029201Y016886D02*
X029201Y016541D01*
X029404Y016338D02*
X029749Y016338D01*
X029701Y016386D02*
X029701Y012033D01*
X029691Y012338D02*
X029711Y012338D01*
X029201Y012338D02*
X029201Y016088D01*
X026951Y018338D01*
X027431Y018338D02*
X027749Y018338D01*
X028654Y018338D02*
X029721Y018338D01*
X029701Y018267D02*
X029701Y018523D01*
X029701Y018838D02*
X029701Y018838D01*
X029851Y018838D02*
X029851Y019004D01*
X029617Y019238D01*
X029451Y019238D01*
X029285Y019238D01*
X029051Y019004D01*
X029051Y018838D01*
X029451Y018838D01*
X029451Y018838D01*
X029851Y018838D01*
X029451Y018838D01*
X045921Y018838D01*
X045701Y019338D02*
X045701Y017233D01*
X045683Y017338D02*
X045921Y017338D01*
X045665Y017439D02*
X045665Y017439D01*
X045921Y017838D02*
X045378Y017838D01*
X045201Y017981D02*
X045201Y019338D01*
X045201Y019838D02*
X045201Y031727D01*
X045116Y031795D02*
X044769Y031962D01*
X044394Y032047D01*
X044201Y032058D01*
X044701Y031977D02*
X044701Y019838D01*
X043701Y019338D02*
X043701Y017233D01*
X043720Y017338D02*
X033576Y017338D01*
X033576Y017338D01*
X033576Y016938D01*
X033410Y016938D01*
X033176Y017173D01*
X033176Y017338D01*
X033576Y017338D01*
X033576Y016938D01*
X033742Y016938D01*
X033976Y017173D01*
X033976Y017338D01*
X033576Y017338D01*
X033576Y017338D01*
X032056Y017338D01*
X032056Y017139D02*
X031775Y016858D01*
X031377Y016858D01*
X031096Y017139D01*
X031096Y017537D01*
X031377Y017818D01*
X031775Y017818D01*
X032056Y017537D01*
X032056Y017139D01*
X031701Y016858D02*
X031701Y015291D01*
X031654Y015338D02*
X045921Y015338D01*
X045921Y014838D02*
X032154Y014838D01*
X032201Y014791D02*
X032201Y019338D01*
X031701Y019338D02*
X031701Y018818D01*
X031775Y018818D02*
X031377Y018818D01*
X031096Y018537D01*
X031096Y018139D01*
X031377Y017858D01*
X031775Y017858D01*
X032056Y018139D01*
X032056Y018537D01*
X031775Y018818D01*
X032056Y018338D02*
X033576Y018338D01*
X033576Y018338D01*
X033576Y017938D01*
X033410Y017938D01*
X033176Y018173D01*
X033176Y018338D01*
X033576Y018338D01*
X033576Y017938D01*
X033742Y017938D01*
X033976Y018173D01*
X033976Y018338D01*
X033576Y018338D01*
X033576Y018338D01*
X033576Y018338D01*
X045921Y018338D01*
X044879Y018098D02*
X044879Y018098D01*
X044701Y018098D02*
X044700Y018098D01*
X044645Y018098D01*
X044523Y018098D01*
X044188Y017976D01*
X044024Y017838D02*
X029931Y017838D01*
X030002Y017858D02*
X029931Y017929D01*
X029931Y017639D01*
X029650Y017358D01*
X029634Y017358D01*
X032834Y014158D01*
X033592Y014158D01*
X033752Y014318D01*
X034150Y014318D01*
X034431Y014037D01*
X034431Y013639D01*
X034150Y013358D01*
X033752Y013358D01*
X033592Y013518D01*
X032637Y013518D01*
X032520Y013567D01*
X032430Y013657D01*
X030601Y015486D01*
X030601Y015338D01*
X030201Y015338D01*
X030201Y015338D01*
X030201Y014938D01*
X030367Y014938D01*
X030601Y015173D01*
X030601Y015338D01*
X030201Y015338D01*
X029801Y015338D01*
X030201Y015338D01*
X030201Y015338D01*
X029521Y015338D01*
X030201Y015339D02*
X030201Y015738D01*
X030201Y015339D01*
X030201Y015886D01*
X030249Y015838D02*
X029521Y015838D01*
X030201Y015339D02*
X030201Y015339D01*
X030201Y015338D02*
X030201Y015338D01*
X030749Y015338D01*
X030701Y015386D02*
X030701Y012033D01*
X030691Y012338D02*
X033951Y012338D01*
X033551Y012338D01*
X033551Y012504D01*
X033785Y012738D01*
X033951Y012738D01*
X033951Y012339D01*
X033951Y012339D01*
X033951Y012738D01*
X034117Y012738D01*
X034351Y012504D01*
X034351Y012338D01*
X033951Y012338D01*
X033951Y012338D01*
X035471Y012338D01*
X035951Y012338D02*
X036951Y011338D01*
X037431Y011338D02*
X037471Y011338D01*
X037631Y010838D02*
X034904Y010838D01*
X034701Y011041D02*
X034701Y019338D01*
X034201Y019338D02*
X034201Y014267D01*
X034431Y013838D02*
X035471Y013838D01*
X035471Y013639D02*
X035752Y013358D01*
X036150Y013358D01*
X036431Y013639D01*
X036431Y014037D01*
X036150Y014318D01*
X035752Y014318D01*
X035471Y014037D01*
X035471Y013639D01*
X035701Y013409D02*
X035701Y012767D01*
X036201Y012767D02*
X036201Y013409D01*
X036431Y013838D02*
X036841Y013838D01*
X036845Y014338D02*
X032654Y014338D01*
X032701Y014291D02*
X032701Y019338D01*
X033201Y019338D02*
X033201Y018529D01*
X033176Y018504D02*
X033176Y018338D01*
X033576Y018338D01*
X033976Y018338D01*
X033976Y018504D01*
X033742Y018738D01*
X033576Y018738D01*
X033410Y018738D01*
X033176Y018504D01*
X033201Y018338D02*
X033201Y018338D01*
X033201Y018148D02*
X033201Y017529D01*
X033176Y017504D02*
X033176Y017338D01*
X033576Y017338D01*
X033576Y017338D01*
X033976Y017338D01*
X033976Y017504D01*
X033742Y017738D01*
X033576Y017738D01*
X033410Y017738D01*
X033176Y017504D01*
X033201Y017338D02*
X033201Y017338D01*
X033201Y017148D02*
X033201Y014158D01*
X033701Y014267D02*
X033701Y016938D01*
X033701Y017338D02*
X033701Y017338D01*
X033576Y017339D02*
X033576Y017339D01*
X033576Y017738D01*
X033576Y017339D01*
X033701Y017738D02*
X033701Y017938D01*
X033701Y018338D02*
X033701Y018338D01*
X033576Y018339D02*
X033576Y018339D01*
X033576Y018738D01*
X033576Y018339D01*
X033701Y018738D02*
X033701Y019338D01*
X033701Y019838D02*
X033701Y021668D01*
X033568Y021668D02*
X033834Y021668D01*
X034081Y021770D01*
X034201Y021891D01*
X034322Y021770D01*
X034568Y021668D01*
X034834Y021668D01*
X035081Y021770D01*
X035201Y021891D01*
X035322Y021770D01*
X035568Y021668D01*
X035834Y021668D01*
X036081Y021770D01*
X036201Y021891D01*
X036201Y019838D01*
X035701Y019838D02*
X035701Y021668D01*
X035254Y021838D02*
X035149Y021838D01*
X035201Y021891D02*
X035201Y019838D01*
X034701Y019838D02*
X034701Y021668D01*
X034254Y021838D02*
X034149Y021838D01*
X034201Y021891D02*
X034201Y019838D01*
X033201Y019838D02*
X033201Y021891D01*
X033322Y021770D01*
X033568Y021668D01*
X033254Y021838D02*
X033149Y021838D01*
X033201Y021891D02*
X033081Y021770D01*
X032834Y021668D01*
X032568Y021668D01*
X032322Y021770D01*
X032201Y021891D01*
X032081Y021770D01*
X031834Y021668D01*
X031568Y021668D01*
X031322Y021770D01*
X031201Y021891D01*
X031081Y021770D01*
X030834Y021668D01*
X030568Y021668D01*
X030322Y021770D01*
X030201Y021891D01*
X030149Y021838D02*
X030254Y021838D01*
X030701Y021668D02*
X030701Y019838D01*
X031201Y019838D02*
X031201Y021891D01*
X031149Y021838D02*
X031254Y021838D01*
X031701Y021668D02*
X031701Y019838D01*
X032201Y019838D02*
X032201Y021891D01*
X032149Y021838D02*
X032254Y021838D01*
X032701Y021668D02*
X032701Y019838D01*
X031201Y019338D02*
X031201Y018642D01*
X031096Y018338D02*
X030681Y018338D01*
X031201Y018034D02*
X031201Y017642D01*
X031096Y017338D02*
X029654Y017338D01*
X029701Y017291D02*
X029701Y017409D01*
X029451Y017838D02*
X029451Y017838D01*
X029201Y018267D02*
X029201Y018523D01*
X029201Y018838D02*
X029201Y018838D01*
X029451Y018839D02*
X029451Y019238D01*
X029451Y018839D01*
X029451Y018839D01*
X029201Y019154D02*
X029201Y019338D01*
X028701Y019338D02*
X028701Y018291D01*
X029701Y019154D02*
X029701Y019338D01*
X031701Y017858D02*
X031701Y017818D01*
X031201Y017034D02*
X031201Y015791D01*
X031154Y015838D02*
X045921Y015838D01*
X045921Y016338D02*
X045378Y016338D01*
X045487Y016429D02*
X045214Y016200D01*
X045214Y016200D01*
X044879Y016078D01*
X044879Y016078D01*
X044757Y016078D01*
X044757Y016078D01*
X044701Y016078D01*
X044523Y016078D02*
X044523Y016078D01*
X043915Y016429D02*
X043915Y016429D01*
X043676Y017088D02*
X043676Y017088D01*
X043737Y017439D02*
X043737Y017439D01*
X043915Y017747D02*
X043915Y017747D01*
X043916Y017747D01*
X044523Y018098D02*
X044523Y018098D01*
X044645Y018098D02*
X044645Y018098D01*
X043201Y019338D02*
X043201Y001618D01*
X041701Y001618D02*
X041701Y002966D01*
X040201Y002436D02*
X040201Y002301D01*
X039701Y002301D02*
X039701Y002436D01*
X039649Y002838D02*
X035413Y002838D01*
X035201Y002971D02*
X035201Y005138D01*
X034701Y005138D02*
X034701Y002890D01*
X034649Y002838D02*
X030413Y002838D01*
X030201Y002971D02*
X030201Y005138D01*
X029701Y005138D02*
X029701Y002890D01*
X029649Y002838D02*
X025413Y002838D01*
X025201Y002971D02*
X025201Y005138D01*
X025701Y005138D02*
X025701Y001618D01*
X026201Y001618D02*
X026201Y003363D01*
X026199Y003366D02*
X026598Y002966D01*
X027164Y002966D01*
X027564Y003366D01*
X027564Y003931D01*
X027164Y004331D01*
X026598Y004331D01*
X026199Y003931D01*
X026199Y003366D01*
X026226Y003338D02*
X022536Y003338D01*
X022564Y003366D02*
X022164Y002966D01*
X021598Y002966D01*
X021199Y003366D01*
X021199Y003931D01*
X021598Y004331D01*
X022164Y004331D01*
X022564Y003931D01*
X022564Y003366D01*
X022564Y003838D02*
X026199Y003838D01*
X026201Y003933D02*
X026201Y005138D01*
X026701Y005138D02*
X026701Y004331D01*
X027201Y004293D02*
X027201Y005138D01*
X027701Y004852D02*
X027701Y001618D01*
X027201Y001618D02*
X027201Y003003D01*
X027536Y003338D02*
X031226Y003338D01*
X031201Y003363D02*
X031201Y001618D01*
X030701Y001618D02*
X030701Y005138D01*
X031201Y005138D02*
X031201Y003933D01*
X031199Y003931D02*
X031199Y003366D01*
X031598Y002966D01*
X032164Y002966D01*
X032564Y003366D01*
X032564Y003931D01*
X032164Y004331D01*
X031598Y004331D01*
X031199Y003931D01*
X031199Y003838D02*
X027564Y003838D01*
X027734Y004838D02*
X024694Y004838D01*
X023329Y004838D02*
X023308Y004838D01*
X023201Y004794D02*
X023201Y001618D01*
X022701Y001618D02*
X022701Y004852D01*
X022734Y004838D02*
X019694Y004838D01*
X020701Y005138D02*
X020701Y001618D01*
X021201Y001618D02*
X021201Y003363D01*
X021226Y003338D02*
X017536Y003338D01*
X017201Y003003D02*
X017201Y001618D01*
X016701Y001618D02*
X016701Y002966D01*
X017564Y003838D02*
X021199Y003838D01*
X021201Y003933D02*
X021201Y005138D01*
X021701Y005138D02*
X021701Y004331D01*
X022201Y004293D02*
X022201Y005138D01*
X022201Y005778D02*
X022201Y006163D01*
X022354Y006338D02*
X025989Y006338D01*
X026201Y006103D02*
X026201Y005778D01*
X026701Y005778D02*
X026701Y005916D01*
X027701Y006064D02*
X027701Y007636D01*
X027499Y007838D02*
X026681Y007838D01*
X026999Y008338D02*
X026159Y008338D01*
X026201Y008318D02*
X026201Y008386D01*
X026701Y008409D02*
X026701Y007281D01*
X026201Y007358D02*
X026201Y007093D01*
X025989Y006838D02*
X022354Y006838D01*
X022201Y007033D02*
X022201Y008409D01*
X022431Y008838D02*
X022471Y008838D01*
X022951Y008838D02*
X022951Y010088D01*
X023380Y009838D02*
X026635Y009838D01*
X026701Y009773D02*
X026701Y009267D01*
X027201Y009267D02*
X027201Y009773D01*
X027267Y009838D02*
X027522Y009838D01*
X027201Y010088D02*
X027201Y010088D01*
X026951Y009838D02*
X026951Y009838D01*
X026701Y010088D02*
X026701Y010088D01*
X026201Y010268D02*
X026201Y009158D01*
X025749Y008838D02*
X024279Y008838D01*
X024201Y008916D02*
X024201Y011848D01*
X024381Y011838D02*
X022771Y011838D01*
X023201Y011848D02*
X023201Y011617D01*
X023431Y011338D02*
X024381Y011338D01*
X024701Y011088D02*
X025201Y010588D01*
X031351Y010588D01*
X031951Y011213D01*
X031934Y010733D02*
X032150Y010733D01*
X032431Y011014D01*
X032431Y011412D01*
X032200Y011643D01*
X032577Y011643D01*
X032471Y011537D01*
X032471Y011139D01*
X032591Y011019D01*
X032591Y010407D01*
X032471Y010287D01*
X032471Y009889D01*
X032631Y009729D01*
X032631Y009197D01*
X032471Y009037D01*
X032471Y008771D01*
X032431Y008811D01*
X032431Y009037D01*
X032150Y009318D01*
X031752Y009318D01*
X031592Y009158D01*
X030887Y009158D01*
X030770Y009110D01*
X030680Y009020D01*
X029431Y007771D01*
X029431Y008037D01*
X029150Y008318D01*
X028752Y008318D01*
X028471Y008037D01*
X028471Y007771D01*
X027884Y008358D01*
X028150Y008358D01*
X028431Y008639D01*
X028431Y009037D01*
X028271Y009197D01*
X028271Y009729D01*
X028431Y009889D01*
X028431Y010268D01*
X031291Y010268D01*
X031294Y010267D01*
X031354Y010268D01*
X031415Y010268D01*
X031418Y010270D01*
X031421Y010270D01*
X031475Y010293D01*
X031532Y010317D01*
X031535Y010319D01*
X031538Y010321D01*
X031578Y010363D01*
X031622Y010407D01*
X031624Y010410D01*
X031934Y010733D01*
X031951Y010488D02*
X031785Y010488D01*
X031551Y010254D01*
X031551Y010088D01*
X031551Y009923D01*
X031785Y009688D01*
X031951Y009688D01*
X031951Y010088D01*
X031951Y010088D01*
X031951Y009688D01*
X032117Y009688D01*
X032351Y009923D01*
X032351Y010088D01*
X031951Y010088D01*
X031551Y010088D01*
X031951Y010088D01*
X031951Y010088D01*
X031951Y010088D01*
X032351Y010088D01*
X032351Y010254D01*
X032117Y010488D01*
X031951Y010488D01*
X031951Y010089D01*
X031951Y010089D01*
X031951Y010488D01*
X031951Y010338D02*
X031951Y010338D01*
X031701Y010404D02*
X031701Y010491D01*
X031635Y010338D02*
X031555Y010338D01*
X031701Y010088D02*
X031701Y010088D01*
X031635Y009838D02*
X028380Y009838D01*
X027951Y010088D02*
X027951Y008838D01*
X027471Y008838D02*
X027431Y008838D01*
X027631Y009338D02*
X023271Y009338D01*
X023701Y009158D02*
X023701Y013108D01*
X023502Y013108D02*
X023900Y013108D01*
X024181Y013389D01*
X024181Y013787D01*
X023900Y014068D01*
X023502Y014068D01*
X023221Y013787D01*
X023221Y013389D01*
X023502Y013108D01*
X023272Y013338D02*
X022771Y013338D01*
X022771Y012838D02*
X024381Y012838D01*
X024201Y012828D02*
X024201Y014682D01*
X024363Y014838D02*
X024539Y014838D01*
X024471Y015338D02*
X024431Y015338D01*
X024951Y015338D02*
X024951Y013088D01*
X024701Y012838D01*
X024701Y011088D01*
X025701Y010268D02*
X025701Y008796D01*
X025243Y008338D02*
X024521Y008338D01*
X024681Y007838D02*
X025721Y007838D01*
X027201Y008136D02*
X027201Y007033D01*
X027354Y006838D02*
X030989Y006838D01*
X031201Y007093D02*
X031201Y007409D01*
X031431Y007838D02*
X032499Y007838D01*
X032701Y007636D02*
X032701Y006064D01*
X032440Y005838D02*
X029654Y005838D01*
X029201Y006158D02*
X029201Y006893D01*
X028701Y006893D02*
X028701Y006158D01*
X028201Y006122D02*
X028201Y007136D01*
X028305Y007032D02*
X028305Y007032D01*
X027999Y007338D02*
X019529Y007338D01*
X019701Y007511D02*
X019701Y005791D01*
X019654Y005838D02*
X022440Y005838D01*
X022701Y006064D02*
X022701Y008409D01*
X021701Y008409D02*
X021701Y007281D01*
X021181Y007838D02*
X023721Y007838D01*
X021999Y009338D02*
X019021Y009338D01*
X018701Y009338D02*
X017951Y010088D01*
X017951Y011188D01*
X017622Y010838D02*
X017317Y010838D01*
X017201Y010722D02*
X017201Y010404D01*
X017267Y010338D02*
X017522Y010338D01*
X017351Y010254D02*
X017117Y010488D01*
X016951Y010488D01*
X016785Y010488D01*
X016551Y010254D01*
X016551Y010088D01*
X016551Y009923D01*
X016785Y009688D01*
X016951Y009688D01*
X016951Y010088D01*
X016951Y010088D01*
X016951Y009688D01*
X017117Y009688D01*
X017351Y009923D01*
X017351Y010088D01*
X016951Y010088D01*
X016551Y010088D01*
X016951Y010088D01*
X016951Y010088D01*
X016951Y010088D01*
X017351Y010088D01*
X017351Y010254D01*
X017201Y010088D02*
X017201Y010088D01*
X016951Y010089D02*
X016951Y010488D01*
X016951Y010089D01*
X016951Y010089D01*
X016951Y010338D02*
X016951Y010338D01*
X016701Y010404D02*
X016701Y010722D01*
X016951Y011151D02*
X013889Y011151D01*
X012951Y012088D01*
X013826Y012963D01*
X019576Y012963D01*
X021951Y015338D01*
X021471Y015338D02*
X021431Y015338D01*
X021363Y015838D02*
X021539Y015838D01*
X021701Y015994D02*
X021701Y017784D01*
X021645Y017838D02*
X021363Y017838D01*
X021201Y017682D02*
X021201Y015994D01*
X022131Y016338D02*
X019701Y016338D01*
X019201Y016338D02*
X009978Y016338D01*
X010087Y016429D02*
X010087Y016429D01*
X009814Y016200D02*
X009814Y016200D01*
X009701Y016159D02*
X009701Y015338D01*
X009201Y015338D02*
X009201Y016078D01*
X009123Y016078D02*
X009123Y016078D01*
X009479Y016078D02*
X009479Y016078D01*
X008701Y016273D02*
X008701Y015338D01*
X008701Y014838D02*
X008701Y012863D01*
X008635Y012838D02*
X006130Y012838D01*
X006201Y012767D02*
X006201Y014838D01*
X005701Y014838D02*
X005701Y012943D01*
X005522Y012838D02*
X004017Y012838D01*
X003992Y012863D02*
X003826Y012863D01*
X003660Y012863D01*
X003426Y012629D01*
X003426Y012463D01*
X003826Y012463D01*
X003826Y012463D01*
X003826Y012463D01*
X004226Y012463D01*
X004226Y012629D01*
X003992Y012863D01*
X003826Y012863D02*
X003826Y012464D01*
X003826Y012863D01*
X003826Y012838D02*
X003826Y012838D01*
X003701Y012863D02*
X003701Y014838D01*
X003201Y014838D02*
X003201Y011767D01*
X002701Y011767D02*
X002701Y014838D01*
X002201Y014838D02*
X002201Y002514D01*
X002312Y002338D02*
X004963Y002338D01*
X005099Y002338D02*
X009963Y002338D01*
X009701Y002301D02*
X009701Y002436D01*
X009649Y002838D02*
X005413Y002838D01*
X005201Y002971D02*
X005201Y005138D01*
X005201Y005778D02*
X005201Y014838D01*
X004701Y014838D02*
X004701Y005791D01*
X004654Y005838D02*
X007440Y005838D01*
X007201Y005778D02*
X007201Y006163D01*
X007354Y006338D02*
X010989Y006338D01*
X010701Y005778D02*
X010701Y007409D01*
X010471Y007838D02*
X010404Y007838D01*
X010201Y007636D02*
X010201Y005778D01*
X009201Y006158D02*
X009201Y006893D01*
X009326Y007213D02*
X008576Y007213D01*
X006951Y008838D01*
X006471Y008838D02*
X003431Y008838D01*
X003701Y008541D02*
X003701Y012063D01*
X003826Y012338D02*
X003826Y012338D01*
X003826Y012464D02*
X003826Y012464D01*
X003701Y012463D02*
X003701Y012463D01*
X003426Y012338D02*
X001981Y012338D01*
X001981Y011838D02*
X012522Y011838D01*
X012701Y011659D02*
X012701Y011580D01*
X012471Y011338D02*
X012431Y011338D01*
X013201Y010722D02*
X013201Y010517D01*
X013380Y010338D02*
X016635Y010338D01*
X016701Y010088D02*
X016701Y010088D01*
X016635Y009838D02*
X013380Y009838D01*
X013201Y009659D02*
X013201Y009267D01*
X013431Y008838D02*
X013499Y008838D01*
X013701Y009041D02*
X013701Y010886D01*
X013807Y010838D02*
X013317Y010838D01*
X014201Y010831D02*
X014201Y009158D01*
X014701Y009158D02*
X014701Y010831D01*
X015201Y010831D02*
X015201Y009158D01*
X015701Y009158D02*
X015701Y010831D01*
X016201Y010831D02*
X016201Y009158D01*
X016701Y009267D02*
X016701Y009773D01*
X016951Y009838D02*
X016951Y009838D01*
X017201Y009773D02*
X017201Y009267D01*
X017631Y009338D02*
X008271Y009338D01*
X008431Y008838D02*
X010499Y008838D01*
X010701Y009041D02*
X010701Y011983D01*
X011201Y012143D02*
X011201Y009158D01*
X010951Y008838D02*
X009326Y007213D01*
X008701Y006893D02*
X008701Y006158D01*
X008201Y006122D02*
X008201Y007136D01*
X007999Y007338D02*
X001981Y007338D01*
X001981Y006838D02*
X005989Y006838D01*
X006201Y007093D02*
X006201Y007409D01*
X006431Y007838D02*
X007499Y007838D01*
X007701Y007636D02*
X007701Y006064D01*
X006701Y005916D02*
X006701Y005778D01*
X006701Y005138D02*
X006701Y004331D01*
X007201Y004293D02*
X007201Y005138D01*
X008201Y004794D02*
X008201Y001618D01*
X006701Y001618D02*
X006701Y002966D01*
X007564Y003838D02*
X011199Y003838D01*
X009701Y001846D02*
X009701Y001618D01*
X008329Y004838D02*
X008308Y004838D01*
X006701Y007281D02*
X006701Y008409D01*
X007431Y008838D02*
X007471Y008838D01*
X007201Y009267D02*
X007201Y009773D01*
X007267Y009838D02*
X007522Y009838D01*
X007351Y009923D02*
X007351Y010088D01*
X006951Y010088D01*
X006951Y010088D01*
X006951Y009688D01*
X006785Y009688D01*
X006551Y009923D01*
X006551Y010088D01*
X006951Y010088D01*
X006951Y009688D01*
X007117Y009688D01*
X007351Y009923D01*
X007351Y010088D02*
X006951Y010088D01*
X006951Y010088D01*
X006951Y010088D01*
X006551Y010088D01*
X006551Y010254D01*
X006785Y010488D01*
X006951Y010488D01*
X006951Y010089D01*
X006951Y010089D01*
X006951Y010488D01*
X007117Y010488D01*
X007351Y010254D01*
X007351Y010088D01*
X007201Y010088D02*
X007201Y010088D01*
X007267Y010338D02*
X007522Y010338D01*
X007701Y010517D02*
X007701Y010909D01*
X007752Y010858D02*
X008150Y010858D01*
X008431Y011139D01*
X008431Y011537D01*
X008150Y011818D01*
X007752Y011818D01*
X007471Y011537D01*
X007471Y011139D01*
X007752Y010858D01*
X007431Y011139D02*
X007150Y010858D01*
X006752Y010858D01*
X006471Y011139D01*
X006471Y011537D01*
X006752Y011818D01*
X007150Y011818D01*
X007431Y011537D01*
X007431Y011139D01*
X007431Y011338D02*
X007471Y011338D01*
X007201Y010909D02*
X007201Y010404D01*
X006951Y010338D02*
X006951Y010338D01*
X006701Y010404D02*
X006701Y010909D01*
X006471Y011338D02*
X003431Y011338D01*
X003380Y010338D02*
X006635Y010338D01*
X006701Y010088D02*
X006701Y010088D01*
X006635Y009838D02*
X003380Y009838D01*
X003271Y009338D02*
X007631Y009338D01*
X006951Y009838D02*
X006951Y009838D01*
X006701Y009773D02*
X006701Y009267D01*
X008380Y010338D02*
X011635Y010338D01*
X011701Y010404D02*
X011701Y010909D01*
X011471Y011338D02*
X008431Y011338D01*
X008201Y010909D02*
X008201Y010517D01*
X008201Y011767D02*
X008201Y014838D01*
X007701Y014838D02*
X007701Y011767D01*
X007201Y011767D02*
X007201Y014838D01*
X006701Y014838D02*
X006701Y011767D01*
X008826Y012838D02*
X008826Y012838D01*
X009017Y012838D02*
X010522Y012838D01*
X010701Y012943D02*
X010701Y014838D01*
X011201Y014838D02*
X011201Y012783D01*
X011130Y012838D02*
X012249Y012838D01*
X012201Y012791D02*
X012201Y014838D01*
X011701Y014838D02*
X011701Y012783D01*
X011701Y012143D02*
X011701Y011767D01*
X012201Y011767D02*
X012201Y012143D01*
X012884Y012568D02*
X012979Y012568D01*
X013645Y013235D01*
X013762Y013283D01*
X013890Y013283D01*
X018691Y013283D01*
X018551Y013423D01*
X018551Y013588D01*
X018951Y013588D01*
X018951Y013588D01*
X018551Y013588D01*
X018551Y013754D01*
X018785Y013988D01*
X018951Y013988D01*
X018951Y013589D01*
X018951Y013589D01*
X018951Y013988D01*
X019117Y013988D01*
X019351Y013754D01*
X019351Y013588D01*
X018951Y013588D01*
X018951Y013588D01*
X019351Y013588D01*
X019351Y013423D01*
X019212Y013283D01*
X019444Y013283D01*
X020801Y014641D01*
X020734Y014669D01*
X020222Y014157D01*
X020132Y014067D01*
X020015Y014018D01*
X014334Y014018D01*
X012884Y012568D01*
X013154Y012838D02*
X013249Y012838D01*
X013201Y012791D02*
X013201Y012886D01*
X013701Y013258D02*
X013701Y013386D01*
X013654Y013338D02*
X018635Y013338D01*
X018701Y013588D02*
X018701Y013588D01*
X018635Y013838D02*
X014154Y013838D01*
X014201Y013886D02*
X014201Y013283D01*
X014701Y013283D02*
X014701Y014018D01*
X015201Y014018D02*
X015201Y013283D01*
X015701Y013283D02*
X015701Y014018D01*
X016201Y014018D02*
X016201Y013283D01*
X016701Y013283D02*
X016701Y014018D01*
X017201Y014018D02*
X017201Y013283D01*
X017701Y013283D02*
X017701Y014018D01*
X018201Y014018D02*
X018201Y013283D01*
X018701Y013904D02*
X018701Y014018D01*
X018951Y013838D02*
X018951Y013838D01*
X019201Y013904D02*
X019201Y014018D01*
X019267Y013838D02*
X019999Y013838D01*
X020201Y014041D02*
X020201Y014136D01*
X020404Y014338D02*
X020499Y014338D01*
X020701Y014541D02*
X020701Y014636D01*
X021201Y014136D02*
X021201Y014017D01*
X021150Y014068D02*
X021134Y014068D01*
X021734Y014669D01*
X021404Y014338D02*
X022131Y014338D01*
X021867Y013988D02*
X021701Y013988D01*
X021535Y013988D01*
X021383Y013835D01*
X021150Y014068D01*
X021380Y013838D02*
X021386Y013838D01*
X021701Y013838D02*
X021701Y013838D01*
X021701Y013988D02*
X021701Y013589D01*
X021701Y013589D01*
X021701Y013988D01*
X021867Y013988D02*
X022101Y013754D01*
X022101Y013588D01*
X021701Y013588D01*
X021385Y013338D02*
X021380Y013338D01*
X021201Y013159D02*
X021201Y012781D01*
X020941Y012541D02*
X020654Y012828D01*
X020248Y012828D01*
X019961Y012541D01*
X019961Y012135D01*
X020248Y011848D01*
X020654Y011848D01*
X020941Y012135D01*
X020941Y012541D01*
X020941Y012338D02*
X020961Y012338D01*
X021201Y011895D02*
X021201Y009158D01*
X020701Y009158D02*
X020701Y011895D01*
X020201Y011895D02*
X020201Y008916D01*
X020124Y008838D02*
X019021Y008838D01*
X018701Y009338D02*
X018701Y007838D01*
X018221Y007838D02*
X017654Y007838D01*
X017701Y007791D02*
X017701Y008409D01*
X017271Y008338D02*
X018381Y008338D01*
X018201Y008409D02*
X018201Y007533D01*
X018201Y006893D02*
X018201Y006122D01*
X018701Y006158D02*
X018701Y006893D01*
X019201Y007011D02*
X019201Y006158D01*
X020201Y005778D02*
X020201Y008011D01*
X020221Y007838D02*
X020029Y007838D01*
X019624Y008338D02*
X019021Y008338D01*
X019201Y007916D02*
X019201Y011895D01*
X018701Y011895D02*
X018701Y009791D01*
X018654Y009838D02*
X021635Y009838D01*
X021701Y009773D02*
X021701Y009267D01*
X021951Y009838D02*
X021951Y009838D01*
X021951Y010088D02*
X021551Y010088D01*
X021951Y010088D01*
X021951Y010088D01*
X021951Y010089D02*
X021951Y010488D01*
X021951Y010089D01*
X021951Y010089D01*
X021951Y010338D02*
X021951Y010338D01*
X021701Y010404D02*
X021701Y010759D01*
X021622Y010838D02*
X018280Y010838D01*
X018431Y011338D02*
X021471Y011338D01*
X021701Y011617D02*
X021701Y011895D01*
X022131Y011838D02*
X013654Y011838D01*
X013701Y011791D02*
X013701Y012386D01*
X013654Y012338D02*
X013961Y012338D01*
X014201Y011895D02*
X014201Y011471D01*
X014701Y011471D02*
X014701Y011895D01*
X015201Y011895D02*
X015201Y011471D01*
X015701Y011471D02*
X015701Y011895D01*
X016201Y011895D02*
X016201Y011471D01*
X016701Y011580D02*
X016701Y011895D01*
X017201Y011895D02*
X017201Y011579D01*
X017431Y011338D02*
X017471Y011338D01*
X017701Y011617D02*
X017701Y011895D01*
X018201Y011895D02*
X018201Y011617D01*
X017961Y012338D02*
X017941Y012338D01*
X016961Y012338D02*
X016941Y012338D01*
X015961Y012338D02*
X015941Y012338D01*
X014961Y012338D02*
X014941Y012338D01*
X012749Y013338D02*
X001981Y013338D01*
X001981Y012838D02*
X003635Y012838D01*
X004201Y012654D02*
X004201Y014838D01*
X004201Y015338D02*
X004201Y020891D01*
X004322Y020770D01*
X004568Y020668D01*
X004834Y020668D01*
X005081Y020770D01*
X005201Y020891D01*
X005322Y020770D01*
X005568Y020668D01*
X005834Y020668D01*
X006081Y020770D01*
X006201Y020891D01*
X006201Y015338D01*
X005701Y015338D02*
X005701Y020668D01*
X005254Y020838D02*
X005149Y020838D01*
X005201Y020891D02*
X005201Y015338D01*
X004701Y015338D02*
X004701Y020668D01*
X004254Y020838D02*
X004149Y020838D01*
X004201Y020891D02*
X004081Y020770D01*
X003834Y020668D01*
X003568Y020668D01*
X003322Y020770D01*
X003133Y020959D01*
X003031Y021205D01*
X003031Y021472D01*
X003133Y021718D01*
X003254Y021838D01*
X003133Y021959D01*
X003031Y022205D01*
X003031Y022472D01*
X003133Y022718D01*
X003254Y022838D01*
X003133Y022959D01*
X003031Y023205D01*
X003031Y023472D01*
X003133Y023718D01*
X003254Y023838D01*
X003133Y023959D01*
X003031Y024205D01*
X003031Y024472D01*
X003133Y024718D01*
X003254Y024838D01*
X001981Y024838D01*
X001981Y025338D02*
X003031Y025338D01*
X003031Y025205D02*
X003133Y024959D01*
X003254Y024838D01*
X003201Y024786D02*
X003201Y024891D01*
X003031Y025205D02*
X003031Y025472D01*
X003133Y025718D01*
X003254Y025838D01*
X001981Y025838D01*
X001981Y026338D02*
X003031Y026338D01*
X003031Y026205D02*
X003133Y025959D01*
X003254Y025838D01*
X003201Y025786D02*
X003201Y025891D01*
X003031Y026205D02*
X003031Y026472D01*
X003133Y026718D01*
X003254Y026838D01*
X001981Y026838D01*
X001981Y027338D02*
X003031Y027338D01*
X003031Y027205D02*
X003133Y026959D01*
X003254Y026838D01*
X003201Y026786D02*
X003201Y026891D01*
X003031Y027205D02*
X003031Y027472D01*
X003133Y027718D01*
X003254Y027838D01*
X001981Y027838D01*
X001981Y028338D02*
X003031Y028338D01*
X003031Y028205D02*
X003133Y027959D01*
X003254Y027838D01*
X003201Y027786D02*
X003201Y027891D01*
X003031Y028205D02*
X003031Y028472D01*
X003133Y028718D01*
X003254Y028838D01*
X001981Y028838D01*
X001981Y029338D02*
X003031Y029338D01*
X003031Y029205D02*
X003133Y028959D01*
X003254Y028838D01*
X003201Y028786D02*
X003201Y028891D01*
X003031Y029205D02*
X003031Y029472D01*
X003133Y029718D01*
X003254Y029838D01*
X003201Y029786D02*
X003201Y029891D01*
X003031Y030205D02*
X003031Y030472D01*
X003133Y030718D01*
X003254Y030838D01*
X003133Y030959D01*
X003031Y031205D01*
X003031Y031472D01*
X003133Y031718D01*
X003322Y031906D01*
X003568Y032008D01*
X003834Y032008D01*
X004081Y031906D01*
X004201Y031786D01*
X004201Y032058D01*
X004322Y031906D02*
X004201Y031786D01*
X004149Y031838D02*
X004254Y031838D01*
X004322Y031906D02*
X004568Y032008D01*
X004834Y032008D01*
X005081Y031906D01*
X005201Y031786D01*
X005201Y032058D01*
X005322Y031906D02*
X005201Y031786D01*
X005149Y031838D02*
X005254Y031838D01*
X005322Y031906D02*
X005568Y032008D01*
X005834Y032008D01*
X006081Y031906D01*
X006201Y031786D01*
X006201Y032058D01*
X006322Y031906D02*
X006201Y031786D01*
X006149Y031838D02*
X006254Y031838D01*
X006322Y031906D02*
X006568Y032008D01*
X006834Y032008D01*
X007081Y031906D01*
X007201Y031786D01*
X007201Y032058D01*
X007322Y031906D02*
X007201Y031786D01*
X007149Y031838D02*
X007254Y031838D01*
X007322Y031906D02*
X007568Y032008D01*
X007834Y032008D01*
X008081Y031906D01*
X008201Y031786D01*
X008201Y032058D01*
X008322Y031906D02*
X008201Y031786D01*
X008149Y031838D02*
X008254Y031838D01*
X008322Y031906D02*
X008568Y032008D01*
X008834Y032008D01*
X009081Y031906D01*
X009201Y031786D01*
X009201Y032058D01*
X009322Y031906D02*
X009201Y031786D01*
X009149Y031838D02*
X009254Y031838D01*
X009322Y031906D02*
X009568Y032008D01*
X009834Y032008D01*
X010081Y031906D01*
X010201Y031786D01*
X010201Y032058D01*
X010322Y031906D02*
X010201Y031786D01*
X010149Y031838D02*
X010254Y031838D01*
X010322Y031906D02*
X010568Y032008D01*
X010834Y032008D01*
X011081Y031906D01*
X011269Y031718D01*
X011371Y031472D01*
X011371Y031205D01*
X011269Y030959D01*
X011149Y030838D01*
X011254Y030838D01*
X011201Y030786D02*
X011201Y030891D01*
X011149Y030838D02*
X011201Y030786D01*
X011322Y030906D01*
X011568Y031008D01*
X011834Y031008D01*
X012081Y030906D01*
X012269Y030718D01*
X012371Y030472D01*
X012371Y030205D01*
X012269Y029959D01*
X012149Y029838D01*
X012254Y029838D01*
X012201Y029786D02*
X012201Y029891D01*
X012149Y029838D02*
X012201Y029786D01*
X012322Y029906D01*
X012568Y030008D01*
X012834Y030008D01*
X013081Y029906D01*
X013269Y029718D01*
X013371Y029472D01*
X013371Y029205D01*
X013269Y028959D01*
X013149Y028838D01*
X013254Y028838D01*
X013201Y028786D02*
X013201Y028891D01*
X013149Y028838D02*
X013201Y028786D01*
X013322Y028906D01*
X013568Y029008D01*
X013834Y029008D01*
X014081Y028906D01*
X014201Y028786D01*
X014201Y030895D01*
X014248Y030848D02*
X013961Y031135D01*
X013961Y031541D01*
X014248Y031828D01*
X014654Y031828D01*
X014941Y031541D01*
X014941Y031135D01*
X014654Y030848D01*
X014248Y030848D01*
X014701Y030895D02*
X014701Y029008D01*
X014834Y029008D02*
X014568Y029008D01*
X014322Y028906D01*
X014201Y028786D01*
X014149Y028838D02*
X014254Y028838D01*
X014834Y029008D02*
X015081Y028906D01*
X015201Y028786D01*
X015201Y030895D01*
X015248Y030848D02*
X015654Y030848D01*
X015941Y031135D01*
X015941Y031541D01*
X015654Y031828D01*
X015248Y031828D01*
X014961Y031541D01*
X014961Y031135D01*
X015248Y030848D01*
X015701Y030895D02*
X015701Y029008D01*
X015834Y029008D02*
X015568Y029008D01*
X015322Y028906D01*
X015201Y028786D01*
X015149Y028838D02*
X015254Y028838D01*
X015834Y029008D02*
X016081Y028906D01*
X016201Y028786D01*
X016201Y030895D01*
X016248Y030848D02*
X016654Y030848D01*
X016941Y031135D01*
X016941Y031541D01*
X016654Y031828D01*
X016248Y031828D01*
X015961Y031541D01*
X015961Y031135D01*
X016248Y030848D01*
X016701Y030895D02*
X016701Y029008D01*
X016834Y029008D02*
X016568Y029008D01*
X016322Y028906D01*
X016201Y028786D01*
X016149Y028838D02*
X016254Y028838D01*
X016834Y029008D02*
X017081Y028906D01*
X017201Y028786D01*
X017201Y030895D01*
X017248Y030848D02*
X017654Y030848D01*
X017941Y031135D01*
X017941Y031541D01*
X017654Y031828D01*
X017248Y031828D01*
X016961Y031541D01*
X016961Y031135D01*
X017248Y030848D01*
X017701Y030895D02*
X017701Y029008D01*
X017568Y029008D02*
X017322Y028906D01*
X017201Y028786D01*
X017149Y028838D02*
X017254Y028838D01*
X017568Y029008D02*
X017834Y029008D01*
X018081Y028906D01*
X018201Y028786D01*
X018201Y030895D01*
X018248Y030848D02*
X018654Y030848D01*
X018941Y031135D01*
X018941Y031541D01*
X018654Y031828D01*
X018248Y031828D01*
X017961Y031541D01*
X017961Y031135D01*
X018248Y030848D01*
X018701Y030895D02*
X018701Y029008D01*
X018568Y029008D02*
X018322Y028906D01*
X018201Y028786D01*
X018149Y028838D02*
X018254Y028838D01*
X018568Y029008D02*
X018834Y029008D01*
X019081Y028906D01*
X019201Y028786D01*
X019201Y030895D01*
X019248Y030848D02*
X019654Y030848D01*
X019941Y031135D01*
X019941Y031541D01*
X019654Y031828D01*
X019248Y031828D01*
X018961Y031541D01*
X018961Y031135D01*
X019248Y030848D01*
X019701Y030895D02*
X019701Y029008D01*
X019568Y029008D02*
X019322Y028906D01*
X019201Y028786D01*
X019149Y028838D02*
X019254Y028838D01*
X019568Y029008D02*
X019834Y029008D01*
X020081Y028906D01*
X020201Y028786D01*
X020201Y032058D01*
X019701Y032058D02*
X019701Y031781D01*
X019201Y031781D02*
X019201Y032058D01*
X018701Y032058D02*
X018701Y031781D01*
X018201Y031781D02*
X018201Y032058D01*
X017701Y032058D02*
X017701Y031781D01*
X017201Y031781D02*
X017201Y032058D01*
X016701Y032058D02*
X016701Y031781D01*
X016201Y031781D02*
X016201Y032058D01*
X015701Y032058D02*
X015701Y031781D01*
X015201Y031781D02*
X015201Y032058D01*
X014701Y032058D02*
X014701Y031781D01*
X014201Y031781D02*
X014201Y032058D01*
X013701Y032058D02*
X013701Y029008D01*
X013371Y029338D02*
X027031Y029338D01*
X027031Y029205D02*
X027133Y028959D01*
X027254Y028838D01*
X026983Y028838D01*
X027024Y028821D02*
X026814Y028908D01*
X026588Y028908D01*
X026378Y028821D01*
X026295Y028738D01*
X026107Y028738D01*
X026024Y028821D01*
X025814Y028908D01*
X025588Y028908D01*
X025378Y028821D01*
X025218Y028661D01*
X025201Y028621D01*
X025201Y030895D01*
X025248Y030848D02*
X025654Y030848D01*
X025941Y031135D01*
X025941Y031541D01*
X025654Y031828D01*
X025248Y031828D01*
X024961Y031541D01*
X024961Y031135D01*
X025248Y030848D01*
X024941Y031135D02*
X024654Y030848D01*
X024248Y030848D01*
X023961Y031135D01*
X023961Y031541D01*
X024248Y031828D01*
X024654Y031828D01*
X024941Y031541D01*
X024941Y031135D01*
X024941Y031338D02*
X024961Y031338D01*
X024701Y030895D02*
X024701Y028908D01*
X024814Y028908D02*
X024588Y028908D01*
X024378Y028821D01*
X024218Y028661D01*
X024201Y028621D01*
X024201Y030895D01*
X023861Y031168D02*
X023861Y031338D01*
X023451Y031338D01*
X023451Y031338D01*
X023451Y030928D01*
X023281Y030928D01*
X023041Y031168D01*
X023041Y031338D01*
X023451Y031338D01*
X023451Y031338D01*
X023451Y030928D01*
X023621Y030928D01*
X023861Y031168D01*
X023861Y031338D02*
X023861Y031508D01*
X023621Y031748D01*
X023451Y031748D01*
X023281Y031748D01*
X023041Y031508D01*
X023041Y031338D01*
X023451Y031338D01*
X022451Y031338D01*
X022451Y031338D01*
X022451Y030928D01*
X022281Y030928D01*
X022041Y031168D01*
X022041Y031338D01*
X022451Y031338D01*
X022451Y031338D01*
X022451Y030928D01*
X022621Y030928D01*
X022861Y031168D01*
X022861Y031338D01*
X022451Y031338D01*
X021941Y031338D01*
X022041Y031338D02*
X022451Y031338D01*
X022451Y031338D01*
X022451Y031339D02*
X022451Y031748D01*
X022281Y031748D01*
X022041Y031508D01*
X022041Y031338D01*
X022201Y031338D02*
X022201Y031338D01*
X022451Y031339D02*
X022451Y031339D01*
X022451Y031748D01*
X022621Y031748D01*
X022861Y031508D01*
X022861Y031338D01*
X022451Y031338D01*
X022701Y031338D02*
X022701Y031338D01*
X022701Y031008D02*
X022701Y029008D01*
X022568Y029008D02*
X022322Y028906D01*
X022201Y028786D01*
X022201Y031008D01*
X021941Y031135D02*
X021654Y030848D01*
X021248Y030848D01*
X020961Y031135D01*
X020961Y031541D01*
X021248Y031828D01*
X021654Y031828D01*
X021941Y031541D01*
X021941Y031135D01*
X021701Y030895D02*
X021701Y029008D01*
X021568Y029008D02*
X021322Y028906D01*
X021201Y028786D01*
X021201Y030895D01*
X020961Y031338D02*
X019941Y031338D01*
X018961Y031338D02*
X018941Y031338D01*
X017961Y031338D02*
X017941Y031338D01*
X016961Y031338D02*
X016941Y031338D01*
X015961Y031338D02*
X015941Y031338D01*
X014961Y031338D02*
X014941Y031338D01*
X013961Y031338D02*
X011371Y031338D01*
X011701Y031008D02*
X011701Y032058D01*
X011201Y032058D02*
X011201Y031786D01*
X011149Y031838D02*
X029254Y031838D01*
X029201Y031786D02*
X029201Y032058D01*
X029322Y031906D02*
X029133Y031718D01*
X029031Y031472D01*
X029031Y031205D01*
X029133Y030959D01*
X029254Y030838D01*
X029149Y030838D01*
X029201Y030786D02*
X029201Y030891D01*
X029254Y030838D02*
X029201Y030786D01*
X029081Y030906D01*
X028834Y031008D01*
X028568Y031008D01*
X028322Y030906D01*
X028133Y030718D01*
X028031Y030472D01*
X028031Y030205D01*
X028133Y029959D01*
X028254Y029838D01*
X028149Y029838D01*
X028201Y029786D02*
X028201Y029891D01*
X028254Y029838D02*
X028201Y029786D01*
X028081Y029906D01*
X027834Y030008D01*
X027568Y030008D01*
X027322Y029906D01*
X027133Y029718D01*
X027031Y029472D01*
X027031Y029205D01*
X027201Y028891D02*
X027201Y028786D01*
X027254Y028838D02*
X027133Y028718D01*
X027132Y028714D01*
X027024Y028821D01*
X026701Y028908D02*
X026701Y030895D01*
X026654Y030848D02*
X026941Y031135D01*
X026941Y031541D01*
X026654Y031828D01*
X026248Y031828D01*
X025961Y031541D01*
X025961Y031135D01*
X026248Y030848D01*
X026654Y030848D01*
X026201Y030895D02*
X026201Y028738D01*
X025983Y028838D02*
X026419Y028838D01*
X025701Y028908D02*
X025701Y030895D01*
X025941Y031338D02*
X025961Y031338D01*
X026201Y031781D02*
X026201Y032058D01*
X025701Y032058D02*
X025701Y031781D01*
X025201Y031781D02*
X025201Y032058D01*
X024701Y032058D02*
X024701Y031781D01*
X024201Y031781D02*
X024201Y032058D01*
X023701Y032058D02*
X023701Y031668D01*
X023451Y031748D02*
X023451Y031339D01*
X023451Y031748D01*
X023201Y031668D02*
X023201Y032058D01*
X022701Y032058D02*
X022701Y031668D01*
X022201Y031668D02*
X022201Y032058D01*
X021701Y032058D02*
X021701Y031781D01*
X021201Y031781D02*
X021201Y032058D01*
X020701Y032058D02*
X020701Y029008D01*
X020568Y029008D02*
X020322Y028906D01*
X020201Y028786D01*
X020149Y028838D02*
X020254Y028838D01*
X020568Y029008D02*
X020834Y029008D01*
X021081Y028906D01*
X021201Y028786D01*
X021149Y028838D02*
X021254Y028838D01*
X021568Y029008D02*
X021834Y029008D01*
X022081Y028906D01*
X022201Y028786D01*
X022149Y028838D02*
X022254Y028838D01*
X022568Y029008D02*
X022834Y029008D01*
X023081Y028906D01*
X023269Y028718D01*
X023271Y028714D01*
X023378Y028821D01*
X023588Y028908D01*
X023814Y028908D01*
X024024Y028821D01*
X024184Y028661D01*
X024201Y028621D01*
X023983Y028838D02*
X024419Y028838D01*
X024814Y028908D02*
X025024Y028821D01*
X025184Y028661D01*
X025201Y028621D01*
X024983Y028838D02*
X025419Y028838D01*
X023701Y028908D02*
X023701Y031008D01*
X023701Y031338D02*
X023701Y031338D01*
X023861Y031338D02*
X023451Y031338D01*
X023451Y031338D01*
X023961Y031338D01*
X023451Y031339D02*
X023451Y031339D01*
X023201Y031338D02*
X023201Y031338D01*
X023201Y031008D02*
X023201Y028786D01*
X023149Y028838D02*
X023419Y028838D01*
X026941Y031338D02*
X029031Y031338D01*
X028701Y031008D02*
X028701Y032058D01*
X028201Y032058D02*
X028201Y030786D01*
X028254Y030838D02*
X012149Y030838D01*
X012201Y030786D02*
X012201Y032058D01*
X012701Y032058D02*
X012701Y030008D01*
X012371Y030338D02*
X028031Y030338D01*
X027701Y030008D02*
X027701Y032058D01*
X027201Y032058D02*
X027201Y029786D01*
X027254Y029838D02*
X013149Y029838D01*
X013201Y029786D02*
X013201Y032058D01*
X010701Y032008D02*
X010701Y032058D01*
X009701Y032058D02*
X009701Y032008D01*
X008701Y032008D02*
X008701Y032058D01*
X007701Y032058D02*
X007701Y032008D01*
X006701Y032008D02*
X006701Y032058D01*
X005701Y032058D02*
X005701Y032008D01*
X004701Y032008D02*
X004701Y032058D01*
X003254Y031838D02*
X002877Y031838D01*
X002701Y031727D02*
X002701Y015338D01*
X002201Y015338D02*
X002201Y031163D01*
X002312Y031338D02*
X003031Y031338D01*
X003201Y030891D02*
X003201Y030786D01*
X003254Y030838D02*
X002062Y030838D01*
X003201Y031786D02*
X003201Y031977D01*
X003031Y024338D02*
X001981Y024338D01*
X001981Y023838D02*
X003254Y023838D01*
X003201Y023786D02*
X003201Y023891D01*
X003031Y023338D02*
X001981Y023338D01*
X001981Y022838D02*
X003254Y022838D01*
X003201Y022786D02*
X003201Y022891D01*
X003031Y022338D02*
X001981Y022338D01*
X001981Y021838D02*
X003254Y021838D01*
X003201Y021786D02*
X003201Y021891D01*
X003031Y021338D02*
X001981Y021338D01*
X001981Y020838D02*
X003254Y020838D01*
X003201Y020891D02*
X003201Y015338D01*
X003701Y015338D02*
X003701Y020668D01*
X006149Y020838D02*
X006254Y020838D01*
X006201Y020891D02*
X006322Y020770D01*
X006568Y020668D01*
X006834Y020668D01*
X007081Y020770D01*
X007201Y020891D01*
X007322Y020770D01*
X007568Y020668D01*
X007834Y020668D01*
X008081Y020770D01*
X008201Y020891D01*
X008322Y020770D01*
X008568Y020668D01*
X008834Y020668D01*
X009081Y020770D01*
X009201Y020891D01*
X009322Y020770D01*
X009568Y020668D01*
X009834Y020668D01*
X010081Y020770D01*
X010201Y020891D01*
X010322Y020770D01*
X010568Y020668D01*
X010834Y020668D01*
X011081Y020770D01*
X011201Y020891D01*
X011322Y020770D01*
X011568Y020668D01*
X011834Y020668D01*
X012081Y020770D01*
X012201Y020891D01*
X012322Y020770D01*
X012568Y020668D01*
X012834Y020668D01*
X013081Y020770D01*
X013201Y020891D01*
X013322Y020770D01*
X013568Y020668D01*
X013834Y020668D01*
X014081Y020770D01*
X014201Y020891D01*
X014322Y020770D01*
X014568Y020668D01*
X014834Y020668D01*
X015081Y020770D01*
X015201Y020891D01*
X015322Y020770D01*
X015568Y020668D01*
X015834Y020668D01*
X016081Y020770D01*
X016201Y020891D01*
X016322Y020770D01*
X016568Y020668D01*
X016834Y020668D01*
X017081Y020770D01*
X017201Y020891D01*
X017201Y015338D01*
X017201Y014838D02*
X017201Y014658D01*
X016701Y014658D02*
X016701Y014838D01*
X016201Y014838D02*
X016201Y014658D01*
X015701Y014658D02*
X015701Y014838D01*
X015201Y014838D02*
X015201Y014658D01*
X014701Y014658D02*
X014701Y014838D01*
X014701Y015338D02*
X014701Y020668D01*
X014254Y020838D02*
X014149Y020838D01*
X014201Y020891D02*
X014201Y015338D01*
X014201Y014838D02*
X014201Y014658D01*
X013701Y014838D02*
X013701Y014291D01*
X013749Y014338D02*
X013267Y014338D01*
X013201Y014404D02*
X013201Y014838D01*
X013117Y014488D02*
X012951Y014488D01*
X012785Y014488D01*
X012551Y014254D01*
X012551Y014088D01*
X012951Y014088D01*
X012951Y014088D01*
X012951Y014088D01*
X012951Y014089D02*
X012951Y014488D01*
X012951Y014089D01*
X012951Y014089D01*
X012951Y014088D02*
X013351Y014088D01*
X013351Y014254D01*
X013117Y014488D01*
X012951Y014338D02*
X012951Y014338D01*
X012701Y014404D02*
X012701Y014838D01*
X012701Y015338D02*
X012701Y020668D01*
X012254Y020838D02*
X012149Y020838D01*
X012201Y020891D02*
X012201Y015338D01*
X011701Y015338D02*
X011701Y020668D01*
X011254Y020838D02*
X011149Y020838D01*
X011201Y020891D02*
X011201Y015338D01*
X010701Y015338D02*
X010701Y020668D01*
X010254Y020838D02*
X010149Y020838D01*
X010201Y020891D02*
X010201Y017549D01*
X010265Y017439D02*
X010265Y017439D01*
X010283Y017338D02*
X019201Y017338D01*
X019201Y017838D02*
X009978Y017838D01*
X009701Y018017D02*
X009701Y020668D01*
X009254Y020838D02*
X009149Y020838D01*
X009201Y020891D02*
X009201Y018098D01*
X009245Y018098D02*
X009245Y018098D01*
X009123Y018098D02*
X009123Y018098D01*
X008788Y017976D02*
X008788Y017976D01*
X008701Y017903D02*
X008701Y020668D01*
X008254Y020838D02*
X008149Y020838D01*
X008201Y020891D02*
X008201Y015338D01*
X007701Y015338D02*
X007701Y020668D01*
X007254Y020838D02*
X007149Y020838D01*
X007201Y020891D02*
X007201Y015338D01*
X006701Y015338D02*
X006701Y020668D01*
X009479Y018098D02*
X009479Y018098D01*
X008624Y017838D02*
X001981Y017838D01*
X001981Y018338D02*
X019201Y018338D01*
X020431Y018338D02*
X020471Y018338D01*
X021951Y018338D02*
X022471Y018338D01*
X022201Y018338D02*
X022201Y018338D01*
X021951Y018338D02*
X021951Y018338D01*
X021951Y017838D02*
X021951Y017838D01*
X022201Y017784D02*
X022201Y017231D01*
X022701Y017231D02*
X022701Y017682D01*
X022539Y017838D02*
X022257Y017838D01*
X021951Y018838D02*
X021951Y018838D01*
X021701Y019838D02*
X021701Y022668D01*
X021254Y022838D02*
X021149Y022838D01*
X021201Y022891D02*
X021201Y019838D01*
X021130Y020338D02*
X024272Y020338D01*
X024221Y020389D02*
X024502Y020108D01*
X024900Y020108D01*
X025181Y020389D01*
X025181Y020787D01*
X024900Y021068D01*
X024502Y021068D01*
X024221Y020787D01*
X024221Y020389D01*
X024272Y020838D02*
X021130Y020838D01*
X020081Y021770D02*
X020269Y021959D01*
X020371Y022205D01*
X020371Y022472D01*
X020269Y022718D01*
X020149Y022838D01*
X020254Y022838D01*
X020201Y022786D02*
X020201Y022891D01*
X020149Y022838D01*
X020201Y022891D02*
X020322Y022770D01*
X020568Y022668D01*
X020371Y022338D02*
X025131Y022338D01*
X025201Y022056D02*
X025201Y019838D01*
X024701Y019838D02*
X024701Y020108D01*
X025130Y020338D02*
X026059Y020338D01*
X026201Y020481D02*
X026201Y022056D01*
X025983Y021838D02*
X026419Y021838D01*
X026701Y021768D02*
X026701Y020481D01*
X026826Y020338D02*
X026951Y020213D01*
X026951Y020088D01*
X026843Y020338D02*
X045921Y020338D01*
X045921Y020838D02*
X025130Y020838D01*
X024701Y021068D02*
X024701Y022768D01*
X024419Y022838D02*
X023983Y022838D01*
X023701Y022768D02*
X023701Y019838D01*
X024201Y019838D02*
X024201Y023056D01*
X024983Y022838D02*
X025419Y022838D01*
X025378Y022821D01*
X025218Y022661D01*
X025378Y022855D02*
X025419Y022838D01*
X025378Y022855D02*
X025218Y023015D01*
X025201Y023056D01*
X023419Y022838D02*
X023149Y022838D01*
X023201Y022891D02*
X023201Y019838D01*
X022701Y019838D02*
X022701Y022668D01*
X022254Y022838D02*
X022149Y022838D01*
X022201Y022891D02*
X022201Y019838D01*
X023701Y019338D02*
X023701Y019291D01*
X024363Y018838D02*
X024539Y018838D01*
X024701Y018994D02*
X024701Y019018D01*
X025951Y018338D02*
X025951Y016463D01*
X026451Y015963D01*
X025131Y016338D02*
X022771Y016338D01*
X022909Y016838D02*
X025131Y016838D01*
X026951Y017338D02*
X028201Y016088D01*
X028201Y012338D01*
X030201Y012828D02*
X030201Y012858D01*
X030681Y013338D02*
X036845Y013338D01*
X037201Y012912D02*
X037201Y011767D01*
X037701Y011767D02*
X037701Y012912D01*
X038201Y012912D02*
X038201Y011767D01*
X038551Y012173D02*
X038785Y011938D01*
X038951Y011938D01*
X038951Y012338D01*
X038951Y012338D01*
X038951Y011938D01*
X039117Y011938D01*
X039351Y012173D01*
X039351Y012338D01*
X038951Y012338D01*
X038551Y012338D01*
X038551Y012173D01*
X038551Y012338D02*
X038951Y012338D01*
X038951Y012338D01*
X036431Y012338D01*
X034201Y012338D02*
X034201Y012338D01*
X034201Y012654D02*
X034201Y013409D01*
X033951Y013838D02*
X033951Y013838D01*
X032701Y013838D01*
X026451Y020088D01*
X020081Y021770D02*
X019834Y021668D01*
X019568Y021668D01*
X019322Y021770D01*
X019201Y021891D01*
X019201Y021786D01*
X019149Y021838D02*
X019254Y021838D01*
X019201Y021891D02*
X019149Y021838D01*
X019269Y021718D01*
X019371Y021472D01*
X019371Y021205D01*
X019269Y020959D01*
X019081Y020770D01*
X018834Y020668D01*
X018568Y020668D01*
X018322Y020770D01*
X018201Y020891D01*
X018081Y020770D01*
X017834Y020668D01*
X017568Y020668D01*
X017322Y020770D01*
X017201Y020891D01*
X017149Y020838D02*
X017254Y020838D01*
X017701Y020668D02*
X017701Y015338D01*
X017701Y014838D02*
X017701Y014658D01*
X018201Y014658D02*
X018201Y014838D01*
X018701Y014838D02*
X018701Y014658D01*
X019201Y014658D02*
X019201Y014838D01*
X019201Y015338D02*
X001981Y015338D01*
X001981Y015838D02*
X019201Y015838D01*
X018701Y015338D02*
X018701Y020668D01*
X018254Y020838D02*
X018149Y020838D01*
X018201Y020891D02*
X018201Y015338D01*
X016701Y015338D02*
X016701Y020668D01*
X016254Y020838D02*
X016149Y020838D01*
X016201Y020891D02*
X016201Y015338D01*
X015701Y015338D02*
X015701Y020668D01*
X015254Y020838D02*
X015149Y020838D01*
X015201Y020891D02*
X015201Y015338D01*
X013701Y015338D02*
X013701Y020668D01*
X013254Y020838D02*
X013149Y020838D01*
X013201Y020891D02*
X013201Y015338D01*
X012635Y014338D02*
X001981Y014338D01*
X001981Y013838D02*
X012635Y013838D01*
X012701Y013773D02*
X012701Y013291D01*
X012951Y013838D02*
X012951Y013838D01*
X012701Y014088D02*
X012701Y014088D01*
X013201Y014088D02*
X013201Y014088D01*
X009201Y012273D02*
X009201Y008267D01*
X011701Y008409D02*
X011701Y007281D01*
X013201Y007768D02*
X013201Y006122D01*
X013701Y006158D02*
X013701Y007397D01*
X014201Y007422D02*
X014201Y006158D01*
X014654Y005838D02*
X017440Y005838D01*
X017201Y005778D02*
X017201Y006163D01*
X017354Y006338D02*
X020989Y006338D01*
X021201Y006103D02*
X021201Y005778D01*
X020701Y005778D02*
X020701Y007358D01*
X019701Y008416D02*
X019701Y011895D01*
X019941Y012338D02*
X019961Y012338D01*
X019904Y012838D02*
X022131Y012838D01*
X022131Y013338D02*
X022017Y013338D01*
X022017Y013838D02*
X022131Y013838D01*
X022771Y013838D02*
X023272Y013838D01*
X023701Y014068D02*
X023701Y014682D01*
X023539Y014838D02*
X023363Y014838D01*
X023201Y014682D02*
X023201Y012828D01*
X023691Y012338D02*
X023711Y012338D01*
X024130Y013338D02*
X024631Y013338D01*
X024631Y013838D02*
X024130Y013838D01*
X024631Y014338D02*
X022771Y014338D01*
X023431Y015338D02*
X023471Y015338D01*
X020701Y013159D02*
X020701Y012781D01*
X020201Y012781D02*
X020201Y013136D01*
X020404Y013338D02*
X020522Y013338D01*
X019701Y013541D02*
X019701Y014018D01*
X019201Y013588D02*
X019201Y013588D01*
X019267Y013338D02*
X019499Y013338D01*
X018961Y012338D02*
X018941Y012338D01*
X018380Y010338D02*
X021635Y010338D01*
X021701Y010088D02*
X021701Y010088D01*
X021941Y012338D02*
X022131Y012338D01*
X019701Y014658D02*
X019701Y014682D01*
X017951Y010088D02*
X017951Y008838D01*
X017471Y008838D02*
X017431Y008838D01*
X016631Y008338D02*
X013904Y008338D01*
X014201Y008255D02*
X014201Y008518D01*
X014701Y008518D02*
X014701Y005791D01*
X015201Y005778D02*
X015201Y008518D01*
X015701Y008518D02*
X015701Y008280D01*
X016201Y008255D02*
X016201Y008518D01*
X016419Y007838D02*
X016749Y007838D01*
X016701Y007886D02*
X016701Y007281D01*
X017701Y006919D02*
X017701Y006064D01*
X016701Y005916D02*
X016701Y005778D01*
X016701Y005138D02*
X016701Y004331D01*
X017201Y004293D02*
X017201Y005138D01*
X017701Y004852D02*
X017701Y001618D01*
X018201Y001618D02*
X018201Y004794D01*
X018308Y004838D02*
X018329Y004838D01*
X017734Y004838D02*
X014694Y004838D01*
X014964Y002838D02*
X015099Y002838D01*
X015201Y002436D02*
X015201Y002301D01*
X014701Y002301D02*
X014701Y002436D01*
X014701Y001846D02*
X014701Y001618D01*
X019701Y001618D02*
X019701Y001846D01*
X019701Y002301D02*
X019701Y002436D01*
X019964Y002838D02*
X020099Y002838D01*
X020201Y002436D02*
X020201Y002301D01*
X021701Y002966D02*
X021701Y001618D01*
X022201Y001618D02*
X022201Y003003D01*
X024701Y002436D02*
X024701Y002301D01*
X024701Y001846D02*
X024701Y001618D01*
X025201Y002301D02*
X025201Y002436D01*
X025099Y002838D02*
X024964Y002838D01*
X026701Y002966D02*
X026701Y001618D01*
X028201Y001618D02*
X028201Y004794D01*
X028308Y004838D02*
X028329Y004838D01*
X029694Y004838D02*
X032734Y004838D01*
X032701Y004852D02*
X032701Y001618D01*
X033201Y001618D02*
X033201Y004794D01*
X033308Y004838D02*
X033329Y004838D01*
X034201Y005838D02*
X034581Y005458D01*
X038021Y005458D01*
X037440Y005838D02*
X034654Y005838D01*
X034701Y005791D02*
X034701Y007136D01*
X034904Y007338D02*
X037999Y007338D01*
X038201Y007136D02*
X038201Y006122D01*
X038602Y005838D02*
X040631Y005838D01*
X040631Y006338D02*
X037354Y006338D01*
X037354Y006316D02*
X036954Y005916D01*
X036388Y005916D01*
X035989Y006316D01*
X035989Y006881D01*
X036388Y007281D01*
X036954Y007281D01*
X037354Y006881D01*
X037354Y006316D01*
X037201Y006163D02*
X037201Y005778D01*
X036701Y005778D02*
X036701Y005916D01*
X036201Y005778D02*
X036201Y006103D01*
X035989Y006338D02*
X032354Y006338D01*
X032201Y006163D02*
X032201Y005778D01*
X031701Y005778D02*
X031701Y005916D01*
X031701Y005138D02*
X031701Y004331D01*
X032201Y004293D02*
X032201Y005138D01*
X033401Y005838D02*
X034201Y005838D01*
X034201Y006158D02*
X034201Y006893D01*
X033701Y006893D02*
X033701Y006158D01*
X032354Y006838D02*
X035989Y006838D01*
X036201Y007093D02*
X036201Y007409D01*
X036431Y007838D02*
X037499Y007838D01*
X037701Y007636D02*
X037701Y006064D01*
X037354Y006838D02*
X040631Y006838D01*
X040631Y007338D02*
X039904Y007338D01*
X039701Y007136D02*
X039701Y002890D01*
X039964Y002838D02*
X040099Y002838D01*
X039701Y001846D02*
X039701Y001618D01*
X038201Y001618D02*
X038201Y004794D01*
X038308Y004838D02*
X038329Y004838D01*
X037734Y004838D02*
X034694Y004838D01*
X035701Y005138D02*
X035701Y001618D01*
X036201Y001618D02*
X036201Y003363D01*
X036226Y003338D02*
X032536Y003338D01*
X032201Y003003D02*
X032201Y001618D01*
X031701Y001618D02*
X031701Y002966D01*
X032564Y003838D02*
X036199Y003838D01*
X036201Y003933D02*
X036201Y005138D01*
X036701Y005138D02*
X036701Y004331D01*
X037201Y004293D02*
X037201Y005138D01*
X037701Y004852D02*
X037701Y001618D01*
X037201Y001618D02*
X037201Y003003D01*
X036701Y002966D02*
X036701Y001618D01*
X035201Y002301D02*
X035201Y002436D01*
X035099Y002838D02*
X034964Y002838D01*
X034701Y002436D02*
X034701Y002301D01*
X034701Y001846D02*
X034701Y001618D01*
X030201Y002301D02*
X030201Y002436D01*
X030099Y002838D02*
X029964Y002838D01*
X029701Y002436D02*
X029701Y002301D01*
X029701Y001846D02*
X029701Y001618D01*
X035201Y005778D02*
X035201Y007636D01*
X035404Y007838D02*
X035471Y007838D01*
X035701Y007409D02*
X035701Y005778D01*
X036701Y007281D02*
X036701Y008409D01*
X036999Y008338D02*
X035904Y008338D01*
X036201Y008267D02*
X036201Y008518D01*
X035951Y009338D02*
X033326Y011963D01*
X031576Y011963D01*
X031326Y011713D01*
X032201Y011642D02*
X032201Y011643D01*
X032431Y011338D02*
X032471Y011338D01*
X032591Y010838D02*
X032255Y010838D01*
X032201Y010784D02*
X032201Y010404D01*
X032267Y010338D02*
X032522Y010338D01*
X032201Y010088D02*
X032201Y010088D01*
X032267Y009838D02*
X032522Y009838D01*
X032201Y009773D02*
X032201Y009267D01*
X032631Y009338D02*
X028271Y009338D01*
X028431Y008838D02*
X030499Y008838D01*
X030701Y009041D02*
X030701Y010268D01*
X030201Y010268D02*
X030201Y008541D01*
X029999Y008338D02*
X027904Y008338D01*
X028201Y008409D02*
X028201Y008041D01*
X028404Y007838D02*
X028471Y007838D01*
X028701Y008267D02*
X028701Y010268D01*
X029201Y010268D02*
X029201Y008267D01*
X029431Y007838D02*
X029499Y007838D01*
X029701Y008041D02*
X029701Y010268D01*
X031201Y010268D02*
X031201Y009158D01*
X031701Y009267D02*
X031701Y009773D01*
X031951Y009838D02*
X031951Y009838D01*
X032951Y010088D02*
X032951Y008838D01*
X033951Y007838D01*
X032471Y008838D02*
X032431Y008838D01*
X031999Y008338D02*
X030904Y008338D01*
X031201Y008267D02*
X031201Y008518D01*
X031701Y008409D02*
X031701Y007281D01*
X032201Y007033D02*
X032201Y008136D01*
X035201Y010541D02*
X035201Y019338D01*
X035701Y019338D02*
X035701Y014267D01*
X036201Y014267D02*
X036201Y019338D01*
X036701Y019838D02*
X036701Y021668D01*
X036568Y021668D02*
X036834Y021668D01*
X037081Y021770D01*
X037201Y021891D01*
X037201Y019838D01*
X037701Y019838D02*
X037701Y021668D01*
X037568Y021668D02*
X037834Y021668D01*
X038081Y021770D01*
X038201Y021891D01*
X038201Y019838D01*
X038701Y019838D02*
X038701Y021668D01*
X038568Y021668D02*
X038834Y021668D01*
X039081Y021770D01*
X039201Y021891D01*
X039201Y019838D01*
X039568Y021668D02*
X039322Y021770D01*
X039201Y021891D01*
X039149Y021838D02*
X039254Y021838D01*
X038568Y021668D02*
X038322Y021770D01*
X038201Y021891D01*
X038149Y021838D02*
X038254Y021838D01*
X037568Y021668D02*
X037322Y021770D01*
X037201Y021891D01*
X037149Y021838D02*
X037254Y021838D01*
X036568Y021668D02*
X036322Y021770D01*
X036201Y021891D01*
X036149Y021838D02*
X036254Y021838D01*
X042149Y021838D02*
X045921Y021838D01*
X045921Y022338D02*
X042371Y022338D01*
X042201Y021891D02*
X042201Y019838D01*
X042201Y019338D02*
X042201Y014765D01*
X042701Y014765D02*
X042701Y019338D01*
X045921Y021338D02*
X019371Y021338D01*
X019701Y021668D02*
X019701Y019838D01*
X008624Y016338D02*
X001981Y016338D01*
X001981Y016838D02*
X008320Y016838D01*
X008276Y017088D02*
X008276Y017088D01*
X008320Y017338D02*
X001981Y017338D01*
X008337Y017439D02*
X008337Y017439D01*
X008515Y017747D02*
X008515Y017747D01*
X008516Y017747D01*
X008515Y016429D02*
X008515Y016429D01*
X004201Y012463D02*
X004201Y012463D01*
X002522Y010338D02*
X001981Y010338D01*
X001981Y009838D02*
X002522Y009838D01*
X002631Y009338D02*
X001981Y009338D01*
X001981Y008838D02*
X002471Y008838D01*
X002701Y008409D02*
X002701Y006064D01*
X003201Y006122D02*
X003201Y008136D01*
X002999Y008338D02*
X001981Y008338D01*
X001981Y007838D02*
X003471Y007838D01*
X003701Y007409D02*
X003701Y006158D01*
X004201Y006158D02*
X004201Y007409D01*
X004472Y006020D02*
X004472Y006019D01*
X003329Y004838D02*
X003308Y004838D01*
X003201Y004794D02*
X003201Y001699D01*
X002701Y001949D02*
X002701Y004852D01*
X002734Y004838D02*
X001981Y004838D01*
X001981Y005338D02*
X002339Y005338D01*
X004964Y002838D02*
X005099Y002838D01*
X005201Y002436D02*
X005201Y002301D01*
X004701Y002301D02*
X004701Y002436D01*
X004701Y001846D02*
X004701Y001618D01*
X013404Y007838D02*
X013459Y007838D01*
X014419Y007838D02*
X015459Y007838D01*
X017267Y009838D02*
X017522Y009838D01*
X012701Y009659D02*
X012701Y009267D01*
X012471Y008838D02*
X012431Y008838D01*
X012201Y009267D02*
X012201Y009773D01*
X012267Y009838D02*
X012522Y009838D01*
X012201Y010088D02*
X012201Y010088D01*
X011951Y009838D02*
X011951Y009838D01*
X011701Y009773D02*
X011701Y009267D01*
X021701Y005916D02*
X021701Y005778D01*
X032701Y012283D02*
X032701Y013518D01*
X033201Y013518D02*
X033201Y012283D01*
X033701Y012338D02*
X033701Y012338D01*
X033701Y012654D02*
X033701Y013409D01*
X038271Y010838D02*
X038999Y010838D01*
X039201Y011041D02*
X039201Y012023D01*
X039201Y012338D02*
X039201Y012338D01*
X039351Y012338D02*
X038951Y012338D01*
X038951Y012338D01*
X040471Y012338D01*
X040904Y011838D02*
X040999Y011838D01*
X041201Y011636D02*
X041201Y009158D01*
X040701Y009041D02*
X040701Y011636D01*
X041431Y012338D02*
X045921Y012338D01*
X045921Y011838D02*
X041904Y011838D01*
X041701Y012041D02*
X041701Y012912D01*
X041201Y012912D02*
X041201Y012767D01*
X040701Y012767D02*
X040701Y012912D01*
X039351Y012504D02*
X039351Y012338D01*
X039351Y012504D02*
X039117Y012738D01*
X038951Y012738D01*
X038785Y012738D01*
X038551Y012504D01*
X038551Y012338D01*
X038701Y012338D02*
X038701Y012338D01*
X038951Y012339D02*
X038951Y012738D01*
X038951Y012339D01*
X038951Y012339D01*
X038701Y012654D02*
X038701Y012912D01*
X039201Y012912D02*
X039201Y012654D01*
X038701Y012023D02*
X038701Y010541D01*
X038499Y010338D02*
X038380Y010338D01*
X039201Y010136D02*
X039201Y008267D01*
X039431Y007838D02*
X039499Y007838D01*
X039701Y008041D02*
X039701Y010636D01*
X039904Y010838D02*
X045921Y010838D01*
X045921Y011338D02*
X042431Y011338D01*
X042201Y010909D02*
X042201Y010404D01*
X042267Y010338D02*
X045921Y010338D01*
X045921Y009838D02*
X042267Y009838D01*
X042201Y009773D02*
X042201Y009267D01*
X042431Y008838D02*
X045921Y008838D01*
X045921Y009338D02*
X038404Y009338D01*
X038431Y008838D02*
X040499Y008838D01*
X040680Y009019D02*
X040680Y009020D01*
X041201Y008518D02*
X041201Y008267D01*
X040904Y008338D02*
X045921Y008338D01*
X045921Y007838D02*
X041431Y007838D01*
X041271Y007338D02*
X045921Y007338D01*
X045921Y006838D02*
X042354Y006838D01*
X042201Y007033D02*
X042201Y008409D01*
X041701Y008409D02*
X041701Y007281D01*
X039201Y006893D02*
X039201Y005568D01*
X038701Y005600D02*
X038701Y006893D01*
X038951Y007838D02*
X037951Y008838D01*
X037701Y009658D02*
X037701Y009659D01*
X036701Y009658D02*
X036701Y009773D01*
X036635Y010338D02*
X035404Y010338D01*
X037201Y008136D02*
X037201Y007033D01*
X039404Y010338D02*
X041635Y010338D01*
X041701Y010404D02*
X041701Y010909D01*
X041785Y010488D02*
X041551Y010254D01*
X041551Y010088D01*
X041551Y009923D01*
X041785Y009688D01*
X041951Y009688D01*
X041951Y010088D01*
X041951Y010088D01*
X041951Y009688D01*
X042117Y009688D01*
X042351Y009923D01*
X042351Y010088D01*
X041951Y010088D01*
X041551Y010088D01*
X041951Y010088D01*
X041951Y010088D01*
X041951Y010088D01*
X042351Y010088D01*
X042351Y010254D01*
X042117Y010488D01*
X041951Y010488D01*
X041785Y010488D01*
X041951Y010488D02*
X041951Y010089D01*
X041951Y010089D01*
X041951Y010488D01*
X041951Y010338D02*
X041951Y010338D01*
X041701Y010088D02*
X041701Y010088D01*
X041951Y009838D02*
X041951Y009838D01*
X042201Y010088D02*
X042201Y010088D01*
X042201Y011767D02*
X042201Y012912D01*
X043061Y013838D02*
X045921Y013838D01*
X045921Y014338D02*
X043057Y014338D01*
X045201Y016195D02*
X045201Y001950D01*
X045487Y016429D02*
X045487Y016429D01*
X045665Y016737D01*
X045665Y016738D01*
X045487Y016429D02*
X045487Y016429D01*
X042201Y030786D02*
X042201Y030891D01*
X042149Y030838D02*
X042269Y030959D01*
X042371Y031205D01*
X042371Y031472D01*
X042269Y031718D01*
X042081Y031906D01*
X041834Y032008D01*
X041568Y032008D01*
X041322Y031906D01*
X041201Y031786D01*
X041201Y032058D01*
X041081Y031906D02*
X040834Y032008D01*
X040568Y032008D01*
X040322Y031906D01*
X040201Y031786D01*
X040201Y032058D01*
X040081Y031906D02*
X039834Y032008D01*
X039568Y032008D01*
X039322Y031906D01*
X039201Y031786D01*
X039201Y032058D01*
X039081Y031906D02*
X038834Y032008D01*
X038568Y032008D01*
X038322Y031906D01*
X038201Y031786D01*
X038201Y032058D01*
X038081Y031906D02*
X037834Y032008D01*
X037568Y032008D01*
X037322Y031906D01*
X037201Y031786D01*
X037201Y032058D01*
X037081Y031906D02*
X036834Y032008D01*
X036568Y032008D01*
X036322Y031906D01*
X036201Y031786D01*
X036201Y032058D01*
X036081Y031906D02*
X035834Y032008D01*
X035568Y032008D01*
X035322Y031906D01*
X035201Y031786D01*
X035201Y032058D01*
X035081Y031906D02*
X034834Y032008D01*
X034568Y032008D01*
X034322Y031906D01*
X034201Y031786D01*
X034201Y032058D01*
X034081Y031906D02*
X034201Y031786D01*
X034149Y031838D02*
X034254Y031838D01*
X034081Y031906D02*
X033834Y032008D01*
X033568Y032008D01*
X033322Y031906D01*
X033201Y031786D01*
X033201Y032058D01*
X033081Y031906D02*
X033201Y031786D01*
X033149Y031838D02*
X033254Y031838D01*
X033081Y031906D02*
X032834Y032008D01*
X032568Y032008D01*
X032322Y031906D01*
X032201Y031786D01*
X032201Y032058D01*
X032081Y031906D02*
X031834Y032008D01*
X031568Y032008D01*
X031322Y031906D01*
X031201Y031786D01*
X031201Y032058D01*
X031081Y031906D02*
X030834Y032008D01*
X030568Y032008D01*
X030322Y031906D01*
X030201Y031786D01*
X030201Y032058D01*
X030081Y031906D02*
X029834Y032008D01*
X029568Y032008D01*
X029322Y031906D01*
X029701Y032008D02*
X029701Y032058D01*
X030081Y031906D02*
X030201Y031786D01*
X030149Y031838D02*
X030254Y031838D01*
X030701Y032008D02*
X030701Y032058D01*
X031081Y031906D02*
X031201Y031786D01*
X031149Y031838D02*
X031254Y031838D01*
X031701Y032008D02*
X031701Y032058D01*
X032081Y031906D02*
X032201Y031786D01*
X032149Y031838D02*
X032254Y031838D01*
X032701Y032008D02*
X032701Y032058D01*
X033701Y032058D02*
X033701Y032008D01*
X034701Y032008D02*
X034701Y032058D01*
X035081Y031906D02*
X035201Y031786D01*
X035149Y031838D02*
X035254Y031838D01*
X035701Y032008D02*
X035701Y032058D01*
X036081Y031906D02*
X036201Y031786D01*
X036149Y031838D02*
X036254Y031838D01*
X036701Y032008D02*
X036701Y032058D01*
X037081Y031906D02*
X037201Y031786D01*
X037149Y031838D02*
X037254Y031838D01*
X037701Y032008D02*
X037701Y032058D01*
X038081Y031906D02*
X038201Y031786D01*
X038149Y031838D02*
X038254Y031838D01*
X038701Y032008D02*
X038701Y032058D01*
X039081Y031906D02*
X039201Y031786D01*
X039149Y031838D02*
X039254Y031838D01*
X039701Y032008D02*
X039701Y032058D01*
X040081Y031906D02*
X040201Y031786D01*
X040149Y031838D02*
X040254Y031838D01*
X040701Y032008D02*
X040701Y032058D01*
X041081Y031906D02*
X041201Y031786D01*
X041149Y031838D02*
X041254Y031838D01*
X041701Y032008D02*
X041701Y032058D01*
X042371Y031338D02*
X045590Y031338D01*
X026701Y031781D02*
X026701Y032058D01*
D17*
X026451Y020088D03*
X026951Y017338D03*
X027701Y014338D03*
X026451Y013838D03*
X022451Y016838D03*
X025701Y008338D03*
D18*
X032951Y010088D02*
X032951Y011338D01*
X035031Y002368D02*
X030031Y002368D01*
X025231Y002368D01*
X025201Y002338D01*
X025061Y002338D01*
X025031Y002368D01*
X020031Y002368D01*
X015031Y002368D01*
X014731Y002368D01*
X014701Y002338D01*
X010201Y002338D01*
X010031Y002368D02*
X005031Y002368D01*
X010031Y002368D02*
X015031Y002368D01*
X015171Y002368D01*
X015201Y002338D01*
X014701Y002338D01*
X035031Y002368D02*
X040031Y002368D01*
D19*
X018701Y020338D03*
X017701Y020338D03*
X016701Y020338D03*
X015701Y020338D03*
X014701Y020338D03*
X013701Y020338D03*
X012701Y020338D03*
X011701Y020338D03*
X010701Y020338D03*
X009701Y020338D03*
X008701Y020338D03*
X007701Y020338D03*
X006701Y020338D03*
X005701Y020338D03*
X004701Y020338D03*
X003701Y020338D03*
X003701Y021338D03*
X004701Y021338D03*
X005701Y021338D03*
X006701Y021338D03*
X007701Y021338D03*
X008701Y021338D03*
X009701Y021338D03*
X010701Y021338D03*
X011701Y021338D03*
X012701Y021338D03*
X013701Y021338D03*
X014701Y021338D03*
X015701Y021338D03*
X016701Y021338D03*
X017701Y021338D03*
X018701Y021338D03*
X019701Y021338D03*
X019701Y022338D03*
X018701Y022338D03*
X017701Y022338D03*
X016701Y022338D03*
X015701Y022338D03*
X014701Y022338D03*
X013701Y022338D03*
X012701Y022338D03*
X011701Y022338D03*
X010701Y022338D03*
X009701Y022338D03*
X008701Y022338D03*
X007701Y022338D03*
X006701Y022338D03*
X005701Y022338D03*
X004701Y022338D03*
X003701Y022338D03*
X003701Y023338D03*
X004701Y023338D03*
X005701Y023338D03*
X006701Y023338D03*
X007701Y023338D03*
X008701Y023338D03*
X009701Y023338D03*
X010701Y023338D03*
X011701Y023338D03*
X012701Y023338D03*
X013701Y023338D03*
X014701Y023338D03*
X015701Y023338D03*
X016701Y023338D03*
X017701Y023338D03*
X018701Y023338D03*
X019701Y023338D03*
X020701Y023338D03*
X021701Y023338D03*
X022701Y023338D03*
X022701Y022338D03*
X021701Y022338D03*
X020701Y022338D03*
X020701Y024338D03*
X019701Y024338D03*
X018701Y024338D03*
X017701Y024338D03*
X016701Y024338D03*
X015701Y024338D03*
X014701Y024338D03*
X013701Y024338D03*
X012701Y024338D03*
X011701Y024338D03*
X010701Y024338D03*
X009701Y024338D03*
X008701Y024338D03*
X007701Y024338D03*
X006701Y024338D03*
X005701Y024338D03*
X004701Y024338D03*
X003701Y024338D03*
X003701Y025338D03*
X004701Y025338D03*
X005701Y025338D03*
X006701Y025338D03*
X007701Y025338D03*
X008701Y025338D03*
X009701Y025338D03*
X010701Y025338D03*
X011701Y025338D03*
X012701Y025338D03*
X013701Y025338D03*
X014701Y025338D03*
X015701Y025338D03*
X016701Y025338D03*
X017701Y025338D03*
X018701Y025338D03*
X019701Y025338D03*
X020701Y025338D03*
X021701Y025338D03*
X022701Y025338D03*
X022701Y024338D03*
X021701Y024338D03*
X021701Y026338D03*
X020701Y026338D03*
X019701Y026338D03*
X018701Y026338D03*
X017701Y026338D03*
X016701Y026338D03*
X015701Y026338D03*
X014701Y026338D03*
X013701Y026338D03*
X012701Y026338D03*
X011701Y026338D03*
X010701Y026338D03*
X009701Y026338D03*
X008701Y026338D03*
X007701Y026338D03*
X006701Y026338D03*
X005701Y026338D03*
X004701Y026338D03*
X003701Y026338D03*
X003701Y027338D03*
X004701Y027338D03*
X005701Y027338D03*
X006701Y027338D03*
X007701Y027338D03*
X008701Y027338D03*
X009701Y027338D03*
X010701Y027338D03*
X011701Y027338D03*
X012701Y027338D03*
X013701Y027338D03*
X014701Y027338D03*
X015701Y027338D03*
X016701Y027338D03*
X017701Y027338D03*
X018701Y027338D03*
X019701Y027338D03*
X020701Y027338D03*
X021701Y027338D03*
X022701Y027338D03*
X022701Y026338D03*
X022701Y028338D03*
X021701Y028338D03*
X020701Y028338D03*
X019701Y028338D03*
X018701Y028338D03*
X017701Y028338D03*
X016701Y028338D03*
X015701Y028338D03*
X014701Y028338D03*
X013701Y028338D03*
X012701Y028338D03*
X011701Y028338D03*
X010701Y028338D03*
X009701Y028338D03*
X008701Y028338D03*
X007701Y028338D03*
X006701Y028338D03*
X005701Y028338D03*
X004701Y028338D03*
X003701Y028338D03*
X003701Y029338D03*
X004701Y029338D03*
X005701Y029338D03*
X006701Y029338D03*
X007701Y029338D03*
X008701Y029338D03*
X009701Y029338D03*
X010701Y029338D03*
X011701Y029338D03*
X012701Y029338D03*
X011701Y030338D03*
X010701Y030338D03*
X009701Y030338D03*
X008701Y030338D03*
X007701Y030338D03*
X006701Y030338D03*
X005701Y030338D03*
X004701Y030338D03*
X003701Y030338D03*
X003701Y031338D03*
X004701Y031338D03*
X005701Y031338D03*
X006701Y031338D03*
X007701Y031338D03*
X008701Y031338D03*
X009701Y031338D03*
X010701Y031338D03*
X027701Y029338D03*
X028701Y029338D03*
X029701Y029338D03*
X030701Y029338D03*
X031701Y029338D03*
X031701Y028338D03*
X030701Y028338D03*
X029701Y028338D03*
X028701Y028338D03*
X027701Y028338D03*
X027701Y027338D03*
X028701Y027338D03*
X029701Y027338D03*
X030701Y027338D03*
X031701Y027338D03*
X031701Y026338D03*
X030701Y026338D03*
X029701Y026338D03*
X028701Y026338D03*
X027701Y026338D03*
X027701Y025338D03*
X028701Y025338D03*
X029701Y025338D03*
X030701Y025338D03*
X031701Y025338D03*
X031701Y024338D03*
X030701Y024338D03*
X029701Y024338D03*
X028701Y024338D03*
X027701Y024338D03*
X027701Y023338D03*
X028701Y023338D03*
X029701Y023338D03*
X030701Y023338D03*
X031701Y023338D03*
X031701Y022338D03*
X030701Y022338D03*
X029701Y022338D03*
X028701Y022338D03*
X027701Y022338D03*
X027701Y021338D03*
X028701Y021338D03*
X029701Y021338D03*
X030701Y021338D03*
X031701Y021338D03*
X032701Y021338D03*
X033701Y021338D03*
X034701Y021338D03*
X035701Y021338D03*
X036701Y021338D03*
X037701Y021338D03*
X038701Y021338D03*
X039701Y021338D03*
X040701Y021338D03*
X041701Y021338D03*
X041701Y022338D03*
X040701Y022338D03*
X039701Y022338D03*
X038701Y022338D03*
X037701Y022338D03*
X036701Y022338D03*
X035701Y022338D03*
X034701Y022338D03*
X033701Y022338D03*
X032701Y022338D03*
X032701Y023338D03*
X033701Y023338D03*
X034701Y023338D03*
X035701Y023338D03*
X036701Y023338D03*
X037701Y023338D03*
X038701Y023338D03*
X039701Y023338D03*
X040701Y023338D03*
X041701Y023338D03*
X041701Y024338D03*
X040701Y024338D03*
X039701Y024338D03*
X038701Y024338D03*
X037701Y024338D03*
X036701Y024338D03*
X035701Y024338D03*
X034701Y024338D03*
X033701Y024338D03*
X032701Y024338D03*
X032701Y025338D03*
X033701Y025338D03*
X034701Y025338D03*
X035701Y025338D03*
X036701Y025338D03*
X037701Y025338D03*
X038701Y025338D03*
X039701Y025338D03*
X040701Y025338D03*
X041701Y025338D03*
X041701Y026338D03*
X040701Y026338D03*
X039701Y026338D03*
X038701Y026338D03*
X037701Y026338D03*
X036701Y026338D03*
X035701Y026338D03*
X034701Y026338D03*
X033701Y026338D03*
X032701Y026338D03*
X032701Y027338D03*
X033701Y027338D03*
X034701Y027338D03*
X035701Y027338D03*
X036701Y027338D03*
X037701Y027338D03*
X038701Y027338D03*
X039701Y027338D03*
X040701Y027338D03*
X041701Y027338D03*
X041701Y028338D03*
X040701Y028338D03*
X039701Y028338D03*
X038701Y028338D03*
X037701Y028338D03*
X036701Y028338D03*
X035701Y028338D03*
X034701Y028338D03*
X033701Y028338D03*
X032701Y028338D03*
X032701Y029338D03*
X033701Y029338D03*
X034701Y029338D03*
X035701Y029338D03*
X036701Y029338D03*
X037701Y029338D03*
X038701Y029338D03*
X039701Y029338D03*
X040701Y029338D03*
X041701Y029338D03*
X041701Y030338D03*
X040701Y030338D03*
X039701Y030338D03*
X038701Y030338D03*
X037701Y030338D03*
X036701Y030338D03*
X035701Y030338D03*
X034701Y030338D03*
X033701Y030338D03*
X032701Y030338D03*
X031701Y030338D03*
X030701Y030338D03*
X029701Y030338D03*
X028701Y030338D03*
X029701Y031338D03*
X030701Y031338D03*
X031701Y031338D03*
X032701Y031338D03*
X033701Y031338D03*
X034701Y031338D03*
X035701Y031338D03*
X036701Y031338D03*
X037701Y031338D03*
X038701Y031338D03*
X039701Y031338D03*
X040701Y031338D03*
X041701Y031338D03*
D20*
X026701Y028338D03*
X025701Y028338D03*
X024701Y028338D03*
X023701Y028338D03*
X023701Y027338D03*
X024701Y027338D03*
X025701Y027338D03*
X026701Y027338D03*
X026701Y026338D03*
X025701Y026338D03*
X024701Y026338D03*
X023701Y026338D03*
X023701Y025338D03*
X024701Y025338D03*
X025701Y025338D03*
X026701Y025338D03*
X026701Y024338D03*
X025701Y024338D03*
X024701Y024338D03*
X023701Y024338D03*
X023701Y023338D03*
X024701Y023338D03*
X025701Y023338D03*
X026701Y023338D03*
X026701Y022338D03*
X025701Y022338D03*
X024701Y022338D03*
X023701Y022338D03*
X025701Y021338D03*
X026701Y021338D03*
D21*
X026701Y028338D02*
X025701Y028338D01*
M02*
