G75*
G70*
%OFA0B0*%
%FSLAX24Y24*%
%IPPOS*%
%LPD*%
%AMOC8*
5,1,8,0,0,1.08239X$1,22.5*
%
%ADD10OC8,0.0885*%
%ADD11C,0.0885*%
%ADD12OC8,0.0480*%
%ADD13C,0.0480*%
%ADD14C,0.0740*%
%ADD15OC8,0.0500*%
%ADD16C,0.0160*%
%ADD17C,0.0436*%
%ADD18C,0.0240*%
%ADD19C,0.0860*%
%ADD20C,0.0660*%
%ADD21C,0.0320*%
D10*
X004033Y002368D03*
X005883Y003648D03*
X009033Y002368D03*
X010883Y003648D03*
X014033Y002368D03*
X015883Y003648D03*
X019033Y002368D03*
X020883Y003648D03*
X024033Y002368D03*
X025883Y003648D03*
X029033Y002368D03*
X030883Y003648D03*
X034033Y002368D03*
X035883Y003648D03*
X039033Y002368D03*
X040883Y003648D03*
X040673Y006598D03*
X035673Y006598D03*
X030673Y006598D03*
X025673Y006598D03*
X020673Y006598D03*
X015673Y006598D03*
X010673Y006598D03*
X005673Y006598D03*
D11*
X007023Y005458D03*
X008013Y004908D03*
X012023Y005458D03*
X013013Y004908D03*
X017023Y005458D03*
X018013Y004908D03*
X022023Y005458D03*
X023013Y004908D03*
X027023Y005458D03*
X028013Y004908D03*
X032023Y005458D03*
X033013Y004908D03*
X037023Y005458D03*
X038013Y004908D03*
X003013Y004908D03*
X002023Y005458D03*
D12*
X002953Y007838D03*
X001953Y008838D03*
X001953Y010088D03*
X001953Y011338D03*
X002828Y012463D03*
X004828Y012463D03*
X005953Y011338D03*
X006953Y011338D03*
X007828Y012463D03*
X009828Y012463D03*
X010953Y011338D03*
X011953Y011151D03*
X011953Y012088D03*
X011953Y010088D03*
X010953Y010088D03*
X010953Y008838D03*
X011953Y008838D03*
X012941Y007838D03*
X014941Y007838D03*
X015953Y008838D03*
X016953Y008838D03*
X017703Y007838D03*
X019703Y007838D03*
X020953Y008838D03*
X021953Y008838D03*
X023203Y007838D03*
X025203Y007838D03*
X025953Y008838D03*
X026953Y008838D03*
X027953Y007838D03*
X029953Y007838D03*
X030953Y008838D03*
X031953Y008838D03*
X032953Y007838D03*
X034953Y007838D03*
X035953Y008838D03*
X036953Y008838D03*
X037953Y007838D03*
X039953Y007838D03*
X040953Y008838D03*
X040953Y010088D03*
X040953Y011338D03*
X039953Y012338D03*
X037953Y012338D03*
X036953Y011338D03*
X035953Y011338D03*
X034953Y012338D03*
X032953Y012338D03*
X031953Y011338D03*
X030953Y011213D03*
X030953Y010088D03*
X031953Y010088D03*
X035953Y010088D03*
X036953Y010088D03*
X034953Y013838D03*
X032953Y013838D03*
X029203Y013338D03*
X029203Y015338D03*
X030578Y017338D03*
X030578Y018338D03*
X029203Y018338D03*
X028453Y017838D03*
X028453Y018838D03*
X032578Y018338D03*
X032578Y017338D03*
X026953Y011213D03*
X025953Y011188D03*
X025953Y010088D03*
X026953Y010088D03*
X021953Y010088D03*
X020953Y010088D03*
X020953Y011188D03*
X021953Y011188D03*
X022703Y013588D03*
X020703Y013588D03*
X019953Y013588D03*
X017953Y013588D03*
X016953Y011188D03*
X015953Y011151D03*
X015953Y010088D03*
X016953Y010088D03*
X011953Y014088D03*
X006953Y010088D03*
X005953Y010088D03*
X005953Y008838D03*
X006953Y008838D03*
X007953Y007838D03*
X009953Y007838D03*
X004953Y007838D03*
X019703Y020588D03*
X023703Y020588D03*
D13*
X023953Y018578D02*
X023953Y018098D01*
X022953Y018098D02*
X022953Y018578D01*
X021953Y018578D02*
X021953Y018098D01*
X020953Y018098D02*
X020953Y018578D01*
X019953Y018578D02*
X019953Y018098D01*
X018953Y018098D02*
X018953Y018578D01*
X018953Y015578D02*
X018953Y015098D01*
X019953Y015098D02*
X019953Y015578D01*
X020953Y015578D02*
X020953Y015098D01*
X021953Y015098D02*
X021953Y015578D01*
X022953Y015578D02*
X022953Y015098D01*
X023953Y015098D02*
X023953Y015578D01*
X024953Y015578D02*
X024953Y015098D01*
X025953Y015098D02*
X025953Y015578D01*
X025953Y018098D02*
X025953Y018578D01*
X024953Y018578D02*
X024953Y018098D01*
D14*
X036453Y014208D02*
X036453Y013468D01*
X037453Y013468D02*
X037453Y014208D01*
X038453Y014208D02*
X038453Y013468D01*
X039453Y013468D02*
X039453Y014208D01*
X040453Y014208D02*
X040453Y013468D01*
X041453Y013468D02*
X041453Y014208D01*
D15*
X029203Y012338D03*
X028203Y012338D03*
X027203Y012338D03*
X026203Y012338D03*
X025203Y012338D03*
X024203Y012338D03*
X023203Y012338D03*
X022203Y012338D03*
X020453Y012338D03*
X019453Y012338D03*
X018453Y012338D03*
X017453Y012338D03*
X016453Y012338D03*
X015453Y012338D03*
X014453Y012338D03*
X013453Y012338D03*
X013453Y031338D03*
X014453Y031338D03*
X015453Y031338D03*
X016453Y031338D03*
X017453Y031338D03*
X018453Y031338D03*
X020453Y031338D03*
X021453Y031338D03*
X022453Y031338D03*
X023453Y031338D03*
X024453Y031338D03*
X025453Y031338D03*
D16*
X001703Y004852D02*
X001703Y001949D01*
X001788Y001882D02*
X001487Y002122D01*
X001247Y002423D01*
X001080Y002770D01*
X000994Y003146D01*
X000983Y003338D01*
X000983Y003387D01*
X000983Y003394D01*
X000983Y014838D01*
X018541Y014838D01*
X018546Y014826D01*
X018681Y014691D01*
X018761Y014658D01*
X013267Y014658D01*
X013140Y014658D01*
X013022Y014610D01*
X012353Y013941D01*
X012353Y014088D01*
X011954Y014088D01*
X011954Y014088D01*
X012353Y014088D01*
X012353Y014254D01*
X012119Y014488D01*
X011953Y014488D01*
X011788Y014488D01*
X011553Y014254D01*
X011553Y014088D01*
X011553Y013923D01*
X011788Y013688D01*
X011953Y013688D01*
X011953Y014088D01*
X011553Y014088D01*
X011953Y014088D01*
X011953Y014088D01*
X011953Y014088D01*
X011953Y013688D01*
X012101Y013688D01*
X011196Y012783D01*
X010187Y012783D01*
X010027Y012943D01*
X009629Y012943D01*
X009348Y012662D01*
X009348Y012264D01*
X009629Y011983D01*
X010027Y011983D01*
X010187Y012143D01*
X011392Y012143D01*
X011473Y012177D01*
X011473Y011889D01*
X011743Y011620D01*
X011473Y011350D01*
X011473Y010952D01*
X011754Y010671D01*
X012152Y010671D01*
X012433Y010952D01*
X012433Y011156D01*
X012709Y010879D01*
X012827Y010831D01*
X012954Y010831D01*
X015594Y010831D01*
X015754Y010671D01*
X016152Y010671D01*
X016433Y010952D01*
X016433Y011350D01*
X016152Y011631D01*
X015754Y011631D01*
X015594Y011471D01*
X013023Y011471D01*
X012433Y012061D01*
X012433Y012116D01*
X012961Y012643D01*
X013065Y012643D01*
X012963Y012541D01*
X012963Y012135D01*
X013250Y011848D01*
X013656Y011848D01*
X013943Y012135D01*
X013943Y012541D01*
X013841Y012643D01*
X014065Y012643D01*
X013963Y012541D01*
X013963Y012135D01*
X014250Y011848D01*
X014656Y011848D01*
X014943Y012135D01*
X014943Y012541D01*
X014841Y012643D01*
X015065Y012643D01*
X014963Y012541D01*
X014963Y012135D01*
X015250Y011848D01*
X015656Y011848D01*
X015943Y012135D01*
X015943Y012541D01*
X015841Y012643D01*
X016065Y012643D01*
X015963Y012541D01*
X015963Y012135D01*
X016250Y011848D01*
X016656Y011848D01*
X016943Y012135D01*
X016943Y012541D01*
X016841Y012643D01*
X017065Y012643D01*
X016963Y012541D01*
X016963Y012135D01*
X017250Y011848D01*
X017656Y011848D01*
X017943Y012135D01*
X017943Y012541D01*
X017841Y012643D01*
X018065Y012643D01*
X017963Y012541D01*
X017963Y012135D01*
X018250Y011848D01*
X018656Y011848D01*
X018943Y012135D01*
X018943Y012541D01*
X018776Y012708D01*
X018850Y012782D01*
X019473Y013406D01*
X019473Y013389D01*
X019754Y013108D01*
X020152Y013108D01*
X020385Y013341D01*
X020538Y013188D01*
X020703Y013188D01*
X020703Y013588D01*
X020703Y013588D01*
X020703Y012781D01*
X020656Y012828D02*
X020250Y012828D01*
X019963Y012541D01*
X019963Y012135D01*
X020250Y011848D01*
X020656Y011848D01*
X020943Y012135D01*
X020943Y012541D01*
X020656Y012828D01*
X020203Y012781D02*
X020203Y013159D01*
X020382Y013338D02*
X020388Y013338D01*
X020703Y013338D02*
X020703Y013338D01*
X020703Y013188D02*
X020869Y013188D01*
X021103Y013423D01*
X021103Y013588D01*
X020704Y013588D01*
X020704Y013588D01*
X021103Y013588D01*
X021103Y013754D01*
X020869Y013988D01*
X020703Y013988D01*
X020538Y013988D01*
X020385Y013835D01*
X020152Y014068D01*
X020136Y014068D01*
X020736Y014669D01*
X020858Y014618D01*
X021049Y014618D01*
X021133Y014653D01*
X021133Y011668D01*
X020754Y011668D01*
X020473Y011387D01*
X020473Y010989D01*
X020754Y010708D01*
X021133Y010708D01*
X021133Y010474D01*
X021119Y010488D01*
X020953Y010488D01*
X020788Y010488D01*
X020553Y010254D01*
X020553Y010088D01*
X020553Y009923D01*
X020788Y009688D01*
X020953Y009688D01*
X020953Y010088D01*
X020553Y010088D01*
X020953Y010088D01*
X020953Y010088D01*
X020953Y010088D01*
X020953Y009688D01*
X021119Y009688D01*
X021133Y009703D01*
X021133Y009471D01*
X020981Y009318D01*
X020754Y009318D01*
X020595Y009158D01*
X019515Y009158D01*
X019397Y009110D01*
X019307Y009020D01*
X018183Y007896D01*
X018183Y008037D01*
X018023Y008197D01*
X018023Y009275D01*
X018023Y009402D01*
X017975Y009520D01*
X017433Y010061D01*
X017433Y010287D01*
X017273Y010447D01*
X017273Y010829D01*
X017433Y010989D01*
X017433Y011387D01*
X017152Y011668D01*
X016754Y011668D01*
X016473Y011387D01*
X016473Y010989D01*
X016633Y010829D01*
X016633Y010447D01*
X016473Y010287D01*
X016473Y009889D01*
X016633Y009729D01*
X016633Y009197D01*
X016473Y009037D01*
X016473Y008639D01*
X016754Y008358D01*
X017152Y008358D01*
X017383Y008590D01*
X017383Y008197D01*
X017223Y008037D01*
X017223Y007639D01*
X017330Y007533D01*
X016961Y007533D01*
X016273Y008221D01*
X016273Y008479D01*
X016433Y008639D01*
X016433Y009037D01*
X016152Y009318D01*
X015754Y009318D01*
X015594Y009158D01*
X013017Y009158D01*
X012890Y009158D01*
X012772Y009110D01*
X012433Y008771D01*
X012433Y009037D01*
X012152Y009318D01*
X011754Y009318D01*
X011473Y009037D01*
X011473Y008771D01*
X011433Y008811D01*
X011433Y009037D01*
X011152Y009318D01*
X010754Y009318D01*
X010595Y009158D01*
X009890Y009158D01*
X009772Y009110D01*
X009682Y009020D01*
X008433Y007771D01*
X008433Y008037D01*
X008152Y008318D01*
X007926Y008318D01*
X007433Y008811D01*
X007433Y009037D01*
X007273Y009197D01*
X007273Y009729D01*
X007433Y009889D01*
X007433Y010287D01*
X007152Y010568D01*
X006754Y010568D01*
X006473Y010287D01*
X006473Y009889D01*
X006633Y009729D01*
X006633Y009197D01*
X006473Y009037D01*
X006473Y008771D01*
X006433Y008811D01*
X006433Y009037D01*
X006152Y009318D01*
X005754Y009318D01*
X005473Y009037D01*
X005473Y008639D01*
X005754Y008358D01*
X005981Y008358D01*
X007307Y007032D01*
X007397Y006942D01*
X007515Y006893D01*
X008265Y006893D01*
X008392Y006893D01*
X008510Y006942D01*
X009473Y007906D01*
X009473Y007639D01*
X009754Y007358D01*
X010152Y007358D01*
X010433Y007639D01*
X010433Y008037D01*
X010152Y008318D01*
X009886Y008318D01*
X010086Y008518D01*
X010595Y008518D01*
X010754Y008358D01*
X010981Y008358D01*
X011522Y007817D01*
X011640Y007768D01*
X011767Y007768D01*
X012267Y007768D01*
X012385Y007817D01*
X012461Y007893D01*
X012461Y007639D01*
X012742Y007358D01*
X013140Y007358D01*
X013421Y007639D01*
X013421Y008037D01*
X013140Y008318D01*
X012886Y008318D01*
X013086Y008518D01*
X015594Y008518D01*
X015633Y008479D01*
X015633Y008025D01*
X015682Y007907D01*
X015772Y007817D01*
X016647Y006942D01*
X016765Y006893D01*
X016892Y006893D01*
X017890Y006893D01*
X018017Y006893D01*
X018135Y006942D01*
X019223Y008031D01*
X019223Y007639D01*
X019504Y007358D01*
X019902Y007358D01*
X020183Y007639D01*
X020183Y008037D01*
X019902Y008318D01*
X019511Y008318D01*
X019711Y008518D01*
X020595Y008518D01*
X020754Y008358D01*
X021152Y008358D01*
X021433Y008639D01*
X021433Y008866D01*
X021473Y008906D01*
X021473Y008639D01*
X021754Y008358D01*
X022152Y008358D01*
X022312Y008518D01*
X022696Y008518D01*
X022883Y008331D01*
X022883Y008197D01*
X022723Y008037D01*
X022723Y007639D01*
X023004Y007358D01*
X023402Y007358D01*
X023683Y007639D01*
X023683Y008037D01*
X023523Y008197D01*
X023523Y008527D01*
X023475Y008645D01*
X023385Y008735D01*
X023010Y009110D01*
X022892Y009158D01*
X022765Y009158D01*
X022312Y009158D01*
X022273Y009197D01*
X022273Y009729D01*
X022433Y009889D01*
X022433Y010287D01*
X022273Y010447D01*
X022273Y010829D01*
X022433Y010989D01*
X022433Y011387D01*
X022152Y011668D01*
X021773Y011668D01*
X021773Y012075D01*
X022000Y011848D01*
X022406Y011848D01*
X022693Y012135D01*
X022693Y012541D01*
X022406Y012828D01*
X022000Y012828D01*
X021773Y012601D01*
X021773Y014653D01*
X021858Y014618D01*
X022049Y014618D01*
X022225Y014691D01*
X022360Y014826D01*
X022433Y015003D01*
X022433Y015674D01*
X022360Y015850D01*
X022225Y015985D01*
X022049Y016058D01*
X021858Y016058D01*
X021773Y016023D01*
X021773Y016510D01*
X021842Y016579D01*
X021911Y016747D01*
X021911Y016929D01*
X021842Y017098D01*
X021713Y017227D01*
X021544Y017296D01*
X021362Y017296D01*
X021194Y017227D01*
X021065Y017098D01*
X020995Y016929D01*
X020995Y016747D01*
X021065Y016579D01*
X021133Y016510D01*
X021133Y016023D01*
X021049Y016058D01*
X020858Y016058D01*
X020681Y015985D01*
X020546Y015850D01*
X020473Y015674D01*
X020473Y015311D01*
X020433Y015271D01*
X020433Y015674D01*
X020360Y015850D01*
X020225Y015985D01*
X020049Y016058D01*
X019858Y016058D01*
X019681Y015985D01*
X019546Y015850D01*
X019473Y015674D01*
X019473Y015311D01*
X019433Y015271D01*
X019433Y015674D01*
X019360Y015850D01*
X019225Y015985D01*
X019049Y016058D01*
X018858Y016058D01*
X018703Y015994D01*
X018703Y017682D01*
X018858Y017618D01*
X019049Y017618D01*
X019225Y017691D01*
X019360Y017826D01*
X019433Y018003D01*
X019433Y018674D01*
X019360Y018850D01*
X019225Y018985D01*
X019049Y019058D01*
X018858Y019058D01*
X018703Y018994D01*
X018703Y019338D01*
X022751Y019338D01*
X022682Y019270D01*
X022633Y019152D01*
X022633Y019025D01*
X022633Y018937D01*
X022546Y018850D01*
X022473Y018674D01*
X022473Y018003D01*
X022546Y017826D01*
X022681Y017691D01*
X022858Y017618D01*
X023049Y017618D01*
X023225Y017691D01*
X023360Y017826D01*
X023433Y018003D01*
X023433Y018674D01*
X023360Y018850D01*
X023273Y018937D01*
X023273Y018956D01*
X023336Y019018D01*
X023761Y019018D01*
X023681Y018985D01*
X023546Y018850D01*
X023473Y018674D01*
X023473Y018003D01*
X023546Y017826D01*
X023658Y017715D01*
X023682Y017657D01*
X023772Y017567D01*
X024133Y017206D01*
X024133Y016023D01*
X024049Y016058D01*
X023858Y016058D01*
X023681Y015985D01*
X023546Y015850D01*
X023473Y015674D01*
X023473Y015003D01*
X023546Y014826D01*
X023633Y014739D01*
X023633Y013221D01*
X023522Y013110D01*
X023432Y013020D01*
X023383Y012902D01*
X023383Y012828D01*
X023000Y012828D01*
X022713Y012541D01*
X022713Y012135D01*
X023000Y011848D01*
X023383Y011848D01*
X023383Y011152D01*
X023383Y011025D01*
X023432Y010907D01*
X023932Y010407D01*
X024022Y010317D01*
X024140Y010268D01*
X025568Y010268D01*
X025553Y010254D01*
X025553Y010088D01*
X025553Y009923D01*
X025788Y009688D01*
X025953Y009688D01*
X025953Y010088D01*
X025553Y010088D01*
X025953Y010088D01*
X025953Y010088D01*
X025953Y010088D01*
X025953Y009688D01*
X026119Y009688D01*
X026353Y009923D01*
X026353Y010088D01*
X025954Y010088D01*
X025954Y010088D01*
X026353Y010088D01*
X026353Y010254D01*
X026339Y010268D01*
X026473Y010268D01*
X026473Y009889D01*
X026633Y009729D01*
X026633Y009197D01*
X026473Y009037D01*
X026473Y008771D01*
X026433Y008811D01*
X026433Y009037D01*
X026152Y009318D01*
X025754Y009318D01*
X025594Y009158D01*
X025267Y009158D01*
X025140Y009158D01*
X025022Y009110D01*
X024709Y008796D01*
X024612Y008796D01*
X024444Y008727D01*
X024315Y008598D01*
X024245Y008429D01*
X024245Y008247D01*
X024315Y008079D01*
X024444Y007950D01*
X024612Y007880D01*
X024723Y007880D01*
X024723Y007639D01*
X025004Y007358D01*
X025402Y007358D01*
X025683Y007639D01*
X025683Y008037D01*
X025402Y008318D01*
X025161Y008318D01*
X025161Y008344D01*
X025336Y008518D01*
X025594Y008518D01*
X025754Y008358D01*
X025981Y008358D01*
X027307Y007032D01*
X027307Y007032D01*
X027397Y006942D01*
X027515Y006893D01*
X028265Y006893D01*
X028392Y006893D01*
X028510Y006942D01*
X029473Y007906D01*
X029473Y007639D01*
X029754Y007358D01*
X030152Y007358D01*
X030433Y007639D01*
X030433Y008037D01*
X030152Y008318D01*
X029886Y008318D01*
X030086Y008518D01*
X030594Y008518D01*
X030754Y008358D01*
X030981Y008358D01*
X032307Y007032D01*
X032397Y006942D01*
X032515Y006893D01*
X033265Y006893D01*
X033392Y006893D01*
X033510Y006942D01*
X034473Y007906D01*
X034473Y007639D01*
X034754Y007358D01*
X035152Y007358D01*
X035433Y007639D01*
X035433Y008037D01*
X035152Y008318D01*
X034886Y008318D01*
X035086Y008518D01*
X035594Y008518D01*
X035754Y008358D01*
X035981Y008358D01*
X037307Y007032D01*
X037397Y006942D01*
X037515Y006893D01*
X038265Y006893D01*
X038392Y006893D01*
X038510Y006942D01*
X039473Y007906D01*
X039473Y007639D01*
X039633Y007479D01*
X039633Y005652D01*
X039633Y005525D01*
X039682Y005407D01*
X040563Y004526D01*
X040563Y004293D01*
X040201Y003931D01*
X040201Y003366D01*
X040601Y002966D01*
X041166Y002966D01*
X041566Y003366D01*
X041566Y003931D01*
X041203Y004293D01*
X041203Y006163D01*
X041356Y006316D02*
X040956Y005916D01*
X040391Y005916D01*
X040273Y006033D01*
X040273Y005721D01*
X041155Y004840D01*
X041203Y004722D01*
X041203Y004595D01*
X041203Y004293D01*
X041203Y004338D02*
X044923Y004338D01*
X044923Y004838D02*
X041155Y004838D01*
X040883Y004658D02*
X039953Y005588D01*
X039953Y007838D01*
X039473Y007838D02*
X039406Y007838D01*
X039203Y007636D02*
X039203Y002971D01*
X039283Y002971D02*
X039101Y002971D01*
X039101Y002436D01*
X038966Y002436D01*
X038966Y002971D01*
X038784Y002971D01*
X038431Y002618D01*
X038431Y002436D01*
X038966Y002436D01*
X038966Y002301D01*
X038431Y002301D01*
X038431Y002119D01*
X038784Y001766D01*
X038966Y001766D01*
X038966Y002301D01*
X039101Y002301D01*
X039101Y002436D01*
X039636Y002436D01*
X039636Y002618D01*
X039283Y002971D01*
X039415Y002838D02*
X044842Y002838D01*
X044827Y002770D02*
X044660Y002423D01*
X044420Y002122D01*
X044118Y001882D01*
X043771Y001715D01*
X043396Y001629D01*
X043203Y001618D01*
X043203Y016196D01*
X043191Y016200D02*
X043525Y016078D01*
X043525Y016078D01*
X043648Y016078D01*
X043648Y016078D01*
X043674Y016078D01*
X043703Y016078D01*
X043759Y016078D01*
X043759Y016078D01*
X043881Y016078D01*
X044216Y016200D01*
X044489Y016429D01*
X044667Y016737D01*
X044667Y016738D01*
X044729Y017088D01*
X044729Y017088D01*
X044667Y017439D01*
X044489Y017747D01*
X044489Y017747D01*
X044216Y017976D01*
X043881Y018098D01*
X043759Y018098D01*
X043759Y018098D01*
X043703Y018098D01*
X043703Y019338D01*
X043203Y019338D02*
X043203Y017981D01*
X043191Y017976D02*
X043191Y017976D01*
X043525Y018098D01*
X043525Y018098D01*
X043648Y018098D01*
X043648Y018098D01*
X043702Y018098D01*
X043703Y018098D01*
X043881Y018098D02*
X043881Y018098D01*
X044203Y017981D02*
X044203Y019338D01*
X044703Y019338D02*
X044703Y017233D01*
X044685Y017338D02*
X044923Y017338D01*
X044667Y017439D02*
X044667Y017439D01*
X044923Y017838D02*
X044381Y017838D01*
X044216Y017976D02*
X044216Y017976D01*
X044923Y018338D02*
X032579Y018338D01*
X032579Y018338D01*
X032978Y018338D01*
X032978Y018173D01*
X032744Y017938D01*
X032578Y017938D01*
X032578Y018338D01*
X032578Y018338D01*
X032178Y018338D01*
X032178Y018173D01*
X032413Y017938D01*
X032578Y017938D01*
X032578Y018338D01*
X032578Y018338D01*
X031058Y018338D01*
X031058Y018139D02*
X030777Y017858D01*
X030379Y017858D01*
X030098Y018139D01*
X030098Y018537D01*
X030379Y018818D01*
X030777Y018818D01*
X031058Y018537D01*
X031058Y018139D01*
X030777Y017818D02*
X030379Y017818D01*
X030098Y017537D01*
X030098Y017139D01*
X030379Y016858D01*
X030777Y016858D01*
X031058Y017139D01*
X031058Y017537D01*
X030777Y017818D01*
X030703Y017818D02*
X030703Y017858D01*
X030203Y018034D02*
X030203Y017642D01*
X030098Y017338D02*
X028656Y017338D01*
X028652Y017358D02*
X028933Y017639D01*
X028933Y017929D01*
X029004Y017858D01*
X029402Y017858D01*
X029683Y018139D01*
X029683Y018537D01*
X029402Y018818D01*
X029004Y018818D01*
X028723Y018537D01*
X028723Y018247D01*
X028652Y018318D01*
X028254Y018318D01*
X027973Y018037D01*
X027973Y018021D01*
X026656Y019338D01*
X044923Y019338D01*
X044923Y003338D01*
X041539Y003338D01*
X041203Y003003D02*
X041203Y001618D01*
X041703Y001618D02*
X041703Y012912D01*
X041799Y012951D02*
X041970Y013123D01*
X042063Y013347D01*
X042063Y014330D01*
X041970Y014554D01*
X041799Y014725D01*
X041575Y014818D01*
X041332Y014818D01*
X041108Y014725D01*
X040953Y014571D01*
X040799Y014725D01*
X040575Y014818D01*
X040332Y014818D01*
X040108Y014725D01*
X039953Y014571D01*
X039799Y014725D01*
X039575Y014818D01*
X039332Y014818D01*
X039108Y014725D01*
X038953Y014571D01*
X038799Y014725D01*
X038575Y014818D01*
X038332Y014818D01*
X038108Y014725D01*
X037953Y014571D01*
X037799Y014725D01*
X037575Y014818D01*
X037332Y014818D01*
X037108Y014725D01*
X036953Y014571D01*
X036799Y014725D01*
X036575Y014818D01*
X036332Y014818D01*
X036108Y014725D01*
X035936Y014554D01*
X035843Y014330D01*
X035843Y013347D01*
X035936Y013123D01*
X036108Y012951D01*
X036332Y012858D01*
X036575Y012858D01*
X036799Y012951D01*
X036953Y013106D01*
X037108Y012951D01*
X037332Y012858D01*
X037575Y012858D01*
X037799Y012951D01*
X037953Y013106D01*
X038108Y012951D01*
X038332Y012858D01*
X038575Y012858D01*
X038799Y012951D01*
X038953Y013106D01*
X039108Y012951D01*
X039332Y012858D01*
X039575Y012858D01*
X039799Y012951D01*
X039953Y013106D01*
X040108Y012951D01*
X040332Y012858D01*
X040575Y012858D01*
X040799Y012951D01*
X040953Y013106D01*
X041108Y012951D01*
X041332Y012858D01*
X041575Y012858D01*
X041799Y012951D01*
X042060Y013338D02*
X044923Y013338D01*
X044923Y012838D02*
X028523Y012838D01*
X028523Y012711D02*
X028523Y016025D01*
X028523Y016152D01*
X028475Y016270D01*
X026433Y018311D01*
X026433Y018656D01*
X029351Y015738D01*
X029203Y015738D01*
X029038Y015738D01*
X028803Y015504D01*
X028803Y015338D01*
X028803Y015173D01*
X029038Y014938D01*
X029203Y014938D01*
X029203Y015338D01*
X029203Y015338D01*
X028803Y015338D01*
X029203Y015338D01*
X029203Y015338D01*
X029203Y013818D01*
X029004Y013818D02*
X028723Y013537D01*
X028723Y013139D01*
X029004Y012858D01*
X029402Y012858D01*
X029683Y013139D01*
X029683Y013537D01*
X029402Y013818D01*
X029004Y013818D01*
X028523Y013838D02*
X031251Y013838D01*
X031203Y013886D02*
X031203Y012283D01*
X030703Y012283D02*
X030703Y014386D01*
X030751Y014338D02*
X028523Y014338D01*
X028523Y014838D02*
X030251Y014838D01*
X030203Y014886D02*
X030203Y012041D01*
X030196Y012033D02*
X029591Y012033D01*
X029693Y012135D01*
X029693Y012541D01*
X029406Y012828D01*
X029000Y012828D01*
X028713Y012541D01*
X028713Y012135D01*
X028815Y012033D01*
X028591Y012033D01*
X028693Y012135D01*
X028693Y012541D01*
X028523Y012711D01*
X028693Y012338D02*
X028713Y012338D01*
X028703Y012033D02*
X028703Y016386D01*
X028751Y016338D02*
X028406Y016338D01*
X028203Y016541D02*
X028203Y016886D01*
X028251Y016838D02*
X027906Y016838D01*
X027703Y017041D02*
X027703Y017386D01*
X027751Y017338D02*
X027406Y017338D01*
X027203Y017541D02*
X027203Y017886D01*
X027251Y017838D02*
X026906Y017838D01*
X026703Y018041D02*
X026703Y018386D01*
X026751Y018338D02*
X026433Y018338D01*
X025953Y018338D02*
X028203Y016088D01*
X028203Y012338D01*
X027203Y012338D02*
X027203Y016088D01*
X025953Y017338D01*
X025453Y016963D02*
X025453Y019088D01*
X025203Y019338D01*
X023203Y019338D01*
X022953Y019088D01*
X022953Y018338D01*
X022473Y018338D02*
X022433Y018338D01*
X022433Y018003D02*
X022360Y017826D01*
X022225Y017691D01*
X022049Y017618D01*
X021858Y017618D01*
X021681Y017691D01*
X021546Y017826D01*
X021473Y018003D01*
X021473Y018674D01*
X021546Y018850D01*
X021681Y018985D01*
X021858Y019058D01*
X022049Y019058D01*
X022225Y018985D01*
X022360Y018850D01*
X022433Y018674D01*
X022433Y018003D01*
X022365Y017838D02*
X022541Y017838D01*
X022703Y017682D02*
X022703Y015994D01*
X022681Y015985D02*
X022546Y015850D01*
X022473Y015674D01*
X022473Y015003D01*
X022546Y014826D01*
X022681Y014691D01*
X022858Y014618D01*
X023049Y014618D01*
X023225Y014691D01*
X023360Y014826D01*
X023433Y015003D01*
X023433Y015674D01*
X023360Y015850D01*
X023225Y015985D01*
X023049Y016058D01*
X022858Y016058D01*
X022681Y015985D01*
X022541Y015838D02*
X022365Y015838D01*
X022203Y015994D02*
X022203Y017682D01*
X021703Y017682D02*
X021703Y017231D01*
X021911Y016838D02*
X024133Y016838D01*
X024001Y017338D02*
X018703Y017338D01*
X018703Y017682D02*
X018703Y015994D01*
X018703Y016338D02*
X021133Y016338D01*
X020703Y015994D02*
X020703Y017784D01*
X020698Y017788D02*
X020764Y017744D01*
X020837Y017714D01*
X020914Y017698D01*
X020953Y017698D01*
X020953Y018338D01*
X020553Y018338D01*
X020553Y018059D01*
X020569Y017982D01*
X020599Y017909D01*
X020643Y017843D01*
X020698Y017788D01*
X020648Y017838D02*
X020365Y017838D01*
X020360Y017826D02*
X020433Y018003D01*
X020433Y018674D01*
X020360Y018850D01*
X020225Y018985D01*
X020049Y019058D01*
X019858Y019058D01*
X019681Y018985D01*
X019546Y018850D01*
X019473Y018674D01*
X019473Y018003D01*
X019546Y017826D01*
X019681Y017691D01*
X019858Y017618D01*
X020049Y017618D01*
X020225Y017691D01*
X020360Y017826D01*
X020203Y017682D02*
X020203Y015994D01*
X020365Y015838D02*
X020541Y015838D01*
X019703Y015994D02*
X019703Y017682D01*
X019541Y017838D02*
X019365Y017838D01*
X019203Y017682D02*
X019203Y015994D01*
X019365Y015838D02*
X019541Y015838D01*
X019473Y015338D02*
X019433Y015338D01*
X019953Y015338D02*
X018953Y014338D01*
X013203Y014338D01*
X011328Y012463D01*
X009828Y012463D01*
X010203Y012143D02*
X010203Y009158D01*
X009953Y008838D02*
X010953Y008838D01*
X011703Y008088D01*
X012203Y008088D01*
X012953Y008838D01*
X015953Y008838D01*
X015953Y008088D01*
X016828Y007213D01*
X017953Y007213D01*
X019578Y008838D01*
X020953Y008838D01*
X021453Y009338D01*
X021453Y016838D01*
X020995Y016838D02*
X018703Y016838D01*
X018203Y016838D02*
X009285Y016838D01*
X009267Y016737D02*
X009329Y017088D01*
X009329Y017088D01*
X009267Y017439D01*
X009089Y017747D01*
X009089Y017747D01*
X008816Y017976D01*
X008481Y018098D01*
X008359Y018098D01*
X008359Y018098D01*
X008303Y018098D01*
X008301Y018098D01*
X008248Y018098D01*
X008125Y018098D01*
X007791Y017976D01*
X007791Y017976D01*
X007518Y017747D01*
X007340Y017439D01*
X007278Y017088D01*
X007340Y016738D01*
X007340Y016737D01*
X007518Y016429D01*
X007791Y016200D01*
X008125Y016078D01*
X008125Y016078D01*
X008248Y016078D01*
X008248Y016078D01*
X008303Y016078D01*
X008318Y016078D01*
X008359Y016078D01*
X008359Y016078D01*
X008481Y016078D01*
X008816Y016200D01*
X008816Y016200D01*
X009089Y016429D01*
X009267Y016737D01*
X009203Y016627D02*
X009203Y015338D01*
X008703Y015338D02*
X008703Y016159D01*
X008481Y016078D02*
X008481Y016078D01*
X008203Y016078D02*
X008203Y015338D01*
X007703Y015338D02*
X007703Y016273D01*
X007626Y016338D02*
X000983Y016338D01*
X000983Y015838D02*
X018203Y015838D01*
X018203Y016338D02*
X008981Y016338D01*
X009089Y016429D02*
X009089Y016429D01*
X007791Y016200D02*
X007791Y016200D01*
X007518Y016429D02*
X007518Y016429D01*
X007322Y016838D02*
X000983Y016838D01*
X000983Y017338D02*
X007322Y017338D01*
X007340Y017439D02*
X007340Y017439D01*
X007518Y017747D02*
X007518Y017747D01*
X007518Y017747D01*
X007626Y017838D02*
X000983Y017838D01*
X000983Y018338D02*
X018203Y018338D01*
X018203Y017838D02*
X008981Y017838D01*
X008816Y017976D02*
X008816Y017976D01*
X008703Y018017D02*
X008703Y020668D01*
X008570Y020668D02*
X008837Y020668D01*
X009083Y020770D01*
X009203Y020891D01*
X009324Y020770D01*
X009570Y020668D01*
X009837Y020668D01*
X010083Y020770D01*
X010203Y020891D01*
X010324Y020770D01*
X010570Y020668D01*
X010837Y020668D01*
X011083Y020770D01*
X011203Y020891D01*
X011324Y020770D01*
X011570Y020668D01*
X011837Y020668D01*
X012083Y020770D01*
X012203Y020891D01*
X012324Y020770D01*
X012570Y020668D01*
X012837Y020668D01*
X013083Y020770D01*
X013203Y020891D01*
X013324Y020770D01*
X013570Y020668D01*
X013837Y020668D01*
X014083Y020770D01*
X014203Y020891D01*
X014324Y020770D01*
X014570Y020668D01*
X014837Y020668D01*
X015083Y020770D01*
X015203Y020891D01*
X015324Y020770D01*
X015570Y020668D01*
X015837Y020668D01*
X016083Y020770D01*
X016203Y020891D01*
X016203Y015338D01*
X015703Y015338D02*
X015703Y020668D01*
X015256Y020838D02*
X015151Y020838D01*
X015203Y020891D02*
X015203Y015338D01*
X014703Y015338D02*
X014703Y020668D01*
X014256Y020838D02*
X014151Y020838D01*
X014203Y020891D02*
X014203Y015338D01*
X014203Y014838D02*
X014203Y014658D01*
X014703Y014658D02*
X014703Y014838D01*
X015203Y014838D02*
X015203Y014658D01*
X015703Y014658D02*
X015703Y014838D01*
X016203Y014838D02*
X016203Y014658D01*
X016703Y014658D02*
X016703Y014838D01*
X016703Y015338D02*
X016703Y020668D01*
X016570Y020668D02*
X016837Y020668D01*
X017083Y020770D01*
X017203Y020891D01*
X017324Y020770D01*
X017570Y020668D01*
X017837Y020668D01*
X018083Y020770D01*
X018271Y020959D01*
X018373Y021205D01*
X018373Y021472D01*
X018271Y021718D01*
X018151Y021838D01*
X018256Y021838D01*
X018203Y021786D02*
X018203Y021891D01*
X018324Y021770D01*
X018570Y021668D01*
X018837Y021668D01*
X019083Y021770D01*
X019271Y021959D01*
X019373Y022205D01*
X019373Y022472D01*
X019271Y022718D01*
X019151Y022838D01*
X019203Y022891D01*
X019324Y022770D01*
X019570Y022668D01*
X019837Y022668D01*
X020083Y022770D01*
X020203Y022891D01*
X020324Y022770D01*
X020570Y022668D01*
X020837Y022668D01*
X021083Y022770D01*
X021203Y022891D01*
X021324Y022770D01*
X021570Y022668D01*
X021837Y022668D01*
X022083Y022770D01*
X022271Y022959D01*
X022273Y022963D01*
X022380Y022855D01*
X022590Y022768D01*
X022817Y022768D01*
X023026Y022855D01*
X023186Y023015D01*
X023203Y023056D01*
X023220Y023015D01*
X023380Y022855D01*
X023590Y022768D01*
X023817Y022768D01*
X024026Y022855D01*
X024186Y023015D01*
X024203Y023056D01*
X024203Y022621D01*
X024220Y022661D02*
X024133Y022452D01*
X024133Y022225D01*
X024220Y022015D01*
X024380Y021855D01*
X024590Y021768D01*
X024817Y021768D01*
X025026Y021855D01*
X025186Y022015D01*
X025203Y022056D01*
X025220Y022015D01*
X025380Y021855D01*
X025590Y021768D01*
X025817Y021768D01*
X026026Y021855D01*
X026134Y021963D01*
X026135Y021959D01*
X026324Y021770D01*
X026570Y021668D01*
X026837Y021668D01*
X027083Y021770D01*
X027203Y021891D01*
X027324Y021770D01*
X027570Y021668D01*
X027837Y021668D01*
X028083Y021770D01*
X028203Y021891D01*
X028324Y021770D01*
X028570Y021668D01*
X028837Y021668D01*
X029083Y021770D01*
X029203Y021891D01*
X029203Y019838D01*
X028703Y019838D02*
X028703Y021668D01*
X028256Y021838D02*
X028151Y021838D01*
X028203Y021891D02*
X028203Y019838D01*
X027703Y019838D02*
X027703Y021668D01*
X027256Y021838D02*
X027151Y021838D01*
X027203Y021891D02*
X027203Y019838D01*
X026703Y019838D02*
X026703Y021668D01*
X026256Y021838D02*
X025986Y021838D01*
X026203Y021891D02*
X026203Y019838D01*
X026156Y019838D02*
X044923Y019838D01*
X026156Y019838D01*
X025911Y020083D01*
X025911Y020179D01*
X025842Y020348D01*
X025713Y020477D01*
X025544Y020546D01*
X025362Y020546D01*
X025194Y020477D01*
X025065Y020348D01*
X024995Y020179D01*
X024995Y019997D01*
X025061Y019838D01*
X000983Y019838D01*
X000983Y020338D02*
X019274Y020338D01*
X019223Y020389D02*
X019504Y020108D01*
X019902Y020108D01*
X020183Y020389D01*
X020183Y020787D01*
X019902Y021068D01*
X019504Y021068D01*
X019223Y020787D01*
X019223Y020389D01*
X019203Y019838D02*
X019203Y021891D01*
X019151Y021838D02*
X024421Y021838D01*
X024703Y021768D02*
X024703Y019838D01*
X025061Y019838D02*
X018203Y019838D01*
X018203Y020891D01*
X018151Y020838D02*
X019275Y020838D01*
X019703Y021068D02*
X019703Y022668D01*
X019373Y022338D02*
X024133Y022338D01*
X024203Y022056D02*
X024203Y019838D01*
X023902Y020108D02*
X023504Y020108D01*
X023223Y020389D01*
X023223Y020787D01*
X023504Y021068D01*
X023902Y021068D01*
X024183Y020787D01*
X024183Y020389D01*
X023902Y020108D01*
X023703Y020108D02*
X023703Y019838D01*
X023203Y019838D02*
X023203Y023056D01*
X022986Y022838D02*
X023421Y022838D01*
X023703Y022768D02*
X023703Y021068D01*
X023275Y020838D02*
X020132Y020838D01*
X020132Y020338D02*
X023274Y020338D01*
X022703Y019838D02*
X022703Y022768D01*
X022421Y022838D02*
X022151Y022838D01*
X022203Y022891D02*
X022203Y019838D01*
X021703Y019838D02*
X021703Y022668D01*
X021256Y022838D02*
X021151Y022838D01*
X021203Y022891D02*
X021203Y019838D01*
X020703Y019838D02*
X020703Y022668D01*
X020256Y022838D02*
X020151Y022838D01*
X020203Y022891D02*
X020203Y019838D01*
X019703Y019838D02*
X019703Y020108D01*
X019703Y019338D02*
X019703Y018994D01*
X019541Y018838D02*
X019365Y018838D01*
X019203Y018994D02*
X019203Y019338D01*
X018703Y019338D02*
X018703Y018994D01*
X018203Y018838D02*
X000983Y018838D01*
X000983Y019338D02*
X018203Y019338D01*
X018203Y019838D02*
X018203Y015338D01*
X000983Y015338D01*
X000983Y030338D01*
X002033Y030338D01*
X002033Y030205D02*
X002033Y030472D01*
X002135Y030718D01*
X002256Y030838D01*
X002135Y030959D01*
X002033Y031205D01*
X002033Y031472D01*
X002135Y031718D01*
X002324Y031906D01*
X002570Y032008D01*
X002837Y032008D01*
X003083Y031906D01*
X003203Y031786D01*
X003324Y031906D01*
X003570Y032008D01*
X003837Y032008D01*
X004083Y031906D01*
X004203Y031786D01*
X004324Y031906D01*
X004570Y032008D01*
X004837Y032008D01*
X005083Y031906D01*
X005203Y031786D01*
X005203Y032058D01*
X005324Y031906D02*
X005203Y031786D01*
X005151Y031838D02*
X005256Y031838D01*
X005324Y031906D02*
X005570Y032008D01*
X005837Y032008D01*
X006083Y031906D01*
X006203Y031786D01*
X006324Y031906D01*
X006570Y032008D01*
X006837Y032008D01*
X007083Y031906D01*
X007203Y031786D01*
X007324Y031906D01*
X007570Y032008D01*
X007837Y032008D01*
X008083Y031906D01*
X008203Y031786D01*
X008324Y031906D01*
X008570Y032008D01*
X008837Y032008D01*
X009083Y031906D01*
X009203Y031786D01*
X009324Y031906D01*
X009570Y032008D01*
X009837Y032008D01*
X010083Y031906D01*
X010271Y031718D01*
X010373Y031472D01*
X010373Y031205D01*
X010271Y030959D01*
X010151Y030838D01*
X010256Y030838D01*
X010203Y030786D02*
X010203Y030891D01*
X010151Y030838D02*
X010203Y030786D01*
X010324Y030906D01*
X010570Y031008D01*
X010837Y031008D01*
X011083Y030906D01*
X011271Y030718D01*
X011373Y030472D01*
X011373Y030205D01*
X011271Y029959D01*
X011151Y029838D01*
X011256Y029838D01*
X011203Y029786D02*
X011203Y029891D01*
X011151Y029838D02*
X011203Y029786D01*
X011324Y029906D01*
X011570Y030008D01*
X011837Y030008D01*
X012083Y029906D01*
X012271Y029718D01*
X012373Y029472D01*
X012373Y029205D01*
X012271Y028959D01*
X012151Y028838D01*
X012256Y028838D01*
X012203Y028786D02*
X012203Y028891D01*
X012151Y028838D02*
X012203Y028786D01*
X012324Y028906D01*
X012570Y029008D01*
X012837Y029008D01*
X013083Y028906D01*
X013203Y028786D01*
X013324Y028906D01*
X013570Y029008D01*
X013837Y029008D01*
X014083Y028906D01*
X014203Y028786D01*
X014324Y028906D01*
X014570Y029008D01*
X014837Y029008D01*
X015083Y028906D01*
X015203Y028786D01*
X015203Y030895D01*
X015250Y030848D02*
X015656Y030848D01*
X015943Y031135D01*
X015943Y031541D01*
X015656Y031828D01*
X015250Y031828D01*
X014963Y031541D01*
X014963Y031135D01*
X015250Y030848D01*
X014943Y031135D02*
X014656Y030848D01*
X014250Y030848D01*
X013963Y031135D01*
X013963Y031541D01*
X014250Y031828D01*
X014656Y031828D01*
X014943Y031541D01*
X014943Y031135D01*
X014943Y031338D02*
X014963Y031338D01*
X015203Y031781D02*
X015203Y032058D01*
X014703Y032058D02*
X014703Y031781D01*
X014203Y031781D02*
X014203Y032058D01*
X013703Y032058D02*
X013703Y031781D01*
X013656Y031828D02*
X013250Y031828D01*
X012963Y031541D01*
X012963Y031135D01*
X013250Y030848D01*
X013656Y030848D01*
X013943Y031135D01*
X013943Y031541D01*
X013656Y031828D01*
X013203Y031781D02*
X013203Y032058D01*
X012703Y032058D02*
X012703Y029008D01*
X012373Y029338D02*
X026033Y029338D01*
X026033Y029205D02*
X026033Y029472D01*
X026135Y029718D01*
X026324Y029906D01*
X026570Y030008D01*
X026837Y030008D01*
X027083Y029906D01*
X027203Y029786D01*
X027256Y029838D01*
X027151Y029838D01*
X027203Y029786D02*
X027203Y029891D01*
X027256Y029838D02*
X027135Y029959D01*
X027033Y030205D01*
X027033Y030472D01*
X027135Y030718D01*
X027324Y030906D01*
X027570Y031008D01*
X027837Y031008D01*
X028083Y030906D01*
X028203Y030786D01*
X028203Y030891D01*
X028151Y030838D02*
X028256Y030838D01*
X028203Y030786D01*
X028256Y030838D02*
X028135Y030959D01*
X028033Y031205D01*
X028033Y031472D01*
X028135Y031718D01*
X028324Y031906D01*
X028570Y032008D01*
X028837Y032008D01*
X029083Y031906D01*
X029203Y031786D01*
X029324Y031906D01*
X029570Y032008D01*
X029837Y032008D01*
X030083Y031906D01*
X030203Y031786D01*
X030324Y031906D01*
X030570Y032008D01*
X030837Y032008D01*
X031083Y031906D01*
X031203Y031786D01*
X031324Y031906D01*
X031570Y032008D01*
X031837Y032008D01*
X032083Y031906D01*
X032203Y031786D01*
X032324Y031906D01*
X032570Y032008D01*
X032837Y032008D01*
X033083Y031906D01*
X033203Y031786D01*
X033324Y031906D01*
X033570Y032008D01*
X033837Y032008D01*
X034083Y031906D01*
X034203Y031786D01*
X034324Y031906D01*
X034570Y032008D01*
X034837Y032008D01*
X035083Y031906D01*
X035203Y031786D01*
X035324Y031906D01*
X035570Y032008D01*
X035837Y032008D01*
X036083Y031906D01*
X036203Y031786D01*
X036324Y031906D01*
X036570Y032008D01*
X036837Y032008D01*
X037083Y031906D01*
X037203Y031786D01*
X037324Y031906D01*
X037570Y032008D01*
X037837Y032008D01*
X038083Y031906D01*
X038203Y031786D01*
X038324Y031906D01*
X038570Y032008D01*
X038837Y032008D01*
X039083Y031906D01*
X039203Y031786D01*
X039324Y031906D01*
X039570Y032008D01*
X039837Y032008D01*
X040083Y031906D01*
X040203Y031786D01*
X040324Y031906D01*
X040570Y032008D01*
X040837Y032008D01*
X041083Y031906D01*
X041271Y031718D01*
X041373Y031472D01*
X041373Y031205D01*
X041271Y030959D01*
X041151Y030838D01*
X044842Y030838D01*
X044827Y030906D02*
X044912Y030531D01*
X044923Y030338D01*
X041373Y030338D01*
X041373Y030205D02*
X041373Y030472D01*
X041271Y030718D01*
X041151Y030838D01*
X041203Y030786D02*
X041203Y030891D01*
X041373Y031338D02*
X044592Y031338D01*
X044660Y031253D02*
X044827Y030906D01*
X044703Y031163D02*
X044703Y019838D01*
X044923Y019838D02*
X044923Y030283D01*
X044923Y030304D01*
X044923Y030338D01*
X044923Y029838D02*
X041151Y029838D01*
X041271Y029959D01*
X041373Y030205D01*
X041203Y029891D02*
X041203Y029786D01*
X041151Y029838D02*
X041271Y029718D01*
X041373Y029472D01*
X041373Y029205D01*
X041271Y028959D01*
X041151Y028838D01*
X044923Y028838D01*
X044923Y028338D02*
X041373Y028338D01*
X041373Y028205D02*
X041373Y028472D01*
X041271Y028718D01*
X041151Y028838D01*
X041203Y028786D02*
X041203Y028891D01*
X041373Y029338D02*
X044923Y029338D01*
X044923Y027838D02*
X041151Y027838D01*
X041271Y027959D01*
X041373Y028205D01*
X041203Y027891D02*
X041203Y027786D01*
X041151Y027838D02*
X041271Y027718D01*
X041373Y027472D01*
X041373Y027205D01*
X041271Y026959D01*
X041151Y026838D01*
X044923Y026838D01*
X044923Y026338D02*
X041373Y026338D01*
X041373Y026205D02*
X041373Y026472D01*
X041271Y026718D01*
X041151Y026838D01*
X041203Y026786D02*
X041203Y026891D01*
X041373Y027338D02*
X044923Y027338D01*
X044923Y025838D02*
X041151Y025838D01*
X041271Y025959D01*
X041373Y026205D01*
X041203Y025891D02*
X041203Y025786D01*
X041151Y025838D02*
X041271Y025718D01*
X041373Y025472D01*
X041373Y025205D01*
X041271Y024959D01*
X041151Y024838D01*
X044923Y024838D01*
X044923Y024338D02*
X041373Y024338D01*
X041373Y024205D02*
X041373Y024472D01*
X041271Y024718D01*
X041151Y024838D01*
X041203Y024786D02*
X041203Y024891D01*
X041373Y025338D02*
X044923Y025338D01*
X044923Y023838D02*
X041151Y023838D01*
X041271Y023959D01*
X041373Y024205D01*
X041203Y023891D02*
X041203Y023786D01*
X041151Y023838D02*
X041271Y023718D01*
X041373Y023472D01*
X041373Y023205D01*
X041271Y022959D01*
X041151Y022838D01*
X044923Y022838D01*
X044923Y023338D02*
X041373Y023338D01*
X041203Y022891D02*
X041203Y022786D01*
X041151Y022838D02*
X041271Y022718D01*
X041373Y022472D01*
X041373Y022205D01*
X041271Y021959D01*
X041083Y021770D01*
X040837Y021668D01*
X040570Y021668D01*
X040324Y021770D01*
X040203Y021891D01*
X040083Y021770D01*
X039837Y021668D01*
X039570Y021668D01*
X039324Y021770D01*
X039203Y021891D01*
X039203Y019838D01*
X038703Y019838D02*
X038703Y021668D01*
X038570Y021668D02*
X038837Y021668D01*
X039083Y021770D01*
X039203Y021891D01*
X039151Y021838D02*
X039256Y021838D01*
X039703Y021668D02*
X039703Y019838D01*
X040203Y019838D02*
X040203Y021891D01*
X040151Y021838D02*
X040256Y021838D01*
X040703Y021668D02*
X040703Y019838D01*
X040703Y019338D02*
X040703Y014765D01*
X040203Y014765D02*
X040203Y019338D01*
X039703Y019338D02*
X039703Y014765D01*
X039203Y014765D02*
X039203Y019338D01*
X038703Y019338D02*
X038703Y014765D01*
X038203Y014765D02*
X038203Y019338D01*
X037703Y019338D02*
X037703Y014765D01*
X037203Y014765D02*
X037203Y019338D01*
X036703Y019338D02*
X036703Y014765D01*
X036203Y014765D02*
X036203Y019338D01*
X035703Y019338D02*
X035703Y012041D01*
X035906Y011838D02*
X039001Y011838D01*
X039203Y012041D02*
X039203Y012912D01*
X039473Y012537D02*
X039473Y012311D01*
X037433Y010271D01*
X037433Y010287D01*
X037273Y010447D01*
X037273Y010979D01*
X037433Y011139D01*
X037433Y011537D01*
X037152Y011818D01*
X036754Y011818D01*
X036473Y011537D01*
X036473Y011139D01*
X036633Y010979D01*
X036633Y010447D01*
X036473Y010287D01*
X036473Y009889D01*
X036705Y009658D01*
X035086Y009658D01*
X032806Y011938D01*
X032953Y011938D01*
X032953Y012338D01*
X032553Y012338D01*
X032553Y012191D01*
X032510Y012235D01*
X032392Y012283D01*
X032265Y012283D01*
X030515Y012283D01*
X030397Y012235D01*
X030307Y012145D01*
X030196Y012033D01*
X030328Y011713D02*
X027078Y011713D01*
X026703Y012088D01*
X026703Y013588D01*
X025953Y014338D01*
X025953Y015338D01*
X025453Y015963D02*
X025453Y013838D01*
X024453Y013088D02*
X025203Y012338D01*
X024453Y013088D02*
X024453Y017338D01*
X023953Y017838D01*
X023953Y018338D01*
X023473Y018338D02*
X023433Y018338D01*
X023365Y017838D02*
X023541Y017838D01*
X023703Y017636D02*
X023703Y015994D01*
X023541Y015838D02*
X023365Y015838D01*
X023203Y015994D02*
X023203Y017682D01*
X021541Y017838D02*
X021259Y017838D01*
X021264Y017843D02*
X021308Y017909D01*
X021338Y017982D01*
X021353Y018059D01*
X021353Y018338D01*
X020954Y018338D01*
X020954Y018338D01*
X021473Y018338D01*
X021353Y018338D02*
X021353Y018618D01*
X021338Y018695D01*
X021308Y018768D01*
X021264Y018833D01*
X021208Y018889D01*
X021143Y018933D01*
X021070Y018963D01*
X020993Y018978D01*
X020953Y018978D01*
X020914Y018978D01*
X020837Y018963D01*
X020764Y018933D01*
X020698Y018889D01*
X020643Y018833D01*
X020599Y018768D01*
X020569Y018695D01*
X020553Y018618D01*
X020553Y018338D01*
X020953Y018338D01*
X020953Y018338D01*
X020953Y018338D01*
X020433Y018338D01*
X020703Y018338D02*
X020703Y018338D01*
X020953Y018339D02*
X020953Y018978D01*
X020953Y018339D01*
X020953Y018339D01*
X020954Y018338D02*
X021353Y018338D01*
X021203Y018338D02*
X021203Y018338D01*
X020953Y018338D02*
X020953Y017698D01*
X020993Y017698D01*
X021070Y017714D01*
X021143Y017744D01*
X021208Y017788D01*
X021264Y017843D01*
X021203Y017784D02*
X021203Y017231D01*
X020953Y017838D02*
X020953Y017838D01*
X020953Y018838D02*
X020953Y018838D01*
X020703Y018892D02*
X020703Y019338D01*
X020203Y019338D02*
X020203Y018994D01*
X020365Y018838D02*
X020648Y018838D01*
X021203Y018892D02*
X021203Y019338D01*
X021703Y019338D02*
X021703Y018994D01*
X021541Y018838D02*
X021259Y018838D01*
X022203Y018994D02*
X022203Y019338D01*
X022703Y019338D02*
X022703Y019291D01*
X022541Y018838D02*
X022365Y018838D01*
X023365Y018838D02*
X023541Y018838D01*
X023703Y018994D02*
X023703Y019018D01*
X024953Y018338D02*
X024953Y016463D01*
X025453Y015963D01*
X025453Y016963D02*
X026703Y015713D01*
X026703Y014338D01*
X028523Y013338D02*
X028723Y013338D01*
X029203Y012858D02*
X029203Y012828D01*
X029693Y012338D02*
X032953Y012338D01*
X032953Y012338D01*
X032953Y012338D01*
X032553Y012338D01*
X032553Y012504D01*
X032788Y012738D01*
X032953Y012738D01*
X032953Y012339D01*
X032953Y012339D01*
X032953Y012738D01*
X033119Y012738D01*
X033353Y012504D01*
X033353Y012338D01*
X032954Y012338D01*
X032954Y012338D01*
X034473Y012338D01*
X034473Y012139D02*
X034754Y011858D01*
X034981Y011858D01*
X035473Y011366D01*
X035473Y011139D01*
X035754Y010858D01*
X036152Y010858D01*
X036433Y011139D01*
X036433Y011537D01*
X036152Y011818D01*
X035926Y011818D01*
X035433Y012311D01*
X035433Y012537D01*
X035152Y012818D01*
X034754Y012818D01*
X034473Y012537D01*
X034473Y012139D01*
X034703Y011909D02*
X034703Y010041D01*
X034906Y009838D02*
X035638Y009838D01*
X035703Y009773D02*
X035703Y009658D01*
X035788Y009688D02*
X035953Y009688D01*
X035953Y010088D01*
X035553Y010088D01*
X035553Y009923D01*
X035788Y009688D01*
X035953Y009688D02*
X036119Y009688D01*
X036353Y009923D01*
X036353Y010088D01*
X035954Y010088D01*
X035954Y010088D01*
X036353Y010088D01*
X036353Y010254D01*
X036119Y010488D01*
X035953Y010488D01*
X035788Y010488D01*
X035553Y010254D01*
X035553Y010088D01*
X035953Y010088D01*
X035953Y010088D01*
X035953Y010088D01*
X035953Y009688D01*
X035953Y009838D02*
X035953Y009838D01*
X035953Y010089D02*
X035953Y010488D01*
X035953Y010089D01*
X035953Y010089D01*
X035953Y010338D02*
X035953Y010338D01*
X035703Y010404D02*
X035703Y010909D01*
X035473Y011338D02*
X033406Y011338D01*
X033203Y011541D02*
X033203Y012023D01*
X033119Y011938D02*
X033353Y012173D01*
X033353Y012338D01*
X032954Y012338D01*
X032953Y012338D02*
X032953Y011938D01*
X033119Y011938D01*
X032906Y011838D02*
X035001Y011838D01*
X035203Y011636D02*
X035203Y009658D01*
X034953Y009338D02*
X036953Y009338D01*
X039953Y012338D01*
X040953Y011338D01*
X040473Y011338D02*
X039406Y011338D01*
X039203Y011136D02*
X039203Y008541D01*
X039001Y008338D02*
X037906Y008338D01*
X037926Y008318D02*
X037433Y008811D01*
X037433Y009037D01*
X037269Y009201D01*
X039926Y011858D01*
X039981Y011858D01*
X040473Y011366D01*
X040473Y011139D01*
X040754Y010858D01*
X041152Y010858D01*
X041433Y011139D01*
X041433Y011537D01*
X041152Y011818D01*
X040926Y011818D01*
X040433Y012311D01*
X040433Y012537D01*
X040152Y012818D01*
X039754Y012818D01*
X039473Y012537D01*
X039473Y012338D02*
X037954Y012338D01*
X037954Y012338D01*
X038353Y012338D01*
X038353Y012173D01*
X038119Y011938D01*
X037953Y011938D01*
X037953Y012338D01*
X037553Y012338D01*
X037553Y012173D01*
X037788Y011938D01*
X037953Y011938D01*
X037953Y012338D01*
X037953Y012338D01*
X037953Y012338D01*
X035433Y012338D01*
X034953Y012338D02*
X035953Y011338D01*
X036433Y011338D02*
X036473Y011338D01*
X036953Y011338D02*
X036953Y010088D01*
X036703Y009659D02*
X036703Y009658D01*
X036524Y009838D02*
X036269Y009838D01*
X036203Y009773D02*
X036203Y009658D01*
X036203Y010088D02*
X036203Y010088D01*
X036269Y010338D02*
X036525Y010338D01*
X036203Y010404D02*
X036203Y010909D01*
X036633Y010838D02*
X033906Y010838D01*
X033703Y011041D02*
X033703Y019338D01*
X033203Y019338D02*
X033203Y014267D01*
X033152Y014318D02*
X032754Y014318D01*
X032595Y014158D01*
X031836Y014158D01*
X028636Y017358D01*
X028652Y017358D01*
X028703Y017409D02*
X028703Y017291D01*
X029156Y016838D02*
X042722Y016838D01*
X042740Y016738D02*
X042678Y017088D01*
X042678Y017088D01*
X042740Y017439D01*
X042740Y017439D01*
X042918Y017747D01*
X042918Y017747D01*
X042918Y017747D01*
X043191Y017976D01*
X043026Y017838D02*
X028933Y017838D01*
X029203Y017858D02*
X029203Y016791D01*
X029656Y016338D02*
X043026Y016338D01*
X042918Y016429D02*
X043191Y016200D01*
X043191Y016200D01*
X042918Y016429D02*
X042918Y016429D01*
X042740Y016737D01*
X042740Y016738D01*
X042703Y016943D02*
X042703Y001618D01*
X042203Y001618D02*
X042203Y019338D01*
X041703Y019338D02*
X041703Y014765D01*
X041203Y014765D02*
X041203Y019338D01*
X041203Y019838D02*
X041203Y021891D01*
X041151Y021838D02*
X044923Y021838D01*
X044923Y022338D02*
X041373Y022338D01*
X038570Y021668D02*
X038324Y021770D01*
X038203Y021891D01*
X038203Y019838D01*
X037703Y019838D02*
X037703Y021668D01*
X037570Y021668D02*
X037837Y021668D01*
X038083Y021770D01*
X038203Y021891D01*
X038151Y021838D02*
X038256Y021838D01*
X037570Y021668D02*
X037324Y021770D01*
X037203Y021891D01*
X037203Y019838D01*
X036703Y019838D02*
X036703Y021668D01*
X036570Y021668D02*
X036837Y021668D01*
X037083Y021770D01*
X037203Y021891D01*
X037151Y021838D02*
X037256Y021838D01*
X036570Y021668D02*
X036324Y021770D01*
X036203Y021891D01*
X036203Y019838D01*
X035703Y019838D02*
X035703Y021668D01*
X035570Y021668D02*
X035837Y021668D01*
X036083Y021770D01*
X036203Y021891D01*
X036151Y021838D02*
X036256Y021838D01*
X035570Y021668D02*
X035324Y021770D01*
X035203Y021891D01*
X035203Y019838D01*
X034703Y019838D02*
X034703Y021668D01*
X034570Y021668D02*
X034837Y021668D01*
X035083Y021770D01*
X035203Y021891D01*
X035151Y021838D02*
X035256Y021838D01*
X034570Y021668D02*
X034324Y021770D01*
X034203Y021891D01*
X034083Y021770D01*
X033837Y021668D01*
X033570Y021668D01*
X033324Y021770D01*
X033203Y021891D01*
X033083Y021770D01*
X032837Y021668D01*
X032570Y021668D01*
X032324Y021770D01*
X032203Y021891D01*
X032083Y021770D01*
X031837Y021668D01*
X031570Y021668D01*
X031324Y021770D01*
X031203Y021891D01*
X031083Y021770D01*
X030837Y021668D01*
X030570Y021668D01*
X030324Y021770D01*
X030203Y021891D01*
X030083Y021770D01*
X029837Y021668D01*
X029570Y021668D01*
X029324Y021770D01*
X029203Y021891D01*
X029151Y021838D02*
X029256Y021838D01*
X029703Y021668D02*
X029703Y019838D01*
X030203Y019838D02*
X030203Y021891D01*
X030151Y021838D02*
X030256Y021838D01*
X030703Y021668D02*
X030703Y019838D01*
X031203Y019838D02*
X031203Y021891D01*
X031151Y021838D02*
X031256Y021838D01*
X031703Y021668D02*
X031703Y019838D01*
X032203Y019838D02*
X032203Y021891D01*
X032151Y021838D02*
X032256Y021838D01*
X032703Y021668D02*
X032703Y019838D01*
X033203Y019838D02*
X033203Y021891D01*
X033151Y021838D02*
X033256Y021838D01*
X033703Y021668D02*
X033703Y019838D01*
X034203Y019838D02*
X034203Y021891D01*
X034151Y021838D02*
X034256Y021838D01*
X034203Y019338D02*
X034203Y010541D01*
X034406Y010338D02*
X035638Y010338D01*
X035703Y010088D02*
X035703Y010088D01*
X034953Y009338D02*
X032328Y011963D01*
X030578Y011963D01*
X030328Y011713D01*
X030953Y011213D02*
X030353Y010588D01*
X024203Y010588D01*
X023703Y011088D01*
X023703Y012838D01*
X023953Y013088D01*
X023953Y015338D01*
X023473Y015338D02*
X023433Y015338D01*
X023365Y014838D02*
X023541Y014838D01*
X023203Y014682D02*
X023203Y012828D01*
X023383Y012838D02*
X021773Y012838D01*
X022203Y012828D02*
X022203Y014682D01*
X022365Y014838D02*
X022541Y014838D01*
X022703Y014682D02*
X022703Y014068D01*
X022504Y014068D02*
X022223Y013787D01*
X022223Y013389D01*
X022504Y013108D01*
X022902Y013108D01*
X023183Y013389D01*
X023183Y013787D01*
X022902Y014068D01*
X022504Y014068D01*
X022275Y013838D02*
X021773Y013838D01*
X021773Y014338D02*
X023633Y014338D01*
X023633Y013838D02*
X023132Y013838D01*
X023132Y013338D02*
X023633Y013338D01*
X022703Y013108D02*
X022703Y009158D01*
X022828Y008838D02*
X023203Y008463D01*
X023203Y007838D01*
X022723Y007838D02*
X020183Y007838D01*
X020391Y007281D02*
X019991Y006881D01*
X019991Y006316D01*
X020391Y005916D01*
X020956Y005916D01*
X021356Y006316D01*
X021356Y006881D01*
X020956Y007281D01*
X020391Y007281D01*
X020203Y007093D02*
X020203Y008518D01*
X019703Y008511D02*
X019703Y008318D01*
X019531Y008338D02*
X022876Y008338D01*
X022703Y008511D02*
X022703Y006158D01*
X022340Y006158D02*
X022228Y006112D01*
X022159Y006141D01*
X021888Y006141D01*
X021637Y006037D01*
X021445Y005845D01*
X021417Y005778D01*
X018716Y005778D01*
X018475Y006020D01*
X018385Y006110D01*
X018267Y006158D01*
X017340Y006158D01*
X017228Y006112D01*
X017159Y006141D01*
X016888Y006141D01*
X016637Y006037D01*
X016445Y005845D01*
X016417Y005778D01*
X013716Y005778D01*
X013475Y006020D01*
X013385Y006110D01*
X013267Y006158D01*
X012340Y006158D01*
X012228Y006112D01*
X012159Y006141D01*
X011888Y006141D01*
X011637Y006037D01*
X011445Y005845D01*
X011417Y005778D01*
X008716Y005778D01*
X008475Y006020D01*
X008385Y006110D01*
X008267Y006158D01*
X007467Y006158D01*
X007340Y006158D01*
X007228Y006112D01*
X007159Y006141D01*
X006888Y006141D01*
X006637Y006037D01*
X006445Y005845D01*
X006417Y005778D01*
X003716Y005778D01*
X003475Y006019D01*
X003475Y006020D01*
X003385Y006110D01*
X003267Y006158D01*
X002517Y006158D01*
X002390Y006158D01*
X002272Y006110D01*
X002261Y006099D01*
X002159Y006141D01*
X001888Y006141D01*
X001637Y006037D01*
X001445Y005845D01*
X001341Y005594D01*
X001341Y005322D01*
X001445Y005072D01*
X001637Y004880D01*
X001888Y004776D01*
X002159Y004776D01*
X002331Y004847D01*
X002331Y004772D01*
X002435Y004522D01*
X002627Y004330D01*
X002878Y004226D01*
X003149Y004226D01*
X003400Y004330D01*
X003592Y004522D01*
X003696Y004772D01*
X003696Y005044D01*
X003657Y005138D01*
X006417Y005138D01*
X006445Y005072D01*
X006637Y004880D01*
X006888Y004776D01*
X007159Y004776D01*
X007331Y004847D01*
X007331Y004772D01*
X007435Y004522D01*
X007627Y004330D01*
X007878Y004226D01*
X008149Y004226D01*
X008400Y004330D01*
X008592Y004522D01*
X008696Y004772D01*
X008696Y005044D01*
X008657Y005138D01*
X011417Y005138D01*
X011445Y005072D01*
X011637Y004880D01*
X011888Y004776D01*
X012159Y004776D01*
X012331Y004847D01*
X012331Y004772D01*
X012435Y004522D01*
X012627Y004330D01*
X012878Y004226D01*
X013149Y004226D01*
X013400Y004330D01*
X013592Y004522D01*
X013696Y004772D01*
X013696Y005044D01*
X013657Y005138D01*
X016417Y005138D01*
X016445Y005072D01*
X016637Y004880D01*
X016888Y004776D01*
X017159Y004776D01*
X017331Y004847D01*
X017331Y004772D01*
X017435Y004522D01*
X017627Y004330D01*
X017878Y004226D01*
X018149Y004226D01*
X018400Y004330D01*
X018592Y004522D01*
X018696Y004772D01*
X018696Y005044D01*
X018657Y005138D01*
X021417Y005138D01*
X021445Y005072D01*
X021637Y004880D01*
X021888Y004776D01*
X022159Y004776D01*
X022331Y004847D01*
X022331Y004772D01*
X022435Y004522D01*
X022627Y004330D01*
X022878Y004226D01*
X023149Y004226D01*
X023400Y004330D01*
X023592Y004522D01*
X023696Y004772D01*
X023696Y005044D01*
X023657Y005138D01*
X026417Y005138D01*
X026445Y005072D01*
X026637Y004880D01*
X026888Y004776D01*
X027159Y004776D01*
X027331Y004847D01*
X027331Y004772D01*
X027435Y004522D01*
X027627Y004330D01*
X027878Y004226D01*
X028149Y004226D01*
X028400Y004330D01*
X028592Y004522D01*
X028696Y004772D01*
X028696Y005044D01*
X028657Y005138D01*
X031417Y005138D01*
X031445Y005072D01*
X031637Y004880D01*
X031888Y004776D01*
X032159Y004776D01*
X032331Y004847D01*
X032331Y004772D01*
X032435Y004522D01*
X032627Y004330D01*
X032878Y004226D01*
X033149Y004226D01*
X033400Y004330D01*
X033592Y004522D01*
X033696Y004772D01*
X033696Y005044D01*
X033657Y005138D01*
X036417Y005138D01*
X036445Y005072D01*
X036637Y004880D01*
X036888Y004776D01*
X037159Y004776D01*
X037331Y004847D01*
X037331Y004772D01*
X037435Y004522D01*
X037627Y004330D01*
X037878Y004226D01*
X038149Y004226D01*
X038400Y004330D01*
X038592Y004522D01*
X038696Y004772D01*
X038696Y005044D01*
X038592Y005295D01*
X038400Y005487D01*
X038149Y005591D01*
X037878Y005591D01*
X037706Y005520D01*
X037706Y005594D01*
X037602Y005845D01*
X037410Y006037D01*
X037159Y006141D01*
X036888Y006141D01*
X036637Y006037D01*
X036445Y005845D01*
X036417Y005778D01*
X033716Y005778D01*
X033475Y006020D01*
X033385Y006110D01*
X033267Y006158D01*
X032340Y006158D01*
X032228Y006112D01*
X032159Y006141D01*
X031888Y006141D01*
X031637Y006037D01*
X031445Y005845D01*
X031417Y005778D01*
X028716Y005778D01*
X028475Y006020D01*
X028385Y006110D01*
X028267Y006158D01*
X027340Y006158D01*
X027228Y006112D01*
X027159Y006141D01*
X026888Y006141D01*
X026637Y006037D01*
X026445Y005845D01*
X026417Y005778D01*
X023716Y005778D01*
X023475Y006020D01*
X023385Y006110D01*
X023267Y006158D01*
X022340Y006158D01*
X022203Y006122D02*
X022203Y008409D01*
X021953Y008838D02*
X022828Y008838D01*
X023203Y008916D02*
X023203Y011848D01*
X023383Y011838D02*
X021773Y011838D01*
X022203Y011848D02*
X022203Y011617D01*
X022433Y011338D02*
X023383Y011338D01*
X023501Y010838D02*
X022282Y010838D01*
X022382Y010338D02*
X024001Y010338D01*
X024203Y010268D02*
X024203Y005778D01*
X023703Y005791D02*
X023703Y010636D01*
X024703Y010268D02*
X024703Y008796D01*
X024751Y008838D02*
X023281Y008838D01*
X023523Y008338D02*
X024245Y008338D01*
X024703Y008338D02*
X025203Y008838D01*
X025953Y008838D01*
X027578Y007213D01*
X028328Y007213D01*
X029953Y008838D01*
X030953Y008838D01*
X032578Y007213D01*
X033328Y007213D01*
X034953Y008838D01*
X035953Y008838D01*
X037578Y007213D01*
X038328Y007213D01*
X039953Y008838D01*
X040953Y008838D01*
X041433Y008838D02*
X044923Y008838D01*
X044923Y008338D02*
X039906Y008338D01*
X039886Y008318D02*
X040086Y008518D01*
X040595Y008518D01*
X040754Y008358D01*
X041152Y008358D01*
X041433Y008639D01*
X041433Y009037D01*
X041152Y009318D01*
X040754Y009318D01*
X040595Y009158D01*
X039890Y009158D01*
X039772Y009110D01*
X039682Y009020D01*
X039682Y009019D01*
X038433Y007771D01*
X038433Y008037D01*
X038152Y008318D01*
X037926Y008318D01*
X038203Y008267D02*
X038203Y010136D01*
X038406Y010338D02*
X040638Y010338D01*
X040703Y010404D02*
X040703Y010909D01*
X040788Y010488D02*
X040553Y010254D01*
X040553Y010088D01*
X040553Y009923D01*
X040788Y009688D01*
X040953Y009688D01*
X040953Y010088D01*
X040553Y010088D01*
X040953Y010088D01*
X040953Y010088D01*
X040953Y010088D01*
X040953Y009688D01*
X041119Y009688D01*
X041353Y009923D01*
X041353Y010088D01*
X040954Y010088D01*
X040954Y010088D01*
X041353Y010088D01*
X041353Y010254D01*
X041119Y010488D01*
X040953Y010488D01*
X040788Y010488D01*
X040953Y010488D02*
X040953Y010089D01*
X040953Y010089D01*
X040953Y010488D01*
X040953Y010338D02*
X040953Y010338D01*
X041203Y010404D02*
X041203Y010909D01*
X041433Y011338D02*
X044923Y011338D01*
X044923Y011838D02*
X040906Y011838D01*
X040703Y012041D02*
X040703Y012912D01*
X040203Y012912D02*
X040203Y012767D01*
X040433Y012338D02*
X044923Y012338D01*
X044923Y010838D02*
X038906Y010838D01*
X038703Y010636D02*
X038703Y008041D01*
X038501Y007838D02*
X038433Y007838D01*
X037953Y007838D02*
X036953Y008838D01*
X037433Y008838D02*
X039501Y008838D01*
X039703Y009041D02*
X039703Y011636D01*
X039906Y011838D02*
X040001Y011838D01*
X040203Y011636D02*
X040203Y009158D01*
X040703Y009267D02*
X040703Y009773D01*
X040638Y009838D02*
X037906Y009838D01*
X037703Y009636D02*
X037703Y008541D01*
X036703Y007636D02*
X036703Y006064D01*
X036442Y005838D02*
X033656Y005838D01*
X033703Y005791D02*
X033703Y007136D01*
X033906Y007338D02*
X037001Y007338D01*
X037203Y007136D02*
X037203Y006122D01*
X037605Y005838D02*
X039633Y005838D01*
X039703Y005386D02*
X039703Y001618D01*
X039355Y001838D02*
X044028Y001838D01*
X044203Y001950D02*
X044203Y016195D01*
X044216Y016200D02*
X044216Y016200D01*
X044381Y016338D02*
X044923Y016338D01*
X044489Y016429D02*
X044489Y016429D01*
X044489Y016429D01*
X044923Y015838D02*
X030156Y015838D01*
X030203Y015791D02*
X030203Y017034D01*
X030703Y016858D02*
X030703Y015291D01*
X030656Y015338D02*
X044923Y015338D01*
X044923Y014838D02*
X031156Y014838D01*
X031203Y014791D02*
X031203Y019338D01*
X030703Y019338D02*
X030703Y018818D01*
X030203Y018642D02*
X030203Y019338D01*
X029703Y019338D02*
X029703Y016291D01*
X029251Y015838D02*
X028523Y015838D01*
X029203Y015886D02*
X029203Y015339D01*
X029203Y015738D01*
X029203Y015339D01*
X029203Y015339D01*
X029203Y015338D02*
X028523Y015338D01*
X029203Y015338D02*
X029203Y014938D01*
X029369Y014938D01*
X029603Y015173D01*
X029603Y015338D01*
X029204Y015338D01*
X029204Y015338D01*
X029751Y015338D01*
X029703Y015386D02*
X029703Y012033D01*
X029683Y013338D02*
X035847Y013338D01*
X035433Y013639D02*
X035152Y013358D01*
X034754Y013358D01*
X034473Y013639D01*
X034473Y014037D01*
X034754Y014318D01*
X035152Y014318D01*
X035433Y014037D01*
X035433Y013639D01*
X035433Y013838D02*
X035843Y013838D01*
X035847Y014338D02*
X031656Y014338D01*
X031703Y014291D02*
X031703Y019338D01*
X032203Y019338D02*
X032203Y018529D01*
X032178Y018504D02*
X032178Y018338D01*
X032578Y018338D01*
X032578Y018339D02*
X032578Y018738D01*
X032413Y018738D01*
X032178Y018504D01*
X032203Y018338D02*
X032203Y018338D01*
X032203Y018148D02*
X032203Y017529D01*
X032178Y017504D02*
X032178Y017338D01*
X032178Y017173D01*
X032413Y016938D01*
X032578Y016938D01*
X032578Y017338D01*
X032178Y017338D01*
X032578Y017338D01*
X032578Y017338D01*
X032578Y017338D01*
X031058Y017338D01*
X032178Y017504D02*
X032413Y017738D01*
X032578Y017738D01*
X032578Y017339D01*
X032578Y017339D01*
X032578Y017738D01*
X032744Y017738D01*
X032978Y017504D01*
X032978Y017338D01*
X032579Y017338D01*
X032579Y017338D01*
X042722Y017338D01*
X042703Y017233D02*
X042703Y019338D01*
X042703Y019838D02*
X042703Y032058D01*
X042203Y032058D02*
X042203Y019838D01*
X041703Y019838D02*
X041703Y032058D01*
X041203Y032058D02*
X041203Y031786D01*
X041151Y031838D02*
X044028Y031838D01*
X044118Y031795D02*
X044420Y031554D01*
X044660Y031253D01*
X044203Y031727D02*
X044203Y019838D01*
X043703Y019838D02*
X043703Y031977D01*
X043771Y031962D02*
X044118Y031795D01*
X043771Y031962D02*
X043396Y032047D01*
X043203Y032058D01*
X043203Y019838D01*
X044923Y020338D02*
X025846Y020338D01*
X025828Y020338D02*
X025953Y020213D01*
X025953Y020088D01*
X025703Y020481D02*
X025703Y021768D01*
X025421Y021838D02*
X024986Y021838D01*
X025203Y022056D02*
X025203Y020481D01*
X025061Y020338D02*
X024132Y020338D01*
X024132Y020838D02*
X044923Y020838D01*
X044923Y021338D02*
X018373Y021338D01*
X018703Y021668D02*
X018703Y019838D01*
X017703Y020668D02*
X017703Y015338D01*
X017203Y015338D02*
X017203Y020891D01*
X017151Y020838D02*
X017256Y020838D01*
X016570Y020668D02*
X016324Y020770D01*
X016203Y020891D01*
X016151Y020838D02*
X016256Y020838D01*
X018151Y021838D02*
X018203Y021891D01*
X019151Y022838D02*
X019256Y022838D01*
X019203Y022786D02*
X019203Y022891D01*
X023986Y022838D02*
X024421Y022838D01*
X024380Y022821D01*
X024220Y022661D01*
X024380Y022855D02*
X024220Y023015D01*
X024203Y023056D01*
X024380Y022855D02*
X024421Y022838D01*
X025453Y020088D02*
X031703Y013838D01*
X032953Y013838D01*
X032953Y013838D01*
X033433Y013838D02*
X034473Y013838D01*
X034703Y014267D02*
X034703Y019338D01*
X035203Y019338D02*
X035203Y014267D01*
X035203Y013409D02*
X035203Y012767D01*
X034703Y012767D02*
X034703Y013409D01*
X033433Y013639D02*
X033433Y014037D01*
X033152Y014318D01*
X032703Y014267D02*
X032703Y016938D01*
X032744Y016938D02*
X032978Y017173D01*
X032978Y017338D01*
X032579Y017338D01*
X032578Y017338D02*
X032578Y016938D01*
X032744Y016938D01*
X032703Y017338D02*
X032703Y017338D01*
X032703Y017738D02*
X032703Y017938D01*
X032703Y018338D02*
X032703Y018338D01*
X032579Y018338D02*
X032978Y018338D01*
X032978Y018504D01*
X032744Y018738D01*
X032578Y018738D01*
X032578Y018339D01*
X032578Y018339D01*
X032703Y018738D02*
X032703Y019338D01*
X032203Y017338D02*
X032203Y017338D01*
X032203Y017148D02*
X032203Y014158D01*
X032203Y013518D02*
X032203Y012283D01*
X031703Y012283D02*
X031703Y013518D01*
X031640Y013518D02*
X032594Y013518D01*
X032754Y013358D01*
X033152Y013358D01*
X033433Y013639D01*
X033203Y013409D02*
X033203Y012654D01*
X033203Y012338D02*
X033203Y012338D01*
X032703Y012338D02*
X032703Y012338D01*
X032703Y012654D02*
X032703Y013409D01*
X031640Y013518D02*
X031522Y013567D01*
X031432Y013657D01*
X029603Y015486D01*
X029603Y015338D01*
X029204Y015338D01*
X028453Y017838D02*
X028453Y017838D01*
X028203Y018267D02*
X028203Y018523D01*
X028288Y018438D02*
X028053Y018673D01*
X028053Y018838D01*
X028453Y018838D01*
X028453Y018838D01*
X028453Y018838D01*
X028453Y018438D01*
X028288Y018438D01*
X028453Y018438D02*
X028453Y018838D01*
X027156Y018838D01*
X027203Y018791D02*
X027203Y019338D01*
X026703Y019338D02*
X026703Y019291D01*
X027703Y019338D02*
X027703Y018291D01*
X027656Y018338D02*
X028723Y018338D01*
X028703Y018267D02*
X028703Y018523D01*
X028619Y018438D02*
X028853Y018673D01*
X028853Y018838D01*
X028454Y018838D01*
X028454Y018838D01*
X044923Y018838D01*
X044703Y016944D02*
X044703Y002514D01*
X044592Y002338D02*
X039101Y002338D01*
X039101Y002301D02*
X039636Y002301D01*
X039636Y002119D01*
X039283Y001766D01*
X039101Y001766D01*
X039101Y002301D01*
X039203Y002301D02*
X039203Y002436D01*
X038966Y002338D02*
X034101Y002338D01*
X034101Y002301D02*
X034101Y002436D01*
X033966Y002436D01*
X033966Y002971D01*
X033784Y002971D01*
X033431Y002618D01*
X033431Y002436D01*
X033966Y002436D01*
X033966Y002301D01*
X033431Y002301D01*
X033431Y002119D01*
X033784Y001766D01*
X033966Y001766D01*
X033966Y002301D01*
X034101Y002301D01*
X034636Y002301D01*
X034636Y002119D01*
X034283Y001766D01*
X034101Y001766D01*
X034101Y002301D01*
X034203Y002301D02*
X034203Y002436D01*
X034101Y002436D02*
X034636Y002436D01*
X034636Y002618D01*
X034283Y002971D01*
X034101Y002971D01*
X034101Y002436D01*
X033966Y002338D02*
X029101Y002338D01*
X029101Y002301D02*
X029101Y002436D01*
X028966Y002436D01*
X028966Y002971D01*
X028784Y002971D01*
X028431Y002618D01*
X028431Y002436D01*
X028966Y002436D01*
X028966Y002301D01*
X028431Y002301D01*
X028431Y002119D01*
X028784Y001766D01*
X028966Y001766D01*
X028966Y002301D01*
X029101Y002301D01*
X029636Y002301D01*
X029636Y002119D01*
X029283Y001766D01*
X029101Y001766D01*
X029101Y002301D01*
X029203Y002301D02*
X029203Y002436D01*
X029101Y002436D02*
X029636Y002436D01*
X029636Y002618D01*
X029283Y002971D01*
X029101Y002971D01*
X029101Y002436D01*
X028966Y002338D02*
X024101Y002338D01*
X024101Y002301D02*
X024101Y002436D01*
X023966Y002436D01*
X023966Y002971D01*
X023784Y002971D01*
X023431Y002618D01*
X023431Y002436D01*
X023966Y002436D01*
X023966Y002301D01*
X023431Y002301D01*
X023431Y002119D01*
X023784Y001766D01*
X023966Y001766D01*
X023966Y002301D01*
X024101Y002301D01*
X024636Y002301D01*
X024636Y002119D01*
X024283Y001766D01*
X024101Y001766D01*
X024101Y002301D01*
X024203Y002301D02*
X024203Y002436D01*
X024101Y002436D02*
X024636Y002436D01*
X024636Y002618D01*
X024283Y002971D01*
X024101Y002971D01*
X024101Y002436D01*
X023966Y002338D02*
X019101Y002338D01*
X019101Y002301D02*
X019101Y002436D01*
X018966Y002436D01*
X018966Y002971D01*
X018784Y002971D01*
X018431Y002618D01*
X018431Y002436D01*
X018966Y002436D01*
X018966Y002301D01*
X018431Y002301D01*
X018431Y002119D01*
X018784Y001766D01*
X018966Y001766D01*
X018966Y002301D01*
X019101Y002301D01*
X019636Y002301D01*
X019636Y002119D01*
X019283Y001766D01*
X019101Y001766D01*
X019101Y002301D01*
X019203Y002301D02*
X019203Y002436D01*
X019101Y002436D02*
X019636Y002436D01*
X019636Y002618D01*
X019283Y002971D01*
X019101Y002971D01*
X019101Y002436D01*
X018966Y002338D02*
X014101Y002338D01*
X014101Y002301D02*
X014101Y002436D01*
X013966Y002436D01*
X013966Y002971D01*
X013784Y002971D01*
X013431Y002618D01*
X013431Y002436D01*
X013966Y002436D01*
X013966Y002301D01*
X013431Y002301D01*
X013431Y002119D01*
X013784Y001766D01*
X013966Y001766D01*
X013966Y002301D01*
X014101Y002301D01*
X014636Y002301D01*
X014636Y002119D01*
X014283Y001766D01*
X014101Y001766D01*
X014101Y002301D01*
X014203Y002301D02*
X014203Y002436D01*
X014101Y002436D02*
X014636Y002436D01*
X014636Y002618D01*
X014283Y002971D01*
X014101Y002971D01*
X014101Y002436D01*
X013966Y002338D02*
X009101Y002338D01*
X009101Y002301D02*
X009101Y002436D01*
X008966Y002436D01*
X008966Y002971D01*
X008784Y002971D01*
X008431Y002618D01*
X008431Y002436D01*
X008966Y002436D01*
X008966Y002301D01*
X008431Y002301D01*
X008431Y002119D01*
X008784Y001766D01*
X008966Y001766D01*
X008966Y002301D01*
X009101Y002301D01*
X009636Y002301D01*
X009636Y002119D01*
X009283Y001766D01*
X009101Y001766D01*
X009101Y002301D01*
X009203Y002301D02*
X009203Y002436D01*
X009101Y002436D02*
X009636Y002436D01*
X009636Y002618D01*
X009283Y002971D01*
X009101Y002971D01*
X009101Y002436D01*
X008966Y002338D02*
X004101Y002338D01*
X004101Y002301D02*
X004101Y002436D01*
X003966Y002436D01*
X003966Y002971D01*
X003784Y002971D01*
X003431Y002618D01*
X003431Y002436D01*
X003966Y002436D01*
X003966Y002301D01*
X003431Y002301D01*
X003431Y002119D01*
X003784Y001766D01*
X003966Y001766D01*
X003966Y002301D01*
X004101Y002301D01*
X004636Y002301D01*
X004636Y002119D01*
X004283Y001766D01*
X004101Y001766D01*
X004101Y002301D01*
X004203Y002301D02*
X004203Y002436D01*
X004101Y002436D02*
X004636Y002436D01*
X004636Y002618D01*
X004283Y002971D01*
X004101Y002971D01*
X004101Y002436D01*
X003966Y002338D02*
X001315Y002338D01*
X001203Y002514D02*
X001203Y014838D01*
X001203Y015338D02*
X001203Y031163D01*
X001247Y031253D02*
X001080Y030906D01*
X000994Y030531D01*
X000983Y030338D01*
X001064Y030838D02*
X002256Y030838D01*
X002203Y030786D02*
X002203Y030891D01*
X002033Y031338D02*
X001315Y031338D01*
X001247Y031253D02*
X001487Y031554D01*
X001788Y031795D01*
X002135Y031962D01*
X002511Y032047D01*
X002703Y032058D01*
X002748Y032058D01*
X002759Y032058D01*
X043203Y032058D01*
X040703Y032008D02*
X040703Y032058D01*
X040256Y031838D02*
X040151Y031838D01*
X040203Y031786D02*
X040203Y032058D01*
X039703Y032058D02*
X039703Y032008D01*
X039256Y031838D02*
X039151Y031838D01*
X039203Y031786D02*
X039203Y032058D01*
X038703Y032058D02*
X038703Y032008D01*
X038256Y031838D02*
X038151Y031838D01*
X038203Y031786D02*
X038203Y032058D01*
X037703Y032058D02*
X037703Y032008D01*
X037256Y031838D02*
X037151Y031838D01*
X037203Y031786D02*
X037203Y032058D01*
X036703Y032058D02*
X036703Y032008D01*
X036256Y031838D02*
X036151Y031838D01*
X036203Y031786D02*
X036203Y032058D01*
X035703Y032058D02*
X035703Y032008D01*
X035256Y031838D02*
X035151Y031838D01*
X035203Y031786D02*
X035203Y032058D01*
X034703Y032058D02*
X034703Y032008D01*
X034256Y031838D02*
X034151Y031838D01*
X034203Y031786D02*
X034203Y032058D01*
X033703Y032058D02*
X033703Y032008D01*
X033256Y031838D02*
X033151Y031838D01*
X033203Y031786D02*
X033203Y032058D01*
X032703Y032058D02*
X032703Y032008D01*
X032256Y031838D02*
X032151Y031838D01*
X032203Y031786D02*
X032203Y032058D01*
X031703Y032058D02*
X031703Y032008D01*
X031256Y031838D02*
X031151Y031838D01*
X031203Y031786D02*
X031203Y032058D01*
X030703Y032058D02*
X030703Y032008D01*
X030256Y031838D02*
X030151Y031838D01*
X030203Y031786D02*
X030203Y032058D01*
X029703Y032058D02*
X029703Y032008D01*
X029256Y031838D02*
X029151Y031838D01*
X029203Y031786D02*
X029203Y032058D01*
X028703Y032058D02*
X028703Y032008D01*
X028256Y031838D02*
X010151Y031838D01*
X010203Y031786D02*
X010203Y032058D01*
X009703Y032058D02*
X009703Y032008D01*
X009256Y031838D02*
X009151Y031838D01*
X009203Y031786D02*
X009203Y032058D01*
X008703Y032058D02*
X008703Y032008D01*
X008256Y031838D02*
X008151Y031838D01*
X008203Y031786D02*
X008203Y032058D01*
X007703Y032058D02*
X007703Y032008D01*
X007256Y031838D02*
X007151Y031838D01*
X007203Y031786D02*
X007203Y032058D01*
X006703Y032058D02*
X006703Y032008D01*
X006256Y031838D02*
X006151Y031838D01*
X006203Y031786D02*
X006203Y032058D01*
X005703Y032058D02*
X005703Y032008D01*
X004703Y032008D02*
X004703Y032058D01*
X004256Y031838D02*
X004151Y031838D01*
X004203Y031786D02*
X004203Y032058D01*
X003703Y032058D02*
X003703Y032008D01*
X003256Y031838D02*
X003151Y031838D01*
X003203Y031786D02*
X003203Y032058D01*
X002703Y032058D02*
X002703Y032008D01*
X002256Y031838D02*
X001879Y031838D01*
X001703Y031727D02*
X001703Y015338D01*
X001703Y014838D02*
X001703Y011767D01*
X001754Y011818D02*
X001473Y011537D01*
X001473Y011139D01*
X001633Y010979D01*
X001633Y010447D01*
X001473Y010287D01*
X001473Y009889D01*
X001633Y009729D01*
X001633Y009197D01*
X001473Y009037D01*
X001473Y008639D01*
X001754Y008358D01*
X001981Y008358D01*
X002473Y007866D01*
X002473Y007639D01*
X002754Y007358D01*
X003152Y007358D01*
X003433Y007639D01*
X003433Y008037D01*
X003152Y008318D01*
X002926Y008318D01*
X002433Y008811D01*
X002433Y009037D01*
X002273Y009197D01*
X002273Y009729D01*
X002433Y009889D01*
X002433Y010287D01*
X002273Y010447D01*
X002273Y010979D01*
X002433Y011139D01*
X002433Y011537D01*
X002152Y011818D01*
X001754Y011818D01*
X002203Y011767D02*
X002203Y014838D01*
X002203Y015338D02*
X002203Y020891D01*
X002256Y020838D02*
X000983Y020838D01*
X000983Y021338D02*
X002033Y021338D01*
X002033Y021205D02*
X002135Y020959D01*
X002324Y020770D01*
X002570Y020668D01*
X002837Y020668D01*
X003083Y020770D01*
X003203Y020891D01*
X003203Y015338D01*
X002703Y015338D02*
X002703Y020668D01*
X003151Y020838D02*
X003256Y020838D01*
X003203Y020891D02*
X003324Y020770D01*
X003570Y020668D01*
X003837Y020668D01*
X004083Y020770D01*
X004203Y020891D01*
X004324Y020770D01*
X004570Y020668D01*
X004837Y020668D01*
X005083Y020770D01*
X005203Y020891D01*
X005203Y015338D01*
X004703Y015338D02*
X004703Y020668D01*
X004256Y020838D02*
X004151Y020838D01*
X004203Y020891D02*
X004203Y015338D01*
X003703Y015338D02*
X003703Y020668D01*
X005151Y020838D02*
X005256Y020838D01*
X005203Y020891D02*
X005324Y020770D01*
X005570Y020668D01*
X005837Y020668D01*
X006083Y020770D01*
X006203Y020891D01*
X006324Y020770D01*
X006570Y020668D01*
X006837Y020668D01*
X007083Y020770D01*
X007203Y020891D01*
X007324Y020770D01*
X007570Y020668D01*
X007837Y020668D01*
X008083Y020770D01*
X008203Y020891D01*
X008324Y020770D01*
X008570Y020668D01*
X008256Y020838D02*
X008151Y020838D01*
X008203Y020891D02*
X008203Y018098D01*
X008248Y018098D02*
X008248Y018098D01*
X008125Y018098D02*
X008125Y018098D01*
X008481Y018098D02*
X008481Y018098D01*
X007703Y017903D02*
X007703Y020668D01*
X007256Y020838D02*
X007151Y020838D01*
X007203Y020891D02*
X007203Y015338D01*
X006703Y015338D02*
X006703Y020668D01*
X006256Y020838D02*
X006151Y020838D01*
X006203Y020891D02*
X006203Y015338D01*
X005703Y015338D02*
X005703Y020668D01*
X009151Y020838D02*
X009256Y020838D01*
X009203Y020891D02*
X009203Y017549D01*
X009267Y017439D02*
X009267Y017439D01*
X009285Y017338D02*
X018203Y017338D01*
X019433Y018338D02*
X019473Y018338D01*
X021773Y016338D02*
X024133Y016338D01*
X022473Y015338D02*
X022433Y015338D01*
X021133Y014338D02*
X020406Y014338D01*
X020203Y014136D02*
X020203Y014017D01*
X020382Y013838D02*
X020388Y013838D01*
X020703Y013838D02*
X020703Y013838D01*
X020703Y013988D02*
X020703Y013589D01*
X020703Y013589D01*
X020703Y014636D01*
X020703Y013988D02*
X020703Y013589D01*
X020703Y013588D02*
X020703Y013188D01*
X021019Y013338D02*
X021133Y013338D01*
X021133Y012838D02*
X018906Y012838D01*
X018963Y012541D02*
X018963Y012135D01*
X019250Y011848D01*
X019656Y011848D01*
X019943Y012135D01*
X019943Y012541D01*
X019656Y012828D01*
X019250Y012828D01*
X018963Y012541D01*
X018943Y012338D02*
X018963Y012338D01*
X019203Y011895D02*
X019203Y008916D01*
X019126Y008838D02*
X018023Y008838D01*
X018023Y008338D02*
X018626Y008338D01*
X018703Y008416D02*
X018703Y011895D01*
X018203Y011895D02*
X018203Y007916D01*
X017703Y007838D02*
X017703Y009338D01*
X016953Y010088D01*
X016953Y011188D01*
X016703Y011617D02*
X016703Y011895D01*
X016203Y011895D02*
X016203Y011579D01*
X016433Y011338D02*
X016473Y011338D01*
X015953Y011151D02*
X012891Y011151D01*
X011953Y012088D01*
X012828Y012963D01*
X018578Y012963D01*
X020953Y015338D01*
X020473Y015338D02*
X020433Y015338D01*
X019803Y014641D02*
X018446Y013283D01*
X018214Y013283D01*
X018353Y013423D01*
X018353Y013588D01*
X017954Y013588D01*
X017954Y013588D01*
X018353Y013588D01*
X018353Y013754D01*
X018119Y013988D01*
X017953Y013988D01*
X017788Y013988D01*
X017553Y013754D01*
X017553Y013588D01*
X017553Y013423D01*
X017693Y013283D01*
X012892Y013283D01*
X012765Y013283D01*
X012647Y013235D01*
X011981Y012568D01*
X011886Y012568D01*
X013336Y014018D01*
X019017Y014018D01*
X019135Y014067D01*
X019225Y014157D01*
X019736Y014669D01*
X019803Y014641D01*
X019703Y014636D02*
X019703Y014541D01*
X019501Y014338D02*
X019406Y014338D01*
X019203Y014136D02*
X019203Y014041D01*
X019001Y013838D02*
X018269Y013838D01*
X018203Y013904D02*
X018203Y014018D01*
X017953Y013988D02*
X017953Y013589D01*
X017953Y013988D01*
X017953Y013838D02*
X017953Y013838D01*
X017953Y013589D02*
X017953Y013589D01*
X017953Y013588D02*
X017953Y013588D01*
X017553Y013588D01*
X017953Y013588D01*
X017703Y013588D02*
X017703Y013588D01*
X017638Y013338D02*
X012656Y013338D01*
X012703Y013386D02*
X012703Y013258D01*
X013203Y013283D02*
X013203Y013886D01*
X013156Y013838D02*
X017638Y013838D01*
X017703Y013904D02*
X017703Y014018D01*
X017203Y014018D02*
X017203Y013283D01*
X016703Y013283D02*
X016703Y014018D01*
X016203Y014018D02*
X016203Y013283D01*
X015703Y013283D02*
X015703Y014018D01*
X015203Y014018D02*
X015203Y013283D01*
X014703Y013283D02*
X014703Y014018D01*
X014203Y014018D02*
X014203Y013283D01*
X013703Y013283D02*
X013703Y014018D01*
X013703Y014658D02*
X013703Y014838D01*
X013203Y014838D02*
X013203Y014658D01*
X012703Y014838D02*
X012703Y014291D01*
X012751Y014338D02*
X012269Y014338D01*
X012203Y014404D02*
X012203Y014838D01*
X011953Y014488D02*
X011953Y014089D01*
X011953Y014488D01*
X011953Y014338D02*
X011953Y014338D01*
X011953Y014089D02*
X011953Y014089D01*
X011703Y014088D02*
X011703Y014088D01*
X011638Y013838D02*
X000983Y013838D01*
X000983Y014338D02*
X011638Y014338D01*
X011703Y014404D02*
X011703Y014838D01*
X011203Y014838D02*
X011203Y012791D01*
X011251Y012838D02*
X010132Y012838D01*
X010203Y012783D02*
X010203Y014838D01*
X009703Y014838D02*
X009703Y012943D01*
X009525Y012838D02*
X008019Y012838D01*
X007994Y012863D02*
X007828Y012863D01*
X007663Y012863D01*
X007428Y012629D01*
X007428Y012463D01*
X007428Y012298D01*
X007663Y012063D01*
X007828Y012063D01*
X007828Y012463D01*
X007428Y012463D01*
X007828Y012463D01*
X007828Y012463D01*
X007828Y012463D01*
X007828Y012063D01*
X007994Y012063D01*
X008228Y012298D01*
X008228Y012463D01*
X007829Y012463D01*
X007829Y012463D01*
X008228Y012463D01*
X008228Y012629D01*
X007994Y012863D01*
X007828Y012863D02*
X007828Y012464D01*
X007828Y012863D01*
X007828Y012838D02*
X007828Y012838D01*
X007703Y012863D02*
X007703Y014838D01*
X007203Y014838D02*
X007203Y011767D01*
X007152Y011818D02*
X006754Y011818D01*
X006473Y011537D01*
X006473Y011139D01*
X006754Y010858D01*
X007152Y010858D01*
X007433Y011139D01*
X007433Y011537D01*
X007152Y011818D01*
X006703Y011767D02*
X006703Y014838D01*
X006203Y014838D02*
X006203Y011767D01*
X006152Y011818D02*
X005754Y011818D01*
X005473Y011537D01*
X005473Y011139D01*
X005754Y010858D01*
X006152Y010858D01*
X006433Y011139D01*
X006433Y011537D01*
X006152Y011818D01*
X005703Y011767D02*
X005703Y014838D01*
X005203Y014838D02*
X005203Y012767D01*
X005132Y012838D02*
X007638Y012838D01*
X008203Y012654D02*
X008203Y014838D01*
X008703Y014838D02*
X008703Y008041D01*
X008501Y007838D02*
X008433Y007838D01*
X007953Y007838D02*
X006953Y008838D01*
X006953Y010088D01*
X006524Y009838D02*
X006269Y009838D01*
X006203Y009773D02*
X006203Y009267D01*
X006119Y009688D02*
X006353Y009923D01*
X006353Y010088D01*
X005954Y010088D01*
X005954Y010088D01*
X006353Y010088D01*
X006353Y010254D01*
X006119Y010488D01*
X005953Y010488D01*
X005788Y010488D01*
X005553Y010254D01*
X005553Y010088D01*
X005553Y009923D01*
X005788Y009688D01*
X005953Y009688D01*
X005953Y010088D01*
X005553Y010088D01*
X005953Y010088D01*
X005953Y010088D01*
X005953Y010088D01*
X005953Y009688D01*
X006119Y009688D01*
X005953Y009838D02*
X005953Y009838D01*
X005953Y010089D02*
X005953Y010488D01*
X005953Y010089D01*
X005953Y010089D01*
X005953Y010338D02*
X005953Y010338D01*
X005703Y010404D02*
X005703Y010909D01*
X005473Y011338D02*
X002433Y011338D01*
X001953Y011338D02*
X001953Y010088D01*
X001953Y008838D01*
X002953Y007838D01*
X002473Y007838D02*
X000983Y007838D01*
X000983Y007338D02*
X007001Y007338D01*
X007203Y007136D02*
X007203Y006122D01*
X007403Y005838D02*
X007023Y005458D01*
X003583Y005458D01*
X003203Y005838D01*
X002453Y005838D01*
X002073Y005458D01*
X002023Y005458D01*
X001442Y005838D02*
X000983Y005838D01*
X000983Y005338D02*
X001341Y005338D01*
X000983Y004838D02*
X001737Y004838D01*
X002203Y004794D02*
X002203Y001699D01*
X002135Y001715D02*
X001788Y001882D01*
X001879Y001838D02*
X003711Y001838D01*
X003703Y001846D02*
X003703Y001618D01*
X003966Y001838D02*
X004101Y001838D01*
X004203Y001766D02*
X004203Y001618D01*
X004355Y001838D02*
X008711Y001838D01*
X008703Y001846D02*
X008703Y001618D01*
X008966Y001838D02*
X009101Y001838D01*
X009203Y001766D02*
X009203Y001618D01*
X009355Y001838D02*
X013711Y001838D01*
X013703Y001846D02*
X013703Y001618D01*
X013966Y001838D02*
X014101Y001838D01*
X014203Y001766D02*
X014203Y001618D01*
X014355Y001838D02*
X018711Y001838D01*
X018703Y001846D02*
X018703Y001618D01*
X018966Y001838D02*
X019101Y001838D01*
X019203Y001766D02*
X019203Y001618D01*
X019355Y001838D02*
X023711Y001838D01*
X023703Y001846D02*
X023703Y001618D01*
X023966Y001838D02*
X024101Y001838D01*
X024203Y001766D02*
X024203Y001618D01*
X024355Y001838D02*
X028711Y001838D01*
X028703Y001846D02*
X028703Y001618D01*
X028966Y001838D02*
X029101Y001838D01*
X029203Y001766D02*
X029203Y001618D01*
X029355Y001838D02*
X033711Y001838D01*
X033703Y001846D02*
X033703Y001618D01*
X033966Y001838D02*
X034101Y001838D01*
X034203Y001766D02*
X034203Y001618D01*
X034355Y001838D02*
X038711Y001838D01*
X038703Y001846D02*
X038703Y001618D01*
X038966Y001838D02*
X039101Y001838D01*
X039203Y001766D02*
X039203Y001618D01*
X038703Y002301D02*
X038703Y002436D01*
X038651Y002838D02*
X034415Y002838D01*
X034203Y002971D02*
X034203Y005138D01*
X033703Y005138D02*
X033703Y002890D01*
X033651Y002838D02*
X029415Y002838D01*
X029203Y002971D02*
X029203Y005138D01*
X028703Y005138D02*
X028703Y002890D01*
X028651Y002838D02*
X024415Y002838D01*
X024203Y002971D02*
X024203Y005138D01*
X023703Y005138D02*
X023703Y002890D01*
X023651Y002838D02*
X019415Y002838D01*
X019203Y002971D02*
X019203Y005138D01*
X018703Y005138D02*
X018703Y002890D01*
X018651Y002838D02*
X014415Y002838D01*
X014203Y002971D02*
X014203Y005138D01*
X014703Y005138D02*
X014703Y001618D01*
X015203Y001618D02*
X015203Y003363D01*
X015201Y003366D02*
X015601Y002966D01*
X016166Y002966D01*
X016566Y003366D01*
X016566Y003931D01*
X016166Y004331D01*
X015601Y004331D01*
X015201Y003931D01*
X015201Y003366D01*
X015228Y003338D02*
X011539Y003338D01*
X011566Y003366D02*
X011166Y002966D01*
X010601Y002966D01*
X010201Y003366D01*
X010201Y003931D01*
X010601Y004331D01*
X011166Y004331D01*
X011566Y003931D01*
X011566Y003366D01*
X011566Y003838D02*
X015201Y003838D01*
X015203Y003933D02*
X015203Y005138D01*
X015703Y005138D02*
X015703Y004331D01*
X016203Y004293D02*
X016203Y005138D01*
X016703Y004852D02*
X016703Y001618D01*
X016203Y001618D02*
X016203Y003003D01*
X016539Y003338D02*
X020228Y003338D01*
X020203Y003363D02*
X020203Y001618D01*
X019703Y001618D02*
X019703Y005138D01*
X020203Y005138D02*
X020203Y003933D01*
X020201Y003931D02*
X020201Y003366D01*
X020601Y002966D01*
X021166Y002966D01*
X021566Y003366D01*
X021566Y003931D01*
X021166Y004331D01*
X020601Y004331D01*
X020201Y003931D01*
X020201Y003838D02*
X016566Y003838D01*
X017618Y004338D02*
X013409Y004338D01*
X013203Y004248D02*
X013203Y001618D01*
X012703Y001618D02*
X012703Y004298D01*
X012618Y004338D02*
X008409Y004338D01*
X008203Y004248D02*
X008203Y001618D01*
X007703Y001618D02*
X007703Y004298D01*
X007618Y004338D02*
X003409Y004338D01*
X003203Y004248D02*
X003203Y001618D01*
X002703Y001618D02*
X002703Y004298D01*
X002618Y004338D02*
X000983Y004338D01*
X000983Y003838D02*
X005201Y003838D01*
X005201Y003931D02*
X005201Y003366D01*
X005601Y002966D01*
X006166Y002966D01*
X006566Y003366D01*
X006566Y003931D01*
X006166Y004331D01*
X005601Y004331D01*
X005201Y003931D01*
X005203Y003933D02*
X005203Y005138D01*
X004703Y005138D02*
X004703Y001618D01*
X005203Y001618D02*
X005203Y003363D01*
X005228Y003338D02*
X000983Y003338D01*
X001064Y002838D02*
X003651Y002838D01*
X003703Y002890D02*
X003703Y005138D01*
X003696Y004838D02*
X006737Y004838D01*
X006703Y004852D02*
X006703Y001618D01*
X006203Y001618D02*
X006203Y003003D01*
X006539Y003338D02*
X010228Y003338D01*
X010203Y003363D02*
X010203Y001618D01*
X009703Y001618D02*
X009703Y005138D01*
X009203Y005138D02*
X009203Y002971D01*
X009101Y002838D02*
X008966Y002838D01*
X008703Y002890D02*
X008703Y005138D01*
X008696Y004838D02*
X011737Y004838D01*
X011703Y004852D02*
X011703Y001618D01*
X011203Y001618D02*
X011203Y003003D01*
X010703Y002966D02*
X010703Y001618D01*
X012203Y001618D02*
X012203Y004794D01*
X012310Y004838D02*
X012331Y004838D01*
X012023Y005458D02*
X012403Y005838D01*
X013203Y005838D01*
X013583Y005458D01*
X017023Y005458D01*
X017403Y005838D01*
X018203Y005838D01*
X018583Y005458D01*
X022023Y005458D01*
X022403Y005838D01*
X023203Y005838D01*
X023583Y005458D01*
X027023Y005458D01*
X027403Y005838D01*
X028203Y005838D01*
X028583Y005458D01*
X032023Y005458D01*
X032403Y005838D01*
X033203Y005838D01*
X033583Y005458D01*
X037023Y005458D01*
X036203Y005138D02*
X036203Y004293D01*
X036166Y004331D02*
X035601Y004331D01*
X035201Y003931D01*
X035201Y003366D01*
X035601Y002966D01*
X036166Y002966D01*
X036566Y003366D01*
X036566Y003931D01*
X036166Y004331D01*
X035703Y004331D02*
X035703Y005138D01*
X035203Y005138D02*
X035203Y003933D01*
X035201Y003838D02*
X031566Y003838D01*
X031566Y003931D02*
X031166Y004331D01*
X030601Y004331D01*
X030201Y003931D01*
X030201Y003366D01*
X030601Y002966D01*
X031166Y002966D01*
X031566Y003366D01*
X031566Y003931D01*
X031539Y003338D02*
X035228Y003338D01*
X035203Y003363D02*
X035203Y001618D01*
X034703Y001618D02*
X034703Y005138D01*
X034703Y005778D02*
X034703Y007409D01*
X034473Y007838D02*
X034406Y007838D01*
X034203Y007636D02*
X034203Y005778D01*
X034991Y006316D02*
X035391Y005916D01*
X035956Y005916D01*
X036356Y006316D01*
X036356Y006881D01*
X035956Y007281D01*
X035391Y007281D01*
X034991Y006881D01*
X034991Y006316D01*
X034991Y006338D02*
X031356Y006338D01*
X031356Y006316D02*
X030956Y005916D01*
X030391Y005916D01*
X029991Y006316D01*
X029991Y006881D01*
X030391Y007281D01*
X030956Y007281D01*
X031356Y006881D01*
X031356Y006316D01*
X031203Y006163D02*
X031203Y005778D01*
X031442Y005838D02*
X028656Y005838D01*
X028703Y005791D02*
X028703Y007136D01*
X028906Y007338D02*
X032001Y007338D01*
X032203Y007136D02*
X032203Y006122D01*
X032703Y006158D02*
X032703Y006893D01*
X033203Y006893D02*
X033203Y006158D01*
X031703Y006064D02*
X031703Y007636D01*
X031501Y007838D02*
X030433Y007838D01*
X030203Y007409D02*
X030203Y007093D01*
X029991Y006838D02*
X026356Y006838D01*
X026356Y006881D02*
X025956Y007281D01*
X025391Y007281D01*
X024991Y006881D01*
X024991Y006316D01*
X025391Y005916D01*
X025956Y005916D01*
X026356Y006316D01*
X026356Y006881D01*
X026203Y007033D02*
X026203Y008136D01*
X026001Y008338D02*
X025161Y008338D01*
X025203Y008318D02*
X025203Y008386D01*
X025703Y008409D02*
X025703Y007281D01*
X025203Y007358D02*
X025203Y007093D01*
X024991Y006838D02*
X021356Y006838D01*
X021203Y007033D02*
X021203Y008409D01*
X021433Y008838D02*
X021473Y008838D01*
X021953Y008838D02*
X021953Y010088D01*
X021953Y011188D01*
X021133Y011838D02*
X012656Y011838D01*
X012703Y011791D02*
X012703Y012386D01*
X012656Y012338D02*
X012963Y012338D01*
X013203Y011895D02*
X013203Y011471D01*
X013703Y011471D02*
X013703Y011895D01*
X013943Y012338D02*
X013963Y012338D01*
X014203Y011895D02*
X014203Y011471D01*
X014703Y011471D02*
X014703Y011895D01*
X015203Y011895D02*
X015203Y011471D01*
X015703Y011580D02*
X015703Y011895D01*
X015943Y012338D02*
X015963Y012338D01*
X014963Y012338D02*
X014943Y012338D01*
X014703Y010831D02*
X014703Y009158D01*
X014203Y009158D02*
X014203Y010831D01*
X013703Y010831D02*
X013703Y009158D01*
X013203Y009158D02*
X013203Y010831D01*
X012809Y010838D02*
X012320Y010838D01*
X012203Y010722D02*
X012203Y010517D01*
X012152Y010568D02*
X011754Y010568D01*
X011473Y010287D01*
X011473Y009889D01*
X011754Y009608D01*
X012152Y009608D01*
X012433Y009889D01*
X012433Y010287D01*
X012152Y010568D01*
X012382Y010338D02*
X015638Y010338D01*
X015703Y010404D02*
X015703Y010722D01*
X015788Y010488D02*
X015553Y010254D01*
X015553Y010088D01*
X015553Y009923D01*
X015788Y009688D01*
X015953Y009688D01*
X015953Y010088D01*
X015553Y010088D01*
X015953Y010088D01*
X015953Y010088D01*
X015953Y010088D01*
X015953Y009688D01*
X016119Y009688D01*
X016353Y009923D01*
X016353Y010088D01*
X015954Y010088D01*
X015954Y010088D01*
X016353Y010088D01*
X016353Y010254D01*
X016119Y010488D01*
X015953Y010488D01*
X015788Y010488D01*
X015953Y010488D02*
X015953Y010089D01*
X015953Y010089D01*
X015953Y010488D01*
X015953Y010338D02*
X015953Y010338D01*
X016203Y010404D02*
X016203Y010722D01*
X016320Y010838D02*
X016624Y010838D01*
X016525Y010338D02*
X016269Y010338D01*
X016203Y010088D02*
X016203Y010088D01*
X016269Y009838D02*
X016524Y009838D01*
X016203Y009773D02*
X016203Y009267D01*
X016633Y009338D02*
X007273Y009338D01*
X007382Y009838D02*
X010638Y009838D01*
X010703Y009773D02*
X010703Y009267D01*
X010788Y009688D02*
X010953Y009688D01*
X010953Y010088D01*
X010553Y010088D01*
X010553Y009923D01*
X010788Y009688D01*
X010953Y009688D02*
X011119Y009688D01*
X011353Y009923D01*
X011353Y010088D01*
X010954Y010088D01*
X010954Y010088D01*
X011353Y010088D01*
X011353Y010254D01*
X011119Y010488D01*
X010953Y010488D01*
X010788Y010488D01*
X010553Y010254D01*
X010553Y010088D01*
X010953Y010088D01*
X010953Y010088D01*
X010953Y010088D01*
X010953Y009688D01*
X010953Y009838D02*
X010953Y009838D01*
X010953Y010089D02*
X010953Y010488D01*
X010953Y010089D01*
X010953Y010089D01*
X010953Y010338D02*
X010953Y010338D01*
X010703Y010404D02*
X010703Y010909D01*
X010754Y010858D02*
X011152Y010858D01*
X011433Y011139D01*
X011433Y011537D01*
X011152Y011818D01*
X010754Y011818D01*
X010473Y011537D01*
X010473Y011139D01*
X010754Y010858D01*
X011203Y010909D02*
X011203Y010404D01*
X011269Y010338D02*
X011525Y010338D01*
X011703Y010517D02*
X011703Y010722D01*
X011587Y010838D02*
X002273Y010838D01*
X002382Y010338D02*
X005638Y010338D01*
X005703Y010088D02*
X005703Y010088D01*
X005638Y009838D02*
X002382Y009838D01*
X002273Y009338D02*
X006633Y009338D01*
X006473Y008838D02*
X006433Y008838D01*
X005953Y008838D02*
X007578Y007213D01*
X008328Y007213D01*
X009953Y008838D01*
X009703Y009041D02*
X009703Y011983D01*
X009348Y012338D02*
X008228Y012338D01*
X008203Y012273D02*
X008203Y008267D01*
X007906Y008338D02*
X009001Y008338D01*
X009203Y008541D02*
X009203Y014838D01*
X009703Y015338D02*
X009703Y020668D01*
X010151Y020838D02*
X010256Y020838D01*
X010203Y020891D02*
X010203Y015338D01*
X010703Y015338D02*
X010703Y020668D01*
X011151Y020838D02*
X011256Y020838D01*
X011203Y020891D02*
X011203Y015338D01*
X011703Y015338D02*
X011703Y020668D01*
X012151Y020838D02*
X012256Y020838D01*
X012203Y020891D02*
X012203Y015338D01*
X012703Y015338D02*
X012703Y020668D01*
X013151Y020838D02*
X013256Y020838D01*
X013203Y020891D02*
X013203Y015338D01*
X013703Y015338D02*
X013703Y020668D01*
X007278Y017088D02*
X007278Y017088D01*
X004703Y014838D02*
X004703Y012943D01*
X004629Y012943D02*
X004348Y012662D01*
X004348Y012264D01*
X004629Y011983D01*
X005027Y011983D01*
X005308Y012264D01*
X005308Y012662D01*
X005027Y012943D01*
X004629Y012943D01*
X004525Y012838D02*
X003019Y012838D01*
X002994Y012863D02*
X002828Y012863D01*
X002663Y012863D01*
X002428Y012629D01*
X002428Y012463D01*
X002428Y012298D01*
X002663Y012063D01*
X002828Y012063D01*
X002828Y012463D01*
X002428Y012463D01*
X002828Y012463D01*
X002828Y012463D01*
X002828Y012463D01*
X002828Y012063D01*
X002994Y012063D01*
X003228Y012298D01*
X003228Y012463D01*
X002829Y012463D01*
X002829Y012463D01*
X003228Y012463D01*
X003228Y012629D01*
X002994Y012863D01*
X002828Y012863D02*
X002828Y012464D01*
X002828Y012863D01*
X002828Y012838D02*
X002828Y012838D01*
X002703Y012863D02*
X002703Y014838D01*
X003203Y014838D02*
X003203Y012654D01*
X003203Y012463D02*
X003203Y012463D01*
X003228Y012338D02*
X004348Y012338D01*
X004703Y011983D02*
X004703Y008267D01*
X004754Y008318D02*
X004473Y008037D01*
X004473Y007639D01*
X004754Y007358D01*
X005152Y007358D01*
X005433Y007639D01*
X005433Y008037D01*
X005152Y008318D01*
X004754Y008318D01*
X005203Y008267D02*
X005203Y012159D01*
X005308Y012338D02*
X007428Y012338D01*
X007703Y012463D02*
X007703Y012463D01*
X007828Y012464D02*
X007828Y012464D01*
X007828Y012338D02*
X007828Y012338D01*
X007703Y012063D02*
X007703Y008541D01*
X007433Y008838D02*
X009501Y008838D01*
X009906Y008338D02*
X011001Y008338D01*
X011203Y008136D02*
X011203Y007033D01*
X011356Y006881D02*
X010956Y007281D01*
X010391Y007281D01*
X009991Y006881D01*
X009991Y006316D01*
X010391Y005916D01*
X010956Y005916D01*
X011356Y006316D01*
X011356Y006881D01*
X011356Y006838D02*
X014991Y006838D01*
X014991Y006881D02*
X014991Y006316D01*
X015391Y005916D01*
X015956Y005916D01*
X016356Y006316D01*
X016356Y006881D01*
X015956Y007281D01*
X015391Y007281D01*
X014991Y006881D01*
X015203Y007093D02*
X015203Y007422D01*
X015140Y007358D02*
X015421Y007639D01*
X015421Y008037D01*
X015140Y008318D01*
X014742Y008318D01*
X014461Y008037D01*
X014461Y007639D01*
X014742Y007358D01*
X015140Y007358D01*
X014703Y007397D02*
X014703Y005778D01*
X014203Y005778D02*
X014203Y008518D01*
X014703Y008518D02*
X014703Y008280D01*
X015203Y008255D02*
X015203Y008518D01*
X015633Y008338D02*
X012906Y008338D01*
X013203Y008255D02*
X013203Y008518D01*
X013703Y008518D02*
X013703Y005791D01*
X013656Y005838D02*
X016442Y005838D01*
X016203Y005778D02*
X016203Y006163D01*
X016356Y006338D02*
X019991Y006338D01*
X020203Y006103D02*
X020203Y005778D01*
X019703Y005778D02*
X019703Y007358D01*
X019223Y007838D02*
X019031Y007838D01*
X019203Y008011D02*
X019203Y005778D01*
X018703Y005791D02*
X018703Y007511D01*
X018531Y007338D02*
X027001Y007338D01*
X027203Y007136D02*
X027203Y006122D01*
X027703Y006158D02*
X027703Y006893D01*
X028203Y006893D02*
X028203Y006158D01*
X029203Y005778D02*
X029203Y007636D01*
X029406Y007838D02*
X029473Y007838D01*
X029703Y007409D02*
X029703Y005778D01*
X030203Y005778D02*
X030203Y006103D01*
X029991Y006338D02*
X026356Y006338D01*
X026203Y006163D02*
X026203Y005778D01*
X026442Y005838D02*
X023656Y005838D01*
X023203Y006158D02*
X023203Y007358D01*
X023683Y007838D02*
X024723Y007838D01*
X024703Y007880D02*
X024703Y005778D01*
X025203Y005778D02*
X025203Y006103D01*
X024991Y006338D02*
X021356Y006338D01*
X021203Y006163D02*
X021203Y005778D01*
X021442Y005838D02*
X018656Y005838D01*
X018203Y006158D02*
X018203Y007011D01*
X017703Y006893D02*
X017703Y006158D01*
X017203Y006122D02*
X017203Y006893D01*
X016703Y006919D02*
X016703Y006064D01*
X016356Y006838D02*
X019991Y006838D01*
X020703Y007281D02*
X020703Y008409D01*
X020203Y009158D02*
X020203Y011895D01*
X019703Y011895D02*
X019703Y009158D01*
X020703Y009267D02*
X020703Y009773D01*
X020638Y009838D02*
X017656Y009838D01*
X017703Y009791D02*
X017703Y011895D01*
X017203Y011895D02*
X017203Y011617D01*
X017433Y011338D02*
X020473Y011338D01*
X020703Y011617D02*
X020703Y011895D01*
X020943Y012338D02*
X021133Y012338D01*
X019963Y012338D02*
X019943Y012338D01*
X019703Y012781D02*
X019703Y013159D01*
X019524Y013338D02*
X019406Y013338D01*
X019203Y013136D02*
X019203Y012781D01*
X018501Y013338D02*
X018269Y013338D01*
X018203Y013588D02*
X018203Y013588D01*
X018703Y013541D02*
X018703Y014018D01*
X018703Y014658D02*
X018703Y014682D01*
X018203Y014658D02*
X018203Y014838D01*
X017703Y014838D02*
X017703Y014658D01*
X017203Y014658D02*
X017203Y014838D01*
X018203Y015338D02*
X000983Y015338D01*
X000983Y013338D02*
X011751Y013338D01*
X011703Y013291D02*
X011703Y013773D01*
X011953Y013838D02*
X011953Y013838D01*
X012203Y014088D02*
X012203Y014088D01*
X012203Y012886D02*
X012203Y012791D01*
X012156Y012838D02*
X012251Y012838D01*
X011203Y012143D02*
X011203Y011767D01*
X011524Y011838D02*
X000983Y011838D01*
X000983Y011338D02*
X001473Y011338D01*
X001633Y010838D02*
X000983Y010838D01*
X000983Y010338D02*
X001525Y010338D01*
X001524Y009838D02*
X000983Y009838D01*
X000983Y009338D02*
X001633Y009338D01*
X001473Y008838D02*
X000983Y008838D01*
X000983Y008338D02*
X002001Y008338D01*
X002203Y008136D02*
X002203Y006122D01*
X002703Y006158D02*
X002703Y007409D01*
X003203Y007409D02*
X003203Y006158D01*
X003656Y005838D02*
X006442Y005838D01*
X006203Y005778D02*
X006203Y006163D01*
X006356Y006316D02*
X005956Y005916D01*
X005391Y005916D01*
X004991Y006316D01*
X004991Y006881D01*
X005391Y007281D01*
X005956Y007281D01*
X006356Y006881D01*
X006356Y006316D01*
X006356Y006338D02*
X009991Y006338D01*
X010203Y006103D02*
X010203Y005778D01*
X009703Y005778D02*
X009703Y007409D01*
X009473Y007838D02*
X009406Y007838D01*
X009203Y007636D02*
X009203Y005778D01*
X008703Y005791D02*
X008703Y007136D01*
X008906Y007338D02*
X016251Y007338D01*
X016203Y007386D02*
X016203Y007033D01*
X015703Y007281D02*
X015703Y007886D01*
X015751Y007838D02*
X015421Y007838D01*
X014461Y007838D02*
X013421Y007838D01*
X013203Y007422D02*
X013203Y006158D01*
X012703Y006158D02*
X012703Y007397D01*
X012461Y007838D02*
X012406Y007838D01*
X012203Y007768D02*
X012203Y006122D01*
X011703Y006064D02*
X011703Y007768D01*
X011501Y007838D02*
X010433Y007838D01*
X010203Y007409D02*
X010203Y007093D01*
X009991Y006838D02*
X006356Y006838D01*
X006203Y007033D02*
X006203Y008136D01*
X006001Y008338D02*
X002906Y008338D01*
X002703Y008541D02*
X002703Y012063D01*
X002828Y012338D02*
X002828Y012338D01*
X002828Y012464D02*
X002828Y012464D01*
X002703Y012463D02*
X002703Y012463D01*
X002428Y012338D02*
X000983Y012338D01*
X000983Y012838D02*
X002638Y012838D01*
X003203Y012273D02*
X003203Y008267D01*
X002433Y008838D02*
X005473Y008838D01*
X005703Y008409D02*
X005703Y007281D01*
X005203Y007409D02*
X005203Y007093D01*
X004991Y006838D02*
X000983Y006838D01*
X000983Y006338D02*
X004991Y006338D01*
X005203Y006103D02*
X005203Y005778D01*
X004703Y005778D02*
X004703Y007409D01*
X004473Y007838D02*
X003433Y007838D01*
X001703Y008409D02*
X001703Y006064D01*
X002310Y004838D02*
X002331Y004838D01*
X003703Y005791D02*
X003703Y014838D01*
X004203Y014838D02*
X004203Y005778D01*
X004203Y005138D02*
X004203Y002971D01*
X004101Y002838D02*
X003966Y002838D01*
X004415Y002838D02*
X008651Y002838D01*
X008703Y002436D02*
X008703Y002301D01*
X009415Y002838D02*
X013651Y002838D01*
X013703Y002890D02*
X013703Y005138D01*
X013696Y004838D02*
X016737Y004838D01*
X017203Y004794D02*
X017203Y001618D01*
X017703Y001618D02*
X017703Y004298D01*
X018203Y004248D02*
X018203Y001618D01*
X018703Y002301D02*
X018703Y002436D01*
X018966Y002838D02*
X019101Y002838D01*
X020703Y002966D02*
X020703Y001618D01*
X021203Y001618D02*
X021203Y003003D01*
X021539Y003338D02*
X025228Y003338D01*
X025203Y003363D02*
X025203Y001618D01*
X025703Y001618D02*
X025703Y002966D01*
X025601Y002966D02*
X025201Y003366D01*
X025201Y003931D01*
X025601Y004331D01*
X026166Y004331D01*
X026566Y003931D01*
X026566Y003366D01*
X026166Y002966D01*
X025601Y002966D01*
X026203Y003003D02*
X026203Y001618D01*
X026703Y001618D02*
X026703Y004852D01*
X026737Y004838D02*
X023696Y004838D01*
X023409Y004338D02*
X027618Y004338D01*
X027703Y004298D02*
X027703Y001618D01*
X027203Y001618D02*
X027203Y004794D01*
X027310Y004838D02*
X027331Y004838D01*
X028203Y004248D02*
X028203Y001618D01*
X028703Y002301D02*
X028703Y002436D01*
X028966Y002838D02*
X029101Y002838D01*
X030203Y003363D02*
X030203Y001618D01*
X029703Y001618D02*
X029703Y005138D01*
X030203Y005138D02*
X030203Y003933D01*
X030201Y003838D02*
X026566Y003838D01*
X026539Y003338D02*
X030228Y003338D01*
X030703Y002966D02*
X030703Y001618D01*
X031203Y001618D02*
X031203Y003003D01*
X031203Y004293D02*
X031203Y005138D01*
X030703Y005138D02*
X030703Y004331D01*
X031703Y004852D02*
X031703Y001618D01*
X032203Y001618D02*
X032203Y004794D01*
X032310Y004838D02*
X032331Y004838D01*
X032618Y004338D02*
X028409Y004338D01*
X028696Y004838D02*
X031737Y004838D01*
X032703Y004298D02*
X032703Y001618D01*
X033203Y001618D02*
X033203Y004248D01*
X033409Y004338D02*
X037618Y004338D01*
X037703Y004298D02*
X037703Y001618D01*
X037203Y001618D02*
X037203Y004794D01*
X037310Y004838D02*
X037331Y004838D01*
X036737Y004838D02*
X033696Y004838D01*
X035203Y005778D02*
X035203Y006103D01*
X035703Y005916D02*
X035703Y005778D01*
X036203Y005778D02*
X036203Y006163D01*
X036356Y006338D02*
X039633Y006338D01*
X039633Y006838D02*
X036356Y006838D01*
X036203Y007033D02*
X036203Y008136D01*
X036001Y008338D02*
X034906Y008338D01*
X035203Y008267D02*
X035203Y008518D01*
X035703Y008409D02*
X035703Y007281D01*
X035433Y007838D02*
X036501Y007838D01*
X035203Y007409D02*
X035203Y007093D01*
X034991Y006838D02*
X031356Y006838D01*
X031203Y007033D02*
X031203Y008136D01*
X031001Y008338D02*
X029906Y008338D01*
X030203Y008267D02*
X030203Y008518D01*
X029501Y008838D02*
X027433Y008838D01*
X027433Y008639D02*
X027433Y009037D01*
X027273Y009197D01*
X027273Y009729D01*
X027433Y009889D01*
X027433Y010268D01*
X030293Y010268D01*
X030296Y010267D01*
X030356Y010268D01*
X030417Y010268D01*
X030420Y010270D01*
X030423Y010270D01*
X030478Y010293D01*
X030535Y010317D01*
X030537Y010319D01*
X030540Y010321D01*
X030581Y010363D01*
X030625Y010407D01*
X030626Y010410D01*
X030936Y010733D01*
X031152Y010733D01*
X031433Y011014D01*
X031433Y011412D01*
X031202Y011643D01*
X031580Y011643D01*
X031473Y011537D01*
X031473Y011139D01*
X031593Y011019D01*
X031593Y010407D01*
X031473Y010287D01*
X031473Y009889D01*
X031633Y009729D01*
X031633Y009197D01*
X031473Y009037D01*
X031473Y008771D01*
X031433Y008811D01*
X031433Y009037D01*
X031152Y009318D01*
X030754Y009318D01*
X030594Y009158D01*
X029890Y009158D01*
X029772Y009110D01*
X029682Y009020D01*
X028433Y007771D01*
X028433Y008037D01*
X028152Y008318D01*
X027754Y008318D01*
X027473Y008037D01*
X027473Y007771D01*
X026886Y008358D01*
X027152Y008358D01*
X027433Y008639D01*
X027203Y008409D02*
X027203Y008041D01*
X027406Y007838D02*
X027473Y007838D01*
X027703Y008267D02*
X027703Y010268D01*
X028203Y010268D02*
X028203Y008267D01*
X028703Y008041D02*
X028703Y010268D01*
X029203Y010268D02*
X029203Y008541D01*
X029001Y008338D02*
X026906Y008338D01*
X026953Y008838D02*
X026953Y010088D01*
X026524Y009838D02*
X026269Y009838D01*
X026203Y009773D02*
X026203Y009267D01*
X026633Y009338D02*
X022273Y009338D01*
X022382Y009838D02*
X025638Y009838D01*
X025703Y009773D02*
X025703Y009267D01*
X025203Y009158D02*
X025203Y010268D01*
X025703Y010088D02*
X025703Y010088D01*
X025953Y009838D02*
X025953Y009838D01*
X026203Y010088D02*
X026203Y010088D01*
X027382Y009838D02*
X030638Y009838D01*
X030703Y009773D02*
X030703Y009267D01*
X030788Y009688D02*
X030953Y009688D01*
X030953Y010088D01*
X030553Y010088D01*
X030553Y009923D01*
X030788Y009688D01*
X030953Y009688D02*
X031119Y009688D01*
X031353Y009923D01*
X031353Y010088D01*
X030954Y010088D01*
X030954Y010088D01*
X031353Y010088D01*
X031353Y010254D01*
X031119Y010488D01*
X030953Y010488D01*
X030788Y010488D01*
X030553Y010254D01*
X030553Y010088D01*
X030953Y010088D01*
X030953Y010088D01*
X030953Y010088D01*
X030953Y009688D01*
X030953Y009838D02*
X030953Y009838D01*
X030953Y010089D02*
X030953Y010488D01*
X030953Y010089D01*
X030953Y010089D01*
X030953Y010338D02*
X030953Y010338D01*
X030703Y010404D02*
X030703Y010491D01*
X030638Y010338D02*
X030557Y010338D01*
X030703Y010088D02*
X030703Y010088D01*
X031203Y010088D02*
X031203Y010088D01*
X031269Y009838D02*
X031524Y009838D01*
X031203Y009773D02*
X031203Y009267D01*
X031633Y009338D02*
X027273Y009338D01*
X026473Y008838D02*
X026433Y008838D01*
X026501Y007838D02*
X025683Y007838D01*
X026703Y007636D02*
X026703Y006064D01*
X025703Y005916D02*
X025703Y005778D01*
X025703Y005138D02*
X025703Y004331D01*
X026203Y004293D02*
X026203Y005138D01*
X025203Y005138D02*
X025203Y003933D01*
X025201Y003838D02*
X021566Y003838D01*
X021203Y004293D02*
X021203Y005138D01*
X020703Y005138D02*
X020703Y004331D01*
X021703Y004852D02*
X021703Y001618D01*
X022203Y001618D02*
X022203Y004794D01*
X022310Y004838D02*
X022331Y004838D01*
X022618Y004338D02*
X018409Y004338D01*
X018696Y004838D02*
X021737Y004838D01*
X022703Y004298D02*
X022703Y001618D01*
X023203Y001618D02*
X023203Y004248D01*
X024703Y005138D02*
X024703Y001618D01*
X023703Y002301D02*
X023703Y002436D01*
X023966Y002838D02*
X024101Y002838D01*
X020703Y005778D02*
X020703Y005916D01*
X021703Y006064D02*
X021703Y008409D01*
X021001Y009338D02*
X018023Y009338D01*
X016953Y008838D02*
X016953Y010088D01*
X017382Y010338D02*
X020638Y010338D01*
X020703Y010404D02*
X020703Y010759D01*
X020624Y010838D02*
X017282Y010838D01*
X015953Y009838D02*
X015953Y009838D01*
X015703Y009773D02*
X015703Y009267D01*
X015203Y009158D02*
X015203Y010831D01*
X015703Y010088D02*
X015703Y010088D01*
X015638Y009838D02*
X012382Y009838D01*
X012203Y009659D02*
X012203Y009267D01*
X011703Y009267D02*
X011703Y009659D01*
X011524Y009838D02*
X011269Y009838D01*
X011203Y009773D02*
X011203Y009267D01*
X011433Y008838D02*
X011473Y008838D01*
X010703Y008409D02*
X010703Y007281D01*
X010203Y008267D02*
X010203Y008518D01*
X010703Y010088D02*
X010703Y010088D01*
X010638Y010338D02*
X007382Y010338D01*
X007203Y010517D02*
X007203Y010909D01*
X007433Y011338D02*
X010473Y011338D01*
X010703Y011767D02*
X010703Y012143D01*
X010703Y012783D02*
X010703Y014838D01*
X008203Y012463D02*
X008203Y012463D01*
X006473Y011338D02*
X006433Y011338D01*
X006203Y010909D02*
X006203Y010404D01*
X006269Y010338D02*
X006525Y010338D01*
X006703Y010517D02*
X006703Y010909D01*
X006203Y010088D02*
X006203Y010088D01*
X005703Y009773D02*
X005703Y009267D01*
X005433Y007838D02*
X006501Y007838D01*
X006703Y007636D02*
X006703Y006064D01*
X007403Y005838D02*
X008203Y005838D01*
X008583Y005458D01*
X012023Y005458D01*
X011442Y005838D02*
X008656Y005838D01*
X008203Y006158D02*
X008203Y006893D01*
X007703Y006893D02*
X007703Y006158D01*
X006203Y005138D02*
X006203Y004293D01*
X005703Y004331D02*
X005703Y005138D01*
X005703Y005778D02*
X005703Y005916D01*
X007203Y004794D02*
X007203Y001618D01*
X005703Y001618D02*
X005703Y002966D01*
X006566Y003838D02*
X010201Y003838D01*
X010203Y003933D02*
X010203Y005138D01*
X010703Y005138D02*
X010703Y004331D01*
X011203Y004293D02*
X011203Y005138D01*
X011203Y005778D02*
X011203Y006163D01*
X011356Y006338D02*
X014991Y006338D01*
X015203Y006103D02*
X015203Y005778D01*
X015703Y005778D02*
X015703Y005916D01*
X017310Y004838D02*
X017331Y004838D01*
X015703Y002966D02*
X015703Y001618D01*
X014101Y002838D02*
X013966Y002838D01*
X013703Y002436D02*
X013703Y002301D01*
X010703Y005778D02*
X010703Y005916D01*
X007331Y004838D02*
X007310Y004838D01*
X003703Y002436D02*
X003703Y002301D01*
X002703Y001618D02*
X002511Y001629D01*
X002135Y001715D01*
X002703Y001618D02*
X043203Y001618D01*
X043703Y001699D02*
X043703Y016078D01*
X043881Y016078D02*
X043881Y016078D01*
X044685Y016838D02*
X044923Y016838D01*
X044923Y014338D02*
X042060Y014338D01*
X042063Y013838D02*
X044923Y013838D01*
X041203Y012912D02*
X041203Y011767D01*
X041269Y010338D02*
X044923Y010338D01*
X044923Y009838D02*
X041269Y009838D01*
X041203Y009773D02*
X041203Y009267D01*
X040953Y009838D02*
X040953Y009838D01*
X040703Y010088D02*
X040703Y010088D01*
X041203Y010088D02*
X041203Y010088D01*
X041203Y008409D02*
X041203Y007033D01*
X041356Y006881D02*
X040956Y007281D01*
X040391Y007281D01*
X040273Y007163D01*
X040273Y007479D01*
X040433Y007639D01*
X040433Y008037D01*
X040152Y008318D01*
X039886Y008318D01*
X040203Y008267D02*
X040203Y008518D01*
X040703Y008409D02*
X040703Y007281D01*
X040273Y007338D02*
X044923Y007338D01*
X044923Y007838D02*
X040433Y007838D01*
X039633Y007338D02*
X038906Y007338D01*
X038703Y007136D02*
X038703Y002890D01*
X038966Y002838D02*
X039101Y002838D01*
X040203Y003363D02*
X040203Y001618D01*
X040703Y001618D02*
X040703Y002966D01*
X040228Y003338D02*
X036539Y003338D01*
X036203Y003003D02*
X036203Y001618D01*
X035703Y001618D02*
X035703Y002966D01*
X036566Y003838D02*
X040201Y003838D01*
X040203Y003933D02*
X040203Y004886D01*
X040251Y004838D02*
X038696Y004838D01*
X038409Y004338D02*
X040563Y004338D01*
X040883Y004658D02*
X040883Y003648D01*
X041566Y003838D02*
X044923Y003838D01*
X044923Y003338D02*
X044912Y003146D01*
X044827Y002770D01*
X044923Y005338D02*
X040656Y005338D01*
X040703Y005291D02*
X040703Y005916D01*
X040273Y005838D02*
X044923Y005838D01*
X044923Y006338D02*
X041356Y006338D01*
X041356Y006316D02*
X041356Y006881D01*
X041356Y006838D02*
X044923Y006838D01*
X044923Y009338D02*
X037406Y009338D01*
X037382Y010338D02*
X037501Y010338D01*
X037703Y010541D02*
X037703Y012023D01*
X037703Y012338D02*
X037703Y012338D01*
X037553Y012338D02*
X037953Y012338D01*
X037953Y012339D02*
X037953Y012738D01*
X037788Y012738D01*
X037553Y012504D01*
X037553Y012338D01*
X037703Y012654D02*
X037703Y012912D01*
X037953Y012738D02*
X038119Y012738D01*
X038353Y012504D01*
X038353Y012338D01*
X037954Y012338D01*
X037953Y012339D02*
X037953Y012339D01*
X037953Y012738D01*
X038203Y012654D02*
X038203Y012912D01*
X038703Y012912D02*
X038703Y011541D01*
X038501Y011338D02*
X037433Y011338D01*
X037203Y011767D02*
X037203Y012912D01*
X036703Y012912D02*
X036703Y011767D01*
X036203Y011767D02*
X036203Y012912D01*
X038203Y012338D02*
X038203Y012338D01*
X038203Y012023D02*
X038203Y011041D01*
X038001Y010838D02*
X037273Y010838D01*
X039703Y012767D02*
X039703Y012912D01*
X032953Y007838D02*
X031953Y008838D01*
X031953Y010088D01*
X031525Y010338D02*
X031269Y010338D01*
X031203Y010404D02*
X031203Y010784D01*
X031257Y010838D02*
X031593Y010838D01*
X031473Y011338D02*
X031433Y011338D01*
X031203Y011642D02*
X031203Y011643D01*
X030203Y010268D02*
X030203Y009158D01*
X029703Y009041D02*
X029703Y010268D01*
X031433Y008838D02*
X031473Y008838D01*
X030703Y008409D02*
X030703Y007281D01*
X030703Y005916D02*
X030703Y005778D01*
X028501Y007838D02*
X028433Y007838D01*
X022713Y012338D02*
X022693Y012338D01*
X022274Y013338D02*
X021773Y013338D01*
X021133Y013838D02*
X021019Y013838D01*
X017963Y012338D02*
X017943Y012338D01*
X016963Y012338D02*
X016943Y012338D01*
X020703Y010088D02*
X020703Y010088D01*
X020953Y010089D02*
X020953Y010488D01*
X020953Y010089D01*
X020953Y010089D01*
X020953Y010338D02*
X020953Y010338D01*
X020953Y009838D02*
X020953Y009838D01*
X017383Y008338D02*
X016273Y008338D01*
X016703Y008409D02*
X016703Y007791D01*
X016656Y007838D02*
X017223Y007838D01*
X017203Y007533D02*
X017203Y008409D01*
X016473Y008838D02*
X016433Y008838D01*
X012703Y009041D02*
X012703Y010886D01*
X011703Y011580D02*
X011703Y011659D01*
X011473Y011338D02*
X011433Y011338D01*
X011203Y010088D02*
X011203Y010088D01*
X012433Y008838D02*
X012501Y008838D01*
X028053Y018838D02*
X028453Y018838D01*
X028453Y018839D02*
X028453Y019238D01*
X028288Y019238D01*
X028053Y019004D01*
X028053Y018838D01*
X028203Y018838D02*
X028203Y018838D01*
X028453Y018839D02*
X028453Y018839D01*
X028453Y019238D01*
X028619Y019238D01*
X028853Y019004D01*
X028853Y018838D01*
X028454Y018838D01*
X028703Y018838D02*
X028703Y018838D01*
X028703Y019154D02*
X028703Y019338D01*
X028203Y019338D02*
X028203Y019154D01*
X028453Y018438D02*
X028619Y018438D01*
X029203Y018818D02*
X029203Y019338D01*
X029683Y018338D02*
X030098Y018338D01*
X026134Y028714D02*
X026026Y028821D01*
X025817Y028908D01*
X025590Y028908D01*
X025380Y028821D01*
X025297Y028738D01*
X025109Y028738D01*
X025026Y028821D01*
X024817Y028908D01*
X024590Y028908D01*
X024380Y028821D01*
X024220Y028661D01*
X024203Y028621D01*
X024203Y030895D01*
X024250Y030848D02*
X024656Y030848D01*
X024943Y031135D01*
X024943Y031541D01*
X024656Y031828D01*
X024250Y031828D01*
X023963Y031541D01*
X023963Y031135D01*
X024250Y030848D01*
X023943Y031135D02*
X023656Y030848D01*
X023250Y030848D01*
X022963Y031135D01*
X022963Y031541D01*
X023250Y031828D01*
X023656Y031828D01*
X023943Y031541D01*
X023943Y031135D01*
X023943Y031338D02*
X023963Y031338D01*
X024203Y031781D02*
X024203Y032058D01*
X023703Y032058D02*
X023703Y031781D01*
X023203Y031781D02*
X023203Y032058D01*
X022703Y032058D02*
X022703Y031668D01*
X022623Y031748D02*
X022453Y031748D01*
X022283Y031748D01*
X022043Y031508D01*
X022043Y031338D01*
X022043Y031168D01*
X022283Y030928D01*
X022453Y030928D01*
X022453Y031338D01*
X022043Y031338D01*
X022453Y031338D01*
X022453Y031338D01*
X022453Y031338D01*
X021454Y031338D01*
X021454Y031338D01*
X021863Y031338D01*
X021863Y031168D01*
X021623Y030928D01*
X021453Y030928D01*
X021453Y031338D01*
X021043Y031338D01*
X021043Y031168D01*
X021283Y030928D01*
X021453Y030928D01*
X021453Y031338D01*
X021453Y031338D01*
X021453Y031338D01*
X020943Y031338D01*
X021043Y031338D02*
X021453Y031338D01*
X021453Y031339D02*
X021453Y031748D01*
X021283Y031748D01*
X021043Y031508D01*
X021043Y031338D01*
X021203Y031338D02*
X021203Y031338D01*
X021453Y031339D02*
X021453Y031339D01*
X021453Y031748D01*
X021623Y031748D01*
X021863Y031508D01*
X021863Y031338D01*
X021454Y031338D01*
X021703Y031338D02*
X021703Y031338D01*
X021703Y031008D02*
X021703Y029008D01*
X021570Y029008D02*
X021324Y028906D01*
X021203Y028786D01*
X021083Y028906D01*
X020837Y029008D01*
X020570Y029008D01*
X020324Y028906D01*
X020203Y028786D01*
X020083Y028906D01*
X019837Y029008D01*
X019570Y029008D01*
X019324Y028906D01*
X019203Y028786D01*
X019203Y032058D01*
X018703Y032058D02*
X018703Y031781D01*
X018656Y031828D02*
X018250Y031828D01*
X017963Y031541D01*
X017963Y031135D01*
X018250Y030848D01*
X018656Y030848D01*
X018943Y031135D01*
X018943Y031541D01*
X018656Y031828D01*
X018203Y031781D02*
X018203Y032058D01*
X017703Y032058D02*
X017703Y031781D01*
X017656Y031828D02*
X017250Y031828D01*
X016963Y031541D01*
X016963Y031135D01*
X017250Y030848D01*
X017656Y030848D01*
X017943Y031135D01*
X017943Y031541D01*
X017656Y031828D01*
X017203Y031781D02*
X017203Y032058D01*
X016703Y032058D02*
X016703Y031781D01*
X016656Y031828D02*
X016250Y031828D01*
X015963Y031541D01*
X015963Y031135D01*
X016250Y030848D01*
X016656Y030848D01*
X016943Y031135D01*
X016943Y031541D01*
X016656Y031828D01*
X016203Y031781D02*
X016203Y032058D01*
X015703Y032058D02*
X015703Y031781D01*
X015943Y031338D02*
X015963Y031338D01*
X016203Y030895D02*
X016203Y028786D01*
X016083Y028906D01*
X015837Y029008D01*
X015570Y029008D01*
X015324Y028906D01*
X015203Y028786D01*
X015151Y028838D02*
X015256Y028838D01*
X015703Y029008D02*
X015703Y030895D01*
X014703Y030895D02*
X014703Y029008D01*
X014256Y028838D02*
X014151Y028838D01*
X014203Y028786D02*
X014203Y030895D01*
X013703Y030895D02*
X013703Y029008D01*
X013256Y028838D02*
X013151Y028838D01*
X013203Y028786D02*
X013203Y030895D01*
X012963Y031338D02*
X010373Y031338D01*
X010703Y031008D02*
X010703Y032058D01*
X011203Y032058D02*
X011203Y030786D01*
X011151Y030838D02*
X027256Y030838D01*
X027203Y030786D02*
X027203Y032058D01*
X026703Y032058D02*
X026703Y030008D01*
X027033Y030338D02*
X011373Y030338D01*
X011703Y030008D02*
X011703Y032058D01*
X012203Y032058D02*
X012203Y029786D01*
X012151Y029838D02*
X026256Y029838D01*
X026203Y029786D02*
X026203Y032058D01*
X025703Y032058D02*
X025703Y031781D01*
X025656Y031828D02*
X025250Y031828D01*
X024963Y031541D01*
X024963Y031135D01*
X025250Y030848D01*
X025656Y030848D01*
X025943Y031135D01*
X025943Y031541D01*
X025656Y031828D01*
X025203Y031781D02*
X025203Y032058D01*
X024703Y032058D02*
X024703Y031781D01*
X024943Y031338D02*
X024963Y031338D01*
X025203Y030895D02*
X025203Y028738D01*
X024986Y028838D02*
X025421Y028838D01*
X025703Y028908D02*
X025703Y030895D01*
X025943Y031338D02*
X028033Y031338D01*
X027703Y031008D02*
X027703Y032058D01*
X028203Y032058D02*
X028203Y031786D01*
X026033Y029205D02*
X026135Y028959D01*
X026256Y028838D01*
X025986Y028838D01*
X026135Y028718D02*
X026134Y028714D01*
X026135Y028718D02*
X026256Y028838D01*
X026203Y028786D02*
X026203Y028891D01*
X024703Y028908D02*
X024703Y030895D01*
X023703Y030895D02*
X023703Y028908D01*
X023590Y028908D02*
X023380Y028821D01*
X023220Y028661D01*
X023203Y028621D01*
X023203Y030895D01*
X022863Y031168D02*
X022863Y031338D01*
X022454Y031338D01*
X022454Y031338D01*
X022963Y031338D01*
X022863Y031338D02*
X022863Y031508D01*
X022623Y031748D01*
X022453Y031748D02*
X022453Y031339D01*
X022453Y031748D01*
X022203Y031668D02*
X022203Y032058D01*
X021703Y032058D02*
X021703Y031668D01*
X021203Y031668D02*
X021203Y032058D01*
X020703Y032058D02*
X020703Y031781D01*
X020656Y031828D02*
X020250Y031828D01*
X019963Y031541D01*
X019963Y031135D01*
X020250Y030848D01*
X020656Y030848D01*
X020943Y031135D01*
X020943Y031541D01*
X020656Y031828D01*
X020203Y031781D02*
X020203Y032058D01*
X019703Y032058D02*
X019703Y029008D01*
X019256Y028838D02*
X019151Y028838D01*
X019203Y028786D02*
X019083Y028906D01*
X018837Y029008D01*
X018570Y029008D01*
X018324Y028906D01*
X018203Y028786D01*
X018083Y028906D01*
X017837Y029008D01*
X017570Y029008D01*
X017324Y028906D01*
X017203Y028786D01*
X017083Y028906D01*
X016837Y029008D01*
X016570Y029008D01*
X016324Y028906D01*
X016203Y028786D01*
X016151Y028838D02*
X016256Y028838D01*
X016703Y029008D02*
X016703Y030895D01*
X017203Y030895D02*
X017203Y028786D01*
X017151Y028838D02*
X017256Y028838D01*
X017703Y029008D02*
X017703Y030895D01*
X018203Y030895D02*
X018203Y028786D01*
X018151Y028838D02*
X018256Y028838D01*
X018703Y029008D02*
X018703Y030895D01*
X018943Y031338D02*
X019963Y031338D01*
X020203Y030895D02*
X020203Y028786D01*
X020151Y028838D02*
X020256Y028838D01*
X020703Y029008D02*
X020703Y030895D01*
X021203Y031008D02*
X021203Y028786D01*
X021151Y028838D02*
X021256Y028838D01*
X021570Y029008D02*
X021837Y029008D01*
X022083Y028906D01*
X022271Y028718D01*
X022273Y028714D01*
X022380Y028821D01*
X022590Y028908D01*
X022817Y028908D01*
X023026Y028821D01*
X023186Y028661D01*
X023203Y028621D01*
X022986Y028838D02*
X023421Y028838D01*
X023590Y028908D02*
X023817Y028908D01*
X024026Y028821D01*
X024186Y028661D01*
X024203Y028621D01*
X023986Y028838D02*
X024421Y028838D01*
X022703Y028908D02*
X022703Y031008D01*
X022623Y030928D02*
X022863Y031168D01*
X022863Y031338D02*
X022454Y031338D01*
X022453Y031338D02*
X022453Y030928D01*
X022623Y030928D01*
X022703Y031338D02*
X022703Y031338D01*
X022453Y031339D02*
X022453Y031339D01*
X022203Y031338D02*
X022203Y031338D01*
X022203Y031008D02*
X022203Y028786D01*
X022151Y028838D02*
X022421Y028838D01*
X017963Y031338D02*
X017943Y031338D01*
X016963Y031338D02*
X016943Y031338D01*
X013963Y031338D02*
X013943Y031338D01*
X002203Y031786D02*
X002203Y031977D01*
X002033Y030205D02*
X002135Y029959D01*
X002256Y029838D01*
X000983Y029838D01*
X000983Y029338D02*
X002033Y029338D01*
X002033Y029205D02*
X002033Y029472D01*
X002135Y029718D01*
X002256Y029838D01*
X002203Y029786D02*
X002203Y029891D01*
X002033Y029205D02*
X002135Y028959D01*
X002256Y028838D01*
X000983Y028838D01*
X000983Y028338D02*
X002033Y028338D01*
X002033Y028205D02*
X002033Y028472D01*
X002135Y028718D01*
X002256Y028838D01*
X002203Y028786D02*
X002203Y028891D01*
X002033Y028205D02*
X002135Y027959D01*
X002256Y027838D01*
X000983Y027838D01*
X000983Y027338D02*
X002033Y027338D01*
X002033Y027205D02*
X002033Y027472D01*
X002135Y027718D01*
X002256Y027838D01*
X002203Y027786D02*
X002203Y027891D01*
X002033Y027205D02*
X002135Y026959D01*
X002256Y026838D01*
X000983Y026838D01*
X000983Y026338D02*
X002033Y026338D01*
X002033Y026205D02*
X002033Y026472D01*
X002135Y026718D01*
X002256Y026838D01*
X002203Y026786D02*
X002203Y026891D01*
X002033Y026205D02*
X002135Y025959D01*
X002256Y025838D01*
X000983Y025838D01*
X000983Y025338D02*
X002033Y025338D01*
X002033Y025205D02*
X002033Y025472D01*
X002135Y025718D01*
X002256Y025838D01*
X002203Y025786D02*
X002203Y025891D01*
X002033Y025205D02*
X002135Y024959D01*
X002256Y024838D01*
X000983Y024838D01*
X000983Y024338D02*
X002033Y024338D01*
X002033Y024205D02*
X002135Y023959D01*
X002256Y023838D01*
X002135Y023718D01*
X002033Y023472D01*
X002033Y023205D01*
X002135Y022959D01*
X002256Y022838D01*
X002135Y022718D01*
X002033Y022472D01*
X002033Y022205D01*
X002135Y021959D01*
X002256Y021838D01*
X002135Y021718D01*
X002033Y021472D01*
X002033Y021205D01*
X002203Y021786D02*
X002203Y021891D01*
X002256Y021838D02*
X000983Y021838D01*
X000983Y022338D02*
X002033Y022338D01*
X002203Y022786D02*
X002203Y022891D01*
X002256Y022838D02*
X000983Y022838D01*
X000983Y023338D02*
X002033Y023338D01*
X002203Y023786D02*
X002203Y023891D01*
X002256Y023838D02*
X000983Y023838D01*
X002033Y024205D02*
X002033Y024472D01*
X002135Y024718D01*
X002256Y024838D01*
X002203Y024786D02*
X002203Y024891D01*
X033703Y002436D02*
X033703Y002301D01*
X033966Y002838D02*
X034101Y002838D01*
X036703Y001618D02*
X036703Y004852D01*
X037703Y005600D02*
X037703Y006893D01*
X038203Y006893D02*
X038203Y005568D01*
X038548Y005338D02*
X039751Y005338D01*
X038203Y004248D02*
X038203Y001618D01*
D17*
X024703Y008338D03*
X025453Y013838D03*
X026703Y014338D03*
X025953Y017338D03*
X025453Y020088D03*
X021453Y016838D03*
D18*
X031953Y011338D02*
X031953Y010088D01*
X034033Y002368D02*
X029033Y002368D01*
X024233Y002368D01*
X024203Y002338D01*
X024063Y002338D01*
X024033Y002368D01*
X019033Y002368D01*
X014033Y002368D01*
X013733Y002368D01*
X013703Y002338D01*
X009203Y002338D01*
X009033Y002368D02*
X004033Y002368D01*
X009033Y002368D02*
X014033Y002368D01*
X014173Y002368D01*
X014203Y002338D01*
X013703Y002338D01*
X034033Y002368D02*
X039033Y002368D01*
D19*
X017703Y020338D03*
X016703Y020338D03*
X015703Y020338D03*
X014703Y020338D03*
X013703Y020338D03*
X012703Y020338D03*
X011703Y020338D03*
X010703Y020338D03*
X009703Y020338D03*
X008703Y020338D03*
X007703Y020338D03*
X006703Y020338D03*
X005703Y020338D03*
X004703Y020338D03*
X003703Y020338D03*
X002703Y020338D03*
X002703Y021338D03*
X002703Y022338D03*
X002703Y023338D03*
X002703Y024338D03*
X003703Y024338D03*
X004703Y024338D03*
X005703Y024338D03*
X006703Y024338D03*
X007703Y024338D03*
X007703Y023338D03*
X006703Y023338D03*
X005703Y023338D03*
X004703Y023338D03*
X003703Y023338D03*
X003703Y022338D03*
X004703Y022338D03*
X005703Y022338D03*
X006703Y022338D03*
X007703Y022338D03*
X007703Y021338D03*
X006703Y021338D03*
X005703Y021338D03*
X004703Y021338D03*
X003703Y021338D03*
X008703Y021338D03*
X009703Y021338D03*
X010703Y021338D03*
X011703Y021338D03*
X012703Y021338D03*
X013703Y021338D03*
X013703Y022338D03*
X012703Y022338D03*
X011703Y022338D03*
X010703Y022338D03*
X009703Y022338D03*
X008703Y022338D03*
X008703Y023338D03*
X009703Y023338D03*
X010703Y023338D03*
X011703Y023338D03*
X012703Y023338D03*
X013703Y023338D03*
X013703Y024338D03*
X012703Y024338D03*
X011703Y024338D03*
X010703Y024338D03*
X009703Y024338D03*
X008703Y024338D03*
X008703Y025338D03*
X009703Y025338D03*
X010703Y025338D03*
X011703Y025338D03*
X012703Y025338D03*
X013703Y025338D03*
X013703Y026338D03*
X012703Y026338D03*
X011703Y026338D03*
X010703Y026338D03*
X009703Y026338D03*
X008703Y026338D03*
X007703Y026338D03*
X006703Y026338D03*
X005703Y026338D03*
X004703Y026338D03*
X003703Y026338D03*
X002703Y026338D03*
X002703Y025338D03*
X003703Y025338D03*
X004703Y025338D03*
X005703Y025338D03*
X006703Y025338D03*
X007703Y025338D03*
X007703Y027338D03*
X006703Y027338D03*
X005703Y027338D03*
X004703Y027338D03*
X003703Y027338D03*
X002703Y027338D03*
X002703Y028338D03*
X002703Y029338D03*
X002703Y030338D03*
X002703Y031338D03*
X003703Y031338D03*
X004703Y031338D03*
X005703Y031338D03*
X006703Y031338D03*
X007703Y031338D03*
X007703Y030338D03*
X006703Y030338D03*
X005703Y030338D03*
X004703Y030338D03*
X003703Y030338D03*
X003703Y029338D03*
X004703Y029338D03*
X005703Y029338D03*
X006703Y029338D03*
X007703Y029338D03*
X007703Y028338D03*
X006703Y028338D03*
X005703Y028338D03*
X004703Y028338D03*
X003703Y028338D03*
X008703Y028338D03*
X009703Y028338D03*
X010703Y028338D03*
X011703Y028338D03*
X012703Y028338D03*
X013703Y028338D03*
X013703Y027338D03*
X012703Y027338D03*
X011703Y027338D03*
X010703Y027338D03*
X009703Y027338D03*
X008703Y027338D03*
X008703Y029338D03*
X009703Y029338D03*
X010703Y029338D03*
X011703Y029338D03*
X010703Y030338D03*
X009703Y030338D03*
X008703Y030338D03*
X008703Y031338D03*
X009703Y031338D03*
X014703Y028338D03*
X015703Y028338D03*
X016703Y028338D03*
X017703Y028338D03*
X018703Y028338D03*
X018703Y027338D03*
X017703Y027338D03*
X016703Y027338D03*
X015703Y027338D03*
X014703Y027338D03*
X014703Y026338D03*
X015703Y026338D03*
X016703Y026338D03*
X017703Y026338D03*
X018703Y026338D03*
X018703Y025338D03*
X017703Y025338D03*
X016703Y025338D03*
X015703Y025338D03*
X014703Y025338D03*
X014703Y024338D03*
X015703Y024338D03*
X016703Y024338D03*
X017703Y024338D03*
X018703Y024338D03*
X018703Y023338D03*
X017703Y023338D03*
X016703Y023338D03*
X015703Y023338D03*
X014703Y023338D03*
X014703Y022338D03*
X015703Y022338D03*
X016703Y022338D03*
X017703Y022338D03*
X018703Y022338D03*
X018703Y021338D03*
X017703Y021338D03*
X016703Y021338D03*
X015703Y021338D03*
X014703Y021338D03*
X019703Y022338D03*
X020703Y022338D03*
X021703Y022338D03*
X021703Y023338D03*
X020703Y023338D03*
X019703Y023338D03*
X019703Y024338D03*
X020703Y024338D03*
X021703Y024338D03*
X021703Y025338D03*
X020703Y025338D03*
X019703Y025338D03*
X019703Y026338D03*
X020703Y026338D03*
X021703Y026338D03*
X021703Y027338D03*
X020703Y027338D03*
X019703Y027338D03*
X019703Y028338D03*
X020703Y028338D03*
X021703Y028338D03*
X026703Y028338D03*
X027703Y028338D03*
X028703Y028338D03*
X029703Y028338D03*
X029703Y027338D03*
X028703Y027338D03*
X027703Y027338D03*
X026703Y027338D03*
X026703Y026338D03*
X027703Y026338D03*
X028703Y026338D03*
X029703Y026338D03*
X029703Y025338D03*
X028703Y025338D03*
X027703Y025338D03*
X026703Y025338D03*
X026703Y024338D03*
X027703Y024338D03*
X028703Y024338D03*
X029703Y024338D03*
X029703Y023338D03*
X028703Y023338D03*
X027703Y023338D03*
X026703Y023338D03*
X026703Y022338D03*
X027703Y022338D03*
X028703Y022338D03*
X029703Y022338D03*
X029703Y021338D03*
X028703Y021338D03*
X027703Y021338D03*
X026703Y021338D03*
X030703Y021338D03*
X031703Y021338D03*
X032703Y021338D03*
X033703Y021338D03*
X034703Y021338D03*
X034703Y022338D03*
X033703Y022338D03*
X032703Y022338D03*
X031703Y022338D03*
X030703Y022338D03*
X030703Y023338D03*
X031703Y023338D03*
X032703Y023338D03*
X033703Y023338D03*
X034703Y023338D03*
X034703Y024338D03*
X033703Y024338D03*
X032703Y024338D03*
X031703Y024338D03*
X030703Y024338D03*
X030703Y025338D03*
X031703Y025338D03*
X032703Y025338D03*
X033703Y025338D03*
X034703Y025338D03*
X034703Y026338D03*
X033703Y026338D03*
X032703Y026338D03*
X031703Y026338D03*
X030703Y026338D03*
X030703Y027338D03*
X031703Y027338D03*
X032703Y027338D03*
X033703Y027338D03*
X034703Y027338D03*
X034703Y028338D03*
X033703Y028338D03*
X032703Y028338D03*
X031703Y028338D03*
X030703Y028338D03*
X030703Y029338D03*
X031703Y029338D03*
X032703Y029338D03*
X033703Y029338D03*
X034703Y029338D03*
X034703Y030338D03*
X033703Y030338D03*
X032703Y030338D03*
X031703Y030338D03*
X030703Y030338D03*
X029703Y030338D03*
X028703Y030338D03*
X027703Y030338D03*
X027703Y029338D03*
X026703Y029338D03*
X028703Y029338D03*
X029703Y029338D03*
X029703Y031338D03*
X028703Y031338D03*
X030703Y031338D03*
X031703Y031338D03*
X032703Y031338D03*
X033703Y031338D03*
X034703Y031338D03*
X035703Y031338D03*
X036703Y031338D03*
X037703Y031338D03*
X038703Y031338D03*
X039703Y031338D03*
X040703Y031338D03*
X040703Y030338D03*
X039703Y030338D03*
X038703Y030338D03*
X037703Y030338D03*
X036703Y030338D03*
X035703Y030338D03*
X035703Y029338D03*
X036703Y029338D03*
X037703Y029338D03*
X038703Y029338D03*
X039703Y029338D03*
X040703Y029338D03*
X040703Y028338D03*
X039703Y028338D03*
X038703Y028338D03*
X037703Y028338D03*
X036703Y028338D03*
X035703Y028338D03*
X035703Y027338D03*
X036703Y027338D03*
X037703Y027338D03*
X038703Y027338D03*
X039703Y027338D03*
X040703Y027338D03*
X040703Y026338D03*
X039703Y026338D03*
X038703Y026338D03*
X037703Y026338D03*
X036703Y026338D03*
X035703Y026338D03*
X035703Y025338D03*
X036703Y025338D03*
X037703Y025338D03*
X038703Y025338D03*
X039703Y025338D03*
X040703Y025338D03*
X040703Y024338D03*
X039703Y024338D03*
X038703Y024338D03*
X037703Y024338D03*
X036703Y024338D03*
X035703Y024338D03*
X035703Y023338D03*
X036703Y023338D03*
X037703Y023338D03*
X038703Y023338D03*
X039703Y023338D03*
X040703Y023338D03*
X040703Y022338D03*
X039703Y022338D03*
X038703Y022338D03*
X037703Y022338D03*
X036703Y022338D03*
X035703Y022338D03*
X035703Y021338D03*
X036703Y021338D03*
X037703Y021338D03*
X038703Y021338D03*
X039703Y021338D03*
X040703Y021338D03*
D20*
X025703Y021338D03*
X024703Y021338D03*
X024703Y022338D03*
X023703Y022338D03*
X022703Y022338D03*
X022703Y023338D03*
X023703Y023338D03*
X024703Y023338D03*
X024703Y024338D03*
X023703Y024338D03*
X022703Y024338D03*
X022703Y025338D03*
X023703Y025338D03*
X024703Y025338D03*
X024703Y026338D03*
X023703Y026338D03*
X022703Y026338D03*
X022703Y027338D03*
X023703Y027338D03*
X024703Y027338D03*
X024703Y028338D03*
X023703Y028338D03*
X022703Y028338D03*
X025703Y028338D03*
X025703Y027338D03*
X025703Y026338D03*
X025703Y025338D03*
X025703Y024338D03*
X025703Y023338D03*
X025703Y022338D03*
D21*
X025703Y028338D02*
X024703Y028338D01*
M02*
