G75*
G70*
%OFA0B0*%
%FSLAX24Y24*%
%IPPOS*%
%LPD*%
%AMOC8*
5,1,8,0,0,1.08239X$1,22.5*
%
%ADD10OC8,0.0945*%
%ADD11C,0.0945*%
%ADD12OC8,0.0540*%
%ADD13C,0.0540*%
%ADD14C,0.0800*%
%ADD15OC8,0.0560*%
%ADD16C,0.1360*%
%ADD17C,0.0496*%
%ADD18C,0.0920*%
%ADD19C,0.0720*%
D10*
X004033Y002368D03*
X005883Y003648D03*
X009033Y002368D03*
X010883Y003648D03*
X014033Y002368D03*
X015883Y003648D03*
X019033Y002368D03*
X020883Y003648D03*
X024033Y002368D03*
X025883Y003648D03*
X029033Y002368D03*
X030883Y003648D03*
X034033Y002368D03*
X035883Y003648D03*
X039033Y002368D03*
X040883Y003648D03*
X040673Y006598D03*
X035673Y006598D03*
X030673Y006598D03*
X025673Y006598D03*
X020673Y006598D03*
X015673Y006598D03*
X010673Y006598D03*
X005673Y006598D03*
D11*
X007023Y005458D03*
X008013Y004908D03*
X012023Y005458D03*
X013013Y004908D03*
X017023Y005458D03*
X018013Y004908D03*
X022023Y005458D03*
X023013Y004908D03*
X027023Y005458D03*
X028013Y004908D03*
X032023Y005458D03*
X033013Y004908D03*
X037023Y005458D03*
X038013Y004908D03*
X003013Y004908D03*
X002023Y005458D03*
D12*
X002953Y007838D03*
X001953Y008838D03*
X001953Y010088D03*
X001953Y011338D03*
X002828Y012463D03*
X004828Y012463D03*
X005953Y011338D03*
X006953Y011338D03*
X007828Y012463D03*
X009828Y012463D03*
X010953Y011338D03*
X011953Y011151D03*
X011953Y012088D03*
X011953Y010088D03*
X010953Y010088D03*
X010953Y008838D03*
X011953Y008838D03*
X012941Y007838D03*
X014941Y007838D03*
X015953Y008838D03*
X016953Y008838D03*
X017703Y007838D03*
X019703Y007838D03*
X020953Y008838D03*
X021953Y008838D03*
X023203Y007838D03*
X025203Y007838D03*
X025953Y008838D03*
X026953Y008838D03*
X027953Y007838D03*
X029953Y007838D03*
X030953Y008838D03*
X031953Y008838D03*
X032953Y007838D03*
X034953Y007838D03*
X035953Y008838D03*
X036953Y008838D03*
X037953Y007838D03*
X039953Y007838D03*
X040953Y008838D03*
X040953Y010088D03*
X040953Y011338D03*
X039953Y012338D03*
X037953Y012338D03*
X036953Y011338D03*
X035953Y011338D03*
X034953Y012338D03*
X032953Y012338D03*
X031953Y011338D03*
X030953Y011213D03*
X030953Y010088D03*
X031953Y010088D03*
X035953Y010088D03*
X036953Y010088D03*
X034953Y013838D03*
X032953Y013838D03*
X029203Y013338D03*
X029203Y015338D03*
X030578Y017338D03*
X030578Y018338D03*
X029203Y018338D03*
X028453Y017838D03*
X028453Y018838D03*
X032578Y018338D03*
X032578Y017338D03*
X026953Y011213D03*
X025953Y011188D03*
X025953Y010088D03*
X026953Y010088D03*
X021953Y010088D03*
X020953Y010088D03*
X020953Y011188D03*
X021953Y011188D03*
X022703Y013588D03*
X020703Y013588D03*
X019953Y013588D03*
X017953Y013588D03*
X016953Y011188D03*
X015953Y011151D03*
X015953Y010088D03*
X016953Y010088D03*
X011953Y014088D03*
X006953Y010088D03*
X005953Y010088D03*
X005953Y008838D03*
X006953Y008838D03*
X007953Y007838D03*
X009953Y007838D03*
X004953Y007838D03*
X019703Y020588D03*
X023703Y020588D03*
D13*
X023953Y018578D02*
X023953Y018098D01*
X022953Y018098D02*
X022953Y018578D01*
X021953Y018578D02*
X021953Y018098D01*
X020953Y018098D02*
X020953Y018578D01*
X019953Y018578D02*
X019953Y018098D01*
X018953Y018098D02*
X018953Y018578D01*
X018953Y015578D02*
X018953Y015098D01*
X019953Y015098D02*
X019953Y015578D01*
X020953Y015578D02*
X020953Y015098D01*
X021953Y015098D02*
X021953Y015578D01*
X022953Y015578D02*
X022953Y015098D01*
X023953Y015098D02*
X023953Y015578D01*
X024953Y015578D02*
X024953Y015098D01*
X025953Y015098D02*
X025953Y015578D01*
X025953Y018098D02*
X025953Y018578D01*
X024953Y018578D02*
X024953Y018098D01*
D14*
X036453Y014208D02*
X036453Y013468D01*
X037453Y013468D02*
X037453Y014208D01*
X038453Y014208D02*
X038453Y013468D01*
X039453Y013468D02*
X039453Y014208D01*
X040453Y014208D02*
X040453Y013468D01*
X041453Y013468D02*
X041453Y014208D01*
D15*
X029203Y012338D03*
X028203Y012338D03*
X027203Y012338D03*
X026203Y012338D03*
X025203Y012338D03*
X024203Y012338D03*
X023203Y012338D03*
X022203Y012338D03*
X020453Y012338D03*
X019453Y012338D03*
X018453Y012338D03*
X017453Y012338D03*
X016453Y012338D03*
X015453Y012338D03*
X014453Y012338D03*
X013453Y012338D03*
X013453Y031338D03*
X014453Y031338D03*
X015453Y031338D03*
X016453Y031338D03*
X017453Y031338D03*
X018453Y031338D03*
X020453Y031338D03*
X021453Y031338D03*
X022453Y031338D03*
X023453Y031338D03*
X024453Y031338D03*
X025453Y031338D03*
D16*
X008303Y017088D03*
X043703Y017088D03*
D17*
X026703Y014338D03*
X025453Y013838D03*
X021453Y016838D03*
X025953Y017338D03*
X025453Y020088D03*
X024703Y008338D03*
D18*
X017703Y020338D03*
X016703Y020338D03*
X015703Y020338D03*
X014703Y020338D03*
X013703Y020338D03*
X012703Y020338D03*
X011703Y020338D03*
X010703Y020338D03*
X009703Y020338D03*
X008703Y020338D03*
X007703Y020338D03*
X006703Y020338D03*
X005703Y020338D03*
X004703Y020338D03*
X003703Y020338D03*
X002703Y020338D03*
X002703Y021338D03*
X002703Y022338D03*
X002703Y023338D03*
X002703Y024338D03*
X003703Y024338D03*
X004703Y024338D03*
X005703Y024338D03*
X006703Y024338D03*
X007703Y024338D03*
X007703Y023338D03*
X006703Y023338D03*
X005703Y023338D03*
X004703Y023338D03*
X003703Y023338D03*
X003703Y022338D03*
X004703Y022338D03*
X005703Y022338D03*
X006703Y022338D03*
X007703Y022338D03*
X007703Y021338D03*
X006703Y021338D03*
X005703Y021338D03*
X004703Y021338D03*
X003703Y021338D03*
X008703Y021338D03*
X009703Y021338D03*
X010703Y021338D03*
X011703Y021338D03*
X012703Y021338D03*
X013703Y021338D03*
X013703Y022338D03*
X012703Y022338D03*
X011703Y022338D03*
X010703Y022338D03*
X009703Y022338D03*
X008703Y022338D03*
X008703Y023338D03*
X009703Y023338D03*
X010703Y023338D03*
X011703Y023338D03*
X012703Y023338D03*
X013703Y023338D03*
X013703Y024338D03*
X012703Y024338D03*
X011703Y024338D03*
X010703Y024338D03*
X009703Y024338D03*
X008703Y024338D03*
X008703Y025338D03*
X009703Y025338D03*
X010703Y025338D03*
X011703Y025338D03*
X012703Y025338D03*
X013703Y025338D03*
X013703Y026338D03*
X012703Y026338D03*
X011703Y026338D03*
X010703Y026338D03*
X009703Y026338D03*
X008703Y026338D03*
X007703Y026338D03*
X006703Y026338D03*
X005703Y026338D03*
X004703Y026338D03*
X003703Y026338D03*
X002703Y026338D03*
X002703Y025338D03*
X003703Y025338D03*
X004703Y025338D03*
X005703Y025338D03*
X006703Y025338D03*
X007703Y025338D03*
X007703Y027338D03*
X006703Y027338D03*
X005703Y027338D03*
X004703Y027338D03*
X003703Y027338D03*
X002703Y027338D03*
X002703Y028338D03*
X002703Y029338D03*
X002703Y030338D03*
X002703Y031338D03*
X003703Y031338D03*
X004703Y031338D03*
X005703Y031338D03*
X006703Y031338D03*
X007703Y031338D03*
X007703Y030338D03*
X006703Y030338D03*
X005703Y030338D03*
X004703Y030338D03*
X003703Y030338D03*
X003703Y029338D03*
X004703Y029338D03*
X005703Y029338D03*
X006703Y029338D03*
X007703Y029338D03*
X007703Y028338D03*
X006703Y028338D03*
X005703Y028338D03*
X004703Y028338D03*
X003703Y028338D03*
X008703Y028338D03*
X009703Y028338D03*
X010703Y028338D03*
X011703Y028338D03*
X012703Y028338D03*
X013703Y028338D03*
X013703Y027338D03*
X012703Y027338D03*
X011703Y027338D03*
X010703Y027338D03*
X009703Y027338D03*
X008703Y027338D03*
X008703Y029338D03*
X009703Y029338D03*
X010703Y029338D03*
X011703Y029338D03*
X010703Y030338D03*
X009703Y030338D03*
X008703Y030338D03*
X008703Y031338D03*
X009703Y031338D03*
X014703Y028338D03*
X015703Y028338D03*
X016703Y028338D03*
X017703Y028338D03*
X018703Y028338D03*
X018703Y027338D03*
X017703Y027338D03*
X016703Y027338D03*
X015703Y027338D03*
X014703Y027338D03*
X014703Y026338D03*
X015703Y026338D03*
X016703Y026338D03*
X017703Y026338D03*
X018703Y026338D03*
X018703Y025338D03*
X017703Y025338D03*
X016703Y025338D03*
X015703Y025338D03*
X014703Y025338D03*
X014703Y024338D03*
X015703Y024338D03*
X016703Y024338D03*
X017703Y024338D03*
X018703Y024338D03*
X018703Y023338D03*
X017703Y023338D03*
X016703Y023338D03*
X015703Y023338D03*
X014703Y023338D03*
X014703Y022338D03*
X015703Y022338D03*
X016703Y022338D03*
X017703Y022338D03*
X018703Y022338D03*
X018703Y021338D03*
X017703Y021338D03*
X016703Y021338D03*
X015703Y021338D03*
X014703Y021338D03*
X019703Y022338D03*
X020703Y022338D03*
X021703Y022338D03*
X021703Y023338D03*
X020703Y023338D03*
X019703Y023338D03*
X019703Y024338D03*
X020703Y024338D03*
X021703Y024338D03*
X021703Y025338D03*
X020703Y025338D03*
X019703Y025338D03*
X019703Y026338D03*
X020703Y026338D03*
X021703Y026338D03*
X021703Y027338D03*
X020703Y027338D03*
X019703Y027338D03*
X019703Y028338D03*
X020703Y028338D03*
X021703Y028338D03*
X026703Y028338D03*
X027703Y028338D03*
X028703Y028338D03*
X029703Y028338D03*
X029703Y027338D03*
X028703Y027338D03*
X027703Y027338D03*
X026703Y027338D03*
X026703Y026338D03*
X027703Y026338D03*
X028703Y026338D03*
X029703Y026338D03*
X029703Y025338D03*
X028703Y025338D03*
X027703Y025338D03*
X026703Y025338D03*
X026703Y024338D03*
X027703Y024338D03*
X028703Y024338D03*
X029703Y024338D03*
X029703Y023338D03*
X028703Y023338D03*
X027703Y023338D03*
X026703Y023338D03*
X026703Y022338D03*
X027703Y022338D03*
X028703Y022338D03*
X029703Y022338D03*
X029703Y021338D03*
X028703Y021338D03*
X027703Y021338D03*
X026703Y021338D03*
X030703Y021338D03*
X031703Y021338D03*
X032703Y021338D03*
X033703Y021338D03*
X034703Y021338D03*
X034703Y022338D03*
X033703Y022338D03*
X032703Y022338D03*
X031703Y022338D03*
X030703Y022338D03*
X030703Y023338D03*
X031703Y023338D03*
X032703Y023338D03*
X033703Y023338D03*
X034703Y023338D03*
X034703Y024338D03*
X033703Y024338D03*
X032703Y024338D03*
X031703Y024338D03*
X030703Y024338D03*
X030703Y025338D03*
X031703Y025338D03*
X032703Y025338D03*
X033703Y025338D03*
X034703Y025338D03*
X034703Y026338D03*
X033703Y026338D03*
X032703Y026338D03*
X031703Y026338D03*
X030703Y026338D03*
X030703Y027338D03*
X031703Y027338D03*
X032703Y027338D03*
X033703Y027338D03*
X034703Y027338D03*
X034703Y028338D03*
X033703Y028338D03*
X032703Y028338D03*
X031703Y028338D03*
X030703Y028338D03*
X030703Y029338D03*
X031703Y029338D03*
X032703Y029338D03*
X033703Y029338D03*
X034703Y029338D03*
X034703Y030338D03*
X033703Y030338D03*
X032703Y030338D03*
X031703Y030338D03*
X030703Y030338D03*
X029703Y030338D03*
X028703Y030338D03*
X027703Y030338D03*
X027703Y029338D03*
X026703Y029338D03*
X028703Y029338D03*
X029703Y029338D03*
X029703Y031338D03*
X028703Y031338D03*
X030703Y031338D03*
X031703Y031338D03*
X032703Y031338D03*
X033703Y031338D03*
X034703Y031338D03*
X035703Y031338D03*
X036703Y031338D03*
X037703Y031338D03*
X038703Y031338D03*
X039703Y031338D03*
X040703Y031338D03*
X040703Y030338D03*
X039703Y030338D03*
X038703Y030338D03*
X037703Y030338D03*
X036703Y030338D03*
X035703Y030338D03*
X035703Y029338D03*
X036703Y029338D03*
X037703Y029338D03*
X038703Y029338D03*
X039703Y029338D03*
X040703Y029338D03*
X040703Y028338D03*
X039703Y028338D03*
X038703Y028338D03*
X037703Y028338D03*
X036703Y028338D03*
X035703Y028338D03*
X035703Y027338D03*
X036703Y027338D03*
X037703Y027338D03*
X038703Y027338D03*
X039703Y027338D03*
X040703Y027338D03*
X040703Y026338D03*
X039703Y026338D03*
X038703Y026338D03*
X037703Y026338D03*
X036703Y026338D03*
X035703Y026338D03*
X035703Y025338D03*
X036703Y025338D03*
X037703Y025338D03*
X038703Y025338D03*
X039703Y025338D03*
X040703Y025338D03*
X040703Y024338D03*
X039703Y024338D03*
X038703Y024338D03*
X037703Y024338D03*
X036703Y024338D03*
X035703Y024338D03*
X035703Y023338D03*
X036703Y023338D03*
X037703Y023338D03*
X038703Y023338D03*
X039703Y023338D03*
X040703Y023338D03*
X040703Y022338D03*
X039703Y022338D03*
X038703Y022338D03*
X037703Y022338D03*
X036703Y022338D03*
X035703Y022338D03*
X035703Y021338D03*
X036703Y021338D03*
X037703Y021338D03*
X038703Y021338D03*
X039703Y021338D03*
X040703Y021338D03*
D19*
X025703Y021338D03*
X024703Y021338D03*
X024703Y022338D03*
X023703Y022338D03*
X022703Y022338D03*
X022703Y023338D03*
X023703Y023338D03*
X024703Y023338D03*
X024703Y024338D03*
X023703Y024338D03*
X022703Y024338D03*
X022703Y025338D03*
X023703Y025338D03*
X024703Y025338D03*
X024703Y026338D03*
X023703Y026338D03*
X022703Y026338D03*
X022703Y027338D03*
X023703Y027338D03*
X024703Y027338D03*
X024703Y028338D03*
X023703Y028338D03*
X022703Y028338D03*
X025703Y028338D03*
X025703Y027338D03*
X025703Y026338D03*
X025703Y025338D03*
X025703Y024338D03*
X025703Y023338D03*
X025703Y022338D03*
M02*
