G75*
G70*
%OFA0B0*%
%FSLAX24Y24*%
%IPPOS*%
%LPD*%
%AMOC8*
5,1,8,0,0,1.08239X$1,22.5*
%
%ADD10C,0.0000*%
%ADD11OC8,0.0885*%
%ADD12C,0.0885*%
%ADD13C,0.0480*%
%ADD14OC8,0.0480*%
%ADD15C,0.0480*%
%ADD16R,0.0740X0.0740*%
%ADD17OC8,0.0740*%
%ADD18C,0.0740*%
%ADD19C,0.0740*%
%ADD20C,0.0780*%
%ADD21C,0.0709*%
%ADD22OC8,0.0600*%
%ADD23OC8,0.0500*%
%ADD24R,0.0630X0.0460*%
%ADD25C,0.0600*%
%ADD26C,0.0591*%
%ADD27R,0.0748X0.0551*%
%ADD28R,0.0551X0.0709*%
%ADD29R,0.0591X0.0276*%
%ADD30R,0.0460X0.0630*%
%ADD31C,0.0600*%
%ADD32C,0.0240*%
%ADD33C,0.0160*%
%ADD34C,0.0436*%
%ADD35C,0.0120*%
%ADD36C,0.0100*%
D10*
X002681Y001338D02*
X044681Y001338D01*
X044757Y001340D01*
X044833Y001346D01*
X044908Y001355D01*
X044983Y001369D01*
X045057Y001386D01*
X045130Y001407D01*
X045202Y001431D01*
X045273Y001460D01*
X045342Y001491D01*
X045409Y001526D01*
X045474Y001565D01*
X045538Y001607D01*
X045599Y001652D01*
X045658Y001700D01*
X045714Y001751D01*
X045768Y001805D01*
X045819Y001861D01*
X045867Y001920D01*
X045912Y001981D01*
X045954Y002045D01*
X045993Y002110D01*
X046028Y002177D01*
X046059Y002246D01*
X046088Y002317D01*
X046112Y002389D01*
X046133Y002462D01*
X046150Y002536D01*
X046164Y002611D01*
X046173Y002686D01*
X046179Y002762D01*
X046181Y002838D01*
X046181Y034588D01*
X046179Y034664D01*
X046173Y034740D01*
X046164Y034815D01*
X046150Y034890D01*
X046133Y034964D01*
X046112Y035037D01*
X046088Y035109D01*
X046059Y035180D01*
X046028Y035249D01*
X045993Y035316D01*
X045954Y035381D01*
X045912Y035445D01*
X045867Y035506D01*
X045819Y035565D01*
X045768Y035621D01*
X045714Y035675D01*
X045658Y035726D01*
X045599Y035774D01*
X045538Y035819D01*
X045474Y035861D01*
X045409Y035900D01*
X045342Y035935D01*
X045273Y035966D01*
X045202Y035995D01*
X045130Y036019D01*
X045057Y036040D01*
X044983Y036057D01*
X044908Y036071D01*
X044833Y036080D01*
X044757Y036086D01*
X044681Y036088D01*
X002681Y036088D01*
X002605Y036086D01*
X002529Y036080D01*
X002454Y036071D01*
X002379Y036057D01*
X002305Y036040D01*
X002232Y036019D01*
X002160Y035995D01*
X002089Y035966D01*
X002020Y035935D01*
X001953Y035900D01*
X001888Y035861D01*
X001824Y035819D01*
X001763Y035774D01*
X001704Y035726D01*
X001648Y035675D01*
X001594Y035621D01*
X001543Y035565D01*
X001495Y035506D01*
X001450Y035445D01*
X001408Y035381D01*
X001369Y035316D01*
X001334Y035249D01*
X001303Y035180D01*
X001274Y035109D01*
X001250Y035037D01*
X001229Y034964D01*
X001212Y034890D01*
X001198Y034815D01*
X001189Y034740D01*
X001183Y034664D01*
X001181Y034588D01*
X001181Y002838D01*
X001183Y002762D01*
X001189Y002686D01*
X001198Y002611D01*
X001212Y002536D01*
X001229Y002462D01*
X001250Y002389D01*
X001274Y002317D01*
X001303Y002246D01*
X001334Y002177D01*
X001369Y002110D01*
X001408Y002045D01*
X001450Y001981D01*
X001495Y001920D01*
X001543Y001861D01*
X001594Y001805D01*
X001648Y001751D01*
X001704Y001700D01*
X001763Y001652D01*
X001824Y001607D01*
X001888Y001565D01*
X001953Y001526D01*
X002020Y001491D01*
X002089Y001460D01*
X002160Y001431D01*
X002232Y001407D01*
X002305Y001386D01*
X002379Y001369D01*
X002454Y001355D01*
X002529Y001346D01*
X002605Y001340D01*
X002681Y001338D01*
X008318Y016526D02*
X008320Y016576D01*
X008326Y016626D01*
X008336Y016676D01*
X008349Y016724D01*
X008366Y016772D01*
X008387Y016818D01*
X008411Y016862D01*
X008439Y016904D01*
X008470Y016944D01*
X008504Y016981D01*
X008541Y017016D01*
X008580Y017047D01*
X008621Y017076D01*
X008665Y017101D01*
X008711Y017123D01*
X008758Y017141D01*
X008806Y017155D01*
X008855Y017166D01*
X008905Y017173D01*
X008955Y017176D01*
X009006Y017175D01*
X009056Y017170D01*
X009106Y017161D01*
X009154Y017149D01*
X009202Y017132D01*
X009248Y017112D01*
X009293Y017089D01*
X009336Y017062D01*
X009376Y017032D01*
X009414Y016999D01*
X009449Y016963D01*
X009482Y016924D01*
X009511Y016883D01*
X009537Y016840D01*
X009560Y016795D01*
X009579Y016748D01*
X009594Y016700D01*
X009606Y016651D01*
X009614Y016601D01*
X009618Y016551D01*
X009618Y016501D01*
X009614Y016451D01*
X009606Y016401D01*
X009594Y016352D01*
X009579Y016304D01*
X009560Y016257D01*
X009537Y016212D01*
X009511Y016169D01*
X009482Y016128D01*
X009449Y016089D01*
X009414Y016053D01*
X009376Y016020D01*
X009336Y015990D01*
X009293Y015963D01*
X009248Y015940D01*
X009202Y015920D01*
X009154Y015903D01*
X009106Y015891D01*
X009056Y015882D01*
X009006Y015877D01*
X008955Y015876D01*
X008905Y015879D01*
X008855Y015886D01*
X008806Y015897D01*
X008758Y015911D01*
X008711Y015929D01*
X008665Y015951D01*
X008621Y015976D01*
X008580Y016005D01*
X008541Y016036D01*
X008504Y016071D01*
X008470Y016108D01*
X008439Y016148D01*
X008411Y016190D01*
X008387Y016234D01*
X008366Y016280D01*
X008349Y016328D01*
X008336Y016376D01*
X008326Y016426D01*
X008320Y016476D01*
X008318Y016526D01*
X002031Y034088D02*
X002033Y034138D01*
X002039Y034188D01*
X002049Y034238D01*
X002062Y034286D01*
X002079Y034334D01*
X002100Y034380D01*
X002124Y034424D01*
X002152Y034466D01*
X002183Y034506D01*
X002217Y034543D01*
X002254Y034578D01*
X002293Y034609D01*
X002334Y034638D01*
X002378Y034663D01*
X002424Y034685D01*
X002471Y034703D01*
X002519Y034717D01*
X002568Y034728D01*
X002618Y034735D01*
X002668Y034738D01*
X002719Y034737D01*
X002769Y034732D01*
X002819Y034723D01*
X002867Y034711D01*
X002915Y034694D01*
X002961Y034674D01*
X003006Y034651D01*
X003049Y034624D01*
X003089Y034594D01*
X003127Y034561D01*
X003162Y034525D01*
X003195Y034486D01*
X003224Y034445D01*
X003250Y034402D01*
X003273Y034357D01*
X003292Y034310D01*
X003307Y034262D01*
X003319Y034213D01*
X003327Y034163D01*
X003331Y034113D01*
X003331Y034063D01*
X003327Y034013D01*
X003319Y033963D01*
X003307Y033914D01*
X003292Y033866D01*
X003273Y033819D01*
X003250Y033774D01*
X003224Y033731D01*
X003195Y033690D01*
X003162Y033651D01*
X003127Y033615D01*
X003089Y033582D01*
X003049Y033552D01*
X003006Y033525D01*
X002961Y033502D01*
X002915Y033482D01*
X002867Y033465D01*
X002819Y033453D01*
X002769Y033444D01*
X002719Y033439D01*
X002668Y033438D01*
X002618Y033441D01*
X002568Y033448D01*
X002519Y033459D01*
X002471Y033473D01*
X002424Y033491D01*
X002378Y033513D01*
X002334Y033538D01*
X002293Y033567D01*
X002254Y033598D01*
X002217Y033633D01*
X002183Y033670D01*
X002152Y033710D01*
X002124Y033752D01*
X002100Y033796D01*
X002079Y033842D01*
X002062Y033890D01*
X002049Y033938D01*
X002039Y033988D01*
X002033Y034038D01*
X002031Y034088D01*
X044031Y034088D02*
X044033Y034138D01*
X044039Y034188D01*
X044049Y034238D01*
X044062Y034286D01*
X044079Y034334D01*
X044100Y034380D01*
X044124Y034424D01*
X044152Y034466D01*
X044183Y034506D01*
X044217Y034543D01*
X044254Y034578D01*
X044293Y034609D01*
X044334Y034638D01*
X044378Y034663D01*
X044424Y034685D01*
X044471Y034703D01*
X044519Y034717D01*
X044568Y034728D01*
X044618Y034735D01*
X044668Y034738D01*
X044719Y034737D01*
X044769Y034732D01*
X044819Y034723D01*
X044867Y034711D01*
X044915Y034694D01*
X044961Y034674D01*
X045006Y034651D01*
X045049Y034624D01*
X045089Y034594D01*
X045127Y034561D01*
X045162Y034525D01*
X045195Y034486D01*
X045224Y034445D01*
X045250Y034402D01*
X045273Y034357D01*
X045292Y034310D01*
X045307Y034262D01*
X045319Y034213D01*
X045327Y034163D01*
X045331Y034113D01*
X045331Y034063D01*
X045327Y034013D01*
X045319Y033963D01*
X045307Y033914D01*
X045292Y033866D01*
X045273Y033819D01*
X045250Y033774D01*
X045224Y033731D01*
X045195Y033690D01*
X045162Y033651D01*
X045127Y033615D01*
X045089Y033582D01*
X045049Y033552D01*
X045006Y033525D01*
X044961Y033502D01*
X044915Y033482D01*
X044867Y033465D01*
X044819Y033453D01*
X044769Y033444D01*
X044719Y033439D01*
X044668Y033438D01*
X044618Y033441D01*
X044568Y033448D01*
X044519Y033459D01*
X044471Y033473D01*
X044424Y033491D01*
X044378Y033513D01*
X044334Y033538D01*
X044293Y033567D01*
X044254Y033598D01*
X044217Y033633D01*
X044183Y033670D01*
X044152Y033710D01*
X044124Y033752D01*
X044100Y033796D01*
X044079Y033842D01*
X044062Y033890D01*
X044049Y033938D01*
X044039Y033988D01*
X044033Y034038D01*
X044031Y034088D01*
X044281Y016588D02*
X044283Y016638D01*
X044289Y016688D01*
X044299Y016738D01*
X044312Y016786D01*
X044329Y016834D01*
X044350Y016880D01*
X044374Y016924D01*
X044402Y016966D01*
X044433Y017006D01*
X044467Y017043D01*
X044504Y017078D01*
X044543Y017109D01*
X044584Y017138D01*
X044628Y017163D01*
X044674Y017185D01*
X044721Y017203D01*
X044769Y017217D01*
X044818Y017228D01*
X044868Y017235D01*
X044918Y017238D01*
X044969Y017237D01*
X045019Y017232D01*
X045069Y017223D01*
X045117Y017211D01*
X045165Y017194D01*
X045211Y017174D01*
X045256Y017151D01*
X045299Y017124D01*
X045339Y017094D01*
X045377Y017061D01*
X045412Y017025D01*
X045445Y016986D01*
X045474Y016945D01*
X045500Y016902D01*
X045523Y016857D01*
X045542Y016810D01*
X045557Y016762D01*
X045569Y016713D01*
X045577Y016663D01*
X045581Y016613D01*
X045581Y016563D01*
X045577Y016513D01*
X045569Y016463D01*
X045557Y016414D01*
X045542Y016366D01*
X045523Y016319D01*
X045500Y016274D01*
X045474Y016231D01*
X045445Y016190D01*
X045412Y016151D01*
X045377Y016115D01*
X045339Y016082D01*
X045299Y016052D01*
X045256Y016025D01*
X045211Y016002D01*
X045165Y015982D01*
X045117Y015965D01*
X045069Y015953D01*
X045019Y015944D01*
X044969Y015939D01*
X044918Y015938D01*
X044868Y015941D01*
X044818Y015948D01*
X044769Y015959D01*
X044721Y015973D01*
X044674Y015991D01*
X044628Y016013D01*
X044584Y016038D01*
X044543Y016067D01*
X044504Y016098D01*
X044467Y016133D01*
X044433Y016170D01*
X044402Y016210D01*
X044374Y016252D01*
X044350Y016296D01*
X044329Y016342D01*
X044312Y016390D01*
X044299Y016438D01*
X044289Y016488D01*
X044283Y016538D01*
X044281Y016588D01*
D11*
X041651Y006598D03*
X041861Y003648D03*
X040011Y002368D03*
X036861Y003648D03*
X035011Y002368D03*
X031861Y003648D03*
X030011Y002368D03*
X026861Y003648D03*
X025011Y002368D03*
X021861Y003648D03*
X020011Y002368D03*
X016861Y003648D03*
X015011Y002368D03*
X011861Y003648D03*
X010011Y002368D03*
X006861Y003648D03*
X005011Y002368D03*
X006651Y006598D03*
X011651Y006598D03*
X016651Y006598D03*
X021651Y006598D03*
X026651Y006598D03*
X031651Y006598D03*
X036651Y006598D03*
D12*
X038001Y005458D03*
X038991Y004908D03*
X033991Y004908D03*
X033001Y005458D03*
X028991Y004908D03*
X028001Y005458D03*
X023991Y004908D03*
X023001Y005458D03*
X018991Y004908D03*
X018001Y005458D03*
X013991Y004908D03*
X013001Y005458D03*
X008991Y004908D03*
X008001Y005458D03*
X003991Y004908D03*
X003001Y005458D03*
D13*
X019931Y015098D02*
X019931Y015578D01*
X020931Y015578D02*
X020931Y015098D01*
X021931Y015098D02*
X021931Y015578D01*
X022931Y015578D02*
X022931Y015098D01*
X023931Y015098D02*
X023931Y015578D01*
X024931Y015578D02*
X024931Y015098D01*
X025931Y015098D02*
X025931Y015578D01*
X026931Y015578D02*
X026931Y015098D01*
X026931Y018098D02*
X026931Y018578D01*
X025931Y018578D02*
X025931Y018098D01*
X024931Y018098D02*
X024931Y018578D01*
X023931Y018578D02*
X023931Y018098D01*
X022931Y018098D02*
X022931Y018578D01*
X021931Y018578D02*
X021931Y018098D01*
X020931Y018098D02*
X020931Y018578D01*
X019931Y018578D02*
X019931Y018098D01*
X019431Y026223D02*
X019431Y026703D01*
X020431Y026703D02*
X020431Y026223D01*
X021431Y026223D02*
X021431Y026703D01*
X022431Y026703D02*
X022431Y026223D01*
X023431Y026223D02*
X023431Y026703D01*
X024431Y026703D02*
X024431Y026223D01*
X025431Y026223D02*
X025431Y026703D01*
X026431Y026703D02*
X026431Y026223D01*
X027431Y026223D02*
X027431Y026703D01*
X027431Y029223D02*
X027431Y029703D01*
X026431Y029703D02*
X026431Y029223D01*
X025431Y029223D02*
X025431Y029703D01*
X024431Y029703D02*
X024431Y029223D01*
X023431Y029223D02*
X023431Y029703D01*
X022431Y029703D02*
X022431Y029223D01*
X021431Y029223D02*
X021431Y029703D01*
X020431Y029703D02*
X020431Y029223D01*
X019431Y029223D02*
X019431Y029703D01*
X018431Y029703D02*
X018431Y029223D01*
X017431Y029223D02*
X017431Y029703D01*
X016431Y029703D02*
X016431Y029223D01*
X015431Y029223D02*
X015431Y029703D01*
X014431Y029703D02*
X014431Y029223D01*
X014431Y026703D02*
X014431Y026223D01*
X015431Y026223D02*
X015431Y026703D01*
X016431Y026703D02*
X016431Y026223D01*
X017431Y026223D02*
X017431Y026703D01*
X018431Y026703D02*
X018431Y026223D01*
D14*
X018431Y025088D03*
X018431Y023338D03*
X020681Y022713D03*
X021681Y022713D03*
X022931Y022713D03*
X023931Y022713D03*
X029181Y026088D03*
X030431Y026088D03*
X031493Y026088D03*
X032681Y026088D03*
X032681Y030088D03*
X031493Y030088D03*
X030431Y030088D03*
X029181Y030088D03*
X023431Y033713D03*
X021431Y033713D03*
X013181Y031838D03*
X012181Y029338D03*
X012181Y027838D03*
X012056Y026588D03*
X012056Y025338D03*
X014431Y025088D03*
X014431Y023338D03*
X012056Y022838D03*
X012056Y021588D03*
X011056Y020338D03*
X012056Y019088D03*
X012681Y018338D03*
X013806Y017213D03*
X013806Y016088D03*
X012456Y014838D03*
X010456Y014838D03*
X009306Y014838D03*
X007306Y014838D03*
X006931Y011338D03*
X007931Y011338D03*
X007931Y010088D03*
X006931Y010088D03*
X006931Y008838D03*
X007931Y008838D03*
X008931Y007838D03*
X010931Y007838D03*
X011931Y008838D03*
X012931Y009538D03*
X011931Y010088D03*
X011931Y011338D03*
X012931Y011538D03*
X013431Y008088D03*
X017431Y008088D03*
X017931Y008838D03*
X018681Y007838D03*
X020681Y007838D03*
X021431Y007838D03*
X021931Y008838D03*
X022931Y008838D03*
X023431Y007838D03*
X024181Y007838D03*
X026181Y007838D03*
X026931Y008838D03*
X027931Y008838D03*
X028931Y007838D03*
X030931Y007838D03*
X031931Y008838D03*
X032931Y008838D03*
X033931Y007838D03*
X035931Y007838D03*
X036931Y008838D03*
X037931Y008838D03*
X038931Y007838D03*
X040931Y007838D03*
X041931Y008838D03*
X041931Y010088D03*
X041931Y011338D03*
X041931Y012338D03*
X039931Y012338D03*
X038931Y012338D03*
X037931Y011338D03*
X036931Y011338D03*
X036931Y012338D03*
X035931Y012338D03*
X033931Y012338D03*
X032931Y011338D03*
X031931Y011188D03*
X031931Y010088D03*
X032931Y010088D03*
X036931Y010088D03*
X037931Y010088D03*
X030681Y016338D03*
X031181Y017838D03*
X030181Y018338D03*
X029431Y017838D03*
X029431Y018838D03*
X028681Y016338D03*
X033181Y017838D03*
X037056Y018338D03*
X038681Y018838D03*
X037056Y020338D03*
X038681Y022838D03*
X027931Y011188D03*
X026931Y011188D03*
X026931Y010088D03*
X027931Y010088D03*
X023681Y013788D03*
X021681Y013788D03*
X021931Y011188D03*
X022931Y011188D03*
X022931Y010088D03*
X021931Y010088D03*
X017931Y010088D03*
X017931Y011188D03*
X017806Y016088D03*
X015806Y017213D03*
X016681Y018338D03*
X015056Y020338D03*
X008056Y019088D03*
X008056Y021588D03*
X008056Y022838D03*
X008056Y025338D03*
X008056Y026588D03*
X006681Y027588D03*
X008181Y027838D03*
X010181Y029338D03*
X009181Y031838D03*
X002681Y027588D03*
X002931Y011338D03*
X002931Y010088D03*
X002931Y008838D03*
X003931Y007838D03*
X005931Y007838D03*
D15*
X021931Y024463D03*
X023931Y024463D03*
D16*
X027181Y034338D03*
D17*
X027181Y033338D03*
X026181Y033338D03*
X025181Y033338D03*
X025181Y034338D03*
X026181Y034338D03*
D18*
X037431Y014208D02*
X037431Y013468D01*
X038431Y013468D02*
X038431Y014208D01*
X039431Y014208D02*
X039431Y013468D01*
X040431Y013468D02*
X040431Y014208D01*
X041431Y014208D02*
X041431Y013468D01*
X042431Y013468D02*
X042431Y014208D01*
D19*
X007056Y018588D03*
X006556Y017838D03*
X006056Y018588D03*
X002931Y018338D03*
X002931Y019338D03*
X002931Y020588D03*
X002931Y021588D03*
X002931Y022838D03*
X002931Y023838D03*
X002931Y025088D03*
X002931Y026088D03*
X006056Y026088D03*
X006556Y025338D03*
X007056Y026088D03*
X007056Y022338D03*
X006556Y021588D03*
X006056Y022338D03*
X002868Y017088D03*
X002868Y016088D03*
D20*
X007931Y017838D03*
X006056Y020338D03*
X010056Y020338D03*
X011931Y017838D03*
X010056Y024088D03*
X006056Y024088D03*
D21*
X005681Y013193D02*
X005681Y012484D01*
X006681Y012484D02*
X006681Y013193D01*
X007681Y013193D02*
X007681Y012484D01*
X009806Y012484D02*
X009806Y013193D01*
X010806Y013193D02*
X010806Y012484D01*
X011806Y012484D02*
X011806Y013193D01*
X004681Y013193D02*
X004681Y012484D01*
X003681Y012484D02*
X003681Y013193D01*
X002681Y013193D02*
X002681Y012484D01*
D22*
X028681Y013588D03*
X029681Y013588D03*
X030681Y013588D03*
X031681Y013588D03*
X032681Y013588D03*
X033681Y013588D03*
X034681Y013588D03*
X035681Y013588D03*
X035681Y014588D03*
X034681Y014588D03*
X033681Y014588D03*
X032681Y014588D03*
X031681Y014588D03*
X030681Y014588D03*
X029681Y014588D03*
X028681Y014588D03*
X029181Y033268D03*
X030181Y033268D03*
X031181Y033268D03*
X032181Y033268D03*
X033181Y033268D03*
X034181Y033268D03*
X035181Y033268D03*
X035181Y034268D03*
X034181Y034268D03*
X033181Y034268D03*
X032181Y034268D03*
X031181Y034268D03*
X030181Y034268D03*
X029181Y034268D03*
D23*
X026431Y031338D03*
X025431Y031338D03*
X024431Y031338D03*
X023431Y031338D03*
X022431Y031338D03*
X021431Y031338D03*
X019431Y031338D03*
X018431Y031338D03*
X017431Y031338D03*
X016431Y031338D03*
X015431Y031338D03*
X014431Y031338D03*
X014431Y012338D03*
X015431Y012338D03*
X016431Y012338D03*
X017431Y012338D03*
X018431Y012338D03*
X019431Y012338D03*
X020431Y012338D03*
X021431Y012338D03*
X023181Y012338D03*
X024181Y012338D03*
X025181Y012338D03*
X026181Y012338D03*
X027181Y012338D03*
X028181Y012338D03*
X029181Y012338D03*
X030181Y012338D03*
D24*
X028181Y019288D03*
X028181Y019888D03*
D25*
X042381Y020338D02*
X042981Y020338D01*
X042981Y021338D02*
X042381Y021338D01*
X042381Y022338D02*
X042981Y022338D01*
X042981Y023338D02*
X042381Y023338D01*
X042381Y024338D02*
X042981Y024338D01*
X042981Y025338D02*
X042381Y025338D01*
D26*
X028181Y022338D03*
X042681Y010713D03*
X004181Y024338D03*
D27*
X042262Y026746D03*
X042616Y031943D03*
D28*
X037104Y029738D03*
X037104Y027376D03*
D29*
X040962Y029699D03*
X041120Y030132D03*
X041120Y029265D03*
X041277Y028832D03*
X041120Y028399D03*
X041277Y027966D03*
X041120Y027533D03*
X041120Y027100D03*
D30*
X041881Y007838D03*
X042481Y007838D03*
D31*
X007681Y030838D03*
X005681Y030838D03*
X002681Y031338D03*
X002681Y029338D03*
D32*
X002681Y027588D02*
X001931Y026838D01*
X001931Y024838D01*
X002931Y023838D01*
X004806Y022838D02*
X006056Y024088D01*
X005181Y023838D02*
X005181Y026338D01*
X005681Y026838D01*
X007431Y026838D01*
X007681Y026588D01*
X008056Y026588D01*
X005181Y023838D02*
X002931Y021588D01*
X002931Y021588D01*
X004806Y021588D02*
X004806Y022838D01*
X004806Y021588D02*
X006056Y020338D01*
X007931Y017838D02*
X007056Y016963D01*
X005306Y016963D01*
X003681Y015338D01*
X003681Y014213D01*
X003931Y013963D01*
X005431Y013963D01*
X005681Y013713D01*
X006056Y014088D01*
X007431Y014088D01*
X007681Y013838D01*
X007681Y012838D01*
X007931Y011338D02*
X007931Y010088D01*
X005931Y007838D02*
X005931Y005588D01*
X006861Y004658D01*
X006861Y003648D01*
X010931Y005588D02*
X011861Y004658D01*
X011861Y003648D01*
X010931Y005588D02*
X010931Y007838D01*
X012431Y007588D02*
X014181Y005838D01*
X015681Y005838D01*
X016861Y004658D01*
X016861Y003648D01*
X020681Y005838D02*
X021861Y004658D01*
X021861Y003648D01*
X020681Y005838D02*
X020681Y007838D01*
X023431Y007838D02*
X023806Y008213D01*
X023806Y010088D01*
X023306Y010588D01*
X022531Y010588D01*
X021931Y011188D01*
X020431Y012338D02*
X020431Y012888D01*
X018481Y014838D01*
X013181Y014838D01*
X011281Y014288D02*
X010806Y013813D01*
X010806Y012838D01*
X011281Y014288D02*
X018231Y014288D01*
X019431Y013088D01*
X019431Y012338D01*
X017931Y011188D02*
X017931Y010088D01*
X012931Y009538D02*
X012931Y008838D01*
X012431Y008338D01*
X012431Y007588D01*
X005681Y012838D02*
X005681Y013713D01*
X003931Y013963D02*
X003681Y013713D01*
X003681Y012838D01*
X011181Y016338D02*
X011931Y017088D01*
X011931Y017838D01*
X019931Y017713D02*
X019931Y018338D01*
X019931Y017713D02*
X021243Y016401D01*
X027994Y016401D01*
X028743Y017151D01*
X027994Y016401D02*
X027994Y016401D01*
X027681Y016838D02*
X022431Y016838D01*
X021681Y016838D01*
X020931Y017588D01*
X020931Y018338D01*
X027931Y011188D02*
X027931Y010088D01*
X026931Y007838D02*
X026181Y007838D01*
X026931Y007838D02*
X027431Y007338D01*
X027431Y005963D01*
X026861Y005393D01*
X026861Y003648D01*
X030931Y005588D02*
X031861Y004658D01*
X031861Y003648D01*
X030931Y005588D02*
X030931Y007838D01*
X032931Y010088D02*
X032931Y011338D01*
X035931Y007838D02*
X035931Y005588D01*
X036861Y004658D01*
X036861Y003648D01*
X038001Y005458D02*
X038381Y005838D01*
X042181Y005838D01*
X042481Y006138D01*
X042481Y007838D01*
X041881Y007838D02*
X039931Y009788D01*
X039931Y011338D01*
X040431Y011838D01*
X040431Y013838D01*
X037931Y011338D02*
X037931Y010088D01*
D33*
X002214Y001711D02*
X001938Y001870D01*
X001713Y002096D01*
X001554Y002371D01*
X001471Y002679D01*
X001461Y002838D01*
X004629Y002838D01*
X004681Y002890D02*
X004681Y011890D01*
X004563Y011890D02*
X004799Y011890D01*
X005018Y011980D01*
X005181Y012143D01*
X005181Y002971D01*
X005260Y002971D02*
X005078Y002971D01*
X005078Y002436D01*
X004943Y002436D01*
X004943Y002301D01*
X004408Y002301D01*
X004408Y002119D01*
X004761Y001766D01*
X004943Y001766D01*
X004943Y002301D01*
X005078Y002301D01*
X005078Y001766D01*
X005260Y001766D01*
X005613Y002119D01*
X005613Y002301D01*
X005079Y002301D01*
X005079Y002436D01*
X005613Y002436D01*
X005613Y002618D01*
X005260Y002971D01*
X005393Y002838D02*
X009629Y002838D01*
X009681Y002890D02*
X009681Y011892D01*
X009688Y011890D02*
X009924Y011890D01*
X010143Y011980D01*
X010306Y012143D01*
X010469Y011980D01*
X010688Y011890D01*
X010924Y011890D01*
X011143Y011980D01*
X011306Y012143D01*
X011469Y011980D01*
X011688Y011890D01*
X011924Y011890D01*
X012143Y011980D01*
X012310Y012147D01*
X012400Y012366D01*
X012400Y013311D01*
X012310Y013529D01*
X012143Y013696D01*
X011924Y013787D01*
X011688Y013787D01*
X011469Y013696D01*
X011306Y013533D01*
X011170Y013669D01*
X011430Y013928D01*
X013348Y013928D01*
X013348Y013833D01*
X012660Y013145D01*
X012611Y013027D01*
X012611Y012900D01*
X012611Y011897D01*
X012451Y011737D01*
X012451Y011339D01*
X012732Y011058D01*
X012958Y011058D01*
X013111Y010906D01*
X013111Y010018D01*
X012732Y010018D01*
X012451Y009737D01*
X012451Y009339D01*
X012571Y009219D01*
X012571Y008987D01*
X012411Y008827D01*
X012411Y009037D01*
X012130Y009318D01*
X011732Y009318D01*
X011451Y009037D01*
X011451Y008639D01*
X011732Y008358D01*
X012071Y008358D01*
X012071Y007660D01*
X012071Y007517D01*
X012126Y007384D01*
X013876Y005634D01*
X013919Y005591D01*
X013855Y005591D01*
X013683Y005520D01*
X013683Y005594D01*
X013580Y005845D01*
X013388Y006037D01*
X013137Y006141D01*
X012865Y006141D01*
X012614Y006037D01*
X012422Y005845D01*
X012318Y005594D01*
X012318Y005322D01*
X012422Y005072D01*
X012614Y004880D01*
X012865Y004776D01*
X013137Y004776D01*
X013308Y004847D01*
X013308Y004772D01*
X013412Y004522D01*
X013604Y004330D01*
X013855Y004226D01*
X014127Y004226D01*
X014378Y004330D01*
X014570Y004522D01*
X014673Y004772D01*
X014673Y005044D01*
X014570Y005295D01*
X014386Y005478D01*
X015532Y005478D01*
X016501Y004509D01*
X016501Y004253D01*
X016178Y003931D01*
X016178Y003366D01*
X016578Y002966D01*
X017144Y002966D01*
X017543Y003366D01*
X017543Y003931D01*
X017221Y004253D01*
X017221Y004587D01*
X017221Y004730D01*
X017166Y004862D01*
X015885Y006143D01*
X015753Y006198D01*
X015609Y006198D01*
X014330Y006198D01*
X012791Y007737D01*
X012791Y008189D01*
X013111Y008509D01*
X013111Y008447D01*
X012951Y008287D01*
X012951Y007889D01*
X013232Y007608D01*
X013630Y007608D01*
X013911Y007889D01*
X013911Y008287D01*
X013751Y008447D01*
X013751Y010975D01*
X013751Y011102D01*
X013702Y011220D01*
X013411Y011511D01*
X013411Y011737D01*
X013251Y011897D01*
X013251Y012831D01*
X013800Y013380D01*
X013897Y013380D01*
X014065Y013450D01*
X014194Y013579D01*
X014264Y013747D01*
X014264Y013928D01*
X018082Y013928D01*
X019071Y012939D01*
X019071Y012671D01*
X018941Y012541D01*
X018941Y012135D01*
X019111Y011965D01*
X019111Y011825D01*
X019160Y011707D01*
X019250Y011617D01*
X019500Y011367D01*
X019617Y011318D01*
X019745Y011318D01*
X020745Y011318D01*
X020862Y011367D01*
X020952Y011457D01*
X021202Y011707D01*
X021251Y011825D01*
X021251Y011848D01*
X021634Y011848D01*
X021921Y012135D01*
X021921Y012541D01*
X021634Y012828D01*
X021251Y012828D01*
X021251Y013260D01*
X021319Y013329D01*
X021389Y013497D01*
X021389Y013515D01*
X021515Y013388D01*
X021681Y013388D01*
X021847Y013388D01*
X022081Y013623D01*
X022081Y013788D01*
X021681Y013788D01*
X021681Y012781D01*
X021251Y012838D02*
X022261Y012838D01*
X022285Y012895D02*
X022236Y012777D01*
X022236Y011946D01*
X021958Y011668D01*
X021732Y011668D01*
X021451Y011387D01*
X021451Y010989D01*
X021732Y010708D01*
X021902Y010708D01*
X022327Y010283D01*
X022451Y010232D01*
X022451Y009889D01*
X022732Y009608D01*
X023130Y009608D01*
X023411Y009889D01*
X023411Y009974D01*
X023446Y009939D01*
X023446Y008362D01*
X023402Y008318D01*
X023232Y008318D01*
X022951Y008037D01*
X022951Y007639D01*
X023232Y007358D01*
X023630Y007358D01*
X023806Y007534D01*
X023982Y007358D01*
X024380Y007358D01*
X024661Y007639D01*
X024661Y008037D01*
X024380Y008318D01*
X024166Y008318D01*
X024166Y010017D01*
X024166Y010160D01*
X024111Y010292D01*
X023611Y010792D01*
X023510Y010893D01*
X023378Y010948D01*
X023370Y010948D01*
X023411Y010989D01*
X023411Y011356D01*
X023850Y010917D01*
X023967Y010868D01*
X024095Y010868D01*
X026572Y010868D01*
X026732Y010708D01*
X027130Y010708D01*
X027411Y010989D01*
X027411Y011387D01*
X027130Y011668D01*
X026732Y011668D01*
X026572Y011508D01*
X024164Y011508D01*
X024001Y011671D01*
X024001Y011848D01*
X024384Y011848D01*
X024671Y012135D01*
X024671Y012541D01*
X024384Y012828D01*
X024001Y012828D01*
X024001Y013429D01*
X024161Y013589D01*
X024161Y013987D01*
X024001Y014147D01*
X024001Y014206D01*
X024202Y014407D01*
X024251Y014525D01*
X024251Y014652D01*
X024251Y014739D01*
X024338Y014826D01*
X024411Y015003D01*
X024411Y015674D01*
X024338Y015850D01*
X024203Y015985D01*
X024068Y016041D01*
X024793Y016041D01*
X024659Y015985D01*
X024524Y015850D01*
X024451Y015674D01*
X024451Y015003D01*
X024524Y014826D01*
X024659Y014691D01*
X024835Y014618D01*
X025026Y014618D01*
X025203Y014691D01*
X025338Y014826D01*
X025411Y015003D01*
X025411Y015366D01*
X025451Y015406D01*
X025451Y015003D01*
X025524Y014826D01*
X025631Y014719D01*
X025631Y014398D01*
X025631Y014279D01*
X025677Y014168D01*
X027017Y012828D01*
X026978Y012828D01*
X026691Y012541D01*
X026691Y012135D01*
X026978Y011848D01*
X027384Y011848D01*
X027671Y012135D01*
X027671Y012538D01*
X027691Y012538D01*
X027691Y012135D01*
X027978Y011848D01*
X028384Y011848D01*
X028671Y012135D01*
X028671Y012538D01*
X028691Y012538D01*
X028691Y012135D01*
X028978Y011848D01*
X029384Y011848D01*
X029671Y012135D01*
X029671Y012538D01*
X029691Y012538D01*
X029691Y012135D01*
X029978Y011848D01*
X030384Y011848D01*
X030671Y012135D01*
X030671Y012538D01*
X032307Y012538D01*
X033027Y011818D01*
X032732Y011818D01*
X032451Y011537D01*
X032451Y011139D01*
X032571Y011019D01*
X032571Y010407D01*
X032451Y010287D01*
X032451Y009889D01*
X032732Y009608D01*
X033130Y009608D01*
X033411Y009889D01*
X033411Y010287D01*
X033291Y010407D01*
X033291Y011019D01*
X033411Y011139D01*
X033411Y011449D01*
X033496Y011413D01*
X033616Y011413D01*
X035366Y011413D01*
X035476Y011459D01*
X035560Y011543D01*
X035875Y011858D01*
X036130Y011858D01*
X036411Y012139D01*
X036411Y012537D01*
X036130Y012818D01*
X035732Y012818D01*
X035451Y012537D01*
X035451Y012282D01*
X035182Y012013D01*
X034171Y012013D01*
X034331Y012173D01*
X034331Y012338D01*
X033931Y012338D01*
X033931Y012338D01*
X035451Y012338D01*
X035181Y012013D02*
X035181Y013325D01*
X035457Y013048D01*
X035905Y013048D01*
X036099Y013243D01*
X036168Y013079D01*
X036296Y012950D01*
X036465Y012880D01*
X036647Y012880D01*
X036815Y012950D01*
X036944Y013079D01*
X036948Y013088D01*
X037085Y012951D01*
X037310Y012858D01*
X037552Y012858D01*
X037776Y012951D01*
X037931Y013106D01*
X038085Y012951D01*
X038310Y012858D01*
X038552Y012858D01*
X038776Y012951D01*
X038931Y013106D01*
X039085Y012951D01*
X039310Y012858D01*
X039552Y012858D01*
X039776Y012951D01*
X039931Y013106D01*
X040071Y012966D01*
X040071Y012738D01*
X039931Y012738D01*
X039931Y012339D01*
X039931Y012339D01*
X039931Y012738D01*
X039765Y012738D01*
X039531Y012504D01*
X039531Y012338D01*
X039531Y012173D01*
X039765Y011938D01*
X039931Y011938D01*
X040022Y011938D01*
X039727Y011643D01*
X039626Y011542D01*
X039571Y011410D01*
X039571Y009860D01*
X039571Y009717D01*
X039626Y009584D01*
X040892Y008318D01*
X040732Y008318D01*
X040451Y008037D01*
X040451Y007639D01*
X040732Y007358D01*
X041130Y007358D01*
X041411Y007639D01*
X041411Y007799D01*
X041411Y007476D01*
X041447Y007387D01*
X041515Y007320D01*
X041603Y007283D01*
X042121Y007283D01*
X042121Y007093D01*
X041934Y007281D01*
X041368Y007281D01*
X040968Y006881D01*
X040968Y006316D01*
X041086Y006198D01*
X038453Y006198D01*
X038309Y006198D01*
X038177Y006143D01*
X038163Y006130D01*
X038137Y006141D01*
X037865Y006141D01*
X037614Y006037D01*
X037422Y005845D01*
X037318Y005594D01*
X037318Y005322D01*
X037422Y005072D01*
X037614Y004880D01*
X037865Y004776D01*
X038137Y004776D01*
X038308Y004847D01*
X038308Y004772D01*
X038412Y004522D01*
X038604Y004330D01*
X038855Y004226D01*
X039127Y004226D01*
X039378Y004330D01*
X039570Y004522D01*
X039673Y004772D01*
X039673Y005044D01*
X039570Y005295D01*
X039386Y005478D01*
X042253Y005478D01*
X042385Y005533D01*
X042486Y005634D01*
X042786Y005934D01*
X042841Y006067D01*
X042841Y006210D01*
X042841Y007317D01*
X042847Y007320D01*
X042914Y007387D01*
X042951Y007476D01*
X042951Y008201D01*
X042914Y008289D01*
X042847Y008357D01*
X042759Y008393D01*
X042203Y008393D01*
X042181Y008384D01*
X042181Y008409D01*
X042181Y008384D02*
X042163Y008391D01*
X042411Y008639D01*
X042411Y009037D01*
X042130Y009318D01*
X041903Y009318D01*
X041751Y009471D01*
X041751Y009703D01*
X041765Y009688D01*
X041931Y009688D01*
X042097Y009688D01*
X042331Y009923D01*
X042331Y010088D01*
X041931Y010088D01*
X041931Y009688D01*
X041931Y010088D01*
X041931Y010088D01*
X041931Y010088D01*
X042331Y010088D01*
X042331Y010254D01*
X042097Y010488D01*
X041931Y010488D01*
X041931Y010089D01*
X041931Y010089D01*
X041931Y010488D01*
X041765Y010488D01*
X041751Y010474D01*
X041751Y010858D01*
X042130Y010858D01*
X042184Y010913D01*
X042146Y010820D01*
X042146Y010607D01*
X042227Y010410D01*
X042378Y010259D01*
X042574Y010178D01*
X042787Y010178D01*
X042984Y010259D01*
X043135Y010410D01*
X043216Y010607D01*
X043216Y010820D01*
X043135Y011016D01*
X042984Y011167D01*
X042787Y011249D01*
X042574Y011249D01*
X042411Y011181D01*
X042411Y011537D01*
X042130Y011818D01*
X041863Y011818D01*
X041903Y011858D01*
X042130Y011858D01*
X042411Y012139D01*
X042411Y012537D01*
X042130Y012818D01*
X041732Y012818D01*
X041451Y012537D01*
X041451Y012311D01*
X041250Y012110D01*
X041250Y012110D01*
X041160Y012020D01*
X041111Y011902D01*
X041111Y009402D01*
X041111Y009275D01*
X041160Y009157D01*
X041451Y008866D01*
X041451Y008777D01*
X040291Y009937D01*
X040291Y011189D01*
X040635Y011533D01*
X040736Y011634D01*
X040791Y011767D01*
X040791Y012966D01*
X040931Y013106D01*
X041085Y012951D01*
X041310Y012858D01*
X041552Y012858D01*
X041776Y012951D01*
X041931Y013106D01*
X042085Y012951D01*
X042310Y012858D01*
X042552Y012858D01*
X042776Y012951D01*
X042948Y013123D01*
X043041Y013347D01*
X043041Y014330D01*
X042948Y014554D01*
X042776Y014725D01*
X042751Y014736D01*
X042751Y018456D01*
X043633Y019338D01*
X045901Y019338D01*
X045901Y016903D01*
X045895Y016939D01*
X045717Y017247D01*
X045717Y017247D01*
X045444Y017476D01*
X045444Y017476D01*
X045109Y017598D01*
X044987Y017598D01*
X044960Y017598D01*
X044931Y017598D01*
X044875Y017598D01*
X044753Y017598D01*
X044753Y017598D01*
X044418Y017476D01*
X044145Y017247D01*
X043967Y016939D01*
X043905Y016588D01*
X043967Y016238D01*
X043967Y016237D01*
X044145Y015929D01*
X044418Y015700D01*
X044753Y015578D01*
X044875Y015578D01*
X044931Y015578D01*
X044932Y015578D01*
X044987Y015578D01*
X045109Y015578D01*
X045444Y015700D01*
X045716Y015929D01*
X045717Y015929D01*
X045895Y016237D01*
X045895Y016238D01*
X045901Y016274D01*
X045901Y002894D01*
X045901Y002838D01*
X045891Y002679D01*
X045808Y002371D01*
X045649Y002096D01*
X045424Y001870D01*
X045148Y001711D01*
X044840Y001629D01*
X044681Y001618D01*
X044625Y001618D01*
X002737Y001618D01*
X002681Y001618D01*
X002681Y004852D01*
X002714Y004838D02*
X001461Y004838D01*
X001461Y005338D02*
X002318Y005338D01*
X002318Y005322D02*
X002422Y005072D01*
X002614Y004880D01*
X002865Y004776D01*
X003137Y004776D01*
X003308Y004847D01*
X003308Y004772D01*
X003412Y004522D01*
X003604Y004330D01*
X003855Y004226D01*
X004127Y004226D01*
X004378Y004330D01*
X004570Y004522D01*
X004673Y004772D01*
X004673Y005044D01*
X004570Y005295D01*
X004378Y005487D01*
X004127Y005591D01*
X003855Y005591D01*
X003683Y005520D01*
X003683Y005594D01*
X003580Y005845D01*
X003388Y006037D01*
X003137Y006141D01*
X002865Y006141D01*
X002614Y006037D01*
X002422Y005845D01*
X002318Y005594D01*
X002318Y005322D01*
X002420Y005838D02*
X001461Y005838D01*
X001461Y006338D02*
X005571Y006338D01*
X005571Y006838D02*
X001461Y006838D01*
X001461Y007338D02*
X005571Y007338D01*
X005571Y007519D02*
X005571Y005660D01*
X005571Y005517D01*
X005626Y005384D01*
X006501Y004509D01*
X006501Y004253D01*
X006178Y003931D01*
X006178Y003366D01*
X006578Y002966D01*
X007144Y002966D01*
X007543Y003366D01*
X007543Y003931D01*
X007221Y004253D01*
X007221Y004587D01*
X007221Y004730D01*
X007166Y004862D01*
X006291Y005737D01*
X006291Y005993D01*
X006368Y005916D01*
X006934Y005916D01*
X007333Y006316D01*
X007333Y006881D01*
X006934Y007281D01*
X006368Y007281D01*
X006291Y007203D01*
X006291Y007519D01*
X006411Y007639D01*
X006411Y008037D01*
X006130Y008318D01*
X005732Y008318D01*
X005451Y008037D01*
X005451Y007639D01*
X005571Y007519D01*
X005451Y007838D02*
X004411Y007838D01*
X004411Y007639D02*
X004411Y008037D01*
X004130Y008318D01*
X003732Y008318D01*
X003451Y008037D01*
X003451Y007639D01*
X003732Y007358D01*
X004130Y007358D01*
X004411Y007639D01*
X004181Y007409D02*
X004181Y005568D01*
X004526Y005338D02*
X005672Y005338D01*
X005681Y005329D02*
X005681Y001618D01*
X005333Y001838D02*
X009689Y001838D01*
X009681Y001846D02*
X009681Y001618D01*
X009761Y001766D02*
X009408Y002119D01*
X009408Y002301D01*
X009943Y002301D01*
X009943Y002436D01*
X009408Y002436D01*
X009408Y002618D01*
X009761Y002971D01*
X009943Y002971D01*
X009943Y002436D01*
X010078Y002436D01*
X010078Y002971D01*
X010260Y002971D01*
X010613Y002618D01*
X010613Y002436D01*
X010079Y002436D01*
X010079Y002301D01*
X010613Y002301D01*
X010613Y002119D01*
X010260Y001766D01*
X010078Y001766D01*
X010078Y002301D01*
X009943Y002301D01*
X009943Y001766D01*
X009761Y001766D01*
X009943Y001838D02*
X010078Y001838D01*
X010181Y001766D02*
X010181Y001618D01*
X010333Y001838D02*
X014689Y001838D01*
X014681Y001846D02*
X014681Y001618D01*
X014761Y001766D02*
X014408Y002119D01*
X014408Y002301D01*
X014943Y002301D01*
X014943Y002436D01*
X014408Y002436D01*
X014408Y002618D01*
X014761Y002971D01*
X014943Y002971D01*
X014943Y002436D01*
X015078Y002436D01*
X015078Y002971D01*
X015260Y002971D01*
X015613Y002618D01*
X015613Y002436D01*
X015079Y002436D01*
X015079Y002301D01*
X015613Y002301D01*
X015613Y002119D01*
X015260Y001766D01*
X015078Y001766D01*
X015078Y002301D01*
X014943Y002301D01*
X014943Y001766D01*
X014761Y001766D01*
X014943Y001838D02*
X015078Y001838D01*
X015181Y001766D02*
X015181Y001618D01*
X015333Y001838D02*
X019689Y001838D01*
X019681Y001846D02*
X019681Y001618D01*
X019761Y001766D02*
X019408Y002119D01*
X019408Y002301D01*
X019943Y002301D01*
X019943Y002436D01*
X019408Y002436D01*
X019408Y002618D01*
X019761Y002971D01*
X019943Y002971D01*
X019943Y002436D01*
X020078Y002436D01*
X020078Y002971D01*
X020260Y002971D01*
X020613Y002618D01*
X020613Y002436D01*
X020079Y002436D01*
X020079Y002301D01*
X020613Y002301D01*
X020613Y002119D01*
X020260Y001766D01*
X020078Y001766D01*
X020078Y002301D01*
X019943Y002301D01*
X019943Y001766D01*
X019761Y001766D01*
X019943Y001838D02*
X020078Y001838D01*
X020181Y001766D02*
X020181Y001618D01*
X020333Y001838D02*
X024689Y001838D01*
X024681Y001846D02*
X024681Y001618D01*
X024761Y001766D02*
X024408Y002119D01*
X024408Y002301D01*
X024943Y002301D01*
X024943Y002436D01*
X024408Y002436D01*
X024408Y002618D01*
X024761Y002971D01*
X024943Y002971D01*
X024943Y002436D01*
X025078Y002436D01*
X025078Y002971D01*
X025260Y002971D01*
X025613Y002618D01*
X025613Y002436D01*
X025079Y002436D01*
X025079Y002301D01*
X025613Y002301D01*
X025613Y002119D01*
X025260Y001766D01*
X025078Y001766D01*
X025078Y002301D01*
X024943Y002301D01*
X024943Y001766D01*
X024761Y001766D01*
X024943Y001838D02*
X025078Y001838D01*
X025181Y001766D02*
X025181Y001618D01*
X025333Y001838D02*
X029689Y001838D01*
X029681Y001846D02*
X029681Y001618D01*
X029761Y001766D02*
X029408Y002119D01*
X029408Y002301D01*
X029943Y002301D01*
X029943Y002436D01*
X029408Y002436D01*
X029408Y002618D01*
X029761Y002971D01*
X029943Y002971D01*
X029943Y002436D01*
X030078Y002436D01*
X030078Y002971D01*
X030260Y002971D01*
X030613Y002618D01*
X030613Y002436D01*
X030079Y002436D01*
X030079Y002301D01*
X030613Y002301D01*
X030613Y002119D01*
X030260Y001766D01*
X030078Y001766D01*
X030078Y002301D01*
X029943Y002301D01*
X029943Y001766D01*
X029761Y001766D01*
X029943Y001838D02*
X030078Y001838D01*
X030181Y001766D02*
X030181Y001618D01*
X030333Y001838D02*
X034689Y001838D01*
X034681Y001846D02*
X034681Y001618D01*
X034761Y001766D02*
X034408Y002119D01*
X034408Y002301D01*
X034943Y002301D01*
X034943Y002436D01*
X034408Y002436D01*
X034408Y002618D01*
X034761Y002971D01*
X034943Y002971D01*
X034943Y002436D01*
X035078Y002436D01*
X035078Y002971D01*
X035260Y002971D01*
X035613Y002618D01*
X035613Y002436D01*
X035079Y002436D01*
X035079Y002301D01*
X035613Y002301D01*
X035613Y002119D01*
X035260Y001766D01*
X035078Y001766D01*
X035078Y002301D01*
X034943Y002301D01*
X034943Y001766D01*
X034761Y001766D01*
X034943Y001838D02*
X035078Y001838D01*
X035181Y001766D02*
X035181Y001618D01*
X035333Y001838D02*
X039689Y001838D01*
X039681Y001846D02*
X039681Y001618D01*
X039761Y001766D02*
X039408Y002119D01*
X039408Y002301D01*
X039943Y002301D01*
X039943Y002436D01*
X039408Y002436D01*
X039408Y002618D01*
X039761Y002971D01*
X039943Y002971D01*
X039943Y002436D01*
X040078Y002436D01*
X040078Y002971D01*
X040260Y002971D01*
X040613Y002618D01*
X040613Y002436D01*
X040079Y002436D01*
X040079Y002301D01*
X040613Y002301D01*
X040613Y002119D01*
X040260Y001766D01*
X040078Y001766D01*
X040078Y002301D01*
X039943Y002301D01*
X039943Y001766D01*
X039761Y001766D01*
X039943Y001838D02*
X040078Y001838D01*
X040181Y001766D02*
X040181Y001618D01*
X040333Y001838D02*
X045368Y001838D01*
X045181Y001730D02*
X045181Y015604D01*
X045109Y015578D02*
X045109Y015578D01*
X044987Y015578D02*
X044987Y015578D01*
X044875Y015578D02*
X044875Y015578D01*
X044753Y015578D02*
X044753Y015578D01*
X044681Y015604D02*
X044681Y001618D01*
X044181Y001618D02*
X044181Y015899D01*
X044145Y015929D02*
X044145Y015929D01*
X044254Y015838D02*
X042751Y015838D01*
X042751Y015338D02*
X045901Y015338D01*
X045901Y014838D02*
X042751Y014838D01*
X043037Y014338D02*
X045901Y014338D01*
X045901Y013838D02*
X043041Y013838D01*
X043037Y013338D02*
X045901Y013338D01*
X045901Y012838D02*
X040791Y012838D01*
X041181Y012912D02*
X041181Y012041D01*
X041111Y011838D02*
X040791Y011838D01*
X040681Y011579D02*
X040681Y009547D01*
X040890Y009338D02*
X041111Y009338D01*
X041181Y009136D02*
X041181Y009047D01*
X041390Y008838D02*
X041451Y008838D01*
X041931Y008838D02*
X041431Y009338D01*
X041431Y011838D01*
X041931Y012338D01*
X041931Y012338D01*
X042411Y012338D02*
X045901Y012338D01*
X045901Y011838D02*
X041883Y011838D01*
X042181Y011767D02*
X042181Y011909D01*
X042411Y011338D02*
X045901Y011338D01*
X045901Y010838D02*
X043209Y010838D01*
X043181Y010905D02*
X043181Y018886D01*
X043134Y018838D02*
X045901Y018838D01*
X045901Y018338D02*
X042751Y018338D01*
X042431Y018588D02*
X044181Y020338D01*
X044181Y019838D02*
X044181Y021018D01*
X044245Y021018D02*
X044362Y021067D01*
X044452Y021157D01*
X044702Y021407D01*
X044751Y021525D01*
X044751Y021652D01*
X044751Y029152D01*
X044702Y029270D01*
X044612Y029360D01*
X044002Y029970D01*
X043884Y030018D01*
X043757Y030018D01*
X041655Y030018D01*
X041655Y030317D01*
X041619Y030405D01*
X041551Y030473D01*
X041463Y030509D01*
X040777Y030509D01*
X040689Y030473D01*
X040621Y030405D01*
X040585Y030317D01*
X040585Y030062D01*
X040531Y030040D01*
X040464Y029972D01*
X040427Y029884D01*
X040427Y029585D01*
X040139Y029585D01*
X040139Y029679D01*
X040069Y029848D01*
X039940Y029977D01*
X039772Y030046D01*
X039590Y030046D01*
X039421Y029977D01*
X039293Y029848D01*
X039223Y029679D01*
X039223Y029497D01*
X039293Y029329D01*
X039421Y029200D01*
X039536Y029152D01*
X037449Y029152D01*
X037516Y029180D01*
X037583Y029248D01*
X037620Y029336D01*
X037620Y030140D01*
X037583Y030228D01*
X037516Y030296D01*
X037427Y030332D01*
X036781Y030332D01*
X036693Y030296D01*
X036625Y030228D01*
X036589Y030140D01*
X036589Y029336D01*
X036625Y029248D01*
X036693Y029180D01*
X036760Y029152D01*
X036239Y029152D01*
X036111Y029152D01*
X035994Y029104D01*
X035500Y028610D01*
X035410Y028520D01*
X035361Y028402D01*
X035361Y025166D01*
X035293Y025098D01*
X035223Y024929D01*
X035223Y024747D01*
X035293Y024579D01*
X035421Y024450D01*
X035590Y024380D01*
X035772Y024380D01*
X035940Y024450D01*
X036069Y024579D01*
X036139Y024747D01*
X036139Y024929D01*
X036069Y025098D01*
X036001Y025166D01*
X036001Y028206D01*
X036308Y028512D01*
X040585Y028512D01*
X040585Y028214D01*
X040621Y028126D01*
X040689Y028058D01*
X040777Y028021D01*
X040822Y028021D01*
X040822Y027966D01*
X040822Y027911D01*
X040777Y027911D01*
X040689Y027874D01*
X040621Y027807D01*
X040585Y027719D01*
X040585Y027348D01*
X040598Y027317D01*
X040585Y027286D01*
X040585Y026915D01*
X040621Y026826D01*
X040689Y026759D01*
X040777Y026722D01*
X041463Y026722D01*
X041551Y026759D01*
X041619Y026826D01*
X041655Y026915D01*
X041655Y027213D01*
X042603Y027213D01*
X042635Y027181D01*
X042319Y027181D01*
X042319Y026804D01*
X042204Y026804D01*
X042204Y027181D01*
X041867Y027181D01*
X041826Y027170D01*
X041789Y027149D01*
X041760Y027120D01*
X041739Y027083D01*
X041728Y027042D01*
X041728Y026804D01*
X042204Y026804D01*
X042204Y026688D01*
X042319Y026688D01*
X042319Y026310D01*
X042657Y026310D01*
X042697Y026321D01*
X042723Y026336D01*
X042723Y026247D01*
X042793Y026079D01*
X042921Y025950D01*
X043090Y025880D01*
X043272Y025880D01*
X043440Y025950D01*
X043569Y026079D01*
X043611Y026179D01*
X043611Y024721D01*
X043548Y024658D01*
X043425Y024658D01*
X043287Y024796D01*
X043185Y024838D01*
X043611Y024838D01*
X043439Y025032D02*
X043521Y025231D01*
X043521Y025446D01*
X043439Y025644D01*
X043287Y025796D01*
X043088Y025878D01*
X042274Y025878D01*
X042075Y025796D01*
X041923Y025644D01*
X041841Y025446D01*
X041841Y025231D01*
X041923Y025032D01*
X042075Y024880D01*
X042177Y024838D01*
X042075Y024796D01*
X041937Y024658D01*
X041245Y024658D01*
X041117Y024658D01*
X041000Y024610D01*
X040139Y023749D01*
X040139Y023804D01*
X040069Y023973D01*
X040001Y024041D01*
X040001Y027510D01*
X040069Y027579D01*
X040139Y027747D01*
X040139Y027929D01*
X040069Y028098D01*
X039940Y028227D01*
X039772Y028296D01*
X039590Y028296D01*
X039421Y028227D01*
X039293Y028098D01*
X039223Y027929D01*
X039223Y027747D01*
X039293Y027579D01*
X039361Y027510D01*
X039361Y024041D01*
X039353Y024033D01*
X035509Y024033D01*
X035440Y024102D01*
X035272Y024171D01*
X035090Y024171D01*
X035001Y024134D01*
X035001Y027760D01*
X035069Y027829D01*
X035139Y027997D01*
X035139Y028179D01*
X035069Y028348D01*
X034940Y028477D01*
X034772Y028546D01*
X034590Y028546D01*
X034501Y028509D01*
X034501Y030525D01*
X034501Y030652D01*
X034452Y030770D01*
X033862Y031360D01*
X033112Y032110D01*
X032995Y032158D01*
X032867Y032158D01*
X028689Y032158D01*
X028501Y032346D01*
X028501Y034525D01*
X028501Y034652D01*
X028452Y034770D01*
X027952Y035270D01*
X027862Y035360D01*
X027745Y035408D01*
X021759Y035408D01*
X021690Y035477D01*
X021522Y035546D01*
X021340Y035546D01*
X021171Y035477D01*
X021043Y035348D01*
X020973Y035179D01*
X020973Y034997D01*
X021043Y034829D01*
X021171Y034700D01*
X021340Y034630D01*
X021522Y034630D01*
X021690Y034700D01*
X021759Y034768D01*
X024748Y034768D01*
X024571Y034591D01*
X024571Y034128D01*
X024515Y034128D01*
X024491Y034138D01*
X024371Y034138D01*
X024261Y034093D01*
X023831Y033662D01*
X023831Y033713D01*
X023431Y033713D01*
X023431Y033313D01*
X023482Y033313D01*
X022677Y032508D01*
X022631Y032398D01*
X022631Y032279D01*
X022631Y031718D01*
X022601Y031748D01*
X022431Y031748D01*
X022431Y031339D01*
X022431Y031339D01*
X022431Y031748D01*
X022261Y031748D01*
X022251Y031738D01*
X022251Y032260D01*
X022319Y032329D01*
X022389Y032497D01*
X022389Y032679D01*
X022319Y032848D01*
X022190Y032977D01*
X022022Y033046D01*
X021840Y033046D01*
X021671Y032977D01*
X021543Y032848D01*
X021473Y032679D01*
X021473Y032497D01*
X021543Y032329D01*
X021611Y032260D01*
X021611Y031828D01*
X021228Y031828D01*
X020941Y031541D01*
X020941Y031301D01*
X020798Y031158D01*
X019921Y031158D01*
X019921Y031541D01*
X019634Y031828D01*
X019228Y031828D01*
X018941Y031541D01*
X018941Y031158D01*
X018921Y031158D01*
X018921Y031541D01*
X018634Y031828D01*
X018228Y031828D01*
X017941Y031541D01*
X017941Y031158D01*
X017921Y031158D01*
X017921Y031541D01*
X017634Y031828D01*
X017228Y031828D01*
X016941Y031541D01*
X016941Y031158D01*
X016921Y031158D01*
X016921Y031541D01*
X016634Y031828D01*
X016228Y031828D01*
X015941Y031541D01*
X015941Y031158D01*
X015921Y031158D01*
X015921Y031541D01*
X015634Y031828D01*
X015228Y031828D01*
X014941Y031541D01*
X014941Y031158D01*
X014921Y031158D01*
X014921Y031541D01*
X014634Y031828D01*
X014228Y031828D01*
X013941Y031541D01*
X013941Y031158D01*
X013745Y031158D01*
X013617Y031158D01*
X013500Y031110D01*
X012910Y030520D01*
X012861Y030402D01*
X012861Y030275D01*
X012861Y029096D01*
X012548Y028783D01*
X011742Y028783D01*
X011625Y028735D01*
X011535Y028645D01*
X010910Y028020D01*
X010861Y027902D01*
X010861Y027775D01*
X010861Y025971D01*
X010548Y025658D01*
X009117Y025658D01*
X009000Y025610D01*
X008910Y025520D01*
X008536Y025146D01*
X008536Y025537D01*
X008255Y025818D01*
X007857Y025818D01*
X007576Y025537D01*
X007576Y025139D01*
X007857Y024858D01*
X008248Y024858D01*
X007798Y024408D01*
X006605Y024408D01*
X006590Y024445D01*
X006413Y024622D01*
X006181Y024718D01*
X006181Y024851D01*
X006193Y024838D02*
X005541Y024838D01*
X005699Y024622D02*
X005541Y024464D01*
X005541Y025741D01*
X005710Y025571D01*
X005935Y025478D01*
X005954Y025478D01*
X005946Y025460D01*
X005946Y025217D01*
X006039Y024993D01*
X006210Y024821D01*
X006435Y024728D01*
X006677Y024728D01*
X006901Y024821D01*
X007073Y024993D01*
X007166Y025217D01*
X007166Y025460D01*
X007123Y025562D01*
X007180Y025571D01*
X007259Y025597D01*
X007334Y025635D01*
X007401Y025684D01*
X007460Y025743D01*
X007509Y025810D01*
X007547Y025885D01*
X007573Y025964D01*
X007586Y026047D01*
X007586Y026088D01*
X007056Y026088D01*
X007056Y026088D01*
X007586Y026088D01*
X007586Y026130D01*
X007573Y026212D01*
X007561Y026248D01*
X007609Y026228D01*
X007737Y026228D01*
X007857Y026108D01*
X008255Y026108D01*
X008536Y026389D01*
X008536Y026787D01*
X008255Y027068D01*
X007857Y027068D01*
X007784Y026995D01*
X007635Y027143D01*
X007503Y027198D01*
X007359Y027198D01*
X006970Y027198D01*
X007161Y027389D01*
X007161Y027616D01*
X007862Y028317D01*
X007952Y028407D01*
X008001Y028525D01*
X008001Y030395D01*
X008139Y030532D01*
X008221Y030731D01*
X008221Y030946D01*
X008139Y031144D01*
X007987Y031296D01*
X007788Y031378D01*
X007574Y031378D01*
X007375Y031296D01*
X007223Y031144D01*
X007141Y030946D01*
X007141Y030731D01*
X007223Y030532D01*
X007361Y030395D01*
X007361Y028721D01*
X006708Y028068D01*
X006482Y028068D01*
X006201Y027787D01*
X006201Y027389D01*
X006392Y027198D01*
X005609Y027198D01*
X005477Y027143D01*
X005376Y027042D01*
X005001Y026667D01*
X005001Y031206D01*
X005314Y031518D01*
X008822Y031518D01*
X008982Y031358D01*
X009380Y031358D01*
X009661Y031639D01*
X009661Y032037D01*
X009380Y032318D01*
X008982Y032318D01*
X008822Y032158D01*
X005117Y032158D01*
X005000Y032110D01*
X004910Y032020D01*
X004410Y031520D01*
X004361Y031402D01*
X004361Y031275D01*
X004361Y026721D01*
X004048Y026408D01*
X003459Y026408D01*
X003448Y026434D01*
X003276Y026605D01*
X003052Y026698D01*
X002810Y026698D01*
X002585Y026605D01*
X002414Y026434D01*
X002321Y026210D01*
X002321Y025967D01*
X002414Y025743D01*
X002585Y025571D01*
X002655Y025542D01*
X002653Y025542D01*
X002586Y025492D01*
X002527Y025434D01*
X002478Y025366D01*
X002440Y025292D01*
X002414Y025212D01*
X002401Y025130D01*
X002401Y025088D01*
X002401Y025047D01*
X002414Y024964D01*
X002440Y024885D01*
X002478Y024810D01*
X002504Y024774D01*
X002291Y024987D01*
X002291Y026689D01*
X002710Y027108D01*
X002880Y027108D01*
X003161Y027389D01*
X003161Y027787D01*
X002880Y028068D01*
X002482Y028068D01*
X002201Y027787D01*
X002201Y027617D01*
X001727Y027143D01*
X001626Y027042D01*
X001571Y026910D01*
X001571Y024910D01*
X001571Y024767D01*
X001626Y024634D01*
X002321Y023939D01*
X002321Y023717D01*
X002414Y023493D01*
X002585Y023321D01*
X002655Y023292D01*
X002653Y023292D01*
X002586Y023242D01*
X002527Y023184D01*
X002478Y023116D01*
X002440Y023042D01*
X002414Y022962D01*
X002401Y022880D01*
X002401Y022838D01*
X002401Y022797D01*
X002414Y022714D01*
X002440Y022635D01*
X002478Y022560D01*
X002527Y022493D01*
X002586Y022434D01*
X002653Y022385D01*
X002727Y022347D01*
X002807Y022321D01*
X002889Y022308D01*
X002931Y022308D01*
X002973Y022308D01*
X003055Y022321D01*
X003134Y022347D01*
X003209Y022385D01*
X003245Y022411D01*
X003032Y022198D01*
X002810Y022198D01*
X002585Y022105D01*
X002414Y021934D01*
X002321Y021710D01*
X002321Y021467D01*
X002414Y021243D01*
X002585Y021071D01*
X002655Y021042D01*
X002653Y021042D01*
X002586Y020992D01*
X002527Y020934D01*
X002478Y020866D01*
X002440Y020792D01*
X002414Y020712D01*
X002401Y020630D01*
X002401Y020588D01*
X002401Y020547D01*
X002414Y020464D01*
X002440Y020385D01*
X002478Y020310D01*
X002527Y020243D01*
X002586Y020184D01*
X002653Y020135D01*
X002728Y020097D01*
X002807Y020071D01*
X002889Y020058D01*
X002931Y020058D01*
X002973Y020058D01*
X003055Y020071D01*
X003134Y020097D01*
X003209Y020135D01*
X003276Y020184D01*
X003335Y020243D01*
X003384Y020310D01*
X003422Y020385D01*
X003448Y020464D01*
X003461Y020547D01*
X003461Y020588D01*
X002931Y020588D01*
X002931Y020058D01*
X002931Y020588D01*
X002931Y020588D01*
X002931Y020588D01*
X002401Y020588D01*
X002931Y020588D01*
X002931Y020588D01*
X003461Y020588D01*
X003461Y020630D01*
X003448Y020712D01*
X003422Y020792D01*
X003384Y020866D01*
X003335Y020934D01*
X003276Y020992D01*
X003209Y021042D01*
X003207Y021042D01*
X003276Y021071D01*
X003448Y021243D01*
X003541Y021467D01*
X003541Y021689D01*
X004446Y022594D01*
X004446Y021517D01*
X004501Y021384D01*
X004602Y021283D01*
X005426Y020459D01*
X005426Y020213D01*
X005522Y019981D01*
X005602Y019902D01*
X005500Y019860D01*
X004910Y019270D01*
X004861Y019152D01*
X004861Y019025D01*
X004861Y017721D01*
X004548Y017408D01*
X003396Y017408D01*
X003386Y017434D01*
X003214Y017605D01*
X002990Y017698D01*
X002747Y017698D01*
X002523Y017605D01*
X002351Y017434D01*
X002258Y017210D01*
X002258Y016967D01*
X002351Y016743D01*
X002523Y016571D01*
X002592Y016542D01*
X002591Y016542D01*
X002523Y016492D01*
X002464Y016434D01*
X002415Y016366D01*
X002377Y016292D01*
X002351Y016212D01*
X002338Y016130D01*
X002338Y016088D01*
X002338Y016047D01*
X002351Y015964D01*
X002377Y015885D01*
X002415Y015810D01*
X002464Y015743D01*
X002523Y015684D01*
X002591Y015635D01*
X002665Y015597D01*
X002744Y015571D01*
X002827Y015558D01*
X002868Y015558D01*
X002868Y016088D01*
X002338Y016088D01*
X002868Y016088D01*
X002868Y016088D01*
X002869Y016088D01*
X002869Y016088D01*
X003398Y016088D01*
X003398Y016047D01*
X003385Y015964D01*
X003360Y015885D01*
X003322Y015810D01*
X003273Y015743D01*
X003214Y015684D01*
X003146Y015635D01*
X003072Y015597D01*
X002993Y015571D01*
X002910Y015558D01*
X002869Y015558D01*
X002869Y016088D01*
X003398Y016088D01*
X003398Y016130D01*
X003385Y016212D01*
X003360Y016292D01*
X003322Y016366D01*
X003273Y016434D01*
X003214Y016492D01*
X003146Y016542D01*
X003145Y016542D01*
X003214Y016571D01*
X003386Y016743D01*
X003396Y016768D01*
X004602Y016768D01*
X003376Y015542D01*
X003335Y015444D01*
X001461Y015456D01*
X001461Y034533D01*
X001461Y034588D01*
X001471Y034748D01*
X001554Y035055D01*
X001713Y035331D01*
X001938Y035556D01*
X002214Y035715D01*
X002522Y035798D01*
X002681Y035808D01*
X002681Y035098D01*
X002681Y035098D01*
X002737Y035098D01*
X002737Y035098D01*
X002859Y035098D01*
X002859Y035098D01*
X003194Y034976D01*
X003194Y034976D01*
X003467Y034747D01*
X003467Y034747D01*
X003645Y034439D01*
X003645Y034439D01*
X003706Y034088D01*
X003706Y034088D01*
X003645Y033738D01*
X003645Y033737D01*
X003467Y033429D01*
X003467Y033429D01*
X003466Y033429D01*
X003194Y033200D01*
X003194Y033200D01*
X002859Y033078D01*
X002859Y033078D01*
X002737Y033078D01*
X002737Y033078D01*
X002699Y033078D01*
X002681Y033078D01*
X002681Y031878D01*
X002788Y031878D02*
X002574Y031878D01*
X002375Y031796D01*
X002223Y031644D01*
X002141Y031446D01*
X002141Y031231D01*
X002223Y031032D01*
X002375Y030880D01*
X002574Y030798D01*
X002788Y030798D01*
X002987Y030880D01*
X003139Y031032D01*
X003221Y031231D01*
X003221Y031446D01*
X003139Y031644D01*
X002987Y031796D01*
X002788Y031878D01*
X002885Y031838D02*
X004728Y031838D01*
X004681Y031791D02*
X004681Y035808D01*
X005181Y035808D02*
X005181Y032158D01*
X005181Y031838D02*
X009181Y031838D01*
X009181Y031838D01*
X009181Y031358D02*
X009181Y025658D01*
X009181Y025338D02*
X010681Y025338D01*
X011181Y025838D01*
X011181Y027838D01*
X011806Y028463D01*
X012681Y028463D01*
X013181Y028963D01*
X013181Y030338D01*
X013681Y030838D01*
X020931Y030838D01*
X021431Y031338D01*
X020941Y031338D02*
X019921Y031338D01*
X020181Y031158D02*
X020181Y032005D01*
X020272Y032005D02*
X020440Y032075D01*
X020569Y032204D01*
X020639Y032372D01*
X020639Y032469D01*
X021404Y033233D01*
X021630Y033233D01*
X021911Y033514D01*
X021911Y033912D01*
X021630Y034193D01*
X021232Y034193D01*
X020951Y033912D01*
X020951Y033686D01*
X020186Y032921D01*
X020090Y032921D01*
X019921Y032852D01*
X019793Y032723D01*
X019723Y032554D01*
X019723Y032372D01*
X019793Y032204D01*
X019921Y032075D01*
X020090Y032005D01*
X020272Y032005D01*
X020181Y032463D02*
X021431Y033713D01*
X021735Y033338D02*
X023240Y033338D01*
X023265Y033313D02*
X023431Y033313D01*
X023431Y033713D01*
X023431Y033713D01*
X023431Y033713D01*
X023031Y033713D01*
X023031Y033548D01*
X023265Y033313D01*
X023181Y033398D02*
X023181Y033013D01*
X023007Y032838D02*
X022323Y032838D01*
X022181Y032981D02*
X022181Y034768D01*
X021681Y034696D02*
X021681Y034142D01*
X021911Y033838D02*
X023031Y033838D01*
X023031Y033879D02*
X023031Y033713D01*
X023431Y033713D01*
X023431Y033713D01*
X023831Y033713D01*
X023831Y033879D01*
X023597Y034113D01*
X023431Y034113D01*
X023431Y033714D01*
X023431Y033714D01*
X023431Y034113D01*
X023265Y034113D01*
X023031Y033879D01*
X023181Y034029D02*
X023181Y034768D01*
X023681Y034768D02*
X023681Y034029D01*
X023831Y033838D02*
X024007Y033838D01*
X024181Y034013D02*
X024181Y034768D01*
X024681Y034768D02*
X024681Y034701D01*
X024571Y034338D02*
X003662Y034338D01*
X003681Y034233D02*
X003681Y035808D01*
X004181Y035808D02*
X004181Y026541D01*
X004361Y026838D02*
X002440Y026838D01*
X002681Y026645D02*
X002681Y027079D01*
X003110Y027338D02*
X004361Y027338D01*
X005001Y027338D02*
X006252Y027338D01*
X006181Y027198D02*
X006181Y030634D01*
X006221Y030731D02*
X006139Y030532D01*
X005987Y030380D01*
X005788Y030298D01*
X005574Y030298D01*
X005375Y030380D01*
X005223Y030532D01*
X005141Y030731D01*
X005141Y030946D01*
X005223Y031144D01*
X005375Y031296D01*
X005574Y031378D01*
X005788Y031378D01*
X005987Y031296D01*
X006139Y031144D01*
X006221Y030946D01*
X006221Y030731D01*
X006221Y030838D02*
X007141Y030838D01*
X007181Y030634D02*
X007181Y028541D01*
X006978Y028338D02*
X005001Y028338D01*
X005001Y027838D02*
X006252Y027838D01*
X006681Y028068D02*
X006681Y031518D01*
X007181Y031518D02*
X007181Y031042D01*
X007477Y031338D02*
X005885Y031338D01*
X005681Y031378D02*
X005681Y031518D01*
X005477Y031338D02*
X005134Y031338D01*
X005181Y031386D02*
X005181Y031042D01*
X005141Y030838D02*
X005001Y030838D01*
X005181Y030634D02*
X005181Y026847D01*
X005172Y026838D02*
X005001Y026838D01*
X004681Y026588D02*
X004681Y031338D01*
X005181Y031838D01*
X004361Y031338D02*
X003221Y031338D01*
X003181Y031134D02*
X003181Y026645D01*
X003681Y026408D02*
X003681Y033944D01*
X003662Y033838D02*
X020951Y033838D01*
X021181Y034142D02*
X021181Y034696D01*
X021039Y034838D02*
X003358Y034838D01*
X003181Y034981D02*
X003181Y035808D01*
X002737Y035808D02*
X044625Y035808D01*
X044681Y035808D01*
X044681Y035098D01*
X044678Y035098D01*
X044625Y035098D01*
X044503Y035098D01*
X044503Y035098D01*
X044168Y034976D01*
X043895Y034747D01*
X043717Y034439D01*
X043655Y034088D01*
X043717Y033738D01*
X043717Y033737D01*
X043895Y033429D01*
X044168Y033200D01*
X044503Y033078D01*
X044625Y033078D01*
X044625Y033078D01*
X044681Y033078D01*
X044681Y029291D01*
X044633Y029338D02*
X045901Y029338D01*
X045901Y029838D02*
X044133Y029838D01*
X044181Y029791D02*
X044181Y033196D01*
X044168Y033200D02*
X044168Y033200D01*
X044004Y033338D02*
X035721Y033338D01*
X035721Y033492D02*
X035445Y033768D01*
X035721Y034045D01*
X035721Y034492D01*
X035405Y034808D01*
X034957Y034808D01*
X034681Y034532D01*
X034681Y035808D01*
X035181Y035808D02*
X035181Y034808D01*
X035681Y034532D02*
X035681Y035808D01*
X036181Y035808D02*
X036181Y029152D01*
X036175Y028832D02*
X035681Y028338D01*
X035681Y024838D01*
X036139Y024838D02*
X039361Y024838D01*
X039361Y025338D02*
X036001Y025338D01*
X036001Y025838D02*
X039361Y025838D01*
X040001Y025838D02*
X042177Y025838D01*
X042181Y025840D02*
X042181Y026310D01*
X042204Y026310D02*
X042204Y026688D01*
X041728Y026688D01*
X041728Y026449D01*
X041739Y026408D01*
X041760Y026372D01*
X041789Y026342D01*
X041826Y026321D01*
X041867Y026310D01*
X042204Y026310D01*
X042204Y026338D02*
X042319Y026338D01*
X042320Y026688D02*
X042320Y026804D01*
X042796Y026804D01*
X042796Y027021D01*
X042861Y026956D01*
X042861Y026666D01*
X042796Y026601D01*
X042796Y026688D01*
X042320Y026688D01*
X042181Y026688D02*
X042181Y026804D01*
X042204Y026838D02*
X042319Y026838D01*
X042681Y026804D02*
X042681Y026688D01*
X042796Y026838D02*
X042861Y026838D01*
X043181Y027088D02*
X043181Y026338D01*
X043501Y026666D02*
X043501Y027152D01*
X043452Y027270D01*
X043362Y027360D01*
X042917Y027804D01*
X042800Y027853D01*
X042672Y027853D01*
X041733Y027853D01*
X041733Y027966D01*
X041278Y027966D01*
X041278Y027966D01*
X041733Y027966D01*
X041733Y028079D01*
X043237Y028079D01*
X043611Y027706D01*
X043611Y026497D01*
X043569Y026598D01*
X043501Y026666D01*
X043501Y026838D02*
X043611Y026838D01*
X043181Y027088D02*
X042736Y027533D01*
X041120Y027533D01*
X041181Y027966D02*
X041181Y027966D01*
X041277Y027966D02*
X040822Y027966D01*
X041277Y027966D01*
X041277Y027966D01*
X042559Y027966D01*
X042681Y028088D01*
X042681Y028079D02*
X042681Y027853D01*
X042836Y027838D02*
X043478Y027838D01*
X043181Y028079D02*
X043181Y027541D01*
X043383Y027338D02*
X043611Y027338D01*
X043931Y027838D02*
X043931Y024588D01*
X043681Y024338D01*
X042681Y024338D01*
X041181Y024338D01*
X038931Y022088D01*
X035931Y022088D01*
X035181Y022838D01*
X034681Y022588D02*
X034681Y028088D01*
X035073Y027838D02*
X035361Y027838D01*
X035361Y028338D02*
X035073Y028338D01*
X034681Y028546D02*
X034681Y033005D01*
X034957Y032728D01*
X035405Y032728D01*
X035721Y033045D01*
X035721Y033492D01*
X035681Y033532D02*
X035681Y034005D01*
X035515Y033838D02*
X043699Y033838D01*
X043681Y033943D02*
X043681Y030018D01*
X043821Y029699D02*
X044431Y029088D01*
X044431Y021588D01*
X044181Y021338D01*
X042681Y021338D01*
X041181Y021338D01*
X038681Y018838D01*
X035806Y018838D01*
X035056Y019588D01*
X035556Y019838D02*
X035556Y019838D01*
X034931Y020463D01*
X035681Y020338D02*
X033681Y022338D01*
X033681Y022463D01*
X033681Y030338D01*
X032681Y031338D01*
X026431Y031338D01*
X026181Y030588D02*
X025431Y031338D01*
X025468Y030848D02*
X026000Y030317D01*
X026117Y030268D01*
X026245Y030268D01*
X027548Y030268D01*
X028598Y029219D01*
X028598Y029122D01*
X028635Y029033D01*
X028314Y029033D01*
X027911Y029436D01*
X027911Y029799D01*
X027838Y029975D01*
X027703Y030110D01*
X027526Y030183D01*
X027335Y030183D01*
X027159Y030110D01*
X027024Y029975D01*
X026951Y029799D01*
X026951Y029128D01*
X027024Y028951D01*
X027159Y028816D01*
X027335Y028743D01*
X027526Y028743D01*
X027648Y028794D01*
X027783Y028658D01*
X015867Y028658D01*
X015750Y028610D01*
X015660Y028520D01*
X015160Y028020D01*
X015111Y027902D01*
X015111Y027775D01*
X015111Y027062D01*
X015024Y026975D01*
X014951Y026799D01*
X014951Y026128D01*
X015024Y025951D01*
X015067Y025908D01*
X014795Y025908D01*
X014838Y025951D01*
X014911Y026128D01*
X014911Y026799D01*
X014838Y026975D01*
X014703Y027110D01*
X014526Y027183D01*
X014335Y027183D01*
X014214Y027133D01*
X014001Y027346D01*
X014001Y029007D01*
X014024Y028951D01*
X014159Y028816D01*
X014335Y028743D01*
X014526Y028743D01*
X014703Y028816D01*
X014838Y028951D01*
X014911Y029128D01*
X014911Y029799D01*
X014838Y029975D01*
X014703Y030110D01*
X014623Y030143D01*
X015239Y030143D01*
X015159Y030110D01*
X015024Y029975D01*
X014951Y029799D01*
X014951Y029128D01*
X015024Y028951D01*
X015159Y028816D01*
X015335Y028743D01*
X015526Y028743D01*
X015703Y028816D01*
X015838Y028951D01*
X015911Y029128D01*
X015911Y029799D01*
X015838Y029975D01*
X015703Y030110D01*
X015623Y030143D01*
X016239Y030143D01*
X016159Y030110D01*
X016024Y029975D01*
X015951Y029799D01*
X015951Y029128D01*
X016024Y028951D01*
X016159Y028816D01*
X016335Y028743D01*
X016526Y028743D01*
X016703Y028816D01*
X016838Y028951D01*
X016911Y029128D01*
X016911Y029799D01*
X016838Y029975D01*
X016703Y030110D01*
X016623Y030143D01*
X017239Y030143D01*
X017159Y030110D01*
X017024Y029975D01*
X016951Y029799D01*
X016951Y029128D01*
X017024Y028951D01*
X017159Y028816D01*
X017335Y028743D01*
X017526Y028743D01*
X017703Y028816D01*
X017838Y028951D01*
X017911Y029128D01*
X017911Y029799D01*
X017838Y029975D01*
X017703Y030110D01*
X017623Y030143D01*
X018239Y030143D01*
X018159Y030110D01*
X018024Y029975D01*
X017951Y029799D01*
X017951Y029128D01*
X018024Y028951D01*
X018159Y028816D01*
X018335Y028743D01*
X018526Y028743D01*
X018703Y028816D01*
X018838Y028951D01*
X018911Y029128D01*
X018911Y029799D01*
X018838Y029975D01*
X018703Y030110D01*
X018623Y030143D01*
X019239Y030143D01*
X019159Y030110D01*
X019024Y029975D01*
X018951Y029799D01*
X018951Y029128D01*
X019024Y028951D01*
X019159Y028816D01*
X019335Y028743D01*
X019526Y028743D01*
X019703Y028816D01*
X019838Y028951D01*
X019911Y029128D01*
X019911Y029799D01*
X019838Y029975D01*
X019703Y030110D01*
X019623Y030143D01*
X021239Y030143D01*
X021159Y030110D01*
X021024Y029975D01*
X020951Y029799D01*
X020951Y029128D01*
X021024Y028951D01*
X021159Y028816D01*
X021335Y028743D01*
X021526Y028743D01*
X021703Y028816D01*
X021838Y028951D01*
X021911Y029128D01*
X021911Y029799D01*
X021838Y029975D01*
X021703Y030110D01*
X021526Y030183D01*
X021341Y030183D01*
X021362Y030192D01*
X021452Y030282D01*
X022112Y030942D01*
X022112Y030942D01*
X022180Y031010D01*
X022261Y030928D01*
X022431Y030928D01*
X022601Y030928D01*
X022631Y030959D01*
X022631Y030898D01*
X022631Y030779D01*
X022677Y030668D01*
X023131Y030214D01*
X023131Y030082D01*
X023024Y029975D01*
X022951Y029799D01*
X022951Y029128D01*
X023024Y028951D01*
X023159Y028816D01*
X023335Y028743D01*
X023526Y028743D01*
X023703Y028816D01*
X023838Y028951D01*
X023911Y029128D01*
X023911Y029799D01*
X023838Y029975D01*
X023731Y030082D01*
X023731Y030398D01*
X023685Y030508D01*
X023601Y030593D01*
X023265Y030928D01*
X023431Y030928D01*
X023601Y030928D01*
X023841Y031168D01*
X023841Y031338D01*
X023431Y031338D01*
X023431Y030928D01*
X023431Y031338D01*
X023431Y031338D01*
X023431Y031588D01*
X025181Y033338D01*
X025181Y033318D02*
X025181Y032638D01*
X025201Y032808D02*
X025400Y032808D01*
X025624Y033032D01*
X025928Y032728D01*
X026147Y032728D01*
X026057Y032638D01*
X024746Y032638D01*
X024636Y032593D01*
X024552Y032508D01*
X024177Y032133D01*
X024131Y032023D01*
X024131Y031904D01*
X024131Y031731D01*
X023941Y031541D01*
X023941Y031135D01*
X024228Y030848D01*
X024517Y030848D01*
X024177Y030508D01*
X024131Y030398D01*
X024131Y030279D01*
X024131Y030082D01*
X024024Y029975D01*
X023951Y029799D01*
X023951Y029128D01*
X024024Y028951D01*
X024159Y028816D01*
X024335Y028743D01*
X024526Y028743D01*
X024703Y028816D01*
X024838Y028951D01*
X024911Y029128D01*
X024911Y029799D01*
X024838Y029975D01*
X024731Y030082D01*
X024731Y030214D01*
X025101Y030584D01*
X025185Y030668D01*
X025231Y030779D01*
X025231Y030848D01*
X025468Y030848D01*
X025478Y030838D02*
X025231Y030838D01*
X025181Y030664D02*
X025181Y030119D01*
X025159Y030110D02*
X025024Y029975D01*
X024951Y029799D01*
X024951Y029128D01*
X025024Y028951D01*
X025159Y028816D01*
X025335Y028743D01*
X025526Y028743D01*
X025703Y028816D01*
X025838Y028951D01*
X025911Y029128D01*
X025911Y029799D01*
X025838Y029975D01*
X025703Y030110D01*
X025526Y030183D01*
X025335Y030183D01*
X025159Y030110D01*
X024967Y029838D02*
X024895Y029838D01*
X024911Y029338D02*
X024951Y029338D01*
X025137Y028838D02*
X024725Y028838D01*
X024681Y028807D02*
X024681Y028658D01*
X025181Y028658D02*
X025181Y028807D01*
X025681Y028807D02*
X025681Y028658D01*
X025725Y028838D02*
X026137Y028838D01*
X026159Y028816D02*
X026335Y028743D01*
X026526Y028743D01*
X026703Y028816D01*
X026838Y028951D01*
X026911Y029128D01*
X026911Y029799D01*
X026838Y029975D01*
X026703Y030110D01*
X026526Y030183D01*
X026335Y030183D01*
X026159Y030110D01*
X026024Y029975D01*
X025951Y029799D01*
X025951Y029128D01*
X026024Y028951D01*
X026159Y028816D01*
X026181Y028807D02*
X026181Y028658D01*
X026681Y028658D02*
X026681Y028807D01*
X026725Y028838D02*
X027137Y028838D01*
X027181Y028807D02*
X027181Y028658D01*
X027681Y028658D02*
X027681Y028761D01*
X028181Y028713D02*
X027431Y029463D01*
X026951Y029338D02*
X026911Y029338D01*
X026895Y029838D02*
X026967Y029838D01*
X027181Y030119D02*
X027181Y030268D01*
X026681Y030268D02*
X026681Y030119D01*
X026181Y030119D02*
X026181Y030268D01*
X025978Y030338D02*
X024855Y030338D01*
X024181Y030513D02*
X024181Y030895D01*
X024507Y030838D02*
X023355Y030838D01*
X023681Y031008D02*
X023681Y030512D01*
X023731Y030338D02*
X024131Y030338D01*
X023967Y029838D02*
X023895Y029838D01*
X023911Y029338D02*
X023951Y029338D01*
X024137Y028838D02*
X023725Y028838D01*
X023681Y028807D02*
X023681Y028658D01*
X024181Y028658D02*
X024181Y028807D01*
X023181Y028807D02*
X023181Y028658D01*
X023137Y028838D02*
X022725Y028838D01*
X022703Y028816D02*
X022838Y028951D01*
X022911Y029128D01*
X022911Y029799D01*
X022838Y029975D01*
X022703Y030110D01*
X022526Y030183D01*
X022335Y030183D01*
X022159Y030110D01*
X022024Y029975D01*
X021951Y029799D01*
X021951Y029128D01*
X022024Y028951D01*
X022159Y028816D01*
X022335Y028743D01*
X022526Y028743D01*
X022703Y028816D01*
X022681Y028807D02*
X022681Y028658D01*
X022181Y028658D02*
X022181Y028807D01*
X022137Y028838D02*
X021725Y028838D01*
X021681Y028807D02*
X021681Y028658D01*
X021181Y028658D02*
X021181Y028807D01*
X021137Y028838D02*
X020546Y028838D01*
X020548Y028839D02*
X020620Y028869D01*
X020686Y028913D01*
X020742Y028968D01*
X020785Y029034D01*
X020816Y029107D01*
X020831Y029184D01*
X020831Y029463D01*
X020431Y029463D01*
X020431Y028823D01*
X020470Y028823D01*
X020548Y028839D01*
X020431Y028838D02*
X020431Y028838D01*
X020431Y028823D02*
X020431Y029463D01*
X020431Y029463D01*
X020431Y029463D01*
X020031Y029463D01*
X020031Y029184D01*
X020046Y029107D01*
X020076Y029034D01*
X020120Y028968D01*
X020176Y028913D01*
X020241Y028869D01*
X020314Y028839D01*
X020391Y028823D01*
X020431Y028823D01*
X020316Y028838D02*
X019725Y028838D01*
X019681Y028807D02*
X019681Y028658D01*
X020181Y028658D02*
X020181Y028909D01*
X020031Y029338D02*
X019911Y029338D01*
X020031Y029463D02*
X020431Y029463D01*
X020431Y029463D01*
X020831Y029463D01*
X020831Y029743D01*
X020816Y029820D01*
X020785Y029893D01*
X020742Y029958D01*
X020686Y030014D01*
X020620Y030058D01*
X020548Y030088D01*
X020470Y030103D01*
X020431Y030103D01*
X020431Y029464D01*
X020431Y029464D01*
X020431Y030103D01*
X020391Y030103D01*
X020314Y030088D01*
X020241Y030058D01*
X020176Y030014D01*
X020120Y029958D01*
X020076Y029893D01*
X020046Y029820D01*
X020031Y029743D01*
X020031Y029463D01*
X020181Y029463D02*
X020181Y029463D01*
X020431Y029338D02*
X020431Y029338D01*
X020681Y029463D02*
X020681Y029463D01*
X020831Y029338D02*
X020951Y029338D01*
X020967Y029838D02*
X020808Y029838D01*
X020681Y030017D02*
X020681Y030143D01*
X020431Y029838D02*
X020431Y029838D01*
X020181Y030017D02*
X020181Y030143D01*
X020054Y029838D02*
X019895Y029838D01*
X019681Y030119D02*
X019681Y030143D01*
X019181Y030119D02*
X019181Y030143D01*
X018967Y029838D02*
X018895Y029838D01*
X018681Y030119D02*
X018681Y030143D01*
X018181Y030119D02*
X018181Y030143D01*
X017967Y029838D02*
X017895Y029838D01*
X017681Y030119D02*
X017681Y030143D01*
X017181Y030119D02*
X017181Y030143D01*
X016967Y029838D02*
X016895Y029838D01*
X016681Y030119D02*
X016681Y030143D01*
X016181Y030119D02*
X016181Y030143D01*
X015967Y029838D02*
X015895Y029838D01*
X015681Y030119D02*
X015681Y030143D01*
X015181Y030119D02*
X015181Y030143D01*
X014967Y029838D02*
X014895Y029838D01*
X014681Y030119D02*
X014681Y030143D01*
X014056Y030463D02*
X021181Y030463D01*
X021931Y031213D01*
X021931Y032588D01*
X022323Y032338D02*
X022631Y032338D01*
X022681Y032513D02*
X022681Y034768D01*
X022681Y035408D02*
X022681Y035808D01*
X023181Y035808D02*
X023181Y035408D01*
X023681Y035408D02*
X023681Y035808D01*
X024181Y035808D02*
X024181Y035408D01*
X024681Y035408D02*
X024681Y035808D01*
X025181Y035808D02*
X025181Y035408D01*
X025681Y035408D02*
X025681Y035808D01*
X026181Y035808D02*
X026181Y035408D01*
X026681Y035408D02*
X026681Y035808D01*
X027181Y035808D02*
X027181Y035408D01*
X027681Y035408D02*
X027681Y035808D01*
X028181Y035808D02*
X028181Y035041D01*
X028383Y034838D02*
X044004Y034838D01*
X043895Y034747D02*
X043895Y034747D01*
X043895Y034747D01*
X043717Y034439D02*
X043717Y034439D01*
X043699Y034338D02*
X035721Y034338D01*
X034681Y034532D02*
X034405Y034808D01*
X033957Y034808D01*
X033681Y034532D01*
X033681Y035808D01*
X034181Y035808D02*
X034181Y034808D01*
X033681Y034532D02*
X033405Y034808D01*
X032957Y034808D01*
X032681Y034532D01*
X032681Y035808D01*
X033181Y035808D02*
X033181Y034808D01*
X032681Y034532D02*
X032405Y034808D01*
X031957Y034808D01*
X031681Y034532D01*
X031681Y035808D01*
X032181Y035808D02*
X032181Y034808D01*
X031681Y034532D02*
X031405Y034808D01*
X030957Y034808D01*
X030681Y034532D01*
X030681Y035808D01*
X030181Y035808D02*
X030181Y034808D01*
X030405Y034808D02*
X029957Y034808D01*
X029681Y034532D01*
X029681Y035808D01*
X029181Y035808D02*
X029181Y034808D01*
X029405Y034808D02*
X028957Y034808D01*
X028641Y034492D01*
X028641Y034045D01*
X028917Y033768D01*
X028641Y033492D01*
X028641Y033045D01*
X028957Y032728D01*
X029405Y032728D01*
X029681Y033005D01*
X029681Y032158D01*
X030181Y032158D02*
X030181Y032728D01*
X029957Y032728D02*
X030405Y032728D01*
X030681Y033005D01*
X030681Y032158D01*
X031181Y032158D02*
X031181Y032728D01*
X031405Y032728D02*
X031681Y033005D01*
X031681Y032158D01*
X032181Y032158D02*
X032181Y032728D01*
X032405Y032728D02*
X032681Y033005D01*
X032681Y032158D01*
X032931Y031838D02*
X033681Y031088D01*
X034181Y030588D01*
X034181Y022338D01*
X035681Y020838D01*
X036431Y020838D01*
X036556Y021588D02*
X035681Y021588D01*
X034681Y022588D01*
X033681Y022463D02*
X033681Y022713D01*
X035181Y023713D02*
X039681Y023713D01*
X039681Y027838D01*
X040139Y027838D02*
X040653Y027838D01*
X040681Y027867D02*
X040681Y028066D01*
X040585Y028338D02*
X036134Y028338D01*
X036181Y028386D02*
X036181Y024033D01*
X036681Y024033D02*
X036681Y026830D01*
X036672Y026838D02*
X036001Y026838D01*
X036001Y026338D02*
X039361Y026338D01*
X039361Y026838D02*
X037536Y026838D01*
X037516Y026818D02*
X037583Y026885D01*
X037620Y026974D01*
X037620Y027778D01*
X037583Y027866D01*
X037516Y027933D01*
X037427Y027970D01*
X036781Y027970D01*
X036693Y027933D01*
X036625Y027866D01*
X036589Y027778D01*
X036589Y026974D01*
X036625Y026885D01*
X036693Y026818D01*
X036781Y026781D01*
X037427Y026781D01*
X037516Y026818D01*
X037181Y026781D02*
X037181Y024033D01*
X037681Y024033D02*
X037681Y028512D01*
X038181Y028512D02*
X038181Y024033D01*
X038681Y024033D02*
X038681Y028512D01*
X039181Y028512D02*
X039181Y024033D01*
X039361Y024338D02*
X035001Y024338D01*
X035181Y024171D02*
X035181Y032728D01*
X035515Y032838D02*
X045901Y032838D01*
X045901Y032338D02*
X043096Y032338D01*
X043088Y032346D02*
X043052Y032367D01*
X043011Y032378D01*
X042674Y032378D01*
X042674Y032001D01*
X042558Y032001D01*
X042558Y032378D01*
X042221Y032378D01*
X042180Y032367D01*
X042144Y032346D01*
X042114Y032316D01*
X042093Y032280D01*
X042082Y032239D01*
X042082Y032000D01*
X042558Y032000D01*
X042558Y031885D01*
X042082Y031885D01*
X042082Y031646D01*
X042093Y031605D01*
X042114Y031569D01*
X042144Y031539D01*
X042180Y031518D01*
X042221Y031507D01*
X042558Y031507D01*
X042558Y031885D01*
X042674Y031885D01*
X042674Y032000D01*
X043150Y032000D01*
X043150Y032239D01*
X043139Y032280D01*
X043118Y032316D01*
X043088Y032346D01*
X042681Y032378D02*
X042681Y035808D01*
X043181Y035808D02*
X043181Y030018D01*
X042681Y030018D02*
X042681Y031507D01*
X042674Y031507D02*
X043011Y031507D01*
X043052Y031518D01*
X043088Y031539D01*
X043118Y031569D01*
X043139Y031605D01*
X043150Y031646D01*
X043150Y031885D01*
X042674Y031885D01*
X042674Y031507D01*
X042674Y031838D02*
X042558Y031838D01*
X042681Y031885D02*
X042681Y032000D01*
X042674Y032338D02*
X042558Y032338D01*
X042181Y032367D02*
X042181Y035808D01*
X041681Y035808D02*
X041681Y030018D01*
X041646Y030338D02*
X045901Y030338D01*
X045901Y030838D02*
X034383Y030838D01*
X034181Y031041D02*
X034181Y032728D01*
X034405Y032728D02*
X034681Y033005D01*
X034515Y032838D02*
X034847Y032838D01*
X034405Y032728D02*
X033957Y032728D01*
X033681Y033005D01*
X033681Y031541D01*
X033883Y031338D02*
X045901Y031338D01*
X045901Y031838D02*
X043150Y031838D01*
X042181Y031885D02*
X042181Y032000D01*
X042082Y031838D02*
X033383Y031838D01*
X033181Y032041D02*
X033181Y032728D01*
X033405Y032728D02*
X033681Y033005D01*
X033515Y032838D02*
X033847Y032838D01*
X033405Y032728D02*
X032957Y032728D01*
X032681Y033005D01*
X032515Y032838D02*
X032847Y032838D01*
X032405Y032728D02*
X031957Y032728D01*
X031681Y033005D01*
X031515Y032838D02*
X031847Y032838D01*
X031405Y032728D02*
X030957Y032728D01*
X030681Y033005D01*
X030515Y032838D02*
X030847Y032838D01*
X029957Y032728D02*
X029681Y033005D01*
X029515Y032838D02*
X029847Y032838D01*
X029181Y032728D02*
X029181Y032158D01*
X028681Y032166D02*
X028681Y033005D01*
X028847Y032838D02*
X028501Y032838D01*
X028508Y032338D02*
X042136Y032338D01*
X042181Y031518D02*
X042181Y030018D01*
X041181Y030509D02*
X041181Y035808D01*
X040681Y035808D02*
X040681Y030465D01*
X040593Y030338D02*
X034501Y030338D01*
X034501Y029838D02*
X036589Y029838D01*
X036681Y030284D02*
X036681Y035808D01*
X037181Y035808D02*
X037181Y030332D01*
X037620Y029838D02*
X039289Y029838D01*
X039681Y030046D02*
X039681Y035808D01*
X040181Y035808D02*
X040181Y029585D01*
X040073Y029838D02*
X040427Y029838D01*
X040962Y029699D02*
X043821Y029699D01*
X044751Y028838D02*
X045901Y028838D01*
X045901Y028338D02*
X044751Y028338D01*
X044751Y027838D02*
X045901Y027838D01*
X045901Y027338D02*
X044751Y027338D01*
X044751Y026838D02*
X045901Y026838D01*
X045901Y026338D02*
X044751Y026338D01*
X044751Y025838D02*
X045901Y025838D01*
X045901Y025338D02*
X044751Y025338D01*
X044751Y024838D02*
X045901Y024838D01*
X045901Y024338D02*
X044751Y024338D01*
X044751Y023838D02*
X045901Y023838D01*
X045901Y023338D02*
X044751Y023338D01*
X044751Y022838D02*
X045901Y022838D01*
X045901Y022338D02*
X044751Y022338D01*
X044751Y021838D02*
X045901Y021838D01*
X045901Y021338D02*
X044634Y021338D01*
X044681Y021386D02*
X044681Y019838D01*
X044681Y019338D02*
X044681Y017572D01*
X044875Y017598D02*
X044875Y017598D01*
X044987Y017598D02*
X044987Y017598D01*
X045109Y017598D02*
X045109Y017598D01*
X045181Y017572D02*
X045181Y019338D01*
X045681Y019338D02*
X045681Y017277D01*
X045608Y017338D02*
X045901Y017338D01*
X045895Y016939D02*
X045895Y016939D01*
X045717Y015929D02*
X045717Y015929D01*
X045681Y015899D02*
X045681Y002151D01*
X045789Y002338D02*
X040079Y002338D01*
X040181Y002301D02*
X040181Y002436D01*
X039943Y002338D02*
X035079Y002338D01*
X035181Y002301D02*
X035181Y002436D01*
X034943Y002338D02*
X030079Y002338D01*
X030181Y002301D02*
X030181Y002436D01*
X029943Y002338D02*
X025079Y002338D01*
X025181Y002301D02*
X025181Y002436D01*
X024943Y002338D02*
X020079Y002338D01*
X020181Y002301D02*
X020181Y002436D01*
X019943Y002338D02*
X015079Y002338D01*
X015181Y002301D02*
X015181Y002436D01*
X014943Y002338D02*
X010079Y002338D01*
X010181Y002301D02*
X010181Y002436D01*
X009943Y002338D02*
X005079Y002338D01*
X005181Y002301D02*
X005181Y002436D01*
X004943Y002436D02*
X004943Y002971D01*
X004761Y002971D01*
X004408Y002618D01*
X004408Y002436D01*
X004943Y002436D01*
X004943Y002338D02*
X001573Y002338D01*
X001681Y002151D02*
X001681Y014838D01*
X001461Y014838D02*
X003321Y014838D01*
X003321Y014142D01*
X003376Y014009D01*
X003422Y013963D01*
X003376Y013917D01*
X003321Y013785D01*
X003321Y013673D01*
X003181Y013533D01*
X003181Y014838D01*
X002681Y014838D02*
X002681Y013787D01*
X002799Y013787D02*
X002563Y013787D01*
X002344Y013696D01*
X002177Y013529D01*
X002087Y013311D01*
X002087Y012366D01*
X002177Y012147D01*
X002344Y011980D01*
X002563Y011890D01*
X002799Y011890D01*
X003018Y011980D01*
X003181Y012143D01*
X003181Y011767D01*
X003130Y011818D02*
X002732Y011818D01*
X002451Y011537D01*
X002451Y011139D01*
X002732Y010858D01*
X003130Y010858D01*
X003411Y011139D01*
X003411Y011537D01*
X003130Y011818D01*
X003344Y011980D02*
X003181Y012143D01*
X003344Y011980D02*
X003563Y011890D01*
X003799Y011890D01*
X004018Y011980D01*
X004181Y012143D01*
X004181Y008267D01*
X003681Y008267D02*
X003681Y011890D01*
X004181Y012143D02*
X004344Y011980D01*
X004563Y011890D01*
X005181Y012143D02*
X005344Y011980D01*
X005563Y011890D01*
X005799Y011890D01*
X006018Y011980D01*
X006181Y012143D01*
X006181Y008267D01*
X006451Y008639D02*
X006732Y008358D01*
X007130Y008358D01*
X007411Y008639D01*
X007411Y009037D01*
X007130Y009318D01*
X006732Y009318D01*
X006451Y009037D01*
X006451Y008639D01*
X006451Y008838D02*
X003411Y008838D01*
X003411Y008639D02*
X003130Y008358D01*
X002732Y008358D01*
X002451Y008639D01*
X002451Y009037D01*
X002732Y009318D01*
X003130Y009318D01*
X003411Y009037D01*
X003411Y008639D01*
X003181Y008409D02*
X003181Y006122D01*
X003582Y005838D02*
X005571Y005838D01*
X006291Y005838D02*
X007420Y005838D01*
X007422Y005845D02*
X007318Y005594D01*
X007318Y005322D01*
X007422Y005072D01*
X007614Y004880D01*
X007865Y004776D01*
X008137Y004776D01*
X008308Y004847D01*
X008308Y004772D01*
X008412Y004522D01*
X008604Y004330D01*
X008855Y004226D01*
X009127Y004226D01*
X009378Y004330D01*
X009570Y004522D01*
X009673Y004772D01*
X009673Y005044D01*
X009570Y005295D01*
X009378Y005487D01*
X009127Y005591D01*
X008855Y005591D01*
X008683Y005520D01*
X008683Y005594D01*
X008580Y005845D01*
X008388Y006037D01*
X008137Y006141D01*
X007865Y006141D01*
X007614Y006037D01*
X007422Y005845D01*
X007681Y006064D02*
X007681Y008409D01*
X007732Y008358D02*
X008130Y008358D01*
X008411Y008639D01*
X008411Y009037D01*
X008130Y009318D01*
X007732Y009318D01*
X007451Y009037D01*
X007451Y008639D01*
X007732Y008358D01*
X008181Y008409D02*
X008181Y006122D01*
X008582Y005838D02*
X010571Y005838D01*
X010571Y005660D02*
X010571Y005517D01*
X010626Y005384D01*
X011501Y004509D01*
X011501Y004253D01*
X011178Y003931D01*
X011178Y003366D01*
X011578Y002966D01*
X012144Y002966D01*
X012543Y003366D01*
X012543Y003931D01*
X012221Y004253D01*
X012221Y004587D01*
X012221Y004730D01*
X012166Y004862D01*
X011291Y005737D01*
X011291Y005993D01*
X011368Y005916D01*
X011934Y005916D01*
X012333Y006316D01*
X012333Y006881D01*
X011934Y007281D01*
X011368Y007281D01*
X011291Y007203D01*
X011291Y007519D01*
X011411Y007639D01*
X011411Y008037D01*
X011130Y008318D01*
X010732Y008318D01*
X010451Y008037D01*
X010451Y007639D01*
X010571Y007519D01*
X010571Y005660D01*
X010672Y005338D02*
X009526Y005338D01*
X009181Y005568D02*
X009181Y007409D01*
X009130Y007358D02*
X009411Y007639D01*
X009411Y008037D01*
X009130Y008318D01*
X008732Y008318D01*
X008451Y008037D01*
X008451Y007639D01*
X008732Y007358D01*
X009130Y007358D01*
X008681Y007409D02*
X008681Y005600D01*
X008308Y004838D02*
X008288Y004838D01*
X008181Y004794D02*
X008181Y001618D01*
X008681Y001618D02*
X008681Y004298D01*
X008596Y004338D02*
X007221Y004338D01*
X007543Y003838D02*
X011178Y003838D01*
X011181Y003933D02*
X011181Y004829D01*
X011172Y004838D02*
X009673Y004838D01*
X009386Y004338D02*
X011501Y004338D01*
X012221Y004338D02*
X013596Y004338D01*
X013681Y004298D02*
X013681Y001618D01*
X013181Y001618D02*
X013181Y004794D01*
X013288Y004838D02*
X013308Y004838D01*
X012714Y004838D02*
X012176Y004838D01*
X012181Y004826D02*
X012181Y006163D01*
X012333Y006338D02*
X013172Y006338D01*
X013181Y006329D02*
X013181Y006122D01*
X013582Y005838D02*
X013672Y005838D01*
X013681Y005829D02*
X013681Y005600D01*
X014526Y005338D02*
X015672Y005338D01*
X015681Y005329D02*
X015681Y001618D01*
X016181Y001618D02*
X016181Y003363D01*
X016206Y003338D02*
X012516Y003338D01*
X012181Y003003D02*
X012181Y001618D01*
X012681Y001618D02*
X012681Y004852D01*
X012318Y005338D02*
X011690Y005338D01*
X011681Y005347D02*
X011681Y005916D01*
X011291Y005838D02*
X012420Y005838D01*
X012681Y006064D02*
X012681Y006829D01*
X012672Y006838D02*
X012333Y006838D01*
X012181Y007033D02*
X012181Y007329D01*
X012172Y007338D02*
X011291Y007338D01*
X011681Y007281D02*
X011681Y008409D01*
X012071Y008338D02*
X001461Y008338D01*
X001461Y007838D02*
X003451Y007838D01*
X003681Y007409D02*
X003681Y005600D01*
X003308Y004838D02*
X003288Y004838D01*
X003181Y004794D02*
X003181Y001618D01*
X003681Y001618D02*
X003681Y004298D01*
X003596Y004338D02*
X001461Y004338D01*
X001461Y003838D02*
X006178Y003838D01*
X006181Y003933D02*
X006181Y004829D01*
X006172Y004838D02*
X004673Y004838D01*
X004386Y004338D02*
X006501Y004338D01*
X007181Y004826D02*
X007181Y006163D01*
X007333Y006338D02*
X010571Y006338D01*
X010571Y006838D02*
X007333Y006838D01*
X007181Y007033D02*
X007181Y008409D01*
X007411Y008838D02*
X007451Y008838D01*
X006681Y008409D02*
X006681Y007281D01*
X006291Y007338D02*
X010571Y007338D01*
X010451Y007838D02*
X009411Y007838D01*
X009181Y008267D02*
X009181Y012980D01*
X009212Y012951D02*
X009212Y012366D01*
X009302Y012147D01*
X009469Y011980D01*
X009688Y011890D01*
X010181Y012018D02*
X010181Y002971D01*
X010078Y002838D02*
X009943Y002838D01*
X010393Y002838D02*
X014629Y002838D01*
X014681Y002890D02*
X014681Y005478D01*
X015181Y005478D02*
X015181Y002971D01*
X015078Y002838D02*
X014943Y002838D01*
X015393Y002838D02*
X019629Y002838D01*
X019681Y002890D02*
X019681Y011318D01*
X019569Y011338D02*
X018411Y011338D01*
X018411Y011387D02*
X018130Y011668D01*
X017732Y011668D01*
X017451Y011387D01*
X017451Y010989D01*
X017571Y010869D01*
X017571Y010407D01*
X017451Y010287D01*
X017451Y009889D01*
X017732Y009608D01*
X018130Y009608D01*
X018411Y009889D01*
X018411Y010287D01*
X018291Y010407D01*
X018291Y010869D01*
X018411Y010989D01*
X018411Y011387D01*
X018181Y011617D02*
X018181Y011895D01*
X018228Y011848D02*
X018634Y011848D01*
X018921Y012135D01*
X018921Y012541D01*
X018634Y012828D01*
X018228Y012828D01*
X017941Y012541D01*
X017941Y012135D01*
X018228Y011848D01*
X017921Y012135D02*
X017634Y011848D01*
X017228Y011848D01*
X016941Y012135D01*
X016941Y012541D01*
X017228Y012828D01*
X017634Y012828D01*
X017921Y012541D01*
X017921Y012135D01*
X017921Y012338D02*
X017941Y012338D01*
X018181Y012781D02*
X018181Y013829D01*
X018172Y013838D02*
X014264Y013838D01*
X014181Y013565D02*
X014181Y012781D01*
X014228Y012828D02*
X013941Y012541D01*
X013941Y012135D01*
X014228Y011848D01*
X014634Y011848D01*
X014921Y012135D01*
X014921Y012541D01*
X014634Y012828D01*
X014228Y012828D01*
X014681Y012781D02*
X014681Y013928D01*
X015181Y013928D02*
X015181Y012781D01*
X015228Y012828D02*
X014941Y012541D01*
X014941Y012135D01*
X015228Y011848D01*
X015634Y011848D01*
X015921Y012135D01*
X015921Y012541D01*
X015634Y012828D01*
X015228Y012828D01*
X015681Y012781D02*
X015681Y013928D01*
X016181Y013928D02*
X016181Y012781D01*
X016228Y012828D02*
X015941Y012541D01*
X015941Y012135D01*
X016228Y011848D01*
X016634Y011848D01*
X016921Y012135D01*
X016921Y012541D01*
X016634Y012828D01*
X016228Y012828D01*
X016681Y012781D02*
X016681Y013928D01*
X017181Y013928D02*
X017181Y012781D01*
X017681Y012781D02*
X017681Y013928D01*
X018672Y013338D02*
X013759Y013338D01*
X013681Y013261D02*
X013681Y011241D01*
X013583Y011338D02*
X017451Y011338D01*
X017681Y011617D02*
X017681Y011895D01*
X017181Y011895D02*
X017181Y008517D01*
X017232Y008568D02*
X016951Y008287D01*
X016951Y007889D01*
X017232Y007608D01*
X017630Y007608D01*
X017911Y007889D01*
X017911Y008287D01*
X017840Y008358D01*
X018130Y008358D01*
X018411Y008639D01*
X018411Y009037D01*
X018130Y009318D01*
X017732Y009318D01*
X017451Y009037D01*
X017451Y008639D01*
X017522Y008568D01*
X017232Y008568D01*
X017002Y008338D02*
X013860Y008338D01*
X013431Y008088D02*
X013431Y011038D01*
X012931Y011538D01*
X012931Y012963D01*
X013806Y013838D01*
X013348Y013838D02*
X011340Y013838D01*
X011181Y013679D02*
X011181Y013658D01*
X011681Y013784D02*
X011681Y013928D01*
X012181Y013928D02*
X012181Y013658D01*
X012389Y013338D02*
X012853Y013338D01*
X012681Y013166D02*
X012681Y013928D01*
X013181Y013928D02*
X013181Y013666D01*
X013259Y012838D02*
X019071Y012838D01*
X018681Y012781D02*
X018681Y013329D01*
X018921Y012338D02*
X018941Y012338D01*
X019431Y012338D02*
X019431Y011888D01*
X019681Y011638D01*
X020681Y011638D01*
X020931Y011888D01*
X020931Y013588D01*
X021281Y013886D02*
X021190Y013977D01*
X021036Y014041D01*
X021202Y014207D01*
X021251Y014325D01*
X021251Y014452D01*
X021251Y014739D01*
X021338Y014826D01*
X021411Y015003D01*
X021411Y015406D01*
X021451Y015366D01*
X021451Y015003D01*
X021524Y014826D01*
X021659Y014691D01*
X021835Y014618D01*
X022026Y014618D01*
X022203Y014691D01*
X022338Y014826D01*
X022411Y015003D01*
X022411Y015674D01*
X022338Y015850D01*
X022203Y015985D01*
X022068Y016041D01*
X022793Y016041D01*
X022659Y015985D01*
X022524Y015850D01*
X022451Y015674D01*
X022451Y015003D01*
X022524Y014826D01*
X022611Y014739D01*
X022611Y013221D01*
X022375Y012985D01*
X022285Y012895D01*
X022556Y012713D02*
X022556Y011813D01*
X021931Y011188D01*
X021602Y010838D02*
X018291Y010838D01*
X017571Y010838D02*
X013751Y010838D01*
X013751Y010338D02*
X017502Y010338D01*
X017502Y009838D02*
X013751Y009838D01*
X013751Y009338D02*
X023446Y009338D01*
X023181Y009267D02*
X023181Y009659D01*
X023360Y009838D02*
X023446Y009838D01*
X023130Y009318D02*
X022732Y009318D01*
X022451Y009037D01*
X022451Y008639D01*
X022732Y008358D01*
X023130Y008358D01*
X023411Y008639D01*
X023411Y009037D01*
X023130Y009318D01*
X022681Y009267D02*
X022681Y009659D01*
X022502Y009838D02*
X022247Y009838D01*
X022181Y009773D02*
X022181Y009267D01*
X022130Y009318D02*
X021732Y009318D01*
X021451Y009037D01*
X021451Y008639D01*
X021732Y008358D01*
X022130Y008358D01*
X022411Y008639D01*
X022411Y009037D01*
X022130Y009318D01*
X022097Y009688D02*
X022331Y009923D01*
X022331Y010088D01*
X021931Y010088D01*
X021931Y009688D01*
X022097Y009688D01*
X021931Y009688D02*
X021931Y010088D01*
X021931Y010088D01*
X021931Y010088D01*
X021531Y010088D01*
X021531Y009923D01*
X021765Y009688D01*
X021931Y009688D01*
X021931Y009838D02*
X021931Y009838D01*
X021931Y010088D02*
X021931Y010088D01*
X022331Y010088D01*
X022331Y010254D01*
X022097Y010488D01*
X021931Y010488D01*
X021931Y010089D01*
X021931Y010089D01*
X021931Y010488D01*
X021765Y010488D01*
X021531Y010254D01*
X021531Y010088D01*
X021931Y010088D01*
X022181Y010088D02*
X022181Y010088D01*
X022247Y010338D02*
X022272Y010338D01*
X022181Y010404D02*
X022181Y010429D01*
X021931Y010338D02*
X021931Y010338D01*
X021681Y010404D02*
X021681Y010759D01*
X021451Y011338D02*
X020793Y011338D01*
X020681Y011318D02*
X020681Y008318D01*
X020880Y008318D02*
X020482Y008318D01*
X020201Y008037D01*
X020201Y007639D01*
X020321Y007519D01*
X020321Y005910D01*
X020321Y005767D01*
X020376Y005634D01*
X021501Y004509D01*
X021501Y004253D01*
X021178Y003931D01*
X021178Y003366D01*
X021578Y002966D01*
X022144Y002966D01*
X022543Y003366D01*
X022543Y003931D01*
X022221Y004253D01*
X022221Y004587D01*
X022221Y004730D01*
X022166Y004862D01*
X021041Y005987D01*
X021041Y006243D01*
X021368Y005916D01*
X021934Y005916D01*
X022333Y006316D01*
X022333Y006881D01*
X021934Y007281D01*
X021368Y007281D01*
X021041Y006953D01*
X021041Y007519D01*
X021112Y007591D01*
X021265Y007438D01*
X021431Y007438D01*
X021597Y007438D01*
X021831Y007673D01*
X021831Y007838D01*
X021431Y007838D01*
X021431Y007438D01*
X021431Y007838D01*
X021431Y007838D01*
X021431Y007838D01*
X022951Y007838D01*
X023181Y007409D02*
X023181Y006122D01*
X023137Y006141D02*
X023388Y006037D01*
X023580Y005845D01*
X023683Y005594D01*
X023683Y005520D01*
X023855Y005591D01*
X024127Y005591D01*
X024378Y005487D01*
X024570Y005295D01*
X024673Y005044D01*
X024673Y004772D01*
X024570Y004522D01*
X024378Y004330D01*
X024127Y004226D01*
X023855Y004226D01*
X023604Y004330D01*
X023412Y004522D01*
X023308Y004772D01*
X023308Y004847D01*
X023137Y004776D01*
X022865Y004776D01*
X022614Y004880D01*
X022422Y005072D01*
X022318Y005322D01*
X022318Y005594D01*
X022422Y005845D01*
X022614Y006037D01*
X022865Y006141D01*
X023137Y006141D01*
X022681Y006064D02*
X022681Y008409D01*
X022451Y008838D02*
X022411Y008838D01*
X022181Y008409D02*
X022181Y007033D01*
X022333Y006838D02*
X025968Y006838D01*
X025968Y006881D02*
X025968Y006316D01*
X026368Y005916D01*
X026874Y005916D01*
X026556Y005597D01*
X026501Y005465D01*
X026501Y005322D01*
X026501Y004253D01*
X026178Y003931D01*
X026178Y003366D01*
X026578Y002966D01*
X027144Y002966D01*
X027543Y003366D01*
X027543Y003931D01*
X027221Y004253D01*
X027221Y005244D01*
X027318Y005342D01*
X027318Y005322D01*
X027422Y005072D01*
X027614Y004880D01*
X027865Y004776D01*
X028137Y004776D01*
X028308Y004847D01*
X028308Y004772D01*
X028412Y004522D01*
X028604Y004330D01*
X028855Y004226D01*
X029127Y004226D01*
X029378Y004330D01*
X029570Y004522D01*
X029673Y004772D01*
X029673Y005044D01*
X029570Y005295D01*
X029378Y005487D01*
X029127Y005591D01*
X028855Y005591D01*
X028683Y005520D01*
X028683Y005594D01*
X028580Y005845D01*
X028388Y006037D01*
X028137Y006141D01*
X027865Y006141D01*
X027791Y006110D01*
X027791Y007410D01*
X027736Y007542D01*
X027635Y007643D01*
X027135Y008143D01*
X027003Y008198D01*
X026859Y008198D01*
X026500Y008198D01*
X026380Y008318D01*
X025982Y008318D01*
X025701Y008037D01*
X025701Y007639D01*
X025982Y007358D01*
X026380Y007358D01*
X026500Y007478D01*
X026782Y007478D01*
X027071Y007189D01*
X027071Y007143D01*
X026934Y007281D01*
X026368Y007281D01*
X025968Y006881D01*
X026181Y007093D02*
X026181Y007358D01*
X026681Y007281D02*
X026681Y007478D01*
X026922Y007338D02*
X021041Y007338D01*
X021181Y007523D02*
X021181Y007093D01*
X021681Y007281D02*
X021681Y007523D01*
X021681Y007838D02*
X021681Y007838D01*
X021831Y007838D02*
X021431Y007838D01*
X021431Y007839D02*
X021431Y007839D01*
X021431Y008238D01*
X021597Y008238D01*
X021831Y008004D01*
X021831Y007838D01*
X021681Y008154D02*
X021681Y008409D01*
X021431Y008238D02*
X021265Y008238D01*
X021112Y008085D01*
X020880Y008318D01*
X021181Y008154D02*
X021181Y011686D01*
X021251Y011838D02*
X022128Y011838D01*
X022181Y011891D02*
X022181Y014682D01*
X022343Y014838D02*
X022519Y014838D01*
X022451Y015338D02*
X022411Y015338D01*
X021931Y015338D02*
X021181Y016088D01*
X021181Y016088D01*
X017806Y016088D01*
X016681Y017213D01*
X015806Y017213D01*
X016165Y016893D02*
X016005Y016733D01*
X015607Y016733D01*
X015326Y017014D01*
X015326Y017412D01*
X015607Y017693D01*
X016005Y017693D01*
X016165Y017533D01*
X016617Y017533D01*
X016745Y017533D01*
X016862Y017485D01*
X017778Y016568D01*
X018005Y016568D01*
X018165Y016408D01*
X019181Y016408D01*
X019181Y019838D01*
X019181Y021386D01*
X019134Y021338D02*
X023973Y021338D01*
X023973Y021247D02*
X024043Y021079D01*
X024171Y020950D01*
X024340Y020880D01*
X024522Y020880D01*
X024690Y020950D01*
X024759Y021018D01*
X025603Y021018D01*
X025671Y020950D01*
X025840Y020880D01*
X026022Y020880D01*
X026190Y020950D01*
X026259Y021018D01*
X028617Y021018D01*
X028745Y021018D01*
X028862Y021067D01*
X030675Y022880D01*
X030772Y022880D01*
X030940Y022950D01*
X031069Y023079D01*
X031139Y023247D01*
X031139Y023429D01*
X031069Y023598D01*
X031001Y023666D01*
X031001Y023956D01*
X031112Y024067D01*
X031202Y024157D01*
X031251Y024275D01*
X031251Y025765D01*
X031328Y025688D01*
X031493Y025688D01*
X031493Y026088D01*
X031494Y026088D01*
X031494Y025688D01*
X031659Y025688D01*
X031736Y025765D01*
X031736Y022931D01*
X031690Y022977D01*
X031522Y023046D01*
X031340Y023046D01*
X031171Y022977D01*
X031043Y022848D01*
X030973Y022679D01*
X030973Y022583D01*
X030000Y021610D01*
X030000Y021610D01*
X029910Y021520D01*
X029861Y021402D01*
X029861Y019838D01*
X028656Y019838D01*
X029861Y019838D01*
X029681Y019838D02*
X029681Y021886D01*
X029634Y021838D02*
X030228Y021838D01*
X030181Y021791D02*
X030181Y022386D01*
X030134Y022338D02*
X030728Y022338D01*
X030681Y022291D02*
X030681Y022880D01*
X030634Y022838D02*
X031039Y022838D01*
X031181Y022981D02*
X031181Y024136D01*
X031251Y024338D02*
X031736Y024338D01*
X031736Y023838D02*
X031001Y023838D01*
X030681Y024088D02*
X030681Y023338D01*
X028681Y021338D01*
X025931Y021338D01*
X024431Y021338D01*
X024010Y021518D02*
X023973Y021429D01*
X023973Y021247D01*
X024010Y021518D02*
X019314Y021518D01*
X019001Y021206D01*
X019001Y018166D01*
X019069Y018098D01*
X019139Y017929D01*
X019139Y017747D01*
X019069Y017579D01*
X018940Y017450D01*
X018772Y017380D01*
X018590Y017380D01*
X018421Y017450D01*
X018353Y017518D01*
X017745Y017518D01*
X017617Y017518D01*
X017500Y017567D01*
X017125Y017942D01*
X017044Y018023D01*
X016880Y017858D01*
X016482Y017858D01*
X016322Y018018D01*
X015064Y018018D01*
X014751Y017706D01*
X014751Y016777D01*
X014751Y016650D01*
X014702Y016532D01*
X014286Y016116D01*
X014286Y015889D01*
X014255Y015858D01*
X017357Y015858D01*
X017326Y015889D01*
X017326Y016116D01*
X016548Y016893D01*
X016165Y016893D01*
X016181Y016893D02*
X016181Y015858D01*
X016681Y015858D02*
X016681Y016761D01*
X016603Y016838D02*
X016110Y016838D01*
X015681Y016733D02*
X015681Y015858D01*
X015181Y015858D02*
X015181Y018018D01*
X014884Y017838D02*
X017228Y017838D01*
X017181Y017886D02*
X017181Y017166D01*
X017008Y017338D02*
X019181Y017338D01*
X019181Y016838D02*
X017508Y016838D01*
X017681Y016666D02*
X017681Y017518D01*
X017681Y017838D02*
X017306Y018213D01*
X017306Y018963D01*
X015181Y021088D01*
X012556Y021088D01*
X012056Y021588D01*
X012056Y022838D01*
X011576Y022838D02*
X009001Y022838D01*
X009001Y022338D02*
X011736Y022338D01*
X011736Y022479D02*
X011736Y021947D01*
X011576Y021787D01*
X011576Y021389D01*
X011857Y021108D01*
X012083Y021108D01*
X012285Y020907D01*
X012375Y020817D01*
X012492Y020768D01*
X014807Y020768D01*
X014697Y020658D01*
X013370Y020658D01*
X013242Y020658D01*
X013125Y020610D01*
X012083Y019568D01*
X011857Y019568D01*
X011697Y019408D01*
X009564Y019408D01*
X009001Y019971D01*
X009001Y023956D01*
X009564Y024518D01*
X009595Y024518D01*
X009522Y024445D01*
X009426Y024214D01*
X009426Y023963D01*
X009522Y023731D01*
X009699Y023554D01*
X009931Y023458D01*
X010181Y023458D01*
X010181Y020968D01*
X009931Y020968D01*
X009699Y020872D01*
X009522Y020695D01*
X009426Y020464D01*
X009426Y020213D01*
X009522Y019981D01*
X009699Y019804D01*
X009931Y019708D01*
X010181Y019708D01*
X010181Y019408D01*
X010181Y019708D02*
X010413Y019804D01*
X010590Y019981D01*
X010632Y020083D01*
X010857Y019858D01*
X011255Y019858D01*
X011536Y020139D01*
X011536Y020537D01*
X011255Y020818D01*
X010857Y020818D01*
X010632Y020593D01*
X010590Y020695D01*
X010413Y020872D01*
X010181Y020968D01*
X010447Y020838D02*
X012353Y020838D01*
X012181Y021011D02*
X012181Y019666D01*
X012353Y019838D02*
X010447Y019838D01*
X010681Y020034D02*
X010681Y019408D01*
X011181Y019408D02*
X011181Y019858D01*
X011536Y020338D02*
X012853Y020338D01*
X012681Y020166D02*
X012681Y020768D01*
X013181Y020768D02*
X013181Y020633D01*
X013306Y020338D02*
X012056Y019088D01*
X009431Y019088D01*
X008681Y019838D01*
X008681Y024088D01*
X009431Y024838D01*
X013181Y024838D01*
X013931Y024088D01*
X019931Y024088D01*
X020181Y023838D01*
X024931Y023838D01*
X025431Y024338D01*
X025431Y026463D01*
X025911Y026338D02*
X025951Y026338D01*
X025951Y026128D02*
X026024Y025951D01*
X026111Y025864D01*
X026111Y022721D01*
X025548Y022158D01*
X019245Y022158D01*
X019117Y022158D01*
X019000Y022110D01*
X018751Y021861D01*
X018751Y022979D01*
X018911Y023139D01*
X018911Y023537D01*
X018680Y023768D01*
X019798Y023768D01*
X019910Y023657D01*
X020000Y023567D01*
X020117Y023518D01*
X024867Y023518D01*
X024995Y023518D01*
X025112Y023567D01*
X025612Y024067D01*
X025702Y024157D01*
X025751Y024275D01*
X025751Y025864D01*
X025838Y025951D01*
X025911Y026128D01*
X025911Y026799D01*
X025838Y026975D01*
X025703Y027110D01*
X025623Y027143D01*
X026239Y027143D01*
X026159Y027110D01*
X026024Y026975D01*
X025951Y026799D01*
X025951Y026128D01*
X026111Y025838D02*
X025751Y025838D01*
X025751Y025338D02*
X026111Y025338D01*
X026111Y024838D02*
X025751Y024838D01*
X025751Y024338D02*
X026111Y024338D01*
X025681Y024136D02*
X025681Y022291D01*
X025728Y022338D02*
X024235Y022338D01*
X024181Y022284D02*
X024181Y022158D01*
X024130Y022233D02*
X023732Y022233D01*
X023451Y022514D01*
X023451Y022912D01*
X023732Y023193D01*
X024130Y023193D01*
X024411Y022912D01*
X024411Y022514D01*
X024130Y022233D01*
X023681Y022284D02*
X023681Y022158D01*
X023627Y022338D02*
X023122Y022338D01*
X023097Y022313D02*
X023331Y022548D01*
X023331Y022713D01*
X022931Y022713D01*
X022931Y022313D01*
X023097Y022313D01*
X023181Y022398D02*
X023181Y022158D01*
X022931Y022313D02*
X022931Y022713D01*
X022931Y022713D01*
X022931Y022713D01*
X022531Y022713D01*
X022531Y022548D01*
X022765Y022313D01*
X022931Y022313D01*
X022931Y022338D02*
X022931Y022338D01*
X022740Y022338D02*
X021985Y022338D01*
X021880Y022233D02*
X022161Y022514D01*
X022161Y022912D01*
X021880Y023193D01*
X021482Y023193D01*
X021201Y022912D01*
X021201Y022514D01*
X021482Y022233D01*
X021880Y022233D01*
X021681Y022233D02*
X021681Y022158D01*
X021377Y022338D02*
X020872Y022338D01*
X020847Y022313D02*
X021081Y022548D01*
X021081Y022713D01*
X020681Y022713D01*
X020681Y022158D01*
X020681Y022313D02*
X020847Y022313D01*
X020681Y022313D02*
X020681Y022713D01*
X020681Y022713D01*
X020681Y022313D01*
X020515Y022313D01*
X020281Y022548D01*
X020281Y022713D01*
X020681Y022713D01*
X020681Y022713D01*
X020681Y022713D01*
X021081Y022713D01*
X021081Y022879D01*
X020847Y023113D01*
X020681Y023113D01*
X020681Y022714D01*
X020681Y023518D01*
X020681Y023113D02*
X020515Y023113D01*
X020281Y022879D01*
X020281Y022713D01*
X020681Y022713D01*
X020681Y022714D02*
X020681Y022714D01*
X020681Y023113D01*
X020681Y022838D02*
X020681Y022838D01*
X021081Y022838D02*
X021201Y022838D01*
X021681Y023193D02*
X021681Y023518D01*
X022181Y023518D02*
X022181Y022158D01*
X022181Y021518D02*
X022181Y019838D01*
X022181Y019338D02*
X022181Y018892D01*
X022186Y018889D02*
X022120Y018933D01*
X022048Y018963D01*
X021970Y018978D01*
X021931Y018978D01*
X021931Y018339D01*
X021931Y018339D01*
X021931Y018978D01*
X021891Y018978D01*
X021814Y018963D01*
X021741Y018933D01*
X021676Y018889D01*
X021620Y018833D01*
X021576Y018768D01*
X021546Y018695D01*
X021531Y018618D01*
X021531Y018338D01*
X021531Y018059D01*
X021546Y017982D01*
X021576Y017909D01*
X021620Y017843D01*
X021676Y017788D01*
X021741Y017744D01*
X021814Y017714D01*
X021891Y017698D01*
X021931Y017698D01*
X021970Y017698D01*
X022048Y017714D01*
X022120Y017744D01*
X022186Y017788D01*
X022242Y017843D01*
X022285Y017909D01*
X022316Y017982D01*
X022331Y018059D01*
X022331Y018338D01*
X021931Y018338D01*
X021931Y017698D01*
X021931Y018338D01*
X021931Y018338D01*
X021931Y018338D01*
X022451Y018338D01*
X022331Y018338D02*
X022331Y018618D01*
X022316Y018695D01*
X022285Y018768D01*
X022242Y018833D01*
X022186Y018889D01*
X022237Y018838D02*
X022519Y018838D01*
X022524Y018850D02*
X022451Y018674D01*
X022451Y018003D01*
X022524Y017826D01*
X022611Y017739D01*
X022611Y017652D01*
X022611Y017525D01*
X022660Y017407D01*
X022868Y017198D01*
X022719Y017198D01*
X022690Y017227D01*
X022522Y017296D01*
X022340Y017296D01*
X022171Y017227D01*
X022143Y017198D01*
X021830Y017198D01*
X021291Y017737D01*
X021291Y017779D01*
X021338Y017826D01*
X021411Y018003D01*
X021411Y018674D01*
X021338Y018850D01*
X021203Y018985D01*
X021026Y019058D01*
X020835Y019058D01*
X020659Y018985D01*
X020524Y018850D01*
X020451Y018674D01*
X020451Y018003D01*
X020524Y017826D01*
X020571Y017779D01*
X020571Y017660D01*
X020571Y017582D01*
X020332Y017821D01*
X020338Y017826D01*
X020411Y018003D01*
X020411Y018674D01*
X020338Y018850D01*
X020203Y018985D01*
X020026Y019058D01*
X019835Y019058D01*
X019681Y018994D01*
X019681Y019338D01*
X027706Y019338D01*
X027706Y019323D01*
X028146Y019323D01*
X028146Y019253D01*
X028216Y019253D01*
X028216Y018898D01*
X028517Y018898D01*
X028558Y018909D01*
X028594Y018930D01*
X028624Y018960D01*
X028645Y018996D01*
X028656Y019037D01*
X028656Y019253D01*
X028216Y019253D01*
X028216Y019323D01*
X028656Y019323D01*
X028656Y019338D01*
X030228Y019338D01*
X030625Y018942D01*
X030742Y018893D01*
X030870Y018893D01*
X031173Y018893D01*
X031223Y018844D01*
X031223Y018747D01*
X031293Y018579D01*
X031421Y018450D01*
X031590Y018380D01*
X031772Y018380D01*
X031940Y018450D01*
X032069Y018579D01*
X032139Y018747D01*
X032139Y018929D01*
X032069Y019098D01*
X031940Y019227D01*
X031772Y019296D01*
X031675Y019296D01*
X031633Y019338D01*
X032103Y019338D01*
X033203Y018238D01*
X033181Y018238D01*
X033181Y017839D01*
X033181Y018261D01*
X033181Y018238D02*
X033015Y018238D01*
X032781Y018004D01*
X032781Y017838D01*
X032781Y017673D01*
X033015Y017438D01*
X033181Y017438D01*
X033347Y017438D01*
X033581Y017673D01*
X033581Y017838D01*
X033181Y017838D01*
X033181Y015791D01*
X033228Y015838D02*
X028634Y015838D01*
X028654Y015858D02*
X028880Y015858D01*
X029161Y016139D01*
X029161Y016537D01*
X028955Y016743D01*
X029003Y016762D01*
X029132Y016891D01*
X029202Y017060D01*
X029202Y017156D01*
X029403Y017358D01*
X029630Y017358D01*
X029790Y017518D01*
X030822Y017518D01*
X030982Y017358D01*
X031380Y017358D01*
X031661Y017639D01*
X031661Y018037D01*
X031380Y018318D01*
X030982Y018318D01*
X030822Y018158D01*
X030661Y018158D01*
X030661Y018537D01*
X030380Y018818D01*
X029982Y018818D01*
X029822Y018658D01*
X029816Y018658D01*
X029831Y018673D01*
X029831Y018838D01*
X029431Y018838D01*
X029431Y018838D01*
X031223Y018838D01*
X031181Y018886D02*
X031181Y018318D01*
X031181Y017838D02*
X031181Y017838D01*
X029431Y017838D01*
X028743Y017151D01*
X029079Y016838D02*
X033789Y016838D01*
X033793Y016829D02*
X033921Y016700D01*
X034041Y016651D01*
X033048Y015658D01*
X028430Y015658D01*
X028312Y015610D01*
X028222Y015520D01*
X027847Y015145D01*
X027798Y015027D01*
X027798Y014900D01*
X027798Y014087D01*
X027847Y013969D01*
X027937Y013879D01*
X028141Y013676D01*
X028141Y013365D01*
X028367Y013138D01*
X028094Y013138D01*
X028139Y013247D01*
X028139Y013429D01*
X028069Y013598D01*
X027940Y013727D01*
X027772Y013796D01*
X027675Y013796D01*
X027251Y014221D01*
X027251Y014739D01*
X027338Y014826D01*
X027411Y015003D01*
X027411Y015674D01*
X027372Y015768D01*
X028367Y015768D01*
X028495Y015768D01*
X028545Y015789D01*
X028612Y015817D01*
X028612Y015817D01*
X028613Y015818D01*
X028654Y015858D01*
X028681Y015858D02*
X028681Y015658D01*
X028493Y015338D02*
X033181Y015338D01*
X034681Y016838D01*
X034181Y017088D02*
X034181Y017713D01*
X032056Y019838D01*
X032056Y027213D01*
X029181Y030088D01*
X029931Y029338D01*
X029931Y028713D02*
X028181Y028713D01*
X028181Y029166D02*
X028181Y029636D01*
X027978Y029838D02*
X027895Y029838D01*
X027681Y030119D02*
X027681Y030136D01*
X027681Y030588D02*
X026181Y030588D01*
X025681Y030636D02*
X025681Y030119D01*
X025895Y029838D02*
X025967Y029838D01*
X025951Y029338D02*
X025911Y029338D01*
X027681Y030588D02*
X029056Y029213D01*
X028478Y029338D02*
X028008Y029338D01*
X029181Y028338D02*
X030431Y027088D01*
X030431Y026088D01*
X031251Y026411D02*
X031251Y027566D01*
X031736Y027081D01*
X031736Y026411D01*
X031659Y026488D01*
X031494Y026488D01*
X031494Y026089D01*
X031493Y026089D01*
X031493Y026488D01*
X031328Y026488D01*
X031251Y026411D01*
X031493Y026338D02*
X031494Y026338D01*
X031681Y026466D02*
X031681Y027136D01*
X031478Y027338D02*
X031251Y027338D01*
X030931Y027713D02*
X030931Y024338D01*
X030681Y024088D01*
X031139Y023338D02*
X031736Y023338D01*
X031681Y022981D02*
X031681Y025710D01*
X031494Y025838D02*
X031493Y025838D01*
X031251Y025338D02*
X031736Y025338D01*
X031736Y024838D02*
X031251Y024838D01*
X031251Y026838D02*
X031736Y026838D01*
X030931Y027713D02*
X029931Y028713D01*
X029181Y028338D02*
X015931Y028338D01*
X015431Y027838D01*
X015431Y026463D01*
X014951Y026338D02*
X014911Y026338D01*
X014431Y026463D02*
X013681Y027213D01*
X013681Y030088D01*
X014056Y030463D01*
X013228Y030838D02*
X013133Y030838D01*
X013181Y030791D02*
X013181Y030886D01*
X013362Y031067D02*
X013452Y031157D01*
X013501Y031275D01*
X013501Y031480D01*
X013661Y031639D01*
X013661Y032037D01*
X013380Y032318D01*
X012982Y032318D01*
X012701Y032037D01*
X012701Y031639D01*
X012861Y031480D01*
X012861Y031471D01*
X010581Y029191D01*
X010581Y029338D01*
X010181Y029338D01*
X010181Y028791D01*
X010228Y028838D02*
X008001Y028838D01*
X007681Y028588D02*
X007681Y030838D01*
X008181Y030634D02*
X008181Y028318D01*
X008380Y028318D02*
X007982Y028318D01*
X007701Y028037D01*
X007701Y027639D01*
X007982Y027358D01*
X008380Y027358D01*
X008661Y027639D01*
X008661Y028037D01*
X008380Y028318D01*
X007884Y028338D02*
X009861Y028338D01*
X009861Y028275D02*
X009861Y027541D01*
X009793Y027473D01*
X009723Y027304D01*
X009723Y027122D01*
X009793Y026954D01*
X009921Y026825D01*
X010090Y026755D01*
X010272Y026755D01*
X010440Y026825D01*
X010569Y026954D01*
X010639Y027122D01*
X010639Y027304D01*
X010569Y027473D01*
X010501Y027541D01*
X010501Y028206D01*
X011701Y029406D01*
X011701Y029139D01*
X011982Y028858D01*
X012380Y028858D01*
X012661Y029139D01*
X012661Y029537D01*
X012380Y029818D01*
X012113Y029818D01*
X013362Y031067D01*
X013501Y031338D02*
X013941Y031338D01*
X013681Y031158D02*
X013681Y035808D01*
X013181Y035808D02*
X013181Y032318D01*
X013181Y031838D02*
X013181Y031338D01*
X010181Y028338D01*
X010181Y027213D01*
X010181Y026755D02*
X010181Y025658D01*
X009681Y025658D02*
X009681Y035808D01*
X010181Y035808D02*
X010181Y029339D01*
X010181Y029339D01*
X010181Y029738D01*
X010347Y029738D01*
X010581Y029504D01*
X010581Y029338D01*
X010181Y029338D01*
X010181Y028938D01*
X010328Y028938D01*
X010000Y028610D01*
X009957Y028567D01*
X009910Y028520D01*
X009861Y028402D01*
X009861Y028275D01*
X009861Y027838D02*
X008661Y027838D01*
X008181Y027358D02*
X008181Y027068D01*
X008485Y026838D02*
X009908Y026838D01*
X009737Y027338D02*
X007110Y027338D01*
X007181Y027198D02*
X007181Y027636D01*
X007383Y027838D02*
X007701Y027838D01*
X007681Y028136D02*
X007681Y027097D01*
X008485Y026338D02*
X010861Y026338D01*
X010861Y026838D02*
X010454Y026838D01*
X010625Y027338D02*
X010861Y027338D01*
X010861Y027838D02*
X010501Y027838D01*
X010633Y028338D02*
X011228Y028338D01*
X011181Y028291D02*
X011181Y028886D01*
X011133Y028838D02*
X012603Y028838D01*
X012681Y028916D02*
X012681Y030386D01*
X012633Y030338D02*
X012861Y030338D01*
X012861Y029838D02*
X012133Y029838D01*
X012181Y029818D02*
X012181Y029886D01*
X011728Y030338D02*
X008001Y030338D01*
X008001Y029838D02*
X011228Y029838D01*
X011181Y029791D02*
X011181Y035808D01*
X011681Y035808D02*
X011681Y030291D01*
X012181Y030791D02*
X012181Y035808D01*
X012681Y035808D02*
X012681Y031291D01*
X012728Y031338D02*
X007885Y031338D01*
X007681Y031378D02*
X007681Y031518D01*
X008181Y031518D02*
X008181Y031042D01*
X008221Y030838D02*
X012228Y030838D01*
X012701Y031838D02*
X009661Y031838D01*
X009181Y032318D02*
X009181Y035808D01*
X008681Y035808D02*
X008681Y032158D01*
X008181Y032158D02*
X008181Y035808D01*
X007681Y035808D02*
X007681Y032158D01*
X007181Y032158D02*
X007181Y035808D01*
X006681Y035808D02*
X006681Y032158D01*
X006181Y032158D02*
X006181Y035808D01*
X005681Y035808D02*
X005681Y032158D01*
X006181Y031518D02*
X006181Y031042D01*
X005885Y030338D02*
X007361Y030338D01*
X007361Y029838D02*
X005001Y029838D01*
X005001Y029338D02*
X007361Y029338D01*
X008001Y029338D02*
X010181Y029338D01*
X010181Y029338D01*
X010181Y028938D01*
X010015Y028938D01*
X009781Y029173D01*
X009781Y029338D01*
X010181Y029338D01*
X010181Y029338D01*
X010728Y029338D01*
X010681Y029291D02*
X010681Y035808D01*
X014181Y035808D02*
X014181Y031781D01*
X014681Y031781D02*
X014681Y035808D01*
X015181Y035808D02*
X015181Y031781D01*
X015681Y031781D02*
X015681Y035808D01*
X016181Y035808D02*
X016181Y031781D01*
X016681Y031781D02*
X016681Y035808D01*
X017181Y035808D02*
X017181Y031781D01*
X017681Y031781D02*
X017681Y035808D01*
X018181Y035808D02*
X018181Y031781D01*
X018681Y031781D02*
X018681Y035808D01*
X019181Y035808D02*
X019181Y031781D01*
X019681Y031781D02*
X019681Y035808D01*
X020181Y035808D02*
X020181Y032921D01*
X019908Y032838D02*
X001461Y032838D01*
X001461Y032338D02*
X019737Y032338D01*
X020625Y032338D02*
X021539Y032338D01*
X021539Y032838D02*
X021008Y032838D01*
X021181Y033011D02*
X021181Y031781D01*
X021611Y031838D02*
X013661Y031838D01*
X014921Y031338D02*
X014941Y031338D01*
X015921Y031338D02*
X015941Y031338D01*
X016921Y031338D02*
X016941Y031338D01*
X017921Y031338D02*
X017941Y031338D01*
X018921Y031338D02*
X018941Y031338D01*
X020681Y031158D02*
X020681Y032511D01*
X021681Y032981D02*
X021681Y033284D01*
X020681Y033416D02*
X020681Y035808D01*
X021181Y035808D02*
X021181Y035481D01*
X021039Y035338D02*
X001720Y035338D01*
X001681Y035275D02*
X001681Y034233D01*
X001699Y034338D02*
X001461Y034338D01*
X001717Y034439D02*
X001655Y034088D01*
X001717Y033738D01*
X001717Y033737D01*
X001895Y033429D01*
X001895Y033429D01*
X002168Y033200D01*
X002503Y033078D01*
X002625Y033078D01*
X002625Y033078D01*
X002681Y033078D01*
X003181Y033195D02*
X003181Y031542D01*
X002477Y031838D02*
X001461Y031838D01*
X001461Y031338D02*
X002141Y031338D01*
X002181Y031134D02*
X002181Y027597D01*
X002252Y027838D02*
X001461Y027838D01*
X001461Y028338D02*
X004361Y028338D01*
X004361Y027838D02*
X003110Y027838D01*
X002681Y028068D02*
X002681Y029338D01*
X002681Y028878D01*
X002717Y028878D01*
X002789Y028890D01*
X002858Y028912D01*
X002922Y028945D01*
X002981Y028987D01*
X003032Y029039D01*
X003074Y029097D01*
X003107Y029162D01*
X003130Y029231D01*
X003141Y029302D01*
X003141Y029338D01*
X002681Y029338D01*
X002681Y029338D01*
X002681Y028878D01*
X002645Y028878D01*
X002573Y028890D01*
X002504Y028912D01*
X002440Y028945D01*
X002381Y028987D01*
X002330Y029039D01*
X002288Y029097D01*
X002255Y029162D01*
X002232Y029231D01*
X002221Y029302D01*
X002221Y029338D01*
X002681Y029338D01*
X002681Y029338D01*
X004361Y029338D01*
X004361Y029838D02*
X001461Y029838D01*
X001461Y029338D02*
X002681Y029338D01*
X002681Y029338D01*
X003141Y029338D01*
X003141Y029374D01*
X003130Y029446D01*
X003107Y029515D01*
X003074Y029579D01*
X003032Y029638D01*
X002981Y029689D01*
X002922Y029732D01*
X002858Y029765D01*
X002789Y029787D01*
X002717Y029798D01*
X002681Y029798D01*
X002681Y029339D01*
X002681Y030798D01*
X002885Y030838D02*
X004361Y030838D01*
X004361Y030338D02*
X001461Y030338D01*
X002330Y029638D02*
X002288Y029579D01*
X002255Y029515D01*
X002232Y029446D01*
X002221Y029374D01*
X002221Y029338D01*
X002681Y029338D01*
X002681Y029339D02*
X002681Y029339D01*
X002681Y029798D01*
X002645Y029798D01*
X002573Y029787D01*
X002504Y029765D01*
X002440Y029732D01*
X002381Y029689D01*
X002330Y029638D01*
X001461Y028838D02*
X004361Y028838D01*
X005001Y028838D02*
X007361Y028838D01*
X007681Y028588D02*
X006681Y027588D01*
X005681Y027198D02*
X005681Y030298D01*
X005477Y030338D02*
X005001Y030338D01*
X002477Y030838D02*
X001461Y030838D01*
X002181Y031542D02*
X002181Y033195D01*
X002168Y033200D02*
X002168Y033200D01*
X002004Y033338D02*
X001461Y033338D01*
X001461Y033838D02*
X001699Y033838D01*
X001681Y033943D02*
X001681Y027097D01*
X001571Y026838D02*
X001461Y026838D01*
X001461Y026338D02*
X001571Y026338D01*
X002291Y026338D02*
X002374Y026338D01*
X002931Y026088D02*
X004181Y026088D01*
X004681Y026588D01*
X004821Y026276D02*
X004821Y026267D01*
X004821Y023987D01*
X003358Y022524D01*
X003384Y022560D01*
X003422Y022635D01*
X003448Y022714D01*
X003461Y022797D01*
X003461Y022838D01*
X002931Y022838D01*
X002931Y022308D01*
X002931Y022838D01*
X002931Y022838D01*
X002931Y022838D01*
X003672Y022838D01*
X003681Y022847D02*
X003681Y024147D01*
X003646Y024232D02*
X003727Y024035D01*
X003878Y023884D01*
X004074Y023803D01*
X004287Y023803D01*
X004484Y023884D01*
X004635Y024035D01*
X004716Y024232D01*
X004716Y024445D01*
X004635Y024641D01*
X004484Y024792D01*
X004287Y024874D01*
X004074Y024874D01*
X003878Y024792D01*
X003727Y024641D01*
X003646Y024445D01*
X003646Y024232D01*
X003646Y024338D02*
X003294Y024338D01*
X003276Y024355D02*
X003052Y024448D01*
X002830Y024448D01*
X002617Y024661D01*
X002653Y024635D01*
X002727Y024597D01*
X002807Y024571D01*
X002889Y024558D01*
X002931Y024558D01*
X002973Y024558D01*
X003055Y024571D01*
X003134Y024597D01*
X003209Y024635D01*
X003276Y024684D01*
X003335Y024743D01*
X003384Y024810D01*
X003422Y024885D01*
X003448Y024964D01*
X003461Y025047D01*
X003461Y025088D01*
X002931Y025088D01*
X002931Y024558D01*
X002931Y025088D01*
X002931Y025088D01*
X002931Y025088D01*
X002401Y025088D01*
X002931Y025088D01*
X002931Y025088D01*
X003461Y025088D01*
X003461Y025130D01*
X003448Y025212D01*
X003422Y025292D01*
X003384Y025366D01*
X003335Y025434D01*
X003276Y025492D01*
X003209Y025542D01*
X003207Y025542D01*
X003276Y025571D01*
X003448Y025743D01*
X003459Y025768D01*
X004117Y025768D01*
X004245Y025768D01*
X004362Y025817D01*
X004821Y026276D01*
X004681Y026136D02*
X004681Y024530D01*
X004716Y024338D02*
X004821Y024338D01*
X004681Y024147D02*
X004681Y023847D01*
X004672Y023838D02*
X004373Y023838D01*
X004181Y023803D02*
X004181Y023347D01*
X004172Y023338D02*
X003294Y023338D01*
X003276Y023321D02*
X003448Y023493D01*
X003541Y023717D01*
X003541Y023960D01*
X003448Y024184D01*
X003276Y024355D01*
X003181Y024395D02*
X003181Y024621D01*
X003398Y024838D02*
X003989Y024838D01*
X004181Y024874D02*
X004181Y025768D01*
X004383Y025838D02*
X004821Y025838D01*
X004821Y025338D02*
X003398Y025338D01*
X003181Y025088D02*
X003181Y025088D01*
X002931Y024838D02*
X002931Y024838D01*
X002681Y024621D02*
X002681Y024597D01*
X002463Y024838D02*
X002440Y024838D01*
X002681Y025088D02*
X002681Y025088D01*
X002464Y025338D02*
X002291Y025338D01*
X002291Y025838D02*
X002374Y025838D01*
X001571Y025838D02*
X001461Y025838D01*
X001461Y025338D02*
X001571Y025338D01*
X001571Y024838D02*
X001461Y024838D01*
X001681Y024579D02*
X001681Y015455D01*
X001461Y015838D02*
X002401Y015838D01*
X002681Y015592D02*
X002681Y015448D01*
X002868Y015838D02*
X002869Y015838D01*
X002681Y016088D02*
X002681Y016088D01*
X002401Y016338D02*
X001461Y016338D01*
X001461Y016838D02*
X002312Y016838D01*
X002312Y017338D02*
X001461Y017338D01*
X001461Y017838D02*
X002755Y017838D01*
X002728Y017847D02*
X002807Y017821D01*
X002889Y017808D01*
X002931Y017808D01*
X002973Y017808D01*
X003055Y017821D01*
X003134Y017847D01*
X003209Y017885D01*
X003276Y017934D01*
X003335Y017993D01*
X003384Y018060D01*
X003422Y018135D01*
X003448Y018214D01*
X003461Y018297D01*
X003461Y018338D01*
X002931Y018338D01*
X002931Y017808D01*
X002931Y018338D01*
X002931Y018338D01*
X002931Y018338D01*
X002401Y018338D01*
X002401Y018297D01*
X002414Y018214D01*
X002440Y018135D01*
X002478Y018060D01*
X002527Y017993D01*
X002586Y017934D01*
X002653Y017885D01*
X002728Y017847D01*
X002681Y017871D02*
X002681Y017671D01*
X002931Y017838D02*
X002931Y017838D01*
X003107Y017838D02*
X004861Y017838D01*
X004681Y017541D02*
X004681Y021204D01*
X004547Y021338D02*
X003488Y021338D01*
X003398Y020838D02*
X005047Y020838D01*
X005181Y020704D02*
X005181Y019541D01*
X004978Y019338D02*
X003541Y019338D01*
X003541Y019217D02*
X003541Y019460D01*
X003448Y019684D01*
X003276Y019855D01*
X003052Y019948D01*
X002810Y019948D01*
X002585Y019855D01*
X002414Y019684D01*
X002321Y019460D01*
X002321Y019217D01*
X002414Y018993D01*
X002585Y018821D01*
X002655Y018792D01*
X002653Y018792D01*
X002586Y018742D01*
X002527Y018684D01*
X002478Y018616D01*
X002440Y018542D01*
X002414Y018462D01*
X002401Y018380D01*
X002401Y018338D01*
X002931Y018338D01*
X002931Y018338D01*
X004861Y018338D01*
X004861Y018838D02*
X003294Y018838D01*
X003276Y018821D02*
X003448Y018993D01*
X003541Y019217D01*
X003276Y018821D02*
X003207Y018792D01*
X003209Y018792D01*
X003276Y018742D01*
X003335Y018684D01*
X003384Y018616D01*
X003422Y018542D01*
X003448Y018462D01*
X003461Y018380D01*
X003461Y018338D01*
X002931Y018338D01*
X001461Y018338D01*
X001461Y018838D02*
X002568Y018838D01*
X002681Y018338D02*
X002681Y018338D01*
X003181Y018338D02*
X003181Y018338D01*
X003181Y017871D02*
X003181Y017619D01*
X003681Y017408D02*
X003681Y021829D01*
X003690Y021838D02*
X004446Y021838D01*
X005166Y021838D02*
X005693Y021838D01*
X005681Y021851D02*
X005681Y021222D01*
X005565Y021338D02*
X005999Y021338D01*
X006039Y021243D02*
X006210Y021071D01*
X006435Y020978D01*
X006677Y020978D01*
X006901Y021071D01*
X007073Y021243D01*
X007166Y021467D01*
X007166Y021710D01*
X007123Y021812D01*
X007180Y021821D01*
X007259Y021847D01*
X007334Y021885D01*
X007401Y021934D01*
X007460Y021993D01*
X007509Y022060D01*
X007547Y022135D01*
X007573Y022214D01*
X007586Y022297D01*
X007586Y022338D01*
X007056Y022338D01*
X007056Y022338D01*
X008361Y022338D01*
X008255Y022358D02*
X008361Y022465D01*
X008361Y021962D01*
X008255Y022068D01*
X007857Y022068D01*
X007576Y021787D01*
X007576Y021389D01*
X007857Y021108D01*
X008255Y021108D01*
X008361Y021215D01*
X008361Y019775D01*
X008410Y019657D01*
X008500Y019567D01*
X009250Y018817D01*
X009367Y018768D01*
X009495Y018768D01*
X011697Y018768D01*
X011857Y018608D01*
X012255Y018608D01*
X012536Y018889D01*
X012536Y019116D01*
X013439Y020018D01*
X014697Y020018D01*
X014857Y019858D01*
X015255Y019858D01*
X015536Y020139D01*
X015536Y020281D01*
X016986Y018831D01*
X016986Y018712D01*
X016880Y018818D01*
X016482Y018818D01*
X016322Y018658D01*
X014995Y018658D01*
X014867Y018658D01*
X014750Y018610D01*
X014250Y018110D01*
X014250Y018110D01*
X014160Y018020D01*
X014111Y017902D01*
X014111Y017587D01*
X014005Y017693D01*
X013778Y017693D01*
X013161Y018311D01*
X013161Y018537D01*
X012880Y018818D01*
X012482Y018818D01*
X012201Y018537D01*
X012201Y018408D01*
X012056Y018468D01*
X011806Y018468D01*
X011574Y018372D01*
X011397Y018195D01*
X011301Y017964D01*
X011301Y017713D01*
X011397Y017481D01*
X011571Y017307D01*
X011571Y017237D01*
X011130Y016796D01*
X011090Y016796D01*
X010921Y016727D01*
X010793Y016598D01*
X010723Y016429D01*
X010723Y016247D01*
X010760Y016158D01*
X009922Y016158D01*
X009932Y016175D01*
X009994Y016526D01*
X009932Y016876D01*
X009932Y016877D01*
X009754Y017185D01*
X009481Y017414D01*
X009146Y017536D01*
X009024Y017536D01*
X008968Y017536D01*
X008913Y017536D01*
X008790Y017536D01*
X008456Y017414D01*
X008456Y017414D01*
X008183Y017185D01*
X008183Y017185D01*
X008005Y016877D01*
X008005Y016876D01*
X007943Y016526D01*
X007943Y016526D01*
X008005Y016175D01*
X008183Y015867D01*
X008183Y015867D01*
X008456Y015638D01*
X008790Y015516D01*
X008790Y015516D01*
X008906Y015516D01*
X008798Y015407D01*
X004289Y015438D01*
X005357Y016505D01*
X005397Y016505D01*
X005565Y016575D01*
X005594Y016603D01*
X006984Y016603D01*
X007128Y016603D01*
X007260Y016658D01*
X007810Y017208D01*
X008056Y017208D01*
X008288Y017304D01*
X008465Y017481D01*
X008561Y017713D01*
X008561Y017964D01*
X008465Y018195D01*
X008288Y018372D01*
X008056Y018468D01*
X007806Y018468D01*
X007574Y018372D01*
X007501Y018299D01*
X007509Y018310D01*
X007547Y018385D01*
X007573Y018464D01*
X007586Y018547D01*
X007586Y018588D01*
X007056Y018588D01*
X007056Y018588D01*
X007586Y018588D01*
X007586Y018630D01*
X007573Y018712D01*
X007547Y018792D01*
X007509Y018866D01*
X007460Y018934D01*
X007401Y018992D01*
X007334Y019042D01*
X007259Y019079D01*
X007180Y019105D01*
X007098Y019118D01*
X007056Y019118D01*
X007056Y018589D01*
X007056Y018589D01*
X007056Y019118D01*
X007014Y019118D01*
X006932Y019105D01*
X006852Y019079D01*
X006778Y019042D01*
X006711Y018992D01*
X006652Y018934D01*
X006603Y018866D01*
X006602Y018864D01*
X006573Y018934D01*
X006401Y019105D01*
X006177Y019198D01*
X005935Y019198D01*
X005710Y019105D01*
X005539Y018934D01*
X005501Y018842D01*
X005501Y018956D01*
X005814Y019268D01*
X007423Y019268D01*
X007576Y019116D01*
X007576Y018889D01*
X007857Y018608D01*
X008255Y018608D01*
X008536Y018889D01*
X008536Y019287D01*
X008255Y019568D01*
X008029Y019568D01*
X007827Y019770D01*
X007737Y019860D01*
X007620Y019908D01*
X006517Y019908D01*
X006590Y019981D01*
X006686Y020213D01*
X006686Y020464D01*
X006590Y020695D01*
X006413Y020872D01*
X006181Y020968D01*
X006181Y021101D01*
X006181Y020968D02*
X005935Y020968D01*
X005166Y021737D01*
X005166Y022689D01*
X005935Y023458D01*
X006181Y023458D01*
X006181Y022947D01*
X006177Y022948D02*
X005935Y022948D01*
X005710Y022855D01*
X005539Y022684D01*
X005446Y022460D01*
X005446Y022217D01*
X005539Y021993D01*
X005710Y021821D01*
X005935Y021728D01*
X005954Y021728D01*
X005946Y021710D01*
X005946Y021467D01*
X006039Y021243D01*
X006447Y020838D02*
X008361Y020838D01*
X008181Y021108D02*
X008181Y019568D01*
X008361Y019838D02*
X007758Y019838D01*
X007681Y019883D02*
X007681Y021284D01*
X007627Y021338D02*
X007113Y021338D01*
X007181Y021822D02*
X007181Y019908D01*
X007556Y019588D02*
X005868Y019588D01*
X005681Y019588D01*
X005181Y019088D01*
X005181Y017588D01*
X004681Y017088D01*
X002868Y017088D01*
X003681Y016768D02*
X003681Y015847D01*
X003672Y015838D02*
X003336Y015838D01*
X003181Y015660D02*
X003181Y015445D01*
X003181Y016088D02*
X003181Y016088D01*
X003336Y016338D02*
X004172Y016338D01*
X004181Y016347D02*
X004181Y016768D01*
X004181Y017408D02*
X004181Y022329D01*
X004190Y022338D02*
X004446Y022338D01*
X005166Y022338D02*
X005446Y022338D01*
X005181Y022704D02*
X005181Y021722D01*
X005315Y022838D02*
X005693Y022838D01*
X005681Y022826D02*
X005681Y023204D01*
X005815Y023338D02*
X008361Y023338D01*
X008255Y023318D02*
X007857Y023318D01*
X007576Y023037D01*
X007576Y022639D01*
X007857Y022358D01*
X008255Y022358D01*
X008181Y022358D02*
X008181Y022068D01*
X007681Y021892D02*
X007681Y022534D01*
X007573Y022462D02*
X007547Y022542D01*
X007509Y022616D01*
X007460Y022684D01*
X007401Y022742D01*
X007334Y022792D01*
X007259Y022829D01*
X007180Y022855D01*
X007098Y022868D01*
X007056Y022868D01*
X007056Y022339D01*
X007056Y022339D01*
X007056Y022868D01*
X007014Y022868D01*
X006932Y022855D01*
X006852Y022829D01*
X006778Y022792D01*
X006711Y022742D01*
X006652Y022684D01*
X006603Y022616D01*
X006602Y022614D01*
X006573Y022684D01*
X006401Y022855D01*
X006177Y022948D01*
X006419Y022838D02*
X006880Y022838D01*
X007056Y022838D02*
X007056Y022838D01*
X007181Y022855D02*
X007181Y023768D01*
X007681Y023768D02*
X007681Y023142D01*
X007576Y022838D02*
X007232Y022838D01*
X007181Y022338D02*
X007181Y022338D01*
X007056Y022338D02*
X007586Y022338D01*
X007586Y022380D01*
X007573Y022462D01*
X007627Y021838D02*
X007232Y021838D01*
X006681Y020980D02*
X006681Y020476D01*
X006686Y020338D02*
X008361Y020338D01*
X009001Y020338D02*
X009426Y020338D01*
X009665Y019838D02*
X009133Y019838D01*
X009181Y019791D02*
X009181Y024136D01*
X009383Y024338D02*
X009478Y024338D01*
X009478Y023838D02*
X009001Y023838D01*
X009001Y023338D02*
X012361Y023338D01*
X012255Y023318D02*
X011857Y023318D01*
X011576Y023037D01*
X011576Y022639D01*
X011736Y022479D01*
X011681Y022534D02*
X011681Y021892D01*
X011627Y021838D02*
X009001Y021838D01*
X009001Y021338D02*
X011627Y021338D01*
X011681Y021284D02*
X011681Y019408D01*
X011681Y018768D02*
X011681Y018417D01*
X011540Y018338D02*
X008322Y018338D01*
X008181Y018417D02*
X008181Y018608D01*
X008485Y018838D02*
X009228Y018838D01*
X009181Y018886D02*
X009181Y017523D01*
X009146Y017536D02*
X009146Y017536D01*
X009024Y017536D02*
X009024Y017536D01*
X008968Y017536D02*
X008968Y017536D01*
X008913Y017536D02*
X008913Y017536D01*
X008790Y017536D02*
X008790Y017536D01*
X008681Y017496D02*
X008681Y019386D01*
X008728Y019338D02*
X008485Y019338D01*
X008056Y019088D02*
X007556Y019588D01*
X007181Y019268D02*
X007181Y019105D01*
X007056Y018838D02*
X007056Y018838D01*
X007181Y018588D02*
X007181Y018588D01*
X007523Y018338D02*
X007540Y018338D01*
X007681Y018417D02*
X007681Y018784D01*
X007627Y018838D02*
X007523Y018838D01*
X006681Y018963D02*
X006681Y019268D01*
X006181Y019268D02*
X006181Y019197D01*
X005681Y019136D02*
X005681Y019076D01*
X005478Y019838D02*
X003294Y019838D01*
X003181Y019895D02*
X003181Y020121D01*
X003398Y020338D02*
X005426Y020338D01*
X006681Y020201D02*
X006681Y019908D01*
X009001Y020838D02*
X009665Y020838D01*
X009681Y020854D02*
X009681Y023572D01*
X010181Y023458D02*
X010413Y023554D01*
X010590Y023731D01*
X010686Y023963D01*
X010686Y024214D01*
X010590Y024445D01*
X010517Y024518D01*
X013048Y024518D01*
X013750Y023817D01*
X013867Y023768D01*
X013995Y023768D01*
X018182Y023768D01*
X017951Y023537D01*
X017951Y023139D01*
X018111Y022979D01*
X018111Y022497D01*
X018069Y022598D01*
X017940Y022727D01*
X017772Y022796D01*
X017590Y022796D01*
X017421Y022727D01*
X017353Y022658D01*
X014759Y022658D01*
X014690Y022727D01*
X014522Y022796D01*
X014340Y022796D01*
X014171Y022727D01*
X014043Y022598D01*
X013973Y022429D01*
X013973Y022247D01*
X014010Y022158D01*
X013064Y022158D01*
X013001Y022221D01*
X013001Y023510D01*
X013069Y023579D01*
X013139Y023747D01*
X013139Y023929D01*
X013069Y024098D01*
X012940Y024227D01*
X012772Y024296D01*
X012590Y024296D01*
X012421Y024227D01*
X012293Y024098D01*
X012223Y023929D01*
X012223Y023747D01*
X012293Y023579D01*
X012361Y023510D01*
X012361Y023212D01*
X012255Y023318D01*
X012181Y023318D02*
X012181Y024518D01*
X012681Y024518D02*
X012681Y024296D01*
X012681Y023838D02*
X012681Y022088D01*
X012931Y021838D01*
X017431Y021838D01*
X017931Y021338D01*
X018431Y021838D01*
X018431Y023338D01*
X018911Y023338D02*
X026111Y023338D01*
X026111Y023838D02*
X025384Y023838D01*
X025181Y023636D02*
X025181Y022158D01*
X024681Y022158D02*
X024681Y023518D01*
X024181Y023518D02*
X024181Y023142D01*
X024411Y022838D02*
X026111Y022838D01*
X026431Y022588D02*
X025681Y021838D01*
X019181Y021838D01*
X018681Y021338D01*
X018681Y017838D01*
X017681Y017838D01*
X017931Y018338D02*
X017931Y021338D01*
X017681Y022338D02*
X014431Y022338D01*
X013973Y022338D02*
X013001Y022338D01*
X013181Y022158D02*
X013181Y024386D01*
X013228Y024338D02*
X010634Y024338D01*
X010681Y024226D02*
X010681Y024518D01*
X011181Y024518D02*
X011181Y020818D01*
X010681Y020642D02*
X010681Y023951D01*
X010634Y023838D02*
X012223Y023838D01*
X011681Y024518D02*
X011681Y023142D01*
X013001Y023338D02*
X014431Y023338D01*
X014431Y022938D01*
X014597Y022938D01*
X014831Y023173D01*
X014831Y023338D01*
X014431Y023338D01*
X014431Y023338D01*
X014431Y022938D01*
X014265Y022938D01*
X014031Y023173D01*
X014031Y023338D01*
X014431Y023338D01*
X014431Y023338D01*
X017951Y023338D01*
X018181Y023767D02*
X018181Y023768D01*
X018681Y023767D02*
X018681Y023768D01*
X019181Y023768D02*
X019181Y022158D01*
X018751Y022338D02*
X020490Y022338D01*
X020681Y022338D02*
X020681Y022338D01*
X021181Y022158D02*
X021181Y023518D01*
X020181Y023518D02*
X020181Y022158D01*
X019681Y022158D02*
X019681Y023768D01*
X020056Y024463D02*
X020681Y025088D01*
X024056Y025088D01*
X024431Y025463D01*
X024431Y026463D01*
X025681Y027119D02*
X025681Y027143D01*
X025895Y026838D02*
X025967Y026838D01*
X026181Y027119D02*
X026181Y027143D01*
X026431Y026463D02*
X026431Y022588D01*
X026681Y021018D02*
X026681Y020481D01*
X026690Y020477D02*
X026522Y020546D01*
X026340Y020546D01*
X026171Y020477D01*
X026103Y020408D01*
X024259Y020408D01*
X024190Y020477D01*
X024022Y020546D01*
X023840Y020546D01*
X023671Y020477D01*
X023543Y020348D01*
X023473Y020179D01*
X023473Y019997D01*
X023539Y019838D01*
X019001Y019838D01*
X019181Y019838D02*
X023539Y019838D01*
X023181Y019838D02*
X023181Y021518D01*
X023681Y021518D02*
X023681Y020481D01*
X023539Y020338D02*
X019001Y020338D01*
X019681Y019838D02*
X019681Y021518D01*
X020181Y021518D02*
X020181Y019838D01*
X020181Y019338D02*
X020181Y018994D01*
X020343Y018838D02*
X020519Y018838D01*
X020681Y018994D02*
X020681Y019338D01*
X021181Y019338D02*
X021181Y018994D01*
X021343Y018838D02*
X021625Y018838D01*
X021681Y018892D02*
X021681Y019338D01*
X021681Y019838D02*
X021681Y021518D01*
X021181Y021518D02*
X021181Y019838D01*
X020681Y019838D02*
X020681Y021518D01*
X020281Y022838D02*
X018751Y022838D01*
X018111Y022838D02*
X013001Y022838D01*
X013681Y022158D02*
X013681Y023886D01*
X013728Y023838D02*
X013139Y023838D01*
X014031Y023504D02*
X014031Y023338D01*
X014431Y023338D01*
X014431Y023338D01*
X014831Y023338D01*
X014831Y023504D01*
X014597Y023738D01*
X014431Y023738D01*
X014431Y023339D01*
X014431Y023339D01*
X014431Y023738D01*
X014265Y023738D01*
X014031Y023504D01*
X014181Y023654D02*
X014181Y023768D01*
X014181Y023338D02*
X014181Y023338D01*
X014181Y023023D02*
X014181Y022731D01*
X014681Y022731D02*
X014681Y023023D01*
X014681Y023338D02*
X014681Y023338D01*
X014681Y023654D02*
X014681Y023768D01*
X015181Y023768D02*
X015181Y022658D01*
X015681Y022658D02*
X015681Y023768D01*
X016181Y023768D02*
X016181Y022658D01*
X016681Y022658D02*
X016681Y023768D01*
X017181Y023768D02*
X017181Y022658D01*
X017681Y022796D02*
X017681Y023768D01*
X017795Y025908D02*
X017838Y025951D01*
X017911Y026128D01*
X017911Y026799D01*
X017838Y026975D01*
X017703Y027110D01*
X017526Y027183D01*
X017335Y027183D01*
X017159Y027110D01*
X017024Y026975D01*
X016951Y026799D01*
X016951Y026128D01*
X017024Y025951D01*
X017067Y025908D01*
X016795Y025908D01*
X016838Y025951D01*
X016911Y026128D01*
X016911Y026799D01*
X016838Y026975D01*
X016751Y027062D01*
X016751Y027456D01*
X016814Y027518D01*
X021783Y027518D01*
X021660Y027395D01*
X021611Y027277D01*
X021611Y027150D01*
X021611Y027062D01*
X021548Y027088D01*
X021470Y027103D01*
X021431Y027103D01*
X021431Y026464D01*
X021431Y026464D01*
X021431Y027103D01*
X021391Y027103D01*
X021314Y027088D01*
X021241Y027058D01*
X021176Y027014D01*
X021120Y026958D01*
X021076Y026893D01*
X021046Y026820D01*
X021031Y026743D01*
X021031Y026463D01*
X021031Y026184D01*
X021046Y026107D01*
X021076Y026034D01*
X021120Y025968D01*
X021176Y025913D01*
X021182Y025908D01*
X020795Y025908D01*
X020838Y025951D01*
X020911Y026128D01*
X020911Y026799D01*
X020838Y026975D01*
X020703Y027110D01*
X020526Y027183D01*
X020335Y027183D01*
X020159Y027110D01*
X020024Y026975D01*
X019951Y026799D01*
X019951Y026128D01*
X020024Y025951D01*
X020067Y025908D01*
X019795Y025908D01*
X019838Y025951D01*
X019911Y026128D01*
X019911Y026799D01*
X019838Y026975D01*
X019703Y027110D01*
X019526Y027183D01*
X019335Y027183D01*
X019159Y027110D01*
X019024Y026975D01*
X018951Y026799D01*
X018951Y026128D01*
X019024Y025951D01*
X019067Y025908D01*
X018795Y025908D01*
X018838Y025951D01*
X018911Y026128D01*
X018911Y026799D01*
X018838Y026975D01*
X018703Y027110D01*
X018526Y027183D01*
X018335Y027183D01*
X018159Y027110D01*
X018024Y026975D01*
X017951Y026799D01*
X017951Y026128D01*
X018024Y025951D01*
X018067Y025908D01*
X017795Y025908D01*
X017911Y026338D02*
X017951Y026338D01*
X017967Y026838D02*
X017895Y026838D01*
X017681Y027119D02*
X017681Y027518D01*
X018181Y027518D02*
X018181Y027119D01*
X018681Y027119D02*
X018681Y027518D01*
X019181Y027518D02*
X019181Y027119D01*
X018967Y026838D02*
X018895Y026838D01*
X018911Y026338D02*
X018951Y026338D01*
X019911Y026338D02*
X019951Y026338D01*
X019967Y026838D02*
X019895Y026838D01*
X019681Y027119D02*
X019681Y027518D01*
X020181Y027518D02*
X020181Y027119D01*
X020681Y027119D02*
X020681Y027518D01*
X021181Y027518D02*
X021181Y027017D01*
X021054Y026838D02*
X020895Y026838D01*
X021031Y026463D02*
X021431Y026463D01*
X021031Y026463D01*
X021031Y026338D02*
X020911Y026338D01*
X021181Y026463D02*
X021181Y026463D01*
X021431Y026463D02*
X021431Y026463D01*
X021431Y026838D02*
X021431Y026838D01*
X021636Y027338D02*
X016751Y027338D01*
X016431Y027588D02*
X016681Y027838D01*
X028931Y027838D01*
X029181Y027588D01*
X029181Y026088D01*
X027431Y026463D02*
X027431Y027213D01*
X027181Y027463D01*
X022181Y027463D01*
X021931Y027213D01*
X021931Y025588D01*
X014056Y025588D01*
X013056Y026588D01*
X012056Y026588D01*
X012056Y025338D01*
X013181Y025338D02*
X014056Y024463D01*
X020056Y024463D01*
X021181Y025908D02*
X021181Y025909D01*
X021681Y027416D02*
X021681Y027518D01*
X020681Y028658D02*
X020681Y028909D01*
X021911Y029338D02*
X021951Y029338D01*
X021967Y029838D02*
X021895Y029838D01*
X021681Y030119D02*
X021681Y030511D01*
X021508Y030338D02*
X023007Y030338D01*
X022681Y030119D02*
X022681Y030664D01*
X022631Y030838D02*
X022008Y030838D01*
X022181Y031008D02*
X022181Y030119D01*
X021452Y030282D02*
X021452Y030282D01*
X021181Y030143D02*
X021181Y030119D01*
X022431Y030928D02*
X022431Y031338D01*
X022431Y030928D01*
X022431Y031338D02*
X022431Y031338D01*
X022251Y031838D02*
X022631Y031838D01*
X023231Y031838D02*
X024131Y031838D01*
X024181Y032138D02*
X024181Y033164D01*
X024355Y033338D02*
X025161Y033338D01*
X025161Y033358D02*
X025161Y033318D01*
X025201Y033318D01*
X025201Y032808D01*
X025201Y032838D02*
X025161Y032838D01*
X025161Y032808D02*
X025161Y033318D01*
X024651Y033318D01*
X024651Y033119D01*
X024961Y032808D01*
X025161Y032808D01*
X024931Y032838D02*
X023855Y032838D01*
X023681Y032664D02*
X023681Y031668D01*
X023601Y031748D02*
X023841Y031508D01*
X023841Y031338D01*
X023431Y031338D01*
X023431Y031338D01*
X023941Y031338D01*
X023681Y031338D02*
X023681Y031338D01*
X023431Y031339D02*
X023431Y031748D01*
X023601Y031748D01*
X023431Y031748D02*
X023261Y031748D01*
X023231Y031718D01*
X023231Y032214D01*
X024565Y033548D01*
X024651Y033548D01*
X024651Y033358D01*
X025161Y033358D01*
X024681Y033358D02*
X024681Y033318D01*
X024681Y033089D02*
X024681Y032611D01*
X024382Y032338D02*
X023355Y032338D01*
X023431Y031748D02*
X023431Y031339D01*
X023431Y031339D01*
X022967Y029838D02*
X022895Y029838D01*
X022911Y029338D02*
X022951Y029338D01*
X019181Y028807D02*
X019181Y028658D01*
X019137Y028838D02*
X018725Y028838D01*
X018681Y028807D02*
X018681Y028658D01*
X018181Y028658D02*
X018181Y028807D01*
X018137Y028838D02*
X017725Y028838D01*
X017681Y028807D02*
X017681Y028658D01*
X017181Y028658D02*
X017181Y028807D01*
X017137Y028838D02*
X016725Y028838D01*
X016681Y028807D02*
X016681Y028658D01*
X016181Y028658D02*
X016181Y028807D01*
X016137Y028838D02*
X015725Y028838D01*
X015681Y028807D02*
X015681Y028541D01*
X015478Y028338D02*
X014001Y028338D01*
X014001Y027838D02*
X015111Y027838D01*
X015181Y028041D02*
X015181Y028807D01*
X015137Y028838D02*
X014725Y028838D01*
X014681Y028807D02*
X014681Y027119D01*
X014895Y026838D02*
X014967Y026838D01*
X015111Y027338D02*
X014008Y027338D01*
X014181Y027166D02*
X014181Y028807D01*
X014137Y028838D02*
X014001Y028838D01*
X014911Y029338D02*
X014951Y029338D01*
X015911Y029338D02*
X015951Y029338D01*
X016911Y029338D02*
X016951Y029338D01*
X017911Y029338D02*
X017951Y029338D01*
X018911Y029338D02*
X018951Y029338D01*
X017181Y027518D02*
X017181Y027119D01*
X016967Y026838D02*
X016895Y026838D01*
X016911Y026338D02*
X016951Y026338D01*
X016431Y026463D02*
X016431Y027588D01*
X012861Y029338D02*
X012661Y029338D01*
X012181Y028858D02*
X012181Y028783D01*
X011681Y028758D02*
X011681Y029386D01*
X011701Y029338D02*
X011633Y029338D01*
X010681Y028386D02*
X010681Y025791D01*
X010728Y025838D02*
X007523Y025838D01*
X007681Y025642D02*
X007681Y026228D01*
X008181Y026108D02*
X008181Y025818D01*
X008536Y025338D02*
X008728Y025338D01*
X008681Y025291D02*
X008681Y031518D01*
X010015Y029738D02*
X009781Y029504D01*
X009781Y029338D01*
X010181Y029338D01*
X010181Y029338D01*
X010181Y029339D02*
X010181Y029738D01*
X010015Y029738D01*
X007181Y026088D02*
X007181Y026088D01*
X007181Y025572D02*
X007181Y024408D01*
X007681Y024408D02*
X007681Y025034D01*
X007576Y025338D02*
X007166Y025338D01*
X006919Y024838D02*
X008228Y024838D01*
X008181Y024858D02*
X008181Y024791D01*
X007931Y024088D02*
X009181Y025338D01*
X007931Y024088D02*
X006056Y024088D01*
X006605Y023768D02*
X007867Y023768D01*
X007995Y023768D01*
X008112Y023817D01*
X008361Y024066D01*
X008361Y023212D01*
X008255Y023318D01*
X008181Y023318D02*
X008181Y023886D01*
X008133Y023838D02*
X008361Y023838D01*
X006681Y023768D02*
X006681Y022713D01*
X006413Y023554D02*
X006590Y023731D01*
X006605Y023768D01*
X006413Y023554D02*
X006181Y023458D01*
X006681Y024408D02*
X006681Y024730D01*
X006181Y024718D02*
X005931Y024718D01*
X005699Y024622D01*
X005681Y024604D02*
X005681Y025601D01*
X005541Y025338D02*
X005946Y025338D01*
X004821Y024838D02*
X004372Y024838D01*
X003681Y024530D02*
X003681Y025768D01*
X002181Y024079D02*
X002181Y015452D01*
X002181Y014838D02*
X002181Y013533D01*
X002098Y013338D02*
X001461Y013338D01*
X001461Y013838D02*
X003343Y013838D01*
X003181Y013533D02*
X003018Y013696D01*
X002799Y013787D01*
X003321Y014338D02*
X001461Y014338D01*
X001461Y014838D02*
X001461Y002894D01*
X001461Y002838D01*
X001461Y003338D02*
X006206Y003338D01*
X006181Y003363D02*
X006181Y001618D01*
X006681Y001618D02*
X006681Y002966D01*
X007181Y003003D02*
X007181Y001618D01*
X007681Y001618D02*
X007681Y004852D01*
X007714Y004838D02*
X007176Y004838D01*
X007318Y005338D02*
X006690Y005338D01*
X006681Y005347D02*
X006681Y005916D01*
X009181Y004248D02*
X009181Y001618D01*
X009681Y002301D02*
X009681Y002436D01*
X010681Y001618D02*
X010681Y005329D01*
X012543Y003838D02*
X016178Y003838D01*
X016181Y003933D02*
X016181Y004829D01*
X016172Y004838D02*
X014673Y004838D01*
X014386Y004338D02*
X016501Y004338D01*
X017221Y004338D02*
X018596Y004338D01*
X018604Y004330D02*
X018855Y004226D01*
X019127Y004226D01*
X019378Y004330D01*
X019570Y004522D01*
X019673Y004772D01*
X019673Y005044D01*
X019570Y005295D01*
X019378Y005487D01*
X019127Y005591D01*
X018855Y005591D01*
X018683Y005520D01*
X018683Y005594D01*
X018580Y005845D01*
X018388Y006037D01*
X018137Y006141D01*
X017865Y006141D01*
X017614Y006037D01*
X017422Y005845D01*
X017318Y005594D01*
X017318Y005322D01*
X017422Y005072D01*
X017614Y004880D01*
X017865Y004776D01*
X018137Y004776D01*
X018308Y004847D01*
X018308Y004772D01*
X018412Y004522D01*
X018604Y004330D01*
X018681Y004298D02*
X018681Y001618D01*
X019181Y001618D02*
X019181Y004248D01*
X019386Y004338D02*
X021501Y004338D01*
X021181Y003933D02*
X021181Y004829D01*
X021172Y004838D02*
X019673Y004838D01*
X019526Y005338D02*
X020672Y005338D01*
X020681Y005329D02*
X020681Y001618D01*
X021181Y001618D02*
X021181Y003363D01*
X021206Y003338D02*
X017516Y003338D01*
X017181Y003003D02*
X017181Y001618D01*
X017681Y001618D02*
X017681Y004852D01*
X017714Y004838D02*
X017176Y004838D01*
X017181Y004826D02*
X017181Y006163D01*
X017333Y006316D02*
X016934Y005916D01*
X016368Y005916D01*
X015968Y006316D01*
X015968Y006881D01*
X016368Y007281D01*
X016934Y007281D01*
X017333Y006881D01*
X017333Y006316D01*
X017333Y006338D02*
X020321Y006338D01*
X020321Y006838D02*
X017333Y006838D01*
X017181Y007033D02*
X017181Y007659D01*
X017002Y007838D02*
X013860Y007838D01*
X013681Y007659D02*
X013681Y006847D01*
X013690Y006838D02*
X015968Y006838D01*
X016181Y007093D02*
X016181Y011895D01*
X016681Y011895D02*
X016681Y007281D01*
X017681Y007659D02*
X017681Y006064D01*
X017420Y005838D02*
X016190Y005838D01*
X016181Y005847D02*
X016181Y006103D01*
X015968Y006338D02*
X014190Y006338D01*
X014181Y006347D02*
X014181Y011895D01*
X014681Y011895D02*
X014681Y006198D01*
X015181Y006198D02*
X015181Y011895D01*
X015681Y011895D02*
X015681Y006198D01*
X016681Y005916D02*
X016681Y005347D01*
X016690Y005338D02*
X017318Y005338D01*
X018181Y004794D02*
X018181Y001618D01*
X016681Y001618D02*
X016681Y002966D01*
X017543Y003838D02*
X021178Y003838D01*
X021681Y002966D02*
X021681Y001618D01*
X022181Y001618D02*
X022181Y003003D01*
X022516Y003338D02*
X026206Y003338D01*
X026181Y003363D02*
X026181Y001618D01*
X026681Y001618D02*
X026681Y002966D01*
X027181Y003003D02*
X027181Y001618D01*
X027681Y001618D02*
X027681Y004852D01*
X027714Y004838D02*
X027221Y004838D01*
X027315Y005338D02*
X027318Y005338D01*
X026797Y005838D02*
X023582Y005838D01*
X023681Y005600D02*
X023681Y007409D01*
X024181Y007358D02*
X024181Y005568D01*
X024526Y005338D02*
X026501Y005338D01*
X026681Y005722D02*
X026681Y005916D01*
X026181Y006103D02*
X026181Y003933D01*
X026178Y003838D02*
X022543Y003838D01*
X022221Y004338D02*
X023596Y004338D01*
X023681Y004298D02*
X023681Y001618D01*
X024181Y001618D02*
X024181Y004248D01*
X024386Y004338D02*
X026501Y004338D01*
X027221Y004338D02*
X028596Y004338D01*
X028681Y004298D02*
X028681Y001618D01*
X029181Y001618D02*
X029181Y004248D01*
X029386Y004338D02*
X031501Y004338D01*
X031501Y004253D02*
X031178Y003931D01*
X031178Y003366D01*
X031578Y002966D01*
X032144Y002966D01*
X032543Y003366D01*
X032543Y003931D01*
X032221Y004253D01*
X032221Y004587D01*
X032221Y004730D01*
X032166Y004862D01*
X031291Y005737D01*
X031291Y005993D01*
X031368Y005916D01*
X031934Y005916D01*
X032333Y006316D01*
X032333Y006881D01*
X031934Y007281D01*
X031368Y007281D01*
X031291Y007203D01*
X031291Y007519D01*
X031411Y007639D01*
X031411Y008037D01*
X031130Y008318D01*
X030732Y008318D01*
X030451Y008037D01*
X030451Y007639D01*
X030571Y007519D01*
X030571Y005660D01*
X030571Y005517D01*
X030626Y005384D01*
X031501Y004509D01*
X031501Y004253D01*
X031181Y003933D02*
X031181Y004829D01*
X031172Y004838D02*
X029673Y004838D01*
X029526Y005338D02*
X030672Y005338D01*
X030681Y005329D02*
X030681Y001618D01*
X031181Y001618D02*
X031181Y003363D01*
X031206Y003338D02*
X027516Y003338D01*
X027543Y003838D02*
X031178Y003838D01*
X031681Y002966D02*
X031681Y001618D01*
X032181Y001618D02*
X032181Y003003D01*
X032516Y003338D02*
X036206Y003338D01*
X036181Y003363D02*
X036181Y001618D01*
X036681Y001618D02*
X036681Y002966D01*
X036578Y002966D02*
X037144Y002966D01*
X037543Y003366D01*
X037543Y003931D01*
X037221Y004253D01*
X037221Y004587D01*
X037221Y004730D01*
X037166Y004862D01*
X036291Y005737D01*
X036291Y005993D01*
X036368Y005916D01*
X036934Y005916D01*
X037333Y006316D01*
X037333Y006881D01*
X036934Y007281D01*
X036368Y007281D01*
X036291Y007203D01*
X036291Y007519D01*
X036411Y007639D01*
X036411Y008037D01*
X036130Y008318D01*
X035732Y008318D01*
X035451Y008037D01*
X035451Y007639D01*
X035571Y007519D01*
X035571Y005660D01*
X035571Y005517D01*
X035626Y005384D01*
X036501Y004509D01*
X036501Y004253D01*
X036178Y003931D01*
X036178Y003366D01*
X036578Y002966D01*
X037181Y003003D02*
X037181Y001618D01*
X037681Y001618D02*
X037681Y004852D01*
X037714Y004838D02*
X037176Y004838D01*
X037181Y004826D02*
X037181Y006163D01*
X037333Y006338D02*
X040968Y006338D01*
X040681Y006198D02*
X040681Y007409D01*
X040451Y007838D02*
X039411Y007838D01*
X039411Y007639D02*
X039411Y008037D01*
X039130Y008318D01*
X038732Y008318D01*
X038451Y008037D01*
X038451Y007639D01*
X038732Y007358D01*
X039130Y007358D01*
X039411Y007639D01*
X039181Y007409D02*
X039181Y006198D01*
X038681Y006198D02*
X038681Y007409D01*
X038451Y007838D02*
X036411Y007838D01*
X036181Y008267D02*
X036181Y011909D01*
X035855Y011838D02*
X039922Y011838D01*
X039931Y011938D02*
X039931Y012338D01*
X039931Y011938D01*
X039681Y012023D02*
X039681Y011597D01*
X039727Y011643D02*
X039727Y011643D01*
X039571Y011338D02*
X038411Y011338D01*
X038411Y011139D02*
X038291Y011019D01*
X038291Y010407D01*
X038411Y010287D01*
X038411Y009889D01*
X038130Y009608D01*
X037732Y009608D01*
X037451Y009889D01*
X037451Y010287D01*
X037571Y010407D01*
X037571Y011019D01*
X037451Y011139D01*
X037451Y011537D01*
X037732Y011818D01*
X038130Y011818D01*
X038411Y011537D01*
X038411Y011139D01*
X038291Y010838D02*
X039571Y010838D01*
X039571Y010338D02*
X038360Y010338D01*
X038360Y009838D02*
X039571Y009838D01*
X039681Y009529D02*
X039681Y006198D01*
X040181Y006198D02*
X040181Y009029D01*
X040372Y008838D02*
X038411Y008838D01*
X038411Y008639D02*
X038130Y008358D01*
X037732Y008358D01*
X037451Y008639D01*
X037451Y009037D01*
X037732Y009318D01*
X038130Y009318D01*
X038411Y009037D01*
X038411Y008639D01*
X038181Y008409D02*
X038181Y006145D01*
X037681Y006064D02*
X037681Y008409D01*
X037411Y008639D02*
X037130Y008358D01*
X036732Y008358D01*
X036451Y008639D01*
X036451Y009037D01*
X036732Y009318D01*
X037130Y009318D01*
X037411Y009037D01*
X037411Y008639D01*
X037411Y008838D02*
X037451Y008838D01*
X037181Y008409D02*
X037181Y007033D01*
X037333Y006838D02*
X040968Y006838D01*
X041181Y007093D02*
X041181Y007409D01*
X041496Y007338D02*
X036291Y007338D01*
X036681Y007281D02*
X036681Y008409D01*
X036451Y008838D02*
X033411Y008838D01*
X033411Y008639D02*
X033130Y008358D01*
X032732Y008358D01*
X032451Y008639D01*
X032451Y009037D01*
X032732Y009318D01*
X033130Y009318D01*
X033411Y009037D01*
X033411Y008639D01*
X033181Y008409D02*
X033181Y006122D01*
X033137Y006141D02*
X032865Y006141D01*
X032614Y006037D01*
X032422Y005845D01*
X032318Y005594D01*
X032318Y005322D01*
X032422Y005072D01*
X032614Y004880D01*
X032865Y004776D01*
X033137Y004776D01*
X033308Y004847D01*
X033308Y004772D01*
X033412Y004522D01*
X033604Y004330D01*
X033855Y004226D01*
X034127Y004226D01*
X034378Y004330D01*
X034570Y004522D01*
X034673Y004772D01*
X034673Y005044D01*
X034570Y005295D01*
X034378Y005487D01*
X034127Y005591D01*
X033855Y005591D01*
X033683Y005520D01*
X033683Y005594D01*
X033580Y005845D01*
X033388Y006037D01*
X033137Y006141D01*
X032681Y006064D02*
X032681Y008409D01*
X032411Y008639D02*
X032130Y008358D01*
X031732Y008358D01*
X031451Y008639D01*
X031451Y009037D01*
X031732Y009318D01*
X032130Y009318D01*
X032411Y009037D01*
X032411Y008639D01*
X032411Y008838D02*
X032451Y008838D01*
X032181Y008409D02*
X032181Y007033D01*
X032333Y006838D02*
X035571Y006838D01*
X035571Y006338D02*
X032333Y006338D01*
X032181Y006163D02*
X032181Y004826D01*
X032176Y004838D02*
X032714Y004838D01*
X032681Y004852D02*
X032681Y001618D01*
X033181Y001618D02*
X033181Y004794D01*
X033288Y004838D02*
X033308Y004838D01*
X033596Y004338D02*
X032221Y004338D01*
X032543Y003838D02*
X036178Y003838D01*
X036181Y003933D02*
X036181Y004829D01*
X036172Y004838D02*
X034673Y004838D01*
X034526Y005338D02*
X035672Y005338D01*
X035681Y005329D02*
X035681Y001618D01*
X034681Y002301D02*
X034681Y002436D01*
X034629Y002838D02*
X030393Y002838D01*
X030181Y002971D02*
X030181Y011848D01*
X030671Y012338D02*
X032507Y012338D01*
X032681Y012164D02*
X032681Y011767D01*
X033007Y011838D02*
X024001Y011838D01*
X024181Y011848D02*
X024181Y011508D01*
X024031Y011188D02*
X023681Y011538D01*
X023681Y013788D01*
X023681Y014338D01*
X023931Y014588D01*
X023931Y015338D01*
X024411Y015338D02*
X024451Y015338D01*
X024931Y015338D02*
X025681Y016088D01*
X028431Y016088D01*
X028681Y016338D01*
X029161Y016338D02*
X030681Y016338D01*
X030681Y015658D01*
X030681Y015938D02*
X030847Y015938D01*
X031081Y016173D01*
X031081Y016338D01*
X030681Y016338D01*
X030681Y015938D01*
X030681Y016338D01*
X030681Y016338D01*
X030681Y016338D01*
X030281Y016338D01*
X030281Y016173D01*
X030515Y015938D01*
X030681Y015938D01*
X030681Y016338D02*
X030681Y016338D01*
X033728Y016338D01*
X033681Y016291D02*
X033681Y017761D01*
X033603Y017838D02*
X033181Y017838D01*
X033181Y017438D01*
X033181Y017838D01*
X033181Y017838D01*
X033181Y017838D01*
X032781Y017838D01*
X033181Y017838D01*
X033181Y017838D01*
X031661Y017838D01*
X031681Y018380D02*
X031681Y015658D01*
X032181Y015658D02*
X032181Y019261D01*
X031681Y019296D02*
X031681Y019338D01*
X031306Y019213D02*
X030806Y019213D01*
X030181Y019838D01*
X030181Y021338D01*
X031431Y022588D01*
X031431Y021588D02*
X030931Y021088D01*
X030931Y019963D01*
X031306Y019213D02*
X031681Y018838D01*
X032139Y018838D02*
X032603Y018838D01*
X032681Y018761D02*
X032681Y015658D01*
X033681Y014588D02*
X033181Y014088D01*
X031181Y014088D01*
X030681Y014588D01*
X029681Y014588D01*
X028493Y015338D02*
X028118Y014963D01*
X028118Y014151D01*
X028681Y013588D01*
X028681Y013588D01*
X028181Y013325D02*
X028181Y013138D01*
X028167Y013338D02*
X028139Y013338D01*
X027681Y013338D02*
X026931Y014088D01*
X026931Y015338D01*
X026931Y015276D01*
X027411Y015338D02*
X028041Y015338D01*
X028181Y015478D02*
X028181Y015768D01*
X027681Y015768D02*
X027681Y013796D01*
X027633Y013838D02*
X027978Y013838D01*
X027798Y014338D02*
X027251Y014338D01*
X027343Y014838D02*
X027798Y014838D01*
X029181Y015658D02*
X029181Y017010D01*
X029384Y017338D02*
X033789Y017338D01*
X033793Y017348D02*
X033723Y017179D01*
X033723Y016997D01*
X033793Y016829D01*
X033793Y017348D02*
X033861Y017416D01*
X033861Y017581D01*
X033581Y017861D01*
X033581Y017838D01*
X033181Y017838D01*
X033181Y017839D02*
X033181Y017839D01*
X033181Y018238D01*
X033103Y018338D02*
X030661Y018338D01*
X030681Y018158D02*
X030681Y018919D01*
X030181Y018818D02*
X030181Y019338D01*
X029831Y019004D02*
X029597Y019238D01*
X029431Y019238D01*
X029431Y018839D01*
X029431Y018839D01*
X029431Y019238D01*
X029265Y019238D01*
X029031Y019004D01*
X029031Y018838D01*
X029031Y018673D01*
X029066Y018637D01*
X029000Y018609D01*
X027588Y017198D01*
X027369Y017198D01*
X027389Y017247D01*
X027389Y017429D01*
X027319Y017598D01*
X027214Y017703D01*
X027338Y017826D01*
X027411Y018003D01*
X027411Y018674D01*
X027338Y018850D01*
X027203Y018985D01*
X027026Y019058D01*
X026835Y019058D01*
X026659Y018985D01*
X026524Y018850D01*
X026451Y018674D01*
X026451Y018003D01*
X026524Y017826D01*
X026648Y017703D01*
X026603Y017658D01*
X026123Y017658D01*
X026203Y017691D01*
X026338Y017826D01*
X026411Y018003D01*
X026411Y018674D01*
X026338Y018850D01*
X026203Y018985D01*
X026026Y019058D01*
X025835Y019058D01*
X025659Y018985D01*
X025524Y018850D01*
X025451Y018674D01*
X025451Y018003D01*
X025524Y017826D01*
X025659Y017691D01*
X025739Y017658D01*
X025123Y017658D01*
X025203Y017691D01*
X025338Y017826D01*
X025411Y018003D01*
X025411Y018674D01*
X025338Y018850D01*
X025203Y018985D01*
X025026Y019058D01*
X024835Y019058D01*
X024659Y018985D01*
X024524Y018850D01*
X024451Y018674D01*
X024451Y018003D01*
X024524Y017826D01*
X024659Y017691D01*
X024739Y017658D01*
X024123Y017658D01*
X024203Y017691D01*
X024338Y017826D01*
X024411Y018003D01*
X024411Y018674D01*
X024338Y018850D01*
X024203Y018985D01*
X024026Y019058D01*
X023835Y019058D01*
X023659Y018985D01*
X023524Y018850D01*
X023451Y018674D01*
X023451Y018003D01*
X023524Y017826D01*
X023659Y017691D01*
X023739Y017658D01*
X023314Y017658D01*
X023251Y017721D01*
X023251Y017739D01*
X023338Y017826D01*
X023411Y018003D01*
X023411Y018674D01*
X023338Y018850D01*
X023203Y018985D01*
X023026Y019058D01*
X022835Y019058D01*
X022659Y018985D01*
X022524Y018850D01*
X022681Y018994D02*
X022681Y019338D01*
X023181Y019338D02*
X023181Y018994D01*
X023343Y018838D02*
X023519Y018838D01*
X023681Y018994D02*
X023681Y019338D01*
X024181Y019338D02*
X024181Y018994D01*
X024343Y018838D02*
X024519Y018838D01*
X024681Y018994D02*
X024681Y019338D01*
X025181Y019338D02*
X025181Y018994D01*
X025343Y018838D02*
X025519Y018838D01*
X025681Y018994D02*
X025681Y019338D01*
X026181Y019338D02*
X026181Y018994D01*
X026343Y018838D02*
X026519Y018838D01*
X026681Y018994D02*
X026681Y019338D01*
X027181Y019338D02*
X027181Y018994D01*
X027343Y018838D02*
X029431Y018838D01*
X029031Y018838D01*
X029431Y018838D01*
X029431Y018838D01*
X029831Y018838D01*
X029831Y019004D01*
X029681Y019154D02*
X029681Y019338D01*
X029181Y019338D02*
X029181Y019154D01*
X029181Y018838D02*
X029181Y018838D01*
X029181Y018338D02*
X027681Y016838D01*
X027681Y017291D02*
X027681Y019338D01*
X027706Y019253D02*
X027706Y019037D01*
X027717Y018996D01*
X027738Y018960D01*
X027768Y018930D01*
X027804Y018909D01*
X027845Y018898D01*
X028146Y018898D01*
X028146Y019253D01*
X027706Y019253D01*
X028181Y019253D02*
X028181Y017791D01*
X028228Y017838D02*
X027343Y017838D01*
X027411Y018338D02*
X028728Y018338D01*
X028681Y018291D02*
X028681Y019338D01*
X028681Y019838D02*
X028681Y021018D01*
X028181Y021018D02*
X028181Y019924D01*
X028216Y019924D02*
X028146Y019924D01*
X028146Y020278D01*
X027845Y020278D01*
X027804Y020267D01*
X027768Y020246D01*
X027738Y020216D01*
X027717Y020180D01*
X027706Y020139D01*
X027706Y019923D01*
X028146Y019923D01*
X028146Y019853D01*
X027706Y019853D01*
X027706Y019838D01*
X026823Y019838D01*
X026889Y019997D01*
X026889Y020179D01*
X026819Y020348D01*
X026690Y020477D01*
X026823Y020338D02*
X029861Y020338D01*
X029861Y020838D02*
X019001Y020838D01*
X019001Y019338D02*
X019181Y019338D01*
X019681Y019338D02*
X019681Y018994D01*
X019181Y018838D02*
X019001Y018838D01*
X019001Y018338D02*
X019181Y018338D01*
X019181Y017838D02*
X019139Y017838D01*
X018681Y017380D02*
X018681Y016408D01*
X018181Y016408D02*
X018181Y017518D01*
X016681Y017533D02*
X016681Y017858D01*
X016681Y018338D02*
X014931Y018338D01*
X014431Y017838D01*
X014431Y016713D01*
X013806Y016088D01*
X014508Y016338D02*
X017103Y016338D01*
X017181Y016261D02*
X017181Y015858D01*
X015502Y016838D02*
X014751Y016838D01*
X014681Y016511D02*
X014681Y015858D01*
X014751Y017338D02*
X015326Y017338D01*
X015681Y017693D02*
X015681Y018018D01*
X016181Y018018D02*
X016181Y017533D01*
X016181Y018658D02*
X016181Y019636D01*
X015978Y019838D02*
X013258Y019838D01*
X013181Y019761D02*
X013181Y018291D01*
X013161Y018338D02*
X014478Y018338D01*
X014681Y018541D02*
X014681Y020018D01*
X015056Y020338D02*
X013306Y020338D01*
X013681Y020018D02*
X013681Y017791D01*
X013633Y017838D02*
X014111Y017838D01*
X014181Y018041D02*
X014181Y020018D01*
X014181Y020658D02*
X014181Y020768D01*
X014681Y020768D02*
X014681Y020658D01*
X015181Y021088D02*
X015243Y021026D01*
X015681Y020136D02*
X015681Y018658D01*
X015181Y018658D02*
X015181Y019858D01*
X016478Y019338D02*
X012758Y019338D01*
X012681Y019261D02*
X012681Y018818D01*
X012485Y018838D02*
X016978Y018838D01*
X016681Y018818D02*
X016681Y019136D01*
X013806Y017213D02*
X012681Y018338D01*
X012181Y018417D02*
X012181Y018608D01*
X011181Y018768D02*
X011181Y016847D01*
X011172Y016838D02*
X009939Y016838D01*
X009994Y016526D02*
X009994Y016526D01*
X009961Y016338D02*
X010723Y016338D01*
X010681Y016158D02*
X010681Y018768D01*
X010181Y018768D02*
X010181Y016158D01*
X009932Y016175D02*
X009932Y016175D01*
X009681Y015838D02*
X008681Y014838D01*
X008681Y014312D01*
X008653Y014338D02*
X010822Y014338D01*
X010681Y014197D02*
X010681Y014498D01*
X010622Y014438D02*
X010856Y014673D01*
X010856Y014838D01*
X010456Y014838D01*
X010456Y014438D01*
X010622Y014438D01*
X010456Y014438D02*
X010456Y014838D01*
X010456Y014838D01*
X010456Y014838D01*
X011976Y014838D01*
X011976Y014648D01*
X011209Y014648D01*
X011077Y014593D01*
X010976Y014492D01*
X010602Y014118D01*
X010501Y014017D01*
X010446Y013885D01*
X010446Y013673D01*
X010306Y013533D01*
X010143Y013696D01*
X009924Y013787D01*
X009688Y013787D01*
X009469Y013696D01*
X009411Y013638D01*
X008501Y014478D01*
X008501Y014838D01*
X008826Y014838D01*
X008826Y014639D01*
X009107Y014358D01*
X009505Y014358D01*
X009786Y014639D01*
X009786Y014838D01*
X010456Y014838D01*
X010056Y014838D01*
X010056Y014673D01*
X010290Y014438D01*
X010456Y014438D01*
X010181Y014548D02*
X010181Y013658D01*
X010446Y013838D02*
X009194Y013838D01*
X009181Y013851D02*
X009181Y014358D01*
X009681Y014534D02*
X009681Y013784D01*
X010602Y014118D02*
X010602Y014118D01*
X010976Y014492D02*
X010976Y014492D01*
X011181Y014636D02*
X011181Y014838D01*
X011681Y014838D02*
X011681Y014648D01*
X012456Y014838D02*
X012856Y015238D01*
X019031Y015238D01*
X020131Y014138D01*
X020681Y014138D01*
X020931Y014388D01*
X020931Y015338D01*
X021411Y015338D02*
X021451Y015338D01*
X021519Y014838D02*
X021343Y014838D01*
X021681Y014682D02*
X021681Y013789D01*
X021681Y013789D01*
X021681Y014188D01*
X021847Y014188D01*
X022081Y013954D01*
X022081Y013788D01*
X021681Y013788D01*
X021681Y013388D01*
X021681Y013788D01*
X021681Y013788D01*
X021681Y013788D01*
X021681Y013789D02*
X021681Y014188D01*
X021515Y014188D01*
X021281Y013954D01*
X021281Y013886D01*
X021181Y013981D02*
X021181Y014186D01*
X021251Y014338D02*
X022611Y014338D01*
X022611Y013838D02*
X022081Y013838D01*
X021681Y013838D02*
X021681Y013838D01*
X021323Y013338D02*
X022611Y013338D01*
X022931Y013088D02*
X022556Y012713D01*
X022236Y012338D02*
X021921Y012338D01*
X021681Y011895D02*
X021681Y011617D01*
X020181Y011318D02*
X020181Y002971D01*
X020078Y002838D02*
X019943Y002838D01*
X020393Y002838D02*
X024629Y002838D01*
X024681Y002890D02*
X024681Y010868D01*
X025181Y010868D02*
X025181Y002971D01*
X025078Y002838D02*
X024943Y002838D01*
X025393Y002838D02*
X029629Y002838D01*
X029681Y002890D02*
X029681Y012538D01*
X029671Y012338D02*
X029691Y012338D01*
X029181Y011848D02*
X029181Y008267D01*
X029130Y008318D02*
X028732Y008318D01*
X028451Y008037D01*
X028451Y007639D01*
X028732Y007358D01*
X029130Y007358D01*
X029411Y007639D01*
X029411Y008037D01*
X029130Y008318D01*
X028681Y008267D02*
X028681Y012538D01*
X028671Y012338D02*
X028691Y012338D01*
X028181Y011848D02*
X028181Y011617D01*
X028130Y011668D02*
X027732Y011668D01*
X027451Y011387D01*
X027451Y010989D01*
X027571Y010869D01*
X027571Y010407D01*
X027451Y010287D01*
X027451Y009889D01*
X027732Y009608D01*
X028130Y009608D01*
X028411Y009889D01*
X028411Y010287D01*
X028291Y010407D01*
X028291Y010869D01*
X028411Y010989D01*
X028411Y011387D01*
X028130Y011668D01*
X028411Y011338D02*
X031451Y011338D01*
X031451Y011387D02*
X031451Y010989D01*
X031732Y010708D01*
X032130Y010708D01*
X032411Y010989D01*
X032411Y011387D01*
X032130Y011668D01*
X031732Y011668D01*
X031451Y011387D01*
X031681Y011617D02*
X031681Y012538D01*
X032181Y012538D02*
X032181Y011617D01*
X032411Y011338D02*
X032451Y011338D01*
X032571Y010838D02*
X032260Y010838D01*
X032181Y010759D02*
X032181Y010404D01*
X032247Y010338D02*
X032502Y010338D01*
X032331Y010254D02*
X032097Y010488D01*
X031931Y010488D01*
X031931Y010089D01*
X031931Y010089D01*
X031931Y010488D01*
X031765Y010488D01*
X031531Y010254D01*
X031531Y010088D01*
X031531Y009923D01*
X031765Y009688D01*
X031931Y009688D01*
X032097Y009688D01*
X032331Y009923D01*
X032331Y010088D01*
X031931Y010088D01*
X031931Y009688D01*
X031931Y010088D01*
X031931Y010088D01*
X031931Y010088D01*
X031531Y010088D01*
X031931Y010088D01*
X031931Y010088D01*
X032331Y010088D01*
X032331Y010254D01*
X032181Y010088D02*
X032181Y010088D01*
X032247Y009838D02*
X032502Y009838D01*
X032681Y009659D02*
X032681Y009267D01*
X033181Y009267D02*
X033181Y009659D01*
X033360Y009838D02*
X036615Y009838D01*
X036681Y009773D02*
X036681Y009267D01*
X036765Y009688D02*
X036931Y009688D01*
X037097Y009688D01*
X037331Y009923D01*
X037331Y010088D01*
X036931Y010088D01*
X036931Y009688D01*
X036931Y010088D01*
X036931Y010088D01*
X036931Y010088D01*
X036531Y010088D01*
X036531Y009923D01*
X036765Y009688D01*
X036931Y009838D02*
X036931Y009838D01*
X036931Y010088D02*
X036931Y010088D01*
X037331Y010088D01*
X037331Y010254D01*
X037097Y010488D01*
X036931Y010488D01*
X036931Y010089D01*
X036931Y010089D01*
X036931Y010488D01*
X036765Y010488D01*
X036531Y010254D01*
X036531Y010088D01*
X036931Y010088D01*
X037181Y010088D02*
X037181Y010088D01*
X037247Y009838D02*
X037502Y009838D01*
X037681Y009659D02*
X037681Y009267D01*
X038181Y009267D02*
X038181Y009659D01*
X037502Y010338D02*
X037247Y010338D01*
X037181Y010404D02*
X037181Y010909D01*
X037130Y010858D02*
X037411Y011139D01*
X037411Y011537D01*
X037130Y011818D01*
X036732Y011818D01*
X036451Y011537D01*
X036451Y011139D01*
X036732Y010858D01*
X037130Y010858D01*
X037571Y010838D02*
X033291Y010838D01*
X033411Y011338D02*
X036451Y011338D01*
X036681Y010909D02*
X036681Y010404D01*
X036615Y010338D02*
X033360Y010338D01*
X032181Y009773D02*
X032181Y009267D01*
X031681Y009267D02*
X031681Y009773D01*
X031615Y009838D02*
X028360Y009838D01*
X028181Y009659D02*
X028181Y009267D01*
X028130Y009318D02*
X027732Y009318D01*
X027451Y009037D01*
X027451Y008639D01*
X027732Y008358D01*
X028130Y008358D01*
X028411Y008639D01*
X028411Y009037D01*
X028130Y009318D01*
X027681Y009267D02*
X027681Y009659D01*
X027502Y009838D02*
X027247Y009838D01*
X027181Y009773D02*
X027181Y009267D01*
X027130Y009318D02*
X026732Y009318D01*
X026451Y009037D01*
X026451Y008639D01*
X026732Y008358D01*
X027130Y008358D01*
X027411Y008639D01*
X027411Y009037D01*
X027130Y009318D01*
X027097Y009688D02*
X027331Y009923D01*
X027331Y010088D01*
X026931Y010088D01*
X026931Y009688D01*
X027097Y009688D01*
X026931Y009688D02*
X026931Y010088D01*
X026931Y010088D01*
X026931Y010088D01*
X026531Y010088D01*
X026531Y009923D01*
X026765Y009688D01*
X026931Y009688D01*
X026931Y009838D02*
X026931Y009838D01*
X026931Y010088D02*
X026931Y010088D01*
X027331Y010088D01*
X027331Y010254D01*
X027097Y010488D01*
X026931Y010488D01*
X026931Y010089D01*
X026931Y010089D01*
X026931Y010488D01*
X026765Y010488D01*
X026531Y010254D01*
X026531Y010088D01*
X026931Y010088D01*
X027181Y010088D02*
X027181Y010088D01*
X027247Y010338D02*
X027502Y010338D01*
X027181Y010404D02*
X027181Y010759D01*
X027260Y010838D02*
X027571Y010838D01*
X027451Y011338D02*
X027411Y011338D01*
X027181Y011617D02*
X027181Y011848D01*
X027681Y011617D02*
X027681Y012538D01*
X027671Y012338D02*
X027691Y012338D01*
X027007Y012838D02*
X024001Y012838D01*
X024181Y012828D02*
X024181Y014386D01*
X024134Y014338D02*
X025631Y014338D01*
X025681Y014164D02*
X025681Y011508D01*
X025978Y011848D02*
X026384Y011848D01*
X026671Y012135D01*
X026671Y012541D01*
X026384Y012828D01*
X025978Y012828D01*
X025691Y012541D01*
X025691Y012135D01*
X025978Y011848D01*
X026181Y011848D02*
X026181Y011508D01*
X026681Y011617D02*
X026681Y013164D01*
X026507Y013338D02*
X024001Y013338D01*
X024161Y013838D02*
X026007Y013838D01*
X026181Y013664D02*
X026181Y012828D01*
X025671Y012541D02*
X025384Y012828D01*
X024978Y012828D01*
X024691Y012541D01*
X024691Y012135D01*
X024978Y011848D01*
X025384Y011848D01*
X025671Y012135D01*
X025671Y012541D01*
X025671Y012338D02*
X025691Y012338D01*
X025181Y012828D02*
X025181Y014682D01*
X025343Y014838D02*
X025519Y014838D01*
X025451Y015338D02*
X025411Y015338D01*
X024681Y014682D02*
X024681Y011508D01*
X025181Y011508D02*
X025181Y011848D01*
X024691Y012338D02*
X024671Y012338D01*
X024031Y011188D02*
X026931Y011188D01*
X026602Y010838D02*
X023565Y010838D01*
X023681Y010722D02*
X023681Y011086D01*
X023428Y011338D02*
X023411Y011338D01*
X024181Y010868D02*
X024181Y008318D01*
X024166Y008338D02*
X040872Y008338D01*
X040681Y008267D02*
X040681Y008529D01*
X041411Y007799D02*
X041411Y007799D01*
X041681Y007283D02*
X041681Y007281D01*
X042865Y007338D02*
X045901Y007338D01*
X045901Y006838D02*
X042841Y006838D01*
X042841Y006338D02*
X045901Y006338D01*
X045901Y005838D02*
X042690Y005838D01*
X042681Y005829D02*
X042681Y001618D01*
X043181Y001618D02*
X043181Y010522D01*
X043063Y010338D02*
X045901Y010338D01*
X045901Y009838D02*
X042247Y009838D01*
X042181Y009773D02*
X042181Y009267D01*
X041883Y009338D02*
X045901Y009338D01*
X045901Y008838D02*
X042411Y008838D01*
X042681Y008393D02*
X042681Y010178D01*
X042299Y010338D02*
X042247Y010338D01*
X042181Y010404D02*
X042181Y010522D01*
X041931Y010338D02*
X041931Y010338D01*
X042181Y010088D02*
X042181Y010088D01*
X041931Y009838D02*
X041931Y009838D01*
X041111Y009838D02*
X040390Y009838D01*
X040291Y010338D02*
X041111Y010338D01*
X041111Y010838D02*
X040291Y010838D01*
X040440Y011338D02*
X041111Y011338D01*
X041751Y010838D02*
X042153Y010838D01*
X042181Y010905D02*
X042181Y010909D01*
X042681Y011249D02*
X042681Y012912D01*
X042181Y012912D02*
X042181Y012767D01*
X041681Y012767D02*
X041681Y012912D01*
X041451Y012338D02*
X040791Y012338D01*
X039931Y012338D02*
X039931Y012338D01*
X039531Y012338D01*
X039931Y012338D01*
X039931Y012338D01*
X039411Y012338D01*
X039411Y012139D02*
X039411Y012537D01*
X039130Y012818D01*
X038732Y012818D01*
X038451Y012537D01*
X038451Y012139D01*
X038732Y011858D01*
X039130Y011858D01*
X039411Y012139D01*
X039181Y011909D02*
X039181Y008267D01*
X038681Y008267D02*
X038681Y011909D01*
X038451Y012338D02*
X036931Y012338D01*
X036931Y011938D01*
X037097Y011938D01*
X037331Y012173D01*
X037331Y012338D01*
X036931Y012338D01*
X036931Y012338D01*
X036931Y011938D01*
X036765Y011938D01*
X036531Y012173D01*
X036531Y012338D01*
X036931Y012338D01*
X036931Y012338D01*
X036931Y012338D01*
X036411Y012338D01*
X036531Y012338D02*
X036931Y012338D01*
X037331Y012338D01*
X037331Y012504D01*
X037097Y012738D01*
X036931Y012738D01*
X036931Y012339D01*
X036931Y012339D01*
X036931Y012738D01*
X036765Y012738D01*
X036531Y012504D01*
X036531Y012338D01*
X036681Y012338D02*
X036681Y012338D01*
X036681Y012023D02*
X036681Y011767D01*
X037181Y011767D02*
X037181Y012023D01*
X037181Y012338D02*
X037181Y012338D01*
X037181Y012654D02*
X037181Y012912D01*
X037681Y012912D02*
X037681Y011767D01*
X037451Y011338D02*
X037411Y011338D01*
X038181Y011767D02*
X038181Y012912D01*
X038681Y012912D02*
X038681Y012767D01*
X039181Y012767D02*
X039181Y012912D01*
X039681Y012912D02*
X039681Y012654D01*
X039681Y012338D02*
X039681Y012338D01*
X040071Y012838D02*
X032855Y012838D01*
X032905Y013048D02*
X033181Y013325D01*
X033457Y013048D01*
X033905Y013048D01*
X034181Y013325D01*
X034181Y012654D01*
X034097Y012738D02*
X033931Y012738D01*
X033931Y012339D01*
X033931Y012339D01*
X033931Y012738D01*
X033765Y012738D01*
X033531Y012504D01*
X033531Y012338D01*
X033531Y012173D01*
X033690Y012013D01*
X033680Y012013D01*
X032645Y013048D01*
X032905Y013048D01*
X032681Y013048D02*
X032681Y013012D01*
X033181Y013325D02*
X033181Y012512D01*
X033355Y012338D02*
X033931Y012338D01*
X033531Y012338D01*
X033931Y012338D01*
X033931Y012338D01*
X034331Y012338D01*
X034331Y012504D01*
X034097Y012738D01*
X034181Y012338D02*
X034181Y012338D01*
X034181Y012023D02*
X034181Y012013D01*
X034681Y012013D02*
X034681Y013048D01*
X034905Y013048D02*
X035181Y013325D01*
X034905Y013048D02*
X034457Y013048D01*
X034181Y013325D01*
X033681Y013048D02*
X033681Y012654D01*
X033681Y012338D02*
X033681Y012338D01*
X033681Y012023D02*
X033681Y012013D01*
X033681Y011413D02*
X033681Y008267D01*
X033732Y008318D02*
X033451Y008037D01*
X033451Y007639D01*
X033732Y007358D01*
X034130Y007358D01*
X034411Y007639D01*
X034411Y008037D01*
X034130Y008318D01*
X033732Y008318D01*
X034181Y008267D02*
X034181Y011413D01*
X034681Y011413D02*
X034681Y002890D01*
X034943Y002838D02*
X035078Y002838D01*
X035181Y002971D02*
X035181Y011413D01*
X035681Y011664D02*
X035681Y008267D01*
X035451Y007838D02*
X034411Y007838D01*
X034181Y007409D02*
X034181Y005568D01*
X033681Y005600D02*
X033681Y007409D01*
X033451Y007838D02*
X031411Y007838D01*
X031181Y008267D02*
X031181Y012538D01*
X030681Y012538D02*
X030681Y008267D01*
X030451Y007838D02*
X029411Y007838D01*
X029181Y007409D02*
X029181Y005568D01*
X028681Y005600D02*
X028681Y007409D01*
X028451Y007838D02*
X027440Y007838D01*
X027681Y007597D02*
X027681Y008409D01*
X027451Y008838D02*
X027411Y008838D01*
X027181Y008409D02*
X027181Y008097D01*
X026681Y008198D02*
X026681Y008409D01*
X026451Y008838D02*
X024166Y008838D01*
X024166Y009338D02*
X039872Y009338D01*
X037181Y009267D02*
X037181Y009773D01*
X036681Y010088D02*
X036681Y010088D01*
X036931Y010338D02*
X036931Y010338D01*
X036681Y012654D02*
X036681Y012894D01*
X036181Y012767D02*
X036181Y013065D01*
X036556Y013338D02*
X036556Y014463D01*
X037181Y015088D01*
X037556Y015088D01*
X038431Y014838D02*
X033681Y019588D01*
X033181Y019338D02*
X035181Y017338D01*
X035181Y015088D01*
X034681Y014588D01*
X035681Y013048D02*
X035681Y012767D01*
X038431Y013838D02*
X038431Y014838D01*
X039431Y014588D02*
X033681Y020338D01*
X033681Y020838D01*
X033181Y019338D02*
X033181Y027338D01*
X030431Y030088D01*
X028556Y031838D02*
X028181Y032213D01*
X028181Y034588D01*
X027681Y035088D01*
X021431Y035088D01*
X021681Y035481D02*
X021681Y035808D01*
X022181Y035808D02*
X022181Y035408D01*
X023181Y033713D02*
X023181Y033713D01*
X023431Y033838D02*
X023431Y033838D01*
X023681Y033713D02*
X023681Y033713D01*
X023431Y033338D02*
X023431Y033338D01*
X025430Y032838D02*
X025818Y032838D01*
X025681Y032976D02*
X025681Y032638D01*
X028501Y033338D02*
X028641Y033338D01*
X028681Y033532D02*
X028681Y034005D01*
X028847Y033838D02*
X028501Y033838D01*
X028501Y034338D02*
X028641Y034338D01*
X028681Y034532D02*
X028681Y035808D01*
X027883Y035338D02*
X045641Y035338D01*
X045649Y035331D02*
X045808Y035055D01*
X045891Y034747D01*
X045901Y034588D01*
X045901Y034533D01*
X045901Y019838D01*
X040133Y019838D01*
X041314Y021018D01*
X041937Y021018D01*
X042075Y020880D01*
X042274Y020798D01*
X043088Y020798D01*
X043287Y020880D01*
X043425Y021018D01*
X044245Y021018D01*
X043681Y021018D02*
X043681Y019838D01*
X043374Y020097D02*
X043407Y020162D01*
X043430Y020231D01*
X043441Y020302D01*
X043441Y020318D01*
X042701Y020318D01*
X042701Y019878D01*
X043017Y019878D01*
X043089Y019890D01*
X043158Y019912D01*
X043222Y019945D01*
X043281Y019987D01*
X043332Y020039D01*
X043374Y020097D01*
X043181Y019924D02*
X043181Y019838D01*
X043181Y020318D02*
X043181Y020358D01*
X043441Y020358D02*
X043441Y020374D01*
X043430Y020446D01*
X043407Y020515D01*
X043374Y020579D01*
X043332Y020638D01*
X043281Y020689D01*
X043222Y020732D01*
X043158Y020765D01*
X043089Y020787D01*
X043017Y020798D01*
X042701Y020798D01*
X042701Y020359D01*
X042661Y020359D01*
X042661Y020798D01*
X042345Y020798D01*
X042273Y020787D01*
X042204Y020765D01*
X042140Y020732D01*
X042081Y020689D01*
X042030Y020638D01*
X041988Y020579D01*
X041955Y020515D01*
X041932Y020446D01*
X041921Y020374D01*
X041921Y020358D01*
X042661Y020358D01*
X042661Y020318D01*
X042701Y020318D01*
X042701Y020358D01*
X043441Y020358D01*
X042701Y020338D02*
X045901Y020338D01*
X045901Y019838D02*
X040133Y019838D01*
X040181Y019838D02*
X040181Y019886D01*
X040681Y019838D02*
X040681Y020386D01*
X040633Y020338D02*
X042661Y020338D01*
X042661Y020318D02*
X041921Y020318D01*
X041921Y020302D01*
X041932Y020231D01*
X041955Y020162D01*
X041988Y020097D01*
X042030Y020039D01*
X042081Y019987D01*
X042140Y019945D01*
X042204Y019912D01*
X042273Y019890D01*
X042345Y019878D01*
X042661Y019878D01*
X042661Y020318D01*
X042681Y020318D02*
X042681Y019838D01*
X042181Y019838D02*
X042181Y019924D01*
X042181Y020318D02*
X042181Y020358D01*
X042681Y020359D02*
X042681Y020798D01*
X043181Y020837D02*
X043181Y020753D01*
X043185Y020838D02*
X045901Y020838D01*
X045681Y019838D02*
X045681Y033944D01*
X045662Y033838D02*
X045901Y033838D01*
X045645Y033737D02*
X045467Y033429D01*
X045467Y033429D01*
X045466Y033429D01*
X045194Y033200D01*
X045194Y033200D01*
X044859Y033078D01*
X044859Y033078D01*
X044737Y033078D01*
X044737Y033078D01*
X044697Y033078D01*
X044681Y033078D01*
X044503Y033078D02*
X044503Y033078D01*
X045181Y033195D02*
X045181Y019838D01*
X044181Y019338D02*
X044181Y017277D01*
X044145Y017247D02*
X044145Y017247D01*
X044145Y017247D01*
X044254Y017338D02*
X042751Y017338D01*
X042751Y016838D02*
X043949Y016838D01*
X043967Y016939D02*
X043967Y016939D01*
X043905Y016588D02*
X043905Y016588D01*
X043949Y016338D02*
X042751Y016338D01*
X042751Y017838D02*
X045901Y017838D01*
X044418Y017476D02*
X044418Y017476D01*
X044418Y015700D02*
X044418Y015700D01*
X045444Y015700D02*
X045444Y015700D01*
X045608Y015838D02*
X045901Y015838D01*
X042431Y013838D02*
X042431Y018588D01*
X043681Y019338D02*
X043681Y001618D01*
X042181Y001618D02*
X042181Y003003D01*
X042144Y002966D02*
X042543Y003366D01*
X042543Y003931D01*
X042144Y004331D01*
X041578Y004331D01*
X041178Y003931D01*
X041178Y003366D01*
X041578Y002966D01*
X042144Y002966D01*
X041681Y002966D02*
X041681Y001618D01*
X041181Y001618D02*
X041181Y003363D01*
X041206Y003338D02*
X037516Y003338D01*
X037543Y003838D02*
X041178Y003838D01*
X041181Y003933D02*
X041181Y005478D01*
X041681Y005478D02*
X041681Y004331D01*
X042181Y004293D02*
X042181Y005478D01*
X040681Y005478D02*
X040681Y001618D01*
X039681Y002301D02*
X039681Y002436D01*
X039629Y002838D02*
X035393Y002838D01*
X034181Y001618D02*
X034181Y004248D01*
X034386Y004338D02*
X036501Y004338D01*
X037221Y004338D02*
X038596Y004338D01*
X038681Y004298D02*
X038681Y001618D01*
X039181Y001618D02*
X039181Y004248D01*
X039386Y004338D02*
X045901Y004338D01*
X045901Y003838D02*
X042543Y003838D01*
X042516Y003338D02*
X045901Y003338D01*
X045901Y002838D02*
X040393Y002838D01*
X040181Y002971D02*
X040181Y005478D01*
X039681Y005478D02*
X039681Y002890D01*
X039943Y002838D02*
X040078Y002838D01*
X038181Y001618D02*
X038181Y004794D01*
X038288Y004838D02*
X038308Y004838D01*
X037318Y005338D02*
X036690Y005338D01*
X036681Y005347D02*
X036681Y005916D01*
X036291Y005838D02*
X037420Y005838D01*
X035571Y005838D02*
X033582Y005838D01*
X032420Y005838D02*
X031291Y005838D01*
X031681Y005916D02*
X031681Y005347D01*
X031690Y005338D02*
X032318Y005338D01*
X033681Y004298D02*
X033681Y001618D01*
X030078Y002838D02*
X029943Y002838D01*
X029681Y002436D02*
X029681Y002301D01*
X028181Y001618D02*
X028181Y004794D01*
X028288Y004838D02*
X028308Y004838D01*
X028582Y005838D02*
X030571Y005838D01*
X030571Y006338D02*
X027791Y006338D01*
X028181Y006122D02*
X028181Y008409D01*
X028411Y008838D02*
X031451Y008838D01*
X031681Y008409D02*
X031681Y007281D01*
X031291Y007338D02*
X035571Y007338D01*
X031931Y009838D02*
X031931Y009838D01*
X031681Y010088D02*
X031681Y010088D01*
X031615Y010338D02*
X028360Y010338D01*
X028291Y010838D02*
X031602Y010838D01*
X031681Y010759D02*
X031681Y010404D01*
X031931Y010338D02*
X031931Y010338D01*
X030571Y007338D02*
X027791Y007338D01*
X027791Y006838D02*
X030571Y006838D01*
X026501Y004838D02*
X024673Y004838D01*
X023308Y004838D02*
X023288Y004838D01*
X023181Y004794D02*
X023181Y001618D01*
X022681Y001618D02*
X022681Y004852D01*
X022714Y004838D02*
X022176Y004838D01*
X022181Y004826D02*
X022181Y006163D01*
X022333Y006338D02*
X025968Y006338D01*
X025701Y007838D02*
X024661Y007838D01*
X023422Y008338D02*
X017860Y008338D01*
X018181Y008409D02*
X018181Y006122D01*
X018582Y005838D02*
X020321Y005838D01*
X021181Y005847D02*
X021181Y006103D01*
X021190Y005838D02*
X022420Y005838D01*
X022318Y005338D02*
X021690Y005338D01*
X021681Y005347D02*
X021681Y005916D01*
X020321Y007338D02*
X013190Y007338D01*
X013181Y007347D02*
X013181Y007659D01*
X013002Y007838D02*
X012791Y007838D01*
X012940Y008338D02*
X013002Y008338D01*
X012422Y008838D02*
X012411Y008838D01*
X012181Y009267D02*
X012181Y009773D01*
X012247Y009838D02*
X012552Y009838D01*
X012681Y009967D02*
X012681Y011109D01*
X012411Y011139D02*
X012130Y010858D01*
X011732Y010858D01*
X011451Y011139D01*
X011451Y011537D01*
X011732Y011818D01*
X012130Y011818D01*
X012411Y011537D01*
X012411Y011139D01*
X012411Y011338D02*
X012452Y011338D01*
X012181Y010909D02*
X012181Y010404D01*
X012247Y010338D02*
X013111Y010338D01*
X012331Y010254D02*
X012097Y010488D01*
X011931Y010488D01*
X011931Y010089D01*
X011931Y010089D01*
X011931Y010488D01*
X011765Y010488D01*
X011531Y010254D01*
X011531Y010088D01*
X011531Y009923D01*
X011765Y009688D01*
X011931Y009688D01*
X012097Y009688D01*
X012331Y009923D01*
X012331Y010088D01*
X011931Y010088D01*
X011931Y009688D01*
X011931Y010088D01*
X011931Y010088D01*
X011931Y010088D01*
X011531Y010088D01*
X011931Y010088D01*
X011931Y010088D01*
X012331Y010088D01*
X012331Y010254D01*
X012181Y010088D02*
X012181Y010088D01*
X011931Y009838D02*
X011931Y009838D01*
X011681Y009773D02*
X011681Y009267D01*
X011615Y009838D02*
X008360Y009838D01*
X008411Y009889D02*
X008411Y010287D01*
X008291Y010407D01*
X008291Y011019D01*
X008411Y011139D01*
X008411Y011537D01*
X008130Y011818D01*
X007732Y011818D01*
X007451Y011537D01*
X007451Y011139D01*
X007571Y011019D01*
X007571Y010407D01*
X007451Y010287D01*
X007451Y009889D01*
X007732Y009608D01*
X008130Y009608D01*
X008411Y009889D01*
X008181Y009659D02*
X008181Y009267D01*
X007681Y009267D02*
X007681Y009659D01*
X007502Y009838D02*
X007247Y009838D01*
X007181Y009773D02*
X007181Y009267D01*
X007097Y009688D02*
X006931Y009688D01*
X006931Y010088D01*
X006931Y010088D01*
X006931Y009688D01*
X006765Y009688D01*
X006531Y009923D01*
X006531Y010088D01*
X006931Y010088D01*
X006931Y010088D01*
X007331Y010088D01*
X007331Y009923D01*
X007097Y009688D01*
X006931Y009838D02*
X006931Y009838D01*
X006931Y010088D02*
X006931Y010088D01*
X007331Y010088D01*
X007331Y010254D01*
X007097Y010488D01*
X006931Y010488D01*
X006931Y010089D01*
X006931Y010089D01*
X006931Y010488D01*
X006765Y010488D01*
X006531Y010254D01*
X006531Y010088D01*
X006931Y010088D01*
X007181Y010088D02*
X007181Y010088D01*
X007247Y010338D02*
X007502Y010338D01*
X007181Y010404D02*
X007181Y010909D01*
X007130Y010858D02*
X007411Y011139D01*
X007411Y011537D01*
X007130Y011818D01*
X006732Y011818D01*
X006451Y011537D01*
X006451Y011139D01*
X006732Y010858D01*
X007130Y010858D01*
X007571Y010838D02*
X001461Y010838D01*
X001461Y011338D02*
X002451Y011338D01*
X002681Y010909D02*
X002681Y010517D01*
X002732Y010568D02*
X002451Y010287D01*
X002451Y009889D01*
X002732Y009608D01*
X003130Y009608D01*
X003411Y009889D01*
X003411Y010287D01*
X003130Y010568D01*
X002732Y010568D01*
X002502Y010338D02*
X001461Y010338D01*
X001461Y009838D02*
X002502Y009838D01*
X002681Y009659D02*
X002681Y009267D01*
X003181Y009267D02*
X003181Y009659D01*
X003360Y009838D02*
X006615Y009838D01*
X006681Y009773D02*
X006681Y009267D01*
X006681Y010088D02*
X006681Y010088D01*
X006615Y010338D02*
X003360Y010338D01*
X003181Y010517D02*
X003181Y010909D01*
X003411Y011338D02*
X006451Y011338D01*
X006681Y010909D02*
X006681Y010404D01*
X006931Y010338D02*
X006931Y010338D01*
X007411Y011338D02*
X007451Y011338D01*
X007681Y011767D02*
X007681Y011890D01*
X007799Y011890D02*
X008018Y011980D01*
X008185Y012147D01*
X008275Y012366D01*
X008275Y013311D01*
X008185Y013529D01*
X008041Y013673D01*
X008041Y013910D01*
X007986Y014042D01*
X007885Y014143D01*
X007635Y014393D01*
X007503Y014448D01*
X007481Y014448D01*
X007706Y014673D01*
X007706Y014838D01*
X007306Y014838D01*
X007306Y014838D01*
X007861Y014838D01*
X007861Y014395D01*
X007859Y014389D01*
X007861Y014331D01*
X007861Y014275D01*
X007863Y014269D01*
X007864Y014262D01*
X007888Y014210D01*
X007910Y014157D01*
X007914Y014152D01*
X007917Y014146D01*
X007959Y014108D01*
X008000Y014067D01*
X008006Y014064D01*
X009212Y012951D01*
X009212Y012838D02*
X008275Y012838D01*
X008264Y012338D02*
X009223Y012338D01*
X009806Y012838D02*
X008181Y014338D01*
X008181Y015588D01*
X008181Y015412D02*
X008181Y015870D01*
X008216Y015838D02*
X004690Y015838D01*
X004681Y015829D02*
X004681Y015435D01*
X005181Y015432D02*
X005181Y016329D01*
X005190Y016338D02*
X007976Y016338D01*
X008005Y016175D02*
X008005Y016175D01*
X008456Y015638D02*
X008456Y015638D01*
X008681Y015556D02*
X008681Y015408D01*
X009306Y014838D02*
X010006Y015538D01*
X019231Y015538D01*
X019431Y015338D01*
X019931Y015338D01*
X021181Y016088D02*
X021243Y016026D01*
X022181Y015994D02*
X022181Y016041D01*
X022343Y015838D02*
X022519Y015838D01*
X022681Y015994D02*
X022681Y016041D01*
X022931Y015338D02*
X022931Y013088D01*
X024343Y014838D02*
X024519Y014838D01*
X024519Y015838D02*
X024343Y015838D01*
X024181Y015994D02*
X024181Y016041D01*
X024681Y016041D02*
X024681Y015994D01*
X023181Y017338D02*
X026931Y017338D01*
X027389Y017338D02*
X027728Y017338D01*
X026519Y017838D02*
X026343Y017838D01*
X026181Y017682D02*
X026181Y017658D01*
X025681Y017658D02*
X025681Y017682D01*
X025519Y017838D02*
X025343Y017838D01*
X025181Y017682D02*
X025181Y017658D01*
X024681Y017658D02*
X024681Y017682D01*
X024519Y017838D02*
X024343Y017838D01*
X024181Y017682D02*
X024181Y017658D01*
X023681Y017658D02*
X023681Y017682D01*
X023519Y017838D02*
X023343Y017838D01*
X022931Y017588D02*
X023181Y017338D01*
X022931Y017588D02*
X022931Y018338D01*
X023411Y018338D02*
X023451Y018338D01*
X024411Y018338D02*
X024451Y018338D01*
X025411Y018338D02*
X025451Y018338D01*
X026411Y018338D02*
X026451Y018338D01*
X026823Y019838D02*
X027706Y019838D01*
X027681Y019838D02*
X027681Y021018D01*
X027681Y020588D02*
X028181Y020088D01*
X028181Y019888D01*
X028216Y019853D02*
X028216Y019923D01*
X028656Y019923D01*
X028656Y020139D01*
X028645Y020180D01*
X028624Y020216D01*
X028594Y020246D01*
X028558Y020267D01*
X028517Y020278D01*
X028216Y020278D01*
X028216Y019924D01*
X028216Y019853D02*
X028656Y019853D01*
X028656Y019838D01*
X029181Y019838D02*
X029181Y021386D01*
X029134Y021338D02*
X029861Y021338D01*
X027181Y021018D02*
X027181Y019838D01*
X026431Y020088D02*
X023931Y020088D01*
X024181Y020481D02*
X024181Y020946D01*
X024681Y020946D02*
X024681Y020408D01*
X025181Y020408D02*
X025181Y021018D01*
X025681Y020946D02*
X025681Y020408D01*
X026181Y020481D02*
X026181Y020946D01*
X023451Y022838D02*
X023331Y022838D01*
X023331Y022879D02*
X023097Y023113D01*
X022931Y023113D01*
X022931Y022714D01*
X022931Y022714D01*
X022931Y023113D01*
X022765Y023113D01*
X022531Y022879D01*
X022531Y022713D01*
X022931Y022713D01*
X022931Y022713D01*
X023331Y022713D01*
X023331Y022879D01*
X023181Y023029D02*
X023181Y023518D01*
X023681Y023518D02*
X023681Y023142D01*
X023181Y022713D02*
X023181Y022713D01*
X022931Y022838D02*
X022931Y022838D01*
X022681Y022713D02*
X022681Y022713D01*
X022531Y022838D02*
X022161Y022838D01*
X022681Y023029D02*
X022681Y023518D01*
X022681Y022398D02*
X022681Y022158D01*
X022681Y021518D02*
X022681Y019838D01*
X021931Y018838D02*
X021931Y018838D01*
X021931Y018338D02*
X021531Y018338D01*
X021931Y018338D01*
X021931Y018338D01*
X021411Y018338D01*
X021681Y018338D02*
X021681Y018338D01*
X021931Y018338D02*
X022331Y018338D01*
X022181Y018338D02*
X022181Y018338D01*
X022237Y017838D02*
X022519Y017838D01*
X022181Y017784D02*
X022181Y017231D01*
X021690Y017338D02*
X022728Y017338D01*
X022681Y017386D02*
X022681Y017231D01*
X021931Y017838D02*
X021931Y017838D01*
X021681Y017784D02*
X021681Y017347D01*
X021625Y017838D02*
X021343Y017838D01*
X020519Y017838D02*
X020343Y017838D01*
X020411Y018338D02*
X020451Y018338D01*
X013806Y017213D02*
X013181Y016588D01*
X013181Y016088D01*
X012931Y015838D01*
X009681Y015838D01*
X010181Y014838D02*
X010181Y014838D01*
X010456Y014838D02*
X010456Y014838D01*
X010681Y014838D02*
X010681Y014838D01*
X008792Y013338D02*
X008264Y013338D01*
X008181Y013533D02*
X008181Y013903D01*
X008251Y013838D02*
X008041Y013838D01*
X007861Y014338D02*
X007690Y014338D01*
X007681Y014347D02*
X007681Y014648D01*
X007681Y014838D02*
X007681Y014838D01*
X007306Y014838D02*
X004041Y014838D01*
X004041Y014362D01*
X004080Y014323D01*
X005359Y014323D01*
X005503Y014323D01*
X005635Y014268D01*
X005681Y014222D01*
X005751Y014292D01*
X005852Y014393D01*
X005984Y014448D01*
X007130Y014448D01*
X006906Y014673D01*
X006906Y014838D01*
X007306Y014838D01*
X007306Y014838D01*
X007181Y014838D02*
X007181Y014838D01*
X006681Y014838D02*
X006681Y014448D01*
X006181Y014448D02*
X006181Y014838D01*
X005681Y014838D02*
X005681Y014222D01*
X005797Y014338D02*
X004065Y014338D01*
X004181Y014323D02*
X004181Y014838D01*
X004681Y014838D02*
X004681Y014323D01*
X005181Y014323D02*
X005181Y014838D01*
X005681Y015428D02*
X005681Y016603D01*
X006181Y016603D02*
X006181Y015425D01*
X006681Y015422D02*
X006681Y016603D01*
X007181Y016625D02*
X007181Y015418D01*
X007681Y015415D02*
X007681Y017079D01*
X007440Y016838D02*
X007998Y016838D01*
X008181Y017182D02*
X008181Y017260D01*
X008183Y017185D02*
X008183Y017185D01*
X008322Y017338D02*
X008366Y017338D01*
X008561Y017838D02*
X011301Y017838D01*
X011540Y017338D02*
X009571Y017338D01*
X009481Y017414D02*
X009481Y017414D01*
X009681Y017246D02*
X009681Y018768D01*
X009681Y019408D02*
X009681Y019822D01*
X009754Y017185D02*
X009754Y017185D01*
X013681Y020658D02*
X013681Y020768D01*
X008681Y013441D02*
X008681Y008267D01*
X008451Y007838D02*
X006411Y007838D01*
X005681Y008267D02*
X005681Y011890D01*
X006181Y012143D02*
X006344Y011980D01*
X006563Y011890D01*
X006799Y011890D01*
X007018Y011980D01*
X007181Y012143D01*
X007181Y011767D01*
X007344Y011980D02*
X007563Y011890D01*
X007799Y011890D01*
X008181Y011767D02*
X008181Y012143D01*
X008411Y011338D02*
X011451Y011338D01*
X011681Y010909D02*
X011681Y010404D01*
X011615Y010338D02*
X008360Y010338D01*
X008291Y010838D02*
X013111Y010838D01*
X013310Y011838D02*
X019111Y011838D01*
X019181Y011686D02*
X019181Y005568D01*
X018681Y005600D02*
X018681Y007358D01*
X018880Y007358D02*
X019161Y007639D01*
X019161Y008037D01*
X018880Y008318D01*
X018482Y008318D01*
X018201Y008037D01*
X018201Y007639D01*
X018482Y007358D01*
X018880Y007358D01*
X019161Y007838D02*
X020201Y007838D01*
X021431Y007839D02*
X021431Y008238D01*
X021451Y008838D02*
X018411Y008838D01*
X018681Y008318D02*
X018681Y011895D01*
X016941Y012338D02*
X016921Y012338D01*
X015941Y012338D02*
X015921Y012338D01*
X014941Y012338D02*
X014921Y012338D01*
X013941Y012338D02*
X013251Y012338D01*
X012611Y012338D02*
X012389Y012338D01*
X012181Y012018D02*
X012181Y011767D01*
X012552Y011838D02*
X001461Y011838D01*
X002181Y012143D02*
X002181Y001730D01*
X002214Y001711D02*
X002522Y001629D01*
X002681Y001618D01*
X001994Y001838D02*
X004689Y001838D01*
X004681Y001846D02*
X004681Y001618D01*
X004943Y001838D02*
X005078Y001838D01*
X005181Y001766D02*
X005181Y001618D01*
X004681Y002301D02*
X004681Y002436D01*
X004943Y002838D02*
X005078Y002838D01*
X004181Y001618D02*
X004181Y004248D01*
X002681Y006064D02*
X002681Y008409D01*
X002451Y008838D02*
X001461Y008838D01*
X001461Y009338D02*
X012452Y009338D01*
X011681Y010088D02*
X011681Y010088D01*
X011931Y010338D02*
X011931Y010338D01*
X011681Y011767D02*
X011681Y011892D01*
X011181Y012018D02*
X011181Y008267D01*
X011411Y007838D02*
X012071Y007838D01*
X011451Y008838D02*
X008411Y008838D01*
X010681Y008267D02*
X010681Y011892D01*
X012400Y012838D02*
X012611Y012838D01*
X013751Y008838D02*
X017451Y008838D01*
X017681Y009267D02*
X017681Y009659D01*
X018181Y009659D02*
X018181Y009267D01*
X018360Y009838D02*
X021615Y009838D01*
X021681Y009773D02*
X021681Y009267D01*
X021681Y010088D02*
X021681Y010088D01*
X021615Y010338D02*
X018360Y010338D01*
X018201Y007838D02*
X017860Y007838D01*
X018288Y004838D02*
X018308Y004838D01*
X019681Y002436D02*
X019681Y002301D01*
X014681Y002301D02*
X014681Y002436D01*
X014181Y001618D02*
X014181Y004248D01*
X011681Y002966D02*
X011681Y001618D01*
X011181Y001618D02*
X011181Y003363D01*
X011206Y003338D02*
X007516Y003338D01*
X006681Y011767D02*
X006681Y011890D01*
X007181Y012143D02*
X007344Y011980D01*
X002681Y011890D02*
X002681Y011767D01*
X002098Y012338D02*
X001461Y012338D01*
X001461Y012838D02*
X002087Y012838D01*
X003181Y016516D02*
X003181Y016557D01*
X002321Y019338D02*
X001461Y019338D01*
X001461Y019838D02*
X002568Y019838D01*
X002681Y019895D02*
X002681Y020121D01*
X002464Y020338D02*
X001461Y020338D01*
X001461Y020838D02*
X002464Y020838D01*
X002681Y020588D02*
X002681Y020588D01*
X002931Y020338D02*
X002931Y020338D01*
X003181Y020588D02*
X003181Y020588D01*
X002374Y021338D02*
X001461Y021338D01*
X001461Y021838D02*
X002374Y021838D01*
X002681Y022145D02*
X002681Y022371D01*
X002755Y022338D02*
X001461Y022338D01*
X001461Y022838D02*
X002931Y022838D01*
X002401Y022838D01*
X002931Y022838D01*
X002931Y022838D01*
X003461Y022838D01*
X003461Y022880D01*
X003448Y022962D01*
X003422Y023042D01*
X003384Y023116D01*
X003335Y023184D01*
X003276Y023242D01*
X003209Y023292D01*
X003207Y023292D01*
X003276Y023321D01*
X003181Y022838D02*
X003181Y022838D01*
X003181Y022371D02*
X003181Y022347D01*
X003172Y022338D02*
X003107Y022338D01*
X002931Y022338D02*
X002931Y022338D01*
X002681Y022838D02*
X002681Y022838D01*
X002568Y023338D02*
X001461Y023338D01*
X001461Y023838D02*
X002321Y023838D01*
X001922Y024338D02*
X001461Y024338D01*
X003541Y023838D02*
X003989Y023838D01*
X001922Y027338D02*
X001461Y027338D01*
X003358Y033338D02*
X020603Y033338D01*
X028556Y031838D02*
X032931Y031838D01*
X034501Y029338D02*
X036589Y029338D01*
X036681Y029192D02*
X036681Y029152D01*
X036175Y028832D02*
X041277Y028832D01*
X041120Y028399D02*
X043370Y028399D01*
X043931Y027838D01*
X042181Y027853D02*
X042181Y028079D01*
X041681Y027966D02*
X041681Y027966D01*
X041681Y027213D02*
X041681Y024658D01*
X041181Y024658D02*
X041181Y026722D01*
X041624Y026838D02*
X041728Y026838D01*
X041796Y026338D02*
X040001Y026338D01*
X040001Y026838D02*
X040616Y026838D01*
X040681Y026767D02*
X040681Y024291D01*
X040728Y024338D02*
X040001Y024338D01*
X040125Y023838D02*
X040228Y023838D01*
X040181Y023791D02*
X040181Y028512D01*
X039681Y028512D02*
X039681Y028296D01*
X039223Y027838D02*
X037595Y027838D01*
X037181Y027970D02*
X037181Y028512D01*
X036681Y028512D02*
X036681Y027922D01*
X036614Y027838D02*
X036001Y027838D01*
X036001Y027338D02*
X036589Y027338D01*
X037620Y027338D02*
X039361Y027338D01*
X040001Y027338D02*
X040589Y027338D01*
X042181Y027213D02*
X042181Y027181D01*
X042681Y026317D02*
X042681Y025878D01*
X043181Y025880D02*
X043181Y025840D01*
X043185Y025838D02*
X043611Y025838D01*
X043611Y025338D02*
X043521Y025338D01*
X043439Y025032D02*
X043287Y024880D01*
X043185Y024838D01*
X042177Y024838D02*
X040001Y024838D01*
X040001Y025338D02*
X041841Y025338D01*
X042681Y022338D02*
X040931Y022338D01*
X037931Y019338D01*
X036056Y019338D01*
X035556Y019838D01*
X035681Y020338D02*
X037056Y020338D01*
X041133Y020838D02*
X042177Y020838D01*
X042181Y020837D02*
X042181Y020753D01*
X041681Y021018D02*
X041681Y019838D01*
X041181Y019838D02*
X041181Y020886D01*
X035681Y024033D02*
X035681Y024380D01*
X035223Y024838D02*
X035001Y024838D01*
X035001Y025338D02*
X035361Y025338D01*
X035361Y025838D02*
X035001Y025838D01*
X035001Y026338D02*
X035361Y026338D01*
X035361Y026838D02*
X035001Y026838D01*
X035001Y027338D02*
X035361Y027338D01*
X035681Y028791D02*
X035681Y033005D01*
X037681Y035808D02*
X037681Y029152D01*
X037620Y029338D02*
X039289Y029338D01*
X039181Y029152D02*
X039181Y035808D01*
X038681Y035808D02*
X038681Y029152D01*
X038181Y029152D02*
X038181Y035808D01*
X043681Y035808D02*
X043681Y034233D01*
X043655Y034088D02*
X043655Y034088D01*
X043895Y033429D02*
X043895Y033429D01*
X045358Y033338D02*
X045901Y033338D01*
X045645Y033737D02*
X045645Y033738D01*
X045706Y034088D01*
X045645Y034439D01*
X045467Y034747D01*
X045467Y034747D01*
X045194Y034976D01*
X044859Y035098D01*
X044737Y035098D01*
X044681Y035098D01*
X044737Y035098D02*
X044737Y035098D01*
X044625Y035098D02*
X044625Y035098D01*
X044181Y034981D02*
X044181Y035808D01*
X044681Y035808D02*
X044840Y035798D01*
X045148Y035715D01*
X045424Y035556D01*
X045649Y035331D01*
X045681Y035275D02*
X045681Y034233D01*
X045662Y034338D02*
X045901Y034338D01*
X045645Y034439D02*
X045645Y034439D01*
X045706Y034088D02*
X045706Y034088D01*
X045866Y034838D02*
X045358Y034838D01*
X045181Y034981D02*
X045181Y035696D01*
X044168Y034976D02*
X044168Y034976D01*
X041120Y029265D02*
X040004Y029265D01*
X039681Y029588D01*
X035728Y028838D02*
X034501Y028838D01*
X030681Y034532D02*
X030405Y034808D01*
X029681Y034532D02*
X029405Y034808D01*
X031181Y034808D02*
X031181Y035808D01*
X029681Y018838D02*
X029681Y018838D01*
X029181Y018338D02*
X030181Y018338D01*
X029431Y017838D02*
X029431Y017838D01*
X029681Y017409D02*
X029681Y015658D01*
X030181Y015658D02*
X030181Y017518D01*
X030681Y017518D02*
X030681Y016339D01*
X030681Y016339D01*
X030681Y016738D01*
X030847Y016738D01*
X031081Y016504D01*
X031081Y016338D01*
X030681Y016338D01*
X030281Y016338D01*
X030281Y016504D01*
X030515Y016738D01*
X030681Y016738D01*
X030681Y016339D01*
X031181Y015658D02*
X031181Y017358D01*
X026691Y012338D02*
X026671Y012338D01*
X026181Y010868D02*
X026181Y008318D01*
X026681Y009267D02*
X026681Y009773D01*
X026615Y009838D02*
X024166Y009838D01*
X024065Y010338D02*
X026615Y010338D01*
X026681Y010404D02*
X026681Y010759D01*
X026931Y010338D02*
X026931Y010338D01*
X026681Y010088D02*
X026681Y010088D01*
X025681Y010868D02*
X025681Y001618D01*
X024681Y002301D02*
X024681Y002436D01*
X023181Y008267D02*
X023181Y008409D01*
X023411Y008838D02*
X023446Y008838D01*
X039526Y005338D02*
X045901Y005338D01*
X045901Y004838D02*
X039673Y004838D01*
X042951Y007838D02*
X045901Y007838D01*
X045901Y008338D02*
X042865Y008338D01*
X042431Y013838D02*
X041431Y013838D01*
X039431Y013838D02*
X039431Y014588D01*
X045808Y002371D02*
X045808Y002371D01*
X002681Y035098D02*
X002625Y035098D01*
X002503Y035098D01*
X002503Y035098D01*
X002168Y034976D01*
X001895Y034747D01*
X001717Y034439D01*
X001717Y034439D01*
X001655Y034088D02*
X001655Y034088D01*
X001895Y034747D02*
X001895Y034747D01*
X001895Y034747D01*
X002004Y034838D02*
X001496Y034838D01*
X002168Y034976D02*
X002168Y034976D01*
X002181Y034981D02*
X002181Y035696D01*
X002681Y035808D02*
X002737Y035808D01*
X002625Y035098D02*
X002625Y035098D01*
D34*
X010181Y027213D03*
X013181Y025338D03*
X012681Y023838D03*
X014431Y022338D03*
X017681Y022338D03*
X020681Y025088D03*
X021931Y025588D03*
X020431Y027401D03*
X020181Y032463D03*
X021931Y032588D03*
X021431Y035088D03*
X029056Y029213D03*
X034681Y028088D03*
X035681Y024838D03*
X035181Y023713D03*
X035181Y022838D03*
X036556Y021588D03*
X036431Y020838D03*
X034931Y020463D03*
X033681Y020838D03*
X033681Y019588D03*
X035056Y019588D03*
X034181Y017088D03*
X034681Y016838D03*
X037556Y015088D03*
X036556Y013338D03*
X031681Y018838D03*
X030931Y019963D03*
X031431Y021588D03*
X031431Y022588D03*
X030681Y023338D03*
X026431Y020088D03*
X025931Y021338D03*
X024431Y021338D03*
X023431Y020838D03*
X023931Y020088D03*
X026931Y017338D03*
X028743Y017151D03*
X027681Y013338D03*
X022431Y016838D03*
X018681Y017838D03*
X017931Y018338D03*
X013181Y014838D03*
X013806Y013838D03*
X011181Y016338D03*
X009056Y014213D03*
X005306Y016963D03*
X020931Y013588D03*
X039681Y023713D03*
X043181Y026338D03*
X039681Y027838D03*
X039681Y029588D03*
X013681Y030088D03*
D35*
X022931Y030838D02*
X023431Y030338D01*
X023431Y029463D01*
X024431Y029463D02*
X024431Y030338D01*
X024931Y030838D01*
X024931Y031713D01*
X025181Y031963D01*
X027431Y031963D01*
X027806Y032338D01*
X027806Y033713D01*
X027181Y034338D01*
X027181Y033338D02*
X026181Y032338D01*
X024806Y032338D01*
X024431Y031963D01*
X024431Y031338D01*
X022931Y030838D02*
X022931Y032338D01*
X024431Y033838D01*
X025931Y015338D02*
X025931Y014338D01*
X027431Y012838D01*
X032431Y012838D01*
X033556Y011713D01*
X035306Y011713D01*
X035931Y012338D01*
D36*
X025681Y033838D02*
X024431Y033838D01*
X025681Y033838D02*
X026181Y034338D01*
M02*
