%
M48
M72
T01C0.0236
T02C0.0315
T03C0.0320
T04C0.0394
T05C0.0400
T06C0.0472
T07C0.0590
T08C0.1300
%
T01
X13806Y13838
X13181Y14838
X11181Y16338
X9056Y14213
X5306Y16963
X12431Y23838
X13181Y25338
X10181Y27213
X13681Y30088
X20181Y32463
X22181Y32588
X21431Y35088
X29056Y29213
X34681Y28088
X35681Y24838
X35181Y23713
X35181Y22838
X36556Y21588
X36431Y20838
X34931Y20463
X33681Y20838
X33681Y19588
X35056Y19588
X34181Y17088
X34681Y16838
X37556Y15088
X36556Y13338
X31681Y18838
X30931Y19963
X31431Y21588
X31431Y22588
X30681Y23338
X26431Y20088
X25931Y21338
X24431Y21338
X23431Y20838
X23931Y20088
X26931Y17338
X28743Y17151
X27681Y13338
X22431Y16838
X18681Y17838
X17931Y18338
X17681Y22338
X14431Y22338
X20681Y25088
X21931Y25588
X20431Y27401
X20931Y13588
X39681Y23713
X43181Y26338
X39681Y27838
X39681Y29588
T02
X26431Y31338
X25431Y31338
X24431Y31338
X23431Y31338
X22431Y31338
X21431Y31338
X19431Y31338
X18431Y31338
X17431Y31338
X16431Y31338
X15431Y31338
X14431Y31338
X14431Y12338
X15431Y12338
X16431Y12338
X17431Y12338
X18431Y12338
X19431Y12338
X20431Y12338
X21431Y12338
X23181Y12338
X24181Y12338
X25181Y12338
X26181Y12338
X27181Y12338
X28181Y12338
X29181Y12338
X30181Y12338
T03
X31931Y11188
X32931Y11338
X32931Y10088
X31931Y10088
X31931Y8838
X32931Y8838
X33931Y7838
X35931Y7838
X36931Y8838
X37931Y8838
X38931Y7838
X40931Y7838
X41931Y8838
X41931Y10088
X41931Y11338
X41931Y12338
X39931Y12338
X38931Y12338
X37931Y11338
X36931Y11338
X36931Y12338
X35931Y12338
X33931Y12338
X36931Y10088
X37931Y10088
X30931Y7838
X28931Y7838
X27931Y8838
X26931Y8838
X26181Y7838
X24181Y7838
X23431Y7838
X22931Y8838
X21931Y8838
X21431Y7838
X20681Y7838
X18681Y7838
X17931Y8838
X17431Y8088
X17931Y10088
X17931Y11188
X21681Y13788
X21931Y15338
X22931Y15338
X23931Y15338
X24931Y15338
X25931Y15338
X26931Y15338
X28681Y16338
X30681Y16338
X31181Y17838
X30181Y18338
X29431Y17838
X29431Y18838
X26931Y18338
X25931Y18338
X24931Y18338
X23931Y18338
X22931Y18338
X21931Y18338
X20931Y18338
X19931Y18338
X17806Y16088
X15806Y17213
X16681Y18338
X15056Y20338
X12681Y18338
X12056Y19088
X11056Y20338
X12056Y21588
X12056Y22838
X14431Y23338
X14431Y25088
X14431Y26463
X15431Y26463
X16431Y26463
X17431Y26463
X18431Y26463
X19431Y26463
X20431Y26463
X21431Y26463
X22431Y26463
X23431Y26463
X24431Y26463
X25431Y26463
X26431Y26463
X27431Y26463
X29181Y26088
X30431Y26088
X31493Y26088
X32681Y26088
X32681Y30088
X31493Y30088
X30431Y30088
X29181Y30088
X27431Y29463
X26431Y29463
X25431Y29463
X24431Y29463
X23431Y29463
X22431Y29463
X21431Y29463
X20431Y29463
X19431Y29463
X18431Y29463
X17431Y29463
X16431Y29463
X15431Y29463
X14431Y29463
X12181Y29338
X12181Y27838
X12056Y26588
X12056Y25338
X8056Y25338
X7056Y26088
X6556Y25338
X6056Y26088
X6681Y27588
X8181Y27838
X8056Y26588
X10181Y29338
X9181Y31838
X13181Y31838
X21431Y33713
X23431Y33713
X18431Y25088
X18431Y23338
X20681Y22713
X21681Y22713
X22931Y22713
X23931Y22713
X23931Y24463
X21931Y24463
X13806Y17213
X13806Y16088
X12456Y14838
X10456Y14838
X9306Y14838
X7306Y14838
X6556Y17838
X7056Y18588
X6056Y18588
X8056Y19088
X8056Y21588
X7056Y22338
X6556Y21588
X6056Y22338
X8056Y22838
X2931Y22838
X2931Y23838
X2931Y25088
X2931Y26088
X2681Y27588
X2931Y21588
X2931Y20588
X2931Y19338
X2931Y18338
X2868Y17088
X2868Y16088
X2931Y11338
X2931Y10088
X2931Y8838
X3931Y7838
X5931Y7838
X6931Y8838
X7931Y8838
X8931Y7838
X10931Y7838
X11931Y8838
X12931Y9538
X11931Y10088
X11931Y11338
X12931Y11538
X13431Y8088
X7931Y10088
X6931Y10088
X6931Y11338
X7931Y11338
X19931Y15338
X20931Y15338
X23681Y13788
X22931Y11188
X21931Y11188
X21931Y10088
X22931Y10088
X26931Y10088
X27931Y10088
X27931Y11188
X26931Y11188
X33181Y17838
X37056Y18338
X38681Y18838
X37056Y20338
X38681Y22838
T04
X11931Y17838
X10056Y20338
X7931Y17838
X6056Y20338
X6056Y24088
X10056Y24088
T05
X9211Y28973
X9211Y30753
X6651Y30753
X5461Y30728
X5461Y28948
X6651Y28973
X2901Y28948
X2901Y30728
X25181Y33338
X26181Y33338
X27181Y33338
X27181Y34338
X26181Y34338
X25181Y34338
X29181Y34268
X30181Y34268
X30181Y33268
X29181Y33268
X31181Y33268
X32181Y33268
X33181Y33268
X34181Y33268
X35181Y33268
X35181Y34268
X34181Y34268
X33181Y34268
X32181Y34268
X31181Y34268
X42681Y25338
X42681Y24338
X42681Y23338
X42681Y22338
X42681Y21338
X42681Y20338
X35681Y14588
X34681Y14588
X33681Y14588
X32681Y14588
X31681Y14588
X31681Y13588
X32681Y13588
X33681Y13588
X34681Y13588
X35681Y13588
X37431Y13838
X38431Y13838
X39431Y13838
X40431Y13838
X41431Y13838
X42431Y13838
X30681Y13588
X29681Y13588
X28681Y13588
X28681Y14588
X29681Y14588
X30681Y14588
T06
X11806Y12838
X10806Y12838
X9806Y12838
X7681Y12838
X6681Y12838
X5681Y12838
X4681Y12838
X3681Y12838
X2681Y12838
T07
X5011Y2368
X6861Y3648
X8001Y5458
X8991Y4908
X6651Y6598
X3991Y4908
X3001Y5458
X10011Y2368
X11861Y3648
X13991Y4908
X13001Y5458
X11651Y6598
X16651Y6598
X18001Y5458
X18991Y4908
X16861Y3648
X15011Y2368
X20011Y2368
X21861Y3648
X23991Y4908
X23001Y5458
X21651Y6598
X26651Y6598
X28001Y5458
X28991Y4908
X26861Y3648
X25011Y2368
X30011Y2368
X31861Y3648
X33991Y4908
X33001Y5458
X31651Y6598
X36651Y6598
X38001Y5458
X38991Y4908
X36861Y3648
X35011Y2368
X40011Y2368
X41861Y3648
X41651Y6598
T08
X44931Y16588
X44681Y34088
X8968Y16526
X2681Y34088
M30
