G75*
G70*
%OFA0B0*%
%FSLAX24Y24*%
%IPPOS*%
%LPD*%
%AMOC8*
5,1,8,0,0,1.08239X$1,22.5*
%
%ADD10C,0.0000*%
D10*
X004984Y025551D02*
X005850Y025551D01*
X006047Y025748D02*
X006045Y025774D01*
X006040Y025799D01*
X006032Y025823D01*
X006021Y025846D01*
X006006Y025868D01*
X005989Y025887D01*
X005970Y025904D01*
X005949Y025919D01*
X005925Y025930D01*
X005901Y025938D01*
X005876Y025943D01*
X005850Y025945D01*
X004984Y025945D01*
X004958Y025943D01*
X004933Y025938D01*
X004909Y025930D01*
X004885Y025919D01*
X004864Y025904D01*
X004845Y025887D01*
X004828Y025868D01*
X004813Y025847D01*
X004802Y025823D01*
X004794Y025799D01*
X004789Y025774D01*
X004787Y025748D01*
X006047Y025748D01*
X006045Y025722D01*
X006040Y025697D01*
X006032Y025673D01*
X006021Y025649D01*
X006006Y025628D01*
X005989Y025609D01*
X005970Y025592D01*
X005948Y025577D01*
X005925Y025566D01*
X005901Y025558D01*
X005876Y025553D01*
X005850Y025551D01*
X004984Y025551D02*
X004958Y025553D01*
X004933Y025558D01*
X004909Y025566D01*
X004885Y025577D01*
X004864Y025592D01*
X004845Y025609D01*
X004828Y025628D01*
X004813Y025650D01*
X004802Y025673D01*
X004794Y025697D01*
X004789Y025722D01*
X004787Y025748D01*
X003646Y026496D02*
X003646Y027362D01*
X003644Y027388D01*
X003639Y027413D01*
X003631Y027437D01*
X003620Y027460D01*
X003605Y027482D01*
X003588Y027501D01*
X003569Y027518D01*
X003548Y027533D01*
X003524Y027544D01*
X003500Y027552D01*
X003475Y027557D01*
X003449Y027559D01*
X003423Y027557D01*
X003398Y027552D01*
X003374Y027544D01*
X003350Y027533D01*
X003329Y027518D01*
X003310Y027501D01*
X003293Y027482D01*
X003278Y027461D01*
X003267Y027437D01*
X003259Y027413D01*
X003254Y027388D01*
X003252Y027362D01*
X003252Y026496D01*
X003449Y026299D02*
X003475Y026301D01*
X003500Y026306D01*
X003524Y026314D01*
X003547Y026325D01*
X003569Y026340D01*
X003588Y026357D01*
X003605Y026376D01*
X003620Y026397D01*
X003631Y026421D01*
X003639Y026445D01*
X003644Y026470D01*
X003646Y026496D01*
X003449Y026299D02*
X003423Y026301D01*
X003398Y026306D01*
X003374Y026314D01*
X003350Y026325D01*
X003329Y026340D01*
X003310Y026357D01*
X003293Y026376D01*
X003278Y026398D01*
X003267Y026421D01*
X003259Y026445D01*
X003254Y026470D01*
X003252Y026496D01*
X004984Y028032D02*
X005850Y028032D01*
X006047Y028228D02*
X006045Y028254D01*
X006040Y028279D01*
X006032Y028303D01*
X006021Y028326D01*
X006006Y028348D01*
X005989Y028367D01*
X005970Y028384D01*
X005949Y028399D01*
X005925Y028410D01*
X005901Y028418D01*
X005876Y028423D01*
X005850Y028425D01*
X004984Y028425D01*
X004958Y028423D01*
X004933Y028418D01*
X004909Y028410D01*
X004885Y028399D01*
X004864Y028384D01*
X004845Y028367D01*
X004828Y028348D01*
X004813Y028327D01*
X004802Y028303D01*
X004794Y028279D01*
X004789Y028254D01*
X004787Y028228D01*
X004789Y028202D01*
X004794Y028177D01*
X004802Y028153D01*
X004813Y028130D01*
X004828Y028108D01*
X004845Y028089D01*
X004864Y028072D01*
X004885Y028057D01*
X004909Y028046D01*
X004933Y028038D01*
X004958Y028033D01*
X004984Y028031D01*
X005850Y028031D02*
X005876Y028033D01*
X005901Y028038D01*
X005925Y028046D01*
X005948Y028057D01*
X005970Y028072D01*
X005989Y028089D01*
X006006Y028108D01*
X006021Y028129D01*
X006032Y028153D01*
X006040Y028177D01*
X006045Y028202D01*
X006047Y028228D01*
M02*
