G75*
G70*
%OFA0B0*%
%FSLAX24Y24*%
%IPPOS*%
%LPD*%
%AMOC8*
5,1,8,0,0,1.08239X$1,22.5*
%
%ADD10R,0.0630X0.0460*%
%ADD11R,0.0590X0.0790*%
%ADD12R,0.1500X0.0790*%
%ADD13R,0.0240X0.0870*%
%ADD14R,0.0460X0.0630*%
D10*
X020683Y018569D03*
X020683Y019169D03*
X011058Y028006D03*
X011058Y028606D03*
X041683Y007231D03*
X041683Y006631D03*
D11*
X011343Y024191D03*
X010443Y024191D03*
X009543Y024191D03*
X009843Y027941D03*
X008943Y027941D03*
X008043Y027941D03*
D12*
X010433Y026671D03*
X008933Y030421D03*
D13*
X009933Y016956D03*
X010433Y016956D03*
X010933Y016956D03*
X011433Y016956D03*
X011933Y016956D03*
X012433Y016956D03*
X012933Y016956D03*
X012933Y014906D03*
X012433Y014906D03*
X011933Y014906D03*
X011433Y014906D03*
X010933Y014906D03*
X010433Y014906D03*
X009933Y014906D03*
X033933Y014906D03*
X034433Y014906D03*
X034933Y014906D03*
X035433Y014906D03*
X035933Y014906D03*
X036433Y014906D03*
X036933Y014906D03*
X036933Y016956D03*
X036433Y016956D03*
X035933Y016956D03*
X035433Y016956D03*
X034933Y016956D03*
X034433Y016956D03*
X033933Y016956D03*
D14*
X009883Y013681D03*
X010483Y013681D03*
X012383Y013681D03*
X012983Y013681D03*
X012983Y018181D03*
X012383Y018181D03*
X010483Y018181D03*
X009883Y018181D03*
X033883Y018181D03*
X034483Y018181D03*
X036383Y018181D03*
X036983Y018181D03*
X036983Y013681D03*
X036383Y013681D03*
X034483Y013681D03*
X033883Y013681D03*
M02*
