G75*
G70*
%OFA0B0*%
%FSLAX24Y24*%
%IPPOS*%
%LPD*%
%AMOC8*
5,1,8,0,0,1.08239X$1,22.5*
%
%ADD10C,0.0000*%
D10*
X005508Y029010D02*
X006374Y029010D01*
X006571Y029207D02*
X006569Y029233D01*
X006564Y029258D01*
X006556Y029282D01*
X006545Y029305D01*
X006530Y029327D01*
X006513Y029346D01*
X006494Y029363D01*
X006473Y029378D01*
X006449Y029389D01*
X006425Y029397D01*
X006400Y029402D01*
X006374Y029404D01*
X006374Y029403D02*
X005508Y029403D01*
X005508Y029404D02*
X005482Y029402D01*
X005457Y029397D01*
X005433Y029389D01*
X005409Y029378D01*
X005388Y029363D01*
X005369Y029346D01*
X005352Y029327D01*
X005337Y029306D01*
X005326Y029282D01*
X005318Y029258D01*
X005313Y029233D01*
X005311Y029207D01*
X005313Y029181D01*
X005318Y029156D01*
X005326Y029132D01*
X005337Y029109D01*
X005352Y029087D01*
X005369Y029068D01*
X005388Y029051D01*
X005409Y029036D01*
X005433Y029025D01*
X005457Y029017D01*
X005482Y029012D01*
X005508Y029010D01*
X006374Y029010D02*
X006400Y029012D01*
X006425Y029017D01*
X006449Y029025D01*
X006472Y029036D01*
X006494Y029051D01*
X006513Y029068D01*
X006530Y029087D01*
X006545Y029108D01*
X006556Y029132D01*
X006564Y029156D01*
X006569Y029181D01*
X006571Y029207D01*
X007122Y030545D02*
X007122Y031805D01*
X007096Y031803D01*
X007071Y031798D01*
X007047Y031790D01*
X007023Y031779D01*
X007002Y031764D01*
X006983Y031747D01*
X006966Y031728D01*
X006951Y031707D01*
X006940Y031683D01*
X006932Y031659D01*
X006927Y031634D01*
X006925Y031608D01*
X006925Y030742D01*
X006927Y030716D01*
X006932Y030691D01*
X006940Y030667D01*
X006951Y030644D01*
X006966Y030622D01*
X006983Y030603D01*
X007002Y030586D01*
X007023Y030571D01*
X007047Y030560D01*
X007071Y030552D01*
X007096Y030547D01*
X007122Y030545D01*
X007148Y030547D01*
X007173Y030552D01*
X007197Y030560D01*
X007220Y030571D01*
X007242Y030586D01*
X007261Y030603D01*
X007278Y030622D01*
X007293Y030643D01*
X007304Y030667D01*
X007312Y030691D01*
X007317Y030716D01*
X007319Y030742D01*
X007319Y031608D01*
X007317Y031634D01*
X007312Y031659D01*
X007304Y031683D01*
X007293Y031706D01*
X007278Y031728D01*
X007261Y031747D01*
X007242Y031764D01*
X007221Y031779D01*
X007197Y031790D01*
X007173Y031798D01*
X007148Y031803D01*
X007122Y031805D01*
X004839Y031608D02*
X004839Y030742D01*
X004642Y030545D02*
X004616Y030547D01*
X004591Y030552D01*
X004567Y030560D01*
X004543Y030571D01*
X004522Y030586D01*
X004503Y030603D01*
X004486Y030622D01*
X004471Y030644D01*
X004460Y030667D01*
X004452Y030691D01*
X004447Y030716D01*
X004445Y030742D01*
X004445Y031608D01*
X004447Y031634D01*
X004452Y031659D01*
X004460Y031683D01*
X004471Y031707D01*
X004486Y031728D01*
X004503Y031747D01*
X004522Y031764D01*
X004543Y031779D01*
X004567Y031790D01*
X004591Y031798D01*
X004616Y031803D01*
X004642Y031805D01*
X004668Y031803D01*
X004693Y031798D01*
X004717Y031790D01*
X004741Y031779D01*
X004762Y031764D01*
X004781Y031747D01*
X004798Y031728D01*
X004813Y031706D01*
X004824Y031683D01*
X004832Y031659D01*
X004837Y031634D01*
X004839Y031608D01*
X004839Y030742D02*
X004837Y030716D01*
X004832Y030691D01*
X004824Y030667D01*
X004813Y030643D01*
X004798Y030622D01*
X004781Y030603D01*
X004762Y030586D01*
X004740Y030571D01*
X004717Y030560D01*
X004693Y030552D01*
X004668Y030547D01*
X004642Y030545D01*
M02*
