G75*
G70*
%OFA0B0*%
%FSLAX24Y24*%
%IPPOS*%
%LPD*%
%AMOC8*
5,1,8,0,0,1.08239X$1,22.5*
%
%ADD10C,0.0900*%
%ADD11C,0.1000*%
%ADD12C,0.0740*%
%ADD13OC8,0.0480*%
%ADD14OC8,0.0500*%
%ADD15C,0.0787*%
%ADD16C,0.0560*%
%ADD17C,0.0591*%
%ADD18C,0.0480*%
%ADD19C,0.0660*%
%ADD20C,0.0740*%
%ADD21C,0.0160*%
%ADD22C,0.0397*%
%ADD23C,0.0436*%
D10*
X005863Y002741D03*
X007003Y004551D03*
X005653Y005691D03*
X002003Y004551D03*
X010653Y005691D03*
X012003Y004551D03*
X010863Y002741D03*
X015863Y002741D03*
X017003Y004551D03*
X015653Y005691D03*
X020653Y005691D03*
X022003Y004551D03*
X020863Y002741D03*
X025653Y005691D03*
X027003Y004551D03*
X025863Y002741D03*
X030653Y005691D03*
X032003Y004551D03*
X030863Y002741D03*
X035653Y005691D03*
X037003Y004551D03*
X035863Y002741D03*
X040653Y005691D03*
X040863Y002741D03*
D11*
X039013Y001461D03*
X037993Y004001D03*
X034013Y001461D03*
X032993Y004001D03*
X029013Y001461D03*
X027993Y004001D03*
X024013Y001461D03*
X022993Y004001D03*
X019013Y001461D03*
X017993Y004001D03*
X014013Y001461D03*
X012993Y004001D03*
X009013Y001461D03*
X007993Y004001D03*
X004013Y001461D03*
X002993Y004001D03*
D12*
X035433Y029311D02*
X035433Y030051D01*
X036433Y030051D02*
X036433Y029311D01*
X037433Y029311D02*
X037433Y030051D01*
X038433Y030051D02*
X038433Y029311D01*
X039433Y029311D02*
X039433Y030051D01*
X040433Y030051D02*
X040433Y029311D01*
D13*
X035433Y027931D03*
X033433Y027931D03*
X029183Y027181D03*
X029183Y025931D03*
X025183Y025931D03*
X025183Y027181D03*
X016433Y027431D03*
X016433Y026181D03*
X012433Y026181D03*
X012433Y027431D03*
X008683Y024681D03*
X007183Y025431D03*
X004683Y024681D03*
X004683Y023431D03*
X004683Y022181D03*
X003933Y020931D03*
X003933Y019681D03*
X005183Y017931D03*
X005183Y016681D03*
X005183Y015181D03*
X005183Y013931D03*
X004933Y011431D03*
X005933Y010431D03*
X006933Y010431D03*
X007933Y011431D03*
X009933Y011431D03*
X010933Y010431D03*
X011933Y010431D03*
X011933Y009181D03*
X010933Y009181D03*
X010933Y007931D03*
X011933Y007931D03*
X012933Y006931D03*
X014933Y006931D03*
X015933Y007931D03*
X016933Y007931D03*
X017933Y006931D03*
X019933Y006931D03*
X020933Y007931D03*
X021933Y007931D03*
X022933Y006931D03*
X024933Y006931D03*
X025933Y007931D03*
X026933Y007931D03*
X027933Y006931D03*
X029933Y006931D03*
X030933Y007931D03*
X031933Y007931D03*
X032933Y006931D03*
X034933Y006931D03*
X035933Y007931D03*
X036933Y007931D03*
X037933Y006931D03*
X039933Y006931D03*
X040933Y007931D03*
X040933Y009181D03*
X040933Y010431D03*
X039933Y011431D03*
X039433Y012681D03*
X037933Y011431D03*
X036933Y010431D03*
X035933Y010431D03*
X034933Y011431D03*
X032933Y011431D03*
X031933Y010431D03*
X030933Y010431D03*
X030933Y009181D03*
X031933Y009181D03*
X035933Y009181D03*
X036933Y009181D03*
X037433Y012681D03*
X037683Y013931D03*
X037683Y015181D03*
X037683Y016681D03*
X037683Y017931D03*
X041683Y017931D03*
X041683Y016681D03*
X041683Y015181D03*
X041683Y013931D03*
X033183Y013931D03*
X033183Y015181D03*
X033183Y016681D03*
X033183Y017931D03*
X032183Y019181D03*
X032183Y020431D03*
X030183Y020431D03*
X028933Y019681D03*
X030183Y019181D03*
X029183Y017931D03*
X028433Y017431D03*
X027683Y017931D03*
X027683Y016931D03*
X029183Y016681D03*
X029183Y015181D03*
X029183Y013931D03*
X028933Y012681D03*
X030933Y012681D03*
X026933Y010431D03*
X025933Y010431D03*
X025933Y009181D03*
X026933Y009181D03*
X025683Y012681D03*
X023683Y012681D03*
X020933Y012681D03*
X018933Y012681D03*
X017683Y013931D03*
X017683Y015181D03*
X017683Y016681D03*
X017683Y017931D03*
X013683Y017931D03*
X013683Y016681D03*
X013683Y015181D03*
X013683Y013931D03*
X013933Y012681D03*
X015933Y012681D03*
X015933Y010431D03*
X016933Y010431D03*
X016933Y009181D03*
X015933Y009181D03*
X011433Y011681D03*
X011433Y013681D03*
X009183Y013931D03*
X009183Y015181D03*
X009183Y016681D03*
X009183Y017931D03*
X007933Y019681D03*
X007933Y020931D03*
X008683Y022181D03*
X008683Y023431D03*
X007183Y027431D03*
X024933Y019681D03*
X021933Y010431D03*
X020933Y010431D03*
X020933Y009181D03*
X021933Y009181D03*
X009933Y006931D03*
X007933Y006931D03*
X006933Y007931D03*
X005933Y007931D03*
X004933Y006931D03*
X002933Y006931D03*
X001933Y007931D03*
X001933Y009181D03*
X001933Y010431D03*
X002933Y011431D03*
X005933Y009181D03*
X006933Y009181D03*
D14*
X013433Y011431D03*
X014433Y011431D03*
X015433Y011431D03*
X016433Y011431D03*
X017433Y011431D03*
X018433Y011431D03*
X019433Y011431D03*
X020433Y011431D03*
X022183Y011431D03*
X023183Y011431D03*
X024183Y011431D03*
X025183Y011431D03*
X026183Y011431D03*
X027183Y011431D03*
X028183Y011431D03*
X029183Y011431D03*
X030683Y029681D03*
X031683Y029681D03*
X032933Y029681D03*
X033933Y029681D03*
X025433Y030431D03*
X024433Y030431D03*
X023433Y030431D03*
X022433Y030431D03*
X021433Y030431D03*
X020433Y030431D03*
X018433Y030431D03*
X017433Y030431D03*
X016433Y030431D03*
X015433Y030431D03*
X014433Y030431D03*
X013433Y030431D03*
X001933Y024931D03*
X001933Y023931D03*
X001933Y022931D03*
X001933Y021931D03*
X001933Y020931D03*
X001933Y019931D03*
X001933Y018931D03*
X001933Y017931D03*
X001933Y016931D03*
X001933Y015931D03*
D15*
X004791Y026697D02*
X005579Y026697D01*
X006366Y028272D02*
X006366Y029059D01*
X003886Y029059D02*
X003886Y028272D01*
D16*
X015140Y028762D03*
X015927Y028762D03*
X016715Y028762D03*
X017502Y028762D03*
X018289Y028762D03*
X019077Y028762D03*
X019864Y028762D03*
X020652Y028762D03*
X021439Y028762D03*
X022226Y028762D03*
X022226Y020100D03*
X021439Y020100D03*
X020652Y020100D03*
X019864Y020100D03*
X019077Y020100D03*
X018289Y020100D03*
X017502Y020100D03*
X016715Y020100D03*
X015927Y020100D03*
X015140Y020100D03*
D17*
X041388Y024931D02*
X041978Y024931D01*
X041978Y025931D02*
X041388Y025931D01*
X041388Y026931D02*
X041978Y026931D01*
X041978Y027931D02*
X041388Y027931D01*
D18*
X025933Y017671D02*
X025933Y017191D01*
X024933Y017191D02*
X024933Y017671D01*
X023933Y017671D02*
X023933Y017191D01*
X022933Y017191D02*
X022933Y017671D01*
X021933Y017671D02*
X021933Y017191D01*
X020933Y017191D02*
X020933Y017671D01*
X019933Y017671D02*
X019933Y017191D01*
X018933Y017191D02*
X018933Y017671D01*
X018933Y014671D02*
X018933Y014191D01*
X019933Y014191D02*
X019933Y014671D01*
X020933Y014671D02*
X020933Y014191D01*
X021933Y014191D02*
X021933Y014671D01*
X022933Y014671D02*
X022933Y014191D01*
X023933Y014191D02*
X023933Y014671D01*
X024933Y014671D02*
X024933Y014191D01*
X025933Y014191D02*
X025933Y014671D01*
D19*
X013183Y023431D03*
X013183Y024431D03*
X010683Y021931D03*
X010683Y020931D03*
D20*
X026653Y028541D03*
X029213Y028541D03*
X029213Y030321D03*
X026653Y030321D03*
D21*
X001227Y001516D02*
X001467Y001215D01*
X001768Y000975D01*
X002115Y000808D01*
X002491Y000722D01*
X002683Y000711D01*
X043183Y000711D01*
X043376Y000722D01*
X043751Y000808D01*
X044098Y000975D01*
X044399Y001215D01*
X044640Y001516D01*
X044807Y001863D01*
X044892Y002239D01*
X044903Y002431D01*
X044903Y018681D01*
X036636Y018681D01*
X037203Y018114D01*
X037203Y018130D01*
X037484Y018411D01*
X037882Y018411D01*
X038163Y018130D01*
X038163Y017751D01*
X038869Y017751D01*
X038997Y017751D01*
X039114Y017702D01*
X040114Y016702D01*
X040204Y016612D01*
X040253Y016495D01*
X040253Y011790D01*
X040363Y011680D01*
X040363Y015617D01*
X040363Y015745D01*
X040412Y015862D01*
X041203Y016654D01*
X041203Y016880D01*
X041484Y017161D01*
X041882Y017161D01*
X042163Y016880D01*
X042163Y016482D01*
X041882Y016201D01*
X041656Y016201D01*
X041003Y015549D01*
X041003Y011564D01*
X041954Y010612D01*
X042003Y010495D01*
X042003Y010367D01*
X042003Y010117D01*
X041954Y010000D01*
X041864Y009910D01*
X041489Y009535D01*
X041372Y009486D01*
X041307Y009486D01*
X041413Y009380D01*
X041413Y008982D01*
X041132Y008701D01*
X040906Y008701D01*
X040614Y008410D01*
X040497Y008361D01*
X040369Y008361D01*
X037182Y008361D01*
X037413Y008130D01*
X037413Y007732D01*
X037132Y007451D01*
X036734Y007451D01*
X036453Y007732D01*
X036453Y008130D01*
X036684Y008361D01*
X036369Y008361D01*
X036252Y008410D01*
X036162Y008500D01*
X035961Y008701D01*
X035906Y008701D01*
X035614Y008410D01*
X035497Y008361D01*
X035369Y008361D01*
X032182Y008361D01*
X032413Y008130D01*
X032413Y007732D01*
X032132Y007451D01*
X031734Y007451D01*
X031453Y007732D01*
X031453Y008130D01*
X031684Y008361D01*
X031369Y008361D01*
X031252Y008410D01*
X031162Y008500D01*
X030961Y008701D01*
X030906Y008701D01*
X030614Y008410D01*
X030497Y008361D01*
X030369Y008361D01*
X027182Y008361D01*
X027413Y008130D01*
X027413Y007732D01*
X027132Y007451D01*
X026734Y007451D01*
X026453Y007732D01*
X026453Y008130D01*
X026684Y008361D01*
X026369Y008361D01*
X026252Y008410D01*
X026162Y008500D01*
X025961Y008701D01*
X025906Y008701D01*
X025614Y008410D01*
X025497Y008361D01*
X025369Y008361D01*
X022182Y008361D01*
X022413Y008130D01*
X022413Y007732D01*
X022132Y007451D01*
X021734Y007451D01*
X021453Y007732D01*
X021453Y008130D01*
X021684Y008361D01*
X021369Y008361D01*
X021252Y008410D01*
X021162Y008500D01*
X020961Y008701D01*
X020906Y008701D01*
X020614Y008410D01*
X020497Y008361D01*
X020369Y008361D01*
X017182Y008361D01*
X017413Y008130D01*
X017413Y007732D01*
X017132Y007451D01*
X016734Y007451D01*
X016453Y007732D01*
X016453Y008130D01*
X016684Y008361D01*
X016369Y008361D01*
X016252Y008410D01*
X016162Y008500D01*
X015961Y008701D01*
X015906Y008701D01*
X015614Y008410D01*
X015497Y008361D01*
X015369Y008361D01*
X012182Y008361D01*
X012413Y008130D01*
X012413Y007732D01*
X012132Y007451D01*
X011734Y007451D01*
X011453Y007732D01*
X011453Y008130D01*
X011684Y008361D01*
X011369Y008361D01*
X011252Y008410D01*
X011162Y008500D01*
X010961Y008701D01*
X010906Y008701D01*
X010614Y008410D01*
X010497Y008361D01*
X010369Y008361D01*
X007182Y008361D01*
X007413Y008130D01*
X007413Y007732D01*
X007132Y007451D01*
X006734Y007451D01*
X006453Y007732D01*
X006453Y008130D01*
X006684Y008361D01*
X006369Y008361D01*
X006252Y008410D01*
X006162Y008500D01*
X005961Y008701D01*
X005734Y008701D01*
X005453Y008982D01*
X005453Y009361D01*
X003497Y009361D01*
X003369Y009361D01*
X003252Y009410D01*
X002413Y010249D01*
X002413Y010232D01*
X002132Y009951D01*
X001734Y009951D01*
X001453Y010232D01*
X001453Y010630D01*
X001734Y010911D01*
X001751Y010911D01*
X001544Y011118D01*
X001471Y011118D01*
X001310Y011184D01*
X001186Y011308D01*
X001120Y011469D01*
X001120Y011643D01*
X001186Y011804D01*
X001310Y011928D01*
X001471Y011995D01*
X001645Y011995D01*
X001806Y011928D01*
X001930Y011804D01*
X001997Y011643D01*
X001997Y011570D01*
X003566Y010001D01*
X005684Y010001D01*
X005453Y010232D01*
X005453Y010630D01*
X005734Y010911D01*
X006132Y010911D01*
X006413Y010630D01*
X006413Y010232D01*
X006182Y010001D01*
X006684Y010001D01*
X006453Y010232D01*
X006453Y010630D01*
X006734Y010911D01*
X007132Y010911D01*
X007413Y010630D01*
X007413Y010232D01*
X007182Y010001D01*
X010684Y010001D01*
X010453Y010232D01*
X010453Y010249D01*
X010364Y010160D01*
X010247Y010111D01*
X010119Y010111D01*
X009369Y010111D01*
X009252Y010160D01*
X009162Y010250D01*
X008801Y010611D01*
X007619Y010611D01*
X007502Y010660D01*
X007412Y010750D01*
X007412Y010750D01*
X007051Y011111D01*
X005816Y011111D01*
X005364Y010660D01*
X005247Y010611D01*
X005119Y010611D01*
X004119Y010611D01*
X004002Y010660D01*
X003912Y010750D01*
X003912Y010750D01*
X003333Y011329D01*
X003333Y011266D01*
X003099Y011031D01*
X002933Y011031D01*
X002933Y011431D01*
X002933Y011431D01*
X002533Y011431D01*
X002533Y011266D01*
X002767Y011031D01*
X002933Y011031D01*
X002933Y011431D01*
X002933Y011431D01*
X002533Y011431D01*
X002533Y011597D01*
X002767Y011831D01*
X002933Y011831D01*
X002933Y011432D01*
X002933Y011432D01*
X002933Y011831D01*
X003099Y011831D01*
X003113Y011817D01*
X003113Y013349D01*
X003069Y013272D01*
X003069Y013272D01*
X003069Y013272D01*
X002796Y013043D01*
X002796Y013043D01*
X002461Y012921D01*
X002461Y012921D01*
X002339Y012921D01*
X002339Y012921D01*
X002283Y012921D01*
X002256Y012921D01*
X002227Y012921D01*
X002227Y012921D01*
X002105Y012921D01*
X002105Y012921D01*
X001770Y013043D01*
X001770Y013043D01*
X001498Y013272D01*
X001498Y013272D01*
X001319Y013580D01*
X001319Y013580D01*
X001258Y013931D01*
X001258Y013931D01*
X001319Y014282D01*
X001319Y014282D01*
X001498Y014590D01*
X000963Y014590D01*
X000963Y014432D02*
X001406Y014432D01*
X001318Y014273D02*
X000963Y014273D01*
X000963Y014115D02*
X001290Y014115D01*
X001262Y013956D02*
X000963Y013956D01*
X000963Y013798D02*
X001281Y013798D01*
X001309Y013639D02*
X000963Y013639D01*
X000963Y013480D02*
X001377Y013480D01*
X001469Y013322D02*
X000963Y013322D01*
X000963Y013163D02*
X001627Y013163D01*
X001875Y013005D02*
X000963Y013005D01*
X000963Y012846D02*
X003113Y012846D01*
X003113Y012688D02*
X000963Y012688D01*
X000963Y012529D02*
X003113Y012529D01*
X003113Y012371D02*
X000963Y012371D01*
X000963Y012212D02*
X003113Y012212D01*
X003113Y012054D02*
X000963Y012054D01*
X000963Y011895D02*
X001277Y011895D01*
X001158Y011736D02*
X000963Y011736D01*
X000963Y011578D02*
X001120Y011578D01*
X001140Y011419D02*
X000963Y011419D01*
X000963Y011261D02*
X001233Y011261D01*
X000963Y011102D02*
X001559Y011102D01*
X001718Y010944D02*
X000963Y010944D01*
X000963Y010785D02*
X001608Y010785D01*
X001453Y010627D02*
X000963Y010627D01*
X000963Y010468D02*
X001453Y010468D01*
X001453Y010310D02*
X000963Y010310D01*
X000963Y010151D02*
X001534Y010151D01*
X001693Y009993D02*
X000963Y009993D01*
X000963Y009834D02*
X002828Y009834D01*
X002986Y009675D02*
X000963Y009675D01*
X000963Y009517D02*
X001590Y009517D01*
X001453Y009380D02*
X001453Y008982D01*
X001734Y008701D01*
X002132Y008701D01*
X002413Y008982D01*
X002413Y009380D01*
X002132Y009661D01*
X001734Y009661D01*
X001453Y009380D01*
X001453Y009358D02*
X000963Y009358D01*
X000963Y009200D02*
X001453Y009200D01*
X001453Y009041D02*
X000963Y009041D01*
X000963Y008883D02*
X001553Y008883D01*
X001711Y008724D02*
X000963Y008724D01*
X000963Y008566D02*
X006096Y008566D01*
X006259Y008407D02*
X002136Y008407D01*
X002132Y008411D02*
X001734Y008411D01*
X001453Y008130D01*
X001453Y007732D01*
X001734Y007451D01*
X002132Y007451D01*
X002413Y007732D01*
X002413Y008130D01*
X002132Y008411D01*
X002295Y008249D02*
X005685Y008249D01*
X005767Y008331D02*
X005533Y008097D01*
X005533Y007931D01*
X005533Y007766D01*
X005767Y007531D01*
X005933Y007531D01*
X005933Y007931D01*
X005933Y007931D01*
X005533Y007931D01*
X005933Y007931D01*
X005933Y007931D01*
X005933Y007531D01*
X006099Y007531D01*
X006333Y007766D01*
X006333Y007931D01*
X005934Y007931D01*
X005934Y007931D01*
X006333Y007931D01*
X006333Y008097D01*
X006099Y008331D01*
X005933Y008331D01*
X005767Y008331D01*
X005933Y008331D02*
X005933Y007932D01*
X005933Y007932D01*
X005933Y008331D01*
X005933Y008249D02*
X005933Y008249D01*
X005933Y008090D02*
X005933Y008090D01*
X006181Y008249D02*
X006572Y008249D01*
X006453Y008090D02*
X006333Y008090D01*
X006333Y007931D02*
X006453Y007931D01*
X006453Y007773D02*
X006333Y007773D01*
X006182Y007614D02*
X006571Y007614D01*
X006730Y007456D02*
X002137Y007456D01*
X002295Y007614D02*
X005684Y007614D01*
X005533Y007773D02*
X002413Y007773D01*
X002413Y007931D02*
X005533Y007931D01*
X005533Y008090D02*
X002413Y008090D01*
X002155Y008724D02*
X005711Y008724D01*
X005553Y008883D02*
X002313Y008883D01*
X002413Y009041D02*
X005453Y009041D01*
X005453Y009200D02*
X002413Y009200D01*
X002413Y009358D02*
X005453Y009358D01*
X005933Y009181D02*
X006433Y008681D01*
X010433Y008681D01*
X010933Y009181D01*
X011433Y008681D01*
X015433Y008681D01*
X015933Y009181D01*
X016433Y008681D01*
X020433Y008681D01*
X020933Y009181D01*
X021433Y008681D01*
X025433Y008681D01*
X025933Y009181D01*
X026433Y008681D01*
X030433Y008681D01*
X030933Y009181D01*
X031433Y008681D01*
X035433Y008681D01*
X035933Y009181D01*
X036433Y008681D01*
X040433Y008681D01*
X040933Y009181D01*
X041413Y009200D02*
X044903Y009200D01*
X044903Y009358D02*
X041413Y009358D01*
X041446Y009517D02*
X044903Y009517D01*
X044903Y009675D02*
X041630Y009675D01*
X041789Y009834D02*
X044903Y009834D01*
X044903Y009993D02*
X041947Y009993D01*
X042003Y010151D02*
X044903Y010151D01*
X044903Y010310D02*
X042003Y010310D01*
X042003Y010468D02*
X044903Y010468D01*
X044903Y010627D02*
X041940Y010627D01*
X041782Y010785D02*
X044903Y010785D01*
X044903Y010944D02*
X041623Y010944D01*
X041465Y011102D02*
X044903Y011102D01*
X044903Y011261D02*
X041306Y011261D01*
X041147Y011419D02*
X044903Y011419D01*
X044903Y011578D02*
X041003Y011578D01*
X041003Y011736D02*
X044903Y011736D01*
X044903Y011895D02*
X041003Y011895D01*
X041003Y012054D02*
X044903Y012054D01*
X044903Y012212D02*
X041003Y012212D01*
X041003Y012371D02*
X044903Y012371D01*
X044903Y012529D02*
X041003Y012529D01*
X041003Y012688D02*
X044903Y012688D01*
X044903Y012846D02*
X041003Y012846D01*
X041003Y013005D02*
X044903Y013005D01*
X044903Y013163D02*
X041003Y013163D01*
X041003Y013322D02*
X044903Y013322D01*
X044903Y013480D02*
X041003Y013480D01*
X041003Y013639D02*
X041410Y013639D01*
X041517Y013531D02*
X041683Y013531D01*
X041683Y013931D01*
X041683Y013931D01*
X041283Y013931D01*
X041283Y013766D01*
X041517Y013531D01*
X041683Y013531D02*
X041849Y013531D01*
X042083Y013766D01*
X042083Y013931D01*
X041684Y013931D01*
X041684Y013931D01*
X042083Y013931D01*
X042083Y014097D01*
X041849Y014331D01*
X041683Y014331D01*
X041517Y014331D01*
X041283Y014097D01*
X041283Y013931D01*
X041683Y013931D01*
X041683Y013931D01*
X041683Y013531D01*
X041683Y013639D02*
X041683Y013639D01*
X041683Y013798D02*
X041683Y013798D01*
X041683Y013932D02*
X041683Y014331D01*
X041683Y013932D01*
X041683Y013932D01*
X041683Y013956D02*
X041683Y013956D01*
X041683Y014115D02*
X041683Y014115D01*
X041683Y014273D02*
X041683Y014273D01*
X041460Y014273D02*
X041003Y014273D01*
X041003Y014115D02*
X041301Y014115D01*
X041283Y013956D02*
X041003Y013956D01*
X041003Y013798D02*
X041283Y013798D01*
X041957Y013639D02*
X044903Y013639D01*
X044903Y013798D02*
X042083Y013798D01*
X042083Y013956D02*
X044903Y013956D01*
X044903Y014115D02*
X042065Y014115D01*
X041907Y014273D02*
X044903Y014273D01*
X044903Y014432D02*
X041003Y014432D01*
X041003Y014590D02*
X044903Y014590D01*
X044903Y014749D02*
X041930Y014749D01*
X041882Y014701D02*
X042163Y014982D01*
X042163Y015380D01*
X041882Y015661D01*
X041484Y015661D01*
X041203Y015380D01*
X041203Y014982D01*
X041484Y014701D01*
X041882Y014701D01*
X042088Y014907D02*
X044903Y014907D01*
X044903Y015066D02*
X042163Y015066D01*
X042163Y015224D02*
X043359Y015224D01*
X043505Y015171D02*
X043505Y015171D01*
X043627Y015171D01*
X043627Y015171D01*
X043683Y015171D01*
X043698Y015171D01*
X043739Y015171D01*
X043861Y015171D01*
X043861Y015171D01*
X044196Y015293D01*
X044469Y015522D01*
X044647Y015830D01*
X044709Y016181D01*
X044709Y016181D01*
X044647Y016532D01*
X044469Y016840D01*
X044469Y016840D01*
X044196Y017069D01*
X043861Y017191D01*
X043739Y017191D01*
X043739Y017191D01*
X043683Y017191D01*
X043681Y017191D01*
X043627Y017191D01*
X043505Y017191D01*
X043170Y017069D01*
X042898Y016840D01*
X042719Y016532D01*
X042658Y016181D01*
X042719Y015830D01*
X042898Y015522D01*
X043170Y015293D01*
X043170Y015293D01*
X043505Y015171D01*
X043739Y015171D02*
X043739Y015171D01*
X044007Y015224D02*
X044903Y015224D01*
X044903Y015383D02*
X044303Y015383D01*
X044196Y015293D02*
X044196Y015293D01*
X044469Y015522D02*
X044469Y015522D01*
X044480Y015542D02*
X044903Y015542D01*
X044903Y015700D02*
X044572Y015700D01*
X044652Y015859D02*
X044903Y015859D01*
X044903Y016017D02*
X044680Y016017D01*
X044708Y016176D02*
X044903Y016176D01*
X044903Y016334D02*
X044682Y016334D01*
X044654Y016493D02*
X044903Y016493D01*
X044903Y016651D02*
X044578Y016651D01*
X044647Y016532D02*
X044647Y016532D01*
X044486Y016810D02*
X044903Y016810D01*
X044903Y016968D02*
X044316Y016968D01*
X044196Y017069D02*
X044196Y017069D01*
X044037Y017127D02*
X044903Y017127D01*
X044903Y017286D02*
X039531Y017286D01*
X039373Y017444D02*
X044903Y017444D01*
X044903Y017603D02*
X041920Y017603D01*
X041849Y017531D02*
X042083Y017766D01*
X042083Y017931D01*
X041684Y017931D01*
X041684Y017931D01*
X042083Y017931D01*
X042083Y018097D01*
X041849Y018331D01*
X041683Y018331D01*
X041517Y018331D01*
X041283Y018097D01*
X041283Y017931D01*
X041283Y017766D01*
X041517Y017531D01*
X041683Y017531D01*
X041683Y017931D01*
X041683Y017931D01*
X041283Y017931D01*
X041683Y017931D01*
X041683Y017931D01*
X041683Y017531D01*
X041849Y017531D01*
X041683Y017603D02*
X041683Y017603D01*
X041683Y017761D02*
X041683Y017761D01*
X041683Y017920D02*
X041683Y017920D01*
X041683Y017932D02*
X041683Y018331D01*
X041683Y017932D01*
X041683Y017932D01*
X041683Y018078D02*
X041683Y018078D01*
X041683Y018237D02*
X041683Y018237D01*
X041423Y018237D02*
X038056Y018237D01*
X038163Y018078D02*
X041283Y018078D01*
X041283Y017920D02*
X038163Y017920D01*
X038163Y017761D02*
X041288Y017761D01*
X041446Y017603D02*
X039214Y017603D01*
X038933Y017431D02*
X039933Y016431D01*
X039933Y011431D01*
X039583Y011102D02*
X038170Y011102D01*
X038099Y011031D02*
X038333Y011266D01*
X038333Y011431D01*
X037934Y011431D01*
X037934Y011431D01*
X038333Y011431D01*
X038333Y011597D01*
X038099Y011831D01*
X037933Y011831D01*
X037767Y011831D01*
X037533Y011597D01*
X037533Y011431D01*
X037533Y011266D01*
X037767Y011031D01*
X037933Y011031D01*
X037933Y011431D01*
X037933Y011431D01*
X037533Y011431D01*
X037933Y011431D01*
X037933Y011431D01*
X037933Y011031D01*
X038099Y011031D01*
X037933Y011102D02*
X037933Y011102D01*
X037933Y011261D02*
X037933Y011261D01*
X037933Y011419D02*
X037933Y011419D01*
X037933Y011432D02*
X037933Y011831D01*
X037933Y011432D01*
X037933Y011432D01*
X037933Y011578D02*
X037933Y011578D01*
X037933Y011736D02*
X037933Y011736D01*
X037673Y011736D02*
X035307Y011736D01*
X035253Y011790D02*
X035253Y013531D01*
X035346Y013493D01*
X035419Y013493D01*
X035912Y013000D01*
X036002Y012910D01*
X036119Y012861D01*
X037048Y012861D01*
X037033Y012847D01*
X037033Y012681D01*
X037033Y012516D01*
X037267Y012281D01*
X037433Y012281D01*
X037433Y012681D01*
X037433Y012681D01*
X037033Y012681D01*
X037433Y012681D01*
X037433Y012681D01*
X037433Y012281D01*
X037599Y012281D01*
X037833Y012516D01*
X037833Y012681D01*
X037434Y012681D01*
X037434Y012681D01*
X037833Y012681D01*
X037833Y012847D01*
X037819Y012861D01*
X038801Y012861D01*
X038953Y012709D01*
X038953Y012482D01*
X039234Y012201D01*
X039613Y012201D01*
X039613Y011790D01*
X039453Y011630D01*
X039453Y011232D01*
X039734Y010951D01*
X040132Y010951D01*
X040413Y011232D01*
X040413Y011249D01*
X040502Y011160D01*
X040751Y010911D01*
X040734Y010911D01*
X040453Y010630D01*
X040453Y010232D01*
X040559Y010126D01*
X037307Y010126D01*
X037413Y010232D01*
X037413Y010630D01*
X037132Y010911D01*
X036734Y010911D01*
X036453Y010630D01*
X036453Y010232D01*
X036559Y010126D01*
X036307Y010126D01*
X036413Y010232D01*
X036413Y010630D01*
X036132Y010911D01*
X035734Y010911D01*
X035453Y010630D01*
X035453Y010364D01*
X034866Y010951D01*
X035132Y010951D01*
X035413Y011232D01*
X035413Y011630D01*
X035253Y011790D01*
X035253Y011895D02*
X039613Y011895D01*
X039613Y012054D02*
X035253Y012054D01*
X035253Y012212D02*
X039223Y012212D01*
X039065Y012371D02*
X037688Y012371D01*
X037833Y012529D02*
X038953Y012529D01*
X038953Y012688D02*
X037833Y012688D01*
X037833Y012846D02*
X038815Y012846D01*
X038933Y013181D02*
X039433Y012681D01*
X038933Y013181D02*
X036183Y013181D01*
X035433Y013931D01*
X035431Y013480D02*
X035253Y013480D01*
X035253Y013322D02*
X035590Y013322D01*
X035748Y013163D02*
X035253Y013163D01*
X035253Y013005D02*
X035907Y013005D01*
X035253Y012846D02*
X037033Y012846D01*
X037033Y012688D02*
X035253Y012688D01*
X035253Y012529D02*
X037033Y012529D01*
X037178Y012371D02*
X035253Y012371D01*
X034613Y012371D02*
X033446Y012371D01*
X033288Y012529D02*
X034613Y012529D01*
X034613Y012688D02*
X033129Y012688D01*
X032971Y012846D02*
X034613Y012846D01*
X034613Y013005D02*
X032812Y013005D01*
X032653Y013163D02*
X034613Y013163D01*
X034613Y013322D02*
X032495Y013322D01*
X032336Y013480D02*
X032955Y013480D01*
X032984Y013451D02*
X033382Y013451D01*
X033663Y013732D01*
X033663Y014130D01*
X033382Y014411D01*
X032984Y014411D01*
X032703Y014130D01*
X032703Y013732D01*
X032984Y013451D01*
X032796Y013639D02*
X032178Y013639D01*
X032019Y013798D02*
X032703Y013798D01*
X032703Y013956D02*
X031861Y013956D01*
X031702Y014115D02*
X032703Y014115D01*
X032846Y014273D02*
X031544Y014273D01*
X031385Y014432D02*
X034613Y014432D01*
X034613Y014590D02*
X031227Y014590D01*
X031068Y014749D02*
X032937Y014749D01*
X032984Y014701D02*
X033382Y014701D01*
X033663Y014982D01*
X033663Y015380D01*
X033382Y015661D01*
X032984Y015661D01*
X032703Y015380D01*
X032703Y014982D01*
X032984Y014701D01*
X032778Y014907D02*
X029588Y014907D01*
X029557Y014876D02*
X029663Y014982D01*
X029663Y015380D01*
X029382Y015661D01*
X028984Y015661D01*
X028703Y015380D01*
X028703Y014987D01*
X028560Y014928D01*
X028436Y014804D01*
X028370Y014643D01*
X028370Y014469D01*
X028436Y014308D01*
X028560Y014184D01*
X028721Y014118D01*
X028804Y014118D01*
X028783Y014097D01*
X028783Y013931D01*
X028783Y013766D01*
X029017Y013531D01*
X029183Y013531D01*
X029183Y013931D01*
X029183Y013931D01*
X028783Y013931D01*
X029183Y013931D01*
X029183Y013931D01*
X029183Y013531D01*
X029349Y013531D01*
X029583Y013766D01*
X029583Y013931D01*
X029184Y013931D01*
X029184Y013931D01*
X029583Y013931D01*
X029583Y014097D01*
X029444Y014236D01*
X030676Y014236D01*
X033081Y011831D01*
X032933Y011831D01*
X032767Y011831D01*
X032533Y011597D01*
X032533Y011431D01*
X032533Y011266D01*
X032767Y011031D01*
X032933Y011031D01*
X032933Y011431D01*
X032933Y011431D01*
X032533Y011431D01*
X032933Y011431D01*
X032933Y011431D01*
X032933Y011031D01*
X033099Y011031D01*
X033333Y011266D01*
X033333Y011431D01*
X032934Y011431D01*
X032934Y011431D01*
X033333Y011431D01*
X033333Y011579D01*
X035287Y009625D01*
X035377Y009535D01*
X035494Y009486D01*
X035559Y009486D01*
X035453Y009380D01*
X035453Y009154D01*
X035301Y009001D01*
X032413Y009001D01*
X032413Y009380D01*
X032132Y009661D01*
X031734Y009661D01*
X031453Y009380D01*
X031453Y009114D01*
X031413Y009154D01*
X031413Y009380D01*
X031132Y009661D01*
X030734Y009661D01*
X030453Y009380D01*
X030453Y009154D01*
X030301Y009001D01*
X027413Y009001D01*
X027413Y009380D01*
X027132Y009661D01*
X026734Y009661D01*
X026453Y009380D01*
X026453Y009114D01*
X026413Y009154D01*
X026413Y009380D01*
X026249Y009544D01*
X026614Y009910D01*
X026695Y009991D01*
X026734Y009951D01*
X027132Y009951D01*
X027413Y010232D01*
X027413Y010630D01*
X027132Y010911D01*
X026734Y010911D01*
X026695Y010872D01*
X026506Y011061D01*
X026673Y011228D01*
X026673Y011634D01*
X026386Y011921D01*
X026003Y011921D01*
X026003Y012322D01*
X026163Y012482D01*
X026163Y012861D01*
X027801Y012861D01*
X027863Y012799D01*
X027863Y011804D01*
X027693Y011634D01*
X027693Y011228D01*
X027980Y010941D01*
X028386Y010941D01*
X028673Y011228D01*
X028673Y011634D01*
X028503Y011804D01*
X028503Y012995D01*
X028454Y013112D01*
X028364Y013202D01*
X028114Y013452D01*
X027997Y013501D01*
X027869Y013501D01*
X026066Y013501D01*
X025856Y013711D01*
X026029Y013711D01*
X026205Y013784D01*
X026340Y013919D01*
X026413Y014096D01*
X026413Y014111D01*
X026869Y014111D01*
X026997Y014111D01*
X027114Y014160D01*
X029156Y016201D01*
X029382Y016201D01*
X029613Y016432D01*
X029613Y016231D01*
X029561Y016179D01*
X029495Y016018D01*
X029495Y015844D01*
X029561Y015683D01*
X029685Y015559D01*
X029846Y015493D01*
X030020Y015493D01*
X030181Y015559D01*
X030305Y015683D01*
X030372Y015844D01*
X030372Y016018D01*
X030305Y016179D01*
X030253Y016231D01*
X030253Y018617D01*
X030253Y018681D01*
X034813Y018681D01*
X034811Y018679D01*
X034745Y018518D01*
X034745Y018344D01*
X034811Y018183D01*
X034897Y018097D01*
X034752Y017952D01*
X034662Y017862D01*
X034613Y017745D01*
X034613Y011790D01*
X034453Y011630D01*
X034453Y011364D01*
X030989Y014827D01*
X030872Y014876D01*
X030744Y014876D01*
X029557Y014876D01*
X029663Y015066D02*
X032703Y015066D01*
X032703Y015224D02*
X029663Y015224D01*
X029660Y015383D02*
X032706Y015383D01*
X032865Y015542D02*
X032388Y015542D01*
X032431Y015559D02*
X032555Y015683D01*
X032622Y015844D01*
X032622Y016018D01*
X032555Y016179D01*
X032431Y016303D01*
X032270Y016370D01*
X032096Y016370D01*
X031935Y016303D01*
X031811Y016179D01*
X031745Y016018D01*
X031745Y015844D01*
X031811Y015683D01*
X031935Y015559D01*
X032096Y015493D01*
X032270Y015493D01*
X032431Y015559D01*
X032562Y015700D02*
X034613Y015700D01*
X034613Y015542D02*
X033502Y015542D01*
X033660Y015383D02*
X034613Y015383D01*
X034613Y015224D02*
X033663Y015224D01*
X033663Y015066D02*
X034613Y015066D01*
X034613Y014907D02*
X033588Y014907D01*
X033430Y014749D02*
X034613Y014749D01*
X034613Y014273D02*
X033520Y014273D01*
X033663Y014115D02*
X034613Y014115D01*
X034613Y013956D02*
X033663Y013956D01*
X033663Y013798D02*
X034613Y013798D01*
X034613Y013639D02*
X033570Y013639D01*
X033411Y013480D02*
X034613Y013480D01*
X034613Y012212D02*
X033605Y012212D01*
X033763Y012054D02*
X034613Y012054D01*
X034613Y011895D02*
X033922Y011895D01*
X034080Y011736D02*
X034560Y011736D01*
X034453Y011578D02*
X034239Y011578D01*
X034397Y011419D02*
X034453Y011419D01*
X034933Y011431D02*
X034933Y017681D01*
X035183Y017931D01*
X035683Y017931D01*
X034878Y018078D02*
X033663Y018078D01*
X033663Y018130D02*
X033382Y018411D01*
X032984Y018411D01*
X032703Y018130D01*
X032703Y017732D01*
X032984Y017451D01*
X033382Y017451D01*
X033663Y017732D01*
X033663Y018130D01*
X033556Y018237D02*
X034789Y018237D01*
X034745Y018395D02*
X033398Y018395D01*
X032969Y018395D02*
X030253Y018395D01*
X030253Y018237D02*
X032810Y018237D01*
X032703Y018078D02*
X030253Y018078D01*
X030253Y017920D02*
X032703Y017920D01*
X032703Y017761D02*
X030253Y017761D01*
X030253Y017603D02*
X032833Y017603D01*
X032984Y017161D02*
X032703Y016880D01*
X032703Y016482D01*
X032984Y016201D01*
X033382Y016201D01*
X033663Y016482D01*
X033663Y016880D01*
X033382Y017161D01*
X032984Y017161D01*
X032950Y017127D02*
X030253Y017127D01*
X030253Y017286D02*
X034613Y017286D01*
X034613Y017444D02*
X030253Y017444D01*
X029613Y017444D02*
X028913Y017444D01*
X029017Y017531D02*
X029183Y017531D01*
X029183Y017931D01*
X029183Y017931D01*
X028783Y017931D01*
X028783Y017766D01*
X029017Y017531D01*
X028946Y017603D02*
X028913Y017603D01*
X028913Y017630D02*
X028632Y017911D01*
X028234Y017911D01*
X028074Y017751D01*
X028069Y017751D01*
X028083Y017766D01*
X028083Y017931D01*
X027684Y017931D01*
X027684Y017931D01*
X028083Y017931D01*
X028083Y018097D01*
X027849Y018331D01*
X027683Y018331D01*
X027517Y018331D01*
X027283Y018097D01*
X027283Y017931D01*
X027283Y017784D01*
X026456Y018611D01*
X028119Y018611D01*
X028247Y018611D01*
X028364Y018660D01*
X028386Y018681D01*
X029481Y018681D01*
X029613Y018549D01*
X029613Y016930D01*
X029382Y017161D01*
X028984Y017161D01*
X028703Y016880D01*
X028703Y016654D01*
X026801Y014751D01*
X026413Y014751D01*
X026413Y014767D01*
X026340Y014943D01*
X026205Y015078D01*
X026029Y015151D01*
X025856Y015151D01*
X026204Y015500D01*
X026253Y015617D01*
X026253Y015745D01*
X026253Y016832D01*
X026340Y016919D01*
X026413Y017096D01*
X026413Y017749D01*
X026912Y017250D01*
X026912Y017250D01*
X027002Y017160D01*
X027119Y017111D01*
X027203Y017111D01*
X027203Y016732D01*
X027484Y016451D01*
X027882Y016451D01*
X028163Y016732D01*
X028163Y017022D01*
X028234Y016951D01*
X028632Y016951D01*
X028913Y017232D01*
X028913Y017630D01*
X028788Y017761D02*
X028782Y017761D01*
X028783Y017920D02*
X028083Y017920D01*
X028083Y018078D02*
X028783Y018078D01*
X028783Y018097D02*
X028783Y017931D01*
X029183Y017931D01*
X029183Y017931D01*
X029183Y017531D01*
X029349Y017531D01*
X029583Y017766D01*
X029583Y017931D01*
X029184Y017931D01*
X029184Y017931D01*
X029583Y017931D01*
X029583Y018097D01*
X029349Y018331D01*
X029183Y018331D01*
X029017Y018331D01*
X028783Y018097D01*
X028923Y018237D02*
X027943Y018237D01*
X027683Y018237D02*
X027683Y018237D01*
X027683Y018331D02*
X027683Y017932D01*
X027683Y017932D01*
X027683Y018331D01*
X027683Y018078D02*
X027683Y018078D01*
X027683Y017931D02*
X027283Y017931D01*
X027683Y017931D01*
X027683Y017931D01*
X027283Y017920D02*
X027147Y017920D01*
X027283Y018078D02*
X026989Y018078D01*
X026830Y018237D02*
X027423Y018237D01*
X026671Y018395D02*
X029613Y018395D01*
X029613Y018237D02*
X029443Y018237D01*
X029583Y018078D02*
X029613Y018078D01*
X029613Y017920D02*
X029583Y017920D01*
X029579Y017761D02*
X029613Y017761D01*
X029613Y017603D02*
X029420Y017603D01*
X029183Y017603D02*
X029183Y017603D01*
X029183Y017761D02*
X029183Y017761D01*
X029183Y017920D02*
X029183Y017920D01*
X029183Y017932D02*
X029183Y018331D01*
X029183Y017932D01*
X029183Y017932D01*
X029183Y018078D02*
X029183Y018078D01*
X029183Y018237D02*
X029183Y018237D01*
X029608Y018554D02*
X026513Y018554D01*
X026183Y018431D02*
X027183Y017431D01*
X028433Y017431D01*
X028084Y017761D02*
X028079Y017761D01*
X028913Y017286D02*
X029613Y017286D01*
X029613Y017127D02*
X029416Y017127D01*
X029575Y016968D02*
X029613Y016968D01*
X029183Y016681D02*
X026933Y014431D01*
X025933Y014431D01*
X026355Y013956D02*
X028783Y013956D01*
X028783Y013798D02*
X026218Y013798D01*
X025928Y013639D02*
X028910Y013639D01*
X029183Y013639D02*
X029183Y013639D01*
X029183Y013798D02*
X029183Y013798D01*
X029457Y013639D02*
X031273Y013639D01*
X031431Y013480D02*
X028047Y013480D01*
X028245Y013322D02*
X031590Y013322D01*
X031748Y013163D02*
X028403Y013163D01*
X028499Y013005D02*
X028691Y013005D01*
X028767Y013081D02*
X028533Y012847D01*
X028533Y012681D01*
X028533Y012516D01*
X028767Y012281D01*
X028933Y012281D01*
X028933Y012681D01*
X028933Y012681D01*
X028533Y012681D01*
X028933Y012681D01*
X028933Y012681D01*
X028933Y012281D01*
X029099Y012281D01*
X029333Y012516D01*
X029333Y012681D01*
X028934Y012681D01*
X028934Y012681D01*
X029333Y012681D01*
X029333Y012847D01*
X029099Y013081D01*
X028933Y013081D01*
X028767Y013081D01*
X028933Y013081D02*
X028933Y012682D01*
X028933Y012682D01*
X028933Y013081D01*
X028933Y013005D02*
X028933Y013005D01*
X028933Y012846D02*
X028933Y012846D01*
X028933Y012688D02*
X028933Y012688D01*
X028933Y012529D02*
X028933Y012529D01*
X028933Y012371D02*
X028933Y012371D01*
X028678Y012371D02*
X028503Y012371D01*
X028503Y012529D02*
X028533Y012529D01*
X028533Y012688D02*
X028503Y012688D01*
X028503Y012846D02*
X028533Y012846D01*
X028183Y012931D02*
X028183Y011431D01*
X027693Y011419D02*
X027673Y011419D01*
X027673Y011261D02*
X027693Y011261D01*
X027673Y011228D02*
X027386Y010941D01*
X026980Y010941D01*
X026693Y011228D01*
X026693Y011634D01*
X026980Y011921D01*
X027386Y011921D01*
X027673Y011634D01*
X027673Y011228D01*
X027547Y011102D02*
X027819Y011102D01*
X027978Y010944D02*
X027389Y010944D01*
X027258Y010785D02*
X030608Y010785D01*
X030613Y010790D02*
X030453Y010630D01*
X030453Y010232D01*
X030734Y009951D01*
X031132Y009951D01*
X031413Y010232D01*
X031413Y010630D01*
X031253Y010790D01*
X031253Y012322D01*
X031413Y012482D01*
X031413Y012880D01*
X031132Y013161D01*
X030734Y013161D01*
X030453Y012880D01*
X030453Y012482D01*
X030613Y012322D01*
X030613Y010790D01*
X030613Y010944D02*
X029389Y010944D01*
X029386Y010941D02*
X029673Y011228D01*
X029673Y011634D01*
X029386Y011921D01*
X028980Y011921D01*
X028693Y011634D01*
X028693Y011228D01*
X028980Y010941D01*
X029386Y010941D01*
X029547Y011102D02*
X030613Y011102D01*
X030613Y011261D02*
X029673Y011261D01*
X029673Y011419D02*
X030613Y011419D01*
X030613Y011578D02*
X029673Y011578D01*
X029571Y011736D02*
X030613Y011736D01*
X030613Y011895D02*
X029412Y011895D01*
X028954Y011895D02*
X028503Y011895D01*
X028503Y012054D02*
X030613Y012054D01*
X030613Y012212D02*
X028503Y012212D01*
X029188Y012371D02*
X030565Y012371D01*
X030453Y012529D02*
X029333Y012529D01*
X029333Y012688D02*
X030453Y012688D01*
X030453Y012846D02*
X029333Y012846D01*
X029175Y013005D02*
X030578Y013005D01*
X030933Y012681D02*
X030933Y010431D01*
X031258Y010785D02*
X031608Y010785D01*
X031734Y010911D02*
X031453Y010630D01*
X031453Y010232D01*
X031734Y009951D01*
X032132Y009951D01*
X032413Y010232D01*
X032413Y010630D01*
X032132Y010911D01*
X031734Y010911D01*
X031453Y010627D02*
X031413Y010627D01*
X031413Y010468D02*
X031453Y010468D01*
X031453Y010310D02*
X031413Y010310D01*
X031332Y010151D02*
X031534Y010151D01*
X031693Y009993D02*
X031173Y009993D01*
X030693Y009993D02*
X027173Y009993D01*
X027332Y010151D02*
X030534Y010151D01*
X030453Y010310D02*
X027413Y010310D01*
X027413Y010468D02*
X030453Y010468D01*
X030453Y010627D02*
X027413Y010627D01*
X026978Y010944D02*
X026623Y010944D01*
X026547Y011102D02*
X026819Y011102D01*
X026693Y011261D02*
X026673Y011261D01*
X026673Y011419D02*
X026693Y011419D01*
X026693Y011578D02*
X026673Y011578D01*
X026571Y011736D02*
X026796Y011736D01*
X026954Y011895D02*
X026412Y011895D01*
X026003Y012054D02*
X027863Y012054D01*
X027863Y012212D02*
X026003Y012212D01*
X026051Y012371D02*
X027863Y012371D01*
X027863Y012529D02*
X026163Y012529D01*
X026163Y012688D02*
X027863Y012688D01*
X027815Y012846D02*
X026163Y012846D01*
X025933Y013181D02*
X027933Y013181D01*
X028183Y012931D01*
X027863Y011895D02*
X027412Y011895D01*
X027571Y011736D02*
X027796Y011736D01*
X027693Y011578D02*
X027673Y011578D01*
X028571Y011736D02*
X028796Y011736D01*
X028693Y011578D02*
X028673Y011578D01*
X028673Y011419D02*
X028693Y011419D01*
X028693Y011261D02*
X028673Y011261D01*
X028547Y011102D02*
X028819Y011102D01*
X028978Y010944D02*
X028389Y010944D01*
X026433Y010681D02*
X026433Y010181D01*
X026058Y009806D01*
X025433Y009806D01*
X025058Y010181D01*
X023933Y010181D01*
X023433Y010681D01*
X022933Y010681D01*
X022683Y010931D01*
X022683Y011931D01*
X022433Y012181D01*
X022433Y014931D01*
X022933Y015431D01*
X022933Y017431D01*
X022453Y017444D02*
X022413Y017444D01*
X022413Y017286D02*
X022453Y017286D01*
X022453Y017127D02*
X022413Y017127D01*
X022413Y017096D02*
X022413Y017767D01*
X022340Y017943D01*
X022205Y018078D01*
X022125Y018111D01*
X022741Y018111D01*
X022661Y018078D01*
X022526Y017943D01*
X022453Y017767D01*
X022453Y017096D01*
X022526Y016919D01*
X022613Y016832D01*
X022613Y015564D01*
X022252Y015202D01*
X022162Y015112D01*
X022156Y015098D01*
X022029Y015151D01*
X021838Y015151D01*
X021716Y015101D01*
X020958Y015859D01*
X020841Y015907D01*
X020713Y015907D01*
X018090Y015907D01*
X018090Y016050D01*
X018024Y016211D01*
X017957Y016277D01*
X018163Y016482D01*
X018163Y016880D01*
X017932Y017111D01*
X018453Y017111D01*
X018453Y017096D01*
X018526Y016919D01*
X018661Y016784D01*
X018838Y016711D01*
X019029Y016711D01*
X019205Y016784D01*
X019340Y016919D01*
X019413Y017096D01*
X019413Y017767D01*
X019340Y017943D01*
X019253Y018030D01*
X019253Y018049D01*
X019816Y018611D01*
X019911Y018611D01*
X019662Y018362D01*
X019613Y018245D01*
X019613Y018117D01*
X019613Y018030D01*
X019526Y017943D01*
X019453Y017767D01*
X019453Y017096D01*
X019526Y016919D01*
X019661Y016784D01*
X019838Y016711D01*
X020029Y016711D01*
X020205Y016784D01*
X020340Y016919D01*
X020413Y017096D01*
X020413Y017767D01*
X020340Y017943D01*
X020253Y018030D01*
X020253Y018049D01*
X020316Y018111D01*
X021741Y018111D01*
X021661Y018078D01*
X021526Y017943D01*
X021453Y017767D01*
X021453Y017096D01*
X021526Y016919D01*
X021661Y016784D01*
X021838Y016711D01*
X022029Y016711D01*
X022205Y016784D01*
X022340Y016919D01*
X022413Y017096D01*
X022360Y016968D02*
X022506Y016968D01*
X022613Y016810D02*
X022231Y016810D01*
X022613Y016651D02*
X018163Y016651D01*
X018163Y016493D02*
X022613Y016493D01*
X022613Y016334D02*
X018015Y016334D01*
X018038Y016176D02*
X022613Y016176D01*
X022613Y016017D02*
X018090Y016017D01*
X017652Y015962D02*
X016121Y017494D01*
X013371Y017494D01*
X012683Y018181D01*
X011433Y018181D01*
X009683Y018681D02*
X008683Y019681D01*
X009933Y020931D01*
X010683Y020931D01*
X011173Y020932D02*
X044903Y020932D01*
X044903Y021091D02*
X011147Y021091D01*
X011173Y021029D02*
X011099Y021209D01*
X010961Y021347D01*
X010781Y021421D01*
X010586Y021421D01*
X010406Y021347D01*
X010268Y021209D01*
X010252Y021171D01*
X009981Y021171D01*
X009885Y021171D01*
X009797Y021135D01*
X008702Y020040D01*
X008612Y020040D01*
X008480Y019985D01*
X008379Y019884D01*
X008333Y019773D01*
X008333Y019847D01*
X008099Y020081D01*
X007767Y020081D01*
X007533Y019847D01*
X007533Y019516D01*
X007767Y019281D01*
X007944Y019281D01*
X007844Y019181D01*
X006023Y019181D01*
X007533Y020691D01*
X007607Y020691D01*
X007767Y020531D01*
X008099Y020531D01*
X008333Y020766D01*
X008333Y021097D01*
X008099Y021331D01*
X007767Y021331D01*
X007607Y021171D01*
X007385Y021171D01*
X007297Y021135D01*
X007230Y021067D01*
X005344Y019181D01*
X004773Y019181D01*
X007533Y021941D01*
X008357Y021941D01*
X008517Y021781D01*
X008849Y021781D01*
X009083Y022016D01*
X009083Y022347D01*
X008989Y022441D01*
X015311Y022441D01*
X015406Y022441D01*
X015494Y022478D01*
X021199Y028183D01*
X021199Y025723D01*
X021199Y025628D01*
X021236Y025539D01*
X021480Y025295D01*
X021547Y025228D01*
X021635Y025191D01*
X023638Y025191D01*
X023719Y025111D01*
X023858Y025053D01*
X024008Y025053D01*
X024147Y025111D01*
X024254Y025217D01*
X024311Y025356D01*
X024311Y025464D01*
X025730Y024045D01*
X025797Y023978D01*
X025885Y023941D01*
X029635Y023941D01*
X029731Y023941D01*
X029819Y023978D01*
X031533Y025691D01*
X040994Y025691D01*
X041002Y025673D01*
X041130Y025545D01*
X041297Y025476D01*
X042069Y025476D01*
X042236Y025545D01*
X042364Y025673D01*
X042434Y025841D01*
X042434Y026022D01*
X042364Y026189D01*
X042236Y026317D01*
X042069Y026386D01*
X041297Y026386D01*
X041130Y026317D01*
X041002Y026189D01*
X040994Y026171D01*
X031385Y026171D01*
X031297Y026135D01*
X031230Y026067D01*
X029584Y024421D01*
X029458Y024421D01*
X029504Y024467D01*
X029561Y024606D01*
X029561Y024756D01*
X029504Y024895D01*
X029397Y025002D01*
X029258Y025059D01*
X029144Y025059D01*
X023843Y030361D01*
X023843Y030601D01*
X023603Y030841D01*
X023263Y030841D01*
X023023Y030601D01*
X023023Y030261D01*
X023263Y030021D01*
X023504Y030021D01*
X028805Y024720D01*
X028805Y024606D01*
X028863Y024467D01*
X028908Y024421D01*
X026033Y024421D01*
X024673Y025781D01*
X024673Y027352D01*
X024783Y027242D01*
X024783Y027016D01*
X025017Y026781D01*
X025349Y026781D01*
X025583Y027016D01*
X025583Y027347D01*
X025349Y027581D01*
X025123Y027581D01*
X022643Y030061D01*
X022843Y030261D01*
X022843Y030431D01*
X022434Y030431D01*
X022434Y030431D01*
X022843Y030431D01*
X022843Y030601D01*
X022603Y030841D01*
X022433Y030841D01*
X022263Y030841D01*
X022023Y030601D01*
X022023Y030431D01*
X022023Y030261D01*
X022113Y030171D01*
X021753Y030171D01*
X021843Y030261D01*
X021843Y030431D01*
X021434Y030431D01*
X021434Y030431D01*
X021843Y030431D01*
X021843Y030601D01*
X021603Y030841D01*
X021433Y030841D01*
X021263Y030841D01*
X021023Y030601D01*
X021023Y030431D01*
X021023Y030261D01*
X021113Y030171D01*
X020753Y030171D01*
X020843Y030261D01*
X020843Y030601D01*
X020603Y030841D01*
X020263Y030841D01*
X020023Y030601D01*
X020023Y030261D01*
X020113Y030171D01*
X019385Y030171D01*
X019297Y030135D01*
X019230Y030067D01*
X018364Y029202D01*
X018202Y029202D01*
X018040Y029135D01*
X017916Y029011D01*
X017896Y028961D01*
X017875Y029011D01*
X017751Y029135D01*
X017590Y029202D01*
X017414Y029202D01*
X017253Y029135D01*
X017129Y029011D01*
X017108Y028961D01*
X017088Y029011D01*
X016964Y029135D01*
X016802Y029202D01*
X016627Y029202D01*
X016465Y029135D01*
X016342Y029011D01*
X016321Y028961D01*
X016300Y029011D01*
X016176Y029135D01*
X016015Y029202D01*
X015840Y029202D01*
X015678Y029135D01*
X015554Y029011D01*
X015533Y028960D01*
X015516Y028992D01*
X015475Y029049D01*
X015426Y029097D01*
X015370Y029138D01*
X015309Y029170D01*
X015243Y029191D01*
X015174Y029202D01*
X015140Y029202D01*
X015140Y028762D01*
X015140Y028762D01*
X015140Y029202D01*
X015105Y029202D01*
X015037Y029191D01*
X014971Y029170D01*
X014909Y029138D01*
X014853Y029097D01*
X014804Y029049D01*
X014764Y028992D01*
X014732Y028931D01*
X014711Y028865D01*
X014700Y028796D01*
X014700Y028762D01*
X015139Y028762D01*
X015139Y028762D01*
X014700Y028762D01*
X014700Y028727D01*
X014711Y028659D01*
X014732Y028593D01*
X014764Y028531D01*
X014804Y028475D01*
X014853Y028426D01*
X014909Y028386D01*
X014971Y028354D01*
X015037Y028333D01*
X015105Y028322D01*
X015140Y028322D01*
X015174Y028322D01*
X015243Y028333D01*
X015309Y028354D01*
X015370Y028386D01*
X015426Y028426D01*
X015475Y028475D01*
X015516Y028531D01*
X015533Y028564D01*
X015554Y028513D01*
X015678Y028389D01*
X015840Y028322D01*
X016015Y028322D01*
X016176Y028389D01*
X016300Y028513D01*
X016321Y028563D01*
X016342Y028513D01*
X016465Y028389D01*
X016627Y028322D01*
X016802Y028322D01*
X016964Y028389D01*
X017088Y028513D01*
X017108Y028563D01*
X017129Y028513D01*
X017253Y028389D01*
X017414Y028322D01*
X017590Y028322D01*
X017751Y028389D01*
X017875Y028513D01*
X017896Y028563D01*
X017916Y028513D01*
X018040Y028389D01*
X018202Y028322D01*
X018377Y028322D01*
X018539Y028389D01*
X018662Y028513D01*
X018683Y028563D01*
X018704Y028513D01*
X018828Y028389D01*
X018989Y028322D01*
X019164Y028322D01*
X019326Y028389D01*
X019450Y028513D01*
X019471Y028563D01*
X019491Y028513D01*
X019615Y028389D01*
X019777Y028322D01*
X019952Y028322D01*
X020113Y028389D01*
X020237Y028513D01*
X020258Y028563D01*
X020279Y028513D01*
X020402Y028389D01*
X020564Y028322D01*
X020660Y028322D01*
X015259Y022921D01*
X009930Y022921D01*
X009987Y022978D01*
X010042Y023110D01*
X010042Y023252D01*
X009987Y023384D01*
X009923Y023448D01*
X009923Y024582D01*
X012373Y027031D01*
X012599Y027031D01*
X012833Y027266D01*
X012833Y027597D01*
X012599Y027831D01*
X012267Y027831D01*
X012033Y027597D01*
X012033Y027371D01*
X009547Y024885D01*
X009480Y024817D01*
X009443Y024729D01*
X009443Y023448D01*
X009379Y023384D01*
X009325Y023252D01*
X009325Y023110D01*
X009379Y022978D01*
X009436Y022921D01*
X006260Y022921D01*
X006172Y022885D01*
X006105Y022817D01*
X004333Y021046D01*
X004333Y021097D01*
X004099Y021331D01*
X003767Y021331D01*
X003533Y021097D01*
X003533Y020766D01*
X003767Y020531D01*
X003819Y020531D01*
X003230Y019942D01*
X003193Y019854D01*
X003193Y019758D01*
X003193Y019261D01*
X003173Y019281D01*
X003173Y020957D01*
X004283Y022067D01*
X004283Y022016D01*
X004517Y021781D01*
X004849Y021781D01*
X005083Y022016D01*
X005083Y022347D01*
X004849Y022581D01*
X004797Y022581D01*
X005408Y023191D01*
X008358Y023191D01*
X008517Y023031D01*
X008849Y023031D01*
X009083Y023266D01*
X009083Y023597D01*
X008849Y023831D01*
X008517Y023831D01*
X008358Y023671D01*
X005356Y023671D01*
X005260Y023671D01*
X005258Y023670D01*
X005172Y023635D01*
X005105Y023567D01*
X005083Y023545D01*
X005083Y023597D01*
X004849Y023831D01*
X004517Y023831D01*
X004283Y023597D01*
X004283Y023266D01*
X004517Y023031D01*
X004569Y023031D01*
X002797Y021260D01*
X002767Y021230D01*
X002730Y021192D01*
X002693Y021104D01*
X002693Y021008D01*
X002693Y019181D01*
X002263Y019181D01*
X002103Y019341D01*
X001933Y019341D01*
X001763Y019341D01*
X001603Y019181D01*
X000963Y019181D01*
X000963Y029431D01*
X000974Y029624D01*
X001060Y029999D01*
X001227Y030346D01*
X001467Y030647D01*
X001768Y030888D01*
X002115Y031055D01*
X002491Y031140D01*
X002683Y031151D01*
X002728Y031151D01*
X002739Y031151D01*
X043183Y031151D01*
X043376Y031140D01*
X043751Y031055D01*
X044098Y030888D01*
X044399Y030647D01*
X044640Y030346D01*
X044807Y029999D01*
X044892Y029624D01*
X044903Y029431D01*
X044903Y029397D01*
X044903Y029375D01*
X044903Y019181D01*
X032583Y019181D01*
X032583Y019347D01*
X032349Y019581D01*
X032017Y019581D01*
X031783Y019347D01*
X031783Y019181D01*
X030583Y019181D01*
X030583Y019347D01*
X030349Y019581D01*
X030017Y019581D01*
X029783Y019347D01*
X029783Y019181D01*
X029773Y019181D01*
X029333Y019621D01*
X029333Y019847D01*
X029099Y020081D01*
X028767Y020081D01*
X028533Y019847D01*
X028533Y019621D01*
X028094Y019181D01*
X009523Y019181D01*
X009042Y019662D01*
X009042Y019700D01*
X010033Y020691D01*
X010252Y020691D01*
X010268Y020654D01*
X010406Y020516D01*
X010586Y020441D01*
X010781Y020441D01*
X010961Y020516D01*
X011099Y020654D01*
X011173Y020834D01*
X011173Y021029D01*
X011058Y021249D02*
X044903Y021249D01*
X044903Y021408D02*
X010813Y021408D01*
X010798Y021453D02*
X010871Y021477D01*
X010940Y021512D01*
X011002Y021557D01*
X011057Y021612D01*
X011102Y021674D01*
X011137Y021743D01*
X011161Y021816D01*
X011173Y021893D01*
X011173Y021931D01*
X010684Y021931D01*
X010684Y021931D01*
X011173Y021931D01*
X011173Y021970D01*
X011161Y022046D01*
X011137Y022119D01*
X011102Y022188D01*
X011057Y022250D01*
X011002Y022305D01*
X010940Y022350D01*
X010871Y022385D01*
X010798Y022409D01*
X010722Y022421D01*
X010683Y022421D01*
X010645Y022421D01*
X010568Y022409D01*
X010495Y022385D01*
X010426Y022350D01*
X010364Y022305D01*
X010309Y022250D01*
X010264Y022188D01*
X010229Y022119D01*
X010205Y022046D01*
X010193Y021970D01*
X010193Y021931D01*
X010193Y021893D01*
X010205Y021816D01*
X010229Y021743D01*
X010264Y021674D01*
X010309Y021612D01*
X010364Y021557D01*
X010426Y021512D01*
X010495Y021477D01*
X010568Y021453D01*
X010645Y021441D01*
X010683Y021441D01*
X010683Y021931D01*
X010683Y021931D01*
X010193Y021931D01*
X010683Y021931D01*
X010683Y021931D01*
X010683Y021441D01*
X010722Y021441D01*
X010798Y021453D01*
X010683Y021566D02*
X010683Y021566D01*
X010683Y021725D02*
X010683Y021725D01*
X010683Y021883D02*
X010683Y021883D01*
X010683Y021932D02*
X010683Y022421D01*
X010683Y021932D01*
X010683Y021932D01*
X010683Y022042D02*
X010683Y022042D01*
X010683Y022200D02*
X010683Y022200D01*
X010683Y022359D02*
X010683Y022359D01*
X010443Y022359D02*
X009071Y022359D01*
X009083Y022200D02*
X010273Y022200D01*
X010205Y022042D02*
X009083Y022042D01*
X008951Y021883D02*
X010195Y021883D01*
X010238Y021725D02*
X007316Y021725D01*
X007475Y021883D02*
X008415Y021883D01*
X008683Y022181D02*
X007433Y022181D01*
X004058Y018806D01*
X004058Y013306D01*
X005058Y012306D01*
X010808Y012306D01*
X011183Y012681D01*
X012933Y012681D01*
X013433Y012181D01*
X014183Y012181D01*
X015433Y013431D01*
X016683Y013431D01*
X017183Y012931D01*
X017933Y012931D01*
X019433Y011431D01*
X018943Y011419D02*
X018923Y011419D01*
X018943Y011469D02*
X018943Y011228D01*
X019230Y010941D01*
X019636Y010941D01*
X019923Y011228D01*
X019923Y011634D01*
X019636Y011921D01*
X019396Y011921D01*
X019036Y012281D01*
X019099Y012281D01*
X019333Y012516D01*
X019333Y012681D01*
X018934Y012681D01*
X018934Y012681D01*
X019333Y012681D01*
X019333Y012847D01*
X019099Y013081D01*
X018933Y013081D01*
X018767Y013081D01*
X018533Y012847D01*
X018533Y012784D01*
X018206Y013111D01*
X019801Y013111D01*
X020113Y012799D01*
X020113Y011804D01*
X019943Y011634D01*
X019943Y011228D01*
X020230Y010941D01*
X020636Y010941D01*
X020923Y011228D01*
X020923Y011634D01*
X020753Y011804D01*
X020753Y012201D01*
X021132Y012201D01*
X021413Y012482D01*
X021413Y012880D01*
X021132Y013161D01*
X020734Y013161D01*
X020695Y013122D01*
X020204Y013612D01*
X020114Y013702D01*
X020061Y013725D01*
X020205Y013784D01*
X020340Y013919D01*
X020413Y014096D01*
X020413Y014767D01*
X020340Y014943D01*
X020205Y015078D01*
X020029Y015151D01*
X019838Y015151D01*
X019661Y015078D01*
X019526Y014943D01*
X019453Y014767D01*
X019453Y014096D01*
X019526Y013919D01*
X019661Y013784D01*
X019741Y013751D01*
X019125Y013751D01*
X019205Y013784D01*
X019340Y013919D01*
X019413Y014096D01*
X019413Y014767D01*
X019340Y014943D01*
X019205Y015078D01*
X019029Y015151D01*
X018838Y015151D01*
X018661Y015078D01*
X018526Y014943D01*
X018453Y014767D01*
X018453Y014751D01*
X017932Y014751D01*
X018163Y014982D01*
X018163Y015267D01*
X020644Y015267D01*
X020783Y015129D01*
X020661Y015078D01*
X020526Y014943D01*
X020453Y014767D01*
X020453Y014096D01*
X020526Y013919D01*
X020661Y013784D01*
X020838Y013711D01*
X021029Y013711D01*
X021205Y013784D01*
X021340Y013919D01*
X021413Y014096D01*
X021413Y014499D01*
X021453Y014459D01*
X021453Y014096D01*
X021526Y013919D01*
X021661Y013784D01*
X021838Y013711D01*
X022029Y013711D01*
X022113Y013746D01*
X022113Y012245D01*
X022113Y012117D01*
X022162Y012000D01*
X022241Y011921D01*
X021980Y011921D01*
X021693Y011634D01*
X021693Y011228D01*
X021863Y011058D01*
X021863Y010911D01*
X021734Y010911D01*
X021453Y010630D01*
X021453Y010232D01*
X021684Y010001D01*
X021182Y010001D01*
X021413Y010232D01*
X021413Y010630D01*
X021132Y010911D01*
X020734Y010911D01*
X020453Y010630D01*
X020453Y010232D01*
X020684Y010001D01*
X017182Y010001D01*
X017413Y010232D01*
X017413Y010630D01*
X017132Y010911D01*
X016734Y010911D01*
X016453Y010630D01*
X016453Y010232D01*
X016684Y010001D01*
X016182Y010001D01*
X016413Y010232D01*
X016413Y010630D01*
X016132Y010911D01*
X015991Y010911D01*
X016125Y011046D01*
X016230Y010941D01*
X016636Y010941D01*
X016923Y011228D01*
X016923Y011634D01*
X016636Y011921D01*
X016230Y011921D01*
X016060Y011751D01*
X015994Y011751D01*
X015877Y011702D01*
X015866Y011691D01*
X015636Y011921D01*
X015230Y011921D01*
X014943Y011634D01*
X014943Y011228D01*
X015173Y010999D01*
X014676Y010501D01*
X013066Y010501D01*
X012364Y011202D01*
X012247Y011251D01*
X012119Y011251D01*
X010619Y011251D01*
X010502Y011202D01*
X010412Y011112D01*
X010051Y010751D01*
X009566Y010751D01*
X009114Y011202D01*
X008997Y011251D01*
X008869Y011251D01*
X008319Y011251D01*
X008333Y011266D01*
X008333Y011431D01*
X007934Y011431D01*
X007934Y011431D01*
X008333Y011431D01*
X008333Y011597D01*
X008319Y011611D01*
X009453Y011611D01*
X009453Y011232D01*
X009734Y010951D01*
X010132Y010951D01*
X010413Y011232D01*
X010413Y011611D01*
X010869Y011611D01*
X010997Y011611D01*
X011033Y011626D01*
X011033Y011516D01*
X011267Y011281D01*
X011433Y011281D01*
X011433Y011681D01*
X011433Y011681D01*
X011433Y011281D01*
X011599Y011281D01*
X011833Y011516D01*
X011833Y011681D01*
X011434Y011681D01*
X011434Y011681D01*
X011833Y011681D01*
X011833Y011847D01*
X011819Y011861D01*
X012551Y011861D01*
X012943Y011469D01*
X012943Y011228D01*
X013230Y010941D01*
X013636Y010941D01*
X013923Y011228D01*
X013923Y011634D01*
X013696Y011861D01*
X014170Y011861D01*
X013943Y011634D01*
X013943Y011228D01*
X014230Y010941D01*
X014636Y010941D01*
X014923Y011228D01*
X014923Y011634D01*
X014636Y011921D01*
X014376Y011921D01*
X014454Y012000D01*
X015566Y013111D01*
X015684Y013111D01*
X015453Y012880D01*
X015453Y012482D01*
X015734Y012201D01*
X016132Y012201D01*
X016413Y012482D01*
X016413Y012880D01*
X016182Y013111D01*
X016551Y013111D01*
X017002Y012660D01*
X017119Y012611D01*
X017247Y012611D01*
X017801Y012611D01*
X018491Y011921D01*
X018230Y011921D01*
X017943Y011634D01*
X017943Y011228D01*
X018230Y010941D01*
X018636Y010941D01*
X018923Y011228D01*
X018923Y011489D01*
X018943Y011469D01*
X018923Y011261D02*
X018943Y011261D01*
X019069Y011102D02*
X018797Y011102D01*
X018639Y010944D02*
X019228Y010944D01*
X019639Y010944D02*
X020228Y010944D01*
X020069Y011102D02*
X019797Y011102D01*
X019923Y011261D02*
X019943Y011261D01*
X019943Y011419D02*
X019923Y011419D01*
X019923Y011578D02*
X019943Y011578D01*
X020046Y011736D02*
X019821Y011736D01*
X019662Y011895D02*
X020113Y011895D01*
X020113Y012054D02*
X019263Y012054D01*
X019105Y012212D02*
X020113Y012212D01*
X020113Y012371D02*
X019188Y012371D01*
X019333Y012529D02*
X020113Y012529D01*
X020113Y012688D02*
X019333Y012688D01*
X019333Y012846D02*
X020065Y012846D01*
X019907Y013005D02*
X019175Y013005D01*
X018933Y013005D02*
X018933Y013005D01*
X018933Y013081D02*
X018933Y012682D01*
X018933Y012682D01*
X018933Y013081D01*
X018933Y012846D02*
X018933Y012846D01*
X018933Y012688D02*
X018933Y012688D01*
X018691Y013005D02*
X018312Y013005D01*
X018471Y012846D02*
X018533Y012846D01*
X018041Y012371D02*
X016301Y012371D01*
X016413Y012529D02*
X017883Y012529D01*
X018200Y012212D02*
X016143Y012212D01*
X016204Y011895D02*
X015662Y011895D01*
X015821Y011736D02*
X015959Y011736D01*
X016058Y011431D02*
X016433Y011431D01*
X016058Y011431D02*
X014808Y010181D01*
X012933Y010181D01*
X012183Y010931D01*
X010683Y010931D01*
X010183Y010431D01*
X009433Y010431D01*
X008933Y010931D01*
X007683Y010931D01*
X007183Y011431D01*
X005683Y011431D01*
X005183Y010931D01*
X004183Y010931D01*
X003433Y011681D01*
X003433Y018681D01*
X002933Y019181D01*
X002933Y021056D01*
X005308Y023431D01*
X008683Y023431D01*
X008397Y023152D02*
X005368Y023152D01*
X005209Y022993D02*
X009373Y022993D01*
X009325Y023152D02*
X008969Y023152D01*
X009083Y023310D02*
X009349Y023310D01*
X009443Y023469D02*
X009083Y023469D01*
X009053Y023627D02*
X009443Y023627D01*
X009443Y023786D02*
X008894Y023786D01*
X008472Y023786D02*
X004894Y023786D01*
X005053Y023627D02*
X005165Y023627D01*
X005105Y023567D02*
X005105Y023567D01*
X004472Y023786D02*
X002343Y023786D01*
X002343Y023761D02*
X002103Y023521D01*
X001763Y023521D01*
X001523Y023761D01*
X001523Y024101D01*
X001763Y024341D01*
X002103Y024341D01*
X002343Y024101D01*
X002343Y023761D01*
X002343Y023944D02*
X009443Y023944D01*
X009443Y024103D02*
X002341Y024103D01*
X002183Y024261D02*
X009443Y024261D01*
X009443Y024420D02*
X008988Y024420D01*
X009083Y024516D02*
X008849Y024281D01*
X008517Y024281D01*
X008283Y024516D01*
X008283Y024847D01*
X008517Y025081D01*
X008849Y025081D01*
X009083Y024847D01*
X009083Y024516D01*
X009083Y024579D02*
X009443Y024579D01*
X009447Y024737D02*
X009083Y024737D01*
X009034Y024896D02*
X009558Y024896D01*
X009717Y025054D02*
X008876Y025054D01*
X008490Y025054D02*
X007372Y025054D01*
X007349Y025031D02*
X007583Y025266D01*
X007583Y025431D01*
X007184Y025431D01*
X007184Y025431D01*
X007583Y025431D01*
X007583Y025597D01*
X007349Y025831D01*
X007183Y025831D01*
X007017Y025831D01*
X006783Y025597D01*
X006783Y025431D01*
X006783Y025266D01*
X007017Y025031D01*
X007183Y025031D01*
X007183Y025431D01*
X007183Y025431D01*
X006783Y025431D01*
X007183Y025431D01*
X007183Y025431D01*
X007183Y025031D01*
X007349Y025031D01*
X007183Y025054D02*
X007183Y025054D01*
X007183Y025213D02*
X007183Y025213D01*
X007183Y025371D02*
X007183Y025371D01*
X007183Y025432D02*
X007183Y025831D01*
X007183Y025432D01*
X007183Y025432D01*
X007183Y025530D02*
X007183Y025530D01*
X007183Y025688D02*
X007183Y025688D01*
X006875Y025688D02*
X000963Y025688D01*
X000963Y025530D02*
X006783Y025530D01*
X006783Y025371D02*
X000963Y025371D01*
X000963Y025213D02*
X001635Y025213D01*
X001523Y025101D02*
X001523Y024931D01*
X001523Y024761D01*
X001763Y024521D01*
X001933Y024521D01*
X001933Y024931D01*
X001933Y024931D01*
X001523Y024931D01*
X001933Y024931D01*
X001933Y024931D01*
X001933Y024521D01*
X002103Y024521D01*
X002343Y024761D01*
X002343Y024931D01*
X001934Y024931D01*
X001934Y024931D01*
X002343Y024931D01*
X002343Y025101D01*
X002103Y025341D01*
X001933Y025341D01*
X001763Y025341D01*
X001523Y025101D01*
X001523Y025054D02*
X000963Y025054D01*
X000963Y024896D02*
X001523Y024896D01*
X001547Y024737D02*
X000963Y024737D01*
X000963Y024579D02*
X001706Y024579D01*
X001933Y024579D02*
X001933Y024579D01*
X001933Y024737D02*
X001933Y024737D01*
X001933Y024896D02*
X001933Y024896D01*
X001933Y024932D02*
X001933Y025341D01*
X001933Y024932D01*
X001933Y024932D01*
X001933Y025054D02*
X001933Y025054D01*
X001933Y025213D02*
X001933Y025213D01*
X002231Y025213D02*
X006836Y025213D01*
X006995Y025054D02*
X004876Y025054D01*
X004849Y025081D02*
X004517Y025081D01*
X004283Y024847D01*
X004283Y024516D01*
X004517Y024281D01*
X004849Y024281D01*
X005083Y024516D01*
X005083Y024847D01*
X004849Y025081D01*
X005034Y024896D02*
X008332Y024896D01*
X008283Y024737D02*
X005083Y024737D01*
X005083Y024579D02*
X008283Y024579D01*
X008379Y024420D02*
X004988Y024420D01*
X004379Y024420D02*
X000963Y024420D01*
X000963Y024261D02*
X001684Y024261D01*
X001525Y024103D02*
X000963Y024103D01*
X000963Y023944D02*
X001523Y023944D01*
X001523Y023786D02*
X000963Y023786D01*
X000963Y023627D02*
X001657Y023627D01*
X001763Y023341D02*
X001523Y023101D01*
X001523Y022931D01*
X001523Y022761D01*
X001763Y022521D01*
X001933Y022521D01*
X001933Y022931D01*
X001933Y022931D01*
X001523Y022931D01*
X001933Y022931D01*
X001933Y022931D01*
X001933Y022521D01*
X002103Y022521D01*
X002343Y022761D01*
X002343Y022931D01*
X001934Y022931D01*
X001934Y022931D01*
X002343Y022931D01*
X002343Y023101D01*
X002103Y023341D01*
X001933Y023341D01*
X001763Y023341D01*
X001732Y023310D02*
X000963Y023310D01*
X000963Y023152D02*
X001574Y023152D01*
X001523Y022993D02*
X000963Y022993D01*
X000963Y022835D02*
X001523Y022835D01*
X001609Y022676D02*
X000963Y022676D01*
X000963Y022517D02*
X004055Y022517D01*
X003896Y022359D02*
X000963Y022359D01*
X000963Y022200D02*
X001623Y022200D01*
X001523Y022101D02*
X001763Y022341D01*
X002103Y022341D01*
X002343Y022101D01*
X002343Y021761D01*
X002103Y021521D01*
X001763Y021521D01*
X001523Y021761D01*
X001523Y022101D01*
X001523Y022042D02*
X000963Y022042D01*
X000963Y021883D02*
X001523Y021883D01*
X001560Y021725D02*
X000963Y021725D01*
X000963Y021566D02*
X001718Y021566D01*
X001763Y021341D02*
X001523Y021101D01*
X001523Y020931D01*
X001523Y020761D01*
X001763Y020521D01*
X001933Y020521D01*
X001933Y020931D01*
X001933Y020931D01*
X001523Y020931D01*
X001933Y020931D01*
X001933Y020931D01*
X001933Y020521D01*
X002103Y020521D01*
X002343Y020761D01*
X002343Y020931D01*
X001934Y020931D01*
X001934Y020931D01*
X002343Y020931D01*
X002343Y021101D01*
X002103Y021341D01*
X001933Y021341D01*
X001763Y021341D01*
X001671Y021249D02*
X000963Y021249D01*
X000963Y021091D02*
X001523Y021091D01*
X001523Y020932D02*
X000963Y020932D01*
X000963Y020773D02*
X001523Y020773D01*
X001670Y020615D02*
X000963Y020615D01*
X000963Y020456D02*
X002693Y020456D01*
X002693Y020298D02*
X002146Y020298D01*
X002103Y020341D02*
X001763Y020341D01*
X001523Y020101D01*
X001523Y019761D01*
X001763Y019521D01*
X002103Y019521D01*
X002343Y019761D01*
X002343Y020101D01*
X002103Y020341D01*
X002305Y020139D02*
X002693Y020139D01*
X002693Y019981D02*
X002343Y019981D01*
X002343Y019822D02*
X002693Y019822D01*
X002693Y019664D02*
X002245Y019664D01*
X001933Y019341D02*
X001933Y019181D01*
X001933Y019341D01*
X001933Y019188D02*
X001933Y019188D01*
X001933Y019181D02*
X001933Y019181D01*
X001610Y019188D02*
X000963Y019188D01*
X000963Y019347D02*
X002693Y019347D01*
X002693Y019505D02*
X000963Y019505D01*
X000963Y019664D02*
X001621Y019664D01*
X001523Y019822D02*
X000963Y019822D01*
X000963Y019981D02*
X001523Y019981D01*
X001561Y020139D02*
X000963Y020139D01*
X000963Y020298D02*
X001720Y020298D01*
X001933Y020615D02*
X001933Y020615D01*
X001933Y020773D02*
X001933Y020773D01*
X001933Y020932D02*
X001933Y021341D01*
X001933Y020932D01*
X001933Y020932D01*
X001933Y020932D01*
X001933Y021091D02*
X001933Y021091D01*
X001933Y021249D02*
X001933Y021249D01*
X002195Y021249D02*
X002787Y021249D01*
X002693Y021091D02*
X002343Y021091D01*
X002343Y020932D02*
X002693Y020932D01*
X002693Y020773D02*
X002343Y020773D01*
X002197Y020615D02*
X002693Y020615D01*
X003173Y020615D02*
X003684Y020615D01*
X003744Y020456D02*
X003173Y020456D01*
X003173Y020298D02*
X003585Y020298D01*
X003427Y020139D02*
X003173Y020139D01*
X003173Y019981D02*
X003268Y019981D01*
X003193Y019822D02*
X003173Y019822D01*
X003173Y019664D02*
X003193Y019664D01*
X003193Y019505D02*
X003173Y019505D01*
X003173Y019347D02*
X003193Y019347D01*
X003433Y019181D02*
X003433Y019806D01*
X006308Y022681D01*
X015358Y022681D01*
X021439Y028762D01*
X021439Y025675D01*
X021683Y025431D01*
X023933Y025431D01*
X024311Y025371D02*
X024404Y025371D01*
X024249Y025213D02*
X024562Y025213D01*
X024721Y025054D02*
X024011Y025054D01*
X023855Y025054D02*
X018071Y025054D01*
X018229Y025213D02*
X021583Y025213D01*
X021404Y025371D02*
X018388Y025371D01*
X018546Y025530D02*
X021245Y025530D01*
X021199Y025688D02*
X018705Y025688D01*
X018863Y025847D02*
X021199Y025847D01*
X021199Y026005D02*
X019022Y026005D01*
X019180Y026164D02*
X021199Y026164D01*
X021199Y026322D02*
X019339Y026322D01*
X019498Y026481D02*
X021199Y026481D01*
X021199Y026640D02*
X019656Y026640D01*
X019815Y026798D02*
X021199Y026798D01*
X021199Y026957D02*
X019973Y026957D01*
X020132Y027115D02*
X021199Y027115D01*
X021199Y027274D02*
X020290Y027274D01*
X020449Y027432D02*
X021199Y027432D01*
X021199Y027591D02*
X020607Y027591D01*
X020766Y027749D02*
X021199Y027749D01*
X021199Y027908D02*
X020924Y027908D01*
X021083Y028066D02*
X021199Y028066D01*
X020563Y028225D02*
X007146Y028225D01*
X007305Y028066D02*
X020404Y028066D01*
X020246Y027908D02*
X007418Y027908D01*
X007423Y027896D02*
X007387Y027984D01*
X007319Y028052D01*
X006920Y028451D01*
X006920Y029169D01*
X006836Y029373D01*
X006680Y029529D01*
X006476Y029613D01*
X006256Y029613D01*
X006053Y029529D01*
X005897Y029373D01*
X005813Y029169D01*
X005813Y028162D01*
X005897Y027958D01*
X006053Y027802D01*
X006256Y027718D01*
X006476Y027718D01*
X006680Y027802D01*
X006785Y027907D01*
X006939Y027753D01*
X006783Y027597D01*
X006783Y027266D01*
X007017Y027031D01*
X007349Y027031D01*
X007583Y027266D01*
X007583Y027597D01*
X007423Y027757D01*
X007423Y027896D01*
X007431Y027749D02*
X012186Y027749D01*
X012033Y027591D02*
X007583Y027591D01*
X007583Y027432D02*
X012033Y027432D01*
X011936Y027274D02*
X007583Y027274D01*
X007433Y027115D02*
X011778Y027115D01*
X011619Y026957D02*
X006068Y026957D01*
X006052Y026987D02*
X006092Y026909D01*
X006119Y026827D01*
X006132Y026741D01*
X006132Y026715D01*
X005204Y026715D01*
X005204Y026678D01*
X006132Y026678D01*
X006132Y026653D01*
X006119Y026567D01*
X006092Y026484D01*
X006052Y026407D01*
X006001Y026336D01*
X005939Y026275D01*
X005869Y026223D01*
X005791Y026184D01*
X005708Y026157D01*
X005622Y026143D01*
X005204Y026143D01*
X005204Y026678D01*
X005167Y026678D01*
X005167Y026143D01*
X004748Y026143D01*
X004662Y026157D01*
X004579Y026184D01*
X004501Y026223D01*
X004431Y026275D01*
X004369Y026336D01*
X004318Y026407D01*
X004278Y026484D01*
X004251Y026567D01*
X004238Y026653D01*
X004238Y026678D01*
X005166Y026678D01*
X005166Y026715D01*
X004238Y026715D01*
X004238Y026741D01*
X004251Y026827D01*
X004278Y026909D01*
X004318Y026987D01*
X004369Y027058D01*
X004431Y027119D01*
X004501Y027170D01*
X004579Y027210D01*
X004662Y027237D01*
X004748Y027251D01*
X005167Y027251D01*
X005167Y026716D01*
X005204Y026716D01*
X005204Y027251D01*
X005622Y027251D01*
X005708Y027237D01*
X005791Y027210D01*
X005869Y027170D01*
X005939Y027119D01*
X006001Y027058D01*
X006052Y026987D01*
X005944Y027115D02*
X006933Y027115D01*
X006783Y027274D02*
X000963Y027274D01*
X000963Y027432D02*
X006783Y027432D01*
X006783Y027591D02*
X000963Y027591D01*
X000963Y027749D02*
X003700Y027749D01*
X003776Y027718D02*
X003996Y027718D01*
X004200Y027802D01*
X004355Y027958D01*
X004440Y028162D01*
X004440Y029169D01*
X004355Y029373D01*
X004200Y029529D01*
X003996Y029613D01*
X003776Y029613D01*
X003572Y029529D01*
X003416Y029373D01*
X003332Y029169D01*
X003332Y028162D01*
X003416Y027958D01*
X003572Y027802D01*
X003776Y027718D01*
X004072Y027749D02*
X006180Y027749D01*
X005947Y027908D02*
X004305Y027908D01*
X004400Y028066D02*
X005852Y028066D01*
X005813Y028225D02*
X004440Y028225D01*
X004440Y028384D02*
X005813Y028384D01*
X005813Y028542D02*
X004440Y028542D01*
X004440Y028701D02*
X005813Y028701D01*
X005813Y028859D02*
X004440Y028859D01*
X004440Y029018D02*
X005813Y029018D01*
X005815Y029176D02*
X004437Y029176D01*
X004371Y029335D02*
X005881Y029335D01*
X006017Y029493D02*
X004235Y029493D01*
X003537Y029493D02*
X000967Y029493D01*
X000963Y029335D02*
X003401Y029335D01*
X003335Y029176D02*
X000963Y029176D01*
X000963Y029018D02*
X003332Y029018D01*
X003332Y028859D02*
X000963Y028859D01*
X000963Y028701D02*
X003332Y028701D01*
X003332Y028542D02*
X000963Y028542D01*
X000963Y028384D02*
X003332Y028384D01*
X003332Y028225D02*
X000963Y028225D01*
X000963Y028066D02*
X003372Y028066D01*
X003467Y027908D02*
X000963Y027908D01*
X000963Y027115D02*
X004427Y027115D01*
X004302Y026957D02*
X000963Y026957D01*
X000963Y026798D02*
X004247Y026798D01*
X004240Y026640D02*
X000963Y026640D01*
X000963Y026481D02*
X004280Y026481D01*
X004383Y026322D02*
X000963Y026322D01*
X000963Y026164D02*
X004640Y026164D01*
X005167Y026164D02*
X005204Y026164D01*
X005204Y026322D02*
X005167Y026322D01*
X005167Y026481D02*
X005204Y026481D01*
X005204Y026640D02*
X005167Y026640D01*
X005167Y026798D02*
X005204Y026798D01*
X005204Y026957D02*
X005167Y026957D01*
X005167Y027115D02*
X005204Y027115D01*
X006123Y026798D02*
X011461Y026798D01*
X011302Y026640D02*
X006130Y026640D01*
X006090Y026481D02*
X011144Y026481D01*
X010985Y026322D02*
X005987Y026322D01*
X005730Y026164D02*
X010826Y026164D01*
X010668Y026005D02*
X000963Y026005D01*
X000963Y025847D02*
X010509Y025847D01*
X010351Y025688D02*
X007492Y025688D01*
X007583Y025530D02*
X010192Y025530D01*
X010034Y025371D02*
X007583Y025371D01*
X007530Y025213D02*
X009875Y025213D01*
X010237Y024896D02*
X013027Y024896D01*
X012995Y024885D02*
X012926Y024850D01*
X012864Y024805D01*
X012809Y024750D01*
X012764Y024688D01*
X012729Y024619D01*
X012705Y024546D01*
X012693Y024470D01*
X012693Y024431D01*
X012693Y024393D01*
X012705Y024316D01*
X012729Y024243D01*
X012764Y024174D01*
X012809Y024112D01*
X012864Y024057D01*
X012926Y024012D01*
X012995Y023977D01*
X013068Y023953D01*
X013145Y023941D01*
X013183Y023941D01*
X013183Y024431D01*
X013183Y024431D01*
X012693Y024431D01*
X013183Y024431D01*
X013183Y024431D01*
X013183Y023941D01*
X013222Y023941D01*
X013298Y023953D01*
X013371Y023977D01*
X013440Y024012D01*
X013502Y024057D01*
X013557Y024112D01*
X013602Y024174D01*
X013637Y024243D01*
X013661Y024316D01*
X013673Y024393D01*
X013673Y024431D01*
X013184Y024431D01*
X013184Y024431D01*
X013673Y024431D01*
X013673Y024470D01*
X013661Y024546D01*
X013637Y024619D01*
X013602Y024688D01*
X013557Y024750D01*
X013502Y024805D01*
X013440Y024850D01*
X013371Y024885D01*
X013298Y024909D01*
X013222Y024921D01*
X013183Y024921D01*
X013145Y024921D01*
X013068Y024909D01*
X012995Y024885D01*
X013183Y024896D02*
X013183Y024896D01*
X013183Y024921D02*
X013183Y024432D01*
X013183Y024432D01*
X013183Y024921D01*
X013339Y024896D02*
X017233Y024896D01*
X017075Y024737D02*
X013567Y024737D01*
X013650Y024579D02*
X016916Y024579D01*
X016758Y024420D02*
X013673Y024420D01*
X013643Y024261D02*
X016599Y024261D01*
X016441Y024103D02*
X013548Y024103D01*
X013461Y023847D02*
X013281Y023921D01*
X013086Y023921D01*
X012906Y023847D01*
X012768Y023709D01*
X012693Y023529D01*
X012693Y023334D01*
X012768Y023154D01*
X012906Y023016D01*
X013086Y022941D01*
X013281Y022941D01*
X013461Y023016D01*
X013599Y023154D01*
X013673Y023334D01*
X013673Y023529D01*
X013599Y023709D01*
X013461Y023847D01*
X013521Y023786D02*
X016124Y023786D01*
X016282Y023944D02*
X013242Y023944D01*
X013183Y023944D02*
X013183Y023944D01*
X013125Y023944D02*
X009923Y023944D01*
X009923Y023786D02*
X012845Y023786D01*
X012734Y023627D02*
X009923Y023627D01*
X009923Y023469D02*
X012693Y023469D01*
X012703Y023310D02*
X010018Y023310D01*
X010042Y023152D02*
X012770Y023152D01*
X012960Y022993D02*
X009993Y022993D01*
X009683Y023181D02*
X009683Y024681D01*
X012433Y027431D01*
X012833Y027432D02*
X016033Y027432D01*
X016033Y027274D02*
X012833Y027274D01*
X012683Y027115D02*
X016183Y027115D01*
X016267Y027031D02*
X016599Y027031D01*
X016833Y027266D01*
X016833Y027597D01*
X016599Y027831D01*
X016267Y027831D01*
X016033Y027597D01*
X016033Y027266D01*
X016267Y027031D01*
X016683Y027115D02*
X019453Y027115D01*
X019294Y026957D02*
X012298Y026957D01*
X012139Y026798D02*
X019136Y026798D01*
X018977Y026640D02*
X011981Y026640D01*
X011822Y026481D02*
X012167Y026481D01*
X012267Y026581D02*
X012033Y026347D01*
X012033Y026181D01*
X012033Y026016D01*
X012267Y025781D01*
X012433Y025781D01*
X012433Y026181D01*
X012433Y026181D01*
X012033Y026181D01*
X012433Y026181D01*
X012433Y026181D01*
X012433Y025781D01*
X012599Y025781D01*
X012833Y026016D01*
X012833Y026181D01*
X012434Y026181D01*
X012434Y026181D01*
X012833Y026181D01*
X012833Y026347D01*
X012599Y026581D01*
X012433Y026581D01*
X012267Y026581D01*
X012433Y026581D02*
X012433Y026182D01*
X012433Y026182D01*
X012433Y026581D01*
X012433Y026481D02*
X012433Y026481D01*
X012433Y026322D02*
X012433Y026322D01*
X012433Y026164D02*
X012433Y026164D01*
X012433Y026005D02*
X012433Y026005D01*
X012433Y025847D02*
X012433Y025847D01*
X012202Y025847D02*
X011188Y025847D01*
X011030Y025688D02*
X018026Y025688D01*
X017868Y025530D02*
X010871Y025530D01*
X010713Y025371D02*
X017709Y025371D01*
X017550Y025213D02*
X010554Y025213D01*
X010396Y025054D02*
X017392Y025054D01*
X017754Y024737D02*
X025038Y024737D01*
X025196Y024579D02*
X017595Y024579D01*
X017436Y024420D02*
X025355Y024420D01*
X025513Y024261D02*
X017278Y024261D01*
X017119Y024103D02*
X025672Y024103D01*
X025878Y023944D02*
X016961Y023944D01*
X016802Y023786D02*
X044903Y023786D01*
X044903Y023944D02*
X029738Y023944D01*
X029683Y024181D02*
X031433Y025931D01*
X041683Y025931D01*
X041167Y025530D02*
X031371Y025530D01*
X031530Y025688D02*
X040996Y025688D01*
X041130Y025317D02*
X041002Y025189D01*
X040933Y025022D01*
X040933Y024841D01*
X041002Y024673D01*
X041130Y024545D01*
X041297Y024476D01*
X042069Y024476D01*
X042236Y024545D01*
X042364Y024673D01*
X042434Y024841D01*
X042434Y025022D01*
X042364Y025189D01*
X042236Y025317D01*
X042069Y025386D01*
X041297Y025386D01*
X041130Y025317D01*
X041261Y025371D02*
X031213Y025371D01*
X031054Y025213D02*
X041026Y025213D01*
X040946Y025054D02*
X030896Y025054D01*
X030737Y024896D02*
X040933Y024896D01*
X040975Y024737D02*
X030578Y024737D01*
X030420Y024579D02*
X041097Y024579D01*
X042106Y025371D02*
X044903Y025371D01*
X044903Y025213D02*
X042341Y025213D01*
X042420Y025054D02*
X044903Y025054D01*
X044903Y024896D02*
X042434Y024896D01*
X042391Y024737D02*
X044903Y024737D01*
X044903Y024579D02*
X042270Y024579D01*
X042199Y025530D02*
X044903Y025530D01*
X044903Y025688D02*
X042371Y025688D01*
X042434Y025847D02*
X044903Y025847D01*
X044903Y026005D02*
X042434Y026005D01*
X042375Y026164D02*
X044903Y026164D01*
X044903Y026322D02*
X042223Y026322D01*
X042081Y026481D02*
X044903Y026481D01*
X044903Y026640D02*
X042331Y026640D01*
X042364Y026673D02*
X042236Y026545D01*
X042069Y026476D01*
X041297Y026476D01*
X041130Y026545D01*
X041002Y026673D01*
X040994Y026691D01*
X037635Y026691D01*
X037547Y026728D01*
X037480Y026795D01*
X037230Y027045D01*
X037193Y027133D01*
X037193Y027229D01*
X037193Y028837D01*
X037133Y028862D01*
X036984Y029011D01*
X036933Y029133D01*
X036882Y029011D01*
X036733Y028862D01*
X036539Y028781D01*
X036328Y028781D01*
X036133Y028862D01*
X035984Y029011D01*
X035933Y029133D01*
X035882Y029011D01*
X035733Y028862D01*
X035539Y028781D01*
X035328Y028781D01*
X035133Y028862D01*
X034984Y029011D01*
X034903Y029206D01*
X034903Y030157D01*
X034984Y030351D01*
X035133Y030500D01*
X035328Y030581D01*
X035539Y030581D01*
X035733Y030500D01*
X035882Y030351D01*
X035933Y030229D01*
X035984Y030351D01*
X036133Y030500D01*
X036328Y030581D01*
X036539Y030581D01*
X036733Y030500D01*
X036882Y030351D01*
X036933Y030229D01*
X036984Y030351D01*
X037133Y030500D01*
X037328Y030581D01*
X037539Y030581D01*
X037733Y030500D01*
X037882Y030351D01*
X037933Y030229D01*
X037984Y030351D01*
X038133Y030500D01*
X038328Y030581D01*
X038539Y030581D01*
X038733Y030500D01*
X038882Y030351D01*
X038933Y030228D01*
X038942Y030255D01*
X038980Y030329D01*
X039029Y030396D01*
X039088Y030455D01*
X039155Y030504D01*
X039230Y030542D01*
X039309Y030568D01*
X039391Y030581D01*
X039413Y030581D01*
X039413Y029701D01*
X039453Y029701D01*
X039453Y030581D01*
X039475Y030581D01*
X039557Y030568D01*
X039637Y030542D01*
X039711Y030504D01*
X039778Y030455D01*
X039837Y030396D01*
X039886Y030329D01*
X039924Y030255D01*
X039933Y030227D01*
X039942Y030255D01*
X039980Y030329D01*
X040029Y030396D01*
X040088Y030455D01*
X040155Y030504D01*
X040230Y030542D01*
X040309Y030568D01*
X040391Y030581D01*
X040413Y030581D01*
X040413Y029701D01*
X040413Y029661D01*
X040453Y029661D01*
X040453Y028781D01*
X040475Y028781D01*
X040557Y028794D01*
X040637Y028820D01*
X040711Y028858D01*
X040778Y028907D01*
X040837Y028966D01*
X040886Y029033D01*
X040924Y029108D01*
X040950Y029187D01*
X040963Y029269D01*
X040963Y029661D01*
X040453Y029661D01*
X040453Y029701D01*
X040963Y029701D01*
X040963Y030093D01*
X040950Y030175D01*
X040924Y030255D01*
X040886Y030329D01*
X040837Y030396D01*
X040778Y030455D01*
X040711Y030504D01*
X040637Y030542D01*
X040557Y030568D01*
X040475Y030581D01*
X040453Y030581D01*
X040453Y029701D01*
X040413Y029701D01*
X039903Y029701D01*
X039453Y029701D01*
X039453Y029661D01*
X039453Y028781D01*
X039475Y028781D01*
X039557Y028794D01*
X039637Y028820D01*
X039711Y028858D01*
X039778Y028907D01*
X039837Y028966D01*
X039886Y029033D01*
X039924Y029108D01*
X039933Y029135D01*
X039942Y029108D01*
X039980Y029033D01*
X040029Y028966D01*
X040088Y028907D01*
X040155Y028858D01*
X040230Y028820D01*
X040309Y028794D01*
X040391Y028781D01*
X040413Y028781D01*
X040413Y029661D01*
X039903Y029661D01*
X039453Y029661D01*
X039413Y029661D01*
X039413Y028781D01*
X039391Y028781D01*
X039309Y028794D01*
X039230Y028820D01*
X039155Y028858D01*
X039088Y028907D01*
X039029Y028966D01*
X038980Y029033D01*
X038942Y029108D01*
X038933Y029134D01*
X038882Y029011D01*
X038733Y028862D01*
X038539Y028781D01*
X038328Y028781D01*
X038133Y028862D01*
X037984Y029011D01*
X037933Y029133D01*
X037882Y029011D01*
X037733Y028862D01*
X037673Y028837D01*
X037673Y027281D01*
X037783Y027171D01*
X040994Y027171D01*
X041002Y027189D01*
X041130Y027317D01*
X041297Y027386D01*
X042069Y027386D01*
X042236Y027317D01*
X042364Y027189D01*
X042434Y027022D01*
X042434Y026841D01*
X042364Y026673D01*
X042416Y026798D02*
X044903Y026798D01*
X044903Y026957D02*
X042434Y026957D01*
X042395Y027115D02*
X044903Y027115D01*
X044903Y027274D02*
X042280Y027274D01*
X042153Y027509D02*
X042217Y027542D01*
X042275Y027584D01*
X042326Y027635D01*
X042368Y027693D01*
X042400Y027756D01*
X042422Y027825D01*
X042434Y027895D01*
X042434Y027913D01*
X041702Y027913D01*
X041702Y027950D01*
X041665Y027950D01*
X041665Y028386D01*
X041352Y028386D01*
X041281Y028375D01*
X041213Y028353D01*
X041149Y028321D01*
X041091Y028278D01*
X041041Y028228D01*
X040998Y028170D01*
X040966Y028106D01*
X040944Y028038D01*
X040933Y027967D01*
X040933Y027950D01*
X041664Y027950D01*
X041664Y027913D01*
X040933Y027913D01*
X040933Y027895D01*
X040944Y027825D01*
X040966Y027756D01*
X040998Y027693D01*
X041041Y027635D01*
X041091Y027584D01*
X041149Y027542D01*
X041213Y027509D01*
X041281Y027487D01*
X041352Y027476D01*
X041665Y027476D01*
X041665Y027912D01*
X041702Y027912D01*
X041702Y027476D01*
X042014Y027476D01*
X042085Y027487D01*
X042153Y027509D01*
X042282Y027591D02*
X044903Y027591D01*
X044903Y027749D02*
X042397Y027749D01*
X042434Y027908D02*
X044903Y027908D01*
X044903Y028066D02*
X042413Y028066D01*
X042422Y028038D02*
X042400Y028106D01*
X042368Y028170D01*
X042326Y028228D01*
X042275Y028278D01*
X042217Y028321D01*
X042153Y028353D01*
X042085Y028375D01*
X042014Y028386D01*
X041702Y028386D01*
X041702Y027950D01*
X042434Y027950D01*
X042434Y027967D01*
X042422Y028038D01*
X042328Y028225D02*
X044903Y028225D01*
X044903Y028384D02*
X042032Y028384D01*
X041702Y028384D02*
X041665Y028384D01*
X041665Y028225D02*
X041702Y028225D01*
X041702Y028066D02*
X041665Y028066D01*
X041665Y027908D02*
X041702Y027908D01*
X041702Y027749D02*
X041665Y027749D01*
X041665Y027591D02*
X041702Y027591D01*
X041084Y027591D02*
X037673Y027591D01*
X037673Y027749D02*
X040969Y027749D01*
X040933Y027908D02*
X037673Y027908D01*
X037673Y028066D02*
X040953Y028066D01*
X041039Y028225D02*
X037673Y028225D01*
X037673Y028384D02*
X041334Y028384D01*
X040713Y028859D02*
X044903Y028859D01*
X044903Y028701D02*
X037673Y028701D01*
X037673Y028542D02*
X044903Y028542D01*
X044903Y029018D02*
X040875Y029018D01*
X040947Y029176D02*
X044903Y029176D01*
X044903Y029335D02*
X040963Y029335D01*
X040963Y029493D02*
X044900Y029493D01*
X044886Y029652D02*
X040963Y029652D01*
X040963Y029810D02*
X044850Y029810D01*
X044814Y029969D02*
X040963Y029969D01*
X040958Y030128D02*
X044745Y030128D01*
X044669Y030286D02*
X040908Y030286D01*
X040789Y030445D02*
X044561Y030445D01*
X044435Y030603D02*
X029670Y030603D01*
X029662Y030621D02*
X029513Y030770D01*
X029319Y030851D01*
X029108Y030851D01*
X028913Y030770D01*
X028764Y030621D01*
X028683Y030427D01*
X028683Y030216D01*
X028764Y030021D01*
X028913Y029872D01*
X029108Y029791D01*
X029319Y029791D01*
X029513Y029872D01*
X029662Y030021D01*
X029743Y030216D01*
X029743Y030427D01*
X029662Y030621D01*
X029736Y030445D02*
X035077Y030445D01*
X034957Y030286D02*
X029743Y030286D01*
X029707Y030128D02*
X034903Y030128D01*
X034903Y029969D02*
X034225Y029969D01*
X034343Y029851D02*
X034103Y030091D01*
X033933Y030091D01*
X033763Y030091D01*
X033523Y029851D01*
X033523Y029681D01*
X033523Y029511D01*
X033763Y029271D01*
X033933Y029271D01*
X033933Y029681D01*
X033933Y029681D01*
X033523Y029681D01*
X033933Y029681D01*
X033933Y029681D01*
X033933Y029271D01*
X034103Y029271D01*
X034343Y029511D01*
X034343Y029681D01*
X033934Y029681D01*
X033934Y029681D01*
X034343Y029681D01*
X034343Y029851D01*
X034343Y029810D02*
X034903Y029810D01*
X034903Y029652D02*
X034343Y029652D01*
X034325Y029493D02*
X034903Y029493D01*
X034903Y029335D02*
X034167Y029335D01*
X033933Y029335D02*
X033933Y029335D01*
X033933Y029493D02*
X033933Y029493D01*
X033933Y029652D02*
X033933Y029652D01*
X033933Y029682D02*
X033933Y030091D01*
X033933Y029682D01*
X033933Y029682D01*
X033933Y029810D02*
X033933Y029810D01*
X033933Y029969D02*
X033933Y029969D01*
X033641Y029969D02*
X033225Y029969D01*
X033343Y029851D02*
X033103Y030091D01*
X032763Y030091D01*
X032523Y029851D01*
X032523Y029611D01*
X029244Y026331D01*
X029017Y026331D01*
X028783Y026097D01*
X028783Y025766D01*
X029017Y025531D01*
X029349Y025531D01*
X029583Y025766D01*
X029583Y025992D01*
X032863Y029271D01*
X033103Y029271D01*
X033343Y029511D01*
X033343Y029851D01*
X033343Y029810D02*
X033523Y029810D01*
X033523Y029652D02*
X033343Y029652D01*
X033325Y029493D02*
X033541Y029493D01*
X033700Y029335D02*
X033167Y029335D01*
X032933Y029681D02*
X029183Y025931D01*
X028860Y025688D02*
X028515Y025688D01*
X028357Y025847D02*
X028783Y025847D01*
X028783Y026005D02*
X028198Y026005D01*
X028040Y026164D02*
X028850Y026164D01*
X029009Y026322D02*
X027881Y026322D01*
X027723Y026481D02*
X029394Y026481D01*
X029552Y026640D02*
X027564Y026640D01*
X027406Y026798D02*
X029001Y026798D01*
X029017Y026781D02*
X029349Y026781D01*
X029583Y027016D01*
X029583Y027242D01*
X030887Y028545D01*
X030923Y028633D01*
X030923Y028729D01*
X030923Y029341D01*
X031093Y029511D01*
X031093Y029851D01*
X030853Y030091D01*
X030513Y030091D01*
X030273Y029851D01*
X030273Y029511D01*
X030443Y029341D01*
X030443Y028781D01*
X029244Y027581D01*
X029017Y027581D01*
X028783Y027347D01*
X028783Y027016D01*
X029017Y026781D01*
X028842Y026957D02*
X027247Y026957D01*
X027089Y027115D02*
X028783Y027115D01*
X028783Y027274D02*
X026930Y027274D01*
X026771Y027432D02*
X028869Y027432D01*
X029183Y027181D02*
X030683Y028681D01*
X030683Y029681D01*
X030391Y029969D02*
X029610Y029969D01*
X029365Y029810D02*
X030273Y029810D01*
X030273Y029652D02*
X024552Y029652D01*
X024710Y029493D02*
X030291Y029493D01*
X030443Y029335D02*
X024869Y029335D01*
X025027Y029176D02*
X030443Y029176D01*
X030443Y029018D02*
X029448Y029018D01*
X029513Y028990D02*
X029319Y029071D01*
X029108Y029071D01*
X028913Y028990D01*
X028764Y028841D01*
X028683Y028647D01*
X028683Y028436D01*
X028764Y028241D01*
X028913Y028092D01*
X029108Y028011D01*
X029319Y028011D01*
X029513Y028092D01*
X029662Y028241D01*
X029743Y028436D01*
X029743Y028647D01*
X029662Y028841D01*
X029513Y028990D01*
X029645Y028859D02*
X030443Y028859D01*
X030363Y028701D02*
X029721Y028701D01*
X029743Y028542D02*
X030205Y028542D01*
X030046Y028384D02*
X029721Y028384D01*
X029646Y028225D02*
X029888Y028225D01*
X029729Y028066D02*
X029452Y028066D01*
X029570Y027908D02*
X026296Y027908D01*
X026375Y028088D02*
X026450Y028050D01*
X026529Y028024D01*
X026611Y028011D01*
X026633Y028011D01*
X026633Y028521D01*
X026673Y028521D01*
X026673Y028011D01*
X026695Y028011D01*
X026777Y028024D01*
X026857Y028050D01*
X026931Y028088D01*
X026998Y028137D01*
X027057Y028196D01*
X027106Y028263D01*
X027144Y028338D01*
X027170Y028417D01*
X027183Y028499D01*
X027183Y028521D01*
X026673Y028521D01*
X026673Y028561D01*
X027183Y028561D01*
X027183Y028583D01*
X027170Y028665D01*
X027144Y028745D01*
X027106Y028819D01*
X027057Y028886D01*
X026998Y028945D01*
X026931Y028994D01*
X026857Y029032D01*
X026777Y029058D01*
X026695Y029071D01*
X026673Y029071D01*
X026673Y028561D01*
X026633Y028561D01*
X026633Y028521D01*
X026123Y028521D01*
X026123Y028499D01*
X026136Y028417D01*
X026162Y028338D01*
X026200Y028263D01*
X026249Y028196D01*
X026308Y028137D01*
X026375Y028088D01*
X026417Y028066D02*
X026137Y028066D01*
X026228Y028225D02*
X025979Y028225D01*
X025820Y028384D02*
X026147Y028384D01*
X026123Y028561D02*
X026633Y028561D01*
X026633Y029071D01*
X026611Y029071D01*
X026529Y029058D01*
X026450Y029032D01*
X026375Y028994D01*
X026308Y028945D01*
X026249Y028886D01*
X026200Y028819D01*
X026162Y028745D01*
X026136Y028665D01*
X026123Y028583D01*
X026123Y028561D01*
X026148Y028701D02*
X025503Y028701D01*
X025345Y028859D02*
X026229Y028859D01*
X026421Y029018D02*
X025186Y029018D01*
X024824Y028701D02*
X024003Y028701D01*
X023845Y028859D02*
X024666Y028859D01*
X024507Y029018D02*
X023686Y029018D01*
X023527Y029176D02*
X024349Y029176D01*
X024190Y029335D02*
X023369Y029335D01*
X023210Y029493D02*
X024032Y029493D01*
X023873Y029652D02*
X023052Y029652D01*
X022893Y029810D02*
X023714Y029810D01*
X023556Y029969D02*
X022735Y029969D01*
X022709Y030128D02*
X023157Y030128D01*
X023023Y030286D02*
X022843Y030286D01*
X022843Y030445D02*
X023023Y030445D01*
X023025Y030603D02*
X022841Y030603D01*
X022682Y030762D02*
X023184Y030762D01*
X023433Y030431D02*
X029183Y024681D01*
X028816Y024579D02*
X025875Y024579D01*
X025717Y024737D02*
X028788Y024737D01*
X028629Y024896D02*
X025558Y024896D01*
X025400Y025054D02*
X028471Y025054D01*
X028312Y025213D02*
X025241Y025213D01*
X025082Y025371D02*
X028154Y025371D01*
X027995Y025530D02*
X024924Y025530D01*
X025017Y025531D02*
X025349Y025531D01*
X025583Y025766D01*
X025583Y026097D01*
X025349Y026331D01*
X025017Y026331D01*
X024783Y026097D01*
X024783Y025766D01*
X025017Y025531D01*
X024860Y025688D02*
X024765Y025688D01*
X024783Y025847D02*
X024673Y025847D01*
X024673Y026005D02*
X024783Y026005D01*
X024850Y026164D02*
X024673Y026164D01*
X024673Y026322D02*
X025009Y026322D01*
X025357Y026322D02*
X027202Y026322D01*
X027361Y026164D02*
X025516Y026164D01*
X025583Y026005D02*
X027519Y026005D01*
X027678Y025847D02*
X025583Y025847D01*
X025506Y025688D02*
X027837Y025688D01*
X028674Y025530D02*
X030692Y025530D01*
X030534Y025371D02*
X028832Y025371D01*
X028991Y025213D02*
X030375Y025213D01*
X030217Y025054D02*
X029271Y025054D01*
X029503Y024896D02*
X030058Y024896D01*
X029900Y024737D02*
X029561Y024737D01*
X029550Y024579D02*
X029741Y024579D01*
X029683Y024181D02*
X025933Y024181D01*
X024433Y025681D01*
X024433Y027431D01*
X022183Y029681D01*
X020933Y029681D01*
X020652Y029400D01*
X020652Y028762D01*
X020266Y028542D02*
X020249Y028542D01*
X020101Y028384D02*
X020415Y028384D01*
X020087Y027749D02*
X016681Y027749D01*
X016833Y027591D02*
X019929Y027591D01*
X019770Y027432D02*
X016833Y027432D01*
X016833Y027274D02*
X019612Y027274D01*
X018819Y026481D02*
X016699Y026481D01*
X016599Y026581D02*
X016267Y026581D01*
X016033Y026347D01*
X016033Y026016D01*
X016267Y025781D01*
X016599Y025781D01*
X016833Y026016D01*
X016833Y026347D01*
X016599Y026581D01*
X016833Y026322D02*
X018660Y026322D01*
X018502Y026164D02*
X016833Y026164D01*
X016823Y026005D02*
X018343Y026005D01*
X018185Y025847D02*
X016664Y025847D01*
X016202Y025847D02*
X012664Y025847D01*
X012823Y026005D02*
X016043Y026005D01*
X016033Y026164D02*
X012833Y026164D01*
X012833Y026322D02*
X016033Y026322D01*
X016167Y026481D02*
X012699Y026481D01*
X012033Y026322D02*
X011664Y026322D01*
X011505Y026164D02*
X012033Y026164D01*
X012043Y026005D02*
X011347Y026005D01*
X010078Y024737D02*
X012800Y024737D01*
X012716Y024579D02*
X009923Y024579D01*
X009923Y024420D02*
X012693Y024420D01*
X012723Y024261D02*
X009923Y024261D01*
X009923Y024103D02*
X012818Y024103D01*
X013183Y024103D02*
X013183Y024103D01*
X013183Y024261D02*
X013183Y024261D01*
X013183Y024420D02*
X013183Y024420D01*
X013183Y024579D02*
X013183Y024579D01*
X013183Y024737D02*
X013183Y024737D01*
X013632Y023627D02*
X015965Y023627D01*
X015806Y023469D02*
X013673Y023469D01*
X013663Y023310D02*
X015648Y023310D01*
X015489Y023152D02*
X013597Y023152D01*
X013406Y022993D02*
X015331Y022993D01*
X015693Y022676D02*
X044903Y022676D01*
X044903Y022517D02*
X015534Y022517D01*
X015851Y022835D02*
X044903Y022835D01*
X044903Y022993D02*
X016010Y022993D01*
X016168Y023152D02*
X044903Y023152D01*
X044903Y023310D02*
X016327Y023310D01*
X016485Y023469D02*
X044903Y023469D01*
X044903Y023627D02*
X016644Y023627D01*
X017912Y024896D02*
X024879Y024896D01*
X024673Y026481D02*
X027044Y026481D01*
X026885Y026640D02*
X024673Y026640D01*
X024673Y026798D02*
X025001Y026798D01*
X024842Y026957D02*
X024673Y026957D01*
X024673Y027115D02*
X024783Y027115D01*
X024751Y027274D02*
X024673Y027274D01*
X025183Y027181D02*
X022433Y029931D01*
X019433Y029931D01*
X018289Y028787D01*
X018289Y028762D01*
X018140Y029176D02*
X017651Y029176D01*
X017868Y029018D02*
X017923Y029018D01*
X018497Y029335D02*
X006851Y029335D01*
X006917Y029176D02*
X014991Y029176D01*
X015140Y029176D02*
X015140Y029176D01*
X015288Y029176D02*
X015778Y029176D01*
X015561Y029018D02*
X015498Y029018D01*
X015140Y029018D02*
X015140Y029018D01*
X015140Y028859D02*
X015140Y028859D01*
X015140Y028761D02*
X015140Y028322D01*
X015140Y028761D01*
X015140Y028761D01*
X015140Y028701D02*
X015140Y028701D01*
X015140Y028542D02*
X015140Y028542D01*
X015140Y028384D02*
X015140Y028384D01*
X015366Y028384D02*
X015691Y028384D01*
X015542Y028542D02*
X015522Y028542D01*
X014913Y028384D02*
X006987Y028384D01*
X006920Y028542D02*
X014758Y028542D01*
X014704Y028701D02*
X006920Y028701D01*
X006920Y028859D02*
X014710Y028859D01*
X014782Y029018D02*
X006920Y029018D01*
X006715Y029493D02*
X018656Y029493D01*
X018814Y029652D02*
X000980Y029652D01*
X001017Y029810D02*
X018973Y029810D01*
X019132Y029969D02*
X001053Y029969D01*
X001121Y030128D02*
X013157Y030128D01*
X013263Y030021D02*
X013603Y030021D01*
X013843Y030261D01*
X013843Y030601D01*
X013603Y030841D01*
X013263Y030841D01*
X013023Y030601D01*
X013023Y030261D01*
X013263Y030021D01*
X013023Y030286D02*
X001198Y030286D01*
X001305Y030445D02*
X013023Y030445D01*
X013025Y030603D02*
X001432Y030603D01*
X001610Y030762D02*
X013184Y030762D01*
X013682Y030762D02*
X014184Y030762D01*
X014263Y030841D02*
X014023Y030601D01*
X014023Y030261D01*
X014263Y030021D01*
X014603Y030021D01*
X014843Y030261D01*
X014843Y030601D01*
X014603Y030841D01*
X014263Y030841D01*
X014025Y030603D02*
X013841Y030603D01*
X013843Y030445D02*
X014023Y030445D01*
X014023Y030286D02*
X013843Y030286D01*
X013709Y030128D02*
X014157Y030128D01*
X014709Y030128D02*
X015157Y030128D01*
X015263Y030021D02*
X015603Y030021D01*
X015843Y030261D01*
X015843Y030601D01*
X015603Y030841D01*
X015263Y030841D01*
X015023Y030601D01*
X015023Y030261D01*
X015263Y030021D01*
X015023Y030286D02*
X014843Y030286D01*
X014843Y030445D02*
X015023Y030445D01*
X015025Y030603D02*
X014841Y030603D01*
X014682Y030762D02*
X015184Y030762D01*
X015682Y030762D02*
X016184Y030762D01*
X016263Y030841D02*
X016023Y030601D01*
X016023Y030261D01*
X016263Y030021D01*
X016603Y030021D01*
X016843Y030261D01*
X016843Y030601D01*
X016603Y030841D01*
X016263Y030841D01*
X016025Y030603D02*
X015841Y030603D01*
X015843Y030445D02*
X016023Y030445D01*
X016023Y030286D02*
X015843Y030286D01*
X015709Y030128D02*
X016157Y030128D01*
X016709Y030128D02*
X017157Y030128D01*
X017263Y030021D02*
X017603Y030021D01*
X017843Y030261D01*
X017843Y030601D01*
X017603Y030841D01*
X017263Y030841D01*
X017023Y030601D01*
X017023Y030261D01*
X017263Y030021D01*
X017023Y030286D02*
X016843Y030286D01*
X016843Y030445D02*
X017023Y030445D01*
X017025Y030603D02*
X016841Y030603D01*
X016682Y030762D02*
X017184Y030762D01*
X017682Y030762D02*
X018184Y030762D01*
X018263Y030841D02*
X018023Y030601D01*
X018023Y030261D01*
X018263Y030021D01*
X018603Y030021D01*
X018843Y030261D01*
X018843Y030601D01*
X018603Y030841D01*
X018263Y030841D01*
X018025Y030603D02*
X017841Y030603D01*
X017843Y030445D02*
X018023Y030445D01*
X018023Y030286D02*
X017843Y030286D01*
X017709Y030128D02*
X018157Y030128D01*
X018709Y030128D02*
X019290Y030128D01*
X018843Y030286D02*
X020023Y030286D01*
X020023Y030445D02*
X018843Y030445D01*
X018841Y030603D02*
X020025Y030603D01*
X020184Y030762D02*
X018682Y030762D01*
X020682Y030762D02*
X021184Y030762D01*
X021025Y030603D02*
X020841Y030603D01*
X020843Y030445D02*
X021023Y030445D01*
X021023Y030431D02*
X021433Y030431D01*
X021023Y030431D01*
X021023Y030286D02*
X020843Y030286D01*
X021433Y030431D02*
X021433Y030431D01*
X021433Y030432D02*
X021433Y030841D01*
X021433Y030432D01*
X021433Y030432D01*
X021433Y030445D02*
X021433Y030445D01*
X021433Y030603D02*
X021433Y030603D01*
X021433Y030762D02*
X021433Y030762D01*
X021682Y030762D02*
X022184Y030762D01*
X022025Y030603D02*
X021841Y030603D01*
X021843Y030445D02*
X022023Y030445D01*
X022023Y030431D02*
X022433Y030431D01*
X022023Y030431D01*
X022023Y030286D02*
X021843Y030286D01*
X022433Y030431D02*
X022433Y030431D01*
X022433Y030432D02*
X022433Y030841D01*
X022433Y030432D01*
X022433Y030432D01*
X022433Y030445D02*
X022433Y030445D01*
X022433Y030603D02*
X022433Y030603D01*
X022433Y030762D02*
X022433Y030762D01*
X023682Y030762D02*
X024184Y030762D01*
X024263Y030841D02*
X024023Y030601D01*
X024023Y030261D01*
X024263Y030021D01*
X024603Y030021D01*
X024843Y030261D01*
X024843Y030601D01*
X024603Y030841D01*
X024263Y030841D01*
X024025Y030603D02*
X023841Y030603D01*
X023843Y030445D02*
X024023Y030445D01*
X024023Y030286D02*
X023918Y030286D01*
X024076Y030128D02*
X024157Y030128D01*
X024235Y029969D02*
X026256Y029969D01*
X026204Y030021D02*
X026353Y029872D01*
X026548Y029791D01*
X026759Y029791D01*
X026953Y029872D01*
X027102Y030021D01*
X027183Y030216D01*
X027183Y030427D01*
X027102Y030621D01*
X026953Y030770D01*
X026759Y030851D01*
X026548Y030851D01*
X026353Y030770D01*
X026204Y030621D01*
X026123Y030427D01*
X026123Y030216D01*
X026204Y030021D01*
X026160Y030128D02*
X025709Y030128D01*
X025603Y030021D02*
X025843Y030261D01*
X025843Y030601D01*
X025603Y030841D01*
X025263Y030841D01*
X025023Y030601D01*
X025023Y030261D01*
X025263Y030021D01*
X025603Y030021D01*
X025843Y030286D02*
X026123Y030286D01*
X026131Y030445D02*
X025843Y030445D01*
X025841Y030603D02*
X026196Y030603D01*
X026344Y030762D02*
X025682Y030762D01*
X025184Y030762D02*
X024682Y030762D01*
X024841Y030603D02*
X025025Y030603D01*
X025023Y030445D02*
X024843Y030445D01*
X024843Y030286D02*
X025023Y030286D01*
X025157Y030128D02*
X024709Y030128D01*
X024393Y029810D02*
X026501Y029810D01*
X026805Y029810D02*
X029061Y029810D01*
X028816Y029969D02*
X027050Y029969D01*
X027147Y030128D02*
X028720Y030128D01*
X028683Y030286D02*
X027183Y030286D01*
X027176Y030445D02*
X028691Y030445D01*
X028756Y030603D02*
X027110Y030603D01*
X026962Y030762D02*
X028904Y030762D01*
X029522Y030762D02*
X044256Y030762D01*
X044030Y030920D02*
X001836Y030920D01*
X002221Y031079D02*
X043645Y031079D01*
X040453Y030445D02*
X040413Y030445D01*
X040413Y030286D02*
X040453Y030286D01*
X040453Y030128D02*
X040413Y030128D01*
X040413Y029969D02*
X040453Y029969D01*
X040453Y029810D02*
X040413Y029810D01*
X040413Y029652D02*
X040453Y029652D01*
X040453Y029493D02*
X040413Y029493D01*
X040413Y029335D02*
X040453Y029335D01*
X040453Y029176D02*
X040413Y029176D01*
X040413Y029018D02*
X040453Y029018D01*
X040453Y028859D02*
X040413Y028859D01*
X040154Y028859D02*
X039713Y028859D01*
X039875Y029018D02*
X039991Y029018D01*
X039453Y029018D02*
X039413Y029018D01*
X039413Y029176D02*
X039453Y029176D01*
X039453Y029335D02*
X039413Y029335D01*
X039413Y029493D02*
X039453Y029493D01*
X039453Y029652D02*
X039413Y029652D01*
X039413Y029810D02*
X039453Y029810D01*
X039453Y029969D02*
X039413Y029969D01*
X039413Y030128D02*
X039453Y030128D01*
X039453Y030286D02*
X039413Y030286D01*
X039413Y030445D02*
X039453Y030445D01*
X039789Y030445D02*
X040077Y030445D01*
X039958Y030286D02*
X039908Y030286D01*
X039077Y030445D02*
X038789Y030445D01*
X038910Y030286D02*
X038958Y030286D01*
X038077Y030445D02*
X037789Y030445D01*
X037909Y030286D02*
X037957Y030286D01*
X037433Y029681D02*
X037433Y027181D01*
X037683Y026931D01*
X041683Y026931D01*
X041285Y026481D02*
X030072Y026481D01*
X029914Y026322D02*
X041143Y026322D01*
X041036Y026640D02*
X030231Y026640D01*
X030389Y026798D02*
X037477Y026798D01*
X037318Y026957D02*
X030548Y026957D01*
X030707Y027115D02*
X037201Y027115D01*
X037193Y027274D02*
X030865Y027274D01*
X031024Y027432D02*
X037193Y027432D01*
X037193Y027591D02*
X035658Y027591D01*
X035599Y027531D02*
X035833Y027765D01*
X035833Y028097D01*
X035599Y028331D01*
X035267Y028331D01*
X035033Y028097D01*
X035033Y027765D01*
X035267Y027531D01*
X035599Y027531D01*
X035817Y027749D02*
X037193Y027749D01*
X037193Y027908D02*
X035833Y027908D01*
X035833Y028066D02*
X037193Y028066D01*
X037193Y028225D02*
X035705Y028225D01*
X035161Y028225D02*
X033705Y028225D01*
X033599Y028331D02*
X033833Y028097D01*
X033833Y027765D01*
X033599Y027531D01*
X033267Y027531D01*
X033033Y027765D01*
X033033Y028097D01*
X033267Y028331D01*
X033599Y028331D01*
X033833Y028066D02*
X035033Y028066D01*
X035033Y027908D02*
X033833Y027908D01*
X033817Y027749D02*
X035049Y027749D01*
X035208Y027591D02*
X033658Y027591D01*
X033208Y027591D02*
X031182Y027591D01*
X031341Y027749D02*
X033049Y027749D01*
X033033Y027908D02*
X031499Y027908D01*
X031658Y028066D02*
X033033Y028066D01*
X033161Y028225D02*
X031816Y028225D01*
X031975Y028384D02*
X037193Y028384D01*
X037193Y028542D02*
X032133Y028542D01*
X032292Y028701D02*
X037193Y028701D01*
X037139Y028859D02*
X036727Y028859D01*
X036885Y029018D02*
X036981Y029018D01*
X037727Y028859D02*
X038139Y028859D01*
X037981Y029018D02*
X037885Y029018D01*
X038727Y028859D02*
X039154Y028859D01*
X038991Y029018D02*
X038885Y029018D01*
X039413Y028859D02*
X039453Y028859D01*
X037673Y027432D02*
X044903Y027432D01*
X041087Y027274D02*
X037680Y027274D01*
X036139Y028859D02*
X035727Y028859D01*
X035885Y029018D02*
X035981Y029018D01*
X035139Y028859D02*
X032451Y028859D01*
X032609Y029018D02*
X034981Y029018D01*
X034915Y029176D02*
X032768Y029176D01*
X032406Y029493D02*
X032075Y029493D01*
X032093Y029511D02*
X032093Y029681D01*
X031684Y029681D01*
X031684Y029681D01*
X032093Y029681D01*
X032093Y029851D01*
X031853Y030091D01*
X031683Y030091D01*
X031513Y030091D01*
X031273Y029851D01*
X031273Y029681D01*
X031273Y029511D01*
X031513Y029271D01*
X031683Y029271D01*
X031683Y029681D01*
X031683Y029681D01*
X031273Y029681D01*
X031683Y029681D01*
X031683Y029681D01*
X031683Y029271D01*
X031853Y029271D01*
X032093Y029511D01*
X032093Y029652D02*
X032523Y029652D01*
X032523Y029810D02*
X032093Y029810D01*
X031975Y029969D02*
X032641Y029969D01*
X032247Y029335D02*
X031917Y029335D01*
X031683Y029335D02*
X031683Y029335D01*
X031683Y029493D02*
X031683Y029493D01*
X031683Y029652D02*
X031683Y029652D01*
X031683Y029682D02*
X031683Y030091D01*
X031683Y029682D01*
X031683Y029682D01*
X031683Y029810D02*
X031683Y029810D01*
X031683Y029969D02*
X031683Y029969D01*
X031391Y029969D02*
X030975Y029969D01*
X031093Y029810D02*
X031273Y029810D01*
X031273Y029652D02*
X031093Y029652D01*
X031075Y029493D02*
X031291Y029493D01*
X031450Y029335D02*
X030923Y029335D01*
X030923Y029176D02*
X032089Y029176D01*
X031930Y029018D02*
X030923Y029018D01*
X030923Y028859D02*
X031772Y028859D01*
X031613Y028701D02*
X030923Y028701D01*
X030883Y028542D02*
X031455Y028542D01*
X031296Y028384D02*
X030725Y028384D01*
X030566Y028225D02*
X031138Y028225D01*
X030979Y028066D02*
X030408Y028066D01*
X030249Y027908D02*
X030820Y027908D01*
X030662Y027749D02*
X030091Y027749D01*
X029932Y027591D02*
X030503Y027591D01*
X030345Y027432D02*
X029774Y027432D01*
X029615Y027274D02*
X030186Y027274D01*
X030028Y027115D02*
X029583Y027115D01*
X029524Y026957D02*
X029869Y026957D01*
X029711Y026798D02*
X029366Y026798D01*
X029755Y026164D02*
X031368Y026164D01*
X031168Y026005D02*
X029597Y026005D01*
X029583Y025847D02*
X031009Y025847D01*
X030851Y025688D02*
X029506Y025688D01*
X030261Y024420D02*
X044903Y024420D01*
X044903Y024261D02*
X030103Y024261D01*
X029944Y024103D02*
X044903Y024103D01*
X044903Y022359D02*
X010923Y022359D01*
X011093Y022200D02*
X044903Y022200D01*
X044903Y022042D02*
X011162Y022042D01*
X011172Y021883D02*
X044903Y021883D01*
X044903Y021725D02*
X011128Y021725D01*
X011011Y021566D02*
X044903Y021566D01*
X044903Y020773D02*
X032406Y020773D01*
X032349Y020831D02*
X032017Y020831D01*
X031783Y020597D01*
X031783Y020266D01*
X032017Y020031D01*
X032349Y020031D01*
X032583Y020266D01*
X032583Y020597D01*
X032349Y020831D01*
X032565Y020615D02*
X044903Y020615D01*
X044903Y020456D02*
X032583Y020456D01*
X032583Y020298D02*
X044903Y020298D01*
X044903Y020139D02*
X032457Y020139D01*
X031909Y020139D02*
X030457Y020139D01*
X030349Y020031D02*
X030583Y020266D01*
X030583Y020597D01*
X030349Y020831D01*
X030017Y020831D01*
X029783Y020597D01*
X029783Y020266D01*
X030017Y020031D01*
X030349Y020031D01*
X030583Y020298D02*
X031783Y020298D01*
X031783Y020456D02*
X030583Y020456D01*
X030565Y020615D02*
X031801Y020615D01*
X031960Y020773D02*
X030406Y020773D01*
X029960Y020773D02*
X011148Y020773D01*
X011060Y020615D02*
X029801Y020615D01*
X029783Y020456D02*
X022493Y020456D01*
X022476Y020473D02*
X022314Y020540D01*
X022139Y020540D01*
X021977Y020473D01*
X021853Y020350D01*
X021833Y020300D01*
X021812Y020350D01*
X021688Y020473D01*
X021527Y020540D01*
X021351Y020540D01*
X021190Y020473D01*
X021066Y020350D01*
X021045Y020300D01*
X021025Y020350D01*
X020901Y020473D01*
X020739Y020540D01*
X020564Y020540D01*
X020402Y020473D01*
X020279Y020350D01*
X020258Y020300D01*
X020237Y020350D01*
X020113Y020473D01*
X019952Y020540D01*
X019777Y020540D01*
X019615Y020473D01*
X019491Y020350D01*
X019471Y020300D01*
X019450Y020350D01*
X019326Y020473D01*
X019164Y020540D01*
X018989Y020540D01*
X018828Y020473D01*
X018704Y020350D01*
X018683Y020300D01*
X018662Y020350D01*
X018539Y020473D01*
X018377Y020540D01*
X018202Y020540D01*
X018040Y020473D01*
X017916Y020350D01*
X017896Y020300D01*
X017875Y020350D01*
X017751Y020473D01*
X017590Y020540D01*
X017414Y020540D01*
X017253Y020473D01*
X017129Y020350D01*
X017108Y020300D01*
X017088Y020350D01*
X016964Y020473D01*
X016802Y020540D01*
X016627Y020540D01*
X016465Y020473D01*
X016342Y020350D01*
X016321Y020300D01*
X016300Y020350D01*
X016176Y020473D01*
X016015Y020540D01*
X015840Y020540D01*
X015678Y020473D01*
X015554Y020350D01*
X015534Y020300D01*
X015513Y020350D01*
X015389Y020473D01*
X015227Y020540D01*
X015052Y020540D01*
X014891Y020473D01*
X014767Y020350D01*
X014700Y020188D01*
X014700Y020013D01*
X014767Y019851D01*
X014891Y019727D01*
X015052Y019660D01*
X015227Y019660D01*
X015389Y019727D01*
X015513Y019851D01*
X015534Y019901D01*
X015554Y019851D01*
X015678Y019727D01*
X015840Y019660D01*
X016015Y019660D01*
X016176Y019727D01*
X016300Y019851D01*
X016321Y019901D01*
X016342Y019851D01*
X016465Y019727D01*
X016627Y019660D01*
X016802Y019660D01*
X016964Y019727D01*
X017088Y019851D01*
X017108Y019901D01*
X017129Y019851D01*
X017253Y019727D01*
X017414Y019660D01*
X017590Y019660D01*
X017751Y019727D01*
X017875Y019851D01*
X017896Y019901D01*
X017916Y019851D01*
X018040Y019727D01*
X018202Y019660D01*
X018377Y019660D01*
X018539Y019727D01*
X018662Y019851D01*
X018683Y019901D01*
X018704Y019851D01*
X018828Y019727D01*
X018989Y019660D01*
X019164Y019660D01*
X019326Y019727D01*
X019450Y019851D01*
X019471Y019901D01*
X019491Y019851D01*
X019615Y019727D01*
X019777Y019660D01*
X019952Y019660D01*
X020113Y019727D01*
X020237Y019851D01*
X020258Y019901D01*
X020279Y019851D01*
X020402Y019727D01*
X020564Y019660D01*
X020739Y019660D01*
X020901Y019727D01*
X021025Y019851D01*
X021045Y019901D01*
X021066Y019851D01*
X021190Y019727D01*
X021351Y019660D01*
X021527Y019660D01*
X021688Y019727D01*
X021812Y019851D01*
X021833Y019901D01*
X021853Y019851D01*
X021977Y019727D01*
X022139Y019660D01*
X022314Y019660D01*
X022476Y019727D01*
X022599Y019851D01*
X022666Y020013D01*
X022666Y020188D01*
X022599Y020350D01*
X022476Y020473D01*
X022621Y020298D02*
X029783Y020298D01*
X029909Y020139D02*
X022666Y020139D01*
X022653Y019981D02*
X024667Y019981D01*
X024767Y020081D02*
X024533Y019847D01*
X024533Y019516D01*
X024767Y019281D01*
X025099Y019281D01*
X025333Y019516D01*
X025333Y019847D01*
X025099Y020081D01*
X024767Y020081D01*
X024533Y019822D02*
X022570Y019822D01*
X022322Y019664D02*
X024533Y019664D01*
X024544Y019505D02*
X009199Y019505D01*
X009042Y019664D02*
X015045Y019664D01*
X015235Y019664D02*
X015832Y019664D01*
X016022Y019664D02*
X016619Y019664D01*
X016810Y019664D02*
X017407Y019664D01*
X017597Y019664D02*
X018194Y019664D01*
X018385Y019664D02*
X018982Y019664D01*
X019172Y019664D02*
X019769Y019664D01*
X019959Y019664D02*
X020556Y019664D01*
X020747Y019664D02*
X021344Y019664D01*
X021534Y019664D02*
X022131Y019664D01*
X021882Y019822D02*
X021783Y019822D01*
X021705Y020456D02*
X021960Y020456D01*
X021173Y020456D02*
X020918Y020456D01*
X020385Y020456D02*
X020131Y020456D01*
X019598Y020456D02*
X019343Y020456D01*
X018811Y020456D02*
X018556Y020456D01*
X018023Y020456D02*
X017768Y020456D01*
X017236Y020456D02*
X016981Y020456D01*
X016448Y020456D02*
X016194Y020456D01*
X015661Y020456D02*
X015406Y020456D01*
X014874Y020456D02*
X010817Y020456D01*
X010549Y020456D02*
X009798Y020456D01*
X009639Y020298D02*
X014745Y020298D01*
X014700Y020139D02*
X009481Y020139D01*
X009322Y019981D02*
X014713Y019981D01*
X014796Y019822D02*
X009164Y019822D01*
X008802Y020139D02*
X006981Y020139D01*
X007139Y020298D02*
X008960Y020298D01*
X009119Y020456D02*
X007298Y020456D01*
X007456Y020615D02*
X007684Y020615D01*
X007933Y020931D02*
X007433Y020931D01*
X004371Y017869D01*
X004371Y013494D01*
X005183Y012681D01*
X010683Y012681D01*
X011183Y013181D01*
X013683Y013181D01*
X014433Y013931D01*
X016933Y013931D01*
X017433Y013431D01*
X019933Y013431D01*
X020433Y012931D01*
X020433Y011431D01*
X020923Y011419D02*
X021693Y011419D01*
X021693Y011261D02*
X020923Y011261D01*
X020797Y011102D02*
X021819Y011102D01*
X021863Y010944D02*
X020639Y010944D01*
X020608Y010785D02*
X017258Y010785D01*
X017230Y010941D02*
X016943Y011228D01*
X016943Y011634D01*
X017230Y011921D01*
X017636Y011921D01*
X017923Y011634D01*
X017923Y011228D01*
X017636Y010941D01*
X017230Y010941D01*
X017228Y010944D02*
X016639Y010944D01*
X016608Y010785D02*
X016258Y010785D01*
X016228Y010944D02*
X016023Y010944D01*
X016413Y010627D02*
X016453Y010627D01*
X016453Y010468D02*
X016413Y010468D01*
X016413Y010310D02*
X016453Y010310D01*
X016534Y010151D02*
X016332Y010151D01*
X017332Y010151D02*
X020534Y010151D01*
X020453Y010310D02*
X017413Y010310D01*
X017413Y010468D02*
X020453Y010468D01*
X020453Y010627D02*
X017413Y010627D01*
X017639Y010944D02*
X018228Y010944D01*
X018069Y011102D02*
X017797Y011102D01*
X017923Y011261D02*
X017943Y011261D01*
X017943Y011419D02*
X017923Y011419D01*
X017923Y011578D02*
X017943Y011578D01*
X018046Y011736D02*
X017821Y011736D01*
X017662Y011895D02*
X018204Y011895D01*
X018358Y012054D02*
X014508Y012054D01*
X014662Y011895D02*
X015204Y011895D01*
X015046Y011736D02*
X014821Y011736D01*
X014923Y011578D02*
X014943Y011578D01*
X014943Y011419D02*
X014923Y011419D01*
X014923Y011261D02*
X014943Y011261D01*
X015069Y011102D02*
X014797Y011102D01*
X014639Y010944D02*
X015118Y010944D01*
X014960Y010785D02*
X012782Y010785D01*
X012940Y010627D02*
X014801Y010627D01*
X014228Y010944D02*
X013639Y010944D01*
X013797Y011102D02*
X014069Y011102D01*
X013943Y011261D02*
X013923Y011261D01*
X013923Y011419D02*
X013943Y011419D01*
X013943Y011578D02*
X013923Y011578D01*
X013821Y011736D02*
X014046Y011736D01*
X013433Y011431D02*
X012683Y012181D01*
X011183Y012181D01*
X010933Y011931D01*
X004933Y011931D01*
X004183Y012681D01*
X004183Y012681D01*
X003808Y013056D01*
X003808Y013056D01*
X003746Y013119D01*
X003746Y018869D01*
X003433Y019181D01*
X002981Y018681D02*
X003113Y018549D01*
X003113Y014513D01*
X003069Y014590D01*
X003113Y014590D01*
X003069Y014590D02*
X002796Y014819D01*
X002461Y014941D01*
X002339Y014941D01*
X002339Y014941D01*
X002283Y014941D01*
X002282Y014941D01*
X002227Y014941D01*
X002105Y014941D01*
X001770Y014819D01*
X001498Y014590D01*
X001498Y014590D01*
X001498Y014590D01*
X001686Y014749D02*
X000963Y014749D01*
X000963Y014907D02*
X002012Y014907D01*
X002105Y014941D02*
X002105Y014941D01*
X002227Y014941D02*
X002227Y014941D01*
X002461Y014941D02*
X002461Y014941D01*
X002554Y014907D02*
X003113Y014907D01*
X003113Y014749D02*
X002880Y014749D01*
X002796Y014819D02*
X002796Y014819D01*
X003069Y014590D02*
X003069Y014590D01*
X003113Y015066D02*
X000963Y015066D01*
X000963Y015224D02*
X003113Y015224D01*
X003113Y015383D02*
X000963Y015383D01*
X000963Y015542D02*
X001630Y015542D01*
X001730Y015441D02*
X002136Y015441D01*
X002423Y015728D01*
X002423Y016134D01*
X002136Y016421D01*
X001730Y016421D01*
X001443Y016134D01*
X001443Y015728D01*
X001730Y015441D01*
X001471Y015700D02*
X000963Y015700D01*
X000963Y015859D02*
X001443Y015859D01*
X001443Y016017D02*
X000963Y016017D01*
X000963Y016176D02*
X001485Y016176D01*
X001643Y016334D02*
X000963Y016334D01*
X000963Y016493D02*
X001679Y016493D01*
X001730Y016441D02*
X002136Y016441D01*
X002423Y016728D01*
X002423Y017134D01*
X002136Y017421D01*
X001730Y017421D01*
X001443Y017134D01*
X001443Y016728D01*
X001730Y016441D01*
X001520Y016651D02*
X000963Y016651D01*
X000963Y016810D02*
X001443Y016810D01*
X001443Y016968D02*
X000963Y016968D01*
X000963Y017127D02*
X001443Y017127D01*
X001595Y017286D02*
X000963Y017286D01*
X000963Y017444D02*
X001727Y017444D01*
X001730Y017441D02*
X002136Y017441D01*
X002423Y017728D01*
X002423Y018134D01*
X002136Y018421D01*
X001730Y018421D01*
X001443Y018134D01*
X001443Y017728D01*
X001730Y017441D01*
X001569Y017603D02*
X000963Y017603D01*
X000963Y017761D02*
X001443Y017761D01*
X001443Y017920D02*
X000963Y017920D01*
X000963Y018078D02*
X001443Y018078D01*
X001546Y018237D02*
X000963Y018237D01*
X000963Y018395D02*
X001704Y018395D01*
X001730Y018441D02*
X002136Y018441D01*
X002376Y018681D01*
X002981Y018681D01*
X003108Y018554D02*
X002249Y018554D01*
X002162Y018395D02*
X003113Y018395D01*
X003113Y018237D02*
X002320Y018237D01*
X002423Y018078D02*
X003113Y018078D01*
X003113Y017920D02*
X002423Y017920D01*
X002423Y017761D02*
X003113Y017761D01*
X003113Y017603D02*
X002297Y017603D01*
X002139Y017444D02*
X003113Y017444D01*
X003113Y017286D02*
X002272Y017286D01*
X002423Y017127D02*
X003113Y017127D01*
X003113Y016968D02*
X002423Y016968D01*
X002423Y016810D02*
X003113Y016810D01*
X003113Y016651D02*
X002346Y016651D01*
X002188Y016493D02*
X003113Y016493D01*
X003113Y016334D02*
X002223Y016334D01*
X002381Y016176D02*
X003113Y016176D01*
X003113Y016017D02*
X002423Y016017D01*
X002423Y015859D02*
X003113Y015859D01*
X003113Y015700D02*
X002395Y015700D01*
X002236Y015542D02*
X003113Y015542D01*
X001770Y014819D02*
X001770Y014819D01*
X003098Y013322D02*
X003113Y013322D01*
X003113Y013163D02*
X002939Y013163D01*
X003113Y013005D02*
X002691Y013005D01*
X003746Y013119D02*
X003808Y013056D01*
X003746Y013119D02*
X003746Y013119D01*
X004683Y013681D02*
X004683Y016806D01*
X006558Y018681D01*
X007683Y018681D01*
X008683Y019681D01*
X008354Y019822D02*
X008333Y019822D01*
X008199Y019981D02*
X008476Y019981D01*
X008183Y020615D02*
X009277Y020615D01*
X009436Y020773D02*
X008333Y020773D01*
X008333Y020932D02*
X009595Y020932D01*
X009753Y021091D02*
X008333Y021091D01*
X008181Y021249D02*
X010308Y021249D01*
X010553Y021408D02*
X006999Y021408D01*
X007158Y021566D02*
X010355Y021566D01*
X010306Y020615D02*
X009956Y020615D01*
X009357Y019347D02*
X024702Y019347D01*
X025164Y019347D02*
X028259Y019347D01*
X028418Y019505D02*
X025323Y019505D01*
X025333Y019664D02*
X028533Y019664D01*
X028533Y019822D02*
X025333Y019822D01*
X025199Y019981D02*
X028667Y019981D01*
X028933Y019681D02*
X029933Y018681D01*
X029933Y015931D01*
X029728Y015542D02*
X029502Y015542D01*
X029554Y015700D02*
X028655Y015700D01*
X028813Y015859D02*
X029495Y015859D01*
X029495Y016017D02*
X028972Y016017D01*
X029130Y016176D02*
X029560Y016176D01*
X029515Y016334D02*
X029613Y016334D01*
X030253Y016334D02*
X032011Y016334D01*
X031810Y016176D02*
X030306Y016176D01*
X030372Y016017D02*
X031745Y016017D01*
X031745Y015859D02*
X030372Y015859D01*
X030312Y015700D02*
X031804Y015700D01*
X031978Y015542D02*
X030138Y015542D01*
X030253Y016493D02*
X032703Y016493D01*
X032703Y016651D02*
X030253Y016651D01*
X030253Y016810D02*
X032703Y016810D01*
X032792Y016968D02*
X030253Y016968D01*
X028950Y017127D02*
X028808Y017127D01*
X028792Y016968D02*
X028649Y016968D01*
X028703Y016810D02*
X028163Y016810D01*
X028163Y016968D02*
X028217Y016968D01*
X028082Y016651D02*
X028701Y016651D01*
X028542Y016493D02*
X027924Y016493D01*
X028225Y016176D02*
X026253Y016176D01*
X026253Y016334D02*
X028384Y016334D01*
X028067Y016017D02*
X026253Y016017D01*
X026253Y015859D02*
X027908Y015859D01*
X027750Y015700D02*
X026253Y015700D01*
X026222Y015542D02*
X027591Y015542D01*
X027432Y015383D02*
X026087Y015383D01*
X025929Y015224D02*
X027274Y015224D01*
X027115Y015066D02*
X026217Y015066D01*
X026355Y014907D02*
X026957Y014907D01*
X027386Y014432D02*
X028385Y014432D01*
X028370Y014590D02*
X027545Y014590D01*
X027703Y014749D02*
X028413Y014749D01*
X028539Y014907D02*
X027862Y014907D01*
X028020Y015066D02*
X028703Y015066D01*
X028703Y015224D02*
X028179Y015224D01*
X028337Y015383D02*
X028706Y015383D01*
X028865Y015542D02*
X028496Y015542D01*
X028808Y014556D02*
X030808Y014556D01*
X035558Y009806D01*
X041308Y009806D01*
X041683Y010181D01*
X041683Y010431D01*
X040683Y011431D01*
X040683Y015681D01*
X041683Y016681D01*
X042015Y016334D02*
X042685Y016334D01*
X042658Y016181D02*
X042658Y016181D01*
X042659Y016176D02*
X041630Y016176D01*
X041472Y016017D02*
X042686Y016017D01*
X042714Y015859D02*
X041313Y015859D01*
X041155Y015700D02*
X042795Y015700D01*
X042719Y015830D02*
X042719Y015830D01*
X042886Y015542D02*
X042002Y015542D01*
X042160Y015383D02*
X043063Y015383D01*
X042898Y015522D02*
X042898Y015522D01*
X042713Y016493D02*
X042163Y016493D01*
X042163Y016651D02*
X042788Y016651D01*
X042719Y016532D02*
X042719Y016532D01*
X042880Y016810D02*
X042163Y016810D01*
X042075Y016968D02*
X043050Y016968D01*
X043170Y017069D02*
X043170Y017069D01*
X043329Y017127D02*
X041916Y017127D01*
X041450Y017127D02*
X039690Y017127D01*
X039848Y016968D02*
X041292Y016968D01*
X041203Y016810D02*
X040007Y016810D01*
X040166Y016651D02*
X041201Y016651D01*
X041042Y016493D02*
X040253Y016493D01*
X040253Y016334D02*
X040884Y016334D01*
X040725Y016176D02*
X040253Y016176D01*
X040253Y016017D02*
X040567Y016017D01*
X040410Y015859D02*
X040253Y015859D01*
X040253Y015700D02*
X040363Y015700D01*
X040363Y015542D02*
X040253Y015542D01*
X040253Y015383D02*
X040363Y015383D01*
X040363Y015224D02*
X040253Y015224D01*
X040253Y015066D02*
X040363Y015066D01*
X040363Y014907D02*
X040253Y014907D01*
X040253Y014749D02*
X040363Y014749D01*
X040363Y014590D02*
X040253Y014590D01*
X040253Y014432D02*
X040363Y014432D01*
X040363Y014273D02*
X040253Y014273D01*
X040253Y014115D02*
X040363Y014115D01*
X040363Y013956D02*
X040253Y013956D01*
X040253Y013798D02*
X040363Y013798D01*
X040363Y013639D02*
X040253Y013639D01*
X040253Y013480D02*
X040363Y013480D01*
X040363Y013322D02*
X040253Y013322D01*
X040253Y013163D02*
X040363Y013163D01*
X040363Y013005D02*
X040253Y013005D01*
X040253Y012846D02*
X040363Y012846D01*
X040363Y012688D02*
X040253Y012688D01*
X040253Y012529D02*
X040363Y012529D01*
X040363Y012371D02*
X040253Y012371D01*
X040253Y012212D02*
X040363Y012212D01*
X040363Y012054D02*
X040253Y012054D01*
X040253Y011895D02*
X040363Y011895D01*
X040363Y011736D02*
X040307Y011736D01*
X039560Y011736D02*
X038193Y011736D01*
X038333Y011578D02*
X039453Y011578D01*
X039453Y011419D02*
X038333Y011419D01*
X038328Y011261D02*
X039453Y011261D01*
X040283Y011102D02*
X040559Y011102D01*
X040718Y010944D02*
X034873Y010944D01*
X035032Y010785D02*
X035608Y010785D01*
X035453Y010627D02*
X035190Y010627D01*
X035349Y010468D02*
X035453Y010468D01*
X034919Y009993D02*
X032173Y009993D01*
X032332Y010151D02*
X034761Y010151D01*
X034602Y010310D02*
X032413Y010310D01*
X032413Y010468D02*
X034444Y010468D01*
X034285Y010627D02*
X032413Y010627D01*
X032258Y010785D02*
X034126Y010785D01*
X033968Y010944D02*
X031253Y010944D01*
X031253Y011102D02*
X032696Y011102D01*
X032538Y011261D02*
X031253Y011261D01*
X031253Y011419D02*
X032533Y011419D01*
X032533Y011578D02*
X031253Y011578D01*
X031253Y011736D02*
X032673Y011736D01*
X032933Y011736D02*
X032933Y011736D01*
X032933Y011831D02*
X032933Y011432D01*
X032933Y011432D01*
X032933Y011831D01*
X033017Y011895D02*
X031253Y011895D01*
X031253Y012054D02*
X032858Y012054D01*
X032700Y012212D02*
X031253Y012212D01*
X031301Y012371D02*
X032541Y012371D01*
X032383Y012529D02*
X031413Y012529D01*
X031413Y012688D02*
X032224Y012688D01*
X032065Y012846D02*
X031413Y012846D01*
X031288Y013005D02*
X031907Y013005D01*
X031114Y013798D02*
X029583Y013798D01*
X029583Y013956D02*
X030956Y013956D01*
X030797Y014115D02*
X029565Y014115D01*
X028801Y014115D02*
X027005Y014115D01*
X027228Y014273D02*
X028471Y014273D01*
X025933Y013181D02*
X025433Y013681D01*
X025433Y015181D01*
X025933Y015681D01*
X025933Y017431D01*
X026413Y017444D02*
X026718Y017444D01*
X026876Y017286D02*
X026413Y017286D01*
X026413Y017127D02*
X027081Y017127D01*
X027203Y016968D02*
X026360Y016968D01*
X026253Y016810D02*
X027203Y016810D01*
X027284Y016651D02*
X026253Y016651D01*
X026253Y016493D02*
X027443Y016493D01*
X026559Y017603D02*
X026413Y017603D01*
X026183Y018431D02*
X020183Y018431D01*
X019933Y018181D01*
X019933Y017431D01*
X019453Y017444D02*
X019413Y017444D01*
X019413Y017286D02*
X019453Y017286D01*
X019453Y017127D02*
X019413Y017127D01*
X019360Y016968D02*
X019506Y016968D01*
X019636Y016810D02*
X019231Y016810D01*
X018636Y016810D02*
X018163Y016810D01*
X018075Y016968D02*
X018506Y016968D01*
X018933Y017431D02*
X018933Y018181D01*
X019683Y018931D01*
X028183Y018931D01*
X028933Y019681D01*
X029333Y019664D02*
X044903Y019664D01*
X044903Y019822D02*
X029333Y019822D01*
X029199Y019981D02*
X044903Y019981D01*
X044903Y019505D02*
X032425Y019505D01*
X032583Y019347D02*
X044903Y019347D01*
X044903Y019188D02*
X032583Y019188D01*
X031941Y019505D02*
X030425Y019505D01*
X030583Y019347D02*
X031783Y019347D01*
X031783Y019188D02*
X030583Y019188D01*
X029941Y019505D02*
X029449Y019505D01*
X029607Y019347D02*
X029783Y019347D01*
X029766Y019188D02*
X029783Y019188D01*
X030253Y018554D02*
X034759Y018554D01*
X035183Y018431D02*
X036433Y018431D01*
X037433Y017431D01*
X038933Y017431D01*
X037898Y018395D02*
X044903Y018395D01*
X044903Y018237D02*
X041943Y018237D01*
X042083Y018078D02*
X044903Y018078D01*
X044903Y017920D02*
X042083Y017920D01*
X042079Y017761D02*
X044903Y017761D01*
X044903Y018554D02*
X036763Y018554D01*
X036922Y018395D02*
X037469Y018395D01*
X037310Y018237D02*
X037080Y018237D01*
X034752Y017952D02*
X034752Y017952D01*
X034719Y017920D02*
X033663Y017920D01*
X033663Y017761D02*
X034620Y017761D01*
X034613Y017603D02*
X033533Y017603D01*
X033416Y017127D02*
X034613Y017127D01*
X034613Y016968D02*
X033575Y016968D01*
X033663Y016810D02*
X034613Y016810D01*
X034613Y016651D02*
X033663Y016651D01*
X033663Y016493D02*
X034613Y016493D01*
X034613Y016334D02*
X033515Y016334D01*
X032851Y016334D02*
X032356Y016334D01*
X032556Y016176D02*
X034613Y016176D01*
X034613Y016017D02*
X032622Y016017D01*
X032622Y015859D02*
X034613Y015859D01*
X037433Y012529D02*
X037433Y012529D01*
X037433Y012371D02*
X037433Y012371D01*
X037533Y011578D02*
X035413Y011578D01*
X035413Y011419D02*
X037533Y011419D01*
X037538Y011261D02*
X035413Y011261D01*
X035283Y011102D02*
X037696Y011102D01*
X037258Y010785D02*
X040608Y010785D01*
X040453Y010627D02*
X037413Y010627D01*
X037413Y010468D02*
X040453Y010468D01*
X040453Y010310D02*
X037413Y010310D01*
X037332Y010151D02*
X040534Y010151D01*
X041413Y009041D02*
X044903Y009041D01*
X044903Y008883D02*
X041313Y008883D01*
X041155Y008724D02*
X044903Y008724D01*
X044903Y008566D02*
X040770Y008566D01*
X040608Y008407D02*
X044903Y008407D01*
X044903Y008249D02*
X041181Y008249D01*
X041099Y008331D02*
X040933Y008331D01*
X040767Y008331D01*
X040533Y008097D01*
X040533Y007931D01*
X040533Y007766D01*
X040767Y007531D01*
X040933Y007531D01*
X040933Y007931D01*
X040933Y007931D01*
X040533Y007931D01*
X040933Y007931D01*
X040933Y007931D01*
X040933Y007531D01*
X041099Y007531D01*
X041333Y007766D01*
X041333Y007931D01*
X040934Y007931D01*
X040934Y007931D01*
X041333Y007931D01*
X041333Y008097D01*
X041099Y008331D01*
X040933Y008331D02*
X040933Y007932D01*
X040933Y008331D01*
X040933Y008249D02*
X040933Y008249D01*
X040933Y008090D02*
X040933Y008090D01*
X040933Y007932D02*
X040933Y007932D01*
X040933Y007773D02*
X040933Y007773D01*
X040933Y007614D02*
X040933Y007614D01*
X040684Y007614D02*
X037295Y007614D01*
X037413Y007773D02*
X040533Y007773D01*
X040533Y007931D02*
X037413Y007931D01*
X037413Y008090D02*
X040533Y008090D01*
X040685Y008249D02*
X037295Y008249D01*
X036572Y008249D02*
X036181Y008249D01*
X036099Y008331D02*
X035933Y008331D01*
X035767Y008331D01*
X035533Y008097D01*
X035533Y007931D01*
X035533Y007766D01*
X035767Y007531D01*
X035933Y007531D01*
X035933Y007931D01*
X035933Y007931D01*
X035533Y007931D01*
X035933Y007931D01*
X035933Y007931D01*
X035933Y007531D01*
X036099Y007531D01*
X036333Y007766D01*
X036333Y007931D01*
X035934Y007931D01*
X035934Y007931D01*
X036333Y007931D01*
X036333Y008097D01*
X036099Y008331D01*
X035933Y008331D02*
X035933Y007932D01*
X035933Y008331D01*
X035933Y008249D02*
X035933Y008249D01*
X035933Y008090D02*
X035933Y008090D01*
X035933Y007932D02*
X035933Y007932D01*
X035933Y007773D02*
X035933Y007773D01*
X035933Y007614D02*
X035933Y007614D01*
X035684Y007614D02*
X032295Y007614D01*
X032413Y007773D02*
X035533Y007773D01*
X035533Y007931D02*
X032413Y007931D01*
X032413Y008090D02*
X035533Y008090D01*
X035685Y008249D02*
X032295Y008249D01*
X031572Y008249D02*
X031181Y008249D01*
X031099Y008331D02*
X030933Y008331D01*
X030767Y008331D01*
X030533Y008097D01*
X030533Y007931D01*
X030533Y007766D01*
X030767Y007531D01*
X030933Y007531D01*
X030933Y007931D01*
X030933Y007931D01*
X030533Y007931D01*
X030933Y007931D01*
X030933Y007931D01*
X030933Y007531D01*
X031099Y007531D01*
X031333Y007766D01*
X031333Y007931D01*
X030934Y007931D01*
X030934Y007931D01*
X031333Y007931D01*
X031333Y008097D01*
X031099Y008331D01*
X030933Y008331D02*
X030933Y007932D01*
X030933Y008331D01*
X030933Y008249D02*
X030933Y008249D01*
X030933Y008090D02*
X030933Y008090D01*
X030933Y007932D02*
X030933Y007932D01*
X030933Y007773D02*
X030933Y007773D01*
X030933Y007614D02*
X030933Y007614D01*
X030684Y007614D02*
X027295Y007614D01*
X027413Y007773D02*
X030533Y007773D01*
X030533Y007931D02*
X027413Y007931D01*
X027413Y008090D02*
X030533Y008090D01*
X030685Y008249D02*
X027295Y008249D01*
X026572Y008249D02*
X026181Y008249D01*
X026099Y008331D02*
X026333Y008097D01*
X026333Y007931D01*
X025934Y007931D01*
X025934Y007931D01*
X026333Y007931D01*
X026333Y007766D01*
X026099Y007531D01*
X025933Y007531D01*
X025933Y007931D01*
X025933Y007931D01*
X025533Y007931D01*
X025533Y007766D01*
X025767Y007531D01*
X025933Y007531D01*
X025933Y007931D01*
X025933Y007931D01*
X025533Y007931D01*
X025533Y008097D01*
X025767Y008331D01*
X025933Y008331D01*
X025933Y007932D01*
X025933Y007932D01*
X025933Y008331D01*
X026099Y008331D01*
X026259Y008407D02*
X025608Y008407D01*
X025685Y008249D02*
X022295Y008249D01*
X022413Y008090D02*
X025533Y008090D01*
X025533Y007931D02*
X022413Y007931D01*
X022413Y007773D02*
X025533Y007773D01*
X025684Y007614D02*
X022295Y007614D01*
X022137Y007456D02*
X026730Y007456D01*
X026571Y007614D02*
X026182Y007614D01*
X026333Y007773D02*
X026453Y007773D01*
X026453Y007931D02*
X026333Y007931D01*
X026333Y008090D02*
X026453Y008090D01*
X025933Y008090D02*
X025933Y008090D01*
X025933Y008249D02*
X025933Y008249D01*
X025770Y008566D02*
X026096Y008566D01*
X026413Y009200D02*
X026453Y009200D01*
X026453Y009358D02*
X026413Y009358D01*
X026276Y009517D02*
X026590Y009517D01*
X026380Y009675D02*
X035236Y009675D01*
X035078Y009834D02*
X026539Y009834D01*
X027276Y009517D02*
X030590Y009517D01*
X030453Y009358D02*
X027413Y009358D01*
X027413Y009200D02*
X030453Y009200D01*
X030341Y009041D02*
X027413Y009041D01*
X025933Y007773D02*
X025933Y007773D01*
X025933Y007614D02*
X025933Y007614D01*
X025413Y007130D02*
X025132Y007411D01*
X024734Y007411D01*
X024453Y007130D01*
X024453Y006732D01*
X024734Y006451D01*
X025132Y006451D01*
X025413Y006732D01*
X025413Y007130D01*
X025404Y007139D02*
X027462Y007139D01*
X027453Y007130D02*
X027453Y006732D01*
X027734Y006451D01*
X028132Y006451D01*
X028413Y006732D01*
X028413Y007130D01*
X028132Y007411D01*
X027734Y007411D01*
X027453Y007130D01*
X027453Y006980D02*
X025413Y006980D01*
X025413Y006822D02*
X027453Y006822D01*
X027522Y006663D02*
X025344Y006663D01*
X025185Y006505D02*
X027681Y006505D01*
X028185Y006505D02*
X029681Y006505D01*
X029734Y006451D02*
X030132Y006451D01*
X030413Y006732D01*
X030413Y007130D01*
X030132Y007411D01*
X029734Y007411D01*
X029453Y007130D01*
X029453Y006732D01*
X029734Y006451D01*
X029522Y006663D02*
X028344Y006663D01*
X028413Y006822D02*
X029453Y006822D01*
X029453Y006980D02*
X028413Y006980D01*
X028404Y007139D02*
X029462Y007139D01*
X029620Y007297D02*
X028246Y007297D01*
X027620Y007297D02*
X025246Y007297D01*
X024620Y007297D02*
X023246Y007297D01*
X023132Y007411D02*
X022734Y007411D01*
X022453Y007130D01*
X022453Y006732D01*
X022734Y006451D01*
X023132Y006451D01*
X023413Y006732D01*
X023413Y007130D01*
X023132Y007411D01*
X023404Y007139D02*
X024462Y007139D01*
X024453Y006980D02*
X023413Y006980D01*
X023413Y006822D02*
X024453Y006822D01*
X024522Y006663D02*
X023344Y006663D01*
X023185Y006505D02*
X024681Y006505D01*
X025174Y006187D02*
X021133Y006187D01*
X021044Y006276D02*
X021238Y006082D01*
X021343Y005828D01*
X021343Y005554D01*
X021238Y005300D01*
X021189Y005251D01*
X021559Y005251D01*
X021687Y005251D01*
X021788Y005209D01*
X021866Y005241D01*
X022140Y005241D01*
X022247Y005197D01*
X022252Y005202D01*
X022369Y005251D01*
X025117Y005251D01*
X025068Y005300D01*
X024963Y005554D01*
X024963Y005828D01*
X025068Y006082D01*
X025262Y006276D01*
X025516Y006381D01*
X025790Y006381D01*
X026044Y006276D01*
X026238Y006082D01*
X026343Y005828D01*
X026343Y005554D01*
X026238Y005300D01*
X026189Y005251D01*
X026559Y005251D01*
X026687Y005251D01*
X026788Y005209D01*
X026866Y005241D01*
X027140Y005241D01*
X027247Y005197D01*
X027252Y005202D01*
X027369Y005251D01*
X030117Y005251D01*
X030068Y005300D01*
X029963Y005554D01*
X029963Y005828D01*
X030068Y006082D01*
X030262Y006276D01*
X030516Y006381D01*
X030790Y006381D01*
X031044Y006276D01*
X031238Y006082D01*
X031343Y005828D01*
X031343Y005554D01*
X031238Y005300D01*
X031189Y005251D01*
X031559Y005251D01*
X031687Y005251D01*
X031788Y005209D01*
X031866Y005241D01*
X032140Y005241D01*
X032247Y005197D01*
X032252Y005202D01*
X032369Y005251D01*
X035117Y005251D01*
X035068Y005300D01*
X034963Y005554D01*
X034963Y005828D01*
X035068Y006082D01*
X035262Y006276D01*
X035516Y006381D01*
X035790Y006381D01*
X036044Y006276D01*
X036238Y006082D01*
X036343Y005828D01*
X036343Y005554D01*
X036238Y005300D01*
X036189Y005251D01*
X036559Y005251D01*
X036687Y005251D01*
X036788Y005209D01*
X036866Y005241D01*
X037140Y005241D01*
X037394Y005136D01*
X037588Y004942D01*
X037693Y004688D01*
X037693Y004678D01*
X037846Y004741D01*
X038140Y004741D01*
X038412Y004629D01*
X038620Y004420D01*
X038733Y004148D01*
X038733Y003854D01*
X038620Y003582D01*
X038412Y003374D01*
X038140Y003261D01*
X037846Y003261D01*
X037574Y003374D01*
X037366Y003582D01*
X037253Y003854D01*
X037253Y003908D01*
X037140Y003861D01*
X036866Y003861D01*
X036612Y003966D01*
X036418Y004160D01*
X036313Y004414D01*
X036313Y004611D01*
X033430Y004611D01*
X033620Y004420D01*
X033733Y004148D01*
X033733Y003854D01*
X033620Y003582D01*
X033412Y003374D01*
X033140Y003261D01*
X032846Y003261D01*
X032574Y003374D01*
X032366Y003582D01*
X032253Y003854D01*
X032253Y003908D01*
X032140Y003861D01*
X031866Y003861D01*
X031612Y003966D01*
X031418Y004160D01*
X031313Y004414D01*
X031313Y004611D01*
X028430Y004611D01*
X028620Y004420D01*
X028733Y004148D01*
X028733Y003854D01*
X028620Y003582D01*
X028412Y003374D01*
X028140Y003261D01*
X027846Y003261D01*
X027574Y003374D01*
X027366Y003582D01*
X027253Y003854D01*
X027253Y003908D01*
X027140Y003861D01*
X026866Y003861D01*
X026612Y003966D01*
X026418Y004160D01*
X026313Y004414D01*
X026313Y004611D01*
X023430Y004611D01*
X023620Y004420D01*
X023733Y004148D01*
X023733Y003854D01*
X023620Y003582D01*
X023412Y003374D01*
X023140Y003261D01*
X022846Y003261D01*
X022574Y003374D01*
X022366Y003582D01*
X022253Y003854D01*
X022253Y003908D01*
X022140Y003861D01*
X021866Y003861D01*
X021612Y003966D01*
X021418Y004160D01*
X021313Y004414D01*
X021313Y004611D01*
X018430Y004611D01*
X018620Y004420D01*
X018733Y004148D01*
X018733Y003854D01*
X018620Y003582D01*
X018412Y003374D01*
X018140Y003261D01*
X017846Y003261D01*
X017574Y003374D01*
X017366Y003582D01*
X017253Y003854D01*
X017253Y003908D01*
X017140Y003861D01*
X016866Y003861D01*
X016612Y003966D01*
X016418Y004160D01*
X016313Y004414D01*
X016313Y004611D01*
X013430Y004611D01*
X013620Y004420D01*
X013733Y004148D01*
X013733Y003854D01*
X013620Y003582D01*
X013412Y003374D01*
X013140Y003261D01*
X012846Y003261D01*
X012574Y003374D01*
X012366Y003582D01*
X012253Y003854D01*
X012253Y003908D01*
X012140Y003861D01*
X011866Y003861D01*
X011612Y003966D01*
X011418Y004160D01*
X011313Y004414D01*
X011313Y004611D01*
X008430Y004611D01*
X008620Y004420D01*
X008733Y004148D01*
X008733Y003854D01*
X008620Y003582D01*
X008412Y003374D01*
X008140Y003261D01*
X007846Y003261D01*
X007574Y003374D01*
X007366Y003582D01*
X007253Y003854D01*
X007253Y003908D01*
X007140Y003861D01*
X006866Y003861D01*
X006612Y003966D01*
X006418Y004160D01*
X006313Y004414D01*
X006313Y004611D01*
X003430Y004611D01*
X003620Y004420D01*
X003733Y004148D01*
X003733Y003854D01*
X003620Y003582D01*
X003412Y003374D01*
X003140Y003261D01*
X002846Y003261D01*
X002574Y003374D01*
X002366Y003582D01*
X002253Y003854D01*
X002253Y003908D01*
X002140Y003861D01*
X001866Y003861D01*
X001612Y003966D01*
X001418Y004160D01*
X001313Y004414D01*
X001313Y004688D01*
X001418Y004942D01*
X001612Y005136D01*
X001866Y005241D01*
X002140Y005241D01*
X002247Y005197D01*
X002252Y005202D01*
X002369Y005251D01*
X005117Y005251D01*
X005068Y005300D01*
X004963Y005554D01*
X004963Y005828D01*
X005068Y006082D01*
X005262Y006276D01*
X005516Y006381D01*
X005790Y006381D01*
X006044Y006276D01*
X006238Y006082D01*
X006343Y005828D01*
X006343Y005554D01*
X006238Y005300D01*
X006189Y005251D01*
X006559Y005251D01*
X006687Y005251D01*
X006788Y005209D01*
X006866Y005241D01*
X007140Y005241D01*
X007247Y005197D01*
X007252Y005202D01*
X007369Y005251D01*
X010117Y005251D01*
X010068Y005300D01*
X009963Y005554D01*
X009963Y005828D01*
X010068Y006082D01*
X010262Y006276D01*
X010516Y006381D01*
X010790Y006381D01*
X011044Y006276D01*
X011238Y006082D01*
X011343Y005828D01*
X011343Y005554D01*
X011238Y005300D01*
X011189Y005251D01*
X011559Y005251D01*
X011687Y005251D01*
X011788Y005209D01*
X011866Y005241D01*
X012140Y005241D01*
X012247Y005197D01*
X012252Y005202D01*
X012369Y005251D01*
X015117Y005251D01*
X015068Y005300D01*
X014963Y005554D01*
X014963Y005828D01*
X015068Y006082D01*
X015262Y006276D01*
X015516Y006381D01*
X015790Y006381D01*
X016044Y006276D01*
X016238Y006082D01*
X016343Y005828D01*
X016343Y005554D01*
X016238Y005300D01*
X016189Y005251D01*
X016559Y005251D01*
X016687Y005251D01*
X016788Y005209D01*
X016866Y005241D01*
X017140Y005241D01*
X017247Y005197D01*
X017252Y005202D01*
X017369Y005251D01*
X020117Y005251D01*
X020068Y005300D01*
X019963Y005554D01*
X019963Y005828D01*
X020068Y006082D01*
X020262Y006276D01*
X020516Y006381D01*
X020790Y006381D01*
X021044Y006276D01*
X020875Y006346D02*
X025431Y006346D01*
X025875Y006346D02*
X030431Y006346D01*
X030185Y006505D02*
X032681Y006505D01*
X032734Y006451D02*
X033132Y006451D01*
X033413Y006732D01*
X033413Y007130D01*
X033132Y007411D01*
X032734Y007411D01*
X032453Y007130D01*
X032453Y006732D01*
X032734Y006451D01*
X032522Y006663D02*
X030344Y006663D01*
X030413Y006822D02*
X032453Y006822D01*
X032453Y006980D02*
X030413Y006980D01*
X030404Y007139D02*
X032462Y007139D01*
X032620Y007297D02*
X030246Y007297D01*
X031182Y007614D02*
X031571Y007614D01*
X031453Y007773D02*
X031333Y007773D01*
X031333Y007931D02*
X031453Y007931D01*
X031453Y008090D02*
X031333Y008090D01*
X031259Y008407D02*
X030608Y008407D01*
X030770Y008566D02*
X031096Y008566D01*
X031413Y009200D02*
X031453Y009200D01*
X031453Y009358D02*
X031413Y009358D01*
X031276Y009517D02*
X031590Y009517D01*
X032276Y009517D02*
X035420Y009517D01*
X035453Y009358D02*
X032413Y009358D01*
X032413Y009200D02*
X035453Y009200D01*
X035341Y009041D02*
X032413Y009041D01*
X032137Y007456D02*
X036730Y007456D01*
X036571Y007614D02*
X036182Y007614D01*
X036333Y007773D02*
X036453Y007773D01*
X036453Y007931D02*
X036333Y007931D01*
X036333Y008090D02*
X036453Y008090D01*
X036259Y008407D02*
X035608Y008407D01*
X035770Y008566D02*
X036096Y008566D01*
X035132Y007411D02*
X034734Y007411D01*
X034453Y007130D01*
X034453Y006732D01*
X034734Y006451D01*
X035132Y006451D01*
X035413Y006732D01*
X035413Y007130D01*
X035132Y007411D01*
X035246Y007297D02*
X037620Y007297D01*
X037734Y007411D02*
X037453Y007130D01*
X037453Y006732D01*
X037734Y006451D01*
X038132Y006451D01*
X038413Y006732D01*
X038413Y007130D01*
X038132Y007411D01*
X037734Y007411D01*
X037462Y007139D02*
X035404Y007139D01*
X035413Y006980D02*
X037453Y006980D01*
X037453Y006822D02*
X035413Y006822D01*
X035344Y006663D02*
X037522Y006663D01*
X037681Y006505D02*
X035185Y006505D01*
X035431Y006346D02*
X030875Y006346D01*
X031133Y006187D02*
X035174Y006187D01*
X035046Y006029D02*
X031260Y006029D01*
X031326Y005870D02*
X034981Y005870D01*
X034963Y005712D02*
X031343Y005712D01*
X031343Y005553D02*
X034963Y005553D01*
X035029Y005395D02*
X031277Y005395D01*
X031723Y005236D02*
X031854Y005236D01*
X032152Y005236D02*
X032333Y005236D01*
X032433Y004931D02*
X036623Y004931D01*
X037003Y004551D01*
X036367Y004285D02*
X033677Y004285D01*
X033733Y004126D02*
X036452Y004126D01*
X036611Y003968D02*
X033733Y003968D01*
X033715Y003809D02*
X037272Y003809D01*
X037337Y003651D02*
X033649Y003651D01*
X033531Y003492D02*
X037456Y003492D01*
X037671Y003334D02*
X036236Y003334D01*
X036254Y003326D02*
X036000Y003431D01*
X035726Y003431D01*
X035472Y003326D01*
X035278Y003132D01*
X035173Y002878D01*
X035173Y002604D01*
X035278Y002350D01*
X035472Y002156D01*
X035726Y002051D01*
X036000Y002051D01*
X036254Y002156D01*
X036448Y002350D01*
X036553Y002604D01*
X036553Y002878D01*
X036448Y003132D01*
X036254Y003326D01*
X036405Y003175D02*
X039977Y003175D01*
X040135Y003017D02*
X036496Y003017D01*
X036553Y002858D02*
X040173Y002858D01*
X040173Y002878D02*
X040173Y002604D01*
X040278Y002350D01*
X040472Y002156D01*
X040726Y002051D01*
X041000Y002051D01*
X041254Y002156D01*
X041448Y002350D01*
X041553Y002604D01*
X041553Y002878D01*
X041448Y003132D01*
X041254Y003326D01*
X041000Y003431D01*
X040726Y003431D01*
X040655Y003402D01*
X040253Y003804D01*
X040253Y005115D01*
X040262Y005106D01*
X040516Y005001D01*
X040790Y005001D01*
X041044Y005106D01*
X041238Y005300D01*
X041343Y005554D01*
X041343Y005828D01*
X041238Y006082D01*
X041044Y006276D01*
X040790Y006381D01*
X040516Y006381D01*
X040262Y006276D01*
X040253Y006267D01*
X040253Y006572D01*
X040413Y006732D01*
X040413Y007130D01*
X040132Y007411D01*
X039734Y007411D01*
X039453Y007130D01*
X039453Y006732D01*
X039613Y006572D01*
X039613Y003735D01*
X039613Y003607D01*
X039662Y003490D01*
X040202Y002949D01*
X040173Y002878D01*
X040173Y002700D02*
X036553Y002700D01*
X036527Y002541D02*
X040199Y002541D01*
X040265Y002382D02*
X036461Y002382D01*
X036322Y002224D02*
X040405Y002224D01*
X040692Y002065D02*
X039279Y002065D01*
X039306Y002054D02*
X039226Y002087D01*
X039142Y002110D01*
X039071Y002119D01*
X039071Y001519D01*
X038955Y001519D01*
X038955Y001403D01*
X039071Y001403D01*
X039071Y000803D01*
X039142Y000812D01*
X039226Y000835D01*
X039306Y000868D01*
X039381Y000911D01*
X039449Y000964D01*
X039510Y001025D01*
X039563Y001094D01*
X039606Y001169D01*
X039639Y001249D01*
X039662Y001332D01*
X039671Y001403D01*
X039071Y001403D01*
X039071Y001519D01*
X039671Y001519D01*
X039662Y001590D01*
X044675Y001590D01*
X044751Y001748D02*
X039609Y001748D01*
X039606Y001754D02*
X039563Y001829D01*
X039510Y001897D01*
X039449Y001958D01*
X039381Y002011D01*
X039306Y002054D01*
X039071Y002065D02*
X038955Y002065D01*
X038955Y002119D02*
X038884Y002110D01*
X038801Y002087D01*
X038721Y002054D01*
X038646Y002011D01*
X038577Y001958D01*
X038516Y001897D01*
X038463Y001829D01*
X038420Y001754D01*
X038387Y001674D01*
X038364Y001590D01*
X034662Y001590D01*
X034639Y001674D01*
X034606Y001754D01*
X034563Y001829D01*
X034510Y001897D01*
X034449Y001958D01*
X034381Y002011D01*
X034306Y002054D01*
X034226Y002087D01*
X034142Y002110D01*
X034071Y002119D01*
X034071Y001519D01*
X033955Y001519D01*
X033955Y001403D01*
X034071Y001403D01*
X034071Y000803D01*
X034142Y000812D01*
X034226Y000835D01*
X034306Y000868D01*
X034381Y000911D01*
X034449Y000964D01*
X034510Y001025D01*
X034563Y001094D01*
X034606Y001169D01*
X034639Y001249D01*
X034662Y001332D01*
X034671Y001403D01*
X034071Y001403D01*
X034071Y001519D01*
X034671Y001519D01*
X034662Y001590D01*
X034609Y001748D02*
X038418Y001748D01*
X038364Y001590D02*
X038355Y001519D01*
X038955Y001519D01*
X038955Y002119D01*
X038955Y001907D02*
X039071Y001907D01*
X039071Y001748D02*
X038955Y001748D01*
X038955Y001590D02*
X039071Y001590D01*
X039071Y001431D02*
X044572Y001431D01*
X044445Y001273D02*
X039646Y001273D01*
X039575Y001114D02*
X044273Y001114D01*
X044058Y000956D02*
X039438Y000956D01*
X039071Y000956D02*
X038955Y000956D01*
X038955Y000803D02*
X038955Y001403D01*
X038355Y001403D01*
X038364Y001332D01*
X038387Y001249D01*
X038420Y001169D01*
X038463Y001094D01*
X038516Y001025D01*
X038577Y000964D01*
X038646Y000911D01*
X038721Y000868D01*
X038801Y000835D01*
X038884Y000812D01*
X038955Y000803D01*
X038955Y001114D02*
X039071Y001114D01*
X039071Y001273D02*
X038955Y001273D01*
X038955Y001431D02*
X034071Y001431D01*
X033955Y001431D02*
X029071Y001431D01*
X029071Y001403D02*
X029071Y001519D01*
X028955Y001519D01*
X028955Y001403D01*
X029071Y001403D01*
X029071Y000803D01*
X029142Y000812D01*
X029226Y000835D01*
X029306Y000868D01*
X029381Y000911D01*
X029449Y000964D01*
X029510Y001025D01*
X029563Y001094D01*
X029606Y001169D01*
X029639Y001249D01*
X029662Y001332D01*
X029671Y001403D01*
X029071Y001403D01*
X028955Y001403D02*
X028955Y000803D01*
X028884Y000812D01*
X028801Y000835D01*
X028721Y000868D01*
X028646Y000911D01*
X028577Y000964D01*
X028516Y001025D01*
X028463Y001094D01*
X028420Y001169D01*
X028387Y001249D01*
X028364Y001332D01*
X028355Y001403D01*
X028955Y001403D01*
X028955Y001431D02*
X024071Y001431D01*
X024071Y001403D02*
X024071Y001519D01*
X023955Y001519D01*
X023955Y001403D01*
X024071Y001403D01*
X024071Y000803D01*
X024142Y000812D01*
X024226Y000835D01*
X024306Y000868D01*
X024381Y000911D01*
X024449Y000964D01*
X024510Y001025D01*
X024563Y001094D01*
X024606Y001169D01*
X024639Y001249D01*
X024662Y001332D01*
X024671Y001403D01*
X024071Y001403D01*
X023955Y001403D02*
X023955Y000803D01*
X023884Y000812D01*
X023801Y000835D01*
X023721Y000868D01*
X023646Y000911D01*
X023577Y000964D01*
X023516Y001025D01*
X023463Y001094D01*
X023420Y001169D01*
X023387Y001249D01*
X023364Y001332D01*
X023355Y001403D01*
X023955Y001403D01*
X023955Y001431D02*
X019071Y001431D01*
X019071Y001403D02*
X019071Y001519D01*
X018955Y001519D01*
X018955Y001403D01*
X019071Y001403D01*
X019071Y000803D01*
X019142Y000812D01*
X019226Y000835D01*
X019306Y000868D01*
X019381Y000911D01*
X019449Y000964D01*
X019510Y001025D01*
X019563Y001094D01*
X019606Y001169D01*
X019639Y001249D01*
X019662Y001332D01*
X019671Y001403D01*
X019071Y001403D01*
X018955Y001403D02*
X018955Y000803D01*
X018884Y000812D01*
X018801Y000835D01*
X018721Y000868D01*
X018646Y000911D01*
X018577Y000964D01*
X018516Y001025D01*
X018463Y001094D01*
X018420Y001169D01*
X018387Y001249D01*
X018364Y001332D01*
X018355Y001403D01*
X018955Y001403D01*
X018955Y001431D02*
X014071Y001431D01*
X014071Y001403D02*
X014071Y001519D01*
X013955Y001519D01*
X013955Y001403D01*
X014071Y001403D01*
X014071Y000803D01*
X014142Y000812D01*
X014226Y000835D01*
X014306Y000868D01*
X014381Y000911D01*
X014449Y000964D01*
X014510Y001025D01*
X014563Y001094D01*
X014606Y001169D01*
X014639Y001249D01*
X014662Y001332D01*
X014671Y001403D01*
X014071Y001403D01*
X013955Y001403D02*
X013955Y000803D01*
X013884Y000812D01*
X013801Y000835D01*
X013721Y000868D01*
X013646Y000911D01*
X013577Y000964D01*
X013516Y001025D01*
X013463Y001094D01*
X013420Y001169D01*
X013387Y001249D01*
X013364Y001332D01*
X013355Y001403D01*
X013955Y001403D01*
X013955Y001431D02*
X009071Y001431D01*
X009071Y001403D02*
X009071Y001519D01*
X008955Y001519D01*
X008955Y001403D01*
X009071Y001403D01*
X009071Y000803D01*
X009142Y000812D01*
X009226Y000835D01*
X009306Y000868D01*
X009381Y000911D01*
X009449Y000964D01*
X009510Y001025D01*
X009563Y001094D01*
X009606Y001169D01*
X009639Y001249D01*
X009662Y001332D01*
X009671Y001403D01*
X009071Y001403D01*
X008955Y001403D02*
X008955Y000803D01*
X008884Y000812D01*
X008801Y000835D01*
X008721Y000868D01*
X008646Y000911D01*
X008577Y000964D01*
X008516Y001025D01*
X008463Y001094D01*
X008420Y001169D01*
X008387Y001249D01*
X008364Y001332D01*
X008355Y001403D01*
X008955Y001403D01*
X008955Y001431D02*
X004071Y001431D01*
X004071Y001403D02*
X004071Y001519D01*
X003955Y001519D01*
X003955Y001403D01*
X004071Y001403D01*
X004071Y000803D01*
X004142Y000812D01*
X004226Y000835D01*
X004306Y000868D01*
X004381Y000911D01*
X004449Y000964D01*
X004510Y001025D01*
X004563Y001094D01*
X004606Y001169D01*
X004639Y001249D01*
X004662Y001332D01*
X004671Y001403D01*
X004071Y001403D01*
X003955Y001403D02*
X003955Y000803D01*
X003884Y000812D01*
X003801Y000835D01*
X003721Y000868D01*
X003646Y000911D01*
X003577Y000964D01*
X003516Y001025D01*
X003463Y001094D01*
X003420Y001169D01*
X003387Y001249D01*
X003364Y001332D01*
X003355Y001403D01*
X003955Y001403D01*
X003955Y001431D02*
X001294Y001431D01*
X001227Y001516D02*
X001060Y001863D01*
X000974Y002239D01*
X000963Y002431D01*
X000963Y002480D01*
X000963Y002487D01*
X000963Y018681D01*
X001490Y018681D01*
X001730Y018441D01*
X001618Y018554D02*
X000963Y018554D01*
X002256Y019188D02*
X002693Y019188D01*
X003173Y020773D02*
X003533Y020773D01*
X003533Y020932D02*
X003173Y020932D01*
X003307Y021091D02*
X003533Y021091D01*
X003465Y021249D02*
X003685Y021249D01*
X003624Y021408D02*
X004695Y021408D01*
X004854Y021566D02*
X003782Y021566D01*
X003941Y021725D02*
X005012Y021725D01*
X004951Y021883D02*
X005171Y021883D01*
X005083Y022042D02*
X005329Y022042D01*
X005488Y022200D02*
X005083Y022200D01*
X005071Y022359D02*
X005646Y022359D01*
X005805Y022517D02*
X004912Y022517D01*
X004892Y022676D02*
X005964Y022676D01*
X006122Y022835D02*
X005051Y022835D01*
X004531Y022993D02*
X002343Y022993D01*
X002343Y022835D02*
X004372Y022835D01*
X004214Y022676D02*
X002258Y022676D01*
X001933Y022676D02*
X001933Y022676D01*
X001933Y022835D02*
X001933Y022835D01*
X001933Y022932D02*
X001933Y023341D01*
X001933Y022932D01*
X001933Y022932D01*
X001933Y022993D02*
X001933Y022993D01*
X001933Y023152D02*
X001933Y023152D01*
X001933Y023310D02*
X001933Y023310D01*
X002134Y023310D02*
X004283Y023310D01*
X004283Y023469D02*
X000963Y023469D01*
X002209Y023627D02*
X004314Y023627D01*
X004397Y023152D02*
X002292Y023152D01*
X002244Y022200D02*
X003738Y022200D01*
X003579Y022042D02*
X002343Y022042D01*
X002343Y021883D02*
X003421Y021883D01*
X003262Y021725D02*
X002306Y021725D01*
X002148Y021566D02*
X003104Y021566D01*
X002945Y021408D02*
X000963Y021408D01*
X004100Y021883D02*
X004415Y021883D01*
X004283Y022042D02*
X004258Y022042D01*
X004181Y021249D02*
X004537Y021249D01*
X004378Y021091D02*
X004333Y021091D01*
X005572Y019981D02*
X006143Y019981D01*
X005985Y019822D02*
X005414Y019822D01*
X005255Y019664D02*
X005826Y019664D01*
X005668Y019505D02*
X005096Y019505D01*
X004938Y019347D02*
X005509Y019347D01*
X005351Y019188D02*
X004779Y019188D01*
X006029Y019188D02*
X007851Y019188D01*
X007702Y019347D02*
X006188Y019347D01*
X006346Y019505D02*
X007544Y019505D01*
X007533Y019664D02*
X006505Y019664D01*
X006664Y019822D02*
X007533Y019822D01*
X007667Y019981D02*
X006822Y019981D01*
X006460Y020298D02*
X005889Y020298D01*
X005731Y020139D02*
X006302Y020139D01*
X006048Y020456D02*
X006619Y020456D01*
X006777Y020615D02*
X006206Y020615D01*
X006365Y020773D02*
X006936Y020773D01*
X007095Y020932D02*
X006523Y020932D01*
X006682Y021091D02*
X007253Y021091D01*
X006840Y021249D02*
X007685Y021249D01*
X009516Y019188D02*
X028101Y019188D01*
X024933Y017431D02*
X024933Y016681D01*
X024433Y016181D01*
X024433Y013681D01*
X024183Y013431D01*
X024183Y011431D01*
X023683Y010931D02*
X023683Y011931D01*
X023183Y012431D01*
X023183Y013431D01*
X023433Y013681D01*
X023433Y014931D01*
X023933Y015431D01*
X023933Y017431D01*
X022662Y018078D02*
X022205Y018078D01*
X022350Y017920D02*
X022517Y017920D01*
X022453Y017761D02*
X022413Y017761D01*
X022413Y017603D02*
X022453Y017603D01*
X021662Y018078D02*
X020283Y018078D01*
X020350Y017920D02*
X020618Y017920D01*
X020622Y017926D02*
X020579Y017861D01*
X020549Y017788D01*
X020533Y017711D01*
X020533Y017431D01*
X020533Y017152D01*
X020549Y017074D01*
X020579Y017002D01*
X020622Y016936D01*
X020678Y016880D01*
X020744Y016837D01*
X020816Y016807D01*
X020894Y016791D01*
X020933Y016791D01*
X020933Y017431D01*
X020933Y017431D01*
X020533Y017431D01*
X020933Y017431D01*
X020933Y017431D01*
X020933Y016791D01*
X020973Y016791D01*
X021050Y016807D01*
X021123Y016837D01*
X021188Y016880D01*
X021244Y016936D01*
X021288Y017002D01*
X021318Y017074D01*
X021333Y017152D01*
X021333Y017431D01*
X020934Y017431D01*
X020934Y017431D01*
X021333Y017431D01*
X021333Y017711D01*
X021318Y017788D01*
X021288Y017861D01*
X021244Y017926D01*
X021188Y017982D01*
X021123Y018026D01*
X021050Y018056D01*
X020973Y018071D01*
X020933Y018071D01*
X020894Y018071D01*
X020816Y018056D01*
X020744Y018026D01*
X020678Y017982D01*
X020622Y017926D01*
X020543Y017761D02*
X020413Y017761D01*
X020413Y017603D02*
X020533Y017603D01*
X020533Y017444D02*
X020413Y017444D01*
X020413Y017286D02*
X020533Y017286D01*
X020538Y017127D02*
X020413Y017127D01*
X020360Y016968D02*
X020601Y016968D01*
X020808Y016810D02*
X020231Y016810D01*
X020933Y016810D02*
X020933Y016810D01*
X021058Y016810D02*
X021636Y016810D01*
X021506Y016968D02*
X021265Y016968D01*
X021328Y017127D02*
X021453Y017127D01*
X021453Y017286D02*
X021333Y017286D01*
X021333Y017444D02*
X021453Y017444D01*
X021453Y017603D02*
X021333Y017603D01*
X021323Y017761D02*
X021453Y017761D01*
X021517Y017920D02*
X021248Y017920D01*
X020933Y017920D02*
X020933Y017920D01*
X020933Y018071D02*
X020933Y017432D01*
X020933Y017432D01*
X020933Y018071D01*
X020933Y017761D02*
X020933Y017761D01*
X020933Y017603D02*
X020933Y017603D01*
X020933Y017444D02*
X020933Y017444D01*
X020933Y017286D02*
X020933Y017286D01*
X020933Y017127D02*
X020933Y017127D01*
X020933Y016968D02*
X020933Y016968D01*
X020958Y015859D02*
X022613Y015859D01*
X022613Y015700D02*
X021117Y015700D01*
X021275Y015542D02*
X022591Y015542D01*
X022432Y015383D02*
X021434Y015383D01*
X021592Y015224D02*
X022274Y015224D01*
X021933Y014431D02*
X020777Y015587D01*
X017277Y015587D01*
X015683Y017181D01*
X005683Y017181D01*
X005183Y016681D01*
X005183Y015181D02*
X005933Y014431D01*
X018933Y014431D01*
X019413Y014432D02*
X019453Y014432D01*
X019453Y014590D02*
X019413Y014590D01*
X019413Y014749D02*
X019453Y014749D01*
X019511Y014907D02*
X019355Y014907D01*
X019217Y015066D02*
X019649Y015066D01*
X020217Y015066D02*
X020649Y015066D01*
X020687Y015224D02*
X018163Y015224D01*
X018163Y015066D02*
X018649Y015066D01*
X018511Y014907D02*
X018088Y014907D01*
X018069Y014111D02*
X018453Y014111D01*
X018453Y014096D01*
X018526Y013919D01*
X018661Y013784D01*
X018741Y013751D01*
X018069Y013751D01*
X018083Y013766D01*
X018083Y013931D01*
X017684Y013931D01*
X017684Y013931D01*
X018083Y013931D01*
X018083Y014097D01*
X018069Y014111D01*
X018083Y013956D02*
X018511Y013956D01*
X018648Y013798D02*
X018083Y013798D01*
X019218Y013798D02*
X019648Y013798D01*
X019511Y013956D02*
X019355Y013956D01*
X019413Y014115D02*
X019453Y014115D01*
X019453Y014273D02*
X019413Y014273D01*
X020218Y013798D02*
X020648Y013798D01*
X020511Y013956D02*
X020355Y013956D01*
X020413Y014115D02*
X020453Y014115D01*
X020453Y014273D02*
X020413Y014273D01*
X020413Y014432D02*
X020453Y014432D01*
X020453Y014590D02*
X020413Y014590D01*
X020413Y014749D02*
X020453Y014749D01*
X020511Y014907D02*
X020355Y014907D01*
X021413Y014432D02*
X021453Y014432D01*
X021453Y014273D02*
X021413Y014273D01*
X021413Y014115D02*
X021453Y014115D01*
X021511Y013956D02*
X021355Y013956D01*
X021218Y013798D02*
X021648Y013798D01*
X022113Y013639D02*
X020178Y013639D01*
X020204Y013612D02*
X020204Y013612D01*
X020336Y013480D02*
X022113Y013480D01*
X022113Y013322D02*
X020495Y013322D01*
X020653Y013163D02*
X022113Y013163D01*
X022113Y013005D02*
X021288Y013005D01*
X021413Y012846D02*
X022113Y012846D01*
X022113Y012688D02*
X021413Y012688D01*
X021413Y012529D02*
X022113Y012529D01*
X022113Y012371D02*
X021301Y012371D01*
X021143Y012212D02*
X022113Y012212D01*
X022140Y012054D02*
X020753Y012054D01*
X020753Y011895D02*
X021954Y011895D01*
X021796Y011736D02*
X020821Y011736D01*
X020923Y011578D02*
X021693Y011578D01*
X022183Y011431D02*
X022183Y010931D01*
X022433Y010681D01*
X022433Y009931D01*
X022183Y009681D01*
X003433Y009681D01*
X001558Y011556D01*
X001958Y011736D02*
X002673Y011736D01*
X002533Y011578D02*
X001997Y011578D01*
X002147Y011419D02*
X002533Y011419D01*
X002538Y011261D02*
X002306Y011261D01*
X002465Y011102D02*
X002696Y011102D01*
X002623Y010944D02*
X003718Y010944D01*
X003559Y011102D02*
X003170Y011102D01*
X003328Y011261D02*
X003401Y011261D01*
X002933Y011261D02*
X002933Y011261D01*
X002933Y011419D02*
X002933Y011419D01*
X002933Y011578D02*
X002933Y011578D01*
X002933Y011736D02*
X002933Y011736D01*
X003113Y011895D02*
X001839Y011895D01*
X002933Y011102D02*
X002933Y011102D01*
X002782Y010785D02*
X003877Y010785D01*
X004082Y010627D02*
X002940Y010627D01*
X003099Y010468D02*
X005453Y010468D01*
X005453Y010310D02*
X003257Y010310D01*
X003416Y010151D02*
X005534Y010151D01*
X006332Y010151D02*
X006534Y010151D01*
X006453Y010310D02*
X006413Y010310D01*
X006413Y010468D02*
X006453Y010468D01*
X006453Y010627D02*
X006413Y010627D01*
X006258Y010785D02*
X006608Y010785D01*
X007059Y011102D02*
X005807Y011102D01*
X005648Y010944D02*
X007218Y010944D01*
X007258Y010785D02*
X007376Y010785D01*
X007413Y010627D02*
X007582Y010627D01*
X007413Y010468D02*
X008944Y010468D01*
X009102Y010310D02*
X007413Y010310D01*
X007332Y010151D02*
X009273Y010151D01*
X009532Y010785D02*
X010085Y010785D01*
X010243Y010944D02*
X009373Y010944D01*
X009215Y011102D02*
X009583Y011102D01*
X009453Y011261D02*
X008328Y011261D01*
X008333Y011419D02*
X009453Y011419D01*
X009453Y011578D02*
X008333Y011578D01*
X010283Y011102D02*
X010402Y011102D01*
X010413Y011261D02*
X012943Y011261D01*
X012943Y011419D02*
X011737Y011419D01*
X011833Y011578D02*
X012834Y011578D01*
X012675Y011736D02*
X011833Y011736D01*
X011433Y011578D02*
X011433Y011578D01*
X011433Y011419D02*
X011433Y011419D01*
X011129Y011419D02*
X010413Y011419D01*
X010413Y011578D02*
X011033Y011578D01*
X012465Y011102D02*
X013069Y011102D01*
X013228Y010944D02*
X012623Y010944D01*
X014667Y012212D02*
X015723Y012212D01*
X015565Y012371D02*
X014825Y012371D01*
X014984Y012529D02*
X015453Y012529D01*
X015453Y012688D02*
X015142Y012688D01*
X015301Y012846D02*
X015453Y012846D01*
X015459Y013005D02*
X015578Y013005D01*
X016288Y013005D02*
X016657Y013005D01*
X016815Y012846D02*
X016413Y012846D01*
X016413Y012688D02*
X016974Y012688D01*
X017204Y011895D02*
X016662Y011895D01*
X016821Y011736D02*
X017046Y011736D01*
X016943Y011578D02*
X016923Y011578D01*
X016923Y011419D02*
X016943Y011419D01*
X016943Y011261D02*
X016923Y011261D01*
X016797Y011102D02*
X017069Y011102D01*
X013933Y012681D02*
X013533Y012681D01*
X013533Y012534D01*
X013206Y012861D01*
X013548Y012861D01*
X013533Y012847D01*
X013533Y012681D01*
X013933Y012681D01*
X013933Y012681D01*
X013533Y012688D02*
X013379Y012688D01*
X013533Y012846D02*
X013221Y012846D01*
X011433Y013681D02*
X009933Y013681D01*
X009433Y013181D01*
X005183Y013181D01*
X004683Y013681D01*
X005183Y013932D02*
X005183Y014331D01*
X005017Y014331D01*
X005003Y014317D01*
X005003Y014701D01*
X005211Y014701D01*
X005662Y014250D01*
X005752Y014160D01*
X005869Y014111D01*
X008703Y014111D01*
X008703Y013732D01*
X008934Y013501D01*
X005316Y013501D01*
X005286Y013531D01*
X005349Y013531D01*
X005583Y013766D01*
X005583Y013931D01*
X005184Y013931D01*
X005184Y013931D01*
X005583Y013931D01*
X005583Y014097D01*
X005349Y014331D01*
X005183Y014331D01*
X005183Y013932D01*
X005183Y013932D01*
X005183Y013956D02*
X005183Y013956D01*
X005183Y014115D02*
X005183Y014115D01*
X005183Y014273D02*
X005183Y014273D01*
X005407Y014273D02*
X005639Y014273D01*
X005565Y014115D02*
X005861Y014115D01*
X005583Y013956D02*
X008703Y013956D01*
X008703Y013798D02*
X005583Y013798D01*
X005457Y013639D02*
X008796Y013639D01*
X005480Y014432D02*
X005003Y014432D01*
X005003Y014590D02*
X005321Y014590D01*
X005490Y010785D02*
X005608Y010785D01*
X005453Y010627D02*
X005284Y010627D01*
X003145Y009517D02*
X002276Y009517D01*
X002173Y009993D02*
X002669Y009993D01*
X002511Y010151D02*
X002332Y010151D01*
X001730Y008407D02*
X000963Y008407D01*
X000963Y008249D02*
X001572Y008249D01*
X001453Y008090D02*
X000963Y008090D01*
X000963Y007931D02*
X001453Y007931D01*
X001453Y007773D02*
X000963Y007773D01*
X000963Y007614D02*
X001571Y007614D01*
X001730Y007456D02*
X000963Y007456D01*
X000963Y007297D02*
X002620Y007297D01*
X002734Y007411D02*
X002453Y007130D01*
X002453Y006732D01*
X002734Y006451D01*
X003132Y006451D01*
X003413Y006732D01*
X003413Y007130D01*
X003132Y007411D01*
X002734Y007411D01*
X002462Y007139D02*
X000963Y007139D01*
X000963Y006980D02*
X002453Y006980D01*
X002453Y006822D02*
X000963Y006822D01*
X000963Y006663D02*
X002522Y006663D01*
X002681Y006505D02*
X000963Y006505D01*
X000963Y006346D02*
X005431Y006346D01*
X005185Y006505D02*
X007681Y006505D01*
X007734Y006451D02*
X008132Y006451D01*
X008413Y006732D01*
X008413Y007130D01*
X008132Y007411D01*
X007734Y007411D01*
X007453Y007130D01*
X007453Y006732D01*
X007734Y006451D01*
X007522Y006663D02*
X005344Y006663D01*
X005413Y006732D02*
X005132Y006451D01*
X004734Y006451D01*
X004453Y006732D01*
X004453Y007130D01*
X004734Y007411D01*
X005132Y007411D01*
X005413Y007130D01*
X005413Y006732D01*
X005413Y006822D02*
X007453Y006822D01*
X007453Y006980D02*
X005413Y006980D01*
X005404Y007139D02*
X007462Y007139D01*
X007620Y007297D02*
X005246Y007297D01*
X004620Y007297D02*
X003246Y007297D01*
X003404Y007139D02*
X004462Y007139D01*
X004453Y006980D02*
X003413Y006980D01*
X003413Y006822D02*
X004453Y006822D01*
X004522Y006663D02*
X003344Y006663D01*
X003185Y006505D02*
X004681Y006505D01*
X005174Y006187D02*
X000963Y006187D01*
X000963Y006029D02*
X005046Y006029D01*
X004981Y005870D02*
X000963Y005870D01*
X000963Y005712D02*
X004963Y005712D01*
X004963Y005553D02*
X000963Y005553D01*
X000963Y005395D02*
X005029Y005395D01*
X006277Y005395D02*
X010029Y005395D01*
X009963Y005553D02*
X006343Y005553D01*
X006343Y005712D02*
X009963Y005712D01*
X009981Y005870D02*
X006326Y005870D01*
X006260Y006029D02*
X010046Y006029D01*
X010174Y006187D02*
X006133Y006187D01*
X005875Y006346D02*
X010431Y006346D01*
X010185Y006505D02*
X012681Y006505D01*
X012734Y006451D02*
X013132Y006451D01*
X013413Y006732D01*
X013413Y007130D01*
X013132Y007411D01*
X012734Y007411D01*
X012453Y007130D01*
X012453Y006732D01*
X012734Y006451D01*
X012522Y006663D02*
X010344Y006663D01*
X010413Y006732D02*
X010132Y006451D01*
X009734Y006451D01*
X009453Y006732D01*
X009453Y007130D01*
X009734Y007411D01*
X010132Y007411D01*
X010413Y007130D01*
X010413Y006732D01*
X010413Y006822D02*
X012453Y006822D01*
X012453Y006980D02*
X010413Y006980D01*
X010404Y007139D02*
X012462Y007139D01*
X012620Y007297D02*
X010246Y007297D01*
X010684Y007614D02*
X007295Y007614D01*
X007413Y007773D02*
X010533Y007773D01*
X010533Y007766D02*
X010767Y007531D01*
X010933Y007531D01*
X010933Y007931D01*
X010933Y007931D01*
X010533Y007931D01*
X010533Y007766D01*
X010533Y007931D02*
X010933Y007931D01*
X010933Y007931D01*
X010933Y007531D01*
X011099Y007531D01*
X011333Y007766D01*
X011333Y007931D01*
X010934Y007931D01*
X010934Y007931D01*
X011333Y007931D01*
X011333Y008097D01*
X011099Y008331D01*
X010933Y008331D01*
X010767Y008331D01*
X010533Y008097D01*
X010533Y007931D01*
X007413Y007931D01*
X007413Y008090D02*
X010533Y008090D01*
X010685Y008249D02*
X007295Y008249D01*
X007137Y007456D02*
X011730Y007456D01*
X011571Y007614D02*
X011182Y007614D01*
X011333Y007773D02*
X011453Y007773D01*
X011453Y007931D02*
X011333Y007931D01*
X011333Y008090D02*
X011453Y008090D01*
X011572Y008249D02*
X011181Y008249D01*
X011259Y008407D02*
X010608Y008407D01*
X010770Y008566D02*
X011096Y008566D01*
X010933Y008331D02*
X010933Y007932D01*
X010933Y008331D01*
X010933Y008249D02*
X010933Y008249D01*
X010933Y008090D02*
X010933Y008090D01*
X010933Y007932D02*
X010933Y007932D01*
X010933Y007773D02*
X010933Y007773D01*
X010933Y007614D02*
X010933Y007614D01*
X012137Y007456D02*
X016730Y007456D01*
X016571Y007614D02*
X016182Y007614D01*
X016099Y007531D02*
X016333Y007766D01*
X016333Y007931D01*
X015934Y007931D01*
X015934Y007931D01*
X016333Y007931D01*
X016333Y008097D01*
X016099Y008331D01*
X015933Y008331D01*
X015767Y008331D01*
X015533Y008097D01*
X015533Y007931D01*
X015533Y007766D01*
X015767Y007531D01*
X015933Y007531D01*
X015933Y007931D01*
X015933Y007931D01*
X015533Y007931D01*
X015933Y007931D01*
X015933Y007931D01*
X015933Y007531D01*
X016099Y007531D01*
X015933Y007614D02*
X015933Y007614D01*
X015933Y007773D02*
X015933Y007773D01*
X015933Y007932D02*
X015933Y008331D01*
X015933Y007932D01*
X015933Y007932D01*
X015933Y008090D02*
X015933Y008090D01*
X015933Y008249D02*
X015933Y008249D01*
X015685Y008249D02*
X012295Y008249D01*
X012413Y008090D02*
X015533Y008090D01*
X015533Y007931D02*
X012413Y007931D01*
X012413Y007773D02*
X015533Y007773D01*
X015684Y007614D02*
X012295Y007614D01*
X013246Y007297D02*
X014620Y007297D01*
X014734Y007411D02*
X014453Y007130D01*
X014453Y006732D01*
X014734Y006451D01*
X015132Y006451D01*
X015413Y006732D01*
X015413Y007130D01*
X015132Y007411D01*
X014734Y007411D01*
X014462Y007139D02*
X013404Y007139D01*
X013413Y006980D02*
X014453Y006980D01*
X014453Y006822D02*
X013413Y006822D01*
X013344Y006663D02*
X014522Y006663D01*
X014681Y006505D02*
X013185Y006505D01*
X012333Y005236D02*
X012152Y005236D01*
X011854Y005236D02*
X011723Y005236D01*
X011623Y004931D02*
X012003Y004551D01*
X012053Y004551D01*
X012433Y004931D01*
X016623Y004931D01*
X017003Y004551D01*
X017053Y004551D01*
X017433Y004931D01*
X021623Y004931D01*
X022003Y004551D01*
X022053Y004551D01*
X022433Y004931D01*
X026623Y004931D01*
X027003Y004551D01*
X027053Y004551D01*
X027433Y004931D01*
X031623Y004931D01*
X032003Y004551D01*
X032053Y004551D01*
X032433Y004931D01*
X033439Y004602D02*
X036313Y004602D01*
X036313Y004444D02*
X033597Y004444D01*
X033315Y003334D02*
X035491Y003334D01*
X035321Y003175D02*
X031405Y003175D01*
X031448Y003132D02*
X031254Y003326D01*
X031000Y003431D01*
X030726Y003431D01*
X030472Y003326D01*
X030278Y003132D01*
X030173Y002878D01*
X030173Y002604D01*
X030278Y002350D01*
X030472Y002156D01*
X030726Y002051D01*
X031000Y002051D01*
X031254Y002156D01*
X031448Y002350D01*
X031553Y002604D01*
X031553Y002878D01*
X031448Y003132D01*
X031496Y003017D02*
X035230Y003017D01*
X035173Y002858D02*
X031553Y002858D01*
X031553Y002700D02*
X035173Y002700D01*
X035199Y002541D02*
X031527Y002541D01*
X031461Y002382D02*
X035265Y002382D01*
X035405Y002224D02*
X031322Y002224D01*
X031035Y002065D02*
X033747Y002065D01*
X033721Y002054D02*
X033646Y002011D01*
X033577Y001958D01*
X033516Y001897D01*
X033463Y001829D01*
X033420Y001754D01*
X033387Y001674D01*
X033364Y001590D01*
X029662Y001590D01*
X029639Y001674D01*
X029606Y001754D01*
X029563Y001829D01*
X029510Y001897D01*
X029449Y001958D01*
X029381Y002011D01*
X029306Y002054D01*
X029226Y002087D01*
X029142Y002110D01*
X029071Y002119D01*
X029071Y001519D01*
X029671Y001519D01*
X029662Y001590D01*
X029609Y001748D02*
X033418Y001748D01*
X033364Y001590D02*
X033355Y001519D01*
X033955Y001519D01*
X033955Y002119D01*
X033884Y002110D01*
X033801Y002087D01*
X033721Y002054D01*
X033955Y002065D02*
X034071Y002065D01*
X034071Y001907D02*
X033955Y001907D01*
X033955Y001748D02*
X034071Y001748D01*
X034071Y001590D02*
X033955Y001590D01*
X033955Y001403D02*
X033355Y001403D01*
X033364Y001332D01*
X033387Y001249D01*
X033420Y001169D01*
X033463Y001094D01*
X033516Y001025D01*
X033577Y000964D01*
X033646Y000911D01*
X033721Y000868D01*
X033801Y000835D01*
X033884Y000812D01*
X033955Y000803D01*
X033955Y001403D01*
X033955Y001273D02*
X034071Y001273D01*
X034071Y001114D02*
X033955Y001114D01*
X033955Y000956D02*
X034071Y000956D01*
X034438Y000956D02*
X038588Y000956D01*
X038451Y001114D02*
X034575Y001114D01*
X034646Y001273D02*
X038380Y001273D01*
X038525Y001907D02*
X034501Y001907D01*
X034279Y002065D02*
X035692Y002065D01*
X036035Y002065D02*
X038747Y002065D01*
X039501Y001907D02*
X044817Y001907D01*
X044853Y002065D02*
X041035Y002065D01*
X041322Y002224D02*
X044889Y002224D01*
X044900Y002382D02*
X041461Y002382D01*
X041527Y002541D02*
X044903Y002541D01*
X044903Y002700D02*
X041553Y002700D01*
X041553Y002858D02*
X044903Y002858D01*
X044903Y003017D02*
X041496Y003017D01*
X041405Y003175D02*
X044903Y003175D01*
X044903Y003334D02*
X041236Y003334D01*
X040565Y003492D02*
X044903Y003492D01*
X044903Y003651D02*
X040406Y003651D01*
X040253Y003809D02*
X044903Y003809D01*
X044903Y003968D02*
X040253Y003968D01*
X040253Y004126D02*
X044903Y004126D01*
X044903Y004285D02*
X040253Y004285D01*
X040253Y004444D02*
X044903Y004444D01*
X044903Y004602D02*
X040253Y004602D01*
X040253Y004761D02*
X044903Y004761D01*
X044903Y004919D02*
X040253Y004919D01*
X040253Y005078D02*
X040331Y005078D01*
X039613Y005078D02*
X037452Y005078D01*
X037598Y004919D02*
X039613Y004919D01*
X039613Y004761D02*
X037663Y004761D01*
X038439Y004602D02*
X039613Y004602D01*
X039613Y004444D02*
X038597Y004444D01*
X038677Y004285D02*
X039613Y004285D01*
X039613Y004126D02*
X038733Y004126D01*
X038733Y003968D02*
X039613Y003968D01*
X039613Y003809D02*
X038715Y003809D01*
X038649Y003651D02*
X039613Y003651D01*
X039661Y003492D02*
X038531Y003492D01*
X038315Y003334D02*
X039818Y003334D01*
X039933Y003671D02*
X040863Y002741D01*
X039933Y003671D02*
X039933Y006931D01*
X039620Y007297D02*
X038246Y007297D01*
X038404Y007139D02*
X039462Y007139D01*
X039453Y006980D02*
X038413Y006980D01*
X038413Y006822D02*
X039453Y006822D01*
X039522Y006663D02*
X038344Y006663D01*
X038185Y006505D02*
X039613Y006505D01*
X039613Y006346D02*
X035875Y006346D01*
X036133Y006187D02*
X039613Y006187D01*
X039613Y006029D02*
X036260Y006029D01*
X036326Y005870D02*
X039613Y005870D01*
X039613Y005712D02*
X036343Y005712D01*
X036343Y005553D02*
X039613Y005553D01*
X039613Y005395D02*
X036277Y005395D01*
X036723Y005236D02*
X036854Y005236D01*
X037152Y005236D02*
X039613Y005236D01*
X040253Y006346D02*
X040431Y006346D01*
X040253Y006505D02*
X044903Y006505D01*
X044903Y006663D02*
X040344Y006663D01*
X040413Y006822D02*
X044903Y006822D01*
X044903Y006980D02*
X040413Y006980D01*
X040404Y007139D02*
X044903Y007139D01*
X044903Y007297D02*
X040246Y007297D01*
X041182Y007614D02*
X044903Y007614D01*
X044903Y007456D02*
X037137Y007456D01*
X034620Y007297D02*
X033246Y007297D01*
X033404Y007139D02*
X034462Y007139D01*
X034453Y006980D02*
X033413Y006980D01*
X033413Y006822D02*
X034453Y006822D01*
X034522Y006663D02*
X033344Y006663D01*
X033185Y006505D02*
X034681Y006505D01*
X031730Y007456D02*
X027137Y007456D01*
X026133Y006187D02*
X030174Y006187D01*
X030046Y006029D02*
X026260Y006029D01*
X026326Y005870D02*
X029981Y005870D01*
X029963Y005712D02*
X026343Y005712D01*
X026343Y005553D02*
X029963Y005553D01*
X030029Y005395D02*
X026277Y005395D01*
X026723Y005236D02*
X026854Y005236D01*
X027152Y005236D02*
X027333Y005236D01*
X026313Y004602D02*
X023439Y004602D01*
X023597Y004444D02*
X026313Y004444D01*
X026367Y004285D02*
X023677Y004285D01*
X023733Y004126D02*
X026452Y004126D01*
X026611Y003968D02*
X023733Y003968D01*
X023715Y003809D02*
X027272Y003809D01*
X027337Y003651D02*
X023649Y003651D01*
X023531Y003492D02*
X027456Y003492D01*
X027671Y003334D02*
X026236Y003334D01*
X026254Y003326D02*
X026000Y003431D01*
X025726Y003431D01*
X025472Y003326D01*
X025278Y003132D01*
X025173Y002878D01*
X025173Y002604D01*
X025278Y002350D01*
X025472Y002156D01*
X025726Y002051D01*
X026000Y002051D01*
X026254Y002156D01*
X026448Y002350D01*
X026553Y002604D01*
X026553Y002878D01*
X026448Y003132D01*
X026254Y003326D01*
X026405Y003175D02*
X030321Y003175D01*
X030230Y003017D02*
X026496Y003017D01*
X026553Y002858D02*
X030173Y002858D01*
X030173Y002700D02*
X026553Y002700D01*
X026527Y002541D02*
X030199Y002541D01*
X030265Y002382D02*
X026461Y002382D01*
X026322Y002224D02*
X030405Y002224D01*
X030692Y002065D02*
X029279Y002065D01*
X029071Y002065D02*
X028955Y002065D01*
X028955Y002119D02*
X028884Y002110D01*
X028801Y002087D01*
X028721Y002054D01*
X028646Y002011D01*
X028577Y001958D01*
X028516Y001897D01*
X028463Y001829D01*
X028420Y001754D01*
X028387Y001674D01*
X028364Y001590D01*
X024662Y001590D01*
X024639Y001674D01*
X024606Y001754D01*
X024563Y001829D01*
X024510Y001897D01*
X024449Y001958D01*
X024381Y002011D01*
X024306Y002054D01*
X024226Y002087D01*
X024142Y002110D01*
X024071Y002119D01*
X024071Y001519D01*
X024671Y001519D01*
X024662Y001590D01*
X024609Y001748D02*
X028418Y001748D01*
X028364Y001590D02*
X028355Y001519D01*
X028955Y001519D01*
X028955Y002119D01*
X028955Y001907D02*
X029071Y001907D01*
X029071Y001748D02*
X028955Y001748D01*
X028955Y001590D02*
X029071Y001590D01*
X029071Y001273D02*
X028955Y001273D01*
X028955Y001114D02*
X029071Y001114D01*
X029071Y000956D02*
X028955Y000956D01*
X028588Y000956D02*
X024438Y000956D01*
X024575Y001114D02*
X028451Y001114D01*
X028380Y001273D02*
X024646Y001273D01*
X024071Y001273D02*
X023955Y001273D01*
X023955Y001114D02*
X024071Y001114D01*
X024071Y000956D02*
X023955Y000956D01*
X023588Y000956D02*
X019438Y000956D01*
X019575Y001114D02*
X023451Y001114D01*
X023380Y001273D02*
X019646Y001273D01*
X019671Y001519D02*
X019071Y001519D01*
X019071Y002119D01*
X019142Y002110D01*
X019226Y002087D01*
X019306Y002054D01*
X019381Y002011D01*
X019449Y001958D01*
X019510Y001897D01*
X019563Y001829D01*
X019606Y001754D01*
X019639Y001674D01*
X019662Y001590D01*
X023364Y001590D01*
X023355Y001519D01*
X023955Y001519D01*
X023955Y002119D01*
X023884Y002110D01*
X023801Y002087D01*
X023721Y002054D01*
X023646Y002011D01*
X023577Y001958D01*
X023516Y001897D01*
X023463Y001829D01*
X023420Y001754D01*
X023387Y001674D01*
X023364Y001590D01*
X023418Y001748D02*
X019609Y001748D01*
X019662Y001590D02*
X019671Y001519D01*
X019501Y001907D02*
X023525Y001907D01*
X023747Y002065D02*
X021035Y002065D01*
X021000Y002051D02*
X021254Y002156D01*
X021448Y002350D01*
X021553Y002604D01*
X021553Y002878D01*
X021448Y003132D01*
X021254Y003326D01*
X021000Y003431D01*
X020726Y003431D01*
X020472Y003326D01*
X020278Y003132D01*
X020173Y002878D01*
X020173Y002604D01*
X020278Y002350D01*
X020472Y002156D01*
X020726Y002051D01*
X021000Y002051D01*
X020692Y002065D02*
X019279Y002065D01*
X019071Y002065D02*
X018955Y002065D01*
X018955Y002119D02*
X018884Y002110D01*
X018801Y002087D01*
X018721Y002054D01*
X018646Y002011D01*
X018577Y001958D01*
X018516Y001897D01*
X018463Y001829D01*
X018420Y001754D01*
X018387Y001674D01*
X018364Y001590D01*
X014662Y001590D01*
X014639Y001674D01*
X014606Y001754D01*
X014563Y001829D01*
X014510Y001897D01*
X014449Y001958D01*
X014381Y002011D01*
X014306Y002054D01*
X014226Y002087D01*
X014142Y002110D01*
X014071Y002119D01*
X014071Y001519D01*
X014671Y001519D01*
X014662Y001590D01*
X014609Y001748D02*
X018418Y001748D01*
X018364Y001590D02*
X018355Y001519D01*
X018955Y001519D01*
X018955Y002119D01*
X018955Y001907D02*
X019071Y001907D01*
X019071Y001748D02*
X018955Y001748D01*
X018955Y001590D02*
X019071Y001590D01*
X019071Y001273D02*
X018955Y001273D01*
X018955Y001114D02*
X019071Y001114D01*
X019071Y000956D02*
X018955Y000956D01*
X018588Y000956D02*
X014438Y000956D01*
X014575Y001114D02*
X018451Y001114D01*
X018380Y001273D02*
X014646Y001273D01*
X014071Y001273D02*
X013955Y001273D01*
X013955Y001114D02*
X014071Y001114D01*
X014071Y000956D02*
X013955Y000956D01*
X013588Y000956D02*
X009438Y000956D01*
X009575Y001114D02*
X013451Y001114D01*
X013380Y001273D02*
X009646Y001273D01*
X009671Y001519D02*
X009662Y001590D01*
X013364Y001590D01*
X013355Y001519D01*
X013955Y001519D01*
X013955Y002119D01*
X013884Y002110D01*
X013801Y002087D01*
X013721Y002054D01*
X013646Y002011D01*
X013577Y001958D01*
X013516Y001897D01*
X013463Y001829D01*
X013420Y001754D01*
X013387Y001674D01*
X013364Y001590D01*
X013418Y001748D02*
X009609Y001748D01*
X009606Y001754D02*
X009563Y001829D01*
X009510Y001897D01*
X009449Y001958D01*
X009381Y002011D01*
X009306Y002054D01*
X009226Y002087D01*
X009142Y002110D01*
X009071Y002119D01*
X009071Y001519D01*
X009671Y001519D01*
X009662Y001590D02*
X009639Y001674D01*
X009606Y001754D01*
X009501Y001907D02*
X013525Y001907D01*
X013747Y002065D02*
X011035Y002065D01*
X011000Y002051D02*
X011254Y002156D01*
X011448Y002350D01*
X011553Y002604D01*
X011553Y002878D01*
X011448Y003132D01*
X011254Y003326D01*
X011000Y003431D01*
X010726Y003431D01*
X010472Y003326D01*
X010278Y003132D01*
X010173Y002878D01*
X010173Y002604D01*
X010278Y002350D01*
X010472Y002156D01*
X010726Y002051D01*
X011000Y002051D01*
X010692Y002065D02*
X009279Y002065D01*
X009071Y002065D02*
X008955Y002065D01*
X008955Y002119D02*
X008884Y002110D01*
X008801Y002087D01*
X008721Y002054D01*
X008646Y002011D01*
X008577Y001958D01*
X008516Y001897D01*
X008463Y001829D01*
X008420Y001754D01*
X008387Y001674D01*
X008364Y001590D01*
X004662Y001590D01*
X004639Y001674D01*
X004606Y001754D01*
X004563Y001829D01*
X004510Y001897D01*
X004449Y001958D01*
X004381Y002011D01*
X004306Y002054D01*
X004226Y002087D01*
X004142Y002110D01*
X004071Y002119D01*
X004071Y001519D01*
X004671Y001519D01*
X004662Y001590D01*
X004609Y001748D02*
X008418Y001748D01*
X008364Y001590D02*
X008355Y001519D01*
X008955Y001519D01*
X008955Y002119D01*
X008955Y001907D02*
X009071Y001907D01*
X009071Y001748D02*
X008955Y001748D01*
X008955Y001590D02*
X009071Y001590D01*
X009071Y001273D02*
X008955Y001273D01*
X008955Y001114D02*
X009071Y001114D01*
X009071Y000956D02*
X008955Y000956D01*
X008588Y000956D02*
X004438Y000956D01*
X004575Y001114D02*
X008451Y001114D01*
X008380Y001273D02*
X004646Y001273D01*
X004071Y001273D02*
X003955Y001273D01*
X003955Y001114D02*
X004071Y001114D01*
X004071Y000956D02*
X003955Y000956D01*
X003588Y000956D02*
X001808Y000956D01*
X001593Y001114D02*
X003451Y001114D01*
X003380Y001273D02*
X001421Y001273D01*
X001191Y001590D02*
X003364Y001590D01*
X003355Y001519D01*
X003955Y001519D01*
X003955Y002119D01*
X003884Y002110D01*
X003801Y002087D01*
X003721Y002054D01*
X003646Y002011D01*
X003577Y001958D01*
X003516Y001897D01*
X003463Y001829D01*
X003420Y001754D01*
X003387Y001674D01*
X003364Y001590D01*
X003418Y001748D02*
X001115Y001748D01*
X001050Y001907D02*
X003525Y001907D01*
X003747Y002065D02*
X001014Y002065D01*
X000977Y002224D02*
X005405Y002224D01*
X005472Y002156D02*
X005726Y002051D01*
X006000Y002051D01*
X006254Y002156D01*
X006448Y002350D01*
X006553Y002604D01*
X006553Y002878D01*
X006448Y003132D01*
X006254Y003326D01*
X006000Y003431D01*
X005726Y003431D01*
X005472Y003326D01*
X005278Y003132D01*
X005173Y002878D01*
X005173Y002604D01*
X005278Y002350D01*
X005472Y002156D01*
X005692Y002065D02*
X004279Y002065D01*
X004071Y002065D02*
X003955Y002065D01*
X003955Y001907D02*
X004071Y001907D01*
X004071Y001748D02*
X003955Y001748D01*
X003955Y001590D02*
X004071Y001590D01*
X004501Y001907D02*
X008525Y001907D01*
X008747Y002065D02*
X006035Y002065D01*
X006322Y002224D02*
X010405Y002224D01*
X010265Y002382D02*
X006461Y002382D01*
X006527Y002541D02*
X010199Y002541D01*
X010173Y002700D02*
X006553Y002700D01*
X006553Y002858D02*
X010173Y002858D01*
X010230Y003017D02*
X006496Y003017D01*
X006405Y003175D02*
X010321Y003175D01*
X010491Y003334D02*
X008315Y003334D01*
X008531Y003492D02*
X012456Y003492D01*
X012337Y003651D02*
X008649Y003651D01*
X008715Y003809D02*
X012272Y003809D01*
X012671Y003334D02*
X011236Y003334D01*
X011405Y003175D02*
X015321Y003175D01*
X015278Y003132D02*
X015173Y002878D01*
X015173Y002604D01*
X015278Y002350D01*
X015472Y002156D01*
X015726Y002051D01*
X016000Y002051D01*
X016254Y002156D01*
X016448Y002350D01*
X016553Y002604D01*
X016553Y002878D01*
X016448Y003132D01*
X016254Y003326D01*
X016000Y003431D01*
X015726Y003431D01*
X015472Y003326D01*
X015278Y003132D01*
X015230Y003017D02*
X011496Y003017D01*
X011553Y002858D02*
X015173Y002858D01*
X015173Y002700D02*
X011553Y002700D01*
X011527Y002541D02*
X015199Y002541D01*
X015265Y002382D02*
X011461Y002382D01*
X011322Y002224D02*
X015405Y002224D01*
X015692Y002065D02*
X014279Y002065D01*
X014071Y002065D02*
X013955Y002065D01*
X013955Y001907D02*
X014071Y001907D01*
X014071Y001748D02*
X013955Y001748D01*
X013955Y001590D02*
X014071Y001590D01*
X014501Y001907D02*
X018525Y001907D01*
X018747Y002065D02*
X016035Y002065D01*
X016322Y002224D02*
X020405Y002224D01*
X020265Y002382D02*
X016461Y002382D01*
X016527Y002541D02*
X020199Y002541D01*
X020173Y002700D02*
X016553Y002700D01*
X016553Y002858D02*
X020173Y002858D01*
X020230Y003017D02*
X016496Y003017D01*
X016405Y003175D02*
X020321Y003175D01*
X020491Y003334D02*
X018315Y003334D01*
X018531Y003492D02*
X022456Y003492D01*
X022337Y003651D02*
X018649Y003651D01*
X018715Y003809D02*
X022272Y003809D01*
X022671Y003334D02*
X021236Y003334D01*
X021405Y003175D02*
X025321Y003175D01*
X025230Y003017D02*
X021496Y003017D01*
X021553Y002858D02*
X025173Y002858D01*
X025173Y002700D02*
X021553Y002700D01*
X021527Y002541D02*
X025199Y002541D01*
X025265Y002382D02*
X021461Y002382D01*
X021322Y002224D02*
X025405Y002224D01*
X025692Y002065D02*
X024279Y002065D01*
X024071Y002065D02*
X023955Y002065D01*
X023955Y001907D02*
X024071Y001907D01*
X024071Y001748D02*
X023955Y001748D01*
X023955Y001590D02*
X024071Y001590D01*
X024501Y001907D02*
X028525Y001907D01*
X028747Y002065D02*
X026035Y002065D01*
X025491Y003334D02*
X023315Y003334D01*
X021611Y003968D02*
X018733Y003968D01*
X018733Y004126D02*
X021452Y004126D01*
X021367Y004285D02*
X018677Y004285D01*
X018597Y004444D02*
X021313Y004444D01*
X021313Y004602D02*
X018439Y004602D01*
X017333Y005236D02*
X017152Y005236D01*
X016854Y005236D02*
X016723Y005236D01*
X016277Y005395D02*
X020029Y005395D01*
X019963Y005553D02*
X016343Y005553D01*
X016343Y005712D02*
X019963Y005712D01*
X019981Y005870D02*
X016326Y005870D01*
X016260Y006029D02*
X020046Y006029D01*
X020174Y006187D02*
X016133Y006187D01*
X015875Y006346D02*
X020431Y006346D01*
X020185Y006505D02*
X022681Y006505D01*
X022522Y006663D02*
X020344Y006663D01*
X020413Y006732D02*
X020132Y006451D01*
X019734Y006451D01*
X019453Y006732D01*
X019453Y007130D01*
X019734Y007411D01*
X020132Y007411D01*
X020413Y007130D01*
X020413Y006732D01*
X020413Y006822D02*
X022453Y006822D01*
X022453Y006980D02*
X020413Y006980D01*
X020404Y007139D02*
X022462Y007139D01*
X022620Y007297D02*
X020246Y007297D01*
X020684Y007614D02*
X017295Y007614D01*
X017413Y007773D02*
X020533Y007773D01*
X020533Y007766D02*
X020767Y007531D01*
X020933Y007531D01*
X020933Y007931D01*
X020933Y007931D01*
X020533Y007931D01*
X020533Y007766D01*
X020533Y007931D02*
X020933Y007931D01*
X020933Y007931D01*
X020933Y007531D01*
X021099Y007531D01*
X021333Y007766D01*
X021333Y007931D01*
X020934Y007931D01*
X020934Y007931D01*
X021333Y007931D01*
X021333Y008097D01*
X021099Y008331D01*
X020933Y008331D01*
X020767Y008331D01*
X020533Y008097D01*
X020533Y007931D01*
X017413Y007931D01*
X017413Y008090D02*
X020533Y008090D01*
X020685Y008249D02*
X017295Y008249D01*
X016572Y008249D02*
X016181Y008249D01*
X016259Y008407D02*
X015608Y008407D01*
X015770Y008566D02*
X016096Y008566D01*
X016333Y008090D02*
X016453Y008090D01*
X016453Y007931D02*
X016333Y007931D01*
X016333Y007773D02*
X016453Y007773D01*
X017137Y007456D02*
X021730Y007456D01*
X021571Y007614D02*
X021182Y007614D01*
X021333Y007773D02*
X021453Y007773D01*
X021453Y007931D02*
X021333Y007931D01*
X021333Y008090D02*
X021453Y008090D01*
X021572Y008249D02*
X021181Y008249D01*
X021259Y008407D02*
X020608Y008407D01*
X020770Y008566D02*
X021096Y008566D01*
X020933Y008331D02*
X020933Y007932D01*
X020933Y008331D01*
X020933Y008249D02*
X020933Y008249D01*
X020933Y008090D02*
X020933Y008090D01*
X020933Y007932D02*
X020933Y007932D01*
X020933Y007773D02*
X020933Y007773D01*
X020933Y007614D02*
X020933Y007614D01*
X019620Y007297D02*
X018246Y007297D01*
X018132Y007411D02*
X017734Y007411D01*
X017453Y007130D01*
X017453Y006732D01*
X017734Y006451D01*
X018132Y006451D01*
X018413Y006732D01*
X018413Y007130D01*
X018132Y007411D01*
X018404Y007139D02*
X019462Y007139D01*
X019453Y006980D02*
X018413Y006980D01*
X018413Y006822D02*
X019453Y006822D01*
X019522Y006663D02*
X018344Y006663D01*
X018185Y006505D02*
X019681Y006505D01*
X021260Y006029D02*
X025046Y006029D01*
X024981Y005870D02*
X021326Y005870D01*
X021343Y005712D02*
X024963Y005712D01*
X024963Y005553D02*
X021343Y005553D01*
X021277Y005395D02*
X025029Y005395D01*
X022333Y005236D02*
X022152Y005236D01*
X021854Y005236D02*
X021723Y005236D01*
X017681Y006505D02*
X015185Y006505D01*
X015344Y006663D02*
X017522Y006663D01*
X017453Y006822D02*
X015413Y006822D01*
X015413Y006980D02*
X017453Y006980D01*
X017462Y007139D02*
X015404Y007139D01*
X015246Y007297D02*
X017620Y007297D01*
X015431Y006346D02*
X010875Y006346D01*
X011133Y006187D02*
X015174Y006187D01*
X015046Y006029D02*
X011260Y006029D01*
X011326Y005870D02*
X014981Y005870D01*
X014963Y005712D02*
X011343Y005712D01*
X011343Y005553D02*
X014963Y005553D01*
X015029Y005395D02*
X011277Y005395D01*
X011623Y004931D02*
X007433Y004931D01*
X007053Y004551D01*
X007003Y004551D01*
X006623Y004931D01*
X002433Y004931D01*
X002053Y004551D01*
X002003Y004551D01*
X001554Y005078D02*
X000963Y005078D01*
X000963Y005236D02*
X001854Y005236D01*
X002152Y005236D02*
X002333Y005236D01*
X001409Y004919D02*
X000963Y004919D01*
X000963Y004761D02*
X001343Y004761D01*
X001313Y004602D02*
X000963Y004602D01*
X000963Y004444D02*
X001313Y004444D01*
X001367Y004285D02*
X000963Y004285D01*
X000963Y004126D02*
X001452Y004126D01*
X001611Y003968D02*
X000963Y003968D01*
X000963Y003809D02*
X002272Y003809D01*
X002337Y003651D02*
X000963Y003651D01*
X000963Y003492D02*
X002456Y003492D01*
X002671Y003334D02*
X000963Y003334D01*
X000963Y003175D02*
X005321Y003175D01*
X005230Y003017D02*
X000963Y003017D01*
X000963Y002858D02*
X005173Y002858D01*
X005173Y002700D02*
X000963Y002700D01*
X000963Y002541D02*
X005199Y002541D01*
X005265Y002382D02*
X000966Y002382D01*
X002162Y000797D02*
X043704Y000797D01*
X039662Y001590D02*
X039639Y001674D01*
X039606Y001754D01*
X040975Y005078D02*
X044903Y005078D01*
X044903Y005236D02*
X041174Y005236D01*
X041277Y005395D02*
X044903Y005395D01*
X044903Y005553D02*
X041343Y005553D01*
X041343Y005712D02*
X044903Y005712D01*
X044903Y005870D02*
X041326Y005870D01*
X041260Y006029D02*
X044903Y006029D01*
X044903Y006187D02*
X041133Y006187D01*
X040875Y006346D02*
X044903Y006346D01*
X044903Y007773D02*
X041333Y007773D01*
X041333Y007931D02*
X044903Y007931D01*
X044903Y008090D02*
X041333Y008090D01*
X036534Y010151D02*
X036332Y010151D01*
X036413Y010310D02*
X036453Y010310D01*
X036453Y010468D02*
X036413Y010468D01*
X036413Y010627D02*
X036453Y010627D01*
X036608Y010785D02*
X036258Y010785D01*
X033809Y011102D02*
X033170Y011102D01*
X033328Y011261D02*
X033651Y011261D01*
X033492Y011419D02*
X033333Y011419D01*
X033333Y011578D02*
X033334Y011578D01*
X032933Y011578D02*
X032933Y011578D01*
X032933Y011419D02*
X032933Y011419D01*
X032933Y011261D02*
X032933Y011261D01*
X032933Y011102D02*
X032933Y011102D01*
X026433Y010681D02*
X026183Y010931D01*
X026183Y011431D01*
X025683Y010681D02*
X025933Y010431D01*
X025683Y010681D02*
X025683Y012681D01*
X023863Y013067D02*
X023849Y013081D01*
X023683Y013081D01*
X023517Y013081D01*
X023503Y013067D01*
X023503Y013299D01*
X023614Y013410D01*
X023704Y013500D01*
X023753Y013617D01*
X023753Y013746D01*
X023838Y013711D01*
X024011Y013711D01*
X023912Y013612D01*
X023863Y013495D01*
X023863Y013367D01*
X023863Y013067D01*
X023863Y013163D02*
X023503Y013163D01*
X023526Y013322D02*
X023863Y013322D01*
X023863Y013480D02*
X023685Y013480D01*
X023753Y013639D02*
X023938Y013639D01*
X023683Y013081D02*
X023683Y012682D01*
X023683Y013081D01*
X023683Y013005D02*
X023683Y013005D01*
X023683Y012846D02*
X023683Y012846D01*
X023683Y012688D02*
X023683Y012688D01*
X023683Y012682D02*
X023683Y012682D01*
X025183Y011431D02*
X025183Y010931D01*
X024933Y010681D01*
X023933Y010681D01*
X023683Y010931D01*
X021608Y010785D02*
X021258Y010785D01*
X021413Y010627D02*
X021453Y010627D01*
X021453Y010468D02*
X021413Y010468D01*
X021413Y010310D02*
X021453Y010310D01*
X021534Y010151D02*
X021332Y010151D01*
X016433Y015181D02*
X015683Y015931D01*
X013683Y015931D01*
X016830Y018237D02*
X017423Y018237D01*
X017517Y018331D02*
X017283Y018097D01*
X017283Y017931D01*
X017283Y017784D01*
X016386Y018681D01*
X018981Y018681D01*
X018662Y018362D01*
X018613Y018245D01*
X018613Y018117D01*
X018613Y018030D01*
X018526Y017943D01*
X018453Y017767D01*
X018453Y017751D01*
X018069Y017751D01*
X018083Y017766D01*
X018083Y017931D01*
X017684Y017931D01*
X017684Y017931D01*
X018083Y017931D01*
X018083Y018097D01*
X017849Y018331D01*
X017683Y018331D01*
X017517Y018331D01*
X017683Y018331D02*
X017683Y017932D01*
X017683Y017932D01*
X017683Y018331D01*
X017683Y018237D02*
X017683Y018237D01*
X017683Y018078D02*
X017683Y018078D01*
X017683Y017931D02*
X017283Y017931D01*
X017683Y017931D01*
X017683Y017931D01*
X017283Y017920D02*
X017147Y017920D01*
X017283Y018078D02*
X016989Y018078D01*
X016672Y018395D02*
X018695Y018395D01*
X018613Y018237D02*
X017943Y018237D01*
X018083Y018078D02*
X018613Y018078D01*
X018517Y017920D02*
X018083Y017920D01*
X018079Y017761D02*
X018453Y017761D01*
X018933Y017431D02*
X017183Y017431D01*
X015933Y018681D01*
X009683Y018681D01*
X015484Y019822D02*
X015583Y019822D01*
X016271Y019822D02*
X016371Y019822D01*
X017059Y019822D02*
X017158Y019822D01*
X017846Y019822D02*
X017945Y019822D01*
X018633Y019822D02*
X018733Y019822D01*
X019421Y019822D02*
X019520Y019822D01*
X020208Y019822D02*
X020308Y019822D01*
X020996Y019822D02*
X021095Y019822D01*
X019853Y018554D02*
X019758Y018554D01*
X019695Y018395D02*
X019600Y018395D01*
X019613Y018237D02*
X019441Y018237D01*
X019283Y018078D02*
X019613Y018078D01*
X019517Y017920D02*
X019350Y017920D01*
X019413Y017761D02*
X019453Y017761D01*
X019453Y017603D02*
X019413Y017603D01*
X018853Y018554D02*
X016513Y018554D01*
X010534Y010151D02*
X010343Y010151D01*
X009620Y007297D02*
X008246Y007297D01*
X008404Y007139D02*
X009462Y007139D01*
X009453Y006980D02*
X008413Y006980D01*
X008413Y006822D02*
X009453Y006822D01*
X009522Y006663D02*
X008344Y006663D01*
X008185Y006505D02*
X009681Y006505D01*
X008439Y004602D02*
X011313Y004602D01*
X011313Y004444D02*
X008597Y004444D01*
X008677Y004285D02*
X011367Y004285D01*
X011452Y004126D02*
X008733Y004126D01*
X008733Y003968D02*
X011611Y003968D01*
X013315Y003334D02*
X015491Y003334D01*
X016236Y003334D02*
X017671Y003334D01*
X017456Y003492D02*
X013531Y003492D01*
X013649Y003651D02*
X017337Y003651D01*
X017272Y003809D02*
X013715Y003809D01*
X013733Y003968D02*
X016611Y003968D01*
X016452Y004126D02*
X013733Y004126D01*
X013677Y004285D02*
X016367Y004285D01*
X016313Y004444D02*
X013597Y004444D01*
X013439Y004602D02*
X016313Y004602D01*
X007671Y003334D02*
X006236Y003334D01*
X006611Y003968D02*
X003733Y003968D01*
X003733Y004126D02*
X006452Y004126D01*
X006367Y004285D02*
X003677Y004285D01*
X003597Y004444D02*
X006313Y004444D01*
X006313Y004602D02*
X003439Y004602D01*
X003715Y003809D02*
X007272Y003809D01*
X007337Y003651D02*
X003649Y003651D01*
X003531Y003492D02*
X007456Y003492D01*
X005491Y003334D02*
X003315Y003334D01*
X006723Y005236D02*
X006854Y005236D01*
X007152Y005236D02*
X007333Y005236D01*
X005933Y007614D02*
X005933Y007614D01*
X005933Y007773D02*
X005933Y007773D01*
X028315Y003334D02*
X030491Y003334D01*
X031236Y003334D02*
X032671Y003334D01*
X032456Y003492D02*
X028531Y003492D01*
X028649Y003651D02*
X032337Y003651D01*
X032272Y003809D02*
X028715Y003809D01*
X028733Y003968D02*
X031611Y003968D01*
X031452Y004126D02*
X028733Y004126D01*
X028677Y004285D02*
X031367Y004285D01*
X031313Y004444D02*
X028597Y004444D01*
X028439Y004602D02*
X031313Y004602D01*
X029501Y001907D02*
X033525Y001907D01*
X033380Y001273D02*
X029646Y001273D01*
X029575Y001114D02*
X033451Y001114D01*
X033588Y000956D02*
X029438Y000956D01*
X041003Y014749D02*
X041437Y014749D01*
X041278Y014907D02*
X041003Y014907D01*
X041003Y015066D02*
X041203Y015066D01*
X041203Y015224D02*
X041003Y015224D01*
X041003Y015383D02*
X041206Y015383D01*
X041365Y015542D02*
X041003Y015542D01*
X042898Y016840D02*
X042898Y016840D01*
X042898Y016840D01*
X043505Y017191D02*
X043505Y017191D01*
X043627Y017191D02*
X043627Y017191D01*
X043861Y017191D02*
X043861Y017191D01*
X029253Y027591D02*
X026613Y027591D01*
X026454Y027749D02*
X029412Y027749D01*
X028974Y028066D02*
X026889Y028066D01*
X026673Y028066D02*
X026633Y028066D01*
X026633Y028225D02*
X026673Y028225D01*
X026673Y028384D02*
X026633Y028384D01*
X026633Y028542D02*
X025662Y028542D01*
X025300Y028225D02*
X024479Y028225D01*
X024637Y028066D02*
X025458Y028066D01*
X025617Y027908D02*
X024796Y027908D01*
X024954Y027749D02*
X025776Y027749D01*
X025934Y027591D02*
X025113Y027591D01*
X025498Y027432D02*
X026093Y027432D01*
X026251Y027274D02*
X025583Y027274D01*
X025583Y027115D02*
X026410Y027115D01*
X026568Y026957D02*
X025524Y026957D01*
X025366Y026798D02*
X026727Y026798D01*
X027079Y028225D02*
X028780Y028225D01*
X028705Y028384D02*
X027159Y028384D01*
X027159Y028701D02*
X028706Y028701D01*
X028683Y028542D02*
X026673Y028542D01*
X026673Y028701D02*
X026633Y028701D01*
X026633Y028859D02*
X026673Y028859D01*
X026673Y029018D02*
X026633Y029018D01*
X026885Y029018D02*
X028979Y029018D01*
X028782Y028859D02*
X027077Y028859D01*
X025141Y028384D02*
X024320Y028384D01*
X024162Y028542D02*
X024983Y028542D01*
X019628Y028384D02*
X019313Y028384D01*
X019462Y028542D02*
X019479Y028542D01*
X018840Y028384D02*
X018526Y028384D01*
X018675Y028542D02*
X018692Y028542D01*
X018053Y028384D02*
X017738Y028384D01*
X017887Y028542D02*
X017904Y028542D01*
X017266Y028384D02*
X016951Y028384D01*
X017100Y028542D02*
X017117Y028542D01*
X017136Y029018D02*
X017081Y029018D01*
X016864Y029176D02*
X017353Y029176D01*
X016565Y029176D02*
X016077Y029176D01*
X016294Y029018D02*
X016348Y029018D01*
X016329Y028542D02*
X016312Y028542D01*
X016164Y028384D02*
X016478Y028384D01*
X016186Y027749D02*
X012681Y027749D01*
X012833Y027591D02*
X016033Y027591D01*
X007319Y028052D02*
X007319Y028052D01*
X007183Y027849D02*
X006366Y028665D01*
X006552Y027749D02*
X006936Y027749D01*
X007183Y027849D02*
X007183Y027431D01*
X004490Y025054D02*
X002343Y025054D01*
X002343Y024896D02*
X004332Y024896D01*
X004283Y024737D02*
X002319Y024737D01*
X002160Y024579D02*
X004283Y024579D01*
X035789Y030445D02*
X036077Y030445D01*
X035957Y030286D02*
X035909Y030286D01*
X036789Y030445D02*
X037077Y030445D01*
X036957Y030286D02*
X036909Y030286D01*
D22*
X035183Y018431D03*
X035683Y017931D03*
X032183Y015931D03*
X029933Y015931D03*
X028808Y014556D03*
X026808Y015056D03*
X035433Y013931D03*
X017652Y015962D03*
X016433Y015181D03*
X013683Y015931D03*
X011433Y018181D03*
X008683Y019681D03*
X009683Y023181D03*
X001558Y011556D03*
D23*
X009183Y020931D03*
X023933Y025431D03*
X029183Y024681D03*
M02*
