G75*
G70*
%OFA0B0*%
%FSLAX24Y24*%
%IPPOS*%
%LPD*%
%AMOC8*
5,1,8,0,0,1.08239X$1,22.5*
%
%ADD10C,0.0960*%
%ADD11C,0.1060*%
%ADD12C,0.0800*%
%ADD13OC8,0.0540*%
%ADD14OC8,0.0560*%
%ADD15C,0.1360*%
%ADD16C,0.0847*%
%ADD17C,0.0620*%
%ADD18C,0.0651*%
%ADD19C,0.0540*%
%ADD20C,0.0720*%
%ADD21C,0.0800*%
%ADD22C,0.0457*%
%ADD23C,0.0496*%
D10*
X005863Y002741D03*
X007003Y004551D03*
X005653Y005691D03*
X002003Y004551D03*
X010653Y005691D03*
X012003Y004551D03*
X010863Y002741D03*
X015863Y002741D03*
X017003Y004551D03*
X015653Y005691D03*
X020653Y005691D03*
X022003Y004551D03*
X020863Y002741D03*
X025653Y005691D03*
X027003Y004551D03*
X025863Y002741D03*
X030653Y005691D03*
X032003Y004551D03*
X030863Y002741D03*
X035653Y005691D03*
X037003Y004551D03*
X035863Y002741D03*
X040653Y005691D03*
X040863Y002741D03*
D11*
X004013Y001461D03*
X002993Y004001D03*
X007993Y004001D03*
X009013Y001461D03*
X012993Y004001D03*
X014013Y001461D03*
X017993Y004001D03*
X019013Y001461D03*
X022993Y004001D03*
X024013Y001461D03*
X027993Y004001D03*
X029013Y001461D03*
X032993Y004001D03*
X034013Y001461D03*
X037993Y004001D03*
X039013Y001461D03*
D12*
X039433Y029311D02*
X039433Y030051D01*
X038433Y030051D02*
X038433Y029311D01*
X037433Y029311D02*
X037433Y030051D01*
X036433Y030051D02*
X036433Y029311D01*
X035433Y029311D02*
X035433Y030051D01*
X040433Y030051D02*
X040433Y029311D01*
D13*
X035433Y027931D03*
X033433Y027931D03*
X029183Y027181D03*
X029183Y025931D03*
X025183Y025931D03*
X025183Y027181D03*
X016433Y027431D03*
X016433Y026181D03*
X012433Y026181D03*
X012433Y027431D03*
X008683Y024681D03*
X007183Y025431D03*
X004683Y024681D03*
X004683Y023431D03*
X004683Y022181D03*
X003933Y020931D03*
X003933Y019681D03*
X005183Y017931D03*
X005183Y016681D03*
X005183Y015181D03*
X005183Y013931D03*
X004933Y011431D03*
X005933Y010431D03*
X006933Y010431D03*
X007933Y011431D03*
X009933Y011431D03*
X010933Y010431D03*
X011933Y010431D03*
X011933Y009181D03*
X010933Y009181D03*
X010933Y007931D03*
X011933Y007931D03*
X012933Y006931D03*
X014933Y006931D03*
X015933Y007931D03*
X016933Y007931D03*
X017933Y006931D03*
X019933Y006931D03*
X020933Y007931D03*
X021933Y007931D03*
X022933Y006931D03*
X024933Y006931D03*
X025933Y007931D03*
X026933Y007931D03*
X027933Y006931D03*
X029933Y006931D03*
X030933Y007931D03*
X031933Y007931D03*
X032933Y006931D03*
X034933Y006931D03*
X035933Y007931D03*
X036933Y007931D03*
X037933Y006931D03*
X039933Y006931D03*
X040933Y007931D03*
X040933Y009181D03*
X040933Y010431D03*
X039933Y011431D03*
X039433Y012681D03*
X037933Y011431D03*
X036933Y010431D03*
X035933Y010431D03*
X034933Y011431D03*
X032933Y011431D03*
X031933Y010431D03*
X030933Y010431D03*
X030933Y009181D03*
X031933Y009181D03*
X035933Y009181D03*
X036933Y009181D03*
X037433Y012681D03*
X037683Y013931D03*
X037683Y015181D03*
X037683Y016681D03*
X037683Y017931D03*
X041683Y017931D03*
X041683Y016681D03*
X041683Y015181D03*
X041683Y013931D03*
X033183Y013931D03*
X033183Y015181D03*
X033183Y016681D03*
X033183Y017931D03*
X032183Y019181D03*
X032183Y020431D03*
X030183Y020431D03*
X028933Y019681D03*
X030183Y019181D03*
X029183Y017931D03*
X028433Y017431D03*
X027683Y017931D03*
X027683Y016931D03*
X029183Y016681D03*
X029183Y015181D03*
X029183Y013931D03*
X028933Y012681D03*
X030933Y012681D03*
X026933Y010431D03*
X025933Y010431D03*
X025933Y009181D03*
X026933Y009181D03*
X025683Y012681D03*
X023683Y012681D03*
X020933Y012681D03*
X018933Y012681D03*
X017683Y013931D03*
X017683Y015181D03*
X017683Y016681D03*
X017683Y017931D03*
X013683Y017931D03*
X013683Y016681D03*
X013683Y015181D03*
X013683Y013931D03*
X013933Y012681D03*
X015933Y012681D03*
X015933Y010431D03*
X016933Y010431D03*
X016933Y009181D03*
X015933Y009181D03*
X011433Y011681D03*
X011433Y013681D03*
X009183Y013931D03*
X009183Y015181D03*
X009183Y016681D03*
X009183Y017931D03*
X007933Y019681D03*
X007933Y020931D03*
X008683Y022181D03*
X008683Y023431D03*
X007183Y027431D03*
X024933Y019681D03*
X021933Y010431D03*
X020933Y010431D03*
X020933Y009181D03*
X021933Y009181D03*
X009933Y006931D03*
X007933Y006931D03*
X006933Y007931D03*
X005933Y007931D03*
X004933Y006931D03*
X002933Y006931D03*
X001933Y007931D03*
X001933Y009181D03*
X001933Y010431D03*
X002933Y011431D03*
X005933Y009181D03*
X006933Y009181D03*
D14*
X013433Y011431D03*
X014433Y011431D03*
X015433Y011431D03*
X016433Y011431D03*
X017433Y011431D03*
X018433Y011431D03*
X019433Y011431D03*
X020433Y011431D03*
X022183Y011431D03*
X023183Y011431D03*
X024183Y011431D03*
X025183Y011431D03*
X026183Y011431D03*
X027183Y011431D03*
X028183Y011431D03*
X029183Y011431D03*
X030683Y029681D03*
X031683Y029681D03*
X032933Y029681D03*
X033933Y029681D03*
X025433Y030431D03*
X024433Y030431D03*
X023433Y030431D03*
X022433Y030431D03*
X021433Y030431D03*
X020433Y030431D03*
X018433Y030431D03*
X017433Y030431D03*
X016433Y030431D03*
X015433Y030431D03*
X014433Y030431D03*
X013433Y030431D03*
X001933Y024931D03*
X001933Y023931D03*
X001933Y022931D03*
X001933Y021931D03*
X001933Y020931D03*
X001933Y019931D03*
X001933Y018931D03*
X001933Y017931D03*
X001933Y016931D03*
X001933Y015931D03*
D15*
X002283Y013931D03*
X043683Y016181D03*
D16*
X006366Y028272D02*
X006366Y029059D01*
X003886Y029059D02*
X003886Y028272D01*
X004791Y026697D02*
X005579Y026697D01*
D17*
X015140Y028762D03*
X015927Y028762D03*
X016715Y028762D03*
X017502Y028762D03*
X018289Y028762D03*
X019077Y028762D03*
X019864Y028762D03*
X020652Y028762D03*
X021439Y028762D03*
X022226Y028762D03*
X022226Y020100D03*
X021439Y020100D03*
X020652Y020100D03*
X019864Y020100D03*
X019077Y020100D03*
X018289Y020100D03*
X017502Y020100D03*
X016715Y020100D03*
X015927Y020100D03*
X015140Y020100D03*
D18*
X041388Y024931D02*
X041978Y024931D01*
X041978Y025931D02*
X041388Y025931D01*
X041388Y026931D02*
X041978Y026931D01*
X041978Y027931D02*
X041388Y027931D01*
D19*
X025933Y017671D02*
X025933Y017191D01*
X024933Y017191D02*
X024933Y017671D01*
X023933Y017671D02*
X023933Y017191D01*
X022933Y017191D02*
X022933Y017671D01*
X021933Y017671D02*
X021933Y017191D01*
X020933Y017191D02*
X020933Y017671D01*
X019933Y017671D02*
X019933Y017191D01*
X018933Y017191D02*
X018933Y017671D01*
X018933Y014671D02*
X018933Y014191D01*
X019933Y014191D02*
X019933Y014671D01*
X020933Y014671D02*
X020933Y014191D01*
X021933Y014191D02*
X021933Y014671D01*
X022933Y014671D02*
X022933Y014191D01*
X023933Y014191D02*
X023933Y014671D01*
X024933Y014671D02*
X024933Y014191D01*
X025933Y014191D02*
X025933Y014671D01*
D20*
X013183Y023431D03*
X013183Y024431D03*
X010683Y021931D03*
X010683Y020931D03*
D21*
X026653Y028541D03*
X029213Y028541D03*
X029213Y030321D03*
X026653Y030321D03*
D22*
X035183Y018431D03*
X035683Y017931D03*
X032183Y015931D03*
X029933Y015931D03*
X028808Y014556D03*
X026808Y015056D03*
X035433Y013931D03*
X017652Y015962D03*
X016433Y015181D03*
X013683Y015931D03*
X011433Y018181D03*
X008683Y019681D03*
X009683Y023181D03*
X001558Y011556D03*
D23*
X009183Y020931D03*
X023933Y025431D03*
X029183Y024681D03*
M02*
