G75*
G70*
%OFA0B0*%
%FSLAX24Y24*%
%IPPOS*%
%LPD*%
%AMOC8*
5,1,8,0,0,1.08239X$1,22.5*
%
%ADD10C,0.0960*%
%ADD11C,0.1060*%
%ADD12C,0.0800*%
%ADD13OC8,0.0540*%
%ADD14OC8,0.0560*%
%ADD15C,0.0651*%
%ADD16C,0.0500*%
%ADD17R,0.0690X0.0520*%
%ADD18R,0.0720X0.0060*%
%ADD19C,0.1360*%
%ADD20C,0.0847*%
%ADD21R,0.0650X0.0850*%
%ADD22R,0.1560X0.0850*%
%ADD23C,0.0620*%
%ADD24C,0.0651*%
%ADD25R,0.0300X0.0930*%
%ADD26R,0.0520X0.0690*%
%ADD27R,0.0060X0.0720*%
%ADD28C,0.0540*%
%ADD29C,0.0720*%
%ADD30C,0.0800*%
%ADD31C,0.0457*%
%ADD32C,0.0496*%
D10*
X006619Y005251D03*
X007759Y007061D03*
X006409Y008201D03*
X002759Y007061D03*
X011409Y008201D03*
X012759Y007061D03*
X011619Y005251D03*
X016409Y008201D03*
X017759Y007061D03*
X016619Y005251D03*
X021619Y005251D03*
X022759Y007061D03*
X021409Y008201D03*
X026409Y008201D03*
X027759Y007061D03*
X026619Y005251D03*
X031409Y008201D03*
X032759Y007061D03*
X031619Y005251D03*
X036409Y008201D03*
X037759Y007061D03*
X036619Y005251D03*
X041619Y005251D03*
X041409Y008201D03*
D11*
X004769Y003971D03*
X003749Y006511D03*
X008749Y006511D03*
X009769Y003971D03*
X013749Y006511D03*
X014769Y003971D03*
X018749Y006511D03*
X019769Y003971D03*
X023749Y006511D03*
X024769Y003971D03*
X028749Y006511D03*
X029769Y003971D03*
X033749Y006511D03*
X034769Y003971D03*
X038749Y006511D03*
X039769Y003971D03*
D12*
X040189Y031821D02*
X040189Y032561D01*
X039189Y032561D02*
X039189Y031821D01*
X038189Y031821D02*
X038189Y032561D01*
X037189Y032561D02*
X037189Y031821D01*
X036189Y031821D02*
X036189Y032561D01*
X041189Y032561D02*
X041189Y031821D01*
D13*
X036189Y030441D03*
X034189Y030441D03*
X029939Y029691D03*
X029939Y028441D03*
X025939Y028441D03*
X025939Y029691D03*
X017189Y029941D03*
X017189Y028691D03*
X013189Y028691D03*
X013189Y029941D03*
X009439Y027191D03*
X007939Y027941D03*
X005439Y027191D03*
X005439Y025941D03*
X005439Y024691D03*
X004689Y023441D03*
X004689Y022191D03*
X005939Y020441D03*
X005939Y019191D03*
X005939Y017691D03*
X005939Y016441D03*
X005689Y013941D03*
X006689Y012941D03*
X007689Y012941D03*
X008689Y013941D03*
X010689Y013941D03*
X011689Y012941D03*
X012689Y012941D03*
X012189Y014191D03*
X014689Y015191D03*
X014439Y016441D03*
X014439Y017691D03*
X014439Y019191D03*
X014439Y020441D03*
X018439Y020441D03*
X018439Y019191D03*
X018439Y017691D03*
X018439Y016441D03*
X019689Y015191D03*
X021689Y015191D03*
X021689Y012941D03*
X022689Y012941D03*
X022689Y011691D03*
X021689Y011691D03*
X021689Y010441D03*
X022689Y010441D03*
X023689Y009441D03*
X025689Y009441D03*
X026689Y010441D03*
X027689Y010441D03*
X027689Y011691D03*
X026689Y011691D03*
X026689Y012941D03*
X027689Y012941D03*
X026439Y015191D03*
X024439Y015191D03*
X029689Y015191D03*
X029939Y016441D03*
X029939Y017691D03*
X029939Y019191D03*
X029189Y019941D03*
X028439Y020441D03*
X028439Y019441D03*
X029939Y020441D03*
X030939Y021691D03*
X029689Y022191D03*
X030939Y022941D03*
X032939Y022941D03*
X032939Y021691D03*
X033939Y020441D03*
X033939Y019191D03*
X033939Y017691D03*
X033939Y016441D03*
X031689Y015191D03*
X033689Y013941D03*
X032689Y012941D03*
X031689Y012941D03*
X031689Y011691D03*
X032689Y011691D03*
X032689Y010441D03*
X031689Y010441D03*
X030689Y009441D03*
X028689Y009441D03*
X033689Y009441D03*
X035689Y009441D03*
X036689Y010441D03*
X037689Y010441D03*
X037689Y011691D03*
X036689Y011691D03*
X036689Y012941D03*
X037689Y012941D03*
X038689Y013941D03*
X038189Y015191D03*
X038439Y016441D03*
X038439Y017691D03*
X038439Y019191D03*
X038439Y020441D03*
X042439Y020441D03*
X042439Y019191D03*
X042439Y017691D03*
X042439Y016441D03*
X040189Y015191D03*
X040689Y013941D03*
X041689Y012941D03*
X041689Y011691D03*
X041689Y010441D03*
X040689Y009441D03*
X038689Y009441D03*
X035689Y013941D03*
X025689Y022191D03*
X016689Y015191D03*
X016689Y012941D03*
X017689Y012941D03*
X017689Y011691D03*
X016689Y011691D03*
X016689Y010441D03*
X017689Y010441D03*
X018689Y009441D03*
X020689Y009441D03*
X015689Y009441D03*
X013689Y009441D03*
X012689Y010441D03*
X011689Y010441D03*
X011689Y011691D03*
X012689Y011691D03*
X010689Y009441D03*
X008689Y009441D03*
X007689Y010441D03*
X006689Y010441D03*
X006689Y011691D03*
X007689Y011691D03*
X005689Y009441D03*
X003689Y009441D03*
X002689Y010441D03*
X002689Y011691D03*
X002689Y012941D03*
X003689Y013941D03*
X009939Y016441D03*
X009939Y017691D03*
X009939Y019191D03*
X009939Y020441D03*
X008689Y022191D03*
X008689Y023441D03*
X009439Y024691D03*
X009439Y025941D03*
X007939Y029941D03*
X012189Y016191D03*
D14*
X014189Y013941D03*
X015189Y013941D03*
X016189Y013941D03*
X017189Y013941D03*
X018189Y013941D03*
X019189Y013941D03*
X020189Y013941D03*
X021189Y013941D03*
X022939Y013941D03*
X023939Y013941D03*
X024939Y013941D03*
X025939Y013941D03*
X026939Y013941D03*
X027939Y013941D03*
X028939Y013941D03*
X029939Y013941D03*
X031439Y032191D03*
X032439Y032191D03*
X033689Y032191D03*
X034689Y032191D03*
X026189Y032941D03*
X025189Y032941D03*
X024189Y032941D03*
X023189Y032941D03*
X022189Y032941D03*
X021189Y032941D03*
X019189Y032941D03*
X018189Y032941D03*
X017189Y032941D03*
X016189Y032941D03*
X015189Y032941D03*
X014189Y032941D03*
X002689Y027441D03*
X002689Y026441D03*
X002689Y025441D03*
X002689Y024441D03*
X002689Y023441D03*
X002689Y022441D03*
X002689Y021441D03*
X002689Y020441D03*
X002689Y019441D03*
X002689Y018441D03*
D15*
X003814Y029441D03*
X042439Y015441D03*
D16*
X042083Y015441D02*
X042085Y015478D01*
X042091Y015515D01*
X042100Y015551D01*
X042114Y015586D01*
X042131Y015619D01*
X042151Y015650D01*
X042174Y015679D01*
X042201Y015706D01*
X042230Y015729D01*
X042261Y015749D01*
X042294Y015766D01*
X042329Y015780D01*
X042365Y015789D01*
X042402Y015795D01*
X042439Y015797D01*
X042476Y015795D01*
X042513Y015789D01*
X042549Y015780D01*
X042584Y015766D01*
X042617Y015749D01*
X042648Y015729D01*
X042677Y015706D01*
X042704Y015679D01*
X042727Y015650D01*
X042747Y015619D01*
X042764Y015586D01*
X042778Y015551D01*
X042787Y015515D01*
X042793Y015478D01*
X042795Y015441D01*
X042793Y015404D01*
X042787Y015367D01*
X042778Y015331D01*
X042764Y015296D01*
X042747Y015263D01*
X042727Y015232D01*
X042704Y015203D01*
X042677Y015176D01*
X042648Y015153D01*
X042617Y015133D01*
X042584Y015116D01*
X042549Y015102D01*
X042513Y015093D01*
X042476Y015087D01*
X042439Y015085D01*
X042402Y015087D01*
X042365Y015093D01*
X042329Y015102D01*
X042294Y015116D01*
X042261Y015133D01*
X042230Y015153D01*
X042201Y015176D01*
X042174Y015203D01*
X042151Y015232D01*
X042131Y015263D01*
X042114Y015296D01*
X042100Y015331D01*
X042091Y015367D01*
X042085Y015404D01*
X042083Y015441D01*
X003458Y029441D02*
X003460Y029478D01*
X003466Y029515D01*
X003475Y029551D01*
X003489Y029586D01*
X003506Y029619D01*
X003526Y029650D01*
X003549Y029679D01*
X003576Y029706D01*
X003605Y029729D01*
X003636Y029749D01*
X003669Y029766D01*
X003704Y029780D01*
X003740Y029789D01*
X003777Y029795D01*
X003814Y029797D01*
X003851Y029795D01*
X003888Y029789D01*
X003924Y029780D01*
X003959Y029766D01*
X003992Y029749D01*
X004023Y029729D01*
X004052Y029706D01*
X004079Y029679D01*
X004102Y029650D01*
X004122Y029619D01*
X004139Y029586D01*
X004153Y029551D01*
X004162Y029515D01*
X004168Y029478D01*
X004170Y029441D01*
X004168Y029404D01*
X004162Y029367D01*
X004153Y029331D01*
X004139Y029296D01*
X004122Y029263D01*
X004102Y029232D01*
X004079Y029203D01*
X004052Y029176D01*
X004023Y029153D01*
X003992Y029133D01*
X003959Y029116D01*
X003924Y029102D01*
X003888Y029093D01*
X003851Y029087D01*
X003814Y029085D01*
X003777Y029087D01*
X003740Y029093D01*
X003704Y029102D01*
X003669Y029116D01*
X003636Y029133D01*
X003605Y029153D01*
X003576Y029176D01*
X003549Y029203D01*
X003526Y029232D01*
X003506Y029263D01*
X003489Y029296D01*
X003475Y029331D01*
X003466Y029367D01*
X003460Y029404D01*
X003458Y029441D01*
D17*
X011814Y030516D03*
X011814Y031116D03*
X021439Y021678D03*
X021439Y021078D03*
X042439Y009741D03*
X042439Y009141D03*
D18*
X042439Y009441D03*
X011814Y030816D03*
D19*
X003039Y016441D03*
X044439Y018691D03*
D20*
X007122Y030781D02*
X007122Y031569D01*
X004642Y031569D02*
X004642Y030781D01*
X005547Y029207D02*
X006335Y029207D01*
D21*
X008799Y030451D03*
X009699Y030451D03*
X010599Y030451D03*
X010299Y026701D03*
X011199Y026701D03*
X012099Y026701D03*
D22*
X011189Y029181D03*
X009689Y032931D03*
D23*
X015896Y031271D03*
X016683Y031271D03*
X017471Y031271D03*
X018258Y031271D03*
X019045Y031271D03*
X019833Y031271D03*
X020620Y031271D03*
X021408Y031271D03*
X022195Y031271D03*
X022982Y031271D03*
X022982Y022610D03*
X022195Y022610D03*
X021408Y022610D03*
X020620Y022610D03*
X019833Y022610D03*
X019045Y022610D03*
X018258Y022610D03*
X017471Y022610D03*
X016683Y022610D03*
X015896Y022610D03*
D24*
X042144Y027441D02*
X042734Y027441D01*
X042734Y028441D02*
X042144Y028441D01*
X042144Y029441D02*
X042734Y029441D01*
X042734Y030441D02*
X042144Y030441D01*
D25*
X037689Y019466D03*
X037189Y019466D03*
X036689Y019466D03*
X036189Y019466D03*
X035689Y019466D03*
X035189Y019466D03*
X034689Y019466D03*
X034689Y017416D03*
X035189Y017416D03*
X035689Y017416D03*
X036189Y017416D03*
X036689Y017416D03*
X037189Y017416D03*
X037689Y017416D03*
X013689Y017416D03*
X013189Y017416D03*
X012689Y017416D03*
X012189Y017416D03*
X011689Y017416D03*
X011189Y017416D03*
X010689Y017416D03*
X010689Y019466D03*
X011189Y019466D03*
X011689Y019466D03*
X012189Y019466D03*
X012689Y019466D03*
X013189Y019466D03*
X013689Y019466D03*
D26*
X013739Y020691D03*
X013139Y020691D03*
X011239Y020691D03*
X010639Y020691D03*
X010639Y016191D03*
X011239Y016191D03*
X013139Y016191D03*
X013739Y016191D03*
X034639Y016191D03*
X035239Y016191D03*
X037139Y016191D03*
X037739Y016191D03*
X037739Y020691D03*
X037139Y020691D03*
X035239Y020691D03*
X034639Y020691D03*
D27*
X034939Y020691D03*
X037439Y020691D03*
X037439Y016191D03*
X034939Y016191D03*
X013439Y016191D03*
X010939Y016191D03*
X010939Y020691D03*
X013439Y020691D03*
D28*
X019689Y020181D02*
X019689Y019701D01*
X020689Y019701D02*
X020689Y020181D01*
X021689Y020181D02*
X021689Y019701D01*
X022689Y019701D02*
X022689Y020181D01*
X023689Y020181D02*
X023689Y019701D01*
X024689Y019701D02*
X024689Y020181D01*
X025689Y020181D02*
X025689Y019701D01*
X026689Y019701D02*
X026689Y020181D01*
X026689Y017181D02*
X026689Y016701D01*
X025689Y016701D02*
X025689Y017181D01*
X024689Y017181D02*
X024689Y016701D01*
X023689Y016701D02*
X023689Y017181D01*
X022689Y017181D02*
X022689Y016701D01*
X021689Y016701D02*
X021689Y017181D01*
X020689Y017181D02*
X020689Y016701D01*
X019689Y016701D02*
X019689Y017181D01*
D29*
X011439Y023441D03*
X011439Y024441D03*
X013939Y025941D03*
X013939Y026941D03*
D30*
X027409Y031051D03*
X027409Y032831D03*
X029969Y032831D03*
X029969Y031051D03*
D31*
X035939Y020941D03*
X036439Y020441D03*
X032939Y018441D03*
X030689Y018441D03*
X029564Y017066D03*
X027564Y017566D03*
X036189Y016441D03*
X018408Y018472D03*
X017189Y017691D03*
X014439Y018441D03*
X012189Y020691D03*
X009439Y022191D03*
X010439Y025691D03*
X002314Y014066D03*
D32*
X009939Y023441D03*
X024689Y027941D03*
X029939Y027191D03*
M02*
