G75*
G70*
%OFA0B0*%
%FSLAX24Y24*%
%IPPOS*%
%LPD*%
%AMOC8*
5,1,8,0,0,1.08239X$1,22.5*
%
%ADD10C,0.0900*%
%ADD11C,0.1000*%
%ADD12C,0.0740*%
%ADD13OC8,0.0480*%
%ADD14OC8,0.0500*%
%ADD15C,0.0787*%
%ADD16C,0.0560*%
%ADD17C,0.0591*%
%ADD18C,0.0480*%
%ADD19C,0.0660*%
%ADD20C,0.0740*%
%ADD21C,0.0160*%
%ADD22C,0.0397*%
%ADD23C,0.0436*%
D10*
X005863Y002741D03*
X007003Y004551D03*
X005653Y005691D03*
X002003Y004551D03*
X010653Y005691D03*
X012003Y004551D03*
X010863Y002741D03*
X015863Y002741D03*
X017003Y004551D03*
X015653Y005691D03*
X020653Y005691D03*
X022003Y004551D03*
X020863Y002741D03*
X025653Y005691D03*
X027003Y004551D03*
X025863Y002741D03*
X030653Y005691D03*
X032003Y004551D03*
X030863Y002741D03*
X035653Y005691D03*
X037003Y004551D03*
X035863Y002741D03*
X040653Y005691D03*
X040863Y002741D03*
D11*
X039013Y001461D03*
X037993Y004001D03*
X034013Y001461D03*
X032993Y004001D03*
X029013Y001461D03*
X027993Y004001D03*
X024013Y001461D03*
X022993Y004001D03*
X019013Y001461D03*
X017993Y004001D03*
X014013Y001461D03*
X012993Y004001D03*
X009013Y001461D03*
X007993Y004001D03*
X004013Y001461D03*
X002993Y004001D03*
D12*
X035433Y029311D02*
X035433Y030051D01*
X036433Y030051D02*
X036433Y029311D01*
X037433Y029311D02*
X037433Y030051D01*
X038433Y030051D02*
X038433Y029311D01*
X039433Y029311D02*
X039433Y030051D01*
X040433Y030051D02*
X040433Y029311D01*
D13*
X035433Y027931D03*
X033433Y027931D03*
X029183Y027181D03*
X029183Y025931D03*
X025183Y025931D03*
X025183Y027181D03*
X016433Y027431D03*
X016433Y026181D03*
X012433Y026181D03*
X012433Y027431D03*
X008683Y024681D03*
X008683Y023431D03*
X008683Y022181D03*
X007933Y020931D03*
X007933Y019681D03*
X009183Y017931D03*
X009183Y016681D03*
X009183Y015181D03*
X009183Y013931D03*
X011433Y013681D03*
X013683Y013931D03*
X013683Y015181D03*
X013683Y016681D03*
X013683Y017931D03*
X017683Y017931D03*
X017683Y016681D03*
X017683Y015181D03*
X017683Y013931D03*
X018933Y012681D03*
X020933Y012681D03*
X023683Y012681D03*
X025683Y012681D03*
X025933Y010431D03*
X026933Y010431D03*
X026933Y009181D03*
X025933Y009181D03*
X025933Y007931D03*
X026933Y007931D03*
X027933Y006931D03*
X029933Y006931D03*
X030933Y007931D03*
X031933Y007931D03*
X032933Y006931D03*
X034933Y006931D03*
X035933Y007931D03*
X036933Y007931D03*
X037933Y006931D03*
X039933Y006931D03*
X040933Y007931D03*
X040933Y009181D03*
X040933Y010431D03*
X039933Y011431D03*
X039433Y012681D03*
X037933Y011431D03*
X036933Y010431D03*
X035933Y010431D03*
X034933Y011431D03*
X032933Y011431D03*
X031933Y010431D03*
X030933Y010431D03*
X030933Y009181D03*
X031933Y009181D03*
X035933Y009181D03*
X036933Y009181D03*
X037433Y012681D03*
X037683Y013931D03*
X037683Y015181D03*
X037683Y016681D03*
X037683Y017931D03*
X041683Y017931D03*
X041683Y016681D03*
X041683Y015181D03*
X041683Y013931D03*
X033183Y013931D03*
X033183Y015181D03*
X033183Y016681D03*
X033183Y017931D03*
X032183Y019181D03*
X032183Y020431D03*
X030183Y020431D03*
X028933Y019681D03*
X030183Y019181D03*
X029183Y017931D03*
X028433Y017431D03*
X027683Y017931D03*
X027683Y016931D03*
X029183Y016681D03*
X029183Y015181D03*
X029183Y013931D03*
X028933Y012681D03*
X030933Y012681D03*
X024933Y006931D03*
X022933Y006931D03*
X021933Y007931D03*
X020933Y007931D03*
X019933Y006931D03*
X017933Y006931D03*
X016933Y007931D03*
X015933Y007931D03*
X014933Y006931D03*
X012933Y006931D03*
X011933Y007931D03*
X010933Y007931D03*
X009933Y006931D03*
X007933Y006931D03*
X006933Y007931D03*
X005933Y007931D03*
X004933Y006931D03*
X002933Y006931D03*
X001933Y007931D03*
X001933Y009181D03*
X001933Y010431D03*
X002933Y011431D03*
X004933Y011431D03*
X005933Y010431D03*
X006933Y010431D03*
X007933Y011431D03*
X009933Y011431D03*
X010933Y010431D03*
X011933Y010431D03*
X011933Y009181D03*
X010933Y009181D03*
X011433Y011681D03*
X013933Y012681D03*
X015933Y012681D03*
X015933Y010431D03*
X016933Y010431D03*
X016933Y009181D03*
X015933Y009181D03*
X020933Y009181D03*
X021933Y009181D03*
X021933Y010431D03*
X020933Y010431D03*
X024933Y019681D03*
X006933Y026681D03*
X006933Y028681D03*
X004683Y024681D03*
X004683Y023431D03*
X004683Y022181D03*
X003933Y020931D03*
X003933Y019681D03*
X005183Y017931D03*
X005183Y016681D03*
X005183Y015181D03*
X005183Y013931D03*
X005933Y009181D03*
X006933Y009181D03*
D14*
X013433Y011431D03*
X014433Y011431D03*
X015433Y011431D03*
X016433Y011431D03*
X017433Y011431D03*
X018433Y011431D03*
X019433Y011431D03*
X020433Y011431D03*
X022183Y011431D03*
X023183Y011431D03*
X024183Y011431D03*
X025183Y011431D03*
X026183Y011431D03*
X027183Y011431D03*
X028183Y011431D03*
X029183Y011431D03*
X030683Y029681D03*
X031683Y029681D03*
X032933Y029681D03*
X033933Y029681D03*
X025433Y030431D03*
X024433Y030431D03*
X023433Y030431D03*
X022433Y030431D03*
X021433Y030431D03*
X020433Y030431D03*
X018433Y030431D03*
X017433Y030431D03*
X016433Y030431D03*
X015433Y030431D03*
X014433Y030431D03*
X013433Y030431D03*
X001933Y024931D03*
X001933Y023931D03*
X001933Y022931D03*
X001933Y021931D03*
X001933Y020931D03*
X001933Y019931D03*
X001933Y018931D03*
X001933Y017931D03*
X001933Y016931D03*
X001933Y015931D03*
D15*
X005024Y025748D02*
X005811Y025748D01*
X003449Y026536D02*
X003449Y027323D01*
X005024Y028228D02*
X005811Y028228D01*
D16*
X015140Y028762D03*
X015927Y028762D03*
X016715Y028762D03*
X017502Y028762D03*
X018289Y028762D03*
X019077Y028762D03*
X019864Y028762D03*
X020652Y028762D03*
X021439Y028762D03*
X022226Y028762D03*
X022226Y020100D03*
X021439Y020100D03*
X020652Y020100D03*
X019864Y020100D03*
X019077Y020100D03*
X018289Y020100D03*
X017502Y020100D03*
X016715Y020100D03*
X015927Y020100D03*
X015140Y020100D03*
D17*
X041388Y024931D02*
X041978Y024931D01*
X041978Y025931D02*
X041388Y025931D01*
X041388Y026931D02*
X041978Y026931D01*
X041978Y027931D02*
X041388Y027931D01*
D18*
X025933Y017671D02*
X025933Y017191D01*
X024933Y017191D02*
X024933Y017671D01*
X023933Y017671D02*
X023933Y017191D01*
X022933Y017191D02*
X022933Y017671D01*
X021933Y017671D02*
X021933Y017191D01*
X020933Y017191D02*
X020933Y017671D01*
X019933Y017671D02*
X019933Y017191D01*
X018933Y017191D02*
X018933Y017671D01*
X018933Y014671D02*
X018933Y014191D01*
X019933Y014191D02*
X019933Y014671D01*
X020933Y014671D02*
X020933Y014191D01*
X021933Y014191D02*
X021933Y014671D01*
X022933Y014671D02*
X022933Y014191D01*
X023933Y014191D02*
X023933Y014671D01*
X024933Y014671D02*
X024933Y014191D01*
X025933Y014191D02*
X025933Y014671D01*
D19*
X013183Y023431D03*
X013183Y024431D03*
X010683Y021931D03*
X010683Y020931D03*
D20*
X026653Y028541D03*
X029213Y028541D03*
X029213Y030321D03*
X026653Y030321D03*
D21*
X001227Y001516D02*
X001467Y001215D01*
X001768Y000975D01*
X002115Y000808D01*
X002491Y000722D01*
X002683Y000711D01*
X002683Y003329D01*
X002574Y003374D02*
X002846Y003261D01*
X003140Y003261D01*
X003412Y003374D01*
X003620Y003582D01*
X003733Y003854D01*
X003733Y004148D01*
X003620Y004420D01*
X003430Y004611D01*
X006313Y004611D01*
X006313Y004414D01*
X006418Y004160D01*
X006612Y003966D01*
X006866Y003861D01*
X007140Y003861D01*
X007253Y003908D01*
X007253Y003854D01*
X007366Y003582D01*
X007574Y003374D01*
X007846Y003261D01*
X008140Y003261D01*
X008412Y003374D01*
X008620Y003582D01*
X008733Y003854D01*
X008733Y004148D01*
X008620Y004420D01*
X008430Y004611D01*
X011313Y004611D01*
X011313Y004414D01*
X011418Y004160D01*
X011612Y003966D01*
X011866Y003861D01*
X012140Y003861D01*
X012253Y003908D01*
X012253Y003854D01*
X012366Y003582D01*
X012574Y003374D01*
X012846Y003261D01*
X013140Y003261D01*
X013412Y003374D01*
X013620Y003582D01*
X013733Y003854D01*
X013733Y004148D01*
X013620Y004420D01*
X013430Y004611D01*
X016313Y004611D01*
X016313Y004414D01*
X016418Y004160D01*
X016612Y003966D01*
X016866Y003861D01*
X017140Y003861D01*
X017253Y003908D01*
X017253Y003854D01*
X017366Y003582D01*
X017574Y003374D01*
X017846Y003261D01*
X018140Y003261D01*
X018412Y003374D01*
X018620Y003582D01*
X018733Y003854D01*
X018733Y004148D01*
X018620Y004420D01*
X018430Y004611D01*
X021313Y004611D01*
X021313Y004414D01*
X021418Y004160D01*
X021612Y003966D01*
X021866Y003861D01*
X022140Y003861D01*
X022253Y003908D01*
X022253Y003854D01*
X022366Y003582D01*
X022574Y003374D01*
X022846Y003261D01*
X023140Y003261D01*
X023412Y003374D01*
X023620Y003582D01*
X023733Y003854D01*
X023733Y004148D01*
X023620Y004420D01*
X023430Y004611D01*
X026313Y004611D01*
X026313Y004414D01*
X026418Y004160D01*
X026612Y003966D01*
X026866Y003861D01*
X027140Y003861D01*
X027253Y003908D01*
X027253Y003854D01*
X027366Y003582D01*
X027574Y003374D01*
X027846Y003261D01*
X028140Y003261D01*
X028412Y003374D01*
X028620Y003582D01*
X028733Y003854D01*
X028733Y004148D01*
X028620Y004420D01*
X028430Y004611D01*
X031313Y004611D01*
X031313Y004414D01*
X031418Y004160D01*
X031612Y003966D01*
X031866Y003861D01*
X032140Y003861D01*
X032253Y003908D01*
X032253Y003854D01*
X032366Y003582D01*
X032574Y003374D01*
X032846Y003261D01*
X033140Y003261D01*
X033412Y003374D01*
X033620Y003582D01*
X033733Y003854D01*
X033733Y004148D01*
X033620Y004420D01*
X033430Y004611D01*
X036313Y004611D01*
X036313Y004414D01*
X036418Y004160D01*
X036612Y003966D01*
X036866Y003861D01*
X037140Y003861D01*
X037253Y003908D01*
X037253Y003854D01*
X037366Y003582D01*
X037574Y003374D01*
X037846Y003261D01*
X038140Y003261D01*
X038412Y003374D01*
X038620Y003582D01*
X038733Y003854D01*
X038733Y004148D01*
X038620Y004420D01*
X038412Y004629D01*
X038140Y004741D01*
X037846Y004741D01*
X037693Y004678D01*
X037693Y004688D01*
X037588Y004942D01*
X037394Y005136D01*
X037140Y005241D01*
X036866Y005241D01*
X036788Y005209D01*
X036687Y005251D01*
X036559Y005251D01*
X036189Y005251D01*
X036238Y005300D01*
X036343Y005554D01*
X036343Y005828D01*
X036238Y006082D01*
X036044Y006276D01*
X035790Y006381D01*
X035516Y006381D01*
X035262Y006276D01*
X035068Y006082D01*
X034963Y005828D01*
X034963Y005554D01*
X035068Y005300D01*
X035117Y005251D01*
X032369Y005251D01*
X032252Y005202D01*
X032247Y005197D01*
X032140Y005241D01*
X031866Y005241D01*
X031788Y005209D01*
X031687Y005251D01*
X031559Y005251D01*
X031189Y005251D01*
X031238Y005300D01*
X031343Y005554D01*
X031343Y005828D01*
X031238Y006082D01*
X031044Y006276D01*
X030790Y006381D01*
X030516Y006381D01*
X030262Y006276D01*
X030068Y006082D01*
X029963Y005828D01*
X029963Y005554D01*
X030068Y005300D01*
X030117Y005251D01*
X027369Y005251D01*
X027252Y005202D01*
X027247Y005197D01*
X027140Y005241D01*
X026866Y005241D01*
X026788Y005209D01*
X026687Y005251D01*
X026559Y005251D01*
X026189Y005251D01*
X026238Y005300D01*
X026343Y005554D01*
X026343Y005828D01*
X026238Y006082D01*
X026044Y006276D01*
X025790Y006381D01*
X025516Y006381D01*
X025262Y006276D01*
X025068Y006082D01*
X024963Y005828D01*
X024963Y005554D01*
X025068Y005300D01*
X025117Y005251D01*
X022369Y005251D01*
X022252Y005202D01*
X022247Y005197D01*
X022140Y005241D01*
X021866Y005241D01*
X021788Y005209D01*
X021687Y005251D01*
X021559Y005251D01*
X021189Y005251D01*
X021238Y005300D01*
X021343Y005554D01*
X021343Y005828D01*
X021238Y006082D01*
X021044Y006276D01*
X020790Y006381D01*
X020516Y006381D01*
X020262Y006276D01*
X020068Y006082D01*
X019963Y005828D01*
X019963Y005554D01*
X020068Y005300D01*
X020117Y005251D01*
X017369Y005251D01*
X017252Y005202D01*
X017247Y005197D01*
X017140Y005241D01*
X016866Y005241D01*
X016788Y005209D01*
X016687Y005251D01*
X016559Y005251D01*
X016189Y005251D01*
X016238Y005300D01*
X016343Y005554D01*
X016343Y005828D01*
X016238Y006082D01*
X016044Y006276D01*
X015790Y006381D01*
X015516Y006381D01*
X015262Y006276D01*
X015068Y006082D01*
X014963Y005828D01*
X014963Y005554D01*
X015068Y005300D01*
X015117Y005251D01*
X012369Y005251D01*
X012252Y005202D01*
X012247Y005197D01*
X012140Y005241D01*
X011866Y005241D01*
X011788Y005209D01*
X011687Y005251D01*
X011559Y005251D01*
X011189Y005251D01*
X011238Y005300D01*
X011343Y005554D01*
X011343Y005828D01*
X011238Y006082D01*
X011044Y006276D01*
X010790Y006381D01*
X010516Y006381D01*
X010262Y006276D01*
X010068Y006082D01*
X009963Y005828D01*
X009963Y005554D01*
X010068Y005300D01*
X010117Y005251D01*
X007369Y005251D01*
X007252Y005202D01*
X007247Y005197D01*
X007140Y005241D01*
X006866Y005241D01*
X006788Y005209D01*
X006687Y005251D01*
X006559Y005251D01*
X006189Y005251D01*
X006238Y005300D01*
X006343Y005554D01*
X006343Y005828D01*
X006238Y006082D01*
X006044Y006276D01*
X005790Y006381D01*
X005516Y006381D01*
X005262Y006276D01*
X005068Y006082D01*
X004963Y005828D01*
X004963Y005554D01*
X005068Y005300D01*
X005117Y005251D01*
X002369Y005251D01*
X002252Y005202D01*
X002247Y005197D01*
X002140Y005241D01*
X001866Y005241D01*
X001612Y005136D01*
X001418Y004942D01*
X001313Y004688D01*
X001313Y004414D01*
X001418Y004160D01*
X001612Y003966D01*
X001866Y003861D01*
X002140Y003861D01*
X002253Y003908D01*
X002253Y003854D01*
X002366Y003582D01*
X002574Y003374D01*
X002517Y003431D02*
X000963Y003431D01*
X000963Y002931D02*
X005195Y002931D01*
X005183Y002903D02*
X005183Y004611D01*
X004683Y004611D02*
X004683Y000711D01*
X004449Y000964D02*
X004510Y001025D01*
X004563Y001094D01*
X004606Y001169D01*
X004639Y001249D01*
X004662Y001332D01*
X004671Y001403D01*
X004071Y001403D01*
X004071Y000803D01*
X004142Y000812D01*
X004226Y000835D01*
X004306Y000868D01*
X004381Y000911D01*
X004449Y000964D01*
X004407Y000931D02*
X008620Y000931D01*
X008646Y000911D02*
X008721Y000868D01*
X008801Y000835D01*
X008884Y000812D01*
X008955Y000803D01*
X008955Y001403D01*
X009071Y001403D01*
X009071Y000803D01*
X009142Y000812D01*
X009226Y000835D01*
X009306Y000868D01*
X009381Y000911D01*
X009449Y000964D01*
X009510Y001025D01*
X009563Y001094D01*
X009606Y001169D01*
X009639Y001249D01*
X009662Y001332D01*
X009671Y001403D01*
X009071Y001403D01*
X009071Y001519D01*
X008955Y001519D01*
X008955Y001403D01*
X008355Y001403D01*
X008364Y001332D01*
X008387Y001249D01*
X008420Y001169D01*
X008463Y001094D01*
X008516Y001025D01*
X008577Y000964D01*
X008646Y000911D01*
X008683Y000890D02*
X008683Y000711D01*
X008955Y000931D02*
X009071Y000931D01*
X009183Y000823D02*
X009183Y000711D01*
X009407Y000931D02*
X013620Y000931D01*
X013646Y000911D02*
X013721Y000868D01*
X013801Y000835D01*
X013884Y000812D01*
X013955Y000803D01*
X013955Y001403D01*
X014071Y001403D01*
X014071Y000803D01*
X014142Y000812D01*
X014226Y000835D01*
X014306Y000868D01*
X014381Y000911D01*
X014449Y000964D01*
X014510Y001025D01*
X014563Y001094D01*
X014606Y001169D01*
X014639Y001249D01*
X014662Y001332D01*
X014671Y001403D01*
X014071Y001403D01*
X014071Y001519D01*
X013955Y001519D01*
X013955Y001403D01*
X013355Y001403D01*
X013364Y001332D01*
X013387Y001249D01*
X013420Y001169D01*
X013463Y001094D01*
X013516Y001025D01*
X013577Y000964D01*
X013646Y000911D01*
X013683Y000890D02*
X013683Y000711D01*
X013955Y000931D02*
X014071Y000931D01*
X014183Y000823D02*
X014183Y000711D01*
X014407Y000931D02*
X018620Y000931D01*
X018646Y000911D02*
X018721Y000868D01*
X018801Y000835D01*
X018884Y000812D01*
X018955Y000803D01*
X018955Y001403D01*
X019071Y001403D01*
X019071Y000803D01*
X019142Y000812D01*
X019226Y000835D01*
X019306Y000868D01*
X019381Y000911D01*
X019449Y000964D01*
X019510Y001025D01*
X019563Y001094D01*
X019606Y001169D01*
X019639Y001249D01*
X019662Y001332D01*
X019671Y001403D01*
X019071Y001403D01*
X019071Y001519D01*
X018955Y001519D01*
X018955Y001403D01*
X018355Y001403D01*
X018364Y001332D01*
X018387Y001249D01*
X018420Y001169D01*
X018463Y001094D01*
X018516Y001025D01*
X018577Y000964D01*
X018646Y000911D01*
X018683Y000890D02*
X018683Y000711D01*
X018955Y000931D02*
X019071Y000931D01*
X019183Y000823D02*
X019183Y000711D01*
X019407Y000931D02*
X023620Y000931D01*
X023646Y000911D02*
X023721Y000868D01*
X023801Y000835D01*
X023884Y000812D01*
X023955Y000803D01*
X023955Y001403D01*
X024071Y001403D01*
X024071Y000803D01*
X024142Y000812D01*
X024226Y000835D01*
X024306Y000868D01*
X024381Y000911D01*
X024449Y000964D01*
X024510Y001025D01*
X024563Y001094D01*
X024606Y001169D01*
X024639Y001249D01*
X024662Y001332D01*
X024671Y001403D01*
X024071Y001403D01*
X024071Y001519D01*
X023955Y001519D01*
X023955Y001403D01*
X023355Y001403D01*
X023364Y001332D01*
X023387Y001249D01*
X023420Y001169D01*
X023463Y001094D01*
X023516Y001025D01*
X023577Y000964D01*
X023646Y000911D01*
X023683Y000890D02*
X023683Y000711D01*
X023955Y000931D02*
X024071Y000931D01*
X024183Y000823D02*
X024183Y000711D01*
X024407Y000931D02*
X028620Y000931D01*
X028646Y000911D02*
X028721Y000868D01*
X028801Y000835D01*
X028884Y000812D01*
X028955Y000803D01*
X028955Y001403D01*
X029071Y001403D01*
X029071Y000803D01*
X029142Y000812D01*
X029226Y000835D01*
X029306Y000868D01*
X029381Y000911D01*
X029449Y000964D01*
X029510Y001025D01*
X029563Y001094D01*
X029606Y001169D01*
X029639Y001249D01*
X029662Y001332D01*
X029671Y001403D01*
X029071Y001403D01*
X029071Y001519D01*
X028955Y001519D01*
X028955Y001403D01*
X028355Y001403D01*
X028364Y001332D01*
X028387Y001249D01*
X028420Y001169D01*
X028463Y001094D01*
X028516Y001025D01*
X028577Y000964D01*
X028646Y000911D01*
X028683Y000890D02*
X028683Y000711D01*
X028955Y000931D02*
X029071Y000931D01*
X029183Y000823D02*
X029183Y000711D01*
X029407Y000931D02*
X033620Y000931D01*
X033646Y000911D02*
X033721Y000868D01*
X033801Y000835D01*
X033884Y000812D01*
X033955Y000803D01*
X033955Y001403D01*
X034071Y001403D01*
X034071Y000803D01*
X034142Y000812D01*
X034226Y000835D01*
X034306Y000868D01*
X034381Y000911D01*
X034449Y000964D01*
X034510Y001025D01*
X034563Y001094D01*
X034606Y001169D01*
X034639Y001249D01*
X034662Y001332D01*
X034671Y001403D01*
X034071Y001403D01*
X034071Y001519D01*
X033955Y001519D01*
X033955Y001403D01*
X033355Y001403D01*
X033364Y001332D01*
X033387Y001249D01*
X033420Y001169D01*
X033463Y001094D01*
X033516Y001025D01*
X033577Y000964D01*
X033646Y000911D01*
X033683Y000890D02*
X033683Y000711D01*
X033955Y000931D02*
X034071Y000931D01*
X034183Y000823D02*
X034183Y000711D01*
X034407Y000931D02*
X038620Y000931D01*
X038646Y000911D02*
X038721Y000868D01*
X038801Y000835D01*
X038884Y000812D01*
X038955Y000803D01*
X038955Y001403D01*
X039071Y001403D01*
X039071Y000803D01*
X039142Y000812D01*
X039226Y000835D01*
X039306Y000868D01*
X039381Y000911D01*
X039449Y000964D01*
X039510Y001025D01*
X039563Y001094D01*
X039606Y001169D01*
X039639Y001249D01*
X039662Y001332D01*
X039671Y001403D01*
X039071Y001403D01*
X039071Y001519D01*
X038955Y001519D01*
X038955Y001403D01*
X038355Y001403D01*
X038364Y001332D01*
X038387Y001249D01*
X038420Y001169D01*
X038463Y001094D01*
X038516Y001025D01*
X038577Y000964D01*
X038646Y000911D01*
X038683Y000890D02*
X038683Y000711D01*
X038955Y000931D02*
X039071Y000931D01*
X039183Y000823D02*
X039183Y000711D01*
X039407Y000931D02*
X044008Y000931D01*
X044098Y000975D02*
X043751Y000808D01*
X043376Y000722D01*
X043183Y000711D01*
X043183Y015288D01*
X043170Y015293D02*
X043505Y015171D01*
X043627Y015171D01*
X043627Y015171D01*
X043683Y015171D01*
X043683Y000792D01*
X044098Y000975D02*
X044399Y001215D01*
X044640Y001516D01*
X044807Y001863D01*
X044892Y002239D01*
X044903Y002431D01*
X044903Y018681D01*
X036636Y018681D01*
X037203Y018114D01*
X037203Y018130D01*
X037484Y018411D01*
X037882Y018411D01*
X038163Y018130D01*
X038163Y017751D01*
X038869Y017751D01*
X038997Y017751D01*
X039114Y017702D01*
X040114Y016702D01*
X040204Y016612D01*
X040253Y016495D01*
X040253Y011790D01*
X040363Y011680D01*
X040363Y015745D01*
X040412Y015862D01*
X040502Y015952D01*
X040502Y015952D01*
X041203Y016654D01*
X041203Y016880D01*
X041484Y017161D01*
X041882Y017161D01*
X042163Y016880D01*
X042163Y016482D01*
X041882Y016201D01*
X041656Y016201D01*
X041003Y015549D01*
X041003Y011564D01*
X041954Y010612D01*
X042003Y010495D01*
X042003Y010367D01*
X042003Y010117D01*
X041954Y010000D01*
X041864Y009910D01*
X041489Y009535D01*
X041372Y009486D01*
X041307Y009486D01*
X041413Y009380D01*
X041413Y008982D01*
X041132Y008701D01*
X040906Y008701D01*
X040614Y008410D01*
X040497Y008361D01*
X040369Y008361D01*
X037182Y008361D01*
X037413Y008130D01*
X037413Y007732D01*
X037132Y007451D01*
X036734Y007451D01*
X036453Y007732D01*
X036453Y008130D01*
X036684Y008361D01*
X036369Y008361D01*
X036252Y008410D01*
X036162Y008500D01*
X035961Y008701D01*
X035906Y008701D01*
X035614Y008410D01*
X035497Y008361D01*
X035369Y008361D01*
X032182Y008361D01*
X032413Y008130D01*
X032413Y007732D01*
X032132Y007451D01*
X031734Y007451D01*
X031453Y007732D01*
X031453Y008130D01*
X031684Y008361D01*
X031369Y008361D01*
X031252Y008410D01*
X031162Y008500D01*
X030961Y008701D01*
X030906Y008701D01*
X030614Y008410D01*
X030497Y008361D01*
X030369Y008361D01*
X027182Y008361D01*
X027413Y008130D01*
X027413Y007732D01*
X027132Y007451D01*
X026734Y007451D01*
X026453Y007732D01*
X026453Y008130D01*
X026684Y008361D01*
X026369Y008361D01*
X026252Y008410D01*
X026162Y008500D01*
X025961Y008701D01*
X025906Y008701D01*
X025614Y008410D01*
X025497Y008361D01*
X025369Y008361D01*
X022182Y008361D01*
X022413Y008130D01*
X022413Y007732D01*
X022132Y007451D01*
X021734Y007451D01*
X021453Y007732D01*
X021453Y008130D01*
X021684Y008361D01*
X021369Y008361D01*
X021252Y008410D01*
X021162Y008500D01*
X020961Y008701D01*
X020906Y008701D01*
X020614Y008410D01*
X020497Y008361D01*
X020369Y008361D01*
X017182Y008361D01*
X017413Y008130D01*
X017413Y007732D01*
X017132Y007451D01*
X016734Y007451D01*
X016453Y007732D01*
X016453Y008130D01*
X016684Y008361D01*
X016369Y008361D01*
X016252Y008410D01*
X016162Y008500D01*
X015961Y008701D01*
X015906Y008701D01*
X015614Y008410D01*
X015497Y008361D01*
X015369Y008361D01*
X012182Y008361D01*
X012413Y008130D01*
X012413Y007732D01*
X012132Y007451D01*
X011734Y007451D01*
X011453Y007732D01*
X011453Y008130D01*
X011684Y008361D01*
X011369Y008361D01*
X011252Y008410D01*
X011162Y008500D01*
X010961Y008701D01*
X010906Y008701D01*
X010614Y008410D01*
X010497Y008361D01*
X010369Y008361D01*
X007182Y008361D01*
X007413Y008130D01*
X007413Y007732D01*
X007132Y007451D01*
X006734Y007451D01*
X006453Y007732D01*
X006453Y008130D01*
X006684Y008361D01*
X006369Y008361D01*
X006252Y008410D01*
X006162Y008500D01*
X005961Y008701D01*
X005734Y008701D01*
X005453Y008982D01*
X005453Y009361D01*
X003497Y009361D01*
X003369Y009361D01*
X003252Y009410D01*
X002413Y010249D01*
X002413Y010232D01*
X002132Y009951D01*
X001734Y009951D01*
X001453Y010232D01*
X001453Y010630D01*
X001734Y010911D01*
X001751Y010911D01*
X001544Y011118D01*
X001471Y011118D01*
X001310Y011184D01*
X001186Y011308D01*
X001120Y011469D01*
X001120Y011643D01*
X001186Y011804D01*
X001310Y011928D01*
X001471Y011995D01*
X001645Y011995D01*
X001806Y011928D01*
X001930Y011804D01*
X001997Y011643D01*
X001997Y011570D01*
X003566Y010001D01*
X005684Y010001D01*
X005453Y010232D01*
X005453Y010630D01*
X005734Y010911D01*
X006132Y010911D01*
X006413Y010630D01*
X006413Y010232D01*
X006182Y010001D01*
X006684Y010001D01*
X006453Y010232D01*
X006453Y010630D01*
X006734Y010911D01*
X007132Y010911D01*
X007413Y010630D01*
X007413Y010232D01*
X007182Y010001D01*
X010684Y010001D01*
X010453Y010232D01*
X010453Y010249D01*
X010364Y010160D01*
X010247Y010111D01*
X010119Y010111D01*
X009369Y010111D01*
X009252Y010160D01*
X009162Y010250D01*
X008801Y010611D01*
X007619Y010611D01*
X007502Y010660D01*
X007412Y010750D01*
X007412Y010750D01*
X007051Y011111D01*
X005816Y011111D01*
X005364Y010660D01*
X005247Y010611D01*
X005119Y010611D01*
X004119Y010611D01*
X004002Y010660D01*
X003912Y010750D01*
X003912Y010750D01*
X003333Y011329D01*
X003333Y011266D01*
X003099Y011031D01*
X002933Y011031D01*
X002933Y011431D01*
X002933Y011431D01*
X002533Y011431D01*
X002533Y011266D01*
X002767Y011031D01*
X002933Y011031D01*
X002933Y011431D01*
X002933Y011431D01*
X002136Y011431D01*
X002183Y011384D02*
X002183Y012921D01*
X002227Y012921D02*
X002256Y012921D01*
X002283Y012921D01*
X002339Y012921D01*
X002461Y012921D01*
X002461Y012921D01*
X002796Y013043D01*
X003069Y013272D01*
X003113Y013349D01*
X003113Y011817D01*
X003099Y011831D01*
X002933Y011831D01*
X002767Y011831D01*
X002533Y011597D01*
X002533Y011431D01*
X002933Y011431D01*
X002933Y011432D02*
X002933Y011831D01*
X002933Y011432D01*
X002933Y011432D01*
X002683Y011431D02*
X002683Y011431D01*
X002683Y011116D02*
X002683Y010884D01*
X002636Y010931D02*
X003731Y010931D01*
X003683Y010979D02*
X003683Y010001D01*
X003433Y009681D02*
X001558Y011556D01*
X001135Y011431D02*
X000963Y011431D01*
X001183Y011316D02*
X001183Y001607D01*
X001227Y001516D02*
X001060Y001863D01*
X000974Y002239D01*
X000963Y002431D01*
X000963Y002480D01*
X000963Y002487D01*
X000963Y018681D01*
X001490Y018681D01*
X001730Y018441D01*
X002136Y018441D01*
X002376Y018681D01*
X002981Y018681D01*
X003113Y018549D01*
X003113Y014513D01*
X003069Y014590D01*
X003069Y014590D01*
X002796Y014819D01*
X002461Y014941D01*
X002339Y014941D01*
X002339Y014941D01*
X002283Y014941D01*
X002282Y014941D01*
X002227Y014941D01*
X002105Y014941D01*
X001770Y014819D01*
X001498Y014590D01*
X001319Y014282D01*
X001258Y013931D01*
X001319Y013580D01*
X001498Y013272D01*
X001770Y013043D01*
X001770Y013043D01*
X002105Y012921D01*
X002227Y012921D01*
X002227Y012921D01*
X002339Y012921D02*
X002339Y012921D01*
X002489Y012931D02*
X003113Y012931D01*
X002796Y013043D02*
X002796Y013043D01*
X002683Y013002D02*
X002683Y011747D01*
X003113Y011931D02*
X001798Y011931D01*
X001683Y011979D02*
X001683Y013116D01*
X001498Y013272D02*
X001498Y013272D01*
X001406Y013431D02*
X000963Y013431D01*
X001319Y013580D02*
X001319Y013580D01*
X001258Y013931D02*
X001258Y013931D01*
X000963Y013931D01*
X001319Y014282D02*
X001319Y014282D01*
X001406Y014431D02*
X000963Y014431D01*
X001498Y014590D02*
X001498Y014590D01*
X001498Y014590D01*
X001683Y014746D02*
X001683Y015488D01*
X001730Y015441D02*
X002136Y015441D01*
X002423Y015728D01*
X002423Y016134D01*
X002136Y016421D01*
X001730Y016421D01*
X001443Y016134D01*
X001443Y015728D01*
X001730Y015441D01*
X002183Y015488D02*
X002183Y014941D01*
X002227Y014941D02*
X002227Y014941D01*
X002105Y014941D02*
X002105Y014941D01*
X002078Y014931D02*
X000963Y014931D01*
X001770Y014819D02*
X001770Y014819D01*
X002461Y014941D02*
X002461Y014941D01*
X002489Y014931D02*
X003113Y014931D01*
X002796Y014819D02*
X002796Y014819D01*
X002683Y014860D02*
X002683Y018681D01*
X003113Y018431D02*
X000963Y018431D01*
X001183Y018681D02*
X001183Y011797D01*
X001318Y011931D02*
X000963Y011931D01*
X000963Y012431D02*
X003113Y012431D01*
X003433Y011681D02*
X003433Y018681D01*
X002933Y019181D01*
X002933Y021056D01*
X005308Y023431D01*
X008683Y023431D01*
X008683Y023031D02*
X008683Y022921D01*
X008517Y023031D02*
X008849Y023031D01*
X009083Y023266D01*
X009083Y023597D01*
X008849Y023831D01*
X008517Y023831D01*
X008358Y023671D01*
X005356Y023671D01*
X005260Y023671D01*
X005258Y023670D01*
X005172Y023635D01*
X005105Y023567D01*
X005083Y023545D01*
X005083Y023597D01*
X004849Y023831D01*
X004517Y023831D01*
X004283Y023597D01*
X004283Y023266D01*
X004517Y023031D01*
X004569Y023031D01*
X002797Y021260D01*
X002767Y021230D01*
X002730Y021192D01*
X002693Y021104D01*
X002693Y021008D01*
X002693Y019181D01*
X002263Y019181D01*
X002103Y019341D01*
X001933Y019341D01*
X001763Y019341D01*
X001603Y019181D01*
X000963Y019181D01*
X000963Y029431D01*
X018594Y029431D01*
X018683Y029521D02*
X018683Y030101D01*
X018603Y030021D02*
X018843Y030261D01*
X018843Y030601D01*
X018603Y030841D01*
X018263Y030841D01*
X018023Y030601D01*
X018023Y030261D01*
X018263Y030021D01*
X018603Y030021D01*
X018183Y030101D02*
X018183Y029194D01*
X018202Y029202D02*
X018040Y029135D01*
X017916Y029011D01*
X017896Y028961D01*
X017875Y029011D01*
X017751Y029135D01*
X017590Y029202D01*
X017414Y029202D01*
X017253Y029135D01*
X017129Y029011D01*
X017108Y028961D01*
X017088Y029011D01*
X016964Y029135D01*
X016802Y029202D01*
X016627Y029202D01*
X016465Y029135D01*
X016342Y029011D01*
X016321Y028961D01*
X016300Y029011D01*
X016176Y029135D01*
X016015Y029202D01*
X015840Y029202D01*
X015678Y029135D01*
X015554Y029011D01*
X015533Y028960D01*
X015516Y028992D01*
X015475Y029049D01*
X015426Y029097D01*
X015370Y029138D01*
X015309Y029170D01*
X015243Y029191D01*
X015174Y029202D01*
X015140Y029202D01*
X015140Y028762D01*
X015140Y028762D01*
X015140Y029202D01*
X015105Y029202D01*
X015037Y029191D01*
X014971Y029170D01*
X014909Y029138D01*
X014853Y029097D01*
X014804Y029049D01*
X014764Y028992D01*
X014732Y028931D01*
X014711Y028865D01*
X014700Y028796D01*
X014700Y028762D01*
X015139Y028762D01*
X015139Y028762D01*
X014700Y028762D01*
X014700Y028727D01*
X014711Y028659D01*
X014732Y028593D01*
X014764Y028531D01*
X014804Y028475D01*
X014853Y028426D01*
X014909Y028386D01*
X014971Y028354D01*
X015037Y028333D01*
X015105Y028322D01*
X015140Y028322D01*
X015174Y028322D01*
X015243Y028333D01*
X015309Y028354D01*
X015370Y028386D01*
X015426Y028426D01*
X015475Y028475D01*
X015516Y028531D01*
X015533Y028564D01*
X015554Y028513D01*
X015678Y028389D01*
X015840Y028322D01*
X016015Y028322D01*
X016176Y028389D01*
X016300Y028513D01*
X016321Y028563D01*
X016342Y028513D01*
X016465Y028389D01*
X016627Y028322D01*
X016802Y028322D01*
X016964Y028389D01*
X017088Y028513D01*
X017108Y028563D01*
X017129Y028513D01*
X017253Y028389D01*
X017414Y028322D01*
X017590Y028322D01*
X017751Y028389D01*
X017875Y028513D01*
X017896Y028563D01*
X017916Y028513D01*
X018040Y028389D01*
X018202Y028322D01*
X018377Y028322D01*
X018539Y028389D01*
X018662Y028513D01*
X018683Y028563D01*
X018683Y026345D01*
X018769Y026431D02*
X016749Y026431D01*
X016683Y026497D02*
X016683Y027116D01*
X016599Y027031D02*
X016833Y027266D01*
X016833Y027597D01*
X016599Y027831D01*
X016267Y027831D01*
X016033Y027597D01*
X016033Y027266D01*
X016267Y027031D01*
X016599Y027031D01*
X016183Y027116D02*
X016183Y026497D01*
X016118Y026431D02*
X012749Y026431D01*
X012683Y026497D02*
X012683Y027116D01*
X012599Y027031D02*
X012833Y027266D01*
X012833Y027597D01*
X012599Y027831D01*
X012267Y027831D01*
X012107Y027671D01*
X010231Y027671D01*
X010135Y027671D01*
X010047Y027635D01*
X009547Y027135D01*
X009480Y027067D01*
X009443Y026979D01*
X009443Y023448D01*
X009379Y023384D01*
X009325Y023252D01*
X009325Y023110D01*
X009379Y022978D01*
X009436Y022921D01*
X006260Y022921D01*
X006172Y022885D01*
X006105Y022817D01*
X004333Y021046D01*
X004333Y021097D01*
X004099Y021331D01*
X003767Y021331D01*
X003533Y021097D01*
X003533Y020766D01*
X003767Y020531D01*
X003819Y020531D01*
X003230Y019942D01*
X003193Y019854D01*
X003193Y019758D01*
X003193Y019261D01*
X003173Y019281D01*
X003173Y020957D01*
X004283Y022067D01*
X004283Y022016D01*
X004517Y021781D01*
X004849Y021781D01*
X005083Y022016D01*
X005083Y022347D01*
X004849Y022581D01*
X004797Y022581D01*
X005408Y023191D01*
X008358Y023191D01*
X008517Y023031D01*
X008183Y022921D02*
X008183Y023191D01*
X008183Y023671D02*
X008183Y031151D01*
X007683Y031151D02*
X007683Y023671D01*
X007683Y023191D02*
X007683Y022921D01*
X007183Y022921D02*
X007183Y023191D01*
X007183Y023671D02*
X007183Y026366D01*
X007249Y026431D02*
X009443Y026431D01*
X009923Y026431D02*
X012118Y026431D01*
X012183Y026497D02*
X012183Y027116D01*
X012107Y027191D02*
X012267Y027031D01*
X012599Y027031D01*
X012433Y027431D02*
X010183Y027431D01*
X009683Y026931D01*
X009683Y023181D01*
X009426Y022931D02*
X005148Y022931D01*
X005183Y022967D02*
X005183Y021896D01*
X005219Y021931D02*
X004999Y021931D01*
X004683Y021781D02*
X004683Y021396D01*
X004719Y021431D02*
X003647Y021431D01*
X003683Y021467D02*
X003683Y021247D01*
X003533Y020931D02*
X003173Y020931D01*
X003183Y020967D02*
X003183Y019271D01*
X003173Y019431D02*
X003193Y019431D01*
X003433Y019181D02*
X003433Y019806D01*
X006308Y022681D01*
X015358Y022681D01*
X021439Y028762D01*
X021439Y027925D01*
X023933Y025431D01*
X023555Y025431D02*
X018448Y025431D01*
X018683Y025667D02*
X018683Y020300D01*
X018662Y020350D01*
X018539Y020473D01*
X018377Y020540D01*
X018202Y020540D01*
X018040Y020473D01*
X017916Y020350D01*
X017896Y020300D01*
X017875Y020350D01*
X017751Y020473D01*
X017590Y020540D01*
X017414Y020540D01*
X017253Y020473D01*
X017129Y020350D01*
X017108Y020300D01*
X017088Y020350D01*
X016964Y020473D01*
X016802Y020540D01*
X016627Y020540D01*
X016465Y020473D01*
X016342Y020350D01*
X016321Y020300D01*
X016300Y020350D01*
X016176Y020473D01*
X016015Y020540D01*
X015840Y020540D01*
X015678Y020473D01*
X015554Y020350D01*
X015534Y020300D01*
X015513Y020350D01*
X015389Y020473D01*
X015227Y020540D01*
X015052Y020540D01*
X014891Y020473D01*
X014767Y020350D01*
X014700Y020188D01*
X014700Y020013D01*
X014767Y019851D01*
X014891Y019727D01*
X015052Y019660D01*
X015227Y019660D01*
X015389Y019727D01*
X015513Y019851D01*
X015534Y019901D01*
X015554Y019851D01*
X015678Y019727D01*
X015840Y019660D01*
X016015Y019660D01*
X016176Y019727D01*
X016300Y019851D01*
X016321Y019901D01*
X016342Y019851D01*
X016465Y019727D01*
X016627Y019660D01*
X016802Y019660D01*
X016964Y019727D01*
X017088Y019851D01*
X017108Y019901D01*
X017129Y019851D01*
X017253Y019727D01*
X017414Y019660D01*
X017590Y019660D01*
X017751Y019727D01*
X017875Y019851D01*
X017896Y019901D01*
X017916Y019851D01*
X018040Y019727D01*
X018202Y019660D01*
X018377Y019660D01*
X018539Y019727D01*
X018662Y019851D01*
X018683Y019901D01*
X018683Y019181D01*
X018683Y018681D02*
X018683Y018384D01*
X018662Y018362D02*
X018613Y018245D01*
X018613Y018117D01*
X018613Y018030D01*
X018526Y017943D01*
X018453Y017767D01*
X018453Y017751D01*
X018069Y017751D01*
X018083Y017766D01*
X018083Y017931D01*
X017684Y017931D01*
X017684Y017931D01*
X018521Y017931D01*
X018183Y017751D02*
X018183Y018681D01*
X017849Y018331D02*
X017683Y018331D01*
X017517Y018331D01*
X017283Y018097D01*
X017283Y017931D01*
X017283Y017784D01*
X016386Y018681D01*
X018981Y018681D01*
X018662Y018362D01*
X018731Y018431D02*
X016636Y018431D01*
X016683Y018384D02*
X016683Y018681D01*
X017183Y018681D02*
X017183Y017884D01*
X017136Y017931D02*
X017683Y017931D01*
X017283Y017931D01*
X017683Y017931D01*
X017683Y017931D01*
X017683Y017932D02*
X017683Y018681D01*
X017683Y018331D02*
X017683Y017932D01*
X017683Y017932D01*
X017683Y018331D01*
X017849Y018331D02*
X018083Y018097D01*
X018083Y017931D01*
X017684Y017931D01*
X017183Y017431D02*
X018933Y017431D01*
X018933Y018181D01*
X019683Y018931D01*
X028183Y018931D01*
X028933Y019681D01*
X029933Y018681D01*
X029933Y015931D01*
X029495Y015931D02*
X028886Y015931D01*
X028683Y015729D02*
X028683Y014979D01*
X028703Y014987D02*
X028560Y014928D01*
X028436Y014804D01*
X028370Y014643D01*
X028370Y014469D01*
X028436Y014308D01*
X028560Y014184D01*
X028721Y014118D01*
X028804Y014118D01*
X028783Y014097D01*
X028783Y013931D01*
X028783Y013766D01*
X029017Y013531D01*
X029183Y013531D01*
X029183Y013931D01*
X029183Y013931D01*
X029183Y012997D01*
X029249Y012931D02*
X030504Y012931D01*
X030453Y012880D02*
X030453Y012482D01*
X030613Y012322D01*
X030613Y010790D01*
X030453Y010630D01*
X030453Y010232D01*
X030734Y009951D01*
X031132Y009951D01*
X031413Y010232D01*
X031413Y010630D01*
X031253Y010790D01*
X031253Y012322D01*
X031413Y012482D01*
X031413Y012880D01*
X031132Y013161D01*
X030734Y013161D01*
X030453Y012880D01*
X030683Y013110D02*
X030683Y014229D01*
X030676Y014236D02*
X033081Y011831D01*
X032933Y011831D01*
X032767Y011831D01*
X032533Y011597D01*
X032533Y011431D01*
X032533Y011266D01*
X032767Y011031D01*
X032933Y011031D01*
X032933Y011431D01*
X032933Y011431D01*
X032533Y011431D01*
X032933Y011431D01*
X032933Y011431D01*
X031253Y011431D01*
X031253Y010931D02*
X033981Y010931D01*
X034183Y010729D02*
X034183Y009001D01*
X033683Y009001D02*
X033683Y011229D01*
X033481Y011431D02*
X032934Y011431D01*
X032934Y011431D01*
X033333Y011431D01*
X033333Y011266D01*
X033099Y011031D01*
X032933Y011031D01*
X032933Y011431D01*
X032933Y011432D02*
X032933Y011831D01*
X032933Y011432D01*
X032933Y011432D01*
X032934Y011431D02*
X033333Y011431D01*
X033333Y011579D01*
X035287Y009625D01*
X035377Y009535D01*
X035494Y009486D01*
X035559Y009486D01*
X035453Y009380D01*
X035453Y009154D01*
X035301Y009001D01*
X032413Y009001D01*
X032413Y009380D01*
X032132Y009661D01*
X031734Y009661D01*
X031453Y009380D01*
X031453Y009114D01*
X031413Y009154D01*
X031413Y009380D01*
X031132Y009661D01*
X030734Y009661D01*
X030453Y009380D01*
X030453Y009154D01*
X030301Y009001D01*
X027413Y009001D01*
X027413Y009380D01*
X027132Y009661D01*
X026734Y009661D01*
X026453Y009380D01*
X026453Y009114D01*
X026413Y009154D01*
X026413Y009380D01*
X026249Y009544D01*
X026614Y009910D01*
X026695Y009991D01*
X026734Y009951D01*
X027132Y009951D01*
X027413Y010232D01*
X027413Y010630D01*
X027132Y010911D01*
X026734Y010911D01*
X026695Y010872D01*
X026506Y011061D01*
X026673Y011228D01*
X026673Y011634D01*
X026386Y011921D01*
X026003Y011921D01*
X026003Y012322D01*
X026163Y012482D01*
X026163Y012861D01*
X027801Y012861D01*
X027863Y012799D01*
X027863Y011804D01*
X027693Y011634D01*
X027693Y011228D01*
X027980Y010941D01*
X028386Y010941D01*
X028673Y011228D01*
X028673Y011634D01*
X028503Y011804D01*
X028503Y012995D01*
X028454Y013112D01*
X028364Y013202D01*
X028114Y013452D01*
X027997Y013501D01*
X027869Y013501D01*
X026066Y013501D01*
X025856Y013711D01*
X026029Y013711D01*
X026205Y013784D01*
X026340Y013919D01*
X026413Y014096D01*
X026413Y014111D01*
X026869Y014111D01*
X026997Y014111D01*
X027114Y014160D01*
X029156Y016201D01*
X029382Y016201D01*
X029613Y016432D01*
X029613Y016231D01*
X029561Y016179D01*
X029495Y016018D01*
X029495Y015844D01*
X029561Y015683D01*
X029685Y015559D01*
X029846Y015493D01*
X030020Y015493D01*
X030181Y015559D01*
X030305Y015683D01*
X030372Y015844D01*
X030372Y016018D01*
X030305Y016179D01*
X030253Y016231D01*
X030253Y018617D01*
X030253Y018681D01*
X034813Y018681D01*
X034811Y018679D01*
X034745Y018518D01*
X034745Y018344D01*
X034811Y018183D01*
X034897Y018097D01*
X034752Y017952D01*
X034662Y017862D01*
X034613Y017745D01*
X034613Y011790D01*
X034453Y011630D01*
X034453Y011364D01*
X030989Y014827D01*
X030872Y014876D01*
X030744Y014876D01*
X029557Y014876D01*
X029663Y014982D01*
X029663Y015380D01*
X029382Y015661D01*
X028984Y015661D01*
X028703Y015380D01*
X028703Y014987D01*
X028568Y014931D02*
X027886Y014931D01*
X027683Y014729D02*
X027683Y013501D01*
X027933Y013181D02*
X028183Y012931D01*
X028183Y011431D01*
X028183Y010941D02*
X028183Y009001D01*
X027683Y009001D02*
X027683Y012861D01*
X027933Y013181D02*
X025933Y013181D01*
X025433Y013681D01*
X025433Y015181D01*
X025933Y015681D01*
X025933Y017431D01*
X026413Y017431D02*
X026731Y017431D01*
X026683Y017479D02*
X026683Y014751D01*
X026801Y014751D02*
X026413Y014751D01*
X026413Y014767D01*
X026340Y014943D01*
X026205Y015078D01*
X026029Y015151D01*
X025856Y015151D01*
X026204Y015500D01*
X026253Y015617D01*
X026253Y015745D01*
X026253Y016832D01*
X026340Y016919D01*
X026413Y017096D01*
X026413Y017749D01*
X026912Y017250D01*
X026912Y017250D01*
X027002Y017160D01*
X027119Y017111D01*
X027203Y017111D01*
X027203Y016732D01*
X027484Y016451D01*
X027882Y016451D01*
X028163Y016732D01*
X028163Y017022D01*
X028234Y016951D01*
X028632Y016951D01*
X028913Y017232D01*
X028913Y017630D01*
X028632Y017911D01*
X028234Y017911D01*
X028074Y017751D01*
X028069Y017751D01*
X028083Y017766D01*
X028083Y017931D01*
X027684Y017931D01*
X027684Y017931D01*
X029183Y017931D01*
X029183Y017931D01*
X029183Y017531D01*
X029017Y017531D01*
X028783Y017766D01*
X028783Y017931D01*
X029183Y017931D01*
X029183Y017161D01*
X028984Y017161D02*
X028703Y016880D01*
X028703Y016654D01*
X026801Y014751D01*
X026981Y014931D02*
X026345Y014931D01*
X026183Y015087D02*
X026183Y015479D01*
X026136Y015431D02*
X027481Y015431D01*
X027683Y015634D02*
X027683Y016451D01*
X028183Y016134D02*
X028183Y017002D01*
X028163Y016931D02*
X028754Y016931D01*
X028683Y017002D02*
X028683Y016634D01*
X028481Y016431D02*
X026253Y016431D01*
X026345Y016931D02*
X027203Y016931D01*
X027183Y017111D02*
X027183Y015134D01*
X028183Y015229D02*
X028183Y013384D01*
X028136Y013431D02*
X031481Y013431D01*
X031683Y013229D02*
X031683Y010860D01*
X031734Y010911D02*
X031453Y010630D01*
X031453Y010232D01*
X031734Y009951D01*
X032132Y009951D01*
X032413Y010232D01*
X032413Y010630D01*
X032132Y010911D01*
X031734Y010911D01*
X032183Y010860D02*
X032183Y012729D01*
X031981Y012931D02*
X031362Y012931D01*
X031183Y013110D02*
X031183Y013729D01*
X030981Y013931D02*
X029184Y013931D01*
X029184Y013931D01*
X029583Y013931D01*
X029583Y013766D01*
X029349Y013531D01*
X029183Y013531D01*
X029183Y013931D01*
X028783Y013931D01*
X029183Y013931D01*
X029183Y013931D01*
X026345Y013931D01*
X026183Y013775D02*
X026183Y013501D01*
X026683Y013501D02*
X026683Y014111D01*
X026933Y014431D02*
X029183Y016681D01*
X029183Y016201D02*
X029183Y015661D01*
X028754Y015431D02*
X028386Y015431D01*
X027981Y015931D02*
X026253Y015931D01*
X024933Y016681D02*
X024933Y017431D01*
X023933Y017431D02*
X023933Y015431D01*
X023433Y014931D01*
X023433Y013681D01*
X023183Y013431D01*
X023183Y012431D01*
X023683Y011931D01*
X023683Y010931D01*
X023933Y010681D01*
X024933Y010681D01*
X025183Y010931D01*
X025183Y011431D01*
X025683Y010681D02*
X025933Y010431D01*
X025683Y010681D02*
X025683Y012681D01*
X026112Y012431D02*
X027863Y012431D01*
X027863Y011931D02*
X026003Y011931D01*
X026183Y011921D02*
X026183Y012861D01*
X026683Y012861D02*
X026683Y010884D01*
X026636Y010931D02*
X030613Y010931D01*
X030613Y011431D02*
X029673Y011431D01*
X029673Y011228D02*
X029386Y010941D01*
X028980Y010941D01*
X028693Y011228D01*
X028693Y011634D01*
X028980Y011921D01*
X029386Y011921D01*
X029673Y011634D01*
X029673Y011228D01*
X029183Y010941D02*
X029183Y009001D01*
X028683Y009001D02*
X028683Y012366D01*
X028617Y012431D02*
X028503Y012431D01*
X028533Y012516D02*
X028767Y012281D01*
X028933Y012281D01*
X028933Y012681D01*
X028933Y012681D01*
X028533Y012681D01*
X028533Y012516D01*
X028533Y012681D02*
X028933Y012681D01*
X028933Y012681D01*
X028933Y012281D01*
X029099Y012281D01*
X029333Y012516D01*
X029333Y012681D01*
X028934Y012681D01*
X028934Y012681D01*
X029333Y012681D01*
X029333Y012847D01*
X029099Y013081D01*
X028933Y013081D01*
X028767Y013081D01*
X028533Y012847D01*
X028533Y012681D01*
X028683Y012681D02*
X028683Y012681D01*
X028933Y012682D02*
X028933Y013081D01*
X028933Y012682D01*
X028933Y012682D01*
X028933Y012931D02*
X028933Y012931D01*
X028683Y012997D02*
X028683Y014133D01*
X028385Y014431D02*
X027386Y014431D01*
X027183Y014229D02*
X027183Y013501D01*
X027183Y012861D02*
X027183Y011921D01*
X027386Y011921D02*
X026980Y011921D01*
X026693Y011634D01*
X026693Y011228D01*
X026980Y010941D01*
X027386Y010941D01*
X027673Y011228D01*
X027673Y011634D01*
X027386Y011921D01*
X027673Y011431D02*
X027693Y011431D01*
X027183Y010941D02*
X027183Y010860D01*
X027413Y010431D02*
X030453Y010431D01*
X030933Y010431D02*
X030933Y012681D01*
X030504Y012431D02*
X029249Y012431D01*
X029183Y012366D02*
X029183Y011921D01*
X028933Y012431D02*
X028933Y012431D01*
X029183Y012681D02*
X029183Y012681D01*
X028618Y012931D02*
X028503Y012931D01*
X028503Y011931D02*
X030613Y011931D01*
X031253Y011931D02*
X032981Y011931D01*
X032683Y011747D02*
X032683Y012229D01*
X032481Y012431D02*
X031362Y012431D01*
X032386Y013431D02*
X034613Y013431D01*
X034613Y012931D02*
X032886Y012931D01*
X032683Y013134D02*
X032683Y018681D01*
X032984Y018411D02*
X032703Y018130D01*
X032703Y017732D01*
X032984Y017451D01*
X033382Y017451D01*
X033663Y017732D01*
X033663Y018130D01*
X033382Y018411D01*
X032984Y018411D01*
X033183Y018411D02*
X033183Y018681D01*
X033683Y018681D02*
X033683Y012134D01*
X033886Y011931D02*
X034613Y011931D01*
X034613Y012431D02*
X033386Y012431D01*
X033183Y012634D02*
X033183Y013451D01*
X032984Y013451D02*
X033382Y013451D01*
X033663Y013732D01*
X033663Y014130D01*
X033382Y014411D01*
X032984Y014411D01*
X032703Y014130D01*
X032703Y013732D01*
X032984Y013451D01*
X032183Y013634D02*
X032183Y015493D01*
X032096Y015493D02*
X032270Y015493D01*
X032431Y015559D01*
X032555Y015683D01*
X032622Y015844D01*
X032622Y016018D01*
X032555Y016179D01*
X032431Y016303D01*
X032270Y016370D01*
X032096Y016370D01*
X031935Y016303D01*
X031811Y016179D01*
X031745Y016018D01*
X031745Y015844D01*
X031811Y015683D01*
X031935Y015559D01*
X032096Y015493D01*
X031745Y015931D02*
X030372Y015931D01*
X030183Y015561D02*
X030183Y014876D01*
X029683Y014876D02*
X029683Y015561D01*
X029612Y015431D02*
X032754Y015431D01*
X032703Y015380D02*
X032984Y015661D01*
X033382Y015661D01*
X033663Y015380D01*
X033663Y014982D01*
X033382Y014701D01*
X032984Y014701D01*
X032703Y014982D01*
X032703Y015380D01*
X032754Y014931D02*
X029612Y014931D01*
X029683Y014236D02*
X029683Y009001D01*
X030183Y009001D02*
X030183Y014236D01*
X030676Y014236D02*
X029444Y014236D01*
X029583Y014097D01*
X029583Y013931D01*
X029184Y013931D01*
X028808Y014556D02*
X030808Y014556D01*
X035558Y009806D01*
X041308Y009806D01*
X041683Y010181D01*
X041683Y010431D01*
X040683Y011431D01*
X040683Y015681D01*
X041683Y016681D01*
X041683Y016201D02*
X041683Y015661D01*
X041484Y015661D02*
X041203Y015380D01*
X041203Y014982D01*
X041484Y014701D01*
X041882Y014701D01*
X042163Y014982D01*
X042163Y015380D01*
X041882Y015661D01*
X041484Y015661D01*
X041386Y015931D02*
X042702Y015931D01*
X042719Y015830D02*
X042719Y015830D01*
X042898Y015522D01*
X043170Y015293D01*
X043170Y015293D01*
X043006Y015431D02*
X042112Y015431D01*
X042112Y014931D02*
X044903Y014931D01*
X044469Y015522D02*
X044196Y015293D01*
X044196Y015293D01*
X043861Y015171D01*
X043861Y015171D01*
X043739Y015171D01*
X043739Y015171D01*
X043698Y015171D01*
X043683Y015171D01*
X043505Y015171D02*
X043505Y015171D01*
X042898Y015522D02*
X042898Y015522D01*
X042719Y015830D02*
X042658Y016181D01*
X042658Y016181D01*
X042719Y016532D01*
X042719Y016532D01*
X042898Y016840D01*
X042898Y016840D01*
X042898Y016840D01*
X043170Y017069D01*
X043170Y017069D01*
X043505Y017191D01*
X043505Y017191D01*
X043627Y017191D01*
X043627Y017191D01*
X043681Y017191D01*
X043683Y017191D01*
X043683Y018681D01*
X043183Y018681D02*
X043183Y017074D01*
X043006Y016931D02*
X042112Y016931D01*
X041683Y017161D02*
X041683Y017931D01*
X041683Y017931D01*
X041683Y017531D01*
X041517Y017531D01*
X041283Y017766D01*
X041283Y017931D01*
X041683Y017931D01*
X041683Y017931D01*
X038163Y017931D01*
X038183Y017751D02*
X038183Y018681D01*
X037683Y018681D02*
X037683Y018411D01*
X037183Y018681D02*
X037183Y018134D01*
X036886Y018431D02*
X044903Y018431D01*
X044683Y018681D02*
X044683Y016326D01*
X044665Y016431D02*
X044903Y016431D01*
X044647Y016532D02*
X044469Y016840D01*
X044469Y016840D01*
X044196Y017069D01*
X043861Y017191D01*
X043739Y017191D01*
X043739Y017191D01*
X043683Y017191D01*
X043861Y017191D02*
X043861Y017191D01*
X044183Y017074D02*
X044183Y018681D01*
X044183Y019181D02*
X044183Y030820D01*
X044098Y030888D02*
X044399Y030647D01*
X044640Y030346D01*
X044807Y029999D01*
X044892Y029624D01*
X044903Y029431D01*
X040963Y029431D01*
X040963Y029269D02*
X040963Y029661D01*
X040453Y029661D01*
X040453Y028781D01*
X040475Y028781D01*
X040557Y028794D01*
X040637Y028820D01*
X040711Y028858D01*
X040778Y028907D01*
X040837Y028966D01*
X040886Y029033D01*
X040924Y029108D01*
X040950Y029187D01*
X040963Y029269D01*
X040803Y028931D02*
X044903Y028931D01*
X044903Y029375D02*
X044903Y019181D01*
X032583Y019181D01*
X032583Y019347D01*
X032349Y019581D01*
X032017Y019581D01*
X031783Y019347D01*
X031783Y019181D01*
X030583Y019181D01*
X030583Y019347D01*
X030349Y019581D01*
X030017Y019581D01*
X029783Y019347D01*
X029783Y019181D01*
X029773Y019181D01*
X029333Y019621D01*
X029333Y019847D01*
X029099Y020081D01*
X028767Y020081D01*
X028533Y019847D01*
X028533Y019621D01*
X028094Y019181D01*
X009523Y019181D01*
X009042Y019662D01*
X009042Y019700D01*
X010033Y020691D01*
X010252Y020691D01*
X010268Y020654D01*
X010406Y020516D01*
X010586Y020441D01*
X010781Y020441D01*
X010961Y020516D01*
X011099Y020654D01*
X011173Y020834D01*
X011173Y021029D01*
X011099Y021209D01*
X010961Y021347D01*
X010781Y021421D01*
X010586Y021421D01*
X010406Y021347D01*
X010268Y021209D01*
X010252Y021171D01*
X009981Y021171D01*
X009885Y021171D01*
X009797Y021135D01*
X008702Y020040D01*
X008612Y020040D01*
X008480Y019985D01*
X008379Y019884D01*
X008333Y019773D01*
X008333Y019847D01*
X008099Y020081D01*
X007767Y020081D01*
X007533Y019847D01*
X007533Y019516D01*
X007767Y019281D01*
X007944Y019281D01*
X007844Y019181D01*
X006023Y019181D01*
X007533Y020691D01*
X007607Y020691D01*
X007767Y020531D01*
X008099Y020531D01*
X008333Y020766D01*
X008333Y021097D01*
X008099Y021331D01*
X007767Y021331D01*
X007607Y021171D01*
X007385Y021171D01*
X007297Y021135D01*
X007230Y021067D01*
X005344Y019181D01*
X004773Y019181D01*
X007533Y021941D01*
X008357Y021941D01*
X008517Y021781D01*
X008849Y021781D01*
X009083Y022016D01*
X009083Y022347D01*
X008989Y022441D01*
X015311Y022441D01*
X015406Y022441D01*
X015494Y022478D01*
X021199Y028183D01*
X021199Y027973D01*
X021199Y027878D01*
X021236Y027789D01*
X023555Y025470D01*
X023555Y025356D01*
X023613Y025217D01*
X023719Y025111D01*
X023858Y025053D01*
X024008Y025053D01*
X024147Y025111D01*
X024254Y025217D01*
X024311Y025356D01*
X024311Y025464D01*
X025730Y024045D01*
X025797Y023978D01*
X025885Y023941D01*
X029635Y023941D01*
X029731Y023941D01*
X029819Y023978D01*
X031533Y025691D01*
X040994Y025691D01*
X041002Y025673D01*
X041130Y025545D01*
X041297Y025476D01*
X042069Y025476D01*
X042236Y025545D01*
X042364Y025673D01*
X042434Y025841D01*
X042434Y026022D01*
X042364Y026189D01*
X042236Y026317D01*
X042069Y026386D01*
X041297Y026386D01*
X041130Y026317D01*
X041002Y026189D01*
X040994Y026171D01*
X031385Y026171D01*
X031297Y026135D01*
X031230Y026067D01*
X029584Y024421D01*
X029458Y024421D01*
X029504Y024467D01*
X029561Y024606D01*
X029561Y024756D01*
X029504Y024895D01*
X029397Y025002D01*
X029258Y025059D01*
X029144Y025059D01*
X023843Y030361D01*
X023843Y030601D01*
X023603Y030841D01*
X023263Y030841D01*
X023023Y030601D01*
X023023Y030261D01*
X023263Y030021D01*
X023504Y030021D01*
X028805Y024720D01*
X028805Y024606D01*
X028863Y024467D01*
X028908Y024421D01*
X026033Y024421D01*
X024673Y025781D01*
X024673Y027352D01*
X024783Y027242D01*
X024783Y027016D01*
X025017Y026781D01*
X025349Y026781D01*
X025583Y027016D01*
X025583Y027347D01*
X025349Y027581D01*
X025123Y027581D01*
X022643Y030061D01*
X022843Y030261D01*
X022843Y030431D01*
X022434Y030431D01*
X022434Y030431D01*
X023023Y030431D01*
X022843Y030431D02*
X022843Y030601D01*
X022603Y030841D01*
X022433Y030841D01*
X022263Y030841D01*
X022023Y030601D01*
X022023Y030431D01*
X022023Y030261D01*
X022113Y030171D01*
X021753Y030171D01*
X021843Y030261D01*
X021843Y030431D01*
X021434Y030431D01*
X021434Y030431D01*
X022433Y030431D01*
X022023Y030431D01*
X022433Y030431D01*
X022433Y030431D01*
X022433Y030432D02*
X022433Y030841D01*
X022433Y030432D01*
X022433Y030432D01*
X022434Y030431D02*
X022843Y030431D01*
X022683Y030431D02*
X022683Y030431D01*
X022683Y030101D02*
X022683Y030021D01*
X022773Y029931D02*
X023594Y029931D01*
X023683Y029842D02*
X023683Y029021D01*
X023773Y028931D02*
X024594Y028931D01*
X024683Y028842D02*
X024683Y028021D01*
X024773Y027931D02*
X025594Y027931D01*
X025683Y027842D02*
X025683Y024771D01*
X025523Y024931D02*
X028594Y024931D01*
X028683Y024842D02*
X028683Y024421D01*
X028898Y024431D02*
X026023Y024431D01*
X026183Y024421D02*
X026183Y027342D01*
X026094Y027431D02*
X025499Y027431D01*
X025183Y027581D02*
X025183Y028342D01*
X025094Y028431D02*
X024273Y028431D01*
X024183Y028521D02*
X024183Y029342D01*
X024094Y029431D02*
X023273Y029431D01*
X023183Y029521D02*
X023183Y030101D01*
X023433Y030431D02*
X029183Y024681D01*
X029468Y024431D02*
X029594Y024431D01*
X029683Y024521D02*
X029683Y026092D01*
X029583Y025992D02*
X032863Y029271D01*
X033103Y029271D01*
X033343Y029511D01*
X033343Y029851D01*
X033103Y030091D01*
X032763Y030091D01*
X032523Y029851D01*
X032523Y029611D01*
X029244Y026331D01*
X029017Y026331D01*
X028783Y026097D01*
X028783Y025766D01*
X029017Y025531D01*
X029349Y025531D01*
X029583Y025766D01*
X029583Y025992D01*
X029583Y025931D02*
X031094Y025931D01*
X031183Y026021D02*
X031183Y027592D01*
X031023Y027431D02*
X037193Y027431D01*
X037193Y027229D02*
X037193Y027133D01*
X037230Y027045D01*
X037480Y026795D01*
X037547Y026728D01*
X037635Y026691D01*
X040994Y026691D01*
X041002Y026673D01*
X041130Y026545D01*
X041297Y026476D01*
X042069Y026476D01*
X042236Y026545D01*
X042364Y026673D01*
X042434Y026841D01*
X042434Y027022D01*
X042364Y027189D01*
X042236Y027317D01*
X042069Y027386D01*
X041297Y027386D01*
X041130Y027317D01*
X041002Y027189D01*
X040994Y027171D01*
X037783Y027171D01*
X037673Y027281D01*
X037673Y028837D01*
X037733Y028862D01*
X037882Y029011D01*
X037933Y029133D01*
X037984Y029011D01*
X038133Y028862D01*
X038328Y028781D01*
X038539Y028781D01*
X038733Y028862D01*
X038882Y029011D01*
X038933Y029134D01*
X038942Y029108D01*
X038980Y029033D01*
X039029Y028966D01*
X039088Y028907D01*
X039155Y028858D01*
X039230Y028820D01*
X039309Y028794D01*
X039391Y028781D01*
X039413Y028781D01*
X039413Y029661D01*
X039453Y029661D01*
X039453Y028781D01*
X039475Y028781D01*
X039557Y028794D01*
X039637Y028820D01*
X039711Y028858D01*
X039778Y028907D01*
X039837Y028966D01*
X039886Y029033D01*
X039924Y029108D01*
X039933Y029135D01*
X039942Y029108D01*
X039980Y029033D01*
X040029Y028966D01*
X040088Y028907D01*
X040155Y028858D01*
X040230Y028820D01*
X040309Y028794D01*
X040391Y028781D01*
X040413Y028781D01*
X040413Y029661D01*
X040453Y029661D01*
X040453Y029701D01*
X040413Y029701D01*
X040413Y029661D01*
X039903Y029661D01*
X039453Y029661D01*
X039453Y029701D01*
X039413Y029701D01*
X039413Y030581D01*
X039391Y030581D01*
X039309Y030568D01*
X039230Y030542D01*
X039155Y030504D01*
X039088Y030455D01*
X039029Y030396D01*
X038980Y030329D01*
X038942Y030255D01*
X038933Y030228D01*
X038882Y030351D01*
X038733Y030500D01*
X038539Y030581D01*
X038328Y030581D01*
X038133Y030500D01*
X037984Y030351D01*
X037933Y030229D01*
X037882Y030351D01*
X037733Y030500D01*
X037539Y030581D01*
X037328Y030581D01*
X037133Y030500D01*
X036984Y030351D01*
X036933Y030229D01*
X036882Y030351D01*
X036733Y030500D01*
X036539Y030581D01*
X036328Y030581D01*
X036133Y030500D01*
X035984Y030351D01*
X035933Y030229D01*
X035882Y030351D01*
X035733Y030500D01*
X035539Y030581D01*
X035328Y030581D01*
X035133Y030500D01*
X034984Y030351D01*
X034903Y030157D01*
X034903Y029206D01*
X034984Y029011D01*
X035133Y028862D01*
X035328Y028781D01*
X035539Y028781D01*
X035733Y028862D01*
X035882Y029011D01*
X035933Y029133D01*
X035984Y029011D01*
X036133Y028862D01*
X036328Y028781D01*
X036539Y028781D01*
X036733Y028862D01*
X036882Y029011D01*
X036933Y029133D01*
X036984Y029011D01*
X037133Y028862D01*
X037193Y028837D01*
X037193Y027229D01*
X037433Y027181D02*
X037683Y026931D01*
X041683Y026931D01*
X041683Y026476D02*
X041683Y026386D01*
X041183Y026339D02*
X041183Y026523D01*
X040683Y026691D02*
X040683Y026171D01*
X040183Y026171D02*
X040183Y026691D01*
X040183Y027171D02*
X040183Y028844D01*
X040064Y028931D02*
X039803Y028931D01*
X039683Y028844D02*
X039683Y027171D01*
X039683Y026691D02*
X039683Y026171D01*
X039183Y026171D02*
X039183Y026691D01*
X039183Y027171D02*
X039183Y028844D01*
X039064Y028931D02*
X038803Y028931D01*
X038683Y028841D02*
X038683Y027171D01*
X038683Y026691D02*
X038683Y026171D01*
X038183Y026171D02*
X038183Y026691D01*
X038183Y027171D02*
X038183Y028841D01*
X038064Y028931D02*
X037803Y028931D01*
X037683Y028841D02*
X037683Y027271D01*
X037673Y027431D02*
X044903Y027431D01*
X044903Y027931D02*
X041702Y027931D01*
X041702Y027913D02*
X041702Y027950D01*
X041665Y027950D01*
X041665Y028386D01*
X041352Y028386D01*
X041281Y028375D01*
X041213Y028353D01*
X041149Y028321D01*
X041091Y028278D01*
X041041Y028228D01*
X040998Y028170D01*
X040966Y028106D01*
X040944Y028038D01*
X040933Y027967D01*
X040933Y027950D01*
X041664Y027950D01*
X041664Y027913D01*
X040933Y027913D01*
X040933Y027895D01*
X040944Y027825D01*
X040966Y027756D01*
X040998Y027693D01*
X041041Y027635D01*
X041091Y027584D01*
X041149Y027542D01*
X041213Y027509D01*
X041281Y027487D01*
X041352Y027476D01*
X041665Y027476D01*
X041665Y027912D01*
X041702Y027912D01*
X041702Y027476D01*
X042014Y027476D01*
X042085Y027487D01*
X042153Y027509D01*
X042217Y027542D01*
X042275Y027584D01*
X042326Y027635D01*
X042368Y027693D01*
X042400Y027756D01*
X042422Y027825D01*
X042434Y027895D01*
X042434Y027913D01*
X041702Y027913D01*
X041683Y027912D02*
X041683Y027386D01*
X041183Y027339D02*
X041183Y027525D01*
X041183Y027913D02*
X041183Y027950D01*
X041183Y028338D02*
X041183Y031151D01*
X040683Y031151D02*
X040683Y030519D01*
X040711Y030504D02*
X040637Y030542D01*
X040557Y030568D01*
X040475Y030581D01*
X040453Y030581D01*
X040453Y029701D01*
X040963Y029701D01*
X040963Y030093D01*
X040950Y030175D01*
X040924Y030255D01*
X040886Y030329D01*
X040837Y030396D01*
X040778Y030455D01*
X040711Y030504D01*
X040803Y030431D02*
X044572Y030431D01*
X044683Y030256D02*
X044683Y019181D01*
X044903Y019431D02*
X032499Y019431D01*
X032683Y019181D02*
X032683Y025691D01*
X032183Y025691D02*
X032183Y020831D01*
X032349Y020831D02*
X032017Y020831D01*
X031783Y020597D01*
X031783Y020266D01*
X032017Y020031D01*
X032349Y020031D01*
X032583Y020266D01*
X032583Y020597D01*
X032349Y020831D01*
X032583Y020431D02*
X044903Y020431D01*
X044903Y019931D02*
X029249Y019931D01*
X029183Y019997D02*
X029183Y023941D01*
X028683Y023941D02*
X028683Y019997D01*
X028618Y019931D02*
X025249Y019931D01*
X025183Y019997D02*
X025183Y024592D01*
X025344Y024431D02*
X017448Y024431D01*
X017683Y024667D02*
X017683Y020502D01*
X017794Y020431D02*
X017998Y020431D01*
X018183Y020533D02*
X018183Y025167D01*
X017948Y024931D02*
X024844Y024931D01*
X024683Y025092D02*
X024683Y019997D01*
X024618Y019931D02*
X022633Y019931D01*
X022599Y019851D02*
X022666Y020013D01*
X022666Y020188D01*
X022599Y020350D01*
X022476Y020473D01*
X022314Y020540D01*
X022139Y020540D01*
X021977Y020473D01*
X021853Y020350D01*
X021833Y020300D01*
X021812Y020350D01*
X021688Y020473D01*
X021527Y020540D01*
X021351Y020540D01*
X021190Y020473D01*
X021066Y020350D01*
X021045Y020300D01*
X021025Y020350D01*
X020901Y020473D01*
X020739Y020540D01*
X020564Y020540D01*
X020402Y020473D01*
X020279Y020350D01*
X020258Y020300D01*
X020237Y020350D01*
X020113Y020473D01*
X019952Y020540D01*
X019777Y020540D01*
X019615Y020473D01*
X019491Y020350D01*
X019471Y020300D01*
X019450Y020350D01*
X019326Y020473D01*
X019164Y020540D01*
X018989Y020540D01*
X018828Y020473D01*
X018704Y020350D01*
X018683Y020300D01*
X018581Y020431D02*
X018785Y020431D01*
X019183Y020533D02*
X019183Y026167D01*
X018948Y025931D02*
X023094Y025931D01*
X023183Y025842D02*
X023183Y019181D01*
X022683Y019181D02*
X022683Y026342D01*
X022594Y026431D02*
X019448Y026431D01*
X019683Y026667D02*
X019683Y020502D01*
X019573Y020431D02*
X019368Y020431D01*
X020156Y020431D02*
X020360Y020431D01*
X020183Y020404D02*
X020183Y027167D01*
X019948Y026931D02*
X022094Y026931D01*
X022183Y026842D02*
X022183Y020540D01*
X021935Y020431D02*
X021731Y020431D01*
X021683Y020476D02*
X021683Y027342D01*
X021594Y027431D02*
X020448Y027431D01*
X020683Y027667D02*
X020683Y020540D01*
X020943Y020431D02*
X021148Y020431D01*
X021183Y020467D02*
X021183Y028167D01*
X021199Y027931D02*
X020948Y027931D01*
X020269Y027931D02*
X007023Y027931D01*
X007069Y027978D02*
X007069Y027978D01*
X007137Y028045D01*
X007173Y028133D01*
X007173Y028356D01*
X007333Y028516D01*
X007333Y028847D01*
X007099Y029081D01*
X006767Y029081D01*
X006533Y028847D01*
X006533Y028516D01*
X006693Y028356D01*
X006693Y028281D01*
X005281Y026869D01*
X005214Y026801D01*
X005177Y026713D01*
X005177Y026302D01*
X004914Y026302D01*
X004710Y026217D01*
X004554Y026062D01*
X004470Y025858D01*
X004470Y025638D01*
X004554Y025434D01*
X004710Y025279D01*
X004914Y025194D01*
X005921Y025194D01*
X006125Y025279D01*
X006280Y025434D01*
X006365Y025638D01*
X006365Y025858D01*
X006280Y026062D01*
X006125Y026217D01*
X005921Y026302D01*
X005657Y026302D01*
X005657Y026566D01*
X007069Y027978D01*
X006933Y028181D02*
X006933Y028681D01*
X006683Y028366D02*
X006683Y028271D01*
X006617Y028431D02*
X006326Y028431D01*
X006365Y028339D02*
X006280Y028542D01*
X006125Y028698D01*
X005921Y028782D01*
X004914Y028782D01*
X004710Y028698D01*
X004554Y028542D01*
X004470Y028339D01*
X004470Y028118D01*
X004554Y027915D01*
X004710Y027759D01*
X004914Y027675D01*
X005921Y027675D01*
X006125Y027759D01*
X006280Y027915D01*
X006365Y028118D01*
X006365Y028339D01*
X006183Y028639D02*
X006183Y031151D01*
X005683Y031151D02*
X005683Y028782D01*
X005183Y028782D02*
X005183Y031151D01*
X004683Y031151D02*
X004683Y028671D01*
X004508Y028431D02*
X000963Y028431D01*
X000963Y027931D02*
X004547Y027931D01*
X004683Y027786D02*
X004683Y026191D01*
X004500Y025931D02*
X000963Y025931D01*
X000963Y025431D02*
X004558Y025431D01*
X004683Y025306D02*
X004683Y025081D01*
X004849Y025081D02*
X004517Y025081D01*
X004283Y024847D01*
X004283Y024516D01*
X004517Y024281D01*
X004849Y024281D01*
X005083Y024516D01*
X005083Y024847D01*
X004849Y025081D01*
X004999Y024931D02*
X008368Y024931D01*
X008283Y024847D02*
X008283Y024516D01*
X008517Y024281D01*
X008849Y024281D01*
X009083Y024516D01*
X009083Y024847D01*
X008849Y025081D01*
X008517Y025081D01*
X008283Y024847D01*
X008367Y024431D02*
X004999Y024431D01*
X004683Y024281D02*
X004683Y023831D01*
X005105Y023567D02*
X005105Y023567D01*
X005183Y023639D02*
X005183Y025194D01*
X005683Y025194D02*
X005683Y023671D01*
X005683Y023191D02*
X005683Y022396D01*
X005719Y022431D02*
X004999Y022431D01*
X004367Y021931D02*
X004147Y021931D01*
X004183Y021967D02*
X004183Y021247D01*
X003683Y020616D02*
X003683Y020396D01*
X003719Y020431D02*
X003173Y020431D01*
X002693Y020431D02*
X000963Y020431D01*
X000963Y019931D02*
X001523Y019931D01*
X001523Y020101D02*
X001523Y019761D01*
X001763Y019521D01*
X002103Y019521D01*
X002343Y019761D01*
X002343Y020101D01*
X002103Y020341D01*
X001763Y020341D01*
X001523Y020101D01*
X001683Y020261D02*
X001683Y020601D01*
X001763Y020521D02*
X001523Y020761D01*
X001523Y020931D01*
X001933Y020931D01*
X001933Y020931D01*
X001933Y020521D01*
X001763Y020521D01*
X001933Y020521D02*
X002103Y020521D01*
X002343Y020761D01*
X002343Y020931D01*
X001934Y020931D01*
X001934Y020931D01*
X002693Y020931D01*
X002343Y020931D02*
X002343Y021101D01*
X002103Y021341D01*
X001933Y021341D01*
X001763Y021341D01*
X001523Y021101D01*
X001523Y020931D01*
X001933Y020931D01*
X001933Y020931D01*
X000963Y020931D01*
X000963Y021431D02*
X002969Y021431D01*
X003183Y021646D02*
X003183Y026049D01*
X003159Y026062D02*
X003236Y026022D01*
X003319Y025995D01*
X003405Y025982D01*
X003430Y025982D01*
X003430Y026911D01*
X002895Y026911D01*
X002895Y026492D01*
X002909Y026406D01*
X002936Y026323D01*
X002975Y026245D01*
X003027Y026175D01*
X003088Y026113D01*
X003159Y026062D01*
X003467Y025982D02*
X003492Y025982D01*
X003579Y025995D01*
X003661Y026022D01*
X003739Y026062D01*
X003810Y026113D01*
X003871Y026175D01*
X003922Y026245D01*
X003962Y026323D01*
X003989Y026406D01*
X004003Y026492D01*
X004003Y026911D01*
X003468Y026911D01*
X003468Y026948D01*
X004003Y026948D01*
X004003Y027366D01*
X003989Y027453D01*
X003962Y027535D01*
X003922Y027613D01*
X003871Y027684D01*
X003810Y027745D01*
X003739Y027796D01*
X003661Y027836D01*
X003579Y027863D01*
X003492Y027877D01*
X003467Y027877D01*
X003467Y026948D01*
X003430Y026948D01*
X003430Y026911D01*
X003467Y026911D01*
X003467Y025982D01*
X003683Y026033D02*
X003683Y022146D01*
X003469Y021931D02*
X002343Y021931D01*
X002343Y021761D02*
X002343Y022101D01*
X002103Y022341D01*
X001763Y022341D01*
X001523Y022101D01*
X001523Y021761D01*
X001763Y021521D01*
X002103Y021521D01*
X002343Y021761D01*
X002183Y021601D02*
X002183Y021261D01*
X001933Y021341D02*
X001933Y020932D01*
X001933Y021341D01*
X001683Y021261D02*
X001683Y021601D01*
X001523Y021931D02*
X000963Y021931D01*
X000963Y022431D02*
X003969Y022431D01*
X004183Y022646D02*
X004183Y031151D01*
X003683Y031151D02*
X003683Y027825D01*
X003430Y027877D02*
X003405Y027877D01*
X003319Y027863D01*
X003236Y027836D01*
X003159Y027796D01*
X003088Y027745D01*
X003027Y027684D01*
X002975Y027613D01*
X002936Y027535D01*
X002909Y027453D01*
X002895Y027366D01*
X002895Y026948D01*
X003430Y026948D01*
X003430Y027877D01*
X003183Y027809D02*
X003183Y031151D01*
X002739Y031151D02*
X043183Y031151D01*
X043183Y019181D01*
X042683Y019181D02*
X042683Y031151D01*
X043183Y031151D02*
X043376Y031140D01*
X043751Y031055D01*
X044098Y030888D01*
X044008Y030931D02*
X001859Y030931D01*
X001768Y030888D02*
X002115Y031055D01*
X002491Y031140D01*
X002683Y031151D01*
X002728Y031151D01*
X002739Y031151D01*
X002683Y031151D02*
X002683Y019181D01*
X002693Y019431D02*
X000963Y019431D01*
X001183Y019181D02*
X001183Y030256D01*
X001227Y030346D02*
X001467Y030647D01*
X001768Y030888D01*
X001683Y030820D02*
X001683Y025261D01*
X001763Y025341D02*
X001523Y025101D01*
X001523Y024931D01*
X001523Y024761D01*
X001763Y024521D01*
X001933Y024521D01*
X001933Y024931D01*
X001933Y024931D01*
X001523Y024931D01*
X001933Y024931D01*
X001933Y024931D01*
X000963Y024931D01*
X000963Y024431D02*
X004367Y024431D01*
X004368Y024931D02*
X001934Y024931D01*
X001934Y024931D01*
X002343Y024931D01*
X002343Y024761D01*
X002103Y024521D01*
X001933Y024521D01*
X001933Y024931D01*
X001933Y024932D02*
X001933Y025341D01*
X001763Y025341D01*
X001933Y025341D02*
X001933Y024932D01*
X001933Y024932D01*
X001934Y024931D02*
X002343Y024931D01*
X002343Y025101D01*
X002103Y025341D01*
X001933Y025341D01*
X002183Y025261D02*
X002183Y031070D01*
X001294Y030431D02*
X013023Y030431D01*
X013023Y030261D02*
X013263Y030021D01*
X013603Y030021D01*
X013843Y030261D01*
X013843Y030601D01*
X013603Y030841D01*
X013263Y030841D01*
X013023Y030601D01*
X013023Y030261D01*
X013183Y030101D02*
X013183Y024432D01*
X013183Y024921D01*
X013145Y024921D01*
X013068Y024909D01*
X012995Y024885D01*
X012926Y024850D01*
X012864Y024805D01*
X012809Y024750D01*
X012764Y024688D01*
X012729Y024619D01*
X012705Y024546D01*
X012693Y024470D01*
X012693Y024431D01*
X012693Y024393D01*
X012705Y024316D01*
X012729Y024243D01*
X012764Y024174D01*
X012809Y024112D01*
X012864Y024057D01*
X012926Y024012D01*
X012995Y023977D01*
X013068Y023953D01*
X013145Y023941D01*
X013183Y023941D01*
X013183Y024431D01*
X013183Y024431D01*
X013183Y023921D01*
X013183Y023941D02*
X013222Y023941D01*
X013298Y023953D01*
X013371Y023977D01*
X013440Y024012D01*
X013502Y024057D01*
X013557Y024112D01*
X013602Y024174D01*
X013637Y024243D01*
X013661Y024316D01*
X013673Y024393D01*
X013673Y024431D01*
X013184Y024431D01*
X013184Y024431D01*
X016769Y024431D01*
X016683Y024345D02*
X016683Y025866D01*
X016749Y025931D02*
X018269Y025931D01*
X018183Y025845D02*
X018183Y028330D01*
X017998Y028431D02*
X017794Y028431D01*
X017683Y028361D02*
X017683Y025345D01*
X017769Y025431D02*
X009923Y025431D01*
X009443Y025431D02*
X006277Y025431D01*
X006183Y025337D02*
X006183Y023671D01*
X006183Y023191D02*
X006183Y022889D01*
X006683Y022921D02*
X006683Y023191D01*
X006683Y023671D02*
X006683Y026366D01*
X006617Y026431D02*
X005657Y026431D01*
X005683Y026302D02*
X005683Y026592D01*
X005417Y026665D02*
X006933Y028181D01*
X007183Y028366D02*
X007183Y026997D01*
X007249Y026931D02*
X009443Y026931D01*
X009683Y027271D02*
X009683Y031151D01*
X009183Y031151D02*
X009183Y022921D01*
X009083Y023431D02*
X009426Y023431D01*
X009923Y023448D02*
X009923Y026832D01*
X010283Y027191D01*
X012107Y027191D01*
X011683Y027191D02*
X011683Y022921D01*
X011183Y022921D02*
X011183Y027191D01*
X010683Y027191D02*
X010683Y022921D01*
X010183Y022921D02*
X010183Y027092D01*
X010023Y026931D02*
X019269Y026931D01*
X019183Y026845D02*
X019183Y028330D01*
X019164Y028322D02*
X019326Y028389D01*
X019450Y028513D01*
X019471Y028563D01*
X019491Y028513D01*
X019615Y028389D01*
X019777Y028322D01*
X019952Y028322D01*
X020113Y028389D01*
X020237Y028513D01*
X020258Y028563D01*
X020279Y028513D01*
X020402Y028389D01*
X020564Y028322D01*
X020660Y028322D01*
X015259Y022921D01*
X009930Y022921D01*
X009987Y022978D01*
X010042Y023110D01*
X010042Y023252D01*
X009987Y023384D01*
X009923Y023448D01*
X009940Y023431D02*
X012693Y023431D01*
X012693Y023334D02*
X012768Y023154D01*
X012906Y023016D01*
X013086Y022941D01*
X013281Y022941D01*
X013461Y023016D01*
X013599Y023154D01*
X013673Y023334D01*
X013673Y023529D01*
X013599Y023709D01*
X013461Y023847D01*
X013281Y023921D01*
X013086Y023921D01*
X012906Y023847D01*
X012768Y023709D01*
X012693Y023529D01*
X012693Y023334D01*
X012683Y022921D02*
X012683Y025866D01*
X012749Y025931D02*
X016117Y025931D01*
X016183Y025866D02*
X016183Y023845D01*
X016269Y023931D02*
X009923Y023931D01*
X009443Y023931D02*
X002343Y023931D01*
X002343Y023761D02*
X002103Y023521D01*
X001763Y023521D01*
X001523Y023761D01*
X001523Y024101D01*
X001763Y024341D01*
X002103Y024341D01*
X002343Y024101D01*
X002343Y023761D01*
X002183Y023601D02*
X002183Y023261D01*
X002103Y023341D02*
X001933Y023341D01*
X001763Y023341D01*
X001523Y023101D01*
X001523Y022931D01*
X001523Y022761D01*
X001763Y022521D01*
X001933Y022521D01*
X001933Y022931D01*
X001933Y022931D01*
X001523Y022931D01*
X001933Y022931D01*
X001933Y022931D01*
X000963Y022931D01*
X000963Y023431D02*
X004283Y023431D01*
X004469Y022931D02*
X001934Y022931D01*
X001934Y022931D01*
X002343Y022931D01*
X002343Y022761D01*
X002103Y022521D01*
X001933Y022521D01*
X001933Y022931D01*
X001933Y022932D02*
X001933Y023341D01*
X001933Y022932D01*
X001933Y022932D01*
X001934Y022931D02*
X002343Y022931D01*
X002343Y023101D01*
X002103Y023341D01*
X002183Y022931D02*
X002183Y022931D01*
X002183Y022601D02*
X002183Y022261D01*
X001683Y022261D02*
X001683Y022601D01*
X001683Y022931D02*
X001683Y022931D01*
X001683Y023261D02*
X001683Y023601D01*
X001523Y023931D02*
X000963Y023931D01*
X001683Y024261D02*
X001683Y024601D01*
X001683Y024931D02*
X001683Y024931D01*
X002183Y024931D02*
X002183Y024931D01*
X002183Y024601D02*
X002183Y024261D01*
X002905Y026431D02*
X000963Y026431D01*
X000963Y026931D02*
X003430Y026931D01*
X003468Y026931D02*
X005344Y026931D01*
X005281Y026869D02*
X005281Y026869D01*
X005183Y026727D02*
X005183Y027675D01*
X005683Y027675D02*
X005683Y027271D01*
X005844Y027431D02*
X003992Y027431D01*
X003467Y027431D02*
X003430Y027431D01*
X002905Y027431D02*
X000963Y027431D01*
X003183Y026948D02*
X003183Y026911D01*
X003430Y026431D02*
X003467Y026431D01*
X003993Y026431D02*
X005177Y026431D01*
X005417Y026665D02*
X005417Y025748D01*
X006183Y026159D02*
X006183Y027092D01*
X006023Y026931D02*
X006618Y026931D01*
X006683Y026997D02*
X006683Y027592D01*
X006523Y027431D02*
X009844Y027431D01*
X010183Y027671D02*
X010183Y031151D01*
X010683Y031151D02*
X010683Y027671D01*
X011183Y027671D02*
X011183Y031151D01*
X011683Y031151D02*
X011683Y027671D01*
X012183Y027747D02*
X012183Y031151D01*
X012683Y031151D02*
X012683Y027747D01*
X012833Y027431D02*
X016033Y027431D01*
X016183Y027747D02*
X016183Y028396D01*
X016219Y028431D02*
X016423Y028431D01*
X016683Y028322D02*
X016683Y027747D01*
X016833Y027431D02*
X019769Y027431D01*
X019683Y027345D02*
X019683Y028361D01*
X019573Y028431D02*
X019368Y028431D01*
X019164Y028322D02*
X018989Y028322D01*
X018828Y028389D01*
X018704Y028513D01*
X018683Y028563D01*
X018581Y028431D02*
X018785Y028431D01*
X018289Y028762D02*
X018289Y028787D01*
X019433Y029931D01*
X022433Y029931D01*
X025183Y027181D01*
X025183Y026781D02*
X025183Y026331D01*
X025017Y026331D02*
X024783Y026097D01*
X024783Y025766D01*
X025017Y025531D01*
X025349Y025531D01*
X025583Y025766D01*
X025583Y026097D01*
X025349Y026331D01*
X025017Y026331D01*
X024673Y026431D02*
X027094Y026431D01*
X027183Y026342D02*
X027183Y024421D01*
X026683Y024421D02*
X026683Y026842D01*
X026594Y026931D02*
X025499Y026931D01*
X024867Y026931D02*
X024673Y026931D01*
X024683Y027342D02*
X024683Y025771D01*
X024673Y025931D02*
X024783Y025931D01*
X024433Y025681D02*
X025933Y024181D01*
X029683Y024181D01*
X031433Y025931D01*
X041683Y025931D01*
X041683Y025476D02*
X041683Y025386D01*
X041297Y025386D02*
X041130Y025317D01*
X041002Y025189D01*
X040933Y025022D01*
X040933Y024841D01*
X041002Y024673D01*
X041130Y024545D01*
X041297Y024476D01*
X042069Y024476D01*
X042236Y024545D01*
X042364Y024673D01*
X042434Y024841D01*
X042434Y025022D01*
X042364Y025189D01*
X042236Y025317D01*
X042069Y025386D01*
X041297Y025386D01*
X041183Y025339D02*
X041183Y025523D01*
X040683Y025691D02*
X040683Y019181D01*
X040683Y018681D02*
X040683Y016134D01*
X040481Y015931D02*
X040253Y015931D01*
X040253Y015431D02*
X040363Y015431D01*
X041003Y015431D02*
X041254Y015431D01*
X041183Y015729D02*
X041183Y011384D01*
X041136Y011431D02*
X044903Y011431D01*
X044903Y010931D02*
X041636Y010931D01*
X041683Y010884D02*
X041683Y013931D01*
X041683Y013931D01*
X041683Y013531D01*
X041517Y013531D01*
X041283Y013766D01*
X041283Y013931D01*
X041683Y013931D01*
X041683Y013931D01*
X041003Y013931D01*
X041283Y013931D02*
X041683Y013931D01*
X041683Y013531D01*
X041849Y013531D01*
X042083Y013766D01*
X042083Y013931D01*
X041684Y013931D01*
X041684Y013931D01*
X044903Y013931D01*
X044903Y014431D02*
X041003Y014431D01*
X041283Y014097D02*
X041283Y013931D01*
X041283Y014097D02*
X041517Y014331D01*
X041683Y014331D01*
X041683Y013932D01*
X041683Y014701D01*
X041683Y014331D02*
X041849Y014331D01*
X042083Y014097D01*
X042083Y013931D01*
X041684Y013931D01*
X041683Y013932D02*
X041683Y013932D01*
X041683Y014331D01*
X041254Y014931D02*
X041003Y014931D01*
X040363Y014931D02*
X040253Y014931D01*
X040253Y014431D02*
X040363Y014431D01*
X040363Y013931D02*
X040253Y013931D01*
X040253Y013431D02*
X040363Y013431D01*
X040363Y012931D02*
X040253Y012931D01*
X040253Y012431D02*
X040363Y012431D01*
X040363Y011931D02*
X040253Y011931D01*
X039613Y011931D02*
X035253Y011931D01*
X035253Y011790D02*
X035253Y013531D01*
X035346Y013493D01*
X035419Y013493D01*
X035912Y013000D01*
X036002Y012910D01*
X036119Y012861D01*
X037048Y012861D01*
X037033Y012847D01*
X037033Y012681D01*
X037033Y012516D01*
X037267Y012281D01*
X037433Y012281D01*
X037433Y012681D01*
X037433Y012681D01*
X037033Y012681D01*
X037433Y012681D01*
X037433Y012681D01*
X037433Y012281D01*
X037599Y012281D01*
X037833Y012516D01*
X037833Y012681D01*
X037434Y012681D01*
X037434Y012681D01*
X037833Y012681D01*
X037833Y012847D01*
X037819Y012861D01*
X038801Y012861D01*
X038953Y012709D01*
X038953Y012482D01*
X039234Y012201D01*
X039613Y012201D01*
X039613Y011790D01*
X039453Y011630D01*
X039453Y011232D01*
X039734Y010951D01*
X040132Y010951D01*
X040413Y011232D01*
X040413Y011249D01*
X040502Y011160D01*
X040751Y010911D01*
X040734Y010911D01*
X040453Y010630D01*
X040453Y010232D01*
X040559Y010126D01*
X037307Y010126D01*
X037413Y010232D01*
X037413Y010630D01*
X037132Y010911D01*
X036734Y010911D01*
X036453Y010630D01*
X036453Y010232D01*
X036559Y010126D01*
X036307Y010126D01*
X036413Y010232D01*
X036413Y010630D01*
X036132Y010911D01*
X035734Y010911D01*
X035453Y010630D01*
X035453Y010364D01*
X034866Y010951D01*
X035132Y010951D01*
X035413Y011232D01*
X035413Y011630D01*
X035253Y011790D01*
X035413Y011431D02*
X037933Y011431D01*
X037933Y011431D01*
X037933Y011031D01*
X037767Y011031D01*
X037533Y011266D01*
X037533Y011431D01*
X037933Y011431D01*
X037933Y011431D01*
X037933Y011031D01*
X038099Y011031D01*
X038333Y011266D01*
X038333Y011431D01*
X037934Y011431D01*
X037934Y011431D01*
X039453Y011431D01*
X039933Y011431D02*
X039933Y016431D01*
X038933Y017431D01*
X037433Y017431D01*
X036433Y018431D01*
X035183Y018431D01*
X034745Y018431D02*
X030253Y018431D01*
X030683Y018681D02*
X030683Y014876D01*
X031183Y014634D02*
X031183Y018681D01*
X031183Y019181D02*
X031183Y025342D01*
X031273Y025431D02*
X044903Y025431D01*
X044903Y025931D02*
X042434Y025931D01*
X042183Y025523D02*
X042183Y025339D01*
X042434Y024931D02*
X044903Y024931D01*
X044903Y024431D02*
X030273Y024431D01*
X030183Y024342D02*
X030183Y020831D01*
X030017Y020831D02*
X029783Y020597D01*
X029783Y020266D01*
X030017Y020031D01*
X030349Y020031D01*
X030583Y020266D01*
X030583Y020597D01*
X030349Y020831D01*
X030017Y020831D01*
X029783Y020431D02*
X022518Y020431D01*
X022599Y019851D02*
X022476Y019727D01*
X022314Y019660D01*
X022139Y019660D01*
X021977Y019727D01*
X021853Y019851D01*
X021833Y019901D01*
X021812Y019851D01*
X021688Y019727D01*
X021527Y019660D01*
X021351Y019660D01*
X021190Y019727D01*
X021066Y019851D01*
X021045Y019901D01*
X021025Y019851D01*
X020901Y019727D01*
X020739Y019660D01*
X020564Y019660D01*
X020402Y019727D01*
X020279Y019851D01*
X020258Y019901D01*
X020237Y019851D01*
X020113Y019727D01*
X019952Y019660D01*
X019777Y019660D01*
X019615Y019727D01*
X019491Y019851D01*
X019471Y019901D01*
X019450Y019851D01*
X019326Y019727D01*
X019164Y019660D01*
X018989Y019660D01*
X018828Y019727D01*
X018704Y019851D01*
X018683Y019901D01*
X018183Y019668D02*
X018183Y019181D01*
X017683Y019181D02*
X017683Y019699D01*
X017183Y019797D02*
X017183Y019181D01*
X016683Y019181D02*
X016683Y019660D01*
X016183Y019734D02*
X016183Y019181D01*
X015683Y019181D02*
X015683Y019725D01*
X015183Y019660D02*
X015183Y019181D01*
X014683Y019181D02*
X014683Y022441D01*
X015183Y022441D02*
X015183Y020540D01*
X015431Y020431D02*
X015636Y020431D01*
X015683Y020476D02*
X015683Y022667D01*
X015948Y022931D02*
X044903Y022931D01*
X044903Y023431D02*
X016448Y023431D01*
X016683Y023667D02*
X016683Y020540D01*
X016423Y020431D02*
X016219Y020431D01*
X016183Y020467D02*
X016183Y023167D01*
X015769Y023431D02*
X013673Y023431D01*
X013683Y022921D02*
X013683Y030101D01*
X013843Y030431D02*
X014023Y030431D01*
X014023Y030261D02*
X014263Y030021D01*
X014603Y030021D01*
X014843Y030261D01*
X014843Y030601D01*
X014603Y030841D01*
X014263Y030841D01*
X014023Y030601D01*
X014023Y030261D01*
X014183Y030101D02*
X014183Y022921D01*
X014183Y022441D02*
X014183Y019181D01*
X013683Y019181D02*
X013683Y022441D01*
X013183Y022441D02*
X013183Y019181D01*
X012683Y019181D02*
X012683Y022441D01*
X012183Y022441D02*
X012183Y019181D01*
X011683Y019181D02*
X011683Y022441D01*
X011183Y022441D02*
X011183Y019181D01*
X010683Y019181D02*
X010683Y020441D01*
X010183Y020691D02*
X010183Y019181D01*
X009683Y019181D02*
X009683Y020342D01*
X009773Y020431D02*
X014848Y020431D01*
X014734Y019931D02*
X009273Y019931D01*
X009183Y019842D02*
X009183Y019521D01*
X009273Y019431D02*
X024617Y019431D01*
X024683Y019366D02*
X024683Y019181D01*
X024767Y019281D02*
X025099Y019281D01*
X025333Y019516D01*
X025333Y019847D01*
X025099Y020081D01*
X024767Y020081D01*
X024533Y019847D01*
X024533Y019516D01*
X024767Y019281D01*
X025183Y019366D02*
X025183Y019181D01*
X025249Y019431D02*
X028344Y019431D01*
X028183Y019271D02*
X028183Y023941D01*
X027683Y023941D02*
X027683Y019181D01*
X027183Y019181D02*
X027183Y023941D01*
X026683Y023941D02*
X026683Y019181D01*
X026183Y019181D02*
X026183Y023941D01*
X025683Y024092D02*
X025683Y019181D01*
X026183Y018431D02*
X027183Y017431D01*
X028433Y017431D01*
X028183Y017860D02*
X028183Y018611D01*
X028119Y018611D02*
X028247Y018611D01*
X028364Y018660D01*
X028386Y018681D01*
X029481Y018681D01*
X029613Y018549D01*
X029613Y016930D01*
X029382Y017161D01*
X028984Y017161D01*
X028913Y017431D02*
X029613Y017431D01*
X029349Y017531D02*
X029583Y017766D01*
X029583Y017931D01*
X029184Y017931D01*
X029184Y017931D01*
X029613Y017931D01*
X029583Y017931D02*
X029583Y018097D01*
X029349Y018331D01*
X029183Y018331D01*
X029017Y018331D01*
X028783Y018097D01*
X028783Y017931D01*
X029183Y017931D01*
X029183Y017931D01*
X029183Y017531D01*
X029349Y017531D01*
X029184Y017931D02*
X029583Y017931D01*
X029183Y017932D02*
X029183Y017932D01*
X029183Y018681D01*
X029183Y018331D02*
X029183Y017932D01*
X029183Y018331D01*
X029613Y018431D02*
X026636Y018431D01*
X026683Y018384D02*
X026683Y018611D01*
X026456Y018611D02*
X028119Y018611D01*
X027849Y018331D02*
X028083Y018097D01*
X028083Y017931D01*
X027684Y017931D01*
X027683Y017932D02*
X027683Y017932D01*
X027683Y018611D01*
X027683Y018331D02*
X027517Y018331D01*
X027283Y018097D01*
X027283Y017931D01*
X027283Y017784D01*
X026456Y018611D01*
X026183Y018431D02*
X020183Y018431D01*
X019933Y018181D01*
X019933Y017431D01*
X019453Y017431D02*
X019413Y017431D01*
X019413Y017096D02*
X019413Y017767D01*
X019340Y017943D01*
X019253Y018030D01*
X019253Y018049D01*
X019816Y018611D01*
X019911Y018611D01*
X019662Y018362D01*
X019613Y018245D01*
X019613Y018117D01*
X019613Y018030D01*
X019526Y017943D01*
X019453Y017767D01*
X019453Y017096D01*
X019526Y016919D01*
X019661Y016784D01*
X019838Y016711D01*
X020029Y016711D01*
X020205Y016784D01*
X020340Y016919D01*
X020413Y017096D01*
X020413Y017767D01*
X020340Y017943D01*
X020253Y018030D01*
X020253Y018049D01*
X020316Y018111D01*
X021741Y018111D01*
X021661Y018078D01*
X021526Y017943D01*
X021453Y017767D01*
X021453Y017096D01*
X021526Y016919D01*
X021661Y016784D01*
X021838Y016711D01*
X022029Y016711D01*
X022205Y016784D01*
X022340Y016919D01*
X022413Y017096D01*
X022413Y017767D01*
X022340Y017943D01*
X022205Y018078D01*
X022125Y018111D01*
X022741Y018111D01*
X022661Y018078D01*
X022526Y017943D01*
X022453Y017767D01*
X022453Y017096D01*
X022526Y016919D01*
X022613Y016832D01*
X022613Y015564D01*
X022252Y015202D01*
X022162Y015112D01*
X022156Y015098D01*
X022029Y015151D01*
X021838Y015151D01*
X021716Y015101D01*
X020958Y015859D01*
X020841Y015907D01*
X020713Y015907D01*
X018090Y015907D01*
X018090Y016050D01*
X018024Y016211D01*
X017957Y016277D01*
X018163Y016482D01*
X018163Y016880D01*
X017932Y017111D01*
X018453Y017111D01*
X018453Y017096D01*
X018526Y016919D01*
X018661Y016784D01*
X018838Y016711D01*
X019029Y016711D01*
X019205Y016784D01*
X019340Y016919D01*
X019413Y017096D01*
X019345Y016931D02*
X019521Y016931D01*
X019683Y016775D02*
X019683Y015907D01*
X019183Y015907D02*
X019183Y016775D01*
X018683Y016775D02*
X018683Y015907D01*
X018183Y015907D02*
X018183Y017111D01*
X018112Y016931D02*
X018521Y016931D01*
X018112Y016431D02*
X022613Y016431D01*
X022521Y016931D02*
X022345Y016931D01*
X022183Y016775D02*
X022183Y015134D01*
X022433Y014931D02*
X022433Y012181D01*
X022683Y011931D01*
X022683Y010931D01*
X022933Y010681D01*
X023433Y010681D01*
X023933Y010181D01*
X025058Y010181D01*
X025433Y009806D01*
X026058Y009806D01*
X026433Y010181D01*
X026433Y010681D01*
X026183Y010931D01*
X026183Y011431D01*
X026673Y011431D02*
X026693Y011431D01*
X026683Y009979D02*
X026683Y009610D01*
X026504Y009431D02*
X026362Y009431D01*
X025933Y009181D02*
X026433Y008681D01*
X030433Y008681D01*
X030933Y009181D01*
X031433Y008681D01*
X035433Y008681D01*
X035933Y009181D01*
X036433Y008681D01*
X040433Y008681D01*
X040933Y009181D01*
X041183Y008752D02*
X041183Y008247D01*
X041099Y008331D02*
X040933Y008331D01*
X040767Y008331D01*
X040533Y008097D01*
X040533Y007931D01*
X040533Y007766D01*
X040767Y007531D01*
X040933Y007531D01*
X040933Y007931D01*
X040933Y007931D01*
X040533Y007931D01*
X040933Y007931D01*
X040933Y007931D01*
X037413Y007931D01*
X037183Y007502D02*
X037183Y005223D01*
X037593Y004931D02*
X039613Y004931D01*
X039613Y005431D02*
X036292Y005431D01*
X036683Y005251D02*
X036683Y007502D01*
X036333Y007766D02*
X036333Y007931D01*
X035934Y007931D01*
X035934Y007931D01*
X036453Y007931D01*
X036333Y007931D02*
X036333Y008097D01*
X036099Y008331D01*
X035933Y008331D01*
X035767Y008331D01*
X035533Y008097D01*
X035533Y007931D01*
X035533Y007766D01*
X035767Y007531D01*
X035933Y007531D01*
X035933Y007931D01*
X035933Y007931D01*
X035533Y007931D01*
X035933Y007931D01*
X035933Y007931D01*
X032413Y007931D01*
X032183Y007502D02*
X032183Y005223D01*
X032433Y004931D02*
X036623Y004931D01*
X037003Y004551D01*
X036313Y004431D02*
X033610Y004431D01*
X033683Y004269D02*
X033683Y004611D01*
X034183Y004611D02*
X034183Y002099D01*
X034142Y002110D02*
X034071Y002119D01*
X034071Y001519D01*
X034671Y001519D01*
X034662Y001590D01*
X034639Y001674D01*
X034606Y001754D01*
X034563Y001829D01*
X034510Y001897D01*
X034449Y001958D01*
X034381Y002011D01*
X034306Y002054D01*
X034226Y002087D01*
X034142Y002110D01*
X033955Y002119D02*
X033884Y002110D01*
X033801Y002087D01*
X033721Y002054D01*
X033646Y002011D01*
X033577Y001958D01*
X033516Y001897D01*
X033463Y001829D01*
X033420Y001754D01*
X033387Y001674D01*
X033364Y001590D01*
X033355Y001519D01*
X033955Y001519D01*
X033955Y002119D01*
X033955Y001931D02*
X034071Y001931D01*
X033683Y002033D02*
X033683Y003733D01*
X033733Y003931D02*
X036697Y003931D01*
X036683Y003937D02*
X036683Y000711D01*
X036183Y000711D02*
X036183Y002127D01*
X036254Y002156D02*
X036000Y002051D01*
X035726Y002051D01*
X035472Y002156D01*
X035278Y002350D01*
X035173Y002604D01*
X035173Y002878D01*
X035278Y003132D01*
X035472Y003326D01*
X035726Y003431D01*
X036000Y003431D01*
X036254Y003326D01*
X036448Y003132D01*
X036553Y002878D01*
X036553Y002604D01*
X036448Y002350D01*
X036254Y002156D01*
X036482Y002431D02*
X040245Y002431D01*
X040278Y002350D02*
X040472Y002156D01*
X040726Y002051D01*
X041000Y002051D01*
X041254Y002156D01*
X041448Y002350D01*
X041553Y002604D01*
X041553Y002878D01*
X041448Y003132D01*
X041254Y003326D01*
X041000Y003431D01*
X040726Y003431D01*
X040655Y003402D01*
X040253Y003804D01*
X040253Y005115D01*
X040262Y005106D01*
X040516Y005001D01*
X040790Y005001D01*
X041044Y005106D01*
X041238Y005300D01*
X041343Y005554D01*
X041343Y005828D01*
X041238Y006082D01*
X041044Y006276D01*
X040790Y006381D01*
X040516Y006381D01*
X040262Y006276D01*
X040253Y006267D01*
X040253Y006572D01*
X040413Y006732D01*
X040413Y007130D01*
X040132Y007411D01*
X039734Y007411D01*
X039453Y007130D01*
X039453Y006732D01*
X039613Y006572D01*
X039613Y003735D01*
X039613Y003607D01*
X039662Y003490D01*
X040202Y002949D01*
X040173Y002878D01*
X040173Y002604D01*
X040278Y002350D01*
X040183Y002580D02*
X040183Y000711D01*
X039683Y000711D02*
X039683Y003469D01*
X039721Y003431D02*
X038470Y003431D01*
X038183Y003279D02*
X038183Y000711D01*
X037683Y000711D02*
X037683Y003329D01*
X037517Y003431D02*
X033470Y003431D01*
X033183Y003279D02*
X033183Y000711D01*
X032683Y000711D02*
X032683Y003329D01*
X032517Y003431D02*
X028470Y003431D01*
X028183Y003279D02*
X028183Y000711D01*
X027683Y000711D02*
X027683Y003329D01*
X027517Y003431D02*
X023470Y003431D01*
X023183Y003279D02*
X023183Y000711D01*
X022683Y000711D02*
X022683Y003329D01*
X022517Y003431D02*
X018470Y003431D01*
X018183Y003279D02*
X018183Y000711D01*
X017683Y000711D02*
X017683Y003329D01*
X017517Y003431D02*
X013470Y003431D01*
X013183Y003279D02*
X013183Y000711D01*
X012683Y000711D02*
X012683Y003329D01*
X012517Y003431D02*
X008470Y003431D01*
X008183Y003279D02*
X008183Y000711D01*
X007683Y000711D02*
X007683Y003329D01*
X007517Y003431D02*
X003470Y003431D01*
X003183Y003279D02*
X003183Y000711D01*
X003516Y001025D02*
X003577Y000964D01*
X003646Y000911D01*
X003721Y000868D01*
X003801Y000835D01*
X003884Y000812D01*
X003955Y000803D01*
X003955Y001403D01*
X004071Y001403D01*
X004071Y001519D01*
X003955Y001519D01*
X003955Y001403D01*
X003355Y001403D01*
X003364Y001332D01*
X003387Y001249D01*
X003420Y001169D01*
X003463Y001094D01*
X003516Y001025D01*
X003620Y000931D02*
X001859Y000931D01*
X001683Y001042D02*
X001683Y003937D01*
X001697Y003931D02*
X000963Y003931D01*
X000963Y004431D02*
X001313Y004431D01*
X001414Y004931D02*
X000963Y004931D01*
X000963Y005431D02*
X005014Y005431D01*
X004683Y005251D02*
X004683Y006502D01*
X004734Y006451D02*
X005132Y006451D01*
X005413Y006732D01*
X005413Y007130D01*
X005132Y007411D01*
X004734Y007411D01*
X004453Y007130D01*
X004453Y006732D01*
X004734Y006451D01*
X005183Y006502D02*
X005183Y006197D01*
X005006Y005931D02*
X000963Y005931D01*
X000963Y006431D02*
X039613Y006431D01*
X039453Y006931D02*
X038413Y006931D01*
X038413Y006732D02*
X038132Y006451D01*
X037734Y006451D01*
X037453Y006732D01*
X037453Y007130D01*
X037734Y007411D01*
X038132Y007411D01*
X038413Y007130D01*
X038413Y006732D01*
X038183Y006502D02*
X038183Y004723D01*
X037683Y004712D02*
X037683Y006502D01*
X037453Y006931D02*
X035413Y006931D01*
X035413Y006732D02*
X035132Y006451D01*
X034734Y006451D01*
X034453Y006732D01*
X034453Y007130D01*
X034734Y007411D01*
X035132Y007411D01*
X035413Y007130D01*
X035413Y006732D01*
X035183Y006502D02*
X035183Y006197D01*
X035006Y005931D02*
X031301Y005931D01*
X031183Y006137D02*
X031183Y007616D01*
X031099Y007531D02*
X031333Y007766D01*
X031333Y007931D01*
X030934Y007931D01*
X030934Y007931D01*
X031453Y007931D01*
X031333Y007931D02*
X031333Y008097D01*
X031099Y008331D01*
X030933Y008331D01*
X030767Y008331D01*
X030533Y008097D01*
X030533Y007931D01*
X030533Y007766D01*
X030767Y007531D01*
X030933Y007531D01*
X030933Y007931D01*
X030933Y007931D01*
X030533Y007931D01*
X030933Y007931D01*
X030933Y007931D01*
X027413Y007931D01*
X027183Y007502D02*
X027183Y005223D01*
X027433Y004931D02*
X031623Y004931D01*
X032003Y004551D01*
X032053Y004551D01*
X032433Y004931D01*
X032683Y005251D02*
X032683Y006502D01*
X032734Y006451D02*
X033132Y006451D01*
X033413Y006732D01*
X033413Y007130D01*
X033132Y007411D01*
X032734Y007411D01*
X032453Y007130D01*
X032453Y006732D01*
X032734Y006451D01*
X033183Y006502D02*
X033183Y005251D01*
X033683Y005251D02*
X033683Y008361D01*
X033183Y008361D02*
X033183Y007360D01*
X033413Y006931D02*
X034453Y006931D01*
X034683Y006502D02*
X034683Y005251D01*
X035014Y005431D02*
X031292Y005431D01*
X031683Y005251D02*
X031683Y007502D01*
X031333Y007931D02*
X030934Y007931D01*
X030933Y007931D02*
X030933Y007531D01*
X031099Y007531D01*
X031183Y007931D02*
X031183Y007931D01*
X030933Y007932D02*
X030933Y007932D01*
X030933Y008331D01*
X030933Y007932D01*
X030683Y007931D02*
X030683Y007931D01*
X030683Y007616D02*
X030683Y006381D01*
X030413Y006732D02*
X030132Y006451D01*
X029734Y006451D01*
X029453Y006732D01*
X029453Y007130D01*
X029734Y007411D01*
X030132Y007411D01*
X030413Y007130D01*
X030413Y006732D01*
X030413Y006931D02*
X032453Y006931D01*
X032683Y007360D02*
X032683Y008361D01*
X032183Y008360D02*
X032183Y008361D01*
X031683Y008360D02*
X031683Y008361D01*
X031231Y008431D02*
X030636Y008431D01*
X030683Y008479D02*
X030683Y008247D01*
X031183Y008247D02*
X031183Y008479D01*
X030183Y008361D02*
X030183Y007360D01*
X029683Y007360D02*
X029683Y008361D01*
X029183Y008361D02*
X029183Y005251D01*
X028683Y005251D02*
X028683Y008361D01*
X028183Y008361D02*
X028183Y007360D01*
X028132Y007411D02*
X028413Y007130D01*
X028413Y006732D01*
X028132Y006451D01*
X027734Y006451D01*
X027453Y006732D01*
X027453Y007130D01*
X027734Y007411D01*
X028132Y007411D01*
X027683Y007360D02*
X027683Y008361D01*
X027183Y008360D02*
X027183Y008361D01*
X026683Y008360D02*
X026683Y008361D01*
X026333Y008097D02*
X026099Y008331D01*
X025933Y008331D01*
X025767Y008331D01*
X025533Y008097D01*
X025533Y007931D01*
X025533Y007766D01*
X025767Y007531D01*
X025933Y007531D01*
X025933Y007931D01*
X025933Y007931D01*
X025533Y007931D01*
X025933Y007931D01*
X025933Y007931D01*
X022413Y007931D01*
X022183Y007502D02*
X022183Y005223D01*
X022433Y004931D02*
X026623Y004931D01*
X027003Y004551D01*
X027053Y004551D01*
X027433Y004931D01*
X027683Y005251D02*
X027683Y006502D01*
X027453Y006931D02*
X025413Y006931D01*
X025413Y006732D02*
X025132Y006451D01*
X024734Y006451D01*
X024453Y006732D01*
X024453Y007130D01*
X024734Y007411D01*
X025132Y007411D01*
X025413Y007130D01*
X025413Y006732D01*
X025183Y006502D02*
X025183Y006197D01*
X025006Y005931D02*
X021301Y005931D01*
X021183Y006137D02*
X021183Y007616D01*
X021099Y007531D02*
X021333Y007766D01*
X021333Y007931D01*
X020934Y007931D01*
X020934Y007931D01*
X021453Y007931D01*
X021333Y007931D02*
X021333Y008097D01*
X021099Y008331D01*
X020933Y008331D01*
X020767Y008331D01*
X020533Y008097D01*
X020533Y007931D01*
X020533Y007766D01*
X020767Y007531D01*
X020933Y007531D01*
X020933Y007931D01*
X020933Y007931D01*
X020533Y007931D01*
X020933Y007931D01*
X020933Y007931D01*
X017413Y007931D01*
X017183Y007502D02*
X017183Y005223D01*
X017433Y004931D02*
X021623Y004931D01*
X022003Y004551D01*
X022053Y004551D01*
X022433Y004931D01*
X022683Y005251D02*
X022683Y006502D01*
X022734Y006451D02*
X023132Y006451D01*
X023413Y006732D01*
X023413Y007130D01*
X023132Y007411D01*
X022734Y007411D01*
X022453Y007130D01*
X022453Y006732D01*
X022734Y006451D01*
X023183Y006502D02*
X023183Y005251D01*
X023683Y005251D02*
X023683Y008361D01*
X023183Y008361D02*
X023183Y007360D01*
X023413Y006931D02*
X024453Y006931D01*
X024683Y006502D02*
X024683Y005251D01*
X025014Y005431D02*
X021292Y005431D01*
X021683Y005251D02*
X021683Y007502D01*
X021333Y007931D02*
X020934Y007931D01*
X020933Y007931D02*
X020933Y007531D01*
X021099Y007531D01*
X021183Y007931D02*
X021183Y007931D01*
X020933Y007932D02*
X020933Y008331D01*
X020933Y007932D01*
X020933Y007932D01*
X020683Y007931D02*
X020683Y007931D01*
X020683Y007616D02*
X020683Y006381D01*
X020413Y006732D02*
X020132Y006451D01*
X019734Y006451D01*
X019453Y006732D01*
X019453Y007130D01*
X019734Y007411D01*
X020132Y007411D01*
X020413Y007130D01*
X020413Y006732D01*
X020413Y006931D02*
X022453Y006931D01*
X022683Y007360D02*
X022683Y008361D01*
X022183Y008360D02*
X022183Y008361D01*
X021683Y008360D02*
X021683Y008361D01*
X021433Y008681D02*
X025433Y008681D01*
X025933Y009181D01*
X025683Y008479D02*
X025683Y008247D01*
X025636Y008431D02*
X026231Y008431D01*
X026183Y008479D02*
X026183Y008247D01*
X026333Y008097D02*
X026333Y007931D01*
X025934Y007931D01*
X025934Y007931D01*
X026453Y007931D01*
X026333Y007931D02*
X025934Y007931D01*
X025933Y007931D02*
X025933Y007531D01*
X026099Y007531D01*
X026333Y007766D01*
X026333Y007931D01*
X026183Y007931D02*
X026183Y007931D01*
X025933Y007932D02*
X025933Y008331D01*
X025933Y007932D01*
X025933Y007932D01*
X025683Y007931D02*
X025683Y007931D01*
X025683Y007616D02*
X025683Y006381D01*
X026183Y006137D02*
X026183Y007616D01*
X026683Y007502D02*
X026683Y005251D01*
X026292Y005431D02*
X030014Y005431D01*
X029683Y005251D02*
X029683Y006502D01*
X029453Y006931D02*
X028413Y006931D01*
X028183Y006502D02*
X028183Y005251D01*
X028683Y004611D02*
X028683Y004269D01*
X028610Y004431D02*
X031313Y004431D01*
X031183Y004611D02*
X031183Y003355D01*
X031254Y003326D02*
X031000Y003431D01*
X030726Y003431D01*
X030472Y003326D01*
X030278Y003132D01*
X030173Y002878D01*
X030173Y002604D01*
X030278Y002350D01*
X030472Y002156D01*
X030726Y002051D01*
X031000Y002051D01*
X031254Y002156D01*
X031448Y002350D01*
X031553Y002604D01*
X031553Y002878D01*
X031448Y003132D01*
X031254Y003326D01*
X031531Y002931D02*
X035195Y002931D01*
X035183Y002903D02*
X035183Y004611D01*
X034683Y004611D02*
X034683Y000711D01*
X035183Y000711D02*
X035183Y002580D01*
X035245Y002431D02*
X031482Y002431D01*
X031183Y002127D02*
X031183Y000711D01*
X030683Y000711D02*
X030683Y002069D01*
X030245Y002431D02*
X026482Y002431D01*
X026448Y002350D02*
X026553Y002604D01*
X026553Y002878D01*
X026448Y003132D01*
X026254Y003326D01*
X026000Y003431D01*
X025726Y003431D01*
X025472Y003326D01*
X025278Y003132D01*
X025173Y002878D01*
X025173Y002604D01*
X025278Y002350D01*
X025472Y002156D01*
X025726Y002051D01*
X026000Y002051D01*
X026254Y002156D01*
X026448Y002350D01*
X026183Y002127D02*
X026183Y000711D01*
X026683Y000711D02*
X026683Y003937D01*
X026697Y003931D02*
X023733Y003931D01*
X023683Y003733D02*
X023683Y002033D01*
X023721Y002054D02*
X023646Y002011D01*
X023577Y001958D01*
X023516Y001897D01*
X023463Y001829D01*
X023420Y001754D01*
X023387Y001674D01*
X023364Y001590D01*
X023355Y001519D01*
X023955Y001519D01*
X023955Y002119D01*
X023884Y002110D01*
X023801Y002087D01*
X023721Y002054D01*
X023550Y001931D02*
X019476Y001931D01*
X019449Y001958D02*
X019381Y002011D01*
X019306Y002054D01*
X019226Y002087D01*
X019142Y002110D01*
X019071Y002119D01*
X019071Y001519D01*
X019671Y001519D01*
X019662Y001590D01*
X019639Y001674D01*
X019606Y001754D01*
X019563Y001829D01*
X019510Y001897D01*
X019449Y001958D01*
X019183Y002099D02*
X019183Y004611D01*
X018683Y004611D02*
X018683Y004269D01*
X018610Y004431D02*
X021313Y004431D01*
X021183Y004611D02*
X021183Y003355D01*
X021254Y003326D02*
X021000Y003431D01*
X020726Y003431D01*
X020472Y003326D01*
X020278Y003132D01*
X020173Y002878D01*
X020173Y002604D01*
X020278Y002350D01*
X020472Y002156D01*
X020726Y002051D01*
X021000Y002051D01*
X021254Y002156D01*
X021448Y002350D01*
X021553Y002604D01*
X021553Y002878D01*
X021448Y003132D01*
X021254Y003326D01*
X021531Y002931D02*
X025195Y002931D01*
X025183Y002903D02*
X025183Y004611D01*
X024683Y004611D02*
X024683Y000711D01*
X025183Y000711D02*
X025183Y002580D01*
X025245Y002431D02*
X021482Y002431D01*
X021183Y002127D02*
X021183Y000711D01*
X020683Y000711D02*
X020683Y002069D01*
X020245Y002431D02*
X016482Y002431D01*
X016448Y002350D02*
X016553Y002604D01*
X016553Y002878D01*
X016448Y003132D01*
X016254Y003326D01*
X016000Y003431D01*
X015726Y003431D01*
X015472Y003326D01*
X015278Y003132D01*
X015173Y002878D01*
X015173Y002604D01*
X015278Y002350D01*
X015472Y002156D01*
X015726Y002051D01*
X016000Y002051D01*
X016254Y002156D01*
X016448Y002350D01*
X016183Y002127D02*
X016183Y000711D01*
X015683Y000711D02*
X015683Y002069D01*
X015245Y002431D02*
X011482Y002431D01*
X011448Y002350D02*
X011254Y002156D01*
X011000Y002051D01*
X010726Y002051D01*
X010472Y002156D01*
X010278Y002350D01*
X010173Y002604D01*
X010173Y002878D01*
X010278Y003132D01*
X010472Y003326D01*
X010726Y003431D01*
X011000Y003431D01*
X011254Y003326D01*
X011448Y003132D01*
X011553Y002878D01*
X011553Y002604D01*
X011448Y002350D01*
X011183Y002127D02*
X011183Y000711D01*
X010683Y000711D02*
X010683Y002069D01*
X010245Y002431D02*
X006482Y002431D01*
X006448Y002350D02*
X006553Y002604D01*
X006553Y002878D01*
X006448Y003132D01*
X006254Y003326D01*
X006000Y003431D01*
X005726Y003431D01*
X005472Y003326D01*
X005278Y003132D01*
X005173Y002878D01*
X005173Y002604D01*
X005278Y002350D01*
X005472Y002156D01*
X005726Y002051D01*
X006000Y002051D01*
X006254Y002156D01*
X006448Y002350D01*
X006183Y002127D02*
X006183Y000711D01*
X005683Y000711D02*
X005683Y002069D01*
X005245Y002431D02*
X000963Y002431D01*
X001044Y001931D02*
X003550Y001931D01*
X003577Y001958D02*
X003516Y001897D01*
X003463Y001829D01*
X003420Y001754D01*
X003387Y001674D01*
X003364Y001590D01*
X003355Y001519D01*
X003955Y001519D01*
X003955Y002119D01*
X003884Y002110D01*
X003801Y002087D01*
X003721Y002054D01*
X003646Y002011D01*
X003577Y001958D01*
X003683Y002033D02*
X003683Y003733D01*
X003733Y003931D02*
X006697Y003931D01*
X006683Y003937D02*
X006683Y000711D01*
X007183Y000711D02*
X007183Y003879D01*
X007053Y004551D02*
X007433Y004931D01*
X011623Y004931D01*
X012003Y004551D01*
X012053Y004551D01*
X012433Y004931D01*
X016623Y004931D01*
X017003Y004551D01*
X017053Y004551D01*
X017433Y004931D01*
X017683Y005251D02*
X017683Y006502D01*
X017734Y006451D02*
X018132Y006451D01*
X018413Y006732D01*
X018413Y007130D01*
X018132Y007411D01*
X017734Y007411D01*
X017453Y007130D01*
X017453Y006732D01*
X017734Y006451D01*
X018183Y006502D02*
X018183Y005251D01*
X018683Y005251D02*
X018683Y008361D01*
X018183Y008361D02*
X018183Y007360D01*
X018413Y006931D02*
X019453Y006931D01*
X019683Y006502D02*
X019683Y005251D01*
X020014Y005431D02*
X016292Y005431D01*
X016683Y005251D02*
X016683Y007502D01*
X016333Y007766D02*
X016333Y007931D01*
X015934Y007931D01*
X015934Y007931D01*
X016453Y007931D01*
X016333Y007931D02*
X016333Y008097D01*
X016099Y008331D01*
X015933Y008331D01*
X015767Y008331D01*
X015533Y008097D01*
X015533Y007931D01*
X015533Y007766D01*
X015767Y007531D01*
X015933Y007531D01*
X015933Y007931D01*
X015933Y007931D01*
X015533Y007931D01*
X015933Y007931D01*
X015933Y007931D01*
X012413Y007931D01*
X012183Y007502D02*
X012183Y005223D01*
X011683Y005251D02*
X011683Y007502D01*
X011333Y007766D02*
X011333Y007931D01*
X010934Y007931D01*
X010934Y007931D01*
X011453Y007931D01*
X011333Y007931D02*
X011333Y008097D01*
X011099Y008331D01*
X010933Y008331D01*
X010767Y008331D01*
X010533Y008097D01*
X010533Y007931D01*
X010533Y007766D01*
X010767Y007531D01*
X010933Y007531D01*
X010933Y007931D01*
X010933Y007931D01*
X010533Y007931D01*
X010933Y007931D01*
X010933Y007931D01*
X007413Y007931D01*
X007183Y007502D02*
X007183Y005223D01*
X006683Y005251D02*
X006683Y007502D01*
X006333Y007766D02*
X006333Y007931D01*
X005934Y007931D01*
X005934Y007931D01*
X006453Y007931D01*
X006333Y007931D02*
X006333Y008097D01*
X006099Y008331D01*
X005933Y008331D01*
X005767Y008331D01*
X005533Y008097D01*
X005533Y007931D01*
X005533Y007766D01*
X005767Y007531D01*
X005933Y007531D01*
X005933Y007931D01*
X005933Y007931D01*
X005533Y007931D01*
X005933Y007931D01*
X005933Y007931D01*
X002413Y007931D01*
X002413Y007732D02*
X002132Y007451D01*
X001734Y007451D01*
X001453Y007732D01*
X001453Y008130D01*
X001734Y008411D01*
X002132Y008411D01*
X002413Y008130D01*
X002413Y007732D01*
X002183Y007502D02*
X002183Y005223D01*
X002433Y004931D02*
X006623Y004931D01*
X007003Y004551D01*
X007053Y004551D01*
X006313Y004431D02*
X003610Y004431D01*
X003683Y004269D02*
X003683Y004611D01*
X004183Y004611D02*
X004183Y002099D01*
X004142Y002110D02*
X004071Y002119D01*
X004071Y001519D01*
X004671Y001519D01*
X004662Y001590D01*
X004639Y001674D01*
X004606Y001754D01*
X004563Y001829D01*
X004510Y001897D01*
X004449Y001958D01*
X004381Y002011D01*
X004306Y002054D01*
X004226Y002087D01*
X004142Y002110D01*
X004071Y001931D02*
X003955Y001931D01*
X004476Y001931D02*
X008550Y001931D01*
X008577Y001958D02*
X008516Y001897D01*
X008463Y001829D01*
X008420Y001754D01*
X008387Y001674D01*
X008364Y001590D01*
X008355Y001519D01*
X008955Y001519D01*
X008955Y002119D01*
X008884Y002110D01*
X008801Y002087D01*
X008721Y002054D01*
X008646Y002011D01*
X008577Y001958D01*
X008683Y002033D02*
X008683Y003733D01*
X008733Y003931D02*
X011697Y003931D01*
X011683Y003937D02*
X011683Y000711D01*
X012183Y000711D02*
X012183Y003879D01*
X011313Y004431D02*
X008610Y004431D01*
X008683Y004269D02*
X008683Y004611D01*
X009183Y004611D02*
X009183Y002099D01*
X009142Y002110D02*
X009226Y002087D01*
X009306Y002054D01*
X009381Y002011D01*
X009449Y001958D01*
X009510Y001897D01*
X009563Y001829D01*
X009606Y001754D01*
X009639Y001674D01*
X009662Y001590D01*
X009671Y001519D01*
X009071Y001519D01*
X009071Y002119D01*
X009142Y002110D01*
X009071Y001931D02*
X008955Y001931D01*
X009476Y001931D02*
X013550Y001931D01*
X013577Y001958D02*
X013516Y001897D01*
X013463Y001829D01*
X013420Y001754D01*
X013387Y001674D01*
X013364Y001590D01*
X013355Y001519D01*
X013955Y001519D01*
X013955Y002119D01*
X013884Y002110D01*
X013801Y002087D01*
X013721Y002054D01*
X013646Y002011D01*
X013577Y001958D01*
X013683Y002033D02*
X013683Y003733D01*
X013733Y003931D02*
X016697Y003931D01*
X016683Y003937D02*
X016683Y000711D01*
X017183Y000711D02*
X017183Y003879D01*
X016313Y004431D02*
X013610Y004431D01*
X013683Y004269D02*
X013683Y004611D01*
X014183Y004611D02*
X014183Y002099D01*
X014142Y002110D02*
X014071Y002119D01*
X014071Y001519D01*
X014671Y001519D01*
X014662Y001590D01*
X014639Y001674D01*
X014606Y001754D01*
X014563Y001829D01*
X014510Y001897D01*
X014449Y001958D01*
X014381Y002011D01*
X014306Y002054D01*
X014226Y002087D01*
X014142Y002110D01*
X014071Y001931D02*
X013955Y001931D01*
X014476Y001931D02*
X018550Y001931D01*
X018577Y001958D02*
X018516Y001897D01*
X018463Y001829D01*
X018420Y001754D01*
X018387Y001674D01*
X018364Y001590D01*
X018355Y001519D01*
X018955Y001519D01*
X018955Y002119D01*
X018884Y002110D01*
X018801Y002087D01*
X018721Y002054D01*
X018646Y002011D01*
X018577Y001958D01*
X018683Y002033D02*
X018683Y003733D01*
X018733Y003931D02*
X021697Y003931D01*
X021683Y003937D02*
X021683Y000711D01*
X022183Y000711D02*
X022183Y003879D01*
X023610Y004431D02*
X026313Y004431D01*
X026183Y004611D02*
X026183Y003355D01*
X026531Y002931D02*
X030195Y002931D01*
X030183Y002903D02*
X030183Y004611D01*
X029683Y004611D02*
X029683Y000711D01*
X030183Y000711D02*
X030183Y002580D01*
X029510Y001897D02*
X029449Y001958D01*
X029381Y002011D01*
X029306Y002054D01*
X029226Y002087D01*
X029142Y002110D01*
X029071Y002119D01*
X029071Y001519D01*
X029671Y001519D01*
X029662Y001590D01*
X029639Y001674D01*
X029606Y001754D01*
X029563Y001829D01*
X029510Y001897D01*
X029476Y001931D02*
X033550Y001931D01*
X033683Y001519D02*
X033683Y001403D01*
X033955Y001431D02*
X029071Y001431D01*
X029183Y001403D02*
X029183Y001519D01*
X028955Y001519D02*
X028955Y002119D01*
X028884Y002110D01*
X028801Y002087D01*
X028721Y002054D01*
X028646Y002011D01*
X028577Y001958D01*
X028516Y001897D01*
X028463Y001829D01*
X028420Y001754D01*
X028387Y001674D01*
X028364Y001590D01*
X028355Y001519D01*
X028955Y001519D01*
X028955Y001431D02*
X024071Y001431D01*
X024071Y001519D02*
X024671Y001519D01*
X024662Y001590D01*
X024639Y001674D01*
X024606Y001754D01*
X024563Y001829D01*
X024510Y001897D01*
X024449Y001958D01*
X024381Y002011D01*
X024306Y002054D01*
X024226Y002087D01*
X024142Y002110D01*
X024071Y002119D01*
X024071Y001519D01*
X024183Y001519D02*
X024183Y001403D01*
X023955Y001431D02*
X019071Y001431D01*
X019183Y001403D02*
X019183Y001519D01*
X018955Y001431D02*
X014071Y001431D01*
X014183Y001403D02*
X014183Y001519D01*
X013955Y001431D02*
X009071Y001431D01*
X009183Y001403D02*
X009183Y001519D01*
X008955Y001431D02*
X004071Y001431D01*
X004183Y001403D02*
X004183Y001519D01*
X003955Y001431D02*
X001294Y001431D01*
X002183Y000792D02*
X002183Y003879D01*
X002053Y004551D02*
X002433Y004931D01*
X002683Y005251D02*
X002683Y006502D01*
X002734Y006451D02*
X003132Y006451D01*
X003413Y006732D01*
X003413Y007130D01*
X003132Y007411D01*
X002734Y007411D01*
X002453Y007130D01*
X002453Y006732D01*
X002734Y006451D01*
X003183Y006502D02*
X003183Y005251D01*
X003683Y005251D02*
X003683Y009361D01*
X003433Y009681D02*
X022183Y009681D01*
X022433Y009931D01*
X022433Y010681D01*
X022183Y010931D01*
X022183Y011431D01*
X021693Y011431D02*
X020923Y011431D01*
X020923Y011228D02*
X020636Y010941D01*
X020230Y010941D01*
X019943Y011228D01*
X019943Y011634D01*
X020113Y011804D01*
X020113Y012799D01*
X019801Y013111D01*
X018206Y013111D01*
X018533Y012784D01*
X018533Y012847D01*
X018767Y013081D01*
X018933Y013081D01*
X018933Y012682D01*
X018933Y012682D01*
X018933Y013081D01*
X019099Y013081D01*
X019333Y012847D01*
X019333Y012681D01*
X018934Y012681D01*
X018934Y012681D01*
X019333Y012681D01*
X019333Y012516D01*
X019099Y012281D01*
X019036Y012281D01*
X019396Y011921D01*
X019636Y011921D01*
X019923Y011634D01*
X019923Y011228D01*
X019636Y010941D01*
X019230Y010941D01*
X018943Y011228D01*
X018943Y011469D01*
X018923Y011489D01*
X018923Y011228D01*
X018636Y010941D01*
X018230Y010941D01*
X017943Y011228D01*
X017943Y011634D01*
X018230Y011921D01*
X018491Y011921D01*
X017801Y012611D01*
X017247Y012611D01*
X017119Y012611D01*
X017002Y012660D01*
X016551Y013111D01*
X016182Y013111D01*
X016413Y012880D01*
X016413Y012482D01*
X016132Y012201D01*
X015734Y012201D01*
X015453Y012482D01*
X015453Y012880D01*
X015684Y013111D01*
X015566Y013111D01*
X014454Y012000D01*
X014376Y011921D01*
X014636Y011921D01*
X014923Y011634D01*
X014923Y011228D01*
X014636Y010941D01*
X014230Y010941D01*
X013943Y011228D01*
X013943Y011634D01*
X014170Y011861D01*
X013696Y011861D01*
X013923Y011634D01*
X013923Y011228D01*
X013636Y010941D01*
X013230Y010941D01*
X012943Y011228D01*
X012943Y011469D01*
X012551Y011861D01*
X011819Y011861D01*
X011833Y011847D01*
X011833Y011681D01*
X011434Y011681D01*
X011434Y011681D01*
X011833Y011681D01*
X011833Y011516D01*
X011599Y011281D01*
X011433Y011281D01*
X011433Y011681D01*
X011433Y011681D01*
X011433Y011281D01*
X011267Y011281D01*
X011033Y011516D01*
X011033Y011626D01*
X010997Y011611D01*
X010869Y011611D01*
X010413Y011611D01*
X010413Y011232D01*
X010132Y010951D01*
X009734Y010951D01*
X009453Y011232D01*
X009453Y011611D01*
X008319Y011611D01*
X008333Y011597D01*
X008333Y011431D01*
X007934Y011431D01*
X007934Y011431D01*
X009453Y011431D01*
X009183Y011611D02*
X009183Y011134D01*
X009114Y011202D02*
X008997Y011251D01*
X008869Y011251D01*
X008319Y011251D01*
X008333Y011266D01*
X008333Y011431D01*
X007934Y011431D01*
X008183Y011431D02*
X008183Y011431D01*
X008683Y011251D02*
X008683Y011611D01*
X009114Y011202D02*
X009566Y010751D01*
X010051Y010751D01*
X010412Y011112D01*
X010502Y011202D01*
X010619Y011251D01*
X012119Y011251D01*
X012247Y011251D01*
X012364Y011202D01*
X013066Y010501D01*
X014676Y010501D01*
X015173Y010999D01*
X014943Y011228D01*
X014943Y011634D01*
X015230Y011921D01*
X015636Y011921D01*
X015866Y011691D01*
X015877Y011702D01*
X015994Y011751D01*
X016060Y011751D01*
X016230Y011921D01*
X016636Y011921D01*
X016923Y011634D01*
X016923Y011228D01*
X016636Y010941D01*
X016230Y010941D01*
X016125Y011046D01*
X015991Y010911D01*
X016132Y010911D01*
X016413Y010630D01*
X016413Y010232D01*
X016182Y010001D01*
X016684Y010001D01*
X016453Y010232D01*
X016453Y010630D01*
X016734Y010911D01*
X017132Y010911D01*
X017413Y010630D01*
X017413Y010232D01*
X017182Y010001D01*
X020684Y010001D01*
X020453Y010232D01*
X020453Y010630D01*
X020734Y010911D01*
X021132Y010911D01*
X021413Y010630D01*
X021413Y010232D01*
X021182Y010001D01*
X021684Y010001D01*
X021453Y010232D01*
X021453Y010630D01*
X021734Y010911D01*
X021863Y010911D01*
X021863Y010995D01*
X021863Y011058D01*
X021693Y011228D01*
X021693Y011634D01*
X021980Y011921D01*
X022241Y011921D01*
X022162Y012000D01*
X022113Y012117D01*
X022113Y012245D01*
X022113Y013746D01*
X022029Y013711D01*
X021838Y013711D01*
X021661Y013784D01*
X021526Y013919D01*
X021453Y014096D01*
X021453Y014459D01*
X021413Y014499D01*
X021413Y014096D01*
X021340Y013919D01*
X021205Y013784D01*
X021029Y013711D01*
X020838Y013711D01*
X020661Y013784D01*
X020526Y013919D01*
X020453Y014096D01*
X020453Y014767D01*
X020526Y014943D01*
X020661Y015078D01*
X020783Y015129D01*
X020644Y015267D01*
X018163Y015267D01*
X018163Y014982D01*
X017932Y014751D01*
X018453Y014751D01*
X018453Y014767D01*
X018526Y014943D01*
X018661Y015078D01*
X018838Y015151D01*
X019029Y015151D01*
X019205Y015078D01*
X019340Y014943D01*
X019413Y014767D01*
X019413Y014096D01*
X019340Y013919D01*
X019205Y013784D01*
X019125Y013751D01*
X019741Y013751D01*
X019661Y013784D01*
X019526Y013919D01*
X019453Y014096D01*
X019453Y014767D01*
X019526Y014943D01*
X019661Y015078D01*
X019838Y015151D01*
X020029Y015151D01*
X020205Y015078D01*
X020340Y014943D01*
X020413Y014767D01*
X020413Y014096D01*
X020340Y013919D01*
X020205Y013784D01*
X020061Y013725D01*
X020114Y013702D01*
X020204Y013612D01*
X020204Y013612D01*
X020695Y013122D01*
X020734Y013161D01*
X021132Y013161D01*
X021413Y012880D01*
X021413Y012482D01*
X021132Y012201D01*
X020753Y012201D01*
X020753Y011804D01*
X020923Y011634D01*
X020923Y011228D01*
X020683Y010988D02*
X020683Y010860D01*
X020453Y010431D02*
X017413Y010431D01*
X017183Y010002D02*
X017183Y010001D01*
X016683Y010001D02*
X016683Y010002D01*
X016453Y010431D02*
X016413Y010431D01*
X016183Y010002D02*
X016183Y010001D01*
X016183Y010860D02*
X016183Y010988D01*
X016011Y010931D02*
X021863Y010931D01*
X021683Y010860D02*
X021683Y013775D01*
X021521Y013931D02*
X021345Y013931D01*
X021183Y013775D02*
X021183Y013110D01*
X021362Y012931D02*
X022113Y012931D01*
X022113Y013431D02*
X020386Y013431D01*
X020183Y013634D02*
X020183Y013775D01*
X020345Y013931D02*
X020521Y013931D01*
X020683Y013775D02*
X020683Y013134D01*
X020433Y012931D02*
X019933Y013431D01*
X017433Y013431D01*
X016933Y013931D01*
X014433Y013931D01*
X013683Y013181D01*
X011183Y013181D01*
X010683Y012681D01*
X005183Y012681D01*
X004371Y013494D01*
X004371Y017869D01*
X007433Y020931D01*
X007933Y020931D01*
X008333Y020931D02*
X009594Y020931D01*
X009683Y021021D02*
X009683Y022441D01*
X009183Y022441D02*
X009183Y020521D01*
X009094Y020431D02*
X007273Y020431D01*
X007183Y020342D02*
X007183Y019181D01*
X006683Y019181D02*
X006683Y019842D01*
X006773Y019931D02*
X007618Y019931D01*
X007683Y019997D02*
X007683Y020616D01*
X008183Y020616D02*
X008183Y019997D01*
X008249Y019931D02*
X008426Y019931D01*
X008683Y020040D02*
X008683Y021781D01*
X008367Y021931D02*
X007523Y021931D01*
X007683Y021941D02*
X007683Y021247D01*
X008183Y021247D02*
X008183Y021941D01*
X008683Y022181D02*
X007433Y022181D01*
X004058Y018806D01*
X004058Y013306D01*
X005058Y012306D01*
X010808Y012306D01*
X011183Y012681D01*
X012933Y012681D01*
X013433Y012181D01*
X014183Y012181D01*
X015433Y013431D01*
X016683Y013431D01*
X017183Y012931D01*
X017933Y012931D01*
X019433Y011431D01*
X018943Y011431D02*
X018923Y011431D01*
X018683Y010988D02*
X018683Y010001D01*
X018183Y010001D02*
X018183Y010988D01*
X017923Y011228D02*
X017636Y010941D01*
X017230Y010941D01*
X016943Y011228D01*
X016943Y011634D01*
X017230Y011921D01*
X017636Y011921D01*
X017923Y011634D01*
X017923Y011228D01*
X017923Y011431D02*
X017943Y011431D01*
X018183Y011874D02*
X018183Y012229D01*
X017981Y012431D02*
X016362Y012431D01*
X016183Y012252D02*
X016183Y011874D01*
X016058Y011431D02*
X016433Y011431D01*
X016058Y011431D02*
X014808Y010181D01*
X012933Y010181D01*
X012183Y010931D01*
X010683Y010931D01*
X010183Y010431D01*
X009433Y010431D01*
X008933Y010931D01*
X007683Y010931D01*
X007183Y011431D01*
X005683Y011431D01*
X005183Y010931D01*
X004183Y010931D01*
X003433Y011681D01*
X003183Y011116D02*
X003183Y010384D01*
X003136Y010431D02*
X005453Y010431D01*
X005183Y010611D02*
X005183Y010001D01*
X004683Y010001D02*
X004683Y010611D01*
X004183Y010611D02*
X004183Y010001D01*
X004183Y009361D02*
X004183Y005251D01*
X005683Y004611D02*
X005683Y003413D01*
X006183Y003355D02*
X006183Y004611D01*
X006292Y005431D02*
X010014Y005431D01*
X009683Y005251D02*
X009683Y006502D01*
X009734Y006451D02*
X010132Y006451D01*
X010413Y006732D01*
X010413Y007130D01*
X010132Y007411D01*
X009734Y007411D01*
X009453Y007130D01*
X009453Y006732D01*
X009734Y006451D01*
X010183Y006502D02*
X010183Y006197D01*
X010006Y005931D02*
X006301Y005931D01*
X006183Y006137D02*
X006183Y007616D01*
X006099Y007531D02*
X006333Y007766D01*
X006333Y007931D02*
X005934Y007931D01*
X005933Y007931D02*
X005933Y007531D01*
X006099Y007531D01*
X006183Y007931D02*
X006183Y007931D01*
X005933Y007932D02*
X005933Y008331D01*
X005933Y007932D01*
X005933Y007932D01*
X005683Y007931D02*
X005683Y007931D01*
X005683Y007616D02*
X005683Y006381D01*
X005413Y006931D02*
X007453Y006931D01*
X007453Y006732D02*
X007734Y006451D01*
X008132Y006451D01*
X008413Y006732D01*
X008413Y007130D01*
X008132Y007411D01*
X007734Y007411D01*
X007453Y007130D01*
X007453Y006732D01*
X007683Y006502D02*
X007683Y005251D01*
X008183Y005251D02*
X008183Y006502D01*
X008413Y006931D02*
X009453Y006931D01*
X009683Y007360D02*
X009683Y008361D01*
X009183Y008361D02*
X009183Y005251D01*
X008683Y005251D02*
X008683Y008361D01*
X008183Y008361D02*
X008183Y007360D01*
X007683Y007360D02*
X007683Y008361D01*
X007183Y008360D02*
X007183Y008361D01*
X006683Y008360D02*
X006683Y008361D01*
X006433Y008681D02*
X010433Y008681D01*
X010933Y009181D01*
X011433Y008681D01*
X015433Y008681D01*
X015933Y009181D01*
X016433Y008681D01*
X020433Y008681D01*
X020933Y009181D01*
X021433Y008681D01*
X021231Y008431D02*
X020636Y008431D01*
X020683Y008479D02*
X020683Y008247D01*
X021183Y008247D02*
X021183Y008479D01*
X020183Y008361D02*
X020183Y007360D01*
X019683Y007360D02*
X019683Y008361D01*
X019183Y008361D02*
X019183Y005251D01*
X019683Y004611D02*
X019683Y000711D01*
X020183Y000711D02*
X020183Y002580D01*
X020183Y002903D02*
X020183Y004611D01*
X020683Y004611D02*
X020683Y003413D01*
X020195Y002931D02*
X016531Y002931D01*
X016183Y003355D02*
X016183Y004611D01*
X015683Y004611D02*
X015683Y003413D01*
X015195Y002931D02*
X011531Y002931D01*
X011183Y003355D02*
X011183Y004611D01*
X010683Y004611D02*
X010683Y003413D01*
X010195Y002931D02*
X006531Y002931D01*
X005183Y002580D02*
X005183Y000711D01*
X004183Y000711D02*
X004183Y000823D01*
X004071Y000931D02*
X003955Y000931D01*
X003683Y000890D02*
X003683Y000711D01*
X003683Y001403D02*
X003683Y001519D01*
X002683Y000711D02*
X043183Y000711D01*
X042683Y000711D02*
X042683Y016036D01*
X042683Y016326D02*
X042683Y018681D01*
X042183Y018681D02*
X042183Y000711D01*
X041683Y000711D02*
X041683Y009729D01*
X041886Y009931D02*
X044903Y009931D01*
X044903Y009431D02*
X041362Y009431D01*
X041362Y008931D02*
X044903Y008931D01*
X044903Y008431D02*
X040636Y008431D01*
X040683Y008479D02*
X040683Y008247D01*
X040933Y008331D02*
X040933Y007932D01*
X040933Y007932D01*
X040933Y008331D01*
X041099Y008331D02*
X041333Y008097D01*
X041333Y007931D01*
X040934Y007931D01*
X040934Y007931D01*
X044903Y007931D01*
X044903Y007431D02*
X000963Y007431D01*
X000963Y007931D02*
X001453Y007931D01*
X001683Y007502D02*
X001683Y005165D01*
X002003Y004551D02*
X002053Y004551D01*
X002453Y006931D02*
X000963Y006931D01*
X002683Y007360D02*
X002683Y009979D01*
X002731Y009931D02*
X000963Y009931D01*
X000963Y009431D02*
X001504Y009431D01*
X001453Y009380D02*
X001453Y008982D01*
X001734Y008701D01*
X002132Y008701D01*
X002413Y008982D01*
X002413Y009380D01*
X002132Y009661D01*
X001734Y009661D01*
X001453Y009380D01*
X001683Y009610D02*
X001683Y010002D01*
X001453Y010431D02*
X000963Y010431D01*
X001683Y010860D02*
X001683Y010979D01*
X001731Y010931D02*
X000963Y010931D01*
X002183Y010002D02*
X002183Y009610D01*
X002362Y009431D02*
X003231Y009431D01*
X003183Y009479D02*
X003183Y007360D01*
X003413Y006931D02*
X004453Y006931D01*
X004683Y007360D02*
X004683Y009361D01*
X005183Y009361D02*
X005183Y007360D01*
X005683Y008247D02*
X005683Y008752D01*
X005504Y008931D02*
X002362Y008931D01*
X002183Y008752D02*
X002183Y008360D01*
X001683Y008360D02*
X001683Y008752D01*
X001504Y008931D02*
X000963Y008931D01*
X000963Y008431D02*
X006231Y008431D01*
X006183Y008479D02*
X006183Y008247D01*
X006433Y008681D02*
X005933Y009181D01*
X005683Y010001D02*
X005683Y010002D01*
X006183Y010001D02*
X006183Y010002D01*
X006413Y010431D02*
X006453Y010431D01*
X006683Y010002D02*
X006683Y010001D01*
X007183Y010001D02*
X007183Y010002D01*
X007413Y010431D02*
X008981Y010431D01*
X009183Y010229D02*
X009183Y010001D01*
X009683Y010001D02*
X009683Y010111D01*
X010183Y010111D02*
X010183Y010001D01*
X010683Y010001D02*
X010683Y010002D01*
X010183Y010884D02*
X010183Y011002D01*
X010231Y010931D02*
X009386Y010931D01*
X009683Y011002D02*
X009683Y010751D01*
X010413Y011431D02*
X011117Y011431D01*
X011183Y011366D02*
X011183Y011251D01*
X011433Y011431D02*
X011433Y011431D01*
X011683Y011366D02*
X011683Y011251D01*
X011749Y011431D02*
X012943Y011431D01*
X012683Y011729D02*
X012683Y010884D01*
X012636Y010931D02*
X015106Y010931D01*
X014683Y010988D02*
X014683Y010509D01*
X014183Y010501D02*
X014183Y010988D01*
X013683Y010988D02*
X013683Y010501D01*
X013183Y010501D02*
X013183Y010988D01*
X013433Y011431D02*
X012683Y012181D01*
X011183Y012181D01*
X010933Y011931D01*
X004933Y011931D01*
X004183Y012681D01*
X004183Y012681D01*
X003808Y013056D01*
X003808Y013056D01*
X003746Y013119D01*
X003746Y018869D01*
X003433Y019181D01*
X003225Y019931D02*
X003173Y019931D01*
X002693Y019931D02*
X002343Y019931D01*
X002183Y019601D02*
X002183Y019261D01*
X001933Y019181D02*
X001933Y019181D01*
X001933Y019341D01*
X001933Y019181D01*
X001683Y019261D02*
X001683Y019601D01*
X002183Y020261D02*
X002183Y020601D01*
X001933Y020521D02*
X001933Y020931D01*
X001933Y020932D02*
X001933Y020932D01*
X001934Y020931D02*
X002343Y020931D01*
X002183Y020931D02*
X002183Y020931D01*
X001683Y020931D02*
X001683Y020931D01*
X005023Y019431D02*
X005594Y019431D01*
X005683Y019521D02*
X005683Y020092D01*
X005523Y019931D02*
X006094Y019931D01*
X006183Y020021D02*
X006183Y020592D01*
X006023Y020431D02*
X006594Y020431D01*
X006683Y020521D02*
X006683Y021092D01*
X006523Y020931D02*
X007094Y020931D01*
X007183Y021021D02*
X007183Y021592D01*
X007023Y021431D02*
X044903Y021431D01*
X044903Y020931D02*
X011173Y020931D01*
X010683Y020931D02*
X009933Y020931D01*
X008683Y019681D01*
X009683Y018681D01*
X015933Y018681D01*
X017183Y017431D01*
X016121Y017494D02*
X017652Y015962D01*
X018090Y015931D02*
X022613Y015931D01*
X022481Y015431D02*
X021386Y015431D01*
X021183Y015634D02*
X021183Y016877D01*
X021188Y016880D02*
X021244Y016936D01*
X021288Y017002D01*
X021318Y017074D01*
X021333Y017152D01*
X021333Y017431D01*
X020934Y017431D01*
X020934Y017431D01*
X021453Y017431D01*
X021333Y017431D02*
X021333Y017711D01*
X021318Y017788D01*
X021288Y017861D01*
X021244Y017926D01*
X021188Y017982D01*
X021123Y018026D01*
X021050Y018056D01*
X020973Y018071D01*
X020933Y018071D01*
X020894Y018071D01*
X020816Y018056D01*
X020744Y018026D01*
X020678Y017982D01*
X020622Y017926D01*
X020579Y017861D01*
X020549Y017788D01*
X020533Y017711D01*
X020533Y017431D01*
X020533Y017152D01*
X020549Y017074D01*
X020579Y017002D01*
X020622Y016936D01*
X020678Y016880D01*
X020744Y016837D01*
X020816Y016807D01*
X020894Y016791D01*
X020933Y016791D01*
X020933Y017431D01*
X020933Y017431D01*
X020533Y017431D01*
X020933Y017431D01*
X020933Y017431D01*
X020413Y017431D01*
X020683Y017431D02*
X020683Y017431D01*
X020933Y017432D02*
X020933Y018071D01*
X020933Y017432D01*
X020933Y017432D01*
X020934Y017431D02*
X021333Y017431D01*
X021183Y017431D02*
X021183Y017431D01*
X020933Y017431D02*
X020933Y016791D01*
X020973Y016791D01*
X021050Y016807D01*
X021123Y016837D01*
X021188Y016880D01*
X021239Y016931D02*
X021521Y016931D01*
X021683Y016775D02*
X021683Y015134D01*
X022433Y014931D02*
X022933Y015431D01*
X022933Y017431D01*
X022453Y017431D02*
X022413Y017431D01*
X022345Y017931D02*
X022521Y017931D01*
X022683Y018087D02*
X022683Y018111D01*
X022183Y018087D02*
X022183Y018111D01*
X021683Y018087D02*
X021683Y018111D01*
X021521Y017931D02*
X021239Y017931D01*
X021183Y017985D02*
X021183Y018111D01*
X020933Y017931D02*
X020933Y017931D01*
X020683Y017985D02*
X020683Y018111D01*
X020627Y017931D02*
X020345Y017931D01*
X019731Y018431D02*
X019636Y018431D01*
X019683Y018384D02*
X019683Y018479D01*
X019521Y017931D02*
X019345Y017931D01*
X020345Y016931D02*
X020627Y016931D01*
X020683Y016877D02*
X020683Y015907D01*
X020777Y015587D02*
X021933Y014431D01*
X021453Y014431D02*
X021413Y014431D01*
X020453Y014431D02*
X020413Y014431D01*
X020345Y014931D02*
X020521Y014931D01*
X020683Y015087D02*
X020683Y015229D01*
X020777Y015587D02*
X017277Y015587D01*
X015683Y017181D01*
X005683Y017181D01*
X005183Y016681D01*
X004683Y016806D02*
X006558Y018681D01*
X007683Y018681D01*
X008683Y019681D01*
X007683Y019366D02*
X007683Y019181D01*
X007617Y019431D02*
X006273Y019431D01*
X006183Y019342D02*
X006183Y019181D01*
X005183Y019181D02*
X005183Y019592D01*
X003113Y017931D02*
X002423Y017931D01*
X002423Y017728D02*
X002136Y017441D01*
X001730Y017441D01*
X001443Y017728D01*
X001443Y018134D01*
X001730Y018421D01*
X002136Y018421D01*
X002423Y018134D01*
X002423Y017728D01*
X002183Y017488D02*
X002183Y017374D01*
X002136Y017421D02*
X001730Y017421D01*
X001443Y017134D01*
X001443Y016728D01*
X001730Y016441D01*
X002136Y016441D01*
X002423Y016728D01*
X002423Y017134D01*
X002136Y017421D01*
X001683Y017374D02*
X001683Y017488D01*
X001443Y017931D02*
X000963Y017931D01*
X000963Y017431D02*
X003113Y017431D01*
X003113Y016931D02*
X002423Y016931D01*
X002183Y016488D02*
X002183Y016374D01*
X001683Y016374D02*
X001683Y016488D01*
X001443Y016931D02*
X000963Y016931D01*
X000963Y016431D02*
X003113Y016431D01*
X003113Y015931D02*
X002423Y015931D01*
X003113Y015431D02*
X000963Y015431D01*
X000963Y015931D02*
X001443Y015931D01*
X004683Y016806D02*
X004683Y013681D01*
X005183Y013181D01*
X009433Y013181D01*
X009933Y013681D01*
X011433Y013681D01*
X013206Y012861D02*
X013548Y012861D01*
X013533Y012847D01*
X013533Y012681D01*
X013533Y012534D01*
X013206Y012861D01*
X013533Y012681D02*
X013933Y012681D01*
X013533Y012681D01*
X013683Y012681D02*
X013683Y012681D01*
X013933Y012681D02*
X013933Y012681D01*
X014386Y011931D02*
X018481Y011931D01*
X019183Y012134D02*
X019183Y012366D01*
X019249Y012431D02*
X020113Y012431D01*
X020113Y011931D02*
X019386Y011931D01*
X019683Y011874D02*
X019683Y013111D01*
X019981Y012931D02*
X019249Y012931D01*
X019183Y012997D02*
X019183Y013111D01*
X018933Y012931D02*
X018933Y012931D01*
X018683Y012997D02*
X018683Y013111D01*
X018618Y012931D02*
X018386Y012931D01*
X019183Y012681D02*
X019183Y012681D01*
X019183Y013751D02*
X019183Y013775D01*
X019345Y013931D02*
X019521Y013931D01*
X019683Y013775D02*
X019683Y013751D01*
X019453Y014431D02*
X019413Y014431D01*
X018933Y014431D02*
X005933Y014431D01*
X005183Y015181D01*
X005183Y014701D02*
X005183Y013932D01*
X005183Y014331D01*
X005017Y014331D01*
X005003Y014317D01*
X005003Y014701D01*
X005211Y014701D01*
X005662Y014250D01*
X005752Y014160D01*
X005869Y014111D01*
X008703Y014111D01*
X008703Y013732D01*
X008934Y013501D01*
X005316Y013501D01*
X005286Y013531D01*
X005349Y013531D01*
X005583Y013766D01*
X005583Y013931D01*
X005184Y013931D01*
X005184Y013931D01*
X008703Y013931D01*
X008683Y014111D02*
X008683Y013501D01*
X008183Y013501D02*
X008183Y014111D01*
X007683Y014111D02*
X007683Y013501D01*
X007183Y013501D02*
X007183Y014111D01*
X006683Y014111D02*
X006683Y013501D01*
X006183Y013501D02*
X006183Y014111D01*
X005683Y014229D02*
X005683Y013501D01*
X005583Y013931D02*
X005184Y013931D01*
X005183Y013932D02*
X005183Y013932D01*
X005183Y014331D01*
X005349Y014331D01*
X005583Y014097D01*
X005583Y013931D01*
X005481Y014431D02*
X005003Y014431D01*
X003746Y013119D02*
X003808Y013056D01*
X003746Y013119D02*
X003746Y013119D01*
X003069Y013272D02*
X003069Y013272D01*
X003069Y013272D01*
X002105Y012921D02*
X002105Y012921D01*
X002078Y012931D02*
X000963Y012931D01*
X005636Y010931D02*
X007231Y010931D01*
X007183Y010979D02*
X007183Y010860D01*
X006683Y010860D02*
X006683Y011111D01*
X006183Y011111D02*
X006183Y010860D01*
X005683Y010860D02*
X005683Y010979D01*
X007683Y010611D02*
X007683Y010001D01*
X008183Y010001D02*
X008183Y010611D01*
X008683Y010611D02*
X008683Y010001D01*
X010183Y008361D02*
X010183Y007360D01*
X010413Y006931D02*
X012453Y006931D01*
X012453Y006732D02*
X012734Y006451D01*
X013132Y006451D01*
X013413Y006732D01*
X013413Y007130D01*
X013132Y007411D01*
X012734Y007411D01*
X012453Y007130D01*
X012453Y006732D01*
X012683Y006502D02*
X012683Y005251D01*
X013183Y005251D02*
X013183Y006502D01*
X013413Y006931D02*
X014453Y006931D01*
X014453Y006732D02*
X014734Y006451D01*
X015132Y006451D01*
X015413Y006732D01*
X015413Y007130D01*
X015132Y007411D01*
X014734Y007411D01*
X014453Y007130D01*
X014453Y006732D01*
X014683Y006502D02*
X014683Y005251D01*
X015014Y005431D02*
X011292Y005431D01*
X011301Y005931D02*
X015006Y005931D01*
X015183Y006197D02*
X015183Y006502D01*
X015413Y006931D02*
X017453Y006931D01*
X017683Y007360D02*
X017683Y008361D01*
X017183Y008360D02*
X017183Y008361D01*
X016683Y008360D02*
X016683Y008361D01*
X016231Y008431D02*
X015636Y008431D01*
X015683Y008479D02*
X015683Y008247D01*
X015933Y008331D02*
X015933Y007932D01*
X015933Y007932D01*
X015933Y008331D01*
X016183Y008247D02*
X016183Y008479D01*
X016183Y007931D02*
X016183Y007931D01*
X016333Y007931D02*
X015934Y007931D01*
X015933Y007931D02*
X015933Y007531D01*
X016099Y007531D01*
X016333Y007766D01*
X016183Y007616D02*
X016183Y006137D01*
X016301Y005931D02*
X020006Y005931D01*
X020183Y006197D02*
X020183Y006502D01*
X023683Y004611D02*
X023683Y004269D01*
X024183Y004611D02*
X024183Y002099D01*
X024071Y001931D02*
X023955Y001931D01*
X024476Y001931D02*
X028550Y001931D01*
X028683Y002033D02*
X028683Y003733D01*
X028733Y003931D02*
X031697Y003931D01*
X031683Y003937D02*
X031683Y000711D01*
X032183Y000711D02*
X032183Y003879D01*
X030683Y003413D02*
X030683Y004611D01*
X029183Y004611D02*
X029183Y002099D01*
X029071Y001931D02*
X028955Y001931D01*
X028683Y001519D02*
X028683Y001403D01*
X027183Y000711D02*
X027183Y003879D01*
X025683Y003413D02*
X025683Y004611D01*
X024183Y005251D02*
X024183Y008361D01*
X024683Y008361D02*
X024683Y007360D01*
X025183Y007360D02*
X025183Y008361D01*
X026636Y009931D02*
X034981Y009931D01*
X035183Y009729D02*
X035183Y009001D01*
X034683Y009001D02*
X034683Y010229D01*
X034481Y010431D02*
X032413Y010431D01*
X032183Y010002D02*
X032183Y009610D01*
X032362Y009431D02*
X035504Y009431D01*
X035683Y008479D02*
X035683Y008247D01*
X035636Y008431D02*
X036231Y008431D01*
X036183Y008479D02*
X036183Y008247D01*
X035933Y008331D02*
X035933Y007932D01*
X035933Y008331D01*
X035933Y007932D02*
X035933Y007932D01*
X035934Y007931D02*
X036333Y007931D01*
X036183Y007931D02*
X036183Y007931D01*
X036333Y007766D02*
X036099Y007531D01*
X035933Y007531D01*
X035933Y007931D01*
X035683Y007931D02*
X035683Y007931D01*
X035683Y007616D02*
X035683Y006381D01*
X036183Y006137D02*
X036183Y007616D01*
X035183Y007360D02*
X035183Y008361D01*
X034683Y008361D02*
X034683Y007360D01*
X034183Y008361D02*
X034183Y005251D01*
X035683Y004611D02*
X035683Y003413D01*
X036183Y003355D02*
X036183Y004611D01*
X037183Y003879D02*
X037183Y000711D01*
X038355Y001519D02*
X038955Y001519D01*
X038955Y002119D01*
X038884Y002110D01*
X038801Y002087D01*
X038721Y002054D01*
X038646Y002011D01*
X038577Y001958D01*
X038516Y001897D01*
X038463Y001829D01*
X038420Y001754D01*
X038387Y001674D01*
X038364Y001590D01*
X038355Y001519D01*
X038683Y001519D02*
X038683Y001403D01*
X038955Y001431D02*
X034071Y001431D01*
X034183Y001403D02*
X034183Y001519D01*
X034476Y001931D02*
X038550Y001931D01*
X038683Y002033D02*
X038683Y003733D01*
X038733Y003931D02*
X039613Y003931D01*
X039933Y003671D02*
X040863Y002741D01*
X041482Y002431D02*
X044903Y002431D01*
X044822Y001931D02*
X039476Y001931D01*
X039449Y001958D02*
X039381Y002011D01*
X039306Y002054D01*
X039226Y002087D01*
X039142Y002110D01*
X039071Y002119D01*
X039071Y001519D01*
X039671Y001519D01*
X039662Y001590D01*
X039639Y001674D01*
X039606Y001754D01*
X039563Y001829D01*
X039510Y001897D01*
X039449Y001958D01*
X039183Y002099D02*
X039183Y008361D01*
X038683Y008361D02*
X038683Y004269D01*
X038610Y004431D02*
X039613Y004431D01*
X040253Y004431D02*
X044903Y004431D01*
X044903Y003931D02*
X040253Y003931D01*
X039933Y003671D02*
X039933Y006931D01*
X040413Y006931D02*
X044903Y006931D01*
X044903Y006431D02*
X040253Y006431D01*
X040683Y006381D02*
X040683Y007616D01*
X040933Y007531D02*
X040933Y007931D01*
X040934Y007931D02*
X041333Y007931D01*
X041333Y007766D01*
X041099Y007531D01*
X040933Y007531D01*
X041183Y007616D02*
X041183Y006137D01*
X041301Y005931D02*
X044903Y005931D01*
X044903Y005431D02*
X041292Y005431D01*
X041183Y005245D02*
X041183Y003355D01*
X040683Y003413D02*
X040683Y005001D01*
X040253Y004931D02*
X044903Y004931D01*
X044903Y003431D02*
X040626Y003431D01*
X040183Y002969D02*
X040183Y002903D01*
X040195Y002931D02*
X036531Y002931D01*
X035683Y002069D02*
X035683Y000711D01*
X038955Y001931D02*
X039071Y001931D01*
X039183Y001519D02*
X039183Y001403D01*
X039071Y001431D02*
X044572Y001431D01*
X044683Y001607D02*
X044683Y016036D01*
X044665Y015931D02*
X044903Y015931D01*
X044647Y015830D02*
X044709Y016181D01*
X044709Y016181D01*
X044647Y016532D01*
X044647Y016532D01*
X044903Y016931D02*
X044361Y016931D01*
X044196Y017069D02*
X044196Y017069D01*
X044903Y017431D02*
X039386Y017431D01*
X039183Y017634D02*
X039183Y018681D01*
X038683Y018681D02*
X038683Y017751D01*
X039683Y017134D02*
X039683Y018681D01*
X040183Y018681D02*
X040183Y016634D01*
X040253Y016431D02*
X040981Y016431D01*
X041183Y016634D02*
X041183Y018681D01*
X041517Y018331D02*
X041283Y018097D01*
X041283Y017931D01*
X041683Y017931D01*
X041683Y017531D01*
X041849Y017531D01*
X042083Y017766D01*
X042083Y017931D01*
X041684Y017931D01*
X041684Y017931D01*
X044903Y017931D01*
X043683Y019181D02*
X043683Y031070D01*
X044822Y029931D02*
X040963Y029931D01*
X040683Y029701D02*
X040683Y029661D01*
X040413Y029701D02*
X040413Y030581D01*
X040391Y030581D01*
X040309Y030568D01*
X040230Y030542D01*
X040155Y030504D01*
X040088Y030455D01*
X040029Y030396D01*
X039980Y030329D01*
X039942Y030255D01*
X039933Y030227D01*
X039924Y030255D01*
X039886Y030329D01*
X039837Y030396D01*
X039778Y030455D01*
X039711Y030504D01*
X039637Y030542D01*
X039557Y030568D01*
X039475Y030581D01*
X039453Y030581D01*
X039453Y029701D01*
X039903Y029701D01*
X040413Y029701D01*
X040183Y029701D02*
X040183Y029661D01*
X040413Y029431D02*
X040453Y029431D01*
X040453Y028931D02*
X040413Y028931D01*
X040683Y028844D02*
X040683Y027171D01*
X041664Y027931D02*
X037673Y027931D01*
X037193Y027931D02*
X035833Y027931D01*
X035833Y027765D02*
X035599Y027531D01*
X035267Y027531D01*
X035033Y027765D01*
X035033Y028097D01*
X035267Y028331D01*
X035599Y028331D01*
X035833Y028097D01*
X035833Y027765D01*
X035683Y027616D02*
X035683Y026171D01*
X035183Y026171D02*
X035183Y027615D01*
X035033Y027931D02*
X033833Y027931D01*
X033833Y027765D02*
X033599Y027531D01*
X033267Y027531D01*
X033033Y027765D01*
X033033Y028097D01*
X033267Y028331D01*
X033599Y028331D01*
X033833Y028097D01*
X033833Y027765D01*
X033683Y027616D02*
X033683Y026171D01*
X033183Y026171D02*
X033183Y027615D01*
X033033Y027931D02*
X031523Y027931D01*
X031683Y028092D02*
X031683Y026171D01*
X032183Y026171D02*
X032183Y028592D01*
X032023Y028431D02*
X037193Y028431D01*
X037183Y028841D02*
X037183Y026171D01*
X037683Y026171D02*
X037683Y026691D01*
X037344Y026931D02*
X030523Y026931D01*
X030683Y027092D02*
X030683Y025521D01*
X030594Y025431D02*
X028773Y025431D01*
X028683Y025521D02*
X028683Y028436D01*
X028764Y028241D01*
X028913Y028092D01*
X029108Y028011D01*
X029319Y028011D01*
X029513Y028092D01*
X029662Y028241D01*
X029743Y028436D01*
X029743Y028647D01*
X029662Y028841D01*
X029513Y028990D01*
X029319Y029071D01*
X029108Y029071D01*
X028913Y028990D01*
X028764Y028841D01*
X028683Y028647D01*
X028683Y030216D01*
X028764Y030021D01*
X028913Y029872D01*
X029108Y029791D01*
X029319Y029791D01*
X029513Y029872D01*
X029662Y030021D01*
X029743Y030216D01*
X029743Y030427D01*
X029662Y030621D01*
X029513Y030770D01*
X029319Y030851D01*
X029108Y030851D01*
X028913Y030770D01*
X028764Y030621D01*
X028683Y030427D01*
X028683Y031151D01*
X028183Y031151D02*
X028183Y026021D01*
X028273Y025931D02*
X028783Y025931D01*
X029183Y025931D02*
X032933Y029681D01*
X033183Y029351D02*
X033183Y028247D01*
X033683Y028247D02*
X033683Y029351D01*
X033603Y029431D02*
X033263Y029431D01*
X033523Y029511D02*
X033523Y029681D01*
X033933Y029681D01*
X033933Y029681D01*
X033933Y029271D01*
X033763Y029271D01*
X033523Y029511D01*
X033523Y029681D02*
X033933Y029681D01*
X033933Y029681D01*
X033933Y029271D01*
X034103Y029271D01*
X034343Y029511D01*
X034343Y029681D01*
X033934Y029681D01*
X033934Y029681D01*
X034343Y029681D01*
X034343Y029851D01*
X034103Y030091D01*
X033933Y030091D01*
X033763Y030091D01*
X033523Y029851D01*
X033523Y029681D01*
X033683Y029681D02*
X033683Y029681D01*
X033933Y029682D02*
X033933Y030091D01*
X033933Y029682D01*
X033933Y029682D01*
X033933Y029931D02*
X033933Y029931D01*
X033683Y030011D02*
X033683Y031151D01*
X033183Y031151D02*
X033183Y030011D01*
X033263Y029931D02*
X033603Y029931D01*
X034183Y030011D02*
X034183Y031151D01*
X034683Y031151D02*
X034683Y026171D01*
X034183Y026171D02*
X034183Y029351D01*
X034263Y029431D02*
X034903Y029431D01*
X035064Y028931D02*
X032523Y028931D01*
X032683Y029092D02*
X032683Y026171D01*
X033183Y025691D02*
X033183Y019181D01*
X033683Y019181D02*
X033683Y025691D01*
X034183Y025691D02*
X034183Y019181D01*
X034183Y018681D02*
X034183Y011634D01*
X034386Y011431D02*
X034453Y011431D01*
X034933Y011431D02*
X034933Y017681D01*
X035183Y017931D01*
X035683Y017931D01*
X034731Y017931D02*
X033663Y017931D01*
X033183Y017451D02*
X033183Y017161D01*
X033382Y017161D02*
X032984Y017161D01*
X032703Y016880D01*
X032703Y016482D01*
X032984Y016201D01*
X033382Y016201D01*
X033663Y016482D01*
X033663Y016880D01*
X033382Y017161D01*
X033612Y016931D02*
X034613Y016931D01*
X034613Y016431D02*
X033612Y016431D01*
X033183Y016201D02*
X033183Y015661D01*
X033612Y015431D02*
X034613Y015431D01*
X034613Y015931D02*
X032622Y015931D01*
X032183Y016370D02*
X032183Y018681D01*
X031683Y018681D02*
X031683Y014134D01*
X031886Y013931D02*
X032703Y013931D01*
X033183Y014411D02*
X033183Y014701D01*
X033612Y014931D02*
X034613Y014931D01*
X034613Y014431D02*
X031386Y014431D01*
X033663Y013931D02*
X034613Y013931D01*
X035253Y013431D02*
X035481Y013431D01*
X035683Y013229D02*
X035683Y010860D01*
X035453Y010431D02*
X035386Y010431D01*
X035183Y010634D02*
X035183Y011002D01*
X034886Y010931D02*
X040731Y010931D01*
X040683Y010979D02*
X040683Y010860D01*
X040453Y010431D02*
X037413Y010431D01*
X037683Y010126D02*
X037683Y011116D01*
X037683Y011431D02*
X037683Y011431D01*
X037533Y011431D02*
X037933Y011431D01*
X037933Y011432D02*
X037933Y011831D01*
X037767Y011831D01*
X037533Y011597D01*
X037533Y011431D01*
X037683Y011747D02*
X037683Y012366D01*
X037749Y012431D02*
X039004Y012431D01*
X039183Y012252D02*
X039183Y010126D01*
X038683Y010126D02*
X038683Y012861D01*
X038933Y013181D02*
X039433Y012681D01*
X038933Y013181D02*
X036183Y013181D01*
X035433Y013931D01*
X035253Y012931D02*
X035981Y012931D01*
X036183Y012861D02*
X036183Y010860D01*
X036413Y010431D02*
X036453Y010431D01*
X036683Y010860D02*
X036683Y012861D01*
X037183Y012681D02*
X037183Y012681D01*
X037117Y012431D02*
X035253Y012431D01*
X033183Y011431D02*
X033183Y011431D01*
X033183Y011116D02*
X033183Y009001D01*
X032683Y009001D02*
X032683Y011116D01*
X032683Y011431D02*
X032683Y011431D01*
X031453Y010431D02*
X031413Y010431D01*
X031183Y010002D02*
X031183Y009610D01*
X031362Y009431D02*
X031504Y009431D01*
X031683Y009610D02*
X031683Y010002D01*
X030683Y010002D02*
X030683Y009610D01*
X030504Y009431D02*
X027362Y009431D01*
X027183Y009610D02*
X027183Y010002D01*
X028673Y011431D02*
X028693Y011431D01*
X026933Y014431D02*
X025933Y014431D01*
X024433Y013681D02*
X024433Y016181D01*
X024933Y016681D01*
X027136Y017931D02*
X027683Y017931D01*
X027283Y017931D01*
X027683Y017931D01*
X027683Y017931D01*
X027683Y017932D02*
X027683Y018331D01*
X027683Y017932D01*
X027183Y017884D02*
X027183Y018611D01*
X027683Y018331D02*
X027849Y018331D01*
X028683Y018681D02*
X028683Y017860D01*
X029612Y016931D02*
X029613Y016931D01*
X029612Y016431D02*
X029613Y016431D01*
X030253Y016431D02*
X032754Y016431D01*
X032754Y016931D02*
X030253Y016931D01*
X030253Y017431D02*
X034613Y017431D01*
X034683Y017884D02*
X034683Y018681D01*
X034683Y019181D02*
X034683Y025691D01*
X035183Y025691D02*
X035183Y019181D01*
X035683Y019181D02*
X035683Y025691D01*
X036183Y025691D02*
X036183Y019181D01*
X036683Y019181D02*
X036683Y025691D01*
X036683Y026171D02*
X036683Y028841D01*
X036803Y028931D02*
X037064Y028931D01*
X037673Y028431D02*
X044903Y028431D01*
X044903Y029375D02*
X044903Y029397D01*
X044903Y029431D01*
X042368Y028170D02*
X042326Y028228D01*
X042275Y028278D01*
X042217Y028321D01*
X042153Y028353D01*
X042085Y028375D01*
X042014Y028386D01*
X041702Y028386D01*
X041702Y027950D01*
X042434Y027950D01*
X042434Y027967D01*
X042422Y028038D01*
X042400Y028106D01*
X042368Y028170D01*
X042183Y028338D02*
X042183Y031151D01*
X041683Y031151D02*
X041683Y027950D01*
X042183Y027950D02*
X042183Y027913D01*
X042183Y027524D02*
X042183Y027339D01*
X042434Y026931D02*
X044903Y026931D01*
X044903Y026431D02*
X030023Y026431D01*
X030183Y026592D02*
X030183Y025021D01*
X030094Y024931D02*
X029468Y024931D01*
X029183Y025059D02*
X029183Y025531D01*
X029183Y026331D02*
X029183Y026781D01*
X029017Y026781D02*
X029349Y026781D01*
X029583Y027016D01*
X029583Y027242D01*
X030819Y028478D01*
X030887Y028545D01*
X030923Y028633D01*
X030923Y029341D01*
X031093Y029511D01*
X031093Y029851D01*
X030853Y030091D01*
X030513Y030091D01*
X030273Y029851D01*
X030273Y029511D01*
X030443Y029341D01*
X030443Y028781D01*
X029244Y027581D01*
X029017Y027581D01*
X028783Y027347D01*
X028783Y027016D01*
X029017Y026781D01*
X028867Y026931D02*
X027273Y026931D01*
X027183Y027021D02*
X027183Y031151D01*
X026953Y030770D02*
X026759Y030851D01*
X026548Y030851D01*
X026353Y030770D01*
X026204Y030621D01*
X026123Y030427D01*
X026123Y030216D01*
X026204Y030021D01*
X026353Y029872D01*
X026548Y029791D01*
X026759Y029791D01*
X026953Y029872D01*
X027102Y030021D01*
X027183Y030216D01*
X027183Y030427D01*
X027102Y030621D01*
X026953Y030770D01*
X026683Y030851D02*
X026683Y031151D01*
X026183Y031151D02*
X026183Y030571D01*
X026125Y030431D02*
X025843Y030431D01*
X025843Y030261D02*
X025603Y030021D01*
X025263Y030021D01*
X025023Y030261D01*
X025023Y030601D01*
X025263Y030841D01*
X025603Y030841D01*
X025843Y030601D01*
X025843Y030261D01*
X025683Y030101D02*
X025683Y028521D01*
X025773Y028431D02*
X026134Y028431D01*
X026136Y028417D02*
X026162Y028338D01*
X026200Y028263D01*
X026249Y028196D01*
X026308Y028137D01*
X026375Y028088D01*
X026450Y028050D01*
X026529Y028024D01*
X026611Y028011D01*
X026633Y028011D01*
X026633Y028521D01*
X026673Y028521D01*
X026673Y028011D01*
X026695Y028011D01*
X026777Y028024D01*
X026857Y028050D01*
X026931Y028088D01*
X026998Y028137D01*
X027057Y028196D01*
X027106Y028263D01*
X027144Y028338D01*
X027170Y028417D01*
X027183Y028499D01*
X027183Y028521D01*
X026673Y028521D01*
X026673Y028561D01*
X027183Y028561D01*
X027183Y028583D01*
X027170Y028665D01*
X027144Y028745D01*
X027106Y028819D01*
X027057Y028886D01*
X026998Y028945D01*
X026931Y028994D01*
X026857Y029032D01*
X026777Y029058D01*
X026695Y029071D01*
X026673Y029071D01*
X026673Y028561D01*
X026633Y028561D01*
X026633Y028521D01*
X026123Y028521D01*
X026123Y028499D01*
X026136Y028417D01*
X026183Y028521D02*
X026183Y028561D01*
X026123Y028561D02*
X026633Y028561D01*
X026633Y029071D01*
X026611Y029071D01*
X026529Y029058D01*
X026450Y029032D01*
X026375Y028994D01*
X026308Y028945D01*
X026249Y028886D01*
X026200Y028819D01*
X026162Y028745D01*
X026136Y028665D01*
X026123Y028583D01*
X026123Y028561D01*
X026183Y028786D02*
X026183Y030071D01*
X026294Y029931D02*
X024273Y029931D01*
X024263Y030021D02*
X024603Y030021D01*
X024843Y030261D01*
X024843Y030601D01*
X024603Y030841D01*
X024263Y030841D01*
X024023Y030601D01*
X024023Y030261D01*
X024263Y030021D01*
X024183Y030021D02*
X024183Y030101D01*
X024023Y030431D02*
X023843Y030431D01*
X023683Y030761D02*
X023683Y031151D01*
X023183Y031151D02*
X023183Y030761D01*
X022683Y030761D02*
X022683Y031151D01*
X022183Y031151D02*
X022183Y030761D01*
X022183Y030431D02*
X022183Y030431D01*
X021843Y030431D02*
X021843Y030601D01*
X021603Y030841D01*
X021433Y030841D01*
X021263Y030841D01*
X021023Y030601D01*
X021023Y030431D01*
X021023Y030261D01*
X021113Y030171D01*
X020753Y030171D01*
X020843Y030261D01*
X020843Y030601D01*
X020603Y030841D01*
X020263Y030841D01*
X020023Y030601D01*
X020023Y030261D01*
X020113Y030171D01*
X019385Y030171D01*
X019297Y030135D01*
X019230Y030067D01*
X018364Y029202D01*
X018202Y029202D01*
X017683Y029163D02*
X017683Y030101D01*
X017603Y030021D02*
X017843Y030261D01*
X017843Y030601D01*
X017603Y030841D01*
X017263Y030841D01*
X017023Y030601D01*
X017023Y030261D01*
X017263Y030021D01*
X017603Y030021D01*
X017183Y030101D02*
X017183Y029065D01*
X016683Y029202D02*
X016683Y030101D01*
X016603Y030021D02*
X016843Y030261D01*
X016843Y030601D01*
X016603Y030841D01*
X016263Y030841D01*
X016023Y030601D01*
X016023Y030261D01*
X016263Y030021D01*
X016603Y030021D01*
X016183Y030101D02*
X016183Y029128D01*
X015683Y029137D02*
X015683Y030101D01*
X015603Y030021D02*
X015843Y030261D01*
X015843Y030601D01*
X015603Y030841D01*
X015263Y030841D01*
X015023Y030601D01*
X015023Y030261D01*
X015263Y030021D01*
X015603Y030021D01*
X015183Y030101D02*
X015183Y029200D01*
X015140Y028931D02*
X015140Y028931D01*
X015140Y028761D02*
X015140Y028322D01*
X015140Y028761D01*
X015140Y028761D01*
X015140Y028431D02*
X015140Y028431D01*
X015183Y028323D02*
X015183Y022921D01*
X015269Y022931D02*
X009940Y022931D01*
X010183Y022441D02*
X010183Y021171D01*
X010426Y021512D02*
X010495Y021477D01*
X010568Y021453D01*
X010645Y021441D01*
X010683Y021441D01*
X010683Y021931D01*
X010683Y021931D01*
X010683Y021421D01*
X010683Y021441D02*
X010722Y021441D01*
X010798Y021453D01*
X010871Y021477D01*
X010940Y021512D01*
X011002Y021557D01*
X011057Y021612D01*
X011102Y021674D01*
X011137Y021743D01*
X011161Y021816D01*
X011173Y021893D01*
X011173Y021931D01*
X010684Y021931D01*
X010684Y021931D01*
X044903Y021931D01*
X044903Y022431D02*
X008999Y022431D01*
X008999Y021931D02*
X010683Y021931D01*
X010193Y021931D01*
X010193Y021893D01*
X010205Y021816D01*
X010229Y021743D01*
X010264Y021674D01*
X010309Y021612D01*
X010364Y021557D01*
X010426Y021512D01*
X010683Y021441D02*
X010683Y021931D01*
X010683Y021931D01*
X010193Y021931D01*
X010193Y021970D01*
X010205Y022046D01*
X010229Y022119D01*
X010264Y022188D01*
X010309Y022250D01*
X010364Y022305D01*
X010426Y022350D01*
X010495Y022385D01*
X010568Y022409D01*
X010645Y022421D01*
X010683Y022421D01*
X010683Y021932D01*
X010683Y022441D01*
X010683Y022421D02*
X010683Y021932D01*
X010683Y021932D01*
X010684Y021931D02*
X011173Y021931D01*
X011173Y021970D01*
X011161Y022046D01*
X011137Y022119D01*
X011102Y022188D01*
X011057Y022250D01*
X011002Y022305D01*
X010940Y022350D01*
X010871Y022385D01*
X010798Y022409D01*
X010722Y022421D01*
X010683Y022421D01*
X012183Y022921D02*
X012183Y025866D01*
X012117Y025931D02*
X009923Y025931D01*
X009443Y025931D02*
X006335Y025931D01*
X006767Y026281D02*
X006533Y026516D01*
X006533Y026681D01*
X006933Y026681D01*
X006933Y026681D01*
X006933Y026281D01*
X006767Y026281D01*
X006933Y026281D02*
X007099Y026281D01*
X007333Y026516D01*
X007333Y026681D01*
X006934Y026681D01*
X006934Y026681D01*
X007333Y026681D01*
X007333Y026847D01*
X007099Y027081D01*
X006933Y027081D01*
X006767Y027081D01*
X006533Y026847D01*
X006533Y026681D01*
X006933Y026681D01*
X006933Y026681D01*
X006933Y026281D01*
X006933Y026431D02*
X006933Y026431D01*
X006933Y026682D02*
X006933Y027081D01*
X006933Y026682D01*
X006933Y026682D01*
X006933Y026931D02*
X006933Y026931D01*
X006683Y026681D02*
X006683Y026681D01*
X007183Y026681D02*
X007183Y026681D01*
X006183Y027771D02*
X006183Y027817D01*
X006287Y027931D02*
X006344Y027931D01*
X007249Y028431D02*
X014848Y028431D01*
X015431Y028431D02*
X015636Y028431D01*
X015683Y028387D02*
X015683Y023345D01*
X014683Y022921D02*
X014683Y030101D01*
X014843Y030431D02*
X015023Y030431D01*
X015183Y030761D02*
X015183Y031151D01*
X014683Y031151D02*
X014683Y030761D01*
X014183Y030761D02*
X014183Y031151D01*
X013683Y031151D02*
X013683Y030761D01*
X013183Y030761D02*
X013183Y031151D01*
X015683Y031151D02*
X015683Y030761D01*
X015843Y030431D02*
X016023Y030431D01*
X016183Y030761D02*
X016183Y031151D01*
X016683Y031151D02*
X016683Y030761D01*
X016843Y030431D02*
X017023Y030431D01*
X017183Y030761D02*
X017183Y031151D01*
X017683Y031151D02*
X017683Y030761D01*
X017843Y030431D02*
X018023Y030431D01*
X018183Y030761D02*
X018183Y031151D01*
X018683Y031151D02*
X018683Y030761D01*
X018843Y030431D02*
X020023Y030431D01*
X020183Y030761D02*
X020183Y031151D01*
X020683Y031151D02*
X020683Y030761D01*
X020843Y030431D02*
X021433Y030431D01*
X021023Y030431D01*
X021433Y030431D01*
X021433Y030431D01*
X021433Y030432D02*
X021433Y030841D01*
X021433Y030432D01*
X021433Y030432D01*
X021434Y030431D02*
X021843Y030431D01*
X021683Y030431D02*
X021683Y030431D01*
X021683Y030761D02*
X021683Y031151D01*
X021183Y031151D02*
X021183Y030761D01*
X021183Y030431D02*
X021183Y030431D01*
X020933Y029681D02*
X022183Y029681D01*
X024433Y027431D01*
X024433Y025681D01*
X024344Y025431D02*
X024311Y025431D01*
X024183Y025146D02*
X024183Y019181D01*
X023683Y019181D02*
X023683Y025146D01*
X025023Y025431D02*
X028094Y025431D01*
X028183Y025342D02*
X028183Y024421D01*
X027683Y024421D02*
X027683Y025842D01*
X027594Y025931D02*
X025583Y025931D01*
X025183Y025531D02*
X025183Y025271D01*
X027683Y026521D02*
X027683Y031151D01*
X027181Y030431D02*
X028685Y030431D01*
X028683Y030427D02*
X028683Y030216D01*
X028854Y029931D02*
X027013Y029931D01*
X026683Y029791D02*
X026683Y029071D01*
X026673Y028931D02*
X026633Y028931D01*
X026294Y028931D02*
X025273Y028931D01*
X025183Y029021D02*
X025183Y030101D01*
X025023Y030431D02*
X024843Y030431D01*
X024683Y030101D02*
X024683Y029521D01*
X024773Y029431D02*
X030353Y029431D01*
X030683Y029681D02*
X030683Y028681D01*
X029183Y027181D01*
X029183Y027581D02*
X029183Y028011D01*
X029594Y027931D02*
X026273Y027931D01*
X026183Y028021D02*
X026183Y028296D01*
X026633Y028431D02*
X026673Y028431D01*
X026683Y028521D02*
X026683Y028561D01*
X027172Y028431D02*
X028685Y028431D01*
X028683Y028436D02*
X028683Y028647D01*
X028854Y028931D02*
X027013Y028931D01*
X026683Y028011D02*
X026683Y027521D01*
X026773Y027431D02*
X028868Y027431D01*
X029499Y026931D02*
X029844Y026931D01*
X029683Y026771D02*
X029683Y027342D01*
X029773Y027431D02*
X030344Y027431D01*
X030183Y027271D02*
X030183Y027842D01*
X030273Y027931D02*
X030844Y027931D01*
X030683Y027771D02*
X030683Y028342D01*
X030773Y028431D02*
X031344Y028431D01*
X031183Y028271D02*
X031183Y031151D01*
X030683Y031151D02*
X030683Y030091D01*
X030353Y029931D02*
X029573Y029931D01*
X029683Y030071D02*
X029683Y028791D01*
X029573Y028931D02*
X030443Y028931D01*
X030923Y028931D02*
X031844Y028931D01*
X031683Y028771D02*
X031683Y029681D01*
X031683Y029681D01*
X031683Y029271D01*
X031513Y029271D01*
X031273Y029511D01*
X031273Y029681D01*
X031683Y029681D01*
X031683Y029681D01*
X031683Y029271D01*
X031853Y029271D01*
X032093Y029511D01*
X032093Y029681D01*
X031684Y029681D01*
X031684Y029681D01*
X032093Y029681D01*
X032093Y029851D01*
X031853Y030091D01*
X031683Y030091D01*
X031513Y030091D01*
X031273Y029851D01*
X031273Y029681D01*
X031683Y029681D01*
X031683Y029682D02*
X031683Y031151D01*
X032183Y031151D02*
X032183Y029271D01*
X032344Y029431D02*
X032013Y029431D01*
X031683Y029431D02*
X031683Y029431D01*
X031683Y029682D02*
X031683Y030091D01*
X031683Y029682D01*
X031683Y029682D01*
X031683Y029931D02*
X031683Y029931D01*
X031353Y029931D02*
X031013Y029931D01*
X031013Y029431D02*
X031353Y029431D01*
X032013Y029931D02*
X032603Y029931D01*
X032683Y030011D02*
X032683Y031151D01*
X034263Y029931D02*
X034903Y029931D01*
X035064Y030431D02*
X029741Y030431D01*
X029683Y030571D02*
X029683Y031151D01*
X029183Y031151D02*
X029183Y030851D01*
X030183Y031151D02*
X030183Y028521D01*
X030094Y028431D02*
X029741Y028431D01*
X029683Y028291D02*
X029683Y028021D01*
X029183Y029071D02*
X029183Y029791D01*
X030819Y028478D02*
X030819Y028478D01*
X029344Y026431D02*
X027773Y026431D01*
X030683Y024842D02*
X030683Y019181D01*
X030499Y019431D02*
X031868Y019431D01*
X031683Y019181D02*
X031683Y025691D01*
X030773Y024931D02*
X040933Y024931D01*
X041183Y024523D02*
X041183Y019181D01*
X041683Y019181D02*
X041683Y024476D01*
X042183Y024523D02*
X042183Y019181D01*
X041683Y018681D02*
X041683Y017932D01*
X041683Y018331D01*
X041517Y018331D01*
X041683Y018331D02*
X041849Y018331D01*
X042083Y018097D01*
X042083Y017931D01*
X041684Y017931D01*
X041683Y017932D02*
X041683Y017932D01*
X041683Y018331D01*
X040183Y019181D02*
X040183Y025691D01*
X039683Y025691D02*
X039683Y019181D01*
X039183Y019181D02*
X039183Y025691D01*
X038683Y025691D02*
X038683Y019181D01*
X038183Y019181D02*
X038183Y025691D01*
X037683Y025691D02*
X037683Y019181D01*
X037183Y019181D02*
X037183Y025691D01*
X036183Y026171D02*
X036183Y028841D01*
X036064Y028931D02*
X035803Y028931D01*
X035683Y028841D02*
X035683Y028247D01*
X035183Y028247D02*
X035183Y028841D01*
X034183Y029681D02*
X034183Y029681D01*
X033933Y029431D02*
X033933Y029431D01*
X035183Y030521D02*
X035183Y031151D01*
X035683Y031151D02*
X035683Y030521D01*
X035803Y030431D02*
X036064Y030431D01*
X036183Y030521D02*
X036183Y031151D01*
X036683Y031151D02*
X036683Y030521D01*
X036803Y030431D02*
X037064Y030431D01*
X037183Y030521D02*
X037183Y031151D01*
X037683Y031151D02*
X037683Y030521D01*
X037803Y030431D02*
X038064Y030431D01*
X038183Y030521D02*
X038183Y031151D01*
X038683Y031151D02*
X038683Y030521D01*
X038803Y030431D02*
X039064Y030431D01*
X039183Y030519D02*
X039183Y031151D01*
X039683Y031151D02*
X039683Y030519D01*
X039803Y030431D02*
X040064Y030431D01*
X040183Y030519D02*
X040183Y031151D01*
X040413Y030431D02*
X040453Y030431D01*
X040453Y029931D02*
X040413Y029931D01*
X039683Y029701D02*
X039683Y029661D01*
X039453Y029431D02*
X039413Y029431D01*
X039413Y028931D02*
X039453Y028931D01*
X039413Y029931D02*
X039453Y029931D01*
X039453Y030431D02*
X039413Y030431D01*
X037433Y029681D02*
X037433Y027181D01*
X042183Y026523D02*
X042183Y026339D01*
X044903Y023931D02*
X016948Y023931D01*
X017183Y024167D02*
X017183Y020404D01*
X017211Y020431D02*
X017006Y020431D01*
X019183Y019668D02*
X019183Y019181D01*
X019683Y019181D02*
X019683Y019699D01*
X020183Y019797D02*
X020183Y019181D01*
X020683Y019181D02*
X020683Y019660D01*
X021183Y019734D02*
X021183Y019181D01*
X021683Y019181D02*
X021683Y019725D01*
X022183Y019660D02*
X022183Y019181D01*
X020933Y016931D02*
X020933Y016931D01*
X020183Y016775D02*
X020183Y015907D01*
X020183Y015267D02*
X020183Y015087D01*
X019683Y015087D02*
X019683Y015267D01*
X019521Y014931D02*
X019345Y014931D01*
X019183Y015087D02*
X019183Y015267D01*
X018683Y015267D02*
X018683Y015087D01*
X018521Y014931D02*
X018112Y014931D01*
X018183Y014751D02*
X018183Y015267D01*
X018183Y014111D02*
X018183Y013751D01*
X018083Y013766D02*
X018083Y013931D01*
X017684Y013931D01*
X017684Y013931D01*
X018521Y013931D01*
X018526Y013919D02*
X018661Y013784D01*
X018741Y013751D01*
X018069Y013751D01*
X018083Y013766D01*
X018083Y013931D02*
X017684Y013931D01*
X018083Y013931D02*
X018083Y014097D01*
X018069Y014111D01*
X018453Y014111D01*
X018453Y014096D01*
X018526Y013919D01*
X018683Y013775D02*
X018683Y013751D01*
X017683Y012611D02*
X017683Y011874D01*
X017183Y011874D02*
X017183Y012611D01*
X016731Y012931D02*
X016362Y012931D01*
X016183Y013110D02*
X016183Y013111D01*
X015683Y013110D02*
X015683Y013111D01*
X015504Y012931D02*
X015386Y012931D01*
X015183Y012729D02*
X015183Y011874D01*
X014683Y011874D02*
X014683Y012229D01*
X014886Y012431D02*
X015504Y012431D01*
X015683Y012252D02*
X015683Y011874D01*
X014943Y011431D02*
X014923Y011431D01*
X013943Y011431D02*
X013923Y011431D01*
X012183Y011251D02*
X012183Y011861D01*
X011683Y011681D02*
X011683Y011681D01*
X010683Y011611D02*
X010683Y011251D01*
X010683Y008479D02*
X010683Y008247D01*
X010636Y008431D02*
X011231Y008431D01*
X011183Y008479D02*
X011183Y008247D01*
X010933Y008331D02*
X010933Y007932D01*
X010933Y008331D01*
X010933Y007932D02*
X010933Y007932D01*
X010934Y007931D02*
X011333Y007931D01*
X011183Y007931D02*
X011183Y007931D01*
X011333Y007766D02*
X011099Y007531D01*
X010933Y007531D01*
X010933Y007931D01*
X010683Y007931D02*
X010683Y007931D01*
X010683Y007616D02*
X010683Y006381D01*
X011183Y006137D02*
X011183Y007616D01*
X011683Y008360D02*
X011683Y008361D01*
X012183Y008360D02*
X012183Y008361D01*
X012683Y008361D02*
X012683Y007360D01*
X013183Y007360D02*
X013183Y008361D01*
X013683Y008361D02*
X013683Y005251D01*
X014183Y005251D02*
X014183Y008361D01*
X014683Y008361D02*
X014683Y007360D01*
X015183Y007360D02*
X015183Y008361D01*
X015683Y007931D02*
X015683Y007931D01*
X015683Y007616D02*
X015683Y006381D01*
X015183Y004611D02*
X015183Y002903D01*
X015183Y002580D02*
X015183Y000711D01*
X014683Y000711D02*
X014683Y004611D01*
X018955Y001931D02*
X019071Y001931D01*
X018683Y001519D02*
X018683Y001403D01*
X013683Y001403D02*
X013683Y001519D01*
X010183Y000711D02*
X010183Y002580D01*
X010183Y002903D02*
X010183Y004611D01*
X009683Y004611D02*
X009683Y000711D01*
X008683Y001403D02*
X008683Y001519D01*
X017683Y010001D02*
X017683Y010988D01*
X017183Y010988D02*
X017183Y010860D01*
X016683Y010860D02*
X016683Y010988D01*
X016923Y011431D02*
X016943Y011431D01*
X016683Y011874D02*
X016683Y012979D01*
X019183Y010988D02*
X019183Y010001D01*
X019683Y010001D02*
X019683Y010988D01*
X019923Y011431D02*
X019943Y011431D01*
X020433Y011431D02*
X020433Y012931D01*
X021183Y012252D02*
X021183Y010860D01*
X021413Y010431D02*
X021453Y010431D01*
X021683Y010002D02*
X021683Y010001D01*
X021183Y010001D02*
X021183Y010002D01*
X020683Y010001D02*
X020683Y010002D01*
X020183Y010001D02*
X020183Y010988D01*
X020753Y011931D02*
X022231Y011931D01*
X022183Y011921D02*
X022183Y011979D01*
X022113Y012431D02*
X021362Y012431D01*
X023503Y013067D02*
X023503Y013299D01*
X023614Y013410D01*
X023704Y013500D01*
X023753Y013617D01*
X023753Y013746D01*
X023838Y013711D01*
X024011Y013711D01*
X023912Y013612D01*
X023863Y013495D01*
X023863Y013367D01*
X023863Y013067D01*
X023849Y013081D01*
X023683Y013081D01*
X023517Y013081D01*
X023503Y013067D01*
X023683Y013081D02*
X023683Y012682D01*
X023683Y013479D01*
X023636Y013431D02*
X023863Y013431D01*
X024183Y013431D02*
X024433Y013681D01*
X024183Y013431D02*
X024183Y011431D01*
X023683Y012682D02*
X023683Y012682D01*
X023683Y013081D01*
X023683Y012931D02*
X023683Y012931D01*
X030253Y017931D02*
X032703Y017931D01*
X032183Y019581D02*
X032183Y020031D01*
X031783Y020431D02*
X030583Y020431D01*
X030183Y020031D02*
X030183Y019581D01*
X029868Y019431D02*
X029523Y019431D01*
X029683Y019271D02*
X029683Y023941D01*
X036683Y018681D02*
X036683Y018634D01*
X039886Y016931D02*
X041254Y016931D01*
X042112Y016431D02*
X042702Y016431D01*
X044360Y015431D02*
X044903Y015431D01*
X044469Y015522D02*
X044647Y015830D01*
X044469Y015522D02*
X044469Y015522D01*
X044183Y015288D02*
X044183Y001043D01*
X044903Y002931D02*
X041531Y002931D01*
X041183Y002127D02*
X041183Y000711D01*
X040683Y000711D02*
X040683Y002069D01*
X039613Y005931D02*
X036301Y005931D01*
X037683Y007360D02*
X037683Y008361D01*
X037183Y008360D02*
X037183Y008361D01*
X036683Y008360D02*
X036683Y008361D01*
X038183Y008361D02*
X038183Y007360D01*
X039683Y007360D02*
X039683Y008361D01*
X040183Y008361D02*
X040183Y007360D01*
X040683Y007931D02*
X040683Y007931D01*
X041183Y007931D02*
X041183Y007931D01*
X040183Y010126D02*
X040183Y011002D01*
X039683Y011002D02*
X039683Y010126D01*
X038183Y010126D02*
X038183Y011116D01*
X038183Y011431D02*
X038183Y011431D01*
X038333Y011431D02*
X038333Y011597D01*
X038099Y011831D01*
X037933Y011831D01*
X037933Y011432D01*
X037933Y011432D01*
X037934Y011431D02*
X038333Y011431D01*
X038183Y011747D02*
X038183Y012861D01*
X037683Y012681D02*
X037683Y012681D01*
X037433Y012431D02*
X037433Y012431D01*
X037183Y012366D02*
X037183Y010860D01*
X041003Y011931D02*
X044903Y011931D01*
X044903Y012431D02*
X041003Y012431D01*
X041003Y012931D02*
X044903Y012931D01*
X044903Y013431D02*
X041003Y013431D01*
X042003Y010431D02*
X044903Y010431D01*
X030183Y006502D02*
X030183Y006197D01*
X030006Y005931D02*
X026301Y005931D01*
X025683Y002069D02*
X025683Y000711D01*
X023683Y001403D02*
X023683Y001519D01*
X016433Y015181D02*
X015683Y015931D01*
X013683Y015931D01*
X013371Y017494D02*
X016121Y017494D01*
X013371Y017494D02*
X012683Y018181D01*
X011433Y018181D01*
X013183Y022921D02*
X013183Y022941D01*
X013183Y023941D02*
X013183Y024431D01*
X012693Y024431D01*
X013183Y024431D01*
X013183Y024431D01*
X009923Y024431D01*
X009443Y024431D02*
X008999Y024431D01*
X008683Y024281D02*
X008683Y023831D01*
X008999Y024931D02*
X009443Y024931D01*
X009923Y024931D02*
X017269Y024931D01*
X017183Y024845D02*
X017183Y028459D01*
X017210Y028431D02*
X017006Y028431D01*
X014732Y028931D02*
X007249Y028931D01*
X007183Y028997D02*
X007183Y031151D01*
X006683Y031151D02*
X006683Y028997D01*
X006618Y028931D02*
X000963Y028931D01*
X000963Y029431D02*
X000974Y029624D01*
X001060Y029999D01*
X001227Y030346D01*
X001044Y029931D02*
X019094Y029931D01*
X019183Y030021D02*
X019183Y031151D01*
X019683Y031151D02*
X019683Y030171D01*
X020652Y029400D02*
X020933Y029681D01*
X020652Y029400D02*
X020652Y028762D01*
X020360Y028431D02*
X020156Y028431D01*
X020183Y028459D02*
X020183Y027845D01*
X016833Y026347D02*
X016833Y026016D01*
X016599Y025781D01*
X016267Y025781D01*
X016033Y026016D01*
X016033Y026347D01*
X016267Y026581D01*
X016599Y026581D01*
X016833Y026347D01*
X013602Y024688D02*
X013557Y024750D01*
X013502Y024805D01*
X013440Y024850D01*
X013371Y024885D01*
X013298Y024909D01*
X013222Y024921D01*
X013183Y024921D01*
X013183Y024432D01*
X013183Y024432D01*
X013184Y024431D02*
X013673Y024431D01*
X013673Y024470D01*
X013661Y024546D01*
X013637Y024619D01*
X013602Y024688D01*
X012599Y025781D02*
X012833Y026016D01*
X012833Y026181D01*
X012434Y026181D01*
X012434Y026181D01*
X012833Y026181D01*
X012833Y026347D01*
X012599Y026581D01*
X012433Y026581D01*
X012267Y026581D01*
X012033Y026347D01*
X012033Y026181D01*
X012033Y026016D01*
X012267Y025781D01*
X012433Y025781D01*
X012433Y026181D01*
X012433Y026181D01*
X012033Y026181D01*
X012433Y026181D01*
X012433Y026181D01*
X012433Y025781D01*
X012599Y025781D01*
X012433Y025931D02*
X012433Y025931D01*
X012433Y026182D02*
X012433Y026581D01*
X012433Y026182D01*
X012433Y026182D01*
X012433Y026431D02*
X012433Y026431D01*
X012183Y026181D02*
X012183Y026181D01*
X012683Y026181D02*
X012683Y026181D01*
X008683Y025081D02*
X008683Y031151D01*
X003683Y026948D02*
X003683Y026911D01*
X002183Y018488D02*
X002183Y018374D01*
X001683Y018374D02*
X001683Y018488D01*
X024183Y030761D02*
X024183Y031151D01*
X024683Y031151D02*
X024683Y030761D01*
X025183Y030761D02*
X025183Y031151D01*
X025683Y031151D02*
X025683Y030761D01*
D22*
X009683Y023181D03*
X008683Y019681D03*
X011433Y018181D03*
X013683Y015931D03*
X016433Y015181D03*
X017652Y015962D03*
X026808Y015056D03*
X028808Y014556D03*
X029933Y015931D03*
X032183Y015931D03*
X035433Y013931D03*
X035683Y017931D03*
X035183Y018431D03*
X001558Y011556D03*
D23*
X009183Y020931D03*
X023933Y025431D03*
X029183Y024681D03*
M02*
