%
M48
M72
T01C0.0197
T02C0.0236
T03C0.0276
T04C0.0315
T05C0.0320
T06C0.0394
T07C0.0400
T08C0.0551
T09C0.1300
%
T01
X1558Y11556
X11433Y18181
X8683Y19681
X9683Y23181
X13683Y15931
X16433Y15181
X17652Y15962
X26808Y15056
X28808Y14556
X29933Y15931
X32183Y15931
X35433Y13931
X35683Y17931
X35183Y18431
T02
X29183Y24681
X23933Y25431
X9183Y20931
T03
X15140Y20100
X15927Y20100
X16715Y20100
X17502Y20100
X18289Y20100
X19077Y20100
X19864Y20100
X20652Y20100
X21439Y20100
X22226Y20100
X22226Y28762
X21439Y28762
X20652Y28762
X19864Y28762
X19077Y28762
X18289Y28762
X17502Y28762
X16715Y28762
X15927Y28762
X15140Y28762
T04
X15433Y30431
X14433Y30431
X13433Y30431
X16433Y30431
X17433Y30431
X18433Y30431
X20433Y30431
X21433Y30431
X22433Y30431
X23433Y30431
X24433Y30431
X25433Y30431
X30683Y29681
X31683Y29681
X32933Y29681
X33933Y29681
X13183Y24431
X13183Y23431
X10683Y21931
X10683Y20931
X1933Y20931
X1933Y19931
X1933Y18931
X1933Y17931
X1933Y16931
X1933Y15931
X1933Y21931
X1933Y22931
X1933Y23931
X1933Y24931
X13433Y11431
X14433Y11431
X15433Y11431
X16433Y11431
X17433Y11431
X18433Y11431
X19433Y11431
X20433Y11431
X22183Y11431
X23183Y11431
X24183Y11431
X25183Y11431
X26183Y11431
X27183Y11431
X28183Y11431
X29183Y11431
T05
X28933Y12681
X29183Y13931
X29183Y15181
X29183Y16681
X28433Y17431
X27683Y17931
X27683Y16931
X29183Y17931
X30183Y19181
X28933Y19681
X30183Y20431
X32183Y20431
X32183Y19181
X33183Y17931
X33183Y16681
X33183Y15181
X33183Y13931
X30933Y12681
X32933Y11431
X31933Y10431
X30933Y10431
X30933Y9181
X31933Y9181
X31933Y7931
X30933Y7931
X29933Y6931
X27933Y6931
X26933Y7931
X25933Y7931
X24933Y6931
X22933Y6931
X21933Y7931
X20933Y7931
X19933Y6931
X17933Y6931
X16933Y7931
X15933Y7931
X14933Y6931
X12933Y6931
X11933Y7931
X10933Y7931
X9933Y6931
X7933Y6931
X6933Y7931
X5933Y7931
X4933Y6931
X2933Y6931
X1933Y7931
X1933Y9181
X1933Y10431
X2933Y11431
X4933Y11431
X5933Y10431
X6933Y10431
X7933Y11431
X9933Y11431
X10933Y10431
X11933Y10431
X11933Y9181
X10933Y9181
X11433Y11681
X11433Y13681
X9183Y13931
X9183Y15181
X9183Y16681
X9183Y17931
X7933Y19681
X7933Y20931
X8683Y22181
X8683Y23431
X8683Y24681
X6933Y26681
X6933Y28681
X12433Y27431
X12433Y26181
X16433Y26181
X16433Y27431
X25183Y27181
X25183Y25931
X29183Y25931
X29183Y27181
X33433Y27931
X35433Y27931
X24933Y19681
X24933Y17431
X23933Y17431
X22933Y17431
X21933Y17431
X20933Y17431
X19933Y17431
X18933Y17431
X17683Y17931
X17683Y16681
X17683Y15181
X18933Y14431
X19933Y14431
X20933Y14431
X21933Y14431
X22933Y14431
X23933Y14431
X24933Y14431
X25933Y14431
X25683Y12681
X23683Y12681
X20933Y12681
X18933Y12681
X17683Y13931
X15933Y12681
X13933Y12681
X13683Y13931
X13683Y15181
X13683Y16681
X13683Y17931
X5183Y17931
X5183Y16681
X5183Y15181
X5183Y13931
X5933Y9181
X6933Y9181
X15933Y9181
X16933Y9181
X16933Y10431
X15933Y10431
X20933Y10431
X21933Y10431
X21933Y9181
X20933Y9181
X25933Y9181
X26933Y9181
X26933Y10431
X25933Y10431
X32933Y6931
X34933Y6931
X35933Y7931
X36933Y7931
X37933Y6931
X39933Y6931
X40933Y7931
X40933Y9181
X40933Y10431
X39933Y11431
X39433Y12681
X37933Y11431
X36933Y10431
X35933Y10431
X34933Y11431
X37433Y12681
X37683Y13931
X37683Y15181
X37683Y16681
X37683Y17931
X41683Y17931
X41683Y16681
X41683Y15181
X41683Y13931
X36933Y9181
X35933Y9181
X25933Y17431
X4683Y22181
X4683Y23431
X4683Y24681
X3933Y20931
X3933Y19681
T06
X5417Y25748
X3449Y26929
X5417Y28228
X41683Y27931
X41683Y26931
X41683Y25931
X41683Y24931
T07
X40433Y29681
X39433Y29681
X38433Y29681
X37433Y29681
X36433Y29681
X35433Y29681
X29213Y30321
X26653Y30321
X26653Y28541
X29213Y28541
T08
X4013Y1461
X5863Y2741
X7993Y4001
X7003Y4551
X5653Y5691
X2993Y4001
X2003Y4551
X9013Y1461
X10863Y2741
X12993Y4001
X12003Y4551
X10653Y5691
X15653Y5691
X17003Y4551
X17993Y4001
X15863Y2741
X14013Y1461
X19013Y1461
X20863Y2741
X22993Y4001
X22003Y4551
X20653Y5691
X25653Y5691
X27003Y4551
X27993Y4001
X25863Y2741
X24013Y1461
X29013Y1461
X30863Y2741
X32993Y4001
X32003Y4551
X30653Y5691
X35653Y5691
X37003Y4551
X37993Y4001
X35863Y2741
X34013Y1461
X39013Y1461
X40863Y2741
X40653Y5691
T09
X43683Y16181
X2283Y13931
M30
