%
M48
M72
T01C0.0197
T02C0.0236
T03C0.0276
T04C0.0315
T05C0.0320
T06C0.0394
T07C0.0400
T08C0.0551
T09C0.1300
%
T01
X2314Y14066
X12189Y20691
X9439Y22191
X10439Y25691
X14439Y18441
X17189Y17691
X18408Y18472
X27564Y17566
X29564Y17066
X30689Y18441
X32939Y18441
X36189Y16441
X36439Y20441
X35939Y20941
T02
X29939Y27191
X24689Y27941
X9939Y23441
T03
X15896Y22610
X16683Y22610
X17471Y22610
X18258Y22610
X19045Y22610
X19833Y22610
X20620Y22610
X21408Y22610
X22195Y22610
X22982Y22610
X22982Y31271
X22195Y31271
X21408Y31271
X20620Y31271
X19833Y31271
X19045Y31271
X18258Y31271
X17471Y31271
X16683Y31271
X15896Y31271
T04
X16189Y32941
X15189Y32941
X14189Y32941
X17189Y32941
X18189Y32941
X19189Y32941
X21189Y32941
X22189Y32941
X23189Y32941
X24189Y32941
X25189Y32941
X26189Y32941
X31439Y32191
X32439Y32191
X33689Y32191
X34689Y32191
X13939Y26941
X13939Y25941
X11439Y24441
X11439Y23441
X2689Y23441
X2689Y24441
X2689Y25441
X2689Y26441
X2689Y27441
X2689Y22441
X2689Y21441
X2689Y20441
X2689Y19441
X2689Y18441
X14189Y13941
X15189Y13941
X16189Y13941
X17189Y13941
X18189Y13941
X19189Y13941
X20189Y13941
X21189Y13941
X22939Y13941
X23939Y13941
X24939Y13941
X25939Y13941
X26939Y13941
X27939Y13941
X28939Y13941
X29939Y13941
T05
X29689Y15191
X29939Y16441
X29939Y17691
X29939Y19191
X29189Y19941
X28439Y20441
X28439Y19441
X29939Y20441
X30939Y21691
X29689Y22191
X30939Y22941
X32939Y22941
X32939Y21691
X33939Y20441
X33939Y19191
X33939Y17691
X33939Y16441
X31689Y15191
X33689Y13941
X32689Y12941
X31689Y12941
X31689Y11691
X32689Y11691
X32689Y10441
X31689Y10441
X30689Y9441
X28689Y9441
X27689Y10441
X26689Y10441
X26689Y11691
X27689Y11691
X27689Y12941
X26689Y12941
X26439Y15191
X24439Y15191
X24689Y16941
X23689Y16941
X22689Y16941
X21689Y16941
X20689Y16941
X19689Y16941
X18439Y16441
X18439Y17691
X18439Y19191
X19689Y19941
X20689Y19941
X21689Y19941
X22689Y19941
X23689Y19941
X24689Y19941
X25689Y19941
X26689Y19941
X25689Y22191
X18439Y20441
X14439Y20441
X14439Y19191
X14439Y17691
X14439Y16441
X14689Y15191
X16689Y15191
X16689Y12941
X17689Y12941
X17689Y11691
X16689Y11691
X16689Y10441
X17689Y10441
X18689Y9441
X20689Y9441
X21689Y10441
X22689Y10441
X22689Y11691
X21689Y11691
X21689Y12941
X22689Y12941
X21689Y15191
X19689Y15191
X25689Y16941
X26689Y16941
X35689Y13941
X36689Y12941
X37689Y12941
X38689Y13941
X38189Y15191
X38439Y16441
X38439Y17691
X38439Y19191
X38439Y20441
X42439Y20441
X42439Y19191
X42439Y17691
X42439Y16441
X40189Y15191
X40689Y13941
X41689Y12941
X41689Y11691
X41689Y10441
X40689Y9441
X38689Y9441
X37689Y10441
X36689Y10441
X36689Y11691
X37689Y11691
X35689Y9441
X33689Y9441
X25689Y9441
X23689Y9441
X15689Y9441
X13689Y9441
X12689Y10441
X11689Y10441
X11689Y11691
X12689Y11691
X12689Y12941
X11689Y12941
X12189Y14191
X10689Y13941
X8689Y13941
X7689Y12941
X6689Y12941
X5689Y13941
X3689Y13941
X2689Y12941
X2689Y11691
X2689Y10441
X3689Y9441
X5689Y9441
X6689Y10441
X7689Y10441
X7689Y11691
X6689Y11691
X8689Y9441
X10689Y9441
X12189Y16191
X9939Y16441
X9939Y17691
X9939Y19191
X9939Y20441
X8689Y22191
X8689Y23441
X9439Y24691
X9439Y25941
X9439Y27191
X7939Y27941
X5439Y27191
X5439Y25941
X5439Y24691
X4689Y23441
X4689Y22191
X5939Y20441
X5939Y19191
X5939Y17691
X5939Y16441
X13189Y28691
X13189Y29941
X17189Y29941
X17189Y28691
X25939Y28441
X25939Y29691
X29939Y29691
X29939Y28441
X34189Y30441
X36189Y30441
X7939Y29941
T06
X7122Y31175
X4642Y31175
X5941Y29207
X42439Y29441
X42439Y30441
X42439Y28441
X42439Y27441
T07
X41189Y32191
X40189Y32191
X39189Y32191
X38189Y32191
X37189Y32191
X36189Y32191
X29969Y32831
X29969Y31051
X27409Y31051
X27409Y32831
T08
X4769Y3971
X6619Y5251
X8749Y6511
X7759Y7061
X6409Y8201
X3749Y6511
X2759Y7061
X9769Y3971
X11619Y5251
X12759Y7061
X13749Y6511
X11409Y8201
X16409Y8201
X17759Y7061
X18749Y6511
X16619Y5251
X14769Y3971
X19769Y3971
X21619Y5251
X23749Y6511
X22759Y7061
X21409Y8201
X26409Y8201
X27759Y7061
X28749Y6511
X26619Y5251
X24769Y3971
X29769Y3971
X31619Y5251
X33749Y6511
X32759Y7061
X31409Y8201
X36409Y8201
X37759Y7061
X38749Y6511
X36619Y5251
X34769Y3971
X39769Y3971
X41619Y5251
X41409Y8201
T09
X44439Y18691
X3039Y16441
M30
