G75*
G70*
%OFA0B0*%
%FSLAX24Y24*%
%IPPOS*%
%LPD*%
%AMOC8*
5,1,8,0,0,1.08239X$1,22.5*
%
%ADD10C,0.0000*%
D10*
X004752Y026500D02*
X005618Y026500D01*
X005815Y026697D02*
X005813Y026723D01*
X005808Y026748D01*
X005800Y026772D01*
X005789Y026795D01*
X005774Y026817D01*
X005757Y026836D01*
X005738Y026853D01*
X005717Y026868D01*
X005693Y026879D01*
X005669Y026887D01*
X005644Y026892D01*
X005618Y026894D01*
X004752Y026894D01*
X004726Y026892D01*
X004701Y026887D01*
X004677Y026879D01*
X004653Y026868D01*
X004632Y026853D01*
X004613Y026836D01*
X004596Y026817D01*
X004581Y026796D01*
X004570Y026772D01*
X004562Y026748D01*
X004557Y026723D01*
X004555Y026697D01*
X004557Y026671D01*
X004562Y026646D01*
X004570Y026622D01*
X004581Y026599D01*
X004596Y026577D01*
X004613Y026558D01*
X004632Y026541D01*
X004653Y026526D01*
X004677Y026515D01*
X004701Y026507D01*
X004726Y026502D01*
X004752Y026500D01*
X005618Y026500D02*
X005644Y026502D01*
X005669Y026507D01*
X005693Y026515D01*
X005716Y026526D01*
X005738Y026541D01*
X005757Y026558D01*
X005774Y026577D01*
X005789Y026598D01*
X005800Y026622D01*
X005808Y026646D01*
X005813Y026671D01*
X005815Y026697D01*
X006366Y028036D02*
X006366Y029295D01*
X006366Y029296D02*
X006340Y029294D01*
X006315Y029289D01*
X006291Y029281D01*
X006267Y029270D01*
X006246Y029255D01*
X006227Y029238D01*
X006210Y029219D01*
X006195Y029198D01*
X006184Y029174D01*
X006176Y029150D01*
X006171Y029125D01*
X006169Y029099D01*
X006169Y028232D01*
X006171Y028206D01*
X006176Y028181D01*
X006184Y028157D01*
X006195Y028134D01*
X006210Y028112D01*
X006227Y028093D01*
X006246Y028076D01*
X006267Y028061D01*
X006291Y028050D01*
X006315Y028042D01*
X006340Y028037D01*
X006366Y028035D01*
X006392Y028037D01*
X006417Y028042D01*
X006441Y028050D01*
X006464Y028061D01*
X006486Y028076D01*
X006505Y028093D01*
X006522Y028112D01*
X006537Y028133D01*
X006548Y028157D01*
X006556Y028181D01*
X006561Y028206D01*
X006563Y028232D01*
X006563Y029099D01*
X006561Y029125D01*
X006556Y029150D01*
X006548Y029174D01*
X006537Y029197D01*
X006522Y029219D01*
X006505Y029238D01*
X006486Y029255D01*
X006465Y029270D01*
X006441Y029281D01*
X006417Y029289D01*
X006392Y029294D01*
X006366Y029296D01*
X004083Y029099D02*
X004083Y028232D01*
X003886Y028035D02*
X003860Y028037D01*
X003835Y028042D01*
X003811Y028050D01*
X003787Y028061D01*
X003766Y028076D01*
X003747Y028093D01*
X003730Y028112D01*
X003715Y028134D01*
X003704Y028157D01*
X003696Y028181D01*
X003691Y028206D01*
X003689Y028232D01*
X003689Y029099D01*
X003691Y029125D01*
X003696Y029150D01*
X003704Y029174D01*
X003715Y029198D01*
X003730Y029219D01*
X003747Y029238D01*
X003766Y029255D01*
X003787Y029270D01*
X003811Y029281D01*
X003835Y029289D01*
X003860Y029294D01*
X003886Y029296D01*
X003912Y029294D01*
X003937Y029289D01*
X003961Y029281D01*
X003985Y029270D01*
X004006Y029255D01*
X004025Y029238D01*
X004042Y029219D01*
X004057Y029197D01*
X004068Y029174D01*
X004076Y029150D01*
X004081Y029125D01*
X004083Y029099D01*
X004083Y028232D02*
X004081Y028206D01*
X004076Y028181D01*
X004068Y028157D01*
X004057Y028133D01*
X004042Y028112D01*
X004025Y028093D01*
X004006Y028076D01*
X003984Y028061D01*
X003961Y028050D01*
X003937Y028042D01*
X003912Y028037D01*
X003886Y028035D01*
M02*
