G75*
G70*
%OFA0B0*%
%FSLAX24Y24*%
%IPPOS*%
%LPD*%
%AMOC8*
5,1,8,0,0,1.08239X$1,22.5*
%
%ADD10C,0.0900*%
%ADD11C,0.1000*%
%ADD12C,0.0740*%
%ADD13OC8,0.0480*%
%ADD14OC8,0.0500*%
%ADD15C,0.0787*%
%ADD16C,0.0560*%
%ADD17C,0.0591*%
%ADD18C,0.0480*%
%ADD19C,0.0660*%
%ADD20C,0.0740*%
%ADD21C,0.0160*%
%ADD22C,0.0397*%
%ADD23C,0.0436*%
D10*
X006619Y005251D03*
X007759Y007061D03*
X006409Y008201D03*
X002759Y007061D03*
X011409Y008201D03*
X012759Y007061D03*
X011619Y005251D03*
X016409Y008201D03*
X017759Y007061D03*
X016619Y005251D03*
X021619Y005251D03*
X022759Y007061D03*
X021409Y008201D03*
X026409Y008201D03*
X027759Y007061D03*
X026619Y005251D03*
X031409Y008201D03*
X032759Y007061D03*
X031619Y005251D03*
X036409Y008201D03*
X037759Y007061D03*
X036619Y005251D03*
X041619Y005251D03*
X041409Y008201D03*
D11*
X038749Y006511D03*
X039769Y003971D03*
X034769Y003971D03*
X033749Y006511D03*
X029769Y003971D03*
X028749Y006511D03*
X024769Y003971D03*
X023749Y006511D03*
X019769Y003971D03*
X018749Y006511D03*
X014769Y003971D03*
X013749Y006511D03*
X009769Y003971D03*
X008749Y006511D03*
X004769Y003971D03*
X003749Y006511D03*
D12*
X036189Y031821D02*
X036189Y032561D01*
X037189Y032561D02*
X037189Y031821D01*
X038189Y031821D02*
X038189Y032561D01*
X039189Y032561D02*
X039189Y031821D01*
X040189Y031821D02*
X040189Y032561D01*
X041189Y032561D02*
X041189Y031821D01*
D13*
X036189Y030441D03*
X034189Y030441D03*
X029939Y029691D03*
X029939Y028441D03*
X025939Y028441D03*
X025939Y029691D03*
X017189Y029941D03*
X017189Y028691D03*
X013189Y028691D03*
X013189Y029941D03*
X009439Y027191D03*
X007939Y027941D03*
X005439Y027191D03*
X005439Y025941D03*
X005439Y024691D03*
X004689Y023441D03*
X004689Y022191D03*
X005939Y020441D03*
X005939Y019191D03*
X005939Y017691D03*
X005939Y016441D03*
X005689Y013941D03*
X006689Y012941D03*
X007689Y012941D03*
X008689Y013941D03*
X010689Y013941D03*
X011689Y012941D03*
X012689Y012941D03*
X012189Y014191D03*
X014689Y015191D03*
X014439Y016441D03*
X014439Y017691D03*
X014439Y019191D03*
X014439Y020441D03*
X018439Y020441D03*
X018439Y019191D03*
X018439Y017691D03*
X018439Y016441D03*
X019689Y015191D03*
X021689Y015191D03*
X021689Y012941D03*
X022689Y012941D03*
X022689Y011691D03*
X021689Y011691D03*
X021689Y010441D03*
X022689Y010441D03*
X023689Y009441D03*
X025689Y009441D03*
X026689Y010441D03*
X027689Y010441D03*
X027689Y011691D03*
X026689Y011691D03*
X026689Y012941D03*
X027689Y012941D03*
X026439Y015191D03*
X024439Y015191D03*
X029689Y015191D03*
X029939Y016441D03*
X029939Y017691D03*
X029939Y019191D03*
X029189Y019941D03*
X028439Y020441D03*
X028439Y019441D03*
X029939Y020441D03*
X030939Y021691D03*
X029689Y022191D03*
X030939Y022941D03*
X032939Y022941D03*
X032939Y021691D03*
X033939Y020441D03*
X033939Y019191D03*
X033939Y017691D03*
X033939Y016441D03*
X031689Y015191D03*
X033689Y013941D03*
X032689Y012941D03*
X031689Y012941D03*
X031689Y011691D03*
X032689Y011691D03*
X032689Y010441D03*
X031689Y010441D03*
X030689Y009441D03*
X028689Y009441D03*
X033689Y009441D03*
X035689Y009441D03*
X036689Y010441D03*
X037689Y010441D03*
X037689Y011691D03*
X036689Y011691D03*
X036689Y012941D03*
X037689Y012941D03*
X038689Y013941D03*
X038189Y015191D03*
X038439Y016441D03*
X038439Y017691D03*
X038439Y019191D03*
X038439Y020441D03*
X042439Y020441D03*
X042439Y019191D03*
X042439Y017691D03*
X042439Y016441D03*
X040189Y015191D03*
X040689Y013941D03*
X041689Y012941D03*
X041689Y011691D03*
X041689Y010441D03*
X040689Y009441D03*
X038689Y009441D03*
X035689Y013941D03*
X025689Y022191D03*
X016689Y015191D03*
X016689Y012941D03*
X017689Y012941D03*
X017689Y011691D03*
X016689Y011691D03*
X016689Y010441D03*
X017689Y010441D03*
X018689Y009441D03*
X020689Y009441D03*
X015689Y009441D03*
X013689Y009441D03*
X012689Y010441D03*
X011689Y010441D03*
X011689Y011691D03*
X012689Y011691D03*
X010689Y009441D03*
X008689Y009441D03*
X007689Y010441D03*
X006689Y010441D03*
X006689Y011691D03*
X007689Y011691D03*
X005689Y009441D03*
X003689Y009441D03*
X002689Y010441D03*
X002689Y011691D03*
X002689Y012941D03*
X003689Y013941D03*
X009939Y016441D03*
X009939Y017691D03*
X009939Y019191D03*
X009939Y020441D03*
X008689Y022191D03*
X008689Y023441D03*
X009439Y024691D03*
X009439Y025941D03*
X007939Y029941D03*
X012189Y016191D03*
D14*
X014189Y013941D03*
X015189Y013941D03*
X016189Y013941D03*
X017189Y013941D03*
X018189Y013941D03*
X019189Y013941D03*
X020189Y013941D03*
X021189Y013941D03*
X022939Y013941D03*
X023939Y013941D03*
X024939Y013941D03*
X025939Y013941D03*
X026939Y013941D03*
X027939Y013941D03*
X028939Y013941D03*
X029939Y013941D03*
X031439Y032191D03*
X032439Y032191D03*
X033689Y032191D03*
X034689Y032191D03*
X026189Y032941D03*
X025189Y032941D03*
X024189Y032941D03*
X023189Y032941D03*
X022189Y032941D03*
X021189Y032941D03*
X019189Y032941D03*
X018189Y032941D03*
X017189Y032941D03*
X016189Y032941D03*
X015189Y032941D03*
X014189Y032941D03*
X002689Y027441D03*
X002689Y026441D03*
X002689Y025441D03*
X002689Y024441D03*
X002689Y023441D03*
X002689Y022441D03*
X002689Y021441D03*
X002689Y020441D03*
X002689Y019441D03*
X002689Y018441D03*
D15*
X005547Y029207D02*
X006335Y029207D01*
X007122Y030781D02*
X007122Y031569D01*
X004642Y031569D02*
X004642Y030781D01*
D16*
X015896Y031271D03*
X016683Y031271D03*
X017471Y031271D03*
X018258Y031271D03*
X019045Y031271D03*
X019833Y031271D03*
X020620Y031271D03*
X021408Y031271D03*
X022195Y031271D03*
X022982Y031271D03*
X022982Y022610D03*
X022195Y022610D03*
X021408Y022610D03*
X020620Y022610D03*
X019833Y022610D03*
X019045Y022610D03*
X018258Y022610D03*
X017471Y022610D03*
X016683Y022610D03*
X015896Y022610D03*
D17*
X042144Y027441D02*
X042734Y027441D01*
X042734Y028441D02*
X042144Y028441D01*
X042144Y029441D02*
X042734Y029441D01*
X042734Y030441D02*
X042144Y030441D01*
D18*
X026689Y020181D02*
X026689Y019701D01*
X025689Y019701D02*
X025689Y020181D01*
X024689Y020181D02*
X024689Y019701D01*
X023689Y019701D02*
X023689Y020181D01*
X022689Y020181D02*
X022689Y019701D01*
X021689Y019701D02*
X021689Y020181D01*
X020689Y020181D02*
X020689Y019701D01*
X019689Y019701D02*
X019689Y020181D01*
X019689Y017181D02*
X019689Y016701D01*
X020689Y016701D02*
X020689Y017181D01*
X021689Y017181D02*
X021689Y016701D01*
X022689Y016701D02*
X022689Y017181D01*
X023689Y017181D02*
X023689Y016701D01*
X024689Y016701D02*
X024689Y017181D01*
X025689Y017181D02*
X025689Y016701D01*
X026689Y016701D02*
X026689Y017181D01*
D19*
X013939Y025941D03*
X013939Y026941D03*
X011439Y024441D03*
X011439Y023441D03*
D20*
X027409Y031051D03*
X027409Y032831D03*
X029969Y032831D03*
X029969Y031051D03*
D21*
X002871Y003317D02*
X002524Y003484D01*
X002223Y003725D01*
X001983Y004026D01*
X001816Y004373D01*
X001730Y004748D01*
X001719Y004941D01*
X001719Y004989D01*
X001719Y004996D01*
X001719Y021191D01*
X002246Y021191D01*
X002486Y020951D01*
X002892Y020951D01*
X003132Y021191D01*
X003736Y021191D01*
X003869Y021058D01*
X003869Y017023D01*
X003825Y017100D01*
X003869Y017100D01*
X003825Y017100D02*
X003552Y017329D01*
X003552Y017329D01*
X003217Y017451D01*
X003095Y017451D01*
X003039Y017451D01*
X003038Y017451D01*
X002983Y017451D01*
X002983Y017451D01*
X002861Y017451D01*
X002526Y017329D01*
X002253Y017100D01*
X001719Y017100D01*
X001719Y017258D02*
X002442Y017258D01*
X002526Y017329D02*
X002526Y017329D01*
X002768Y017417D02*
X001719Y017417D01*
X001719Y017576D02*
X003869Y017576D01*
X003869Y017734D02*
X001719Y017734D01*
X001719Y017893D02*
X003869Y017893D01*
X003869Y018051D02*
X002992Y018051D01*
X002892Y017951D02*
X003179Y018238D01*
X003179Y018644D01*
X002892Y018931D01*
X002486Y018931D01*
X002199Y018644D01*
X002199Y018238D01*
X002486Y017951D01*
X002892Y017951D01*
X003151Y018210D02*
X003869Y018210D01*
X003869Y018368D02*
X003179Y018368D01*
X003179Y018527D02*
X003869Y018527D01*
X003869Y018685D02*
X003137Y018685D01*
X002979Y018844D02*
X003869Y018844D01*
X003869Y019002D02*
X002944Y019002D01*
X002892Y018951D02*
X003179Y019238D01*
X003179Y019644D01*
X002892Y019931D01*
X002486Y019931D01*
X002199Y019644D01*
X002199Y019238D01*
X002486Y018951D01*
X002892Y018951D01*
X003102Y019161D02*
X003869Y019161D01*
X003869Y019319D02*
X003179Y019319D01*
X003179Y019478D02*
X003869Y019478D01*
X003869Y019637D02*
X003179Y019637D01*
X003028Y019795D02*
X003869Y019795D01*
X003869Y019954D02*
X002895Y019954D01*
X002892Y019951D02*
X003179Y020238D01*
X003179Y020644D01*
X002892Y020931D01*
X002486Y020931D01*
X002199Y020644D01*
X002199Y020238D01*
X002486Y019951D01*
X002892Y019951D01*
X003053Y020112D02*
X003869Y020112D01*
X003869Y020271D02*
X003179Y020271D01*
X003179Y020429D02*
X003869Y020429D01*
X003869Y020588D02*
X003179Y020588D01*
X003076Y020746D02*
X003869Y020746D01*
X003869Y020905D02*
X002918Y020905D01*
X003005Y021063D02*
X003864Y021063D01*
X004189Y021191D02*
X003689Y021691D01*
X003689Y023566D01*
X006064Y025941D01*
X009439Y025941D01*
X009153Y025661D02*
X006124Y025661D01*
X006163Y025701D02*
X009113Y025701D01*
X009273Y025541D01*
X009605Y025541D01*
X009839Y025775D01*
X009839Y026106D01*
X009605Y026341D01*
X009273Y026341D01*
X009113Y026181D01*
X006112Y026181D01*
X006016Y026181D01*
X006014Y026180D01*
X005928Y026144D01*
X005861Y026077D01*
X005861Y026077D01*
X005839Y026055D01*
X005839Y026106D01*
X005605Y026341D01*
X005273Y026341D01*
X005039Y026106D01*
X005039Y025775D01*
X005273Y025541D01*
X005325Y025541D01*
X003553Y023769D01*
X003523Y023739D01*
X003486Y023702D01*
X003449Y023614D01*
X003449Y023518D01*
X003449Y021691D01*
X003019Y021691D01*
X002859Y021851D01*
X002689Y021851D01*
X002519Y021851D01*
X002359Y021691D01*
X001719Y021691D01*
X001719Y031941D01*
X001730Y032133D01*
X001816Y032509D01*
X001983Y032856D01*
X002223Y033157D01*
X002524Y033397D01*
X002871Y033564D01*
X003246Y033650D01*
X003439Y033661D01*
X003484Y033661D01*
X003495Y033661D01*
X043939Y033661D01*
X044132Y033650D01*
X044507Y033564D01*
X044854Y033397D01*
X045155Y033157D01*
X045395Y032856D01*
X045563Y032509D01*
X045648Y032133D01*
X045659Y031941D01*
X045659Y031906D01*
X045659Y031885D01*
X045659Y021691D01*
X033339Y021691D01*
X033339Y021856D01*
X045659Y021856D01*
X045659Y021698D02*
X033339Y021698D01*
X033339Y021856D02*
X033105Y022091D01*
X032773Y022091D01*
X032539Y021856D01*
X031339Y021856D01*
X031105Y022091D01*
X030773Y022091D01*
X030539Y021856D01*
X030363Y021856D01*
X030539Y021856D02*
X030539Y021691D01*
X030528Y021691D01*
X030089Y022130D01*
X030089Y022356D01*
X029855Y022591D01*
X029523Y022591D01*
X029289Y022356D01*
X029289Y022130D01*
X028850Y021691D01*
X010278Y021691D01*
X009797Y022172D01*
X009797Y022210D01*
X010788Y023201D01*
X011008Y023201D01*
X011024Y023163D01*
X011161Y023025D01*
X011342Y022951D01*
X011536Y022951D01*
X011717Y023025D01*
X011854Y023163D01*
X011929Y023343D01*
X011929Y023538D01*
X011854Y023718D01*
X011717Y023856D01*
X011536Y023931D01*
X011342Y023931D01*
X011161Y023856D01*
X011024Y023718D01*
X011008Y023681D01*
X010737Y023681D01*
X010641Y023681D01*
X010553Y023644D01*
X009458Y022549D01*
X009368Y022549D01*
X009236Y022495D01*
X009135Y022394D01*
X009089Y022282D01*
X009089Y022356D01*
X008855Y022591D01*
X008523Y022591D01*
X008289Y022356D01*
X008289Y022025D01*
X008523Y021791D01*
X008700Y021791D01*
X008600Y021691D01*
X006778Y021691D01*
X008288Y023201D01*
X008363Y023201D01*
X008523Y023041D01*
X008855Y023041D01*
X009089Y023275D01*
X009089Y023606D01*
X008855Y023841D01*
X008523Y023841D01*
X008363Y023681D01*
X008141Y023681D01*
X008053Y023644D01*
X007986Y023577D01*
X006100Y021691D01*
X005528Y021691D01*
X008288Y024451D01*
X009113Y024451D01*
X009273Y024291D01*
X009605Y024291D01*
X009839Y024525D01*
X009839Y024856D01*
X009745Y024951D01*
X016066Y024951D01*
X016162Y024951D01*
X016250Y024987D01*
X021955Y030692D01*
X021955Y028233D01*
X021955Y028137D01*
X021991Y028049D01*
X022236Y027805D01*
X022303Y027737D01*
X022391Y027701D01*
X024394Y027701D01*
X024475Y027620D01*
X024614Y027563D01*
X024764Y027563D01*
X024903Y027620D01*
X025010Y027727D01*
X025067Y027866D01*
X025067Y027973D01*
X026486Y026555D01*
X026553Y026487D01*
X026641Y026451D01*
X030391Y026451D01*
X030487Y026451D01*
X030575Y026487D01*
X032288Y028201D01*
X041750Y028201D01*
X041758Y028183D01*
X041886Y028055D01*
X042053Y027986D01*
X042825Y027986D01*
X042992Y028055D01*
X043120Y028183D01*
X043190Y028350D01*
X043190Y028531D01*
X043120Y028699D01*
X042992Y028827D01*
X042825Y028896D01*
X042053Y028896D01*
X041886Y028827D01*
X041758Y028699D01*
X041750Y028681D01*
X032141Y028681D01*
X032053Y028644D01*
X031986Y028577D01*
X030340Y026931D01*
X030214Y026931D01*
X030260Y026977D01*
X030317Y027116D01*
X030317Y027266D01*
X030260Y027405D01*
X030153Y027511D01*
X030014Y027569D01*
X029900Y027569D01*
X024599Y032870D01*
X024599Y033111D01*
X024359Y033351D01*
X024019Y033351D01*
X023779Y033111D01*
X023779Y032771D01*
X024019Y032531D01*
X024260Y032531D01*
X029561Y027229D01*
X029561Y027116D01*
X029619Y026977D01*
X029664Y026931D01*
X026788Y026931D01*
X025429Y028290D01*
X025429Y029861D01*
X025539Y029751D01*
X025539Y029525D01*
X025773Y029291D01*
X026105Y029291D01*
X026339Y029525D01*
X026339Y029856D01*
X026105Y030091D01*
X025878Y030091D01*
X023399Y032571D01*
X023599Y032771D01*
X023599Y032941D01*
X023599Y033111D01*
X023359Y033351D01*
X023189Y033351D01*
X023019Y033351D01*
X022779Y033111D01*
X022779Y032941D01*
X023189Y032941D01*
X023189Y033351D01*
X023189Y032941D01*
X023189Y032941D01*
X023189Y032941D01*
X023599Y032941D01*
X023189Y032941D01*
X023189Y032941D01*
X022779Y032941D01*
X022779Y032771D01*
X022869Y032681D01*
X022509Y032681D01*
X022599Y032771D01*
X022599Y032941D01*
X022599Y033111D01*
X022359Y033351D01*
X022189Y033351D01*
X022019Y033351D01*
X021779Y033111D01*
X021779Y032941D01*
X022189Y032941D01*
X022189Y033351D01*
X022189Y032941D01*
X022189Y032941D01*
X022189Y032941D01*
X022599Y032941D01*
X022189Y032941D01*
X022189Y032941D01*
X021779Y032941D01*
X021779Y032771D01*
X021869Y032681D01*
X021509Y032681D01*
X021599Y032771D01*
X021599Y033111D01*
X021359Y033351D01*
X021019Y033351D01*
X020779Y033111D01*
X020779Y032771D01*
X020869Y032681D01*
X020141Y032681D01*
X020053Y032644D01*
X019986Y032577D01*
X019120Y031711D01*
X018958Y031711D01*
X018796Y031644D01*
X018672Y031521D01*
X018652Y031471D01*
X018631Y031521D01*
X018507Y031644D01*
X018345Y031711D01*
X018170Y031711D01*
X018009Y031644D01*
X017885Y031521D01*
X017864Y031471D01*
X017844Y031521D01*
X017720Y031644D01*
X017558Y031711D01*
X017383Y031711D01*
X017221Y031644D01*
X017098Y031521D01*
X017077Y031471D01*
X017056Y031521D01*
X016932Y031644D01*
X016771Y031711D01*
X016596Y031711D01*
X016434Y031644D01*
X016310Y031521D01*
X016289Y031469D01*
X016272Y031502D01*
X016231Y031558D01*
X016182Y031607D01*
X016126Y031648D01*
X016065Y031679D01*
X015999Y031701D01*
X015930Y031711D01*
X015896Y031711D01*
X015896Y031272D01*
X015896Y031272D01*
X015896Y031711D01*
X015861Y031711D01*
X015793Y031701D01*
X015727Y031679D01*
X015665Y031648D01*
X015609Y031607D01*
X015560Y031558D01*
X015519Y031502D01*
X015488Y031440D01*
X015467Y031375D01*
X015456Y031306D01*
X015456Y031272D01*
X015895Y031272D01*
X015895Y031271D01*
X015456Y031271D01*
X015456Y031237D01*
X015467Y031168D01*
X015488Y031103D01*
X015519Y031041D01*
X015560Y030985D01*
X015609Y030936D01*
X015665Y030895D01*
X015727Y030864D01*
X015793Y030842D01*
X015861Y030831D01*
X015896Y030831D01*
X015930Y030831D01*
X015999Y030842D01*
X016065Y030864D01*
X016126Y030895D01*
X016182Y030936D01*
X016231Y030985D01*
X016272Y031041D01*
X016289Y031074D01*
X016310Y031022D01*
X016434Y030898D01*
X016596Y030831D01*
X016771Y030831D01*
X016932Y030898D01*
X017056Y031022D01*
X017077Y031072D01*
X017098Y031022D01*
X017221Y030898D01*
X017383Y030831D01*
X017558Y030831D01*
X017720Y030898D01*
X017844Y031022D01*
X017864Y031072D01*
X017885Y031022D01*
X018009Y030898D01*
X018170Y030831D01*
X018345Y030831D01*
X018507Y030898D01*
X018631Y031022D01*
X018652Y031072D01*
X018672Y031022D01*
X018796Y030898D01*
X018958Y030831D01*
X019133Y030831D01*
X019295Y030898D01*
X019418Y031022D01*
X019439Y031072D01*
X019460Y031022D01*
X019584Y030898D01*
X019745Y030831D01*
X019920Y030831D01*
X020082Y030898D01*
X020206Y031022D01*
X020226Y031072D01*
X020247Y031022D01*
X020371Y030898D01*
X020533Y030831D01*
X020708Y030831D01*
X020869Y030898D01*
X020993Y031022D01*
X021014Y031072D01*
X021035Y031022D01*
X021158Y030898D01*
X021320Y030831D01*
X021416Y030831D01*
X016015Y025431D01*
X010686Y025431D01*
X010743Y025488D01*
X010797Y025619D01*
X010797Y025762D01*
X010743Y025894D01*
X010679Y025958D01*
X010679Y027091D01*
X013128Y029541D01*
X013355Y029541D01*
X013589Y029775D01*
X013589Y030106D01*
X013355Y030341D01*
X013023Y030341D01*
X012789Y030106D01*
X012789Y029880D01*
X010303Y027394D01*
X010236Y027327D01*
X010199Y027239D01*
X010199Y025958D01*
X010135Y025894D01*
X010081Y025762D01*
X010081Y025619D01*
X010135Y025488D01*
X010192Y025431D01*
X007016Y025431D01*
X006928Y025394D01*
X006861Y025327D01*
X005089Y023555D01*
X005089Y023606D01*
X004855Y023841D01*
X004523Y023841D01*
X004289Y023606D01*
X004289Y023275D01*
X004523Y023041D01*
X004575Y023041D01*
X003986Y022452D01*
X003949Y022364D01*
X003949Y022268D01*
X003949Y021770D01*
X003929Y021790D01*
X003929Y023466D01*
X005039Y024576D01*
X005039Y024525D01*
X005273Y024291D01*
X005605Y024291D01*
X005839Y024525D01*
X005839Y024856D01*
X005605Y025091D01*
X005553Y025091D01*
X006163Y025701D01*
X005965Y025503D02*
X010129Y025503D01*
X010081Y025661D02*
X009725Y025661D01*
X009839Y025820D02*
X010105Y025820D01*
X010199Y025978D02*
X009839Y025978D01*
X009809Y026137D02*
X010199Y026137D01*
X010199Y026295D02*
X009650Y026295D01*
X009228Y026295D02*
X005650Y026295D01*
X005809Y026137D02*
X005921Y026137D01*
X005228Y026295D02*
X003099Y026295D01*
X003099Y026271D02*
X002859Y026031D01*
X002519Y026031D01*
X002279Y026271D01*
X002279Y026611D01*
X002519Y026851D01*
X002859Y026851D01*
X003099Y026611D01*
X003099Y026271D01*
X003099Y026454D02*
X010199Y026454D01*
X010199Y026612D02*
X003097Y026612D01*
X002939Y026771D02*
X010199Y026771D01*
X010199Y026930D02*
X009743Y026930D01*
X009839Y027025D02*
X009605Y026791D01*
X009273Y026791D01*
X009039Y027025D01*
X009039Y027356D01*
X009273Y027591D01*
X009605Y027591D01*
X009839Y027356D01*
X009839Y027025D01*
X009839Y027088D02*
X010199Y027088D01*
X010202Y027247D02*
X009839Y027247D01*
X009790Y027405D02*
X010314Y027405D01*
X010473Y027564D02*
X009632Y027564D01*
X009246Y027564D02*
X008128Y027564D01*
X008105Y027541D02*
X008339Y027775D01*
X008339Y027941D01*
X008339Y028106D01*
X008105Y028341D01*
X007939Y028341D01*
X007773Y028341D01*
X007539Y028106D01*
X007539Y027941D01*
X007939Y027941D01*
X007939Y028341D01*
X007939Y027941D01*
X007939Y027941D01*
X007939Y027941D01*
X008339Y027941D01*
X007939Y027941D01*
X007939Y027941D01*
X007539Y027941D01*
X007539Y027775D01*
X007773Y027541D01*
X007939Y027541D01*
X008105Y027541D01*
X007939Y027541D02*
X007939Y027940D01*
X007939Y027940D01*
X007939Y027541D01*
X007939Y027564D02*
X007939Y027564D01*
X007939Y027722D02*
X007939Y027722D01*
X007939Y027881D02*
X007939Y027881D01*
X007939Y028039D02*
X007939Y028039D01*
X007939Y028198D02*
X007939Y028198D01*
X007631Y028198D02*
X001719Y028198D01*
X001719Y028356D02*
X011265Y028356D01*
X011107Y028198D02*
X008248Y028198D01*
X008339Y028039D02*
X010948Y028039D01*
X010790Y027881D02*
X008339Y027881D01*
X008286Y027722D02*
X010631Y027722D01*
X010993Y027405D02*
X013783Y027405D01*
X013751Y027395D02*
X013682Y027360D01*
X013620Y027315D01*
X013565Y027260D01*
X013520Y027198D01*
X013485Y027129D01*
X013461Y027056D01*
X013449Y026979D01*
X013449Y026941D01*
X013939Y026941D01*
X013939Y027431D01*
X013900Y027431D01*
X013824Y027419D01*
X013751Y027395D01*
X013939Y027405D02*
X013939Y027405D01*
X013939Y027431D02*
X013939Y026941D01*
X013939Y026941D01*
X013939Y026941D01*
X014429Y026941D01*
X014429Y026979D01*
X014417Y027056D01*
X014393Y027129D01*
X014358Y027198D01*
X014313Y027260D01*
X014258Y027315D01*
X014196Y027360D01*
X014127Y027395D01*
X014054Y027419D01*
X013978Y027431D01*
X013939Y027431D01*
X014095Y027405D02*
X017989Y027405D01*
X017831Y027247D02*
X014322Y027247D01*
X014406Y027088D02*
X017672Y027088D01*
X017514Y026930D02*
X014429Y026930D01*
X014429Y026941D02*
X013939Y026941D01*
X013939Y026941D01*
X013449Y026941D01*
X013449Y026902D01*
X013461Y026826D01*
X013485Y026753D01*
X013520Y026684D01*
X013565Y026622D01*
X013620Y026567D01*
X013682Y026522D01*
X013751Y026487D01*
X013824Y026463D01*
X013900Y026451D01*
X013939Y026451D01*
X013978Y026451D01*
X014054Y026463D01*
X014127Y026487D01*
X014196Y026522D01*
X014258Y026567D01*
X014313Y026622D01*
X014358Y026684D01*
X014393Y026753D01*
X014417Y026826D01*
X014429Y026902D01*
X014429Y026941D01*
X014399Y026771D02*
X017355Y026771D01*
X017197Y026612D02*
X014304Y026612D01*
X014217Y026356D02*
X014036Y026431D01*
X013842Y026431D01*
X013661Y026356D01*
X013524Y026218D01*
X013449Y026038D01*
X013449Y025843D01*
X013524Y025663D01*
X013661Y025525D01*
X013842Y025451D01*
X014036Y025451D01*
X014217Y025525D01*
X014354Y025663D01*
X014429Y025843D01*
X014429Y026038D01*
X014354Y026218D01*
X014217Y026356D01*
X014277Y026295D02*
X016879Y026295D01*
X016721Y026137D02*
X014388Y026137D01*
X014429Y025978D02*
X016562Y025978D01*
X016404Y025820D02*
X014419Y025820D01*
X014352Y025661D02*
X016245Y025661D01*
X016087Y025503D02*
X014162Y025503D01*
X013716Y025503D02*
X010749Y025503D01*
X010797Y025661D02*
X013526Y025661D01*
X013459Y025820D02*
X010774Y025820D01*
X010679Y025978D02*
X013449Y025978D01*
X013490Y026137D02*
X010679Y026137D01*
X010679Y026295D02*
X013601Y026295D01*
X013574Y026612D02*
X010679Y026612D01*
X010679Y026454D02*
X013881Y026454D01*
X013939Y026454D02*
X013939Y026454D01*
X013939Y026451D02*
X013939Y026940D01*
X013939Y026940D01*
X013939Y026451D01*
X013997Y026454D02*
X017038Y026454D01*
X017400Y026137D02*
X045659Y026137D01*
X045659Y026295D02*
X017558Y026295D01*
X017717Y026454D02*
X026634Y026454D01*
X026689Y026691D02*
X030439Y026691D01*
X032189Y028441D01*
X042439Y028441D01*
X041899Y028832D02*
X030670Y028832D01*
X030828Y028991D02*
X042041Y028991D01*
X042053Y028986D02*
X042825Y028986D01*
X042992Y029055D01*
X043120Y029183D01*
X043190Y029350D01*
X043190Y029531D01*
X043120Y029699D01*
X042992Y029827D01*
X042825Y029896D01*
X042053Y029896D01*
X041886Y029827D01*
X041758Y029699D01*
X041750Y029681D01*
X038538Y029681D01*
X038429Y029790D01*
X038429Y031347D01*
X038489Y031371D01*
X038638Y031521D01*
X038689Y031643D01*
X038740Y031521D01*
X038889Y031371D01*
X039084Y031291D01*
X039294Y031291D01*
X039489Y031371D01*
X039638Y031521D01*
X039689Y031644D01*
X039698Y031617D01*
X039736Y031543D01*
X039785Y031476D01*
X039844Y031417D01*
X039911Y031367D01*
X039986Y031330D01*
X040065Y031304D01*
X040147Y031291D01*
X040169Y031291D01*
X040169Y032171D01*
X040209Y032171D01*
X040209Y032211D01*
X040169Y032211D01*
X040169Y033091D01*
X040147Y033091D01*
X040065Y033078D01*
X039986Y033052D01*
X039911Y033014D01*
X039844Y032965D01*
X039785Y032906D01*
X039736Y032839D01*
X039698Y032764D01*
X039689Y032738D01*
X039638Y032861D01*
X039489Y033010D01*
X039294Y033091D01*
X039084Y033091D01*
X038889Y033010D01*
X038740Y032861D01*
X038689Y032739D01*
X038638Y032861D01*
X038489Y033010D01*
X038294Y033091D01*
X038084Y033091D01*
X037889Y033010D01*
X037740Y032861D01*
X037689Y032739D01*
X037638Y032861D01*
X037489Y033010D01*
X037294Y033091D01*
X037084Y033091D01*
X036889Y033010D01*
X036740Y032861D01*
X036689Y032739D01*
X036638Y032861D01*
X036489Y033010D01*
X036294Y033091D01*
X036084Y033091D01*
X035889Y033010D01*
X035740Y032861D01*
X035659Y032666D01*
X035659Y031715D01*
X035740Y031521D01*
X035889Y031371D01*
X036084Y031291D01*
X036294Y031291D01*
X036489Y031371D01*
X036638Y031521D01*
X036689Y031643D01*
X036740Y031521D01*
X036889Y031371D01*
X037084Y031291D01*
X037294Y031291D01*
X037489Y031371D01*
X037638Y031521D01*
X037689Y031643D01*
X037740Y031521D01*
X037889Y031371D01*
X037949Y031347D01*
X037949Y029739D01*
X037949Y029643D01*
X037986Y029555D01*
X038236Y029305D01*
X038303Y029237D01*
X038391Y029201D01*
X041750Y029201D01*
X041758Y029183D01*
X041886Y029055D01*
X042053Y028986D01*
X041791Y029149D02*
X030987Y029149D01*
X031145Y029308D02*
X038233Y029308D01*
X038074Y029466D02*
X031304Y029466D01*
X031462Y029625D02*
X037957Y029625D01*
X037949Y029783D02*
X031621Y029783D01*
X031780Y029942D02*
X037949Y029942D01*
X037949Y030100D02*
X036414Y030100D01*
X036355Y030041D02*
X036589Y030275D01*
X036589Y030606D01*
X036355Y030841D01*
X036023Y030841D01*
X035789Y030606D01*
X035789Y030275D01*
X036023Y030041D01*
X036355Y030041D01*
X036573Y030259D02*
X037949Y030259D01*
X037949Y030418D02*
X036589Y030418D01*
X036589Y030576D02*
X037949Y030576D01*
X037949Y030735D02*
X036461Y030735D01*
X035917Y030735D02*
X034461Y030735D01*
X034355Y030841D02*
X034023Y030841D01*
X033789Y030606D01*
X033789Y030275D01*
X034023Y030041D01*
X034355Y030041D01*
X034589Y030275D01*
X034589Y030606D01*
X034355Y030841D01*
X034589Y030576D02*
X035789Y030576D01*
X035789Y030418D02*
X034589Y030418D01*
X034573Y030259D02*
X035805Y030259D01*
X035964Y030100D02*
X034414Y030100D01*
X033964Y030100D02*
X031938Y030100D01*
X032097Y030259D02*
X033805Y030259D01*
X033789Y030418D02*
X032255Y030418D01*
X032414Y030576D02*
X033789Y030576D01*
X033917Y030735D02*
X032572Y030735D01*
X032731Y030893D02*
X037949Y030893D01*
X037949Y031052D02*
X032889Y031052D01*
X033048Y031210D02*
X037949Y031210D01*
X037895Y031369D02*
X037483Y031369D01*
X037641Y031527D02*
X037737Y031527D01*
X038189Y032191D02*
X038189Y029691D01*
X038439Y029441D01*
X042439Y029441D01*
X042421Y029986D02*
X042108Y029986D01*
X042037Y029997D01*
X041969Y030019D01*
X041905Y030051D01*
X041847Y030094D01*
X041796Y030144D01*
X041754Y030202D01*
X041722Y030266D01*
X041700Y030334D01*
X041689Y030405D01*
X041689Y030422D01*
X042420Y030422D01*
X042420Y030459D01*
X041689Y030459D01*
X041689Y030477D01*
X041700Y030547D01*
X041722Y030616D01*
X041754Y030679D01*
X041796Y030737D01*
X041847Y030788D01*
X041905Y030830D01*
X041969Y030863D01*
X042037Y030885D01*
X042108Y030896D01*
X042421Y030896D01*
X042421Y030459D01*
X042457Y030459D01*
X042457Y030896D01*
X042770Y030896D01*
X042841Y030885D01*
X042909Y030863D01*
X042973Y030830D01*
X043031Y030788D01*
X043082Y030737D01*
X043124Y030679D01*
X043156Y030616D01*
X043178Y030547D01*
X043190Y030477D01*
X043190Y030459D01*
X042458Y030459D01*
X042458Y030422D01*
X043190Y030422D01*
X043190Y030405D01*
X043178Y030334D01*
X043156Y030266D01*
X043124Y030202D01*
X043082Y030144D01*
X043031Y030094D01*
X042973Y030051D01*
X042909Y030019D01*
X042841Y029997D01*
X042770Y029986D01*
X042457Y029986D01*
X042457Y030422D01*
X042421Y030422D01*
X042421Y029986D01*
X042421Y030100D02*
X042457Y030100D01*
X042457Y030259D02*
X042421Y030259D01*
X042421Y030418D02*
X042457Y030418D01*
X042457Y030576D02*
X042421Y030576D01*
X042421Y030735D02*
X042457Y030735D01*
X042457Y030893D02*
X042421Y030893D01*
X042090Y030893D02*
X038429Y030893D01*
X038429Y030735D02*
X041795Y030735D01*
X041709Y030576D02*
X038429Y030576D01*
X038429Y030418D02*
X041689Y030418D01*
X041725Y030259D02*
X038429Y030259D01*
X038429Y030100D02*
X041840Y030100D01*
X041842Y029783D02*
X038436Y029783D01*
X038429Y029942D02*
X045659Y029942D01*
X045659Y030100D02*
X043038Y030100D01*
X043153Y030259D02*
X045659Y030259D01*
X045659Y030418D02*
X043190Y030418D01*
X043169Y030576D02*
X045659Y030576D01*
X045659Y030735D02*
X043084Y030735D01*
X042788Y030893D02*
X045659Y030893D01*
X045659Y031052D02*
X038429Y031052D01*
X038429Y031210D02*
X045659Y031210D01*
X045659Y031369D02*
X041469Y031369D01*
X041467Y031367D02*
X041534Y031417D01*
X041593Y031476D01*
X041642Y031543D01*
X041680Y031617D01*
X041706Y031697D01*
X041719Y031779D01*
X041719Y032171D01*
X041209Y032171D01*
X041209Y032211D01*
X041169Y032211D01*
X041169Y033091D01*
X041147Y033091D01*
X041065Y033078D01*
X040986Y033052D01*
X040911Y033014D01*
X040844Y032965D01*
X040785Y032906D01*
X040736Y032839D01*
X040698Y032764D01*
X040689Y032737D01*
X040680Y032764D01*
X040642Y032839D01*
X040593Y032906D01*
X040534Y032965D01*
X040467Y033014D01*
X040392Y033052D01*
X040313Y033078D01*
X040231Y033091D01*
X040209Y033091D01*
X040209Y032211D01*
X040659Y032211D01*
X041169Y032211D01*
X041169Y032171D01*
X040659Y032171D01*
X040209Y032171D01*
X040209Y031291D01*
X040231Y031291D01*
X040313Y031304D01*
X040392Y031330D01*
X040467Y031367D01*
X040534Y031417D01*
X040593Y031476D01*
X040642Y031543D01*
X040680Y031617D01*
X040689Y031645D01*
X040698Y031617D01*
X040736Y031543D01*
X040785Y031476D01*
X040844Y031417D01*
X040911Y031367D01*
X040986Y031330D01*
X041065Y031304D01*
X041147Y031291D01*
X041169Y031291D01*
X041169Y032171D01*
X041209Y032171D01*
X041209Y031291D01*
X041231Y031291D01*
X041313Y031304D01*
X041392Y031330D01*
X041467Y031367D01*
X041631Y031527D02*
X045659Y031527D01*
X045659Y031686D02*
X041702Y031686D01*
X041719Y031844D02*
X045659Y031844D01*
X045656Y032003D02*
X041719Y032003D01*
X041719Y032161D02*
X045642Y032161D01*
X045606Y032320D02*
X041719Y032320D01*
X041719Y032211D02*
X041719Y032602D01*
X041706Y032685D01*
X041680Y032764D01*
X041642Y032839D01*
X041593Y032906D01*
X041534Y032965D01*
X041467Y033014D01*
X041392Y033052D01*
X041313Y033078D01*
X041231Y033091D01*
X041209Y033091D01*
X041209Y032211D01*
X041719Y032211D01*
X041719Y032479D02*
X045569Y032479D01*
X045501Y032637D02*
X041714Y032637D01*
X041664Y032796D02*
X045424Y032796D01*
X045317Y032954D02*
X041545Y032954D01*
X041209Y032954D02*
X041169Y032954D01*
X041169Y032796D02*
X041209Y032796D01*
X041209Y032637D02*
X041169Y032637D01*
X041169Y032479D02*
X041209Y032479D01*
X041209Y032320D02*
X041169Y032320D01*
X041169Y032161D02*
X041209Y032161D01*
X041209Y032003D02*
X041169Y032003D01*
X041169Y031844D02*
X041209Y031844D01*
X041209Y031686D02*
X041169Y031686D01*
X041169Y031527D02*
X041209Y031527D01*
X041209Y031369D02*
X041169Y031369D01*
X040909Y031369D02*
X040469Y031369D01*
X040631Y031527D02*
X040747Y031527D01*
X040209Y031527D02*
X040169Y031527D01*
X040169Y031369D02*
X040209Y031369D01*
X039909Y031369D02*
X039483Y031369D01*
X039641Y031527D02*
X039747Y031527D01*
X040169Y031686D02*
X040209Y031686D01*
X040209Y031844D02*
X040169Y031844D01*
X040169Y032003D02*
X040209Y032003D01*
X040209Y032161D02*
X040169Y032161D01*
X040169Y032320D02*
X040209Y032320D01*
X040209Y032479D02*
X040169Y032479D01*
X040169Y032637D02*
X040209Y032637D01*
X040209Y032796D02*
X040169Y032796D01*
X040169Y032954D02*
X040209Y032954D01*
X040545Y032954D02*
X040833Y032954D01*
X040714Y032796D02*
X040664Y032796D01*
X039833Y032954D02*
X039545Y032954D01*
X039665Y032796D02*
X039714Y032796D01*
X038833Y032954D02*
X038545Y032954D01*
X038665Y032796D02*
X038713Y032796D01*
X037833Y032954D02*
X037545Y032954D01*
X037665Y032796D02*
X037713Y032796D01*
X036833Y032954D02*
X036545Y032954D01*
X036665Y032796D02*
X036713Y032796D01*
X035833Y032954D02*
X030492Y032954D01*
X030499Y032936D02*
X030418Y033131D01*
X030269Y033280D01*
X030074Y033361D01*
X029864Y033361D01*
X029669Y033280D01*
X029520Y033131D01*
X029439Y032936D01*
X029439Y032725D01*
X029520Y032531D01*
X029669Y032381D01*
X029864Y032301D01*
X030074Y032301D01*
X030269Y032381D01*
X030418Y032531D01*
X030499Y032725D01*
X030499Y032936D01*
X030499Y032796D02*
X035713Y032796D01*
X035659Y032637D02*
X030462Y032637D01*
X030366Y032479D02*
X031147Y032479D01*
X031029Y032361D02*
X031029Y032021D01*
X031199Y031851D01*
X031199Y031290D01*
X030000Y030091D01*
X029773Y030091D01*
X029539Y029856D01*
X029539Y029525D01*
X029773Y029291D01*
X030105Y029291D01*
X030339Y029525D01*
X030339Y029751D01*
X031642Y031055D01*
X031679Y031143D01*
X031679Y031239D01*
X031679Y031851D01*
X031849Y032021D01*
X031849Y032361D01*
X031609Y032601D01*
X031269Y032601D01*
X031029Y032361D01*
X031029Y032320D02*
X030121Y032320D01*
X029817Y032320D02*
X027561Y032320D01*
X027514Y032301D02*
X027709Y032381D01*
X027858Y032531D01*
X027939Y032725D01*
X027939Y032936D01*
X027858Y033131D01*
X027709Y033280D01*
X027514Y033361D01*
X027304Y033361D01*
X027109Y033280D01*
X026960Y033131D01*
X026879Y032936D01*
X026879Y032725D01*
X026960Y032531D01*
X027109Y032381D01*
X027304Y032301D01*
X027514Y032301D01*
X027257Y032320D02*
X025149Y032320D01*
X024991Y032479D02*
X027012Y032479D01*
X026916Y032637D02*
X026465Y032637D01*
X026359Y032531D02*
X026599Y032771D01*
X026599Y033111D01*
X026359Y033351D01*
X026019Y033351D01*
X025779Y033111D01*
X025779Y032771D01*
X026019Y032531D01*
X026359Y032531D01*
X026599Y032796D02*
X026879Y032796D01*
X026887Y032954D02*
X026599Y032954D01*
X026597Y033113D02*
X026952Y033113D01*
X027100Y033271D02*
X026438Y033271D01*
X025940Y033271D02*
X025438Y033271D01*
X025359Y033351D02*
X025019Y033351D01*
X024779Y033111D01*
X024779Y032771D01*
X025019Y032531D01*
X025359Y032531D01*
X025599Y032771D01*
X025599Y033111D01*
X025359Y033351D01*
X025597Y033113D02*
X025781Y033113D01*
X025779Y032954D02*
X025599Y032954D01*
X025599Y032796D02*
X025779Y032796D01*
X025913Y032637D02*
X025465Y032637D01*
X024913Y032637D02*
X024832Y032637D01*
X024779Y032796D02*
X024674Y032796D01*
X024599Y032954D02*
X024779Y032954D01*
X024781Y033113D02*
X024597Y033113D01*
X024438Y033271D02*
X024940Y033271D01*
X024189Y032941D02*
X029939Y027191D01*
X029572Y027088D02*
X026631Y027088D01*
X026473Y027247D02*
X029544Y027247D01*
X029385Y027405D02*
X026314Y027405D01*
X026155Y027564D02*
X029227Y027564D01*
X029068Y027722D02*
X025997Y027722D01*
X025838Y027881D02*
X028910Y027881D01*
X028751Y028039D02*
X025680Y028039D01*
X025773Y028041D02*
X025539Y028275D01*
X025539Y028606D01*
X025773Y028841D01*
X026105Y028841D01*
X026339Y028606D01*
X026339Y028275D01*
X026105Y028041D01*
X025773Y028041D01*
X025616Y028198D02*
X025521Y028198D01*
X025539Y028356D02*
X025429Y028356D01*
X025429Y028515D02*
X025539Y028515D01*
X025606Y028674D02*
X025429Y028674D01*
X025429Y028832D02*
X025765Y028832D01*
X026113Y028832D02*
X027958Y028832D01*
X027800Y028991D02*
X025429Y028991D01*
X025429Y029149D02*
X027641Y029149D01*
X027483Y029308D02*
X026122Y029308D01*
X026280Y029466D02*
X027324Y029466D01*
X027166Y029625D02*
X026339Y029625D01*
X026339Y029783D02*
X027007Y029783D01*
X026849Y029942D02*
X026254Y029942D01*
X025939Y029691D02*
X023189Y032441D01*
X020189Y032441D01*
X019045Y031297D01*
X019045Y031271D01*
X018896Y031686D02*
X018407Y031686D01*
X018624Y031527D02*
X018679Y031527D01*
X018109Y031686D02*
X017620Y031686D01*
X017837Y031527D02*
X017892Y031527D01*
X017321Y031686D02*
X016832Y031686D01*
X017050Y031527D02*
X017104Y031527D01*
X016534Y031686D02*
X016044Y031686D01*
X015896Y031686D02*
X015896Y031686D01*
X015747Y031686D02*
X007673Y031686D01*
X007676Y031679D02*
X007591Y031882D01*
X007436Y032038D01*
X007232Y032122D01*
X007012Y032122D01*
X006808Y032038D01*
X006653Y031882D01*
X006568Y031679D01*
X006568Y030671D01*
X006653Y030468D01*
X006808Y030312D01*
X007012Y030228D01*
X007232Y030228D01*
X007436Y030312D01*
X007591Y030468D01*
X007676Y030671D01*
X007676Y031679D01*
X007676Y031527D02*
X015538Y031527D01*
X015466Y031369D02*
X007676Y031369D01*
X007676Y031210D02*
X015460Y031210D01*
X015514Y031052D02*
X007676Y031052D01*
X007676Y030893D02*
X015669Y030893D01*
X015896Y030893D02*
X015896Y030893D01*
X015896Y030831D02*
X015896Y031271D01*
X015896Y031271D01*
X015896Y030831D01*
X015896Y031052D02*
X015896Y031052D01*
X015896Y031210D02*
X015896Y031210D01*
X015896Y031369D02*
X015896Y031369D01*
X015896Y031527D02*
X015896Y031527D01*
X016254Y031527D02*
X016317Y031527D01*
X016298Y031052D02*
X016278Y031052D01*
X016122Y030893D02*
X016447Y030893D01*
X016920Y030893D02*
X017234Y030893D01*
X017085Y031052D02*
X017068Y031052D01*
X017707Y030893D02*
X018021Y030893D01*
X017873Y031052D02*
X017856Y031052D01*
X018494Y030893D02*
X018809Y030893D01*
X018660Y031052D02*
X018643Y031052D01*
X019282Y030893D02*
X019596Y030893D01*
X019448Y031052D02*
X019431Y031052D01*
X020069Y030893D02*
X020384Y030893D01*
X020235Y031052D02*
X020218Y031052D01*
X020857Y030893D02*
X021171Y030893D01*
X021319Y030735D02*
X007676Y030735D01*
X007636Y030576D02*
X021160Y030576D01*
X021002Y030418D02*
X007541Y030418D01*
X007692Y030259D02*
X007308Y030259D01*
X007539Y030106D02*
X007773Y030341D01*
X008105Y030341D01*
X008339Y030106D01*
X008339Y029775D01*
X008105Y029541D01*
X007773Y029541D01*
X007539Y029775D01*
X007539Y030106D01*
X007539Y030100D02*
X001719Y030100D01*
X001719Y029942D02*
X007539Y029942D01*
X007539Y029783D02*
X001719Y029783D01*
X001719Y029625D02*
X005183Y029625D01*
X005187Y029629D02*
X005125Y029567D01*
X005074Y029497D01*
X005034Y029419D01*
X005007Y029336D01*
X004994Y029250D01*
X004994Y029225D01*
X005922Y029225D01*
X005922Y029188D01*
X004994Y029188D01*
X004994Y029163D01*
X005007Y029077D01*
X005034Y028994D01*
X005074Y028916D01*
X005125Y028846D01*
X005187Y028784D01*
X005257Y028733D01*
X005335Y028693D01*
X005418Y028666D01*
X005504Y028653D01*
X005923Y028653D01*
X005923Y029188D01*
X005959Y029188D01*
X005959Y028653D01*
X006378Y028653D01*
X006464Y028666D01*
X006547Y028693D01*
X006625Y028733D01*
X006695Y028784D01*
X006757Y028846D01*
X006808Y028916D01*
X006848Y028994D01*
X006875Y029077D01*
X006888Y029163D01*
X006888Y029188D01*
X005960Y029188D01*
X005960Y029225D01*
X006888Y029225D01*
X006888Y029250D01*
X006875Y029336D01*
X006848Y029419D01*
X006808Y029497D01*
X006757Y029567D01*
X006695Y029629D01*
X006625Y029680D01*
X006547Y029720D01*
X006464Y029747D01*
X006378Y029760D01*
X005959Y029760D01*
X005959Y029225D01*
X005923Y029225D01*
X005923Y029760D01*
X005504Y029760D01*
X005418Y029747D01*
X005335Y029720D01*
X005257Y029680D01*
X005187Y029629D01*
X005058Y029466D02*
X001719Y029466D01*
X001719Y029308D02*
X005003Y029308D01*
X004996Y029149D02*
X001719Y029149D01*
X001719Y028991D02*
X005036Y028991D01*
X005139Y028832D02*
X001719Y028832D01*
X001719Y028674D02*
X005396Y028674D01*
X005923Y028674D02*
X005959Y028674D01*
X005959Y028832D02*
X005923Y028832D01*
X005923Y028991D02*
X005959Y028991D01*
X005959Y029149D02*
X005923Y029149D01*
X005923Y029308D02*
X005959Y029308D01*
X005959Y029466D02*
X005923Y029466D01*
X005923Y029625D02*
X005959Y029625D01*
X006699Y029625D02*
X007689Y029625D01*
X008189Y029625D02*
X012534Y029625D01*
X012692Y029783D02*
X008339Y029783D01*
X008339Y029942D02*
X012789Y029942D01*
X012789Y030100D02*
X008339Y030100D01*
X008186Y030259D02*
X012942Y030259D01*
X013189Y029941D02*
X010439Y027191D01*
X010439Y025691D01*
X009827Y024869D02*
X011199Y024869D01*
X011182Y024860D02*
X011120Y024815D01*
X011065Y024760D01*
X011020Y024698D01*
X010985Y024629D01*
X010961Y024556D01*
X010949Y024479D01*
X010949Y024441D01*
X011439Y024441D01*
X011439Y024931D01*
X011400Y024931D01*
X011324Y024919D01*
X011251Y024895D01*
X011182Y024860D01*
X011029Y024710D02*
X009839Y024710D01*
X009839Y024551D02*
X010960Y024551D01*
X010949Y024441D02*
X010949Y024402D01*
X010961Y024326D01*
X010985Y024253D01*
X011020Y024184D01*
X011065Y024122D01*
X011120Y024067D01*
X011182Y024022D01*
X011251Y023987D01*
X011324Y023963D01*
X011400Y023951D01*
X011439Y023951D01*
X011478Y023951D01*
X011554Y023963D01*
X011627Y023987D01*
X011696Y024022D01*
X011758Y024067D01*
X011813Y024122D01*
X011858Y024184D01*
X011893Y024253D01*
X011917Y024326D01*
X011929Y024402D01*
X011929Y024441D01*
X011929Y024479D01*
X011917Y024556D01*
X011893Y024629D01*
X011858Y024698D01*
X011813Y024760D01*
X011758Y024815D01*
X011696Y024860D01*
X011627Y024895D01*
X011554Y024919D01*
X011478Y024931D01*
X011439Y024931D01*
X011439Y024441D01*
X011439Y024441D01*
X011439Y024441D01*
X011929Y024441D01*
X011439Y024441D01*
X011439Y024441D01*
X010949Y024441D01*
X010951Y024393D02*
X009707Y024393D01*
X009439Y024691D02*
X008189Y024691D01*
X004814Y021316D01*
X004814Y015816D01*
X005814Y014816D01*
X011564Y014816D01*
X011939Y015191D01*
X013689Y015191D01*
X014189Y014691D01*
X014939Y014691D01*
X016189Y015941D01*
X017439Y015941D01*
X017939Y015441D01*
X018689Y015441D01*
X020189Y013941D01*
X019699Y013929D02*
X019679Y013929D01*
X019699Y013978D02*
X019699Y013738D01*
X019986Y013451D01*
X020392Y013451D01*
X020679Y013738D01*
X020679Y014144D01*
X020392Y014431D01*
X020152Y014431D01*
X019792Y014791D01*
X019855Y014791D01*
X020089Y015025D01*
X020089Y015191D01*
X020089Y015356D01*
X020821Y015356D01*
X020869Y015308D02*
X020869Y014314D01*
X020699Y014144D01*
X020699Y013738D01*
X020986Y013451D01*
X021392Y013451D01*
X021679Y013738D01*
X021679Y014144D01*
X021509Y014314D01*
X021509Y014711D01*
X021888Y014711D01*
X022169Y014992D01*
X022169Y015390D01*
X021888Y015671D01*
X021490Y015671D01*
X021451Y015631D01*
X020960Y016122D01*
X020870Y016212D01*
X020817Y016234D01*
X020961Y016294D01*
X021096Y016429D01*
X021169Y016605D01*
X021169Y017276D01*
X021096Y017453D01*
X020961Y017588D01*
X020785Y017661D01*
X020594Y017661D01*
X020417Y017588D01*
X020282Y017453D01*
X020209Y017276D01*
X020209Y016605D01*
X020282Y016429D01*
X020417Y016294D01*
X020497Y016261D01*
X019881Y016261D01*
X019961Y016294D01*
X020096Y016429D01*
X020169Y016605D01*
X020169Y017276D01*
X020096Y017453D01*
X019961Y017588D01*
X019785Y017661D01*
X019594Y017661D01*
X019417Y017588D01*
X019282Y017453D01*
X019209Y017276D01*
X019209Y017261D01*
X018688Y017261D01*
X018919Y017492D01*
X018919Y017777D01*
X021400Y017777D01*
X021539Y017638D01*
X021417Y017588D01*
X021282Y017453D01*
X021209Y017276D01*
X021209Y016605D01*
X021282Y016429D01*
X021417Y016294D01*
X021594Y016221D01*
X021785Y016221D01*
X021961Y016294D01*
X022096Y016429D01*
X022169Y016605D01*
X022169Y017008D01*
X022209Y016968D01*
X022209Y016605D01*
X022282Y016429D01*
X022417Y016294D01*
X022594Y016221D01*
X022785Y016221D01*
X022869Y016256D01*
X022869Y014754D01*
X022869Y014627D01*
X022918Y014509D01*
X022997Y014431D01*
X022736Y014431D01*
X022449Y014144D01*
X022449Y013738D01*
X022619Y013568D01*
X022619Y013504D01*
X022619Y013421D01*
X022490Y013421D01*
X022209Y013140D01*
X022209Y012742D01*
X022440Y012511D01*
X021938Y012511D01*
X022169Y012742D01*
X022169Y013140D01*
X021888Y013421D01*
X021490Y013421D01*
X021209Y013140D01*
X021209Y012742D01*
X021440Y012511D01*
X017938Y012511D01*
X018169Y012742D01*
X018169Y013140D01*
X017888Y013421D01*
X017490Y013421D01*
X017209Y013140D01*
X017209Y012742D01*
X017440Y012511D01*
X016938Y012511D01*
X017169Y012742D01*
X017169Y013140D01*
X016888Y013421D01*
X016747Y013421D01*
X016881Y013556D01*
X016986Y013451D01*
X017392Y013451D01*
X017679Y013738D01*
X017679Y014144D01*
X017392Y014431D01*
X016986Y014431D01*
X016816Y014261D01*
X016750Y014261D01*
X016633Y014212D01*
X016622Y014201D01*
X016392Y014431D01*
X015986Y014431D01*
X015699Y014144D01*
X015699Y013738D01*
X015929Y013508D01*
X015431Y013011D01*
X013822Y013011D01*
X013120Y013712D01*
X013003Y013761D01*
X012875Y013761D01*
X011375Y013761D01*
X011258Y013712D01*
X011168Y013622D01*
X010806Y013261D01*
X010322Y013261D01*
X009870Y013712D01*
X009753Y013761D01*
X009625Y013761D01*
X009075Y013761D01*
X009089Y013775D01*
X009089Y013941D01*
X009089Y014106D01*
X009075Y014121D01*
X010209Y014121D01*
X010209Y013742D01*
X010490Y013461D01*
X010888Y013461D01*
X011169Y013742D01*
X011169Y014121D01*
X011625Y014121D01*
X011753Y014121D01*
X011789Y014136D01*
X011789Y014025D01*
X012023Y013791D01*
X012189Y013791D01*
X012355Y013791D01*
X012589Y014025D01*
X012589Y014191D01*
X012589Y014356D01*
X012575Y014371D01*
X013306Y014371D01*
X013699Y013978D01*
X013699Y013738D01*
X013986Y013451D01*
X014392Y013451D01*
X014679Y013738D01*
X014679Y014144D01*
X014452Y014371D01*
X014926Y014371D01*
X014699Y014144D01*
X014699Y013738D01*
X014986Y013451D01*
X015392Y013451D01*
X015679Y013738D01*
X015679Y014144D01*
X015392Y014431D01*
X015132Y014431D01*
X015210Y014509D01*
X016322Y015621D01*
X016440Y015621D01*
X016209Y015390D01*
X016209Y014992D01*
X016490Y014711D01*
X016888Y014711D01*
X017169Y014992D01*
X017169Y015390D01*
X016938Y015621D01*
X017306Y015621D01*
X017758Y015169D01*
X017875Y015121D01*
X018003Y015121D01*
X018556Y015121D01*
X019247Y014431D01*
X018986Y014431D01*
X018699Y014144D01*
X018699Y013738D01*
X018986Y013451D01*
X019392Y013451D01*
X019679Y013738D01*
X019679Y013998D01*
X019699Y013978D01*
X019679Y013770D02*
X019699Y013770D01*
X019825Y013612D02*
X019553Y013612D01*
X019395Y013453D02*
X019984Y013453D01*
X020395Y013453D02*
X020984Y013453D01*
X020825Y013612D02*
X020553Y013612D01*
X020679Y013770D02*
X020699Y013770D01*
X020699Y013929D02*
X020679Y013929D01*
X020679Y014088D02*
X020699Y014088D01*
X020801Y014246D02*
X020577Y014246D01*
X020418Y014405D02*
X020869Y014405D01*
X020869Y014563D02*
X020019Y014563D01*
X019861Y014722D02*
X020869Y014722D01*
X020869Y014880D02*
X019944Y014880D01*
X020089Y015039D02*
X020869Y015039D01*
X020869Y015197D02*
X020089Y015197D01*
X020089Y015191D02*
X019689Y015191D01*
X019689Y015591D01*
X019523Y015591D01*
X019289Y015356D01*
X019226Y015356D01*
X019289Y015356D02*
X019289Y015293D01*
X018962Y015621D01*
X020556Y015621D01*
X020869Y015308D01*
X020663Y015514D02*
X019931Y015514D01*
X019855Y015591D02*
X019689Y015591D01*
X019689Y015191D01*
X019689Y015191D01*
X019689Y015191D01*
X020089Y015191D01*
X020089Y015356D02*
X019855Y015591D01*
X019689Y015514D02*
X019689Y015514D01*
X019689Y015356D02*
X019689Y015356D01*
X019689Y015197D02*
X019689Y015197D01*
X019447Y015514D02*
X019068Y015514D01*
X018638Y015039D02*
X017169Y015039D01*
X017169Y015197D02*
X017730Y015197D01*
X017571Y015356D02*
X017169Y015356D01*
X017044Y015514D02*
X017413Y015514D01*
X017057Y014880D02*
X018797Y014880D01*
X018956Y014722D02*
X016899Y014722D01*
X016960Y014405D02*
X016418Y014405D01*
X016577Y014246D02*
X016715Y014246D01*
X016814Y013941D02*
X017189Y013941D01*
X016814Y013941D02*
X015564Y012691D01*
X013689Y012691D01*
X012939Y013441D01*
X011439Y013441D01*
X010939Y012941D01*
X010189Y012941D01*
X009689Y013441D01*
X008439Y013441D01*
X007939Y013941D01*
X006439Y013941D01*
X005939Y013441D01*
X004939Y013441D01*
X004189Y014191D01*
X004189Y021191D01*
X004502Y021378D02*
X004189Y021691D01*
X004189Y022316D01*
X007064Y025191D01*
X016114Y025191D01*
X022195Y031271D01*
X022195Y028185D01*
X022439Y027941D01*
X024689Y027941D01*
X025067Y027881D02*
X025160Y027881D01*
X025005Y027722D02*
X025318Y027722D01*
X025477Y027564D02*
X024767Y027564D01*
X024611Y027564D02*
X018827Y027564D01*
X018985Y027722D02*
X022339Y027722D01*
X022160Y027881D02*
X019144Y027881D01*
X019302Y028039D02*
X022001Y028039D01*
X021955Y028198D02*
X019461Y028198D01*
X019619Y028356D02*
X021955Y028356D01*
X021955Y028515D02*
X019778Y028515D01*
X019936Y028674D02*
X021955Y028674D01*
X021955Y028832D02*
X020095Y028832D01*
X020253Y028991D02*
X021955Y028991D01*
X021955Y029149D02*
X020412Y029149D01*
X020571Y029308D02*
X021955Y029308D01*
X021955Y029466D02*
X020729Y029466D01*
X020888Y029625D02*
X021955Y029625D01*
X021955Y029783D02*
X021046Y029783D01*
X021205Y029942D02*
X021955Y029942D01*
X021955Y030100D02*
X021363Y030100D01*
X021522Y030259D02*
X021955Y030259D01*
X021955Y030418D02*
X021680Y030418D01*
X021839Y030576D02*
X021955Y030576D01*
X021408Y031271D02*
X021408Y031909D01*
X021689Y032191D01*
X022939Y032191D01*
X025189Y029941D01*
X025189Y028191D01*
X026689Y026691D01*
X026428Y026612D02*
X017875Y026612D01*
X018034Y026771D02*
X026269Y026771D01*
X026111Y026930D02*
X018192Y026930D01*
X018351Y027088D02*
X025952Y027088D01*
X025794Y027247D02*
X018509Y027247D01*
X018668Y027405D02*
X025635Y027405D01*
X026262Y028198D02*
X028592Y028198D01*
X028434Y028356D02*
X026339Y028356D01*
X026339Y028515D02*
X028275Y028515D01*
X028117Y028674D02*
X026272Y028674D01*
X025756Y029308D02*
X025429Y029308D01*
X025429Y029466D02*
X025598Y029466D01*
X025539Y029625D02*
X025429Y029625D01*
X025429Y029783D02*
X025507Y029783D01*
X025869Y030100D02*
X026690Y030100D01*
X026531Y030259D02*
X025710Y030259D01*
X025552Y030418D02*
X026373Y030418D01*
X026214Y030576D02*
X025393Y030576D01*
X025235Y030735D02*
X026056Y030735D01*
X025897Y030893D02*
X025076Y030893D01*
X024918Y031052D02*
X025739Y031052D01*
X025580Y031210D02*
X024759Y031210D01*
X024600Y031369D02*
X025422Y031369D01*
X025263Y031527D02*
X024442Y031527D01*
X024283Y031686D02*
X025105Y031686D01*
X024946Y031844D02*
X024125Y031844D01*
X023966Y032003D02*
X024787Y032003D01*
X024629Y032161D02*
X023808Y032161D01*
X023649Y032320D02*
X024470Y032320D01*
X024312Y032479D02*
X023491Y032479D01*
X023465Y032637D02*
X023913Y032637D01*
X023779Y032796D02*
X023599Y032796D01*
X023599Y032954D02*
X023779Y032954D01*
X023781Y033113D02*
X023597Y033113D01*
X023438Y033271D02*
X023940Y033271D01*
X023189Y033271D02*
X023189Y033271D01*
X023189Y033113D02*
X023189Y033113D01*
X023189Y032954D02*
X023189Y032954D01*
X022940Y033271D02*
X022438Y033271D01*
X022597Y033113D02*
X022781Y033113D01*
X022779Y032954D02*
X022599Y032954D01*
X022599Y032796D02*
X022779Y032796D01*
X022189Y032954D02*
X022189Y032954D01*
X022189Y033113D02*
X022189Y033113D01*
X022189Y033271D02*
X022189Y033271D01*
X021940Y033271D02*
X021438Y033271D01*
X021597Y033113D02*
X021781Y033113D01*
X021779Y032954D02*
X021599Y032954D01*
X021599Y032796D02*
X021779Y032796D01*
X020940Y033271D02*
X019438Y033271D01*
X019359Y033351D02*
X019019Y033351D01*
X018779Y033111D01*
X018779Y032771D01*
X019019Y032531D01*
X019359Y032531D01*
X019599Y032771D01*
X019599Y033111D01*
X019359Y033351D01*
X019597Y033113D02*
X020781Y033113D01*
X020779Y032954D02*
X019599Y032954D01*
X019599Y032796D02*
X020779Y032796D01*
X020046Y032637D02*
X019465Y032637D01*
X019729Y032320D02*
X001772Y032320D01*
X001736Y032161D02*
X019570Y032161D01*
X019412Y032003D02*
X007471Y032003D01*
X007607Y031844D02*
X019253Y031844D01*
X019887Y032479D02*
X001809Y032479D01*
X001877Y032637D02*
X013913Y032637D01*
X014019Y032531D02*
X013779Y032771D01*
X013779Y033111D01*
X014019Y033351D01*
X014359Y033351D01*
X014599Y033111D01*
X014599Y032771D01*
X014359Y032531D01*
X014019Y032531D01*
X013779Y032796D02*
X001954Y032796D01*
X002061Y032954D02*
X013779Y032954D01*
X013781Y033113D02*
X002187Y033113D01*
X002366Y033271D02*
X013940Y033271D01*
X014438Y033271D02*
X014940Y033271D01*
X015019Y033351D02*
X014779Y033111D01*
X014779Y032771D01*
X015019Y032531D01*
X015359Y032531D01*
X015599Y032771D01*
X015599Y033111D01*
X015359Y033351D01*
X015019Y033351D01*
X014781Y033113D02*
X014597Y033113D01*
X014599Y032954D02*
X014779Y032954D01*
X014779Y032796D02*
X014599Y032796D01*
X014465Y032637D02*
X014913Y032637D01*
X015465Y032637D02*
X015913Y032637D01*
X016019Y032531D02*
X015779Y032771D01*
X015779Y033111D01*
X016019Y033351D01*
X016359Y033351D01*
X016599Y033111D01*
X016599Y032771D01*
X016359Y032531D01*
X016019Y032531D01*
X015779Y032796D02*
X015599Y032796D01*
X015599Y032954D02*
X015779Y032954D01*
X015781Y033113D02*
X015597Y033113D01*
X015438Y033271D02*
X015940Y033271D01*
X016438Y033271D02*
X016940Y033271D01*
X017019Y033351D02*
X016779Y033111D01*
X016779Y032771D01*
X017019Y032531D01*
X017359Y032531D01*
X017599Y032771D01*
X017599Y033111D01*
X017359Y033351D01*
X017019Y033351D01*
X016781Y033113D02*
X016597Y033113D01*
X016599Y032954D02*
X016779Y032954D01*
X016779Y032796D02*
X016599Y032796D01*
X016465Y032637D02*
X016913Y032637D01*
X017465Y032637D02*
X017913Y032637D01*
X018019Y032531D02*
X017779Y032771D01*
X017779Y033111D01*
X018019Y033351D01*
X018359Y033351D01*
X018599Y033111D01*
X018599Y032771D01*
X018359Y032531D01*
X018019Y032531D01*
X017779Y032796D02*
X017599Y032796D01*
X017599Y032954D02*
X017779Y032954D01*
X017781Y033113D02*
X017597Y033113D01*
X017438Y033271D02*
X017940Y033271D01*
X018438Y033271D02*
X018940Y033271D01*
X018781Y033113D02*
X018597Y033113D01*
X018599Y032954D02*
X018779Y032954D01*
X018779Y032796D02*
X018599Y032796D01*
X018465Y032637D02*
X018913Y032637D01*
X021005Y031052D02*
X021022Y031052D01*
X020843Y030259D02*
X017436Y030259D01*
X017355Y030341D02*
X017023Y030341D01*
X016789Y030106D01*
X016789Y029775D01*
X017023Y029541D01*
X017355Y029541D01*
X017589Y029775D01*
X017589Y030106D01*
X017355Y030341D01*
X017589Y030100D02*
X020685Y030100D01*
X020526Y029942D02*
X017589Y029942D01*
X017589Y029783D02*
X020367Y029783D01*
X020209Y029625D02*
X017439Y029625D01*
X016939Y029625D02*
X013439Y029625D01*
X013589Y029783D02*
X016789Y029783D01*
X016789Y029942D02*
X013589Y029942D01*
X013589Y030100D02*
X016789Y030100D01*
X016942Y030259D02*
X013436Y030259D01*
X013054Y029466D02*
X020050Y029466D01*
X019892Y029308D02*
X012895Y029308D01*
X012737Y029149D02*
X019733Y029149D01*
X019575Y028991D02*
X017455Y028991D01*
X017355Y029091D02*
X017023Y029091D01*
X016789Y028856D01*
X016789Y028525D01*
X017023Y028291D01*
X017355Y028291D01*
X017589Y028525D01*
X017589Y028856D01*
X017355Y029091D01*
X017589Y028832D02*
X019416Y028832D01*
X019258Y028674D02*
X017589Y028674D01*
X017579Y028515D02*
X019099Y028515D01*
X018941Y028356D02*
X017420Y028356D01*
X016958Y028356D02*
X013420Y028356D01*
X013355Y028291D02*
X013589Y028525D01*
X013589Y028691D01*
X013589Y028856D01*
X013355Y029091D01*
X013189Y029091D01*
X013023Y029091D01*
X012789Y028856D01*
X012789Y028691D01*
X013189Y028691D01*
X013189Y029091D01*
X013189Y028691D01*
X013189Y028691D01*
X013189Y028691D01*
X013589Y028691D01*
X013189Y028691D01*
X013189Y028691D01*
X012789Y028691D01*
X012789Y028525D01*
X013023Y028291D01*
X013189Y028291D01*
X013355Y028291D01*
X013189Y028291D02*
X013189Y028690D01*
X013189Y028690D01*
X013189Y028291D01*
X013189Y028356D02*
X013189Y028356D01*
X013189Y028515D02*
X013189Y028515D01*
X013189Y028674D02*
X013189Y028674D01*
X013189Y028832D02*
X013189Y028832D01*
X013189Y028991D02*
X013189Y028991D01*
X012923Y028991D02*
X012578Y028991D01*
X012420Y028832D02*
X012789Y028832D01*
X012789Y028674D02*
X012261Y028674D01*
X012103Y028515D02*
X012799Y028515D01*
X012958Y028356D02*
X011944Y028356D01*
X011786Y028198D02*
X018782Y028198D01*
X018623Y028039D02*
X011627Y028039D01*
X011469Y027881D02*
X018465Y027881D01*
X018306Y027722D02*
X011310Y027722D01*
X011151Y027564D02*
X018148Y027564D01*
X016799Y028515D02*
X013579Y028515D01*
X013589Y028674D02*
X016789Y028674D01*
X016789Y028832D02*
X013589Y028832D01*
X013455Y028991D02*
X016923Y028991D01*
X013939Y027247D02*
X013939Y027247D01*
X013939Y027088D02*
X013939Y027088D01*
X013939Y026930D02*
X013939Y026930D01*
X013939Y026771D02*
X013939Y026771D01*
X013939Y026612D02*
X013939Y026612D01*
X013479Y026771D02*
X010679Y026771D01*
X010679Y026930D02*
X013449Y026930D01*
X013472Y027088D02*
X010679Y027088D01*
X010834Y027247D02*
X013556Y027247D01*
X011582Y028674D02*
X006486Y028674D01*
X006743Y028832D02*
X011741Y028832D01*
X011899Y028991D02*
X006846Y028991D01*
X006886Y029149D02*
X012058Y029149D01*
X012217Y029308D02*
X006879Y029308D01*
X006824Y029466D02*
X012375Y029466D01*
X011424Y028515D02*
X001719Y028515D01*
X001719Y028039D02*
X007539Y028039D01*
X007539Y027881D02*
X001719Y027881D01*
X001719Y027722D02*
X002391Y027722D01*
X002279Y027611D02*
X002279Y027441D01*
X002689Y027441D01*
X002689Y027851D01*
X002519Y027851D01*
X002279Y027611D01*
X002279Y027564D02*
X001719Y027564D01*
X001719Y027405D02*
X002279Y027405D01*
X002279Y027441D02*
X002279Y027271D01*
X002519Y027031D01*
X002689Y027031D01*
X002859Y027031D01*
X003099Y027271D01*
X003099Y027441D01*
X003099Y027611D01*
X002859Y027851D01*
X002689Y027851D01*
X002689Y027441D01*
X002689Y027441D01*
X002689Y027441D01*
X003099Y027441D01*
X002689Y027441D01*
X002689Y027441D01*
X002279Y027441D01*
X002303Y027247D02*
X001719Y027247D01*
X001719Y027088D02*
X002462Y027088D01*
X002689Y027088D02*
X002689Y027088D01*
X002689Y027031D02*
X002689Y027440D01*
X002689Y027440D01*
X002689Y027031D01*
X002689Y027247D02*
X002689Y027247D01*
X002689Y027405D02*
X002689Y027405D01*
X002689Y027564D02*
X002689Y027564D01*
X002689Y027722D02*
X002689Y027722D01*
X002987Y027722D02*
X007592Y027722D01*
X007750Y027564D02*
X005632Y027564D01*
X005605Y027591D02*
X005273Y027591D01*
X005039Y027356D01*
X005039Y027025D01*
X005273Y026791D01*
X005605Y026791D01*
X005839Y027025D01*
X005839Y027356D01*
X005605Y027591D01*
X005790Y027405D02*
X009088Y027405D01*
X009039Y027247D02*
X005839Y027247D01*
X005839Y027088D02*
X009039Y027088D01*
X009135Y026930D02*
X005743Y026930D01*
X005135Y026930D02*
X001719Y026930D01*
X001719Y026771D02*
X002439Y026771D01*
X002281Y026612D02*
X001719Y026612D01*
X001719Y026454D02*
X002279Y026454D01*
X002279Y026295D02*
X001719Y026295D01*
X001719Y026137D02*
X002413Y026137D01*
X002519Y025851D02*
X002279Y025611D01*
X002279Y025441D01*
X002689Y025441D01*
X002689Y025851D01*
X002519Y025851D01*
X002488Y025820D02*
X001719Y025820D01*
X001719Y025978D02*
X005039Y025978D01*
X005039Y025820D02*
X002890Y025820D01*
X002859Y025851D02*
X002689Y025851D01*
X002689Y025441D01*
X002689Y025441D01*
X002689Y025441D01*
X003099Y025441D01*
X003099Y025611D01*
X002859Y025851D01*
X002689Y025820D02*
X002689Y025820D01*
X002689Y025661D02*
X002689Y025661D01*
X002689Y025503D02*
X002689Y025503D01*
X002689Y025441D02*
X002689Y025441D01*
X002279Y025441D01*
X002279Y025271D01*
X002519Y025031D01*
X002689Y025031D01*
X002859Y025031D01*
X003099Y025271D01*
X003099Y025441D01*
X002689Y025441D01*
X002689Y025440D02*
X002689Y025031D01*
X002689Y025440D01*
X002689Y025440D01*
X002689Y025344D02*
X002689Y025344D01*
X002689Y025186D02*
X002689Y025186D01*
X002364Y025186D02*
X001719Y025186D01*
X001719Y025344D02*
X002279Y025344D01*
X002279Y025503D02*
X001719Y025503D01*
X001719Y025661D02*
X002330Y025661D01*
X003048Y025661D02*
X005153Y025661D01*
X005287Y025503D02*
X003099Y025503D01*
X003099Y025344D02*
X005128Y025344D01*
X004969Y025186D02*
X003014Y025186D01*
X002859Y024851D02*
X002519Y024851D01*
X002279Y024611D01*
X002279Y024271D01*
X002519Y024031D01*
X002859Y024031D01*
X003099Y024271D01*
X003099Y024611D01*
X002859Y024851D01*
X003000Y024710D02*
X004494Y024710D01*
X004652Y024869D02*
X001719Y024869D01*
X001719Y025027D02*
X004811Y025027D01*
X005014Y024551D02*
X005039Y024551D01*
X005171Y024393D02*
X004855Y024393D01*
X004697Y024234D02*
X005768Y024234D01*
X005707Y024393D02*
X005927Y024393D01*
X005839Y024551D02*
X006085Y024551D01*
X006244Y024710D02*
X005839Y024710D01*
X005827Y024869D02*
X006402Y024869D01*
X006561Y025027D02*
X005668Y025027D01*
X005648Y025186D02*
X006719Y025186D01*
X006878Y025344D02*
X005807Y025344D01*
X005069Y026137D02*
X002965Y026137D01*
X002916Y027088D02*
X005039Y027088D01*
X005039Y027247D02*
X003075Y027247D01*
X003099Y027405D02*
X005088Y027405D01*
X005246Y027564D02*
X003099Y027564D01*
X002378Y024710D02*
X001719Y024710D01*
X001719Y024551D02*
X002279Y024551D01*
X002279Y024393D02*
X001719Y024393D01*
X001719Y024234D02*
X002316Y024234D01*
X002474Y024076D02*
X001719Y024076D01*
X001719Y023917D02*
X003701Y023917D01*
X003543Y023759D02*
X002951Y023759D01*
X002859Y023851D02*
X003099Y023611D01*
X003099Y023441D01*
X002689Y023441D01*
X002689Y023851D01*
X002519Y023851D01*
X002279Y023611D01*
X002279Y023441D01*
X002689Y023441D01*
X002689Y023441D01*
X002689Y023851D01*
X002859Y023851D01*
X002689Y023759D02*
X002689Y023759D01*
X002689Y023600D02*
X002689Y023600D01*
X002689Y023442D02*
X002689Y023442D01*
X002689Y023441D02*
X002689Y023441D01*
X002689Y023441D01*
X002279Y023441D01*
X002279Y023271D01*
X002519Y023031D01*
X002689Y023031D01*
X002859Y023031D01*
X003099Y023271D01*
X003099Y023441D01*
X002689Y023441D01*
X002689Y023440D02*
X002689Y023031D01*
X002689Y023440D01*
X002689Y023440D01*
X002689Y023283D02*
X002689Y023283D01*
X002689Y023125D02*
X002689Y023125D01*
X002425Y023125D02*
X001719Y023125D01*
X001719Y023283D02*
X002279Y023283D01*
X002279Y023442D02*
X001719Y023442D01*
X001719Y023600D02*
X002279Y023600D01*
X002427Y023759D02*
X001719Y023759D01*
X001719Y022966D02*
X003449Y022966D01*
X003449Y023125D02*
X002953Y023125D01*
X003099Y023283D02*
X003449Y023283D01*
X003449Y023442D02*
X003099Y023442D01*
X003099Y023600D02*
X003449Y023600D01*
X003929Y023442D02*
X004289Y023442D01*
X004289Y023600D02*
X004063Y023600D01*
X004221Y023759D02*
X004441Y023759D01*
X004380Y023917D02*
X005451Y023917D01*
X005293Y023759D02*
X004937Y023759D01*
X005089Y023600D02*
X005134Y023600D01*
X005610Y024076D02*
X004538Y024076D01*
X004177Y024393D02*
X003099Y024393D01*
X003099Y024551D02*
X004335Y024551D01*
X004018Y024234D02*
X003062Y024234D01*
X002904Y024076D02*
X003860Y024076D01*
X003929Y023283D02*
X004289Y023283D01*
X004440Y023125D02*
X003929Y023125D01*
X003929Y022966D02*
X004500Y022966D01*
X004341Y022807D02*
X003929Y022807D01*
X003929Y022649D02*
X004183Y022649D01*
X004024Y022490D02*
X003929Y022490D01*
X003929Y022332D02*
X003949Y022332D01*
X003949Y022173D02*
X003929Y022173D01*
X003929Y022015D02*
X003949Y022015D01*
X003949Y021856D02*
X003929Y021856D01*
X003449Y021856D02*
X001719Y021856D01*
X001719Y021698D02*
X002366Y021698D01*
X002689Y021698D02*
X002689Y021698D01*
X002689Y021691D02*
X002689Y021851D01*
X002689Y021691D01*
X002689Y021691D01*
X003012Y021698D02*
X003449Y021698D01*
X003449Y022015D02*
X001719Y022015D01*
X001719Y022173D02*
X002377Y022173D01*
X002279Y022271D02*
X002519Y022031D01*
X002859Y022031D01*
X003099Y022271D01*
X003099Y022611D01*
X002859Y022851D01*
X002519Y022851D01*
X002279Y022611D01*
X002279Y022271D01*
X002279Y022332D02*
X001719Y022332D01*
X001719Y022490D02*
X002279Y022490D01*
X002317Y022649D02*
X001719Y022649D01*
X001719Y022807D02*
X002476Y022807D01*
X002902Y022807D02*
X003449Y022807D01*
X003449Y022649D02*
X003061Y022649D01*
X003099Y022490D02*
X003449Y022490D01*
X003449Y022332D02*
X003099Y022332D01*
X003001Y022173D02*
X003449Y022173D01*
X004502Y021378D02*
X004502Y015628D01*
X004564Y015566D01*
X004564Y015566D01*
X004939Y015191D01*
X004939Y015191D01*
X005689Y014441D01*
X011689Y014441D01*
X011939Y014691D01*
X013439Y014691D01*
X014189Y013941D01*
X013699Y013929D02*
X012493Y013929D01*
X012589Y014088D02*
X013590Y014088D01*
X013431Y014246D02*
X012589Y014246D01*
X012589Y014191D02*
X012189Y014191D01*
X012189Y014191D01*
X012589Y014191D01*
X012189Y014190D02*
X012189Y013791D01*
X012189Y014190D01*
X012189Y014190D01*
X012189Y014088D02*
X012189Y014088D01*
X012189Y013929D02*
X012189Y013929D01*
X011885Y013929D02*
X011169Y013929D01*
X011169Y014088D02*
X011789Y014088D01*
X011169Y013770D02*
X013699Y013770D01*
X013825Y013612D02*
X013220Y013612D01*
X013379Y013453D02*
X013984Y013453D01*
X014395Y013453D02*
X014984Y013453D01*
X014825Y013612D02*
X014553Y013612D01*
X014679Y013770D02*
X014699Y013770D01*
X014699Y013929D02*
X014679Y013929D01*
X014679Y014088D02*
X014699Y014088D01*
X014801Y014246D02*
X014577Y014246D01*
X015264Y014563D02*
X019114Y014563D01*
X018960Y014405D02*
X018418Y014405D01*
X018392Y014431D02*
X017986Y014431D01*
X017699Y014144D01*
X017699Y013738D01*
X017986Y013451D01*
X018392Y013451D01*
X018679Y013738D01*
X018679Y014144D01*
X018392Y014431D01*
X018577Y014246D02*
X018801Y014246D01*
X018699Y014088D02*
X018679Y014088D01*
X018679Y013929D02*
X018699Y013929D01*
X018699Y013770D02*
X018679Y013770D01*
X018553Y013612D02*
X018825Y013612D01*
X018984Y013453D02*
X018395Y013453D01*
X018169Y013136D02*
X021209Y013136D01*
X021209Y012978D02*
X018169Y012978D01*
X018169Y012819D02*
X021209Y012819D01*
X021290Y012661D02*
X018088Y012661D01*
X018014Y013295D02*
X021364Y013295D01*
X021395Y013453D02*
X022619Y013453D01*
X022575Y013612D02*
X021553Y013612D01*
X021679Y013770D02*
X022449Y013770D01*
X022449Y013929D02*
X021679Y013929D01*
X021679Y014088D02*
X022449Y014088D01*
X022551Y014246D02*
X021577Y014246D01*
X021509Y014405D02*
X022710Y014405D01*
X022896Y014563D02*
X021509Y014563D01*
X021899Y014722D02*
X022869Y014722D01*
X022869Y014880D02*
X022057Y014880D01*
X022169Y015039D02*
X022869Y015039D01*
X022869Y015197D02*
X022169Y015197D01*
X022169Y015356D02*
X022869Y015356D01*
X022869Y015514D02*
X022044Y015514D01*
X021409Y015673D02*
X022869Y015673D01*
X022869Y015832D02*
X021251Y015832D01*
X021092Y015990D02*
X022869Y015990D01*
X022869Y016149D02*
X020934Y016149D01*
X020960Y016122D02*
X020960Y016122D01*
X020974Y016307D02*
X021404Y016307D01*
X021267Y016466D02*
X021111Y016466D01*
X021169Y016624D02*
X021209Y016624D01*
X021209Y016783D02*
X021169Y016783D01*
X021169Y016941D02*
X021209Y016941D01*
X021209Y017100D02*
X021169Y017100D01*
X021169Y017258D02*
X021209Y017258D01*
X021267Y017417D02*
X021111Y017417D01*
X020973Y017576D02*
X021405Y017576D01*
X021443Y017734D02*
X018919Y017734D01*
X018919Y017576D02*
X019405Y017576D01*
X019267Y017417D02*
X018844Y017417D01*
X019689Y016941D02*
X006689Y016941D01*
X005939Y017691D01*
X005966Y017211D02*
X005759Y017211D01*
X005759Y016826D01*
X005773Y016841D01*
X005939Y016841D01*
X005939Y016441D01*
X005939Y016441D01*
X005939Y016841D01*
X006105Y016841D01*
X006339Y016606D01*
X006339Y016441D01*
X005939Y016441D01*
X005939Y016441D01*
X006339Y016441D01*
X006339Y016275D01*
X006105Y016041D01*
X006042Y016041D01*
X006072Y016011D01*
X009690Y016011D01*
X009459Y016242D01*
X009459Y016621D01*
X006625Y016621D01*
X006508Y016669D01*
X006418Y016759D01*
X005966Y017211D01*
X006077Y017100D02*
X005759Y017100D01*
X005759Y016941D02*
X006236Y016941D01*
X006163Y016783D02*
X006394Y016783D01*
X006321Y016624D02*
X006617Y016624D01*
X006339Y016466D02*
X009459Y016466D01*
X009459Y016307D02*
X006339Y016307D01*
X006213Y016149D02*
X009552Y016149D01*
X010189Y015691D02*
X005939Y015691D01*
X005439Y016191D01*
X005439Y019316D01*
X007314Y021191D01*
X008439Y021191D01*
X009439Y022191D01*
X010689Y023441D01*
X011439Y023441D01*
X011929Y023442D02*
X045659Y023442D01*
X045659Y023600D02*
X011903Y023600D01*
X011814Y023759D02*
X045659Y023759D01*
X045659Y023917D02*
X011569Y023917D01*
X011439Y023951D02*
X011439Y024440D01*
X011439Y024440D01*
X011439Y023951D01*
X011439Y024076D02*
X011439Y024076D01*
X011439Y024234D02*
X011439Y024234D01*
X011439Y024393D02*
X011439Y024393D01*
X011439Y024551D02*
X011439Y024551D01*
X011439Y024710D02*
X011439Y024710D01*
X011439Y024869D02*
X011439Y024869D01*
X011679Y024869D02*
X045659Y024869D01*
X045659Y025027D02*
X016290Y025027D01*
X016448Y025186D02*
X045659Y025186D01*
X045659Y025344D02*
X016607Y025344D01*
X016766Y025503D02*
X045659Y025503D01*
X045659Y025661D02*
X016924Y025661D01*
X017083Y025820D02*
X045659Y025820D01*
X045659Y025978D02*
X017241Y025978D01*
X017383Y023050D02*
X017221Y022983D01*
X017098Y022859D01*
X017077Y022809D01*
X017056Y022859D01*
X016932Y022983D01*
X016771Y023050D01*
X016596Y023050D01*
X016434Y022983D01*
X016310Y022859D01*
X016289Y022809D01*
X016269Y022859D01*
X016145Y022983D01*
X015983Y023050D01*
X015808Y023050D01*
X015646Y022983D01*
X015523Y022859D01*
X015456Y022698D01*
X015456Y022523D01*
X015523Y022361D01*
X015646Y022237D01*
X015808Y022170D01*
X015983Y022170D01*
X016145Y022237D01*
X016269Y022361D01*
X016289Y022411D01*
X016310Y022361D01*
X016434Y022237D01*
X016596Y022170D01*
X016771Y022170D01*
X016932Y022237D01*
X017056Y022361D01*
X017077Y022411D01*
X017098Y022361D01*
X017221Y022237D01*
X017383Y022170D01*
X017558Y022170D01*
X017720Y022237D01*
X017844Y022361D01*
X017864Y022411D01*
X017885Y022361D01*
X018009Y022237D01*
X018170Y022170D01*
X018345Y022170D01*
X018507Y022237D01*
X018631Y022361D01*
X018652Y022411D01*
X018672Y022361D01*
X018796Y022237D01*
X018958Y022170D01*
X019133Y022170D01*
X019295Y022237D01*
X019418Y022361D01*
X019439Y022411D01*
X019460Y022361D01*
X019584Y022237D01*
X019745Y022170D01*
X019920Y022170D01*
X020082Y022237D01*
X020206Y022361D01*
X020226Y022411D01*
X020247Y022361D01*
X020371Y022237D01*
X020533Y022170D01*
X020708Y022170D01*
X020869Y022237D01*
X020993Y022361D01*
X021014Y022411D01*
X021035Y022361D01*
X021158Y022237D01*
X021320Y022170D01*
X021495Y022170D01*
X021657Y022237D01*
X021781Y022361D01*
X021801Y022411D01*
X021822Y022361D01*
X021946Y022237D01*
X022107Y022170D01*
X022282Y022170D01*
X022444Y022237D01*
X022568Y022361D01*
X022589Y022411D01*
X022609Y022361D01*
X022733Y022237D01*
X022895Y022170D01*
X023070Y022170D01*
X023232Y022237D01*
X023355Y022361D01*
X023422Y022523D01*
X023422Y022698D01*
X023355Y022859D01*
X023232Y022983D01*
X023070Y023050D01*
X022895Y023050D01*
X022733Y022983D01*
X022609Y022859D01*
X022589Y022809D01*
X022568Y022859D01*
X022444Y022983D01*
X022282Y023050D01*
X022107Y023050D01*
X021946Y022983D01*
X021822Y022859D01*
X021801Y022809D01*
X021781Y022859D01*
X021657Y022983D01*
X021495Y023050D01*
X021320Y023050D01*
X021158Y022983D01*
X021035Y022859D01*
X021014Y022809D01*
X020993Y022859D01*
X020869Y022983D01*
X020708Y023050D01*
X020533Y023050D01*
X020371Y022983D01*
X020247Y022859D01*
X020226Y022809D01*
X020206Y022859D01*
X020082Y022983D01*
X019920Y023050D01*
X019745Y023050D01*
X019584Y022983D01*
X019460Y022859D01*
X019439Y022809D01*
X019418Y022859D01*
X019295Y022983D01*
X019133Y023050D01*
X018958Y023050D01*
X018796Y022983D01*
X018672Y022859D01*
X018652Y022809D01*
X018631Y022859D01*
X018507Y022983D01*
X018345Y023050D01*
X018170Y023050D01*
X018009Y022983D01*
X017885Y022859D01*
X017864Y022809D01*
X017844Y022859D01*
X017720Y022983D01*
X017558Y023050D01*
X017383Y023050D01*
X017204Y022966D02*
X016949Y022966D01*
X016417Y022966D02*
X016162Y022966D01*
X015629Y022966D02*
X011573Y022966D01*
X011305Y022966D02*
X010554Y022966D01*
X010712Y023125D02*
X011062Y023125D01*
X010395Y022807D02*
X015501Y022807D01*
X015456Y022649D02*
X010237Y022649D01*
X010078Y022490D02*
X015469Y022490D01*
X015552Y022332D02*
X009919Y022332D01*
X009797Y022173D02*
X015800Y022173D01*
X015991Y022173D02*
X016588Y022173D01*
X016778Y022173D02*
X017375Y022173D01*
X017566Y022173D02*
X018163Y022173D01*
X018353Y022173D02*
X018950Y022173D01*
X019141Y022173D02*
X019737Y022173D01*
X019928Y022173D02*
X020525Y022173D01*
X020715Y022173D02*
X021312Y022173D01*
X021503Y022173D02*
X022100Y022173D01*
X022290Y022173D02*
X022887Y022173D01*
X023078Y022173D02*
X025289Y022173D01*
X025289Y022025D02*
X025289Y022356D01*
X025523Y022591D01*
X025855Y022591D01*
X026089Y022356D01*
X026089Y022025D01*
X025855Y021791D01*
X025523Y021791D01*
X025289Y022025D01*
X025299Y022015D02*
X009954Y022015D01*
X010113Y021856D02*
X025458Y021856D01*
X025920Y021856D02*
X029015Y021856D01*
X028856Y021698D02*
X010272Y021698D01*
X010439Y021191D02*
X009439Y022191D01*
X009110Y022332D02*
X009089Y022332D01*
X008955Y022490D02*
X009232Y022490D01*
X009558Y022649D02*
X007737Y022649D01*
X007895Y022807D02*
X009716Y022807D01*
X009875Y022966D02*
X008054Y022966D01*
X008212Y023125D02*
X008440Y023125D01*
X008689Y023441D02*
X008189Y023441D01*
X005127Y020378D01*
X005127Y016003D01*
X005939Y015191D01*
X011439Y015191D01*
X011939Y015691D01*
X014439Y015691D01*
X015189Y016441D01*
X017689Y016441D01*
X018189Y015941D01*
X020689Y015941D01*
X021189Y015441D01*
X021189Y013941D01*
X022014Y013295D02*
X022364Y013295D01*
X022209Y013136D02*
X022169Y013136D01*
X022169Y012978D02*
X022209Y012978D01*
X022209Y012819D02*
X022169Y012819D01*
X022088Y012661D02*
X022290Y012661D01*
X022939Y012191D02*
X004189Y012191D01*
X002314Y014066D01*
X001914Y014246D02*
X001719Y014246D01*
X001719Y014088D02*
X001876Y014088D01*
X001876Y014153D02*
X001876Y013979D01*
X001942Y013817D01*
X002066Y013694D01*
X002227Y013627D01*
X002300Y013627D01*
X002507Y013421D01*
X002490Y013421D01*
X002209Y013140D01*
X002209Y012742D01*
X002490Y012461D01*
X002888Y012461D01*
X003169Y012742D01*
X003169Y012758D01*
X004008Y011919D01*
X004125Y011871D01*
X004253Y011871D01*
X006209Y011871D01*
X006209Y011492D01*
X006490Y011211D01*
X006716Y011211D01*
X006918Y011009D01*
X007008Y010919D01*
X007125Y010871D01*
X007440Y010871D01*
X007209Y010640D01*
X007209Y010242D01*
X007490Y009961D01*
X007888Y009961D01*
X008169Y010242D01*
X008169Y010640D01*
X007938Y010871D01*
X011125Y010871D01*
X011253Y010871D01*
X011370Y010919D01*
X011662Y011211D01*
X011716Y011211D01*
X011918Y011009D01*
X012008Y010919D01*
X012125Y010871D01*
X012440Y010871D01*
X012209Y010640D01*
X012209Y010242D01*
X012490Y009961D01*
X012888Y009961D01*
X013169Y010242D01*
X013169Y010640D01*
X012938Y010871D01*
X016125Y010871D01*
X016253Y010871D01*
X016370Y010919D01*
X016662Y011211D01*
X016716Y011211D01*
X016918Y011009D01*
X017008Y010919D01*
X017125Y010871D01*
X017440Y010871D01*
X017209Y010640D01*
X017209Y010242D01*
X017490Y009961D01*
X017888Y009961D01*
X018169Y010242D01*
X018169Y010640D01*
X017938Y010871D01*
X021125Y010871D01*
X021253Y010871D01*
X021370Y010919D01*
X021662Y011211D01*
X021716Y011211D01*
X021918Y011009D01*
X022008Y010919D01*
X022125Y010871D01*
X022440Y010871D01*
X022209Y010640D01*
X022209Y010242D01*
X022490Y009961D01*
X022888Y009961D01*
X023169Y010242D01*
X023169Y010640D01*
X022938Y010871D01*
X026125Y010871D01*
X026253Y010871D01*
X026370Y010919D01*
X026662Y011211D01*
X026716Y011211D01*
X026918Y011009D01*
X027008Y010919D01*
X027125Y010871D01*
X027440Y010871D01*
X027209Y010640D01*
X027209Y010242D01*
X027490Y009961D01*
X027888Y009961D01*
X028169Y010242D01*
X028169Y010640D01*
X027938Y010871D01*
X031125Y010871D01*
X031253Y010871D01*
X031370Y010919D01*
X031662Y011211D01*
X031716Y011211D01*
X031918Y011009D01*
X032008Y010919D01*
X032125Y010871D01*
X032440Y010871D01*
X032209Y010640D01*
X032209Y010242D01*
X032490Y009961D01*
X032888Y009961D01*
X033169Y010242D01*
X033169Y010640D01*
X032938Y010871D01*
X036125Y010871D01*
X036253Y010871D01*
X036370Y010919D01*
X036662Y011211D01*
X036716Y011211D01*
X036918Y011009D01*
X037008Y010919D01*
X037125Y010871D01*
X037440Y010871D01*
X037209Y010640D01*
X037209Y010242D01*
X037490Y009961D01*
X037888Y009961D01*
X038169Y010242D01*
X038169Y010640D01*
X037938Y010871D01*
X041125Y010871D01*
X041253Y010871D01*
X041370Y010919D01*
X041662Y011211D01*
X041888Y011211D01*
X042169Y011492D01*
X042169Y011890D01*
X042063Y011996D01*
X042128Y011996D01*
X042245Y012044D01*
X042620Y012419D01*
X042710Y012509D01*
X042759Y012627D01*
X042759Y012877D01*
X042759Y013004D01*
X042710Y013122D01*
X041759Y014073D01*
X041759Y018058D01*
X042412Y018711D01*
X042638Y018711D01*
X042919Y018992D01*
X042919Y019390D01*
X042638Y019671D01*
X042240Y019671D01*
X041959Y019390D01*
X041959Y019163D01*
X041168Y018372D01*
X041119Y018254D01*
X041119Y018127D01*
X041119Y014189D01*
X041009Y014300D01*
X041009Y019004D01*
X040960Y019122D01*
X040870Y019212D01*
X039870Y020212D01*
X039753Y020261D01*
X039625Y020261D01*
X038919Y020261D01*
X038919Y020640D01*
X038638Y020921D01*
X038240Y020921D01*
X037959Y020640D01*
X037959Y020623D01*
X037392Y021191D01*
X045659Y021191D01*
X045659Y004941D01*
X045648Y004748D01*
X045563Y004373D01*
X045395Y004026D01*
X045155Y003725D01*
X044854Y003484D01*
X044507Y003317D01*
X044132Y003232D01*
X043939Y003221D01*
X003439Y003221D01*
X003246Y003232D01*
X002871Y003317D01*
X002918Y003307D02*
X044460Y003307D01*
X044814Y003465D02*
X040194Y003465D01*
X040205Y003474D02*
X040266Y003535D01*
X040319Y003603D01*
X040362Y003678D01*
X040395Y003758D01*
X040418Y003842D01*
X040427Y003913D01*
X039827Y003913D01*
X039827Y004029D01*
X039711Y004029D01*
X039711Y004629D01*
X039640Y004619D01*
X039556Y004597D01*
X039476Y004564D01*
X039402Y004521D01*
X039333Y004468D01*
X039272Y004407D01*
X039219Y004338D01*
X039176Y004263D01*
X039143Y004183D01*
X039120Y004100D01*
X039111Y004029D01*
X039711Y004029D01*
X039711Y003913D01*
X039111Y003913D01*
X039120Y003842D01*
X039143Y003758D01*
X039176Y003678D01*
X039219Y003603D01*
X039272Y003535D01*
X039333Y003474D01*
X039402Y003421D01*
X039476Y003378D01*
X039556Y003344D01*
X039640Y003322D01*
X039711Y003313D01*
X039711Y003913D01*
X039827Y003913D01*
X039827Y003313D01*
X039898Y003322D01*
X039982Y003344D01*
X040062Y003378D01*
X040136Y003421D01*
X040205Y003474D01*
X040331Y003624D02*
X045029Y003624D01*
X045201Y003782D02*
X040402Y003782D01*
X040427Y004029D02*
X040418Y004100D01*
X040395Y004183D01*
X040362Y004263D01*
X040319Y004338D01*
X040266Y004407D01*
X040205Y004468D01*
X040136Y004521D01*
X040062Y004564D01*
X039982Y004597D01*
X039898Y004619D01*
X039827Y004629D01*
X039827Y004029D01*
X040427Y004029D01*
X040418Y004099D02*
X045431Y004099D01*
X045507Y004258D02*
X040365Y004258D01*
X040257Y004416D02*
X045573Y004416D01*
X045609Y004575D02*
X041791Y004575D01*
X041756Y004561D02*
X042010Y004666D01*
X042204Y004860D01*
X042309Y005114D01*
X042309Y005388D01*
X042204Y005642D01*
X042010Y005836D01*
X041756Y005941D01*
X041482Y005941D01*
X041411Y005911D01*
X041009Y006313D01*
X041009Y007625D01*
X041018Y007616D01*
X041272Y007511D01*
X041546Y007511D01*
X041800Y007616D01*
X041994Y007810D01*
X042099Y008064D01*
X042099Y008338D01*
X041994Y008592D01*
X041800Y008786D01*
X041546Y008891D01*
X041272Y008891D01*
X041018Y008786D01*
X041009Y008776D01*
X041009Y009082D01*
X041169Y009242D01*
X041169Y009640D01*
X040888Y009921D01*
X040490Y009921D01*
X040209Y009640D01*
X040209Y009242D01*
X040369Y009082D01*
X040369Y006244D01*
X040369Y006117D01*
X040418Y005999D01*
X040958Y005459D01*
X040929Y005388D01*
X040929Y005114D01*
X041034Y004860D01*
X041228Y004666D01*
X041482Y004561D01*
X041756Y004561D01*
X041448Y004575D02*
X040035Y004575D01*
X039827Y004575D02*
X039711Y004575D01*
X039711Y004416D02*
X039827Y004416D01*
X039827Y004258D02*
X039711Y004258D01*
X039711Y004099D02*
X039827Y004099D01*
X039827Y003941D02*
X045328Y003941D01*
X045645Y004734D02*
X042078Y004734D01*
X042217Y004892D02*
X045656Y004892D01*
X045659Y005051D02*
X042283Y005051D01*
X042309Y005209D02*
X045659Y005209D01*
X045659Y005368D02*
X042309Y005368D01*
X042252Y005526D02*
X045659Y005526D01*
X045659Y005685D02*
X042161Y005685D01*
X041992Y005843D02*
X045659Y005843D01*
X045659Y006002D02*
X041321Y006002D01*
X041162Y006160D02*
X045659Y006160D01*
X045659Y006319D02*
X041009Y006319D01*
X041009Y006477D02*
X045659Y006477D01*
X045659Y006636D02*
X041009Y006636D01*
X041009Y006795D02*
X045659Y006795D01*
X045659Y006953D02*
X041009Y006953D01*
X041009Y007112D02*
X045659Y007112D01*
X045659Y007270D02*
X041009Y007270D01*
X041009Y007429D02*
X045659Y007429D01*
X045659Y007587D02*
X041731Y007587D01*
X041930Y007746D02*
X045659Y007746D01*
X045659Y007904D02*
X042033Y007904D01*
X042099Y008063D02*
X045659Y008063D01*
X045659Y008221D02*
X042099Y008221D01*
X042082Y008380D02*
X045659Y008380D01*
X045659Y008539D02*
X042016Y008539D01*
X041889Y008697D02*
X045659Y008697D01*
X045659Y008856D02*
X041631Y008856D01*
X041187Y008856D02*
X041009Y008856D01*
X041009Y009014D02*
X045659Y009014D01*
X045659Y009173D02*
X041100Y009173D01*
X041169Y009331D02*
X045659Y009331D01*
X045659Y009490D02*
X041169Y009490D01*
X041160Y009648D02*
X045659Y009648D01*
X045659Y009807D02*
X041002Y009807D01*
X040689Y009441D02*
X040689Y006181D01*
X041619Y005251D01*
X040929Y005209D02*
X037309Y005209D01*
X037309Y005114D02*
X037309Y005388D01*
X037204Y005642D01*
X037010Y005836D01*
X036756Y005941D01*
X036482Y005941D01*
X036228Y005836D01*
X036034Y005642D01*
X035929Y005388D01*
X035929Y005114D01*
X036034Y004860D01*
X036228Y004666D01*
X036482Y004561D01*
X036756Y004561D01*
X037010Y004666D01*
X037204Y004860D01*
X037309Y005114D01*
X037283Y005051D02*
X040955Y005051D01*
X041021Y004892D02*
X037217Y004892D01*
X037078Y004734D02*
X041161Y004734D01*
X040929Y005368D02*
X037309Y005368D01*
X037252Y005526D02*
X040891Y005526D01*
X040732Y005685D02*
X037161Y005685D01*
X036992Y005843D02*
X038427Y005843D01*
X038330Y005883D02*
X038602Y005771D01*
X038896Y005771D01*
X039168Y005883D01*
X039376Y006092D01*
X039489Y006364D01*
X039489Y006658D01*
X039376Y006930D01*
X039168Y007138D01*
X038896Y007251D01*
X038602Y007251D01*
X038449Y007187D01*
X038449Y007198D01*
X038344Y007452D01*
X038150Y007646D01*
X037896Y007751D01*
X037622Y007751D01*
X037544Y007719D01*
X037443Y007761D01*
X037315Y007761D01*
X036945Y007761D01*
X036994Y007810D01*
X037099Y008064D01*
X037099Y008338D01*
X036994Y008592D01*
X036800Y008786D01*
X036546Y008891D01*
X036272Y008891D01*
X036018Y008786D01*
X035824Y008592D01*
X035719Y008338D01*
X035719Y008064D01*
X035824Y007810D01*
X035873Y007761D01*
X033125Y007761D01*
X033008Y007712D01*
X033002Y007707D01*
X032896Y007751D01*
X032622Y007751D01*
X032544Y007719D01*
X032443Y007761D01*
X032315Y007761D01*
X031945Y007761D01*
X031994Y007810D01*
X032099Y008064D01*
X032099Y008338D01*
X031994Y008592D01*
X031800Y008786D01*
X031546Y008891D01*
X031272Y008891D01*
X031018Y008786D01*
X030824Y008592D01*
X030719Y008338D01*
X030719Y008064D01*
X030824Y007810D01*
X030873Y007761D01*
X028125Y007761D01*
X028008Y007712D01*
X028002Y007707D01*
X027896Y007751D01*
X027622Y007751D01*
X027544Y007719D01*
X027443Y007761D01*
X027315Y007761D01*
X026945Y007761D01*
X026994Y007810D01*
X027099Y008064D01*
X027099Y008338D01*
X026994Y008592D01*
X026800Y008786D01*
X026546Y008891D01*
X026272Y008891D01*
X026018Y008786D01*
X025824Y008592D01*
X025719Y008338D01*
X025719Y008064D01*
X025824Y007810D01*
X025873Y007761D01*
X023125Y007761D01*
X023008Y007712D01*
X023002Y007707D01*
X022896Y007751D01*
X022622Y007751D01*
X022544Y007719D01*
X022443Y007761D01*
X022315Y007761D01*
X021945Y007761D01*
X021994Y007810D01*
X022099Y008064D01*
X022099Y008338D01*
X021994Y008592D01*
X021800Y008786D01*
X021546Y008891D01*
X021272Y008891D01*
X021018Y008786D01*
X020824Y008592D01*
X020719Y008338D01*
X020719Y008064D01*
X020824Y007810D01*
X020873Y007761D01*
X018125Y007761D01*
X018008Y007712D01*
X018002Y007707D01*
X017896Y007751D01*
X017622Y007751D01*
X017544Y007719D01*
X017443Y007761D01*
X017315Y007761D01*
X016945Y007761D01*
X016994Y007810D01*
X017099Y008064D01*
X017099Y008338D01*
X016994Y008592D01*
X016800Y008786D01*
X016546Y008891D01*
X016272Y008891D01*
X016018Y008786D01*
X015824Y008592D01*
X015719Y008338D01*
X015719Y008064D01*
X015824Y007810D01*
X015873Y007761D01*
X013125Y007761D01*
X013008Y007712D01*
X013002Y007707D01*
X012896Y007751D01*
X012622Y007751D01*
X012544Y007719D01*
X012443Y007761D01*
X011945Y007761D01*
X011994Y007810D01*
X012099Y008064D01*
X012099Y008338D01*
X011994Y008592D01*
X011800Y008786D01*
X011546Y008891D01*
X011272Y008891D01*
X011018Y008786D01*
X010824Y008592D01*
X010719Y008338D01*
X010719Y008064D01*
X010824Y007810D01*
X010873Y007761D01*
X008125Y007761D01*
X008008Y007712D01*
X008002Y007707D01*
X007896Y007751D01*
X007622Y007751D01*
X007544Y007719D01*
X007443Y007761D01*
X007315Y007761D01*
X006945Y007761D01*
X006994Y007810D01*
X007099Y008064D01*
X007099Y008338D01*
X006994Y008592D01*
X006800Y008786D01*
X006546Y008891D01*
X006272Y008891D01*
X006018Y008786D01*
X005824Y008592D01*
X005719Y008338D01*
X005719Y008064D01*
X005824Y007810D01*
X005873Y007761D01*
X003125Y007761D01*
X003008Y007712D01*
X003002Y007707D01*
X002896Y007751D01*
X002622Y007751D01*
X002368Y007646D01*
X002174Y007452D01*
X002069Y007198D01*
X002069Y006924D01*
X002174Y006670D01*
X002368Y006476D01*
X002622Y006371D01*
X002896Y006371D01*
X003009Y006418D01*
X003009Y006364D01*
X003122Y006092D01*
X003330Y005883D01*
X003602Y005771D01*
X003896Y005771D01*
X004168Y005883D01*
X004376Y006092D01*
X004489Y006364D01*
X004489Y006658D01*
X004376Y006930D01*
X004186Y007121D01*
X007069Y007121D01*
X007069Y006924D01*
X007174Y006670D01*
X007368Y006476D01*
X007622Y006371D01*
X007896Y006371D01*
X008009Y006418D01*
X008009Y006364D01*
X008122Y006092D01*
X008330Y005883D01*
X008602Y005771D01*
X008896Y005771D01*
X009168Y005883D01*
X009376Y006092D01*
X009489Y006364D01*
X009489Y006658D01*
X009376Y006930D01*
X009186Y007121D01*
X012069Y007121D01*
X012069Y006924D01*
X012174Y006670D01*
X012368Y006476D01*
X012622Y006371D01*
X012896Y006371D01*
X013009Y006418D01*
X013009Y006364D01*
X013122Y006092D01*
X013330Y005883D01*
X013602Y005771D01*
X013896Y005771D01*
X014168Y005883D01*
X014376Y006092D01*
X014489Y006364D01*
X014489Y006658D01*
X014376Y006930D01*
X014186Y007121D01*
X017069Y007121D01*
X017069Y006924D01*
X017174Y006670D01*
X017368Y006476D01*
X017622Y006371D01*
X017896Y006371D01*
X018009Y006418D01*
X018009Y006364D01*
X018122Y006092D01*
X018330Y005883D01*
X018602Y005771D01*
X018896Y005771D01*
X019168Y005883D01*
X019376Y006092D01*
X019489Y006364D01*
X019489Y006658D01*
X019376Y006930D01*
X019186Y007121D01*
X022069Y007121D01*
X022069Y006924D01*
X022174Y006670D01*
X022368Y006476D01*
X022622Y006371D01*
X022896Y006371D01*
X023009Y006418D01*
X023009Y006364D01*
X023122Y006092D01*
X023330Y005883D01*
X023602Y005771D01*
X023896Y005771D01*
X024168Y005883D01*
X024376Y006092D01*
X024489Y006364D01*
X024489Y006658D01*
X024376Y006930D01*
X024186Y007121D01*
X027069Y007121D01*
X027069Y006924D01*
X027174Y006670D01*
X027368Y006476D01*
X027622Y006371D01*
X027896Y006371D01*
X028009Y006418D01*
X028009Y006364D01*
X028122Y006092D01*
X028330Y005883D01*
X028602Y005771D01*
X028896Y005771D01*
X029168Y005883D01*
X029376Y006092D01*
X029489Y006364D01*
X029489Y006658D01*
X029376Y006930D01*
X029186Y007121D01*
X032069Y007121D01*
X032069Y006924D01*
X032174Y006670D01*
X032368Y006476D01*
X032622Y006371D01*
X032896Y006371D01*
X033009Y006418D01*
X033009Y006364D01*
X033122Y006092D01*
X033330Y005883D01*
X033602Y005771D01*
X033896Y005771D01*
X034168Y005883D01*
X034376Y006092D01*
X034489Y006364D01*
X034489Y006658D01*
X034376Y006930D01*
X034186Y007121D01*
X037069Y007121D01*
X037069Y006924D01*
X037174Y006670D01*
X037368Y006476D01*
X037622Y006371D01*
X037896Y006371D01*
X038009Y006418D01*
X038009Y006364D01*
X038122Y006092D01*
X038330Y005883D01*
X038211Y006002D02*
X034287Y006002D01*
X034405Y006160D02*
X038093Y006160D01*
X038028Y006319D02*
X034471Y006319D01*
X034489Y006477D02*
X037367Y006477D01*
X037208Y006636D02*
X034489Y006636D01*
X034432Y006795D02*
X037122Y006795D01*
X037069Y006953D02*
X034353Y006953D01*
X034195Y007112D02*
X037069Y007112D01*
X037379Y007441D02*
X037759Y007061D01*
X037379Y007441D02*
X033189Y007441D01*
X032809Y007061D01*
X032759Y007061D01*
X032379Y007441D01*
X028189Y007441D01*
X027809Y007061D01*
X027759Y007061D01*
X027379Y007441D01*
X023189Y007441D01*
X022809Y007061D01*
X022759Y007061D01*
X022379Y007441D01*
X018189Y007441D01*
X017809Y007061D01*
X017759Y007061D01*
X017379Y007441D01*
X013189Y007441D01*
X012809Y007061D01*
X012759Y007061D01*
X012379Y007441D01*
X008189Y007441D01*
X007809Y007061D01*
X007759Y007061D01*
X007379Y007441D01*
X003189Y007441D01*
X002809Y007061D01*
X002759Y007061D01*
X002122Y006795D02*
X001719Y006795D01*
X001719Y006953D02*
X002069Y006953D01*
X002069Y007112D02*
X001719Y007112D01*
X001719Y007270D02*
X002099Y007270D01*
X002165Y007429D02*
X001719Y007429D01*
X001719Y007587D02*
X002310Y007587D01*
X002610Y007746D02*
X001719Y007746D01*
X001719Y007904D02*
X005785Y007904D01*
X005719Y008063D02*
X001719Y008063D01*
X001719Y008221D02*
X005719Y008221D01*
X005736Y008380D02*
X001719Y008380D01*
X001719Y008539D02*
X005802Y008539D01*
X005930Y008697D02*
X001719Y008697D01*
X001719Y008856D02*
X006187Y008856D01*
X005941Y009014D02*
X008437Y009014D01*
X008490Y008961D02*
X008888Y008961D01*
X009169Y009242D01*
X009169Y009640D01*
X008888Y009921D01*
X008490Y009921D01*
X008209Y009640D01*
X008209Y009242D01*
X008490Y008961D01*
X008278Y009173D02*
X006100Y009173D01*
X006169Y009242D02*
X005888Y008961D01*
X005490Y008961D01*
X005209Y009242D01*
X005209Y009640D01*
X005490Y009921D01*
X005888Y009921D01*
X006169Y009640D01*
X006169Y009242D01*
X006169Y009331D02*
X008209Y009331D01*
X008209Y009490D02*
X006169Y009490D01*
X006160Y009648D02*
X008218Y009648D01*
X008376Y009807D02*
X006002Y009807D01*
X006440Y010124D02*
X003051Y010124D01*
X003169Y010242D02*
X002888Y009961D01*
X002490Y009961D01*
X002209Y010242D01*
X002209Y010640D01*
X002490Y010921D01*
X002888Y010921D01*
X003169Y010640D01*
X003169Y010242D01*
X003169Y010283D02*
X006289Y010283D01*
X006289Y010275D02*
X006523Y010041D01*
X006689Y010041D01*
X006855Y010041D01*
X007089Y010275D01*
X007089Y010441D01*
X007089Y010606D01*
X006855Y010841D01*
X006689Y010841D01*
X006523Y010841D01*
X006289Y010606D01*
X006289Y010441D01*
X006689Y010441D01*
X006689Y010841D01*
X006689Y010441D01*
X006689Y010441D01*
X006689Y010441D01*
X007089Y010441D01*
X007209Y010441D01*
X007089Y010441D02*
X006689Y010441D01*
X006689Y010441D01*
X006289Y010441D01*
X003169Y010441D01*
X003169Y010600D02*
X006289Y010600D01*
X006289Y010441D02*
X006289Y010275D01*
X006689Y010283D02*
X006689Y010283D01*
X006689Y010440D02*
X006689Y010041D01*
X006689Y010440D01*
X006689Y010440D01*
X006689Y010600D02*
X006689Y010600D01*
X006689Y010758D02*
X006689Y010758D01*
X006441Y010758D02*
X003050Y010758D01*
X002892Y010917D02*
X007014Y010917D01*
X006937Y010758D02*
X007328Y010758D01*
X007209Y010600D02*
X007089Y010600D01*
X007089Y010283D02*
X007209Y010283D01*
X007327Y010124D02*
X006938Y010124D01*
X006689Y010124D02*
X006689Y010124D01*
X007486Y009965D02*
X002892Y009965D01*
X002486Y009965D02*
X001719Y009965D01*
X001719Y009807D02*
X003376Y009807D01*
X003490Y009921D02*
X003209Y009640D01*
X003209Y009242D01*
X003490Y008961D01*
X003888Y008961D01*
X004169Y009242D01*
X004169Y009640D01*
X003888Y009921D01*
X003490Y009921D01*
X003218Y009648D02*
X001719Y009648D01*
X001719Y009490D02*
X003209Y009490D01*
X003209Y009331D02*
X001719Y009331D01*
X001719Y009173D02*
X003278Y009173D01*
X003437Y009014D02*
X001719Y009014D01*
X001719Y010124D02*
X002327Y010124D01*
X002209Y010283D02*
X001719Y010283D01*
X001719Y010441D02*
X002209Y010441D01*
X002209Y010600D02*
X001719Y010600D01*
X001719Y010758D02*
X002328Y010758D01*
X002486Y010917D02*
X001719Y010917D01*
X001719Y011075D02*
X006852Y011075D01*
X007189Y011191D02*
X011189Y011191D01*
X011689Y011691D01*
X012189Y011191D01*
X016189Y011191D01*
X016689Y011691D01*
X017189Y011191D01*
X021189Y011191D01*
X021689Y011691D01*
X022189Y011191D01*
X026189Y011191D01*
X026689Y011691D01*
X027189Y011191D01*
X031189Y011191D01*
X031689Y011691D01*
X032189Y011191D01*
X036189Y011191D01*
X036689Y011691D01*
X037189Y011191D01*
X041189Y011191D01*
X041689Y011691D01*
X042169Y011709D02*
X045659Y011709D01*
X045659Y011551D02*
X042169Y011551D01*
X042069Y011392D02*
X045659Y011392D01*
X045659Y011234D02*
X041911Y011234D01*
X041855Y010841D02*
X041689Y010841D01*
X041523Y010841D01*
X041289Y010606D01*
X041289Y010441D01*
X041689Y010441D01*
X041689Y010841D01*
X041689Y010441D01*
X041689Y010441D01*
X041689Y010441D01*
X042089Y010441D01*
X042089Y010606D01*
X041855Y010841D01*
X041937Y010758D02*
X045659Y010758D01*
X045659Y010600D02*
X042089Y010600D01*
X042089Y010441D02*
X045659Y010441D01*
X045659Y010283D02*
X042089Y010283D01*
X042089Y010275D02*
X042089Y010441D01*
X041689Y010441D01*
X041689Y010441D01*
X041289Y010441D01*
X038169Y010441D01*
X038169Y010283D02*
X041289Y010283D01*
X041289Y010275D02*
X041523Y010041D01*
X041689Y010041D01*
X041855Y010041D01*
X042089Y010275D01*
X041938Y010124D02*
X045659Y010124D01*
X045659Y009965D02*
X037892Y009965D01*
X038051Y010124D02*
X041440Y010124D01*
X041289Y010275D02*
X041289Y010441D01*
X041289Y010600D02*
X038169Y010600D01*
X038050Y010758D02*
X041441Y010758D01*
X041364Y010917D02*
X045659Y010917D01*
X045659Y011075D02*
X041526Y011075D01*
X041689Y010758D02*
X041689Y010758D01*
X041689Y010600D02*
X041689Y010600D01*
X041689Y010440D02*
X041689Y010041D01*
X041689Y010440D01*
X041689Y010440D01*
X041689Y010283D02*
X041689Y010283D01*
X041689Y010124D02*
X041689Y010124D01*
X040376Y009807D02*
X039002Y009807D01*
X038888Y009921D02*
X039169Y009640D01*
X039169Y009242D01*
X038888Y008961D01*
X038490Y008961D01*
X038209Y009242D01*
X038209Y009640D01*
X038490Y009921D01*
X038888Y009921D01*
X039160Y009648D02*
X040218Y009648D01*
X040209Y009490D02*
X039169Y009490D01*
X039169Y009331D02*
X040209Y009331D01*
X040278Y009173D02*
X039100Y009173D01*
X038941Y009014D02*
X040369Y009014D01*
X040369Y008856D02*
X036631Y008856D01*
X036889Y008697D02*
X040369Y008697D01*
X040369Y008539D02*
X037016Y008539D01*
X037082Y008380D02*
X040369Y008380D01*
X040369Y008221D02*
X037099Y008221D01*
X037099Y008063D02*
X040369Y008063D01*
X040369Y007904D02*
X037033Y007904D01*
X037479Y007746D02*
X037610Y007746D01*
X037908Y007746D02*
X040369Y007746D01*
X040369Y007587D02*
X038208Y007587D01*
X038353Y007429D02*
X040369Y007429D01*
X040369Y007270D02*
X038419Y007270D01*
X039195Y007112D02*
X040369Y007112D01*
X040369Y006953D02*
X039353Y006953D01*
X039432Y006795D02*
X040369Y006795D01*
X040369Y006636D02*
X039489Y006636D01*
X039489Y006477D02*
X040369Y006477D01*
X040369Y006319D02*
X039471Y006319D01*
X039405Y006160D02*
X040369Y006160D01*
X040417Y006002D02*
X039287Y006002D01*
X039071Y005843D02*
X040574Y005843D01*
X039503Y004575D02*
X036791Y004575D01*
X036448Y004575D02*
X035035Y004575D01*
X035062Y004564D02*
X034982Y004597D01*
X034898Y004619D01*
X034827Y004629D01*
X034827Y004029D01*
X034711Y004029D01*
X034711Y004629D01*
X034640Y004619D01*
X034556Y004597D01*
X034476Y004564D01*
X034402Y004521D01*
X034333Y004468D01*
X034272Y004407D01*
X034219Y004338D01*
X034176Y004263D01*
X034143Y004183D01*
X034120Y004100D01*
X034111Y004029D01*
X034711Y004029D01*
X034711Y003913D01*
X034111Y003913D01*
X034120Y003842D01*
X034143Y003758D01*
X034176Y003678D01*
X034219Y003603D01*
X034272Y003535D01*
X034333Y003474D01*
X034402Y003421D01*
X034476Y003378D01*
X034556Y003344D01*
X034640Y003322D01*
X034711Y003313D01*
X034711Y003913D01*
X034827Y003913D01*
X034827Y004029D01*
X035427Y004029D01*
X035418Y004100D01*
X035395Y004183D01*
X035362Y004263D01*
X035319Y004338D01*
X035266Y004407D01*
X035205Y004468D01*
X035136Y004521D01*
X035062Y004564D01*
X034827Y004575D02*
X034711Y004575D01*
X034711Y004416D02*
X034827Y004416D01*
X034827Y004258D02*
X034711Y004258D01*
X034711Y004099D02*
X034827Y004099D01*
X034827Y003941D02*
X039711Y003941D01*
X039711Y003782D02*
X039827Y003782D01*
X039827Y003624D02*
X039711Y003624D01*
X039711Y003465D02*
X039827Y003465D01*
X039344Y003465D02*
X035194Y003465D01*
X035205Y003474D02*
X035266Y003535D01*
X035319Y003603D01*
X035362Y003678D01*
X035395Y003758D01*
X035418Y003842D01*
X035427Y003913D01*
X034827Y003913D01*
X034827Y003313D01*
X034898Y003322D01*
X034982Y003344D01*
X035062Y003378D01*
X035136Y003421D01*
X035205Y003474D01*
X035331Y003624D02*
X039207Y003624D01*
X039136Y003782D02*
X035402Y003782D01*
X035418Y004099D02*
X039120Y004099D01*
X039174Y004258D02*
X035365Y004258D01*
X035257Y004416D02*
X039281Y004416D01*
X036161Y004734D02*
X032078Y004734D01*
X032010Y004666D02*
X032204Y004860D01*
X032309Y005114D01*
X032309Y005388D01*
X032204Y005642D01*
X032010Y005836D01*
X031756Y005941D01*
X031482Y005941D01*
X031228Y005836D01*
X031034Y005642D01*
X030929Y005388D01*
X030929Y005114D01*
X031034Y004860D01*
X031228Y004666D01*
X031482Y004561D01*
X031756Y004561D01*
X032010Y004666D01*
X031791Y004575D02*
X034503Y004575D01*
X034281Y004416D02*
X030257Y004416D01*
X030266Y004407D02*
X030205Y004468D01*
X030136Y004521D01*
X030062Y004564D01*
X029982Y004597D01*
X029898Y004619D01*
X029827Y004629D01*
X029827Y004029D01*
X029711Y004029D01*
X029711Y004629D01*
X029640Y004619D01*
X029556Y004597D01*
X029476Y004564D01*
X029402Y004521D01*
X029333Y004468D01*
X029272Y004407D01*
X029219Y004338D01*
X029176Y004263D01*
X029143Y004183D01*
X029120Y004100D01*
X029111Y004029D01*
X029711Y004029D01*
X029711Y003913D01*
X029111Y003913D01*
X029120Y003842D01*
X029143Y003758D01*
X029176Y003678D01*
X029219Y003603D01*
X029272Y003535D01*
X029333Y003474D01*
X029402Y003421D01*
X029476Y003378D01*
X029556Y003344D01*
X029640Y003322D01*
X029711Y003313D01*
X029711Y003913D01*
X029827Y003913D01*
X029827Y004029D01*
X030427Y004029D01*
X030418Y004100D01*
X030395Y004183D01*
X030362Y004263D01*
X030319Y004338D01*
X030266Y004407D01*
X030365Y004258D02*
X034174Y004258D01*
X034120Y004099D02*
X030418Y004099D01*
X030427Y003913D02*
X029827Y003913D01*
X029827Y003313D01*
X029898Y003322D01*
X029982Y003344D01*
X030062Y003378D01*
X030136Y003421D01*
X030205Y003474D01*
X030266Y003535D01*
X030319Y003603D01*
X030362Y003678D01*
X030395Y003758D01*
X030418Y003842D01*
X030427Y003913D01*
X030402Y003782D02*
X034136Y003782D01*
X034207Y003624D02*
X030331Y003624D01*
X030194Y003465D02*
X034344Y003465D01*
X034711Y003465D02*
X034827Y003465D01*
X034827Y003624D02*
X034711Y003624D01*
X034711Y003782D02*
X034827Y003782D01*
X034711Y003941D02*
X029827Y003941D01*
X029711Y003941D02*
X024827Y003941D01*
X024827Y003913D02*
X024827Y004029D01*
X024711Y004029D01*
X024711Y004629D01*
X024640Y004619D01*
X024556Y004597D01*
X024476Y004564D01*
X024402Y004521D01*
X024333Y004468D01*
X024272Y004407D01*
X024219Y004338D01*
X024176Y004263D01*
X024143Y004183D01*
X024120Y004100D01*
X024111Y004029D01*
X024711Y004029D01*
X024711Y003913D01*
X024111Y003913D01*
X024120Y003842D01*
X024143Y003758D01*
X024176Y003678D01*
X024219Y003603D01*
X024272Y003535D01*
X024333Y003474D01*
X024402Y003421D01*
X024476Y003378D01*
X024556Y003344D01*
X024640Y003322D01*
X024711Y003313D01*
X024711Y003913D01*
X024827Y003913D01*
X025427Y003913D01*
X025418Y003842D01*
X025395Y003758D01*
X025362Y003678D01*
X025319Y003603D01*
X025266Y003535D01*
X025205Y003474D01*
X025136Y003421D01*
X025062Y003378D01*
X024982Y003344D01*
X024898Y003322D01*
X024827Y003313D01*
X024827Y003913D01*
X024827Y004029D02*
X025427Y004029D01*
X025418Y004100D01*
X025395Y004183D01*
X025362Y004263D01*
X025319Y004338D01*
X025266Y004407D01*
X025205Y004468D01*
X025136Y004521D01*
X025062Y004564D01*
X024982Y004597D01*
X024898Y004619D01*
X024827Y004629D01*
X024827Y004029D01*
X024827Y004099D02*
X024711Y004099D01*
X024711Y003941D02*
X019827Y003941D01*
X019827Y003913D02*
X019827Y004029D01*
X019711Y004029D01*
X019711Y004629D01*
X019640Y004619D01*
X019556Y004597D01*
X019476Y004564D01*
X019402Y004521D01*
X019333Y004468D01*
X019272Y004407D01*
X019219Y004338D01*
X019176Y004263D01*
X019143Y004183D01*
X019120Y004100D01*
X019111Y004029D01*
X019711Y004029D01*
X019711Y003913D01*
X019111Y003913D01*
X019120Y003842D01*
X019143Y003758D01*
X019176Y003678D01*
X019219Y003603D01*
X019272Y003535D01*
X019333Y003474D01*
X019402Y003421D01*
X019476Y003378D01*
X019556Y003344D01*
X019640Y003322D01*
X019711Y003313D01*
X019711Y003913D01*
X019827Y003913D01*
X020427Y003913D01*
X020418Y003842D01*
X020395Y003758D01*
X020362Y003678D01*
X020319Y003603D01*
X020266Y003535D01*
X020205Y003474D01*
X020136Y003421D01*
X020062Y003378D01*
X019982Y003344D01*
X019898Y003322D01*
X019827Y003313D01*
X019827Y003913D01*
X019827Y004029D02*
X020427Y004029D01*
X020418Y004100D01*
X020395Y004183D01*
X020362Y004263D01*
X020319Y004338D01*
X020266Y004407D01*
X020205Y004468D01*
X020136Y004521D01*
X020062Y004564D01*
X019982Y004597D01*
X019898Y004619D01*
X019827Y004629D01*
X019827Y004029D01*
X019827Y004099D02*
X019711Y004099D01*
X019711Y003941D02*
X014827Y003941D01*
X014827Y003913D02*
X014827Y004029D01*
X014711Y004029D01*
X014711Y004629D01*
X014640Y004619D01*
X014556Y004597D01*
X014476Y004564D01*
X014402Y004521D01*
X014333Y004468D01*
X014272Y004407D01*
X014219Y004338D01*
X014176Y004263D01*
X014143Y004183D01*
X014120Y004100D01*
X014111Y004029D01*
X014711Y004029D01*
X014711Y003913D01*
X014111Y003913D01*
X014120Y003842D01*
X014143Y003758D01*
X014176Y003678D01*
X014219Y003603D01*
X014272Y003535D01*
X014333Y003474D01*
X014402Y003421D01*
X014476Y003378D01*
X014556Y003344D01*
X014640Y003322D01*
X014711Y003313D01*
X014711Y003913D01*
X014827Y003913D01*
X015427Y003913D01*
X015418Y003842D01*
X015395Y003758D01*
X015362Y003678D01*
X015319Y003603D01*
X015266Y003535D01*
X015205Y003474D01*
X015136Y003421D01*
X015062Y003378D01*
X014982Y003344D01*
X014898Y003322D01*
X014827Y003313D01*
X014827Y003913D01*
X014827Y004029D02*
X015427Y004029D01*
X015418Y004100D01*
X015395Y004183D01*
X015362Y004263D01*
X015319Y004338D01*
X015266Y004407D01*
X015205Y004468D01*
X015136Y004521D01*
X015062Y004564D01*
X014982Y004597D01*
X014898Y004619D01*
X014827Y004629D01*
X014827Y004029D01*
X014827Y004099D02*
X014711Y004099D01*
X014711Y003941D02*
X009827Y003941D01*
X009827Y003913D02*
X009827Y004029D01*
X009711Y004029D01*
X009711Y004629D01*
X009640Y004619D01*
X009556Y004597D01*
X009476Y004564D01*
X009402Y004521D01*
X009333Y004468D01*
X009272Y004407D01*
X009219Y004338D01*
X009176Y004263D01*
X009143Y004183D01*
X009120Y004100D01*
X009111Y004029D01*
X009711Y004029D01*
X009711Y003913D01*
X009111Y003913D01*
X009120Y003842D01*
X009143Y003758D01*
X009176Y003678D01*
X009219Y003603D01*
X009272Y003535D01*
X009333Y003474D01*
X009402Y003421D01*
X009476Y003378D01*
X009556Y003344D01*
X009640Y003322D01*
X009711Y003313D01*
X009711Y003913D01*
X009827Y003913D01*
X010427Y003913D01*
X010418Y003842D01*
X010395Y003758D01*
X010362Y003678D01*
X010319Y003603D01*
X010266Y003535D01*
X010205Y003474D01*
X010136Y003421D01*
X010062Y003378D01*
X009982Y003344D01*
X009898Y003322D01*
X009827Y003313D01*
X009827Y003913D01*
X009827Y004029D02*
X010427Y004029D01*
X010418Y004100D01*
X010395Y004183D01*
X010362Y004263D01*
X010319Y004338D01*
X010266Y004407D01*
X010205Y004468D01*
X010136Y004521D01*
X010062Y004564D01*
X009982Y004597D01*
X009898Y004619D01*
X009827Y004629D01*
X009827Y004029D01*
X009827Y004099D02*
X009711Y004099D01*
X009711Y003941D02*
X004827Y003941D01*
X004827Y003913D02*
X004827Y004029D01*
X004711Y004029D01*
X004711Y004629D01*
X004640Y004619D01*
X004556Y004597D01*
X004476Y004564D01*
X004402Y004521D01*
X004333Y004468D01*
X004272Y004407D01*
X004219Y004338D01*
X004176Y004263D01*
X004143Y004183D01*
X004120Y004100D01*
X004111Y004029D01*
X004711Y004029D01*
X004711Y003913D01*
X004111Y003913D01*
X004120Y003842D01*
X004143Y003758D01*
X004176Y003678D01*
X004219Y003603D01*
X004272Y003535D01*
X004333Y003474D01*
X004402Y003421D01*
X004476Y003378D01*
X004556Y003344D01*
X004640Y003322D01*
X004711Y003313D01*
X004711Y003913D01*
X004827Y003913D01*
X005427Y003913D01*
X005418Y003842D01*
X005395Y003758D01*
X005362Y003678D01*
X005319Y003603D01*
X005266Y003535D01*
X005205Y003474D01*
X005136Y003421D01*
X005062Y003378D01*
X004982Y003344D01*
X004898Y003322D01*
X004827Y003313D01*
X004827Y003913D01*
X004827Y004029D02*
X005427Y004029D01*
X005418Y004100D01*
X005395Y004183D01*
X005362Y004263D01*
X005319Y004338D01*
X005266Y004407D01*
X005205Y004468D01*
X005136Y004521D01*
X005062Y004564D01*
X004982Y004597D01*
X004898Y004619D01*
X004827Y004629D01*
X004827Y004029D01*
X004827Y004099D02*
X004711Y004099D01*
X004711Y003941D02*
X002050Y003941D01*
X001947Y004099D02*
X004120Y004099D01*
X004174Y004258D02*
X001871Y004258D01*
X001806Y004416D02*
X004281Y004416D01*
X004503Y004575D02*
X001769Y004575D01*
X001733Y004734D02*
X006161Y004734D01*
X006228Y004666D02*
X006482Y004561D01*
X006756Y004561D01*
X007010Y004666D01*
X007204Y004860D01*
X007309Y005114D01*
X007309Y005388D01*
X007204Y005642D01*
X007010Y005836D01*
X006756Y005941D01*
X006482Y005941D01*
X006228Y005836D01*
X006034Y005642D01*
X005929Y005388D01*
X005929Y005114D01*
X006034Y004860D01*
X006228Y004666D01*
X006448Y004575D02*
X005035Y004575D01*
X004827Y004575D02*
X004711Y004575D01*
X004711Y004416D02*
X004827Y004416D01*
X004827Y004258D02*
X004711Y004258D01*
X005257Y004416D02*
X009281Y004416D01*
X009174Y004258D02*
X005365Y004258D01*
X005418Y004099D02*
X009120Y004099D01*
X009136Y003782D02*
X005402Y003782D01*
X005331Y003624D02*
X009207Y003624D01*
X009344Y003465D02*
X005194Y003465D01*
X004827Y003465D02*
X004711Y003465D01*
X004711Y003624D02*
X004827Y003624D01*
X004827Y003782D02*
X004711Y003782D01*
X004344Y003465D02*
X002564Y003465D01*
X002349Y003624D02*
X004207Y003624D01*
X004136Y003782D02*
X002177Y003782D01*
X001722Y004892D02*
X006021Y004892D01*
X005955Y005051D02*
X001719Y005051D01*
X001719Y005209D02*
X005929Y005209D01*
X005929Y005368D02*
X001719Y005368D01*
X001719Y005526D02*
X005986Y005526D01*
X006077Y005685D02*
X001719Y005685D01*
X001719Y005843D02*
X003427Y005843D01*
X003211Y006002D02*
X001719Y006002D01*
X001719Y006160D02*
X003093Y006160D01*
X003028Y006319D02*
X001719Y006319D01*
X001719Y006477D02*
X002367Y006477D01*
X002208Y006636D02*
X001719Y006636D01*
X002908Y007746D02*
X003089Y007746D01*
X004195Y007112D02*
X007069Y007112D01*
X007069Y006953D02*
X004353Y006953D01*
X004432Y006795D02*
X007122Y006795D01*
X007208Y006636D02*
X004489Y006636D01*
X004489Y006477D02*
X007367Y006477D01*
X008028Y006319D02*
X004471Y006319D01*
X004405Y006160D02*
X008093Y006160D01*
X008211Y006002D02*
X004287Y006002D01*
X004071Y005843D02*
X006247Y005843D01*
X006992Y005843D02*
X008427Y005843D01*
X009071Y005843D02*
X011247Y005843D01*
X011228Y005836D02*
X011034Y005642D01*
X010929Y005388D01*
X010929Y005114D01*
X011034Y004860D01*
X011228Y004666D01*
X011482Y004561D01*
X011756Y004561D01*
X012010Y004666D01*
X012204Y004860D01*
X012309Y005114D01*
X012309Y005388D01*
X012204Y005642D01*
X012010Y005836D01*
X011756Y005941D01*
X011482Y005941D01*
X011228Y005836D01*
X011077Y005685D02*
X007161Y005685D01*
X007252Y005526D02*
X010986Y005526D01*
X010929Y005368D02*
X007309Y005368D01*
X007309Y005209D02*
X010929Y005209D01*
X010955Y005051D02*
X007283Y005051D01*
X007217Y004892D02*
X011021Y004892D01*
X011161Y004734D02*
X007078Y004734D01*
X006791Y004575D02*
X009503Y004575D01*
X009711Y004575D02*
X009827Y004575D01*
X009827Y004416D02*
X009711Y004416D01*
X009711Y004258D02*
X009827Y004258D01*
X010035Y004575D02*
X011448Y004575D01*
X011791Y004575D02*
X014503Y004575D01*
X014711Y004575D02*
X014827Y004575D01*
X014827Y004416D02*
X014711Y004416D01*
X014711Y004258D02*
X014827Y004258D01*
X015035Y004575D02*
X016448Y004575D01*
X016482Y004561D02*
X016756Y004561D01*
X017010Y004666D01*
X017204Y004860D01*
X017309Y005114D01*
X017309Y005388D01*
X017204Y005642D01*
X017010Y005836D01*
X016756Y005941D01*
X016482Y005941D01*
X016228Y005836D01*
X016034Y005642D01*
X015929Y005388D01*
X015929Y005114D01*
X016034Y004860D01*
X016228Y004666D01*
X016482Y004561D01*
X016791Y004575D02*
X019503Y004575D01*
X019711Y004575D02*
X019827Y004575D01*
X019827Y004416D02*
X019711Y004416D01*
X019711Y004258D02*
X019827Y004258D01*
X020035Y004575D02*
X021448Y004575D01*
X021482Y004561D02*
X021756Y004561D01*
X022010Y004666D01*
X022204Y004860D01*
X022309Y005114D01*
X022309Y005388D01*
X022204Y005642D01*
X022010Y005836D01*
X021756Y005941D01*
X021482Y005941D01*
X021228Y005836D01*
X021034Y005642D01*
X020929Y005388D01*
X020929Y005114D01*
X021034Y004860D01*
X021228Y004666D01*
X021482Y004561D01*
X021791Y004575D02*
X024503Y004575D01*
X024711Y004575D02*
X024827Y004575D01*
X024827Y004416D02*
X024711Y004416D01*
X024711Y004258D02*
X024827Y004258D01*
X025035Y004575D02*
X026448Y004575D01*
X026482Y004561D02*
X026756Y004561D01*
X027010Y004666D01*
X027204Y004860D01*
X027309Y005114D01*
X027309Y005388D01*
X027204Y005642D01*
X027010Y005836D01*
X026756Y005941D01*
X026482Y005941D01*
X026228Y005836D01*
X026034Y005642D01*
X025929Y005388D01*
X025929Y005114D01*
X026034Y004860D01*
X026228Y004666D01*
X026482Y004561D01*
X026791Y004575D02*
X029503Y004575D01*
X029711Y004575D02*
X029827Y004575D01*
X029827Y004416D02*
X029711Y004416D01*
X029711Y004258D02*
X029827Y004258D01*
X029827Y004099D02*
X029711Y004099D01*
X029711Y003782D02*
X029827Y003782D01*
X029827Y003624D02*
X029711Y003624D01*
X029711Y003465D02*
X029827Y003465D01*
X029344Y003465D02*
X025194Y003465D01*
X025331Y003624D02*
X029207Y003624D01*
X029136Y003782D02*
X025402Y003782D01*
X025418Y004099D02*
X029120Y004099D01*
X029174Y004258D02*
X025365Y004258D01*
X025257Y004416D02*
X029281Y004416D01*
X030035Y004575D02*
X031448Y004575D01*
X031161Y004734D02*
X027078Y004734D01*
X027217Y004892D02*
X031021Y004892D01*
X030955Y005051D02*
X027283Y005051D01*
X027309Y005209D02*
X030929Y005209D01*
X030929Y005368D02*
X027309Y005368D01*
X027252Y005526D02*
X030986Y005526D01*
X031077Y005685D02*
X027161Y005685D01*
X026992Y005843D02*
X028427Y005843D01*
X028211Y006002D02*
X024287Y006002D01*
X024405Y006160D02*
X028093Y006160D01*
X028028Y006319D02*
X024471Y006319D01*
X024489Y006477D02*
X027367Y006477D01*
X027208Y006636D02*
X024489Y006636D01*
X024432Y006795D02*
X027122Y006795D01*
X027069Y006953D02*
X024353Y006953D01*
X024195Y007112D02*
X027069Y007112D01*
X027479Y007746D02*
X027610Y007746D01*
X027908Y007746D02*
X028089Y007746D01*
X027099Y008063D02*
X030719Y008063D01*
X030719Y008221D02*
X027099Y008221D01*
X027082Y008380D02*
X030736Y008380D01*
X030802Y008539D02*
X027016Y008539D01*
X026889Y008697D02*
X030930Y008697D01*
X030888Y008961D02*
X031169Y009242D01*
X031169Y009640D01*
X030888Y009921D01*
X030490Y009921D01*
X030209Y009640D01*
X030209Y009242D01*
X030490Y008961D01*
X030888Y008961D01*
X030941Y009014D02*
X033437Y009014D01*
X033490Y008961D02*
X033209Y009242D01*
X033209Y009640D01*
X033490Y009921D01*
X033888Y009921D01*
X034169Y009640D01*
X034169Y009242D01*
X033888Y008961D01*
X033490Y008961D01*
X033278Y009173D02*
X031100Y009173D01*
X031169Y009331D02*
X033209Y009331D01*
X033209Y009490D02*
X031169Y009490D01*
X031160Y009648D02*
X033218Y009648D01*
X033376Y009807D02*
X031002Y009807D01*
X031440Y010124D02*
X028051Y010124D01*
X028169Y010283D02*
X031289Y010283D01*
X031289Y010275D02*
X031523Y010041D01*
X031689Y010041D01*
X031855Y010041D01*
X032089Y010275D01*
X032089Y010441D01*
X032089Y010606D01*
X031855Y010841D01*
X031689Y010841D01*
X031523Y010841D01*
X031289Y010606D01*
X031289Y010441D01*
X031689Y010441D01*
X031689Y010841D01*
X031689Y010441D01*
X031689Y010441D01*
X031689Y010441D01*
X032089Y010441D01*
X032209Y010441D01*
X032089Y010441D02*
X031689Y010441D01*
X031689Y010441D01*
X031289Y010441D01*
X028169Y010441D01*
X028169Y010600D02*
X031289Y010600D01*
X031289Y010441D02*
X031289Y010275D01*
X031689Y010283D02*
X031689Y010283D01*
X031689Y010440D02*
X031689Y010041D01*
X031689Y010440D01*
X031689Y010440D01*
X031689Y010600D02*
X031689Y010600D01*
X031689Y010758D02*
X031689Y010758D01*
X031441Y010758D02*
X028050Y010758D01*
X027328Y010758D02*
X026937Y010758D01*
X026855Y010841D02*
X026689Y010841D01*
X026523Y010841D01*
X026289Y010606D01*
X026289Y010441D01*
X026689Y010441D01*
X026689Y010841D01*
X026689Y010441D01*
X026689Y010441D01*
X026689Y010441D01*
X027089Y010441D01*
X027089Y010606D01*
X026855Y010841D01*
X027014Y010917D02*
X026364Y010917D01*
X026441Y010758D02*
X023050Y010758D01*
X023169Y010600D02*
X026289Y010600D01*
X026289Y010441D02*
X023169Y010441D01*
X023169Y010283D02*
X026289Y010283D01*
X026289Y010275D02*
X026523Y010041D01*
X026689Y010041D01*
X026855Y010041D01*
X027089Y010275D01*
X027089Y010441D01*
X027209Y010441D01*
X027089Y010441D02*
X026689Y010441D01*
X026689Y010441D01*
X026289Y010441D01*
X026289Y010275D01*
X026440Y010124D02*
X023051Y010124D01*
X022892Y009965D02*
X027486Y009965D01*
X027327Y010124D02*
X026938Y010124D01*
X027089Y010283D02*
X027209Y010283D01*
X027209Y010600D02*
X027089Y010600D01*
X026689Y010600D02*
X026689Y010600D01*
X026689Y010758D02*
X026689Y010758D01*
X026689Y010440D02*
X026689Y010041D01*
X026689Y010440D01*
X026689Y010440D01*
X026689Y010283D02*
X026689Y010283D01*
X026689Y010124D02*
X026689Y010124D01*
X026169Y009640D02*
X025888Y009921D01*
X025490Y009921D01*
X025209Y009640D01*
X025209Y009242D01*
X025490Y008961D01*
X025888Y008961D01*
X026169Y009242D01*
X026169Y009640D01*
X026160Y009648D02*
X028218Y009648D01*
X028209Y009640D02*
X028209Y009242D01*
X028490Y008961D01*
X028888Y008961D01*
X029169Y009242D01*
X029169Y009640D01*
X028888Y009921D01*
X028490Y009921D01*
X028209Y009640D01*
X028209Y009490D02*
X026169Y009490D01*
X026169Y009331D02*
X028209Y009331D01*
X028278Y009173D02*
X026100Y009173D01*
X025941Y009014D02*
X028437Y009014D01*
X028941Y009014D02*
X030437Y009014D01*
X030278Y009173D02*
X029100Y009173D01*
X029169Y009331D02*
X030209Y009331D01*
X030209Y009490D02*
X029169Y009490D01*
X029160Y009648D02*
X030218Y009648D01*
X030376Y009807D02*
X029002Y009807D01*
X028376Y009807D02*
X026002Y009807D01*
X025376Y009807D02*
X024002Y009807D01*
X023888Y009921D02*
X023490Y009921D01*
X023209Y009640D01*
X023209Y009242D01*
X023490Y008961D01*
X023888Y008961D01*
X024169Y009242D01*
X024169Y009640D01*
X023888Y009921D01*
X024160Y009648D02*
X025218Y009648D01*
X025209Y009490D02*
X024169Y009490D01*
X024169Y009331D02*
X025209Y009331D01*
X025278Y009173D02*
X024100Y009173D01*
X023941Y009014D02*
X025437Y009014D01*
X025930Y008697D02*
X021889Y008697D01*
X022016Y008539D02*
X025802Y008539D01*
X025736Y008380D02*
X022082Y008380D01*
X022099Y008221D02*
X025719Y008221D01*
X025719Y008063D02*
X022099Y008063D01*
X022033Y007904D02*
X025785Y007904D01*
X027033Y007904D02*
X030785Y007904D01*
X032033Y007904D02*
X035785Y007904D01*
X035719Y008063D02*
X032099Y008063D01*
X032099Y008221D02*
X035719Y008221D01*
X035736Y008380D02*
X032082Y008380D01*
X032016Y008539D02*
X035802Y008539D01*
X035930Y008697D02*
X031889Y008697D01*
X031631Y008856D02*
X036187Y008856D01*
X035941Y009014D02*
X038437Y009014D01*
X038278Y009173D02*
X036100Y009173D01*
X036169Y009242D02*
X035888Y008961D01*
X035490Y008961D01*
X035209Y009242D01*
X035209Y009640D01*
X035490Y009921D01*
X035888Y009921D01*
X036169Y009640D01*
X036169Y009242D01*
X036169Y009331D02*
X038209Y009331D01*
X038209Y009490D02*
X036169Y009490D01*
X036160Y009648D02*
X038218Y009648D01*
X038376Y009807D02*
X036002Y009807D01*
X036440Y010124D02*
X033051Y010124D01*
X033169Y010283D02*
X036289Y010283D01*
X036289Y010275D02*
X036523Y010041D01*
X036689Y010041D01*
X036855Y010041D01*
X037089Y010275D01*
X037089Y010441D01*
X037089Y010606D01*
X036855Y010841D01*
X036689Y010841D01*
X036523Y010841D01*
X036289Y010606D01*
X036289Y010441D01*
X036689Y010441D01*
X036689Y010841D01*
X036689Y010441D01*
X036689Y010441D01*
X036689Y010441D01*
X037089Y010441D01*
X037209Y010441D01*
X037089Y010441D02*
X036689Y010441D01*
X036689Y010441D01*
X036289Y010441D01*
X033169Y010441D01*
X033169Y010600D02*
X036289Y010600D01*
X036289Y010441D02*
X036289Y010275D01*
X036689Y010283D02*
X036689Y010283D01*
X036689Y010440D02*
X036689Y010041D01*
X036689Y010440D01*
X036689Y010440D01*
X036689Y010600D02*
X036689Y010600D01*
X036689Y010758D02*
X036689Y010758D01*
X036441Y010758D02*
X033050Y010758D01*
X032328Y010758D02*
X031937Y010758D01*
X032014Y010917D02*
X031364Y010917D01*
X031526Y011075D02*
X031852Y011075D01*
X032089Y010600D02*
X032209Y010600D01*
X032209Y010283D02*
X032089Y010283D01*
X031938Y010124D02*
X032327Y010124D01*
X032486Y009965D02*
X027892Y009965D01*
X026852Y011075D02*
X026526Y011075D01*
X027169Y011663D02*
X027169Y011890D01*
X027005Y012054D01*
X027370Y012419D01*
X027451Y012500D01*
X027490Y012461D01*
X027888Y012461D01*
X028169Y012742D01*
X028169Y013140D01*
X027888Y013421D01*
X027490Y013421D01*
X027451Y013381D01*
X027262Y013571D01*
X027429Y013738D01*
X027429Y014144D01*
X027142Y014431D01*
X026759Y014431D01*
X026759Y014832D01*
X026919Y014992D01*
X026919Y015371D01*
X028556Y015371D01*
X028619Y015308D01*
X028619Y014314D01*
X028449Y014144D01*
X028449Y013738D01*
X028736Y013451D01*
X029142Y013451D01*
X029429Y013738D01*
X029429Y014144D01*
X029259Y014314D01*
X029259Y015504D01*
X029210Y015622D01*
X029120Y015712D01*
X028870Y015962D01*
X028753Y016011D01*
X028625Y016011D01*
X026822Y016011D01*
X026612Y016221D01*
X026785Y016221D01*
X026961Y016294D01*
X027096Y016429D01*
X027169Y016605D01*
X027169Y016621D01*
X027625Y016621D01*
X027753Y016621D01*
X027870Y016669D01*
X029912Y018711D01*
X030138Y018711D01*
X030369Y018942D01*
X030369Y018741D01*
X030317Y018689D01*
X030251Y018528D01*
X030251Y018354D01*
X030317Y018192D01*
X030441Y018069D01*
X030602Y018002D01*
X030776Y018002D01*
X030937Y018069D01*
X031061Y018192D01*
X031127Y018354D01*
X031127Y018528D01*
X031061Y018689D01*
X031009Y018741D01*
X031009Y021127D01*
X031009Y021191D01*
X035569Y021191D01*
X035567Y021189D01*
X035501Y021028D01*
X035501Y020854D01*
X035567Y020692D01*
X035653Y020607D01*
X035508Y020462D01*
X035508Y020462D01*
X035418Y020372D01*
X035369Y020254D01*
X035369Y014300D01*
X035209Y014140D01*
X035209Y013873D01*
X031745Y017337D01*
X031628Y017386D01*
X031500Y017386D01*
X030313Y017386D01*
X030419Y017492D01*
X030419Y017890D01*
X030138Y018171D01*
X029740Y018171D01*
X029459Y017890D01*
X029459Y017497D01*
X029316Y017437D01*
X029192Y017314D01*
X029126Y017153D01*
X029126Y016979D01*
X029192Y016817D01*
X029316Y016694D01*
X029477Y016627D01*
X029560Y016627D01*
X029539Y016606D01*
X029539Y016441D01*
X029939Y016441D01*
X029939Y016441D01*
X030339Y016441D01*
X030339Y016606D01*
X030200Y016746D01*
X031431Y016746D01*
X033837Y014341D01*
X033689Y014341D01*
X033523Y014341D01*
X033289Y014106D01*
X033289Y013941D01*
X033689Y013941D01*
X033689Y014341D01*
X033689Y013941D01*
X033689Y013941D01*
X033689Y013941D01*
X034089Y013941D01*
X034089Y014088D01*
X036043Y012134D01*
X036133Y012044D01*
X036250Y011996D01*
X036315Y011996D01*
X036209Y011890D01*
X036209Y011663D01*
X036056Y011511D01*
X033169Y011511D01*
X033169Y011890D01*
X032888Y012171D01*
X032490Y012171D01*
X032209Y011890D01*
X032209Y011623D01*
X032169Y011663D01*
X032169Y011890D01*
X031888Y012171D01*
X031490Y012171D01*
X031209Y011890D01*
X031209Y011663D01*
X031056Y011511D01*
X028169Y011511D01*
X028169Y011890D01*
X027888Y012171D01*
X027490Y012171D01*
X027209Y011890D01*
X027209Y011623D01*
X027169Y011663D01*
X027169Y011709D02*
X027209Y011709D01*
X027209Y011868D02*
X027169Y011868D01*
X027032Y012026D02*
X027346Y012026D01*
X027136Y012185D02*
X035992Y012185D01*
X035834Y012344D02*
X027294Y012344D01*
X027189Y012691D02*
X027189Y013191D01*
X026939Y013441D01*
X026939Y013941D01*
X027429Y013929D02*
X027449Y013929D01*
X027449Y014088D02*
X027429Y014088D01*
X027449Y014144D02*
X027449Y013738D01*
X027736Y013451D01*
X028142Y013451D01*
X028429Y013738D01*
X028429Y014144D01*
X028142Y014431D01*
X027736Y014431D01*
X027449Y014144D01*
X027551Y014246D02*
X027327Y014246D01*
X027168Y014405D02*
X027710Y014405D01*
X028168Y014405D02*
X028619Y014405D01*
X028619Y014563D02*
X026759Y014563D01*
X026759Y014722D02*
X028619Y014722D01*
X028619Y014880D02*
X026807Y014880D01*
X026919Y015039D02*
X028619Y015039D01*
X028619Y015197D02*
X026919Y015197D01*
X026919Y015356D02*
X028571Y015356D01*
X028689Y015691D02*
X028939Y015441D01*
X028939Y013941D01*
X028449Y013929D02*
X028429Y013929D01*
X028429Y014088D02*
X028449Y014088D01*
X028551Y014246D02*
X028327Y014246D01*
X028429Y013770D02*
X028449Y013770D01*
X028575Y013612D02*
X028303Y013612D01*
X028145Y013453D02*
X028734Y013453D01*
X029145Y013453D02*
X029734Y013453D01*
X029736Y013451D02*
X030142Y013451D01*
X030429Y013738D01*
X030429Y014144D01*
X030142Y014431D01*
X029736Y014431D01*
X029449Y014144D01*
X029449Y013738D01*
X029736Y013451D01*
X029575Y013612D02*
X029303Y013612D01*
X029429Y013770D02*
X029449Y013770D01*
X029449Y013929D02*
X029429Y013929D01*
X029429Y014088D02*
X029449Y014088D01*
X029551Y014246D02*
X029327Y014246D01*
X029259Y014405D02*
X029710Y014405D01*
X029689Y014791D02*
X029523Y014791D01*
X029289Y015025D01*
X029289Y015191D01*
X029689Y015191D01*
X029689Y015591D01*
X029855Y015591D01*
X030089Y015356D01*
X031209Y015356D01*
X031209Y015390D02*
X031209Y014992D01*
X031369Y014832D01*
X031369Y013300D01*
X031209Y013140D01*
X031209Y012742D01*
X031490Y012461D01*
X031888Y012461D01*
X032169Y012742D01*
X032169Y013140D01*
X032009Y013300D01*
X032009Y014832D01*
X032169Y014992D01*
X032169Y015390D01*
X031888Y015671D01*
X031490Y015671D01*
X031209Y015390D01*
X031334Y015514D02*
X029931Y015514D01*
X030089Y015356D02*
X030089Y015191D01*
X029689Y015191D01*
X029689Y015191D01*
X029689Y015591D01*
X029523Y015591D01*
X029289Y015356D01*
X029259Y015356D01*
X029289Y015356D02*
X029289Y015191D01*
X029689Y015191D01*
X029689Y015191D01*
X029689Y015191D01*
X030089Y015191D01*
X030089Y015025D01*
X029855Y014791D01*
X029689Y014791D01*
X029689Y015190D01*
X029689Y015190D01*
X029689Y014791D01*
X029689Y014880D02*
X029689Y014880D01*
X029689Y015039D02*
X029689Y015039D01*
X029689Y015197D02*
X029689Y015197D01*
X029689Y015356D02*
X029689Y015356D01*
X029689Y015514D02*
X029689Y015514D01*
X029447Y015514D02*
X029255Y015514D01*
X029159Y015673D02*
X032504Y015673D01*
X032346Y015832D02*
X029001Y015832D01*
X028803Y015990D02*
X032187Y015990D01*
X032029Y016149D02*
X030213Y016149D01*
X030105Y016041D02*
X030339Y016275D01*
X030339Y016441D01*
X029939Y016441D01*
X029939Y016441D01*
X029539Y016441D01*
X029539Y016275D01*
X029773Y016041D01*
X029939Y016041D01*
X030105Y016041D01*
X029939Y016041D02*
X029939Y016440D01*
X029939Y016440D01*
X029939Y016041D01*
X029939Y016149D02*
X029939Y016149D01*
X029939Y016307D02*
X029939Y016307D01*
X029666Y016149D02*
X026684Y016149D01*
X026974Y016307D02*
X029539Y016307D01*
X029539Y016466D02*
X027111Y016466D01*
X026689Y016941D02*
X027689Y016941D01*
X029939Y019191D01*
X030271Y018844D02*
X030369Y018844D01*
X030316Y018685D02*
X029886Y018685D01*
X029728Y018527D02*
X030251Y018527D01*
X030251Y018368D02*
X029569Y018368D01*
X029410Y018210D02*
X030310Y018210D01*
X030257Y018051D02*
X030484Y018051D01*
X030416Y017893D02*
X033462Y017893D01*
X033459Y017890D02*
X033459Y017492D01*
X033740Y017211D01*
X034138Y017211D01*
X034419Y017492D01*
X034419Y017890D01*
X034138Y018171D01*
X033740Y018171D01*
X033459Y017890D01*
X033459Y017734D02*
X030419Y017734D01*
X030419Y017576D02*
X033459Y017576D01*
X033534Y017417D02*
X030344Y017417D01*
X030321Y016624D02*
X031553Y016624D01*
X031712Y016466D02*
X030339Y016466D01*
X030339Y016307D02*
X031870Y016307D01*
X032300Y016783D02*
X033602Y016783D01*
X033740Y016921D02*
X033459Y016640D01*
X033459Y016242D01*
X033740Y015961D01*
X034138Y015961D01*
X034419Y016242D01*
X034419Y016640D01*
X034138Y016921D01*
X033740Y016921D01*
X033693Y017258D02*
X031824Y017258D01*
X031982Y017100D02*
X035369Y017100D01*
X035369Y017258D02*
X034185Y017258D01*
X034344Y017417D02*
X035369Y017417D01*
X035369Y017576D02*
X034419Y017576D01*
X034419Y017734D02*
X035369Y017734D01*
X035369Y017893D02*
X034416Y017893D01*
X034257Y018051D02*
X035369Y018051D01*
X035369Y018210D02*
X033318Y018210D01*
X033311Y018192D02*
X033377Y018354D01*
X033377Y018528D01*
X033311Y018689D01*
X033187Y018812D01*
X033026Y018879D01*
X032852Y018879D01*
X032691Y018812D01*
X032567Y018689D01*
X032501Y018528D01*
X032501Y018354D01*
X032567Y018192D01*
X032691Y018069D01*
X032852Y018002D01*
X033026Y018002D01*
X033187Y018069D01*
X033311Y018192D01*
X033377Y018368D02*
X035369Y018368D01*
X035369Y018527D02*
X033377Y018527D01*
X033312Y018685D02*
X035369Y018685D01*
X035369Y018844D02*
X034271Y018844D01*
X034138Y018711D02*
X034419Y018992D01*
X034419Y019390D01*
X034138Y019671D01*
X033740Y019671D01*
X033459Y019390D01*
X033459Y018992D01*
X033740Y018711D01*
X034138Y018711D01*
X034419Y019002D02*
X035369Y019002D01*
X035369Y019161D02*
X034419Y019161D01*
X034419Y019319D02*
X035369Y019319D01*
X035369Y019478D02*
X034331Y019478D01*
X034172Y019637D02*
X035369Y019637D01*
X035369Y019795D02*
X031009Y019795D01*
X031009Y019637D02*
X033706Y019637D01*
X033548Y019478D02*
X031009Y019478D01*
X031009Y019319D02*
X033459Y019319D01*
X033459Y019161D02*
X031009Y019161D01*
X031009Y019002D02*
X033459Y019002D01*
X033607Y018844D02*
X033112Y018844D01*
X032767Y018844D02*
X031009Y018844D01*
X031062Y018685D02*
X032566Y018685D01*
X032501Y018527D02*
X031127Y018527D01*
X031127Y018368D02*
X032501Y018368D01*
X032560Y018210D02*
X031068Y018210D01*
X030894Y018051D02*
X032734Y018051D01*
X033144Y018051D02*
X033621Y018051D01*
X034276Y016783D02*
X035369Y016783D01*
X035369Y016941D02*
X032141Y016941D01*
X032458Y016624D02*
X033459Y016624D01*
X033459Y016466D02*
X032617Y016466D01*
X032775Y016307D02*
X033459Y016307D01*
X033552Y016149D02*
X032934Y016149D01*
X033092Y015990D02*
X033711Y015990D01*
X033409Y015673D02*
X035369Y015673D01*
X035369Y015832D02*
X033251Y015832D01*
X033568Y015514D02*
X035369Y015514D01*
X035369Y015356D02*
X033726Y015356D01*
X033885Y015197D02*
X035369Y015197D01*
X035369Y015039D02*
X034044Y015039D01*
X034202Y014880D02*
X035369Y014880D01*
X035369Y014722D02*
X034361Y014722D01*
X034519Y014563D02*
X035369Y014563D01*
X035369Y014405D02*
X034678Y014405D01*
X034836Y014246D02*
X035316Y014246D01*
X035209Y014088D02*
X034995Y014088D01*
X035153Y013929D02*
X035209Y013929D01*
X035689Y013941D02*
X035689Y020191D01*
X035939Y020441D01*
X036439Y020441D01*
X035939Y020941D02*
X037189Y020941D01*
X038189Y019941D01*
X039689Y019941D01*
X040689Y018941D01*
X040689Y013941D01*
X040209Y013929D02*
X039089Y013929D01*
X039089Y013941D02*
X038689Y013941D01*
X038689Y014341D01*
X038855Y014341D01*
X039089Y014106D01*
X039089Y013941D01*
X038689Y013941D01*
X038689Y013941D01*
X038689Y014341D01*
X038523Y014341D01*
X038289Y014106D01*
X038289Y013941D01*
X038689Y013941D01*
X038689Y013941D01*
X038689Y013941D01*
X038289Y013941D01*
X038289Y013775D01*
X038523Y013541D01*
X038689Y013541D01*
X038855Y013541D01*
X039089Y013775D01*
X039089Y013941D01*
X039089Y014088D02*
X040209Y014088D01*
X040209Y014140D02*
X040369Y014300D01*
X040369Y014711D01*
X039990Y014711D01*
X039709Y014992D01*
X039709Y015218D01*
X039556Y015371D01*
X038575Y015371D01*
X038589Y015356D01*
X039571Y015356D01*
X039709Y015197D02*
X038589Y015197D01*
X038589Y015191D02*
X038589Y015356D01*
X038589Y015191D02*
X038189Y015191D01*
X038189Y015191D01*
X037789Y015191D01*
X037789Y015356D01*
X036009Y015356D01*
X036009Y015514D02*
X036663Y015514D01*
X036668Y015509D02*
X036758Y015419D01*
X036875Y015371D01*
X037803Y015371D01*
X037789Y015356D01*
X037789Y015197D02*
X036009Y015197D01*
X036009Y015039D02*
X037789Y015039D01*
X037789Y015025D02*
X038023Y014791D01*
X038189Y014791D01*
X038355Y014791D01*
X038589Y015025D01*
X038589Y015191D01*
X038189Y015191D01*
X038189Y015191D01*
X037789Y015191D01*
X037789Y015025D01*
X037934Y014880D02*
X036009Y014880D01*
X036009Y014722D02*
X039979Y014722D01*
X039821Y014880D02*
X038444Y014880D01*
X038589Y015039D02*
X039709Y015039D01*
X040189Y015191D02*
X039689Y015691D01*
X036939Y015691D01*
X036189Y016441D01*
X036009Y016041D02*
X036102Y016002D01*
X036175Y016002D01*
X036668Y015509D01*
X036504Y015673D02*
X036009Y015673D01*
X036009Y015832D02*
X036346Y015832D01*
X036187Y015990D02*
X036009Y015990D01*
X036009Y016041D02*
X036009Y014300D01*
X036169Y014140D01*
X036169Y013742D01*
X035888Y013461D01*
X035622Y013461D01*
X036209Y012873D01*
X036209Y013140D01*
X036490Y013421D01*
X036888Y013421D01*
X037169Y013140D01*
X037169Y012742D01*
X037063Y012636D01*
X037315Y012636D01*
X037209Y012742D01*
X037209Y013140D01*
X037490Y013421D01*
X037888Y013421D01*
X038169Y013140D01*
X038169Y012742D01*
X038063Y012636D01*
X041315Y012636D01*
X041209Y012742D01*
X041209Y013140D01*
X041490Y013421D01*
X041507Y013421D01*
X041258Y013669D01*
X041169Y013758D01*
X041169Y013742D01*
X040888Y013461D01*
X040490Y013461D01*
X040209Y013742D01*
X040209Y014140D01*
X040316Y014246D02*
X038949Y014246D01*
X038689Y014246D02*
X038689Y014246D01*
X038689Y014088D02*
X038689Y014088D01*
X038689Y013940D02*
X038689Y013541D01*
X038689Y013940D01*
X038689Y013940D01*
X038689Y013929D02*
X038689Y013929D01*
X038689Y013770D02*
X038689Y013770D01*
X038689Y013612D02*
X038689Y013612D01*
X038452Y013612D02*
X036039Y013612D01*
X036169Y013770D02*
X038294Y013770D01*
X038289Y013929D02*
X036169Y013929D01*
X036169Y014088D02*
X038289Y014088D01*
X038429Y014246D02*
X036062Y014246D01*
X036009Y014405D02*
X040369Y014405D01*
X040369Y014563D02*
X036009Y014563D01*
X034565Y013612D02*
X033926Y013612D01*
X033855Y013541D02*
X034089Y013775D01*
X034089Y013941D01*
X033689Y013941D01*
X033689Y013941D01*
X033289Y013941D01*
X033289Y013775D01*
X033523Y013541D01*
X033689Y013541D01*
X033855Y013541D01*
X033689Y013541D02*
X033689Y013940D01*
X033689Y013940D01*
X033689Y013541D01*
X033689Y013612D02*
X033689Y013612D01*
X033689Y013770D02*
X033689Y013770D01*
X033689Y013929D02*
X033689Y013929D01*
X033689Y014088D02*
X033689Y014088D01*
X033689Y014246D02*
X033689Y014246D01*
X033773Y014405D02*
X032009Y014405D01*
X032009Y014563D02*
X033614Y014563D01*
X033456Y014722D02*
X032009Y014722D01*
X032057Y014880D02*
X033297Y014880D01*
X033138Y015039D02*
X032169Y015039D01*
X032169Y015197D02*
X032980Y015197D01*
X032821Y015356D02*
X032169Y015356D01*
X032044Y015514D02*
X032663Y015514D01*
X031689Y015191D02*
X031689Y012941D01*
X031364Y013295D02*
X028014Y013295D01*
X028169Y013136D02*
X031209Y013136D01*
X031209Y012978D02*
X028169Y012978D01*
X028169Y012819D02*
X031209Y012819D01*
X031290Y012661D02*
X028088Y012661D01*
X027929Y012502D02*
X031449Y012502D01*
X031929Y012502D02*
X032449Y012502D01*
X032490Y012461D02*
X032209Y012742D01*
X032209Y013140D01*
X032490Y013421D01*
X032888Y013421D01*
X033169Y013140D01*
X033169Y012742D01*
X032888Y012461D01*
X032490Y012461D01*
X032290Y012661D02*
X032088Y012661D01*
X032169Y012819D02*
X032209Y012819D01*
X032209Y012978D02*
X032169Y012978D01*
X032169Y013136D02*
X032209Y013136D01*
X032364Y013295D02*
X032014Y013295D01*
X032009Y013453D02*
X034724Y013453D01*
X034882Y013295D02*
X033014Y013295D01*
X033169Y013136D02*
X035041Y013136D01*
X035199Y012978D02*
X033169Y012978D01*
X033169Y012819D02*
X035358Y012819D01*
X035517Y012661D02*
X033088Y012661D01*
X032929Y012502D02*
X035675Y012502D01*
X036105Y012978D02*
X036209Y012978D01*
X036209Y013136D02*
X035946Y013136D01*
X035787Y013295D02*
X036364Y013295D01*
X035629Y013453D02*
X041474Y013453D01*
X041364Y013295D02*
X038014Y013295D01*
X038169Y013136D02*
X041209Y013136D01*
X041209Y012978D02*
X038169Y012978D01*
X038169Y012819D02*
X041209Y012819D01*
X041290Y012661D02*
X038088Y012661D01*
X037290Y012661D02*
X037088Y012661D01*
X037169Y012819D02*
X037209Y012819D01*
X037209Y012978D02*
X037169Y012978D01*
X037169Y013136D02*
X037209Y013136D01*
X037364Y013295D02*
X037014Y013295D01*
X036314Y012316D02*
X042064Y012316D01*
X042439Y012691D01*
X042439Y012941D01*
X041439Y013941D01*
X041439Y018191D01*
X042439Y019191D01*
X042771Y018844D02*
X043441Y018844D01*
X043414Y018691D02*
X043475Y019041D01*
X043475Y019042D01*
X043653Y019350D01*
X043653Y019350D01*
X043653Y019350D01*
X043926Y019579D01*
X043926Y019579D01*
X044261Y019701D01*
X044261Y019701D01*
X044383Y019701D01*
X044383Y019701D01*
X044437Y019701D01*
X044439Y019701D01*
X044495Y019701D01*
X044495Y019701D01*
X044617Y019701D01*
X044617Y019701D01*
X044952Y019579D01*
X044952Y019579D01*
X045225Y019350D01*
X045225Y019350D01*
X045403Y019042D01*
X045403Y019041D01*
X045465Y018691D01*
X045465Y018691D01*
X045403Y018340D01*
X045225Y018032D01*
X045225Y018032D01*
X044952Y017803D01*
X044952Y017803D01*
X044617Y017681D01*
X044617Y017681D01*
X044495Y017681D01*
X044495Y017681D01*
X044454Y017681D01*
X044439Y017681D01*
X044383Y017681D01*
X044383Y017681D01*
X044261Y017681D01*
X044261Y017681D01*
X043926Y017803D01*
X043926Y017803D01*
X043653Y018032D01*
X043653Y018032D01*
X043475Y018340D01*
X043475Y018340D01*
X043414Y018691D01*
X043414Y018691D01*
X043414Y018685D02*
X042386Y018685D01*
X042228Y018527D02*
X043442Y018527D01*
X043470Y018368D02*
X042069Y018368D01*
X041911Y018210D02*
X043551Y018210D01*
X043642Y018051D02*
X042757Y018051D01*
X042638Y018171D02*
X042240Y018171D01*
X041959Y017890D01*
X041959Y017492D01*
X042240Y017211D01*
X042638Y017211D01*
X042919Y017492D01*
X042919Y017890D01*
X042638Y018171D01*
X042916Y017893D02*
X043819Y017893D01*
X044115Y017734D02*
X042919Y017734D01*
X042919Y017576D02*
X045659Y017576D01*
X045659Y017734D02*
X044763Y017734D01*
X045059Y017893D02*
X045659Y017893D01*
X045659Y018051D02*
X045236Y018051D01*
X045327Y018210D02*
X045659Y018210D01*
X045659Y018368D02*
X045408Y018368D01*
X045436Y018527D02*
X045659Y018527D01*
X045659Y018685D02*
X045464Y018685D01*
X045438Y018844D02*
X045659Y018844D01*
X045659Y019002D02*
X045410Y019002D01*
X045334Y019161D02*
X045659Y019161D01*
X045659Y019319D02*
X045242Y019319D01*
X045072Y019478D02*
X045659Y019478D01*
X045659Y019637D02*
X044793Y019637D01*
X045659Y019795D02*
X040287Y019795D01*
X040129Y019954D02*
X045659Y019954D01*
X045659Y020112D02*
X042676Y020112D01*
X042605Y020041D02*
X042839Y020275D01*
X042839Y020441D01*
X042839Y020606D01*
X042605Y020841D01*
X042439Y020841D01*
X042273Y020841D01*
X042039Y020606D01*
X042039Y020441D01*
X042439Y020441D01*
X042439Y020841D01*
X042439Y020441D01*
X042439Y020441D01*
X042439Y020441D01*
X042839Y020441D01*
X042439Y020441D01*
X042439Y020441D01*
X042039Y020441D01*
X042039Y020275D01*
X042273Y020041D01*
X042439Y020041D01*
X042605Y020041D01*
X042439Y020041D02*
X042439Y020440D01*
X042439Y020440D01*
X042439Y020041D01*
X042439Y020112D02*
X042439Y020112D01*
X042439Y020271D02*
X042439Y020271D01*
X042439Y020429D02*
X042439Y020429D01*
X042439Y020588D02*
X042439Y020588D01*
X042439Y020746D02*
X042439Y020746D01*
X042179Y020746D02*
X038812Y020746D01*
X038919Y020588D02*
X042039Y020588D01*
X042039Y020429D02*
X038919Y020429D01*
X038919Y020271D02*
X042043Y020271D01*
X042202Y020112D02*
X039970Y020112D01*
X040446Y019637D02*
X042206Y019637D01*
X042048Y019478D02*
X040604Y019478D01*
X040763Y019319D02*
X041959Y019319D01*
X041957Y019161D02*
X040921Y019161D01*
X041009Y019002D02*
X041798Y019002D01*
X041640Y018844D02*
X041009Y018844D01*
X041009Y018685D02*
X041481Y018685D01*
X041322Y018527D02*
X041009Y018527D01*
X041009Y018368D02*
X041166Y018368D01*
X041119Y018210D02*
X041009Y018210D01*
X041009Y018051D02*
X041119Y018051D01*
X041119Y017893D02*
X041009Y017893D01*
X041009Y017734D02*
X041119Y017734D01*
X041119Y017576D02*
X041009Y017576D01*
X041009Y017417D02*
X041119Y017417D01*
X041119Y017258D02*
X041009Y017258D01*
X041009Y017100D02*
X041119Y017100D01*
X041119Y016941D02*
X041009Y016941D01*
X041009Y016783D02*
X041119Y016783D01*
X041119Y016624D02*
X041009Y016624D01*
X041009Y016466D02*
X041119Y016466D01*
X041119Y016307D02*
X041009Y016307D01*
X041009Y016149D02*
X041119Y016149D01*
X041119Y015990D02*
X041009Y015990D01*
X041009Y015832D02*
X041119Y015832D01*
X041119Y015673D02*
X041009Y015673D01*
X041009Y015514D02*
X041119Y015514D01*
X041119Y015356D02*
X041009Y015356D01*
X041009Y015197D02*
X041119Y015197D01*
X041119Y015039D02*
X041009Y015039D01*
X041009Y014880D02*
X041119Y014880D01*
X041119Y014722D02*
X041009Y014722D01*
X041009Y014563D02*
X041119Y014563D01*
X041119Y014405D02*
X041009Y014405D01*
X041062Y014246D02*
X041119Y014246D01*
X041759Y014246D02*
X045659Y014246D01*
X045659Y014088D02*
X041759Y014088D01*
X041903Y013929D02*
X045659Y013929D01*
X045659Y013770D02*
X042062Y013770D01*
X042220Y013612D02*
X045659Y013612D01*
X045659Y013453D02*
X042379Y013453D01*
X042538Y013295D02*
X045659Y013295D01*
X045659Y013136D02*
X042696Y013136D01*
X042759Y012978D02*
X045659Y012978D01*
X045659Y012819D02*
X042759Y012819D01*
X042759Y012661D02*
X045659Y012661D01*
X045659Y012502D02*
X042703Y012502D01*
X042544Y012344D02*
X045659Y012344D01*
X045659Y012185D02*
X042386Y012185D01*
X042202Y012026D02*
X045659Y012026D01*
X045659Y011868D02*
X042169Y011868D01*
X041315Y013612D02*
X041039Y013612D01*
X040339Y013612D02*
X038926Y013612D01*
X039084Y013770D02*
X040209Y013770D01*
X041759Y014405D02*
X045659Y014405D01*
X045659Y014563D02*
X041759Y014563D01*
X041759Y014722D02*
X045659Y014722D01*
X045659Y014880D02*
X041759Y014880D01*
X041759Y015039D02*
X045659Y015039D01*
X045659Y015197D02*
X041759Y015197D01*
X041759Y015356D02*
X045659Y015356D01*
X045659Y015514D02*
X041759Y015514D01*
X041759Y015673D02*
X045659Y015673D01*
X045659Y015832D02*
X041759Y015832D01*
X041759Y015990D02*
X045659Y015990D01*
X045659Y016149D02*
X042713Y016149D01*
X042605Y016041D02*
X042839Y016275D01*
X042839Y016441D01*
X042839Y016606D01*
X042605Y016841D01*
X042439Y016841D01*
X042273Y016841D01*
X042039Y016606D01*
X042039Y016441D01*
X042439Y016441D01*
X042439Y016841D01*
X042439Y016441D01*
X042439Y016441D01*
X042439Y016441D01*
X042839Y016441D01*
X042439Y016441D01*
X042439Y016441D01*
X042039Y016441D01*
X042039Y016275D01*
X042273Y016041D01*
X042439Y016041D01*
X042605Y016041D01*
X042439Y016041D02*
X042439Y016440D01*
X042439Y016440D01*
X042439Y016041D01*
X042439Y016149D02*
X042439Y016149D01*
X042439Y016307D02*
X042439Y016307D01*
X042439Y016466D02*
X042439Y016466D01*
X042439Y016624D02*
X042439Y016624D01*
X042439Y016783D02*
X042439Y016783D01*
X042215Y016783D02*
X041759Y016783D01*
X041759Y016941D02*
X045659Y016941D01*
X045659Y016783D02*
X042663Y016783D01*
X042821Y016624D02*
X045659Y016624D01*
X045659Y016466D02*
X042839Y016466D01*
X042839Y016307D02*
X045659Y016307D01*
X045659Y017100D02*
X041759Y017100D01*
X041759Y017258D02*
X042193Y017258D01*
X042034Y017417D02*
X041759Y017417D01*
X041759Y017576D02*
X041959Y017576D01*
X041959Y017734D02*
X041759Y017734D01*
X041759Y017893D02*
X041962Y017893D01*
X042121Y018051D02*
X041759Y018051D01*
X042685Y017258D02*
X045659Y017258D01*
X045659Y017417D02*
X042844Y017417D01*
X042057Y016624D02*
X041759Y016624D01*
X041759Y016466D02*
X042039Y016466D01*
X042039Y016307D02*
X041759Y016307D01*
X041759Y016149D02*
X042166Y016149D01*
X042919Y019002D02*
X043468Y019002D01*
X043544Y019161D02*
X042919Y019161D01*
X042919Y019319D02*
X043636Y019319D01*
X043806Y019478D02*
X042831Y019478D01*
X042672Y019637D02*
X044085Y019637D01*
X042835Y020271D02*
X045659Y020271D01*
X045659Y020429D02*
X042839Y020429D01*
X042839Y020588D02*
X045659Y020588D01*
X045659Y020746D02*
X042699Y020746D01*
X045659Y020905D02*
X038654Y020905D01*
X038224Y020905D02*
X037677Y020905D01*
X037519Y021063D02*
X045659Y021063D01*
X045659Y022015D02*
X033181Y022015D01*
X032697Y022015D02*
X031181Y022015D01*
X031339Y021856D02*
X031339Y021691D01*
X032539Y021691D01*
X032539Y021856D01*
X032539Y021698D02*
X031339Y021698D01*
X030697Y022015D02*
X030204Y022015D01*
X030089Y022173D02*
X045659Y022173D01*
X045659Y022332D02*
X030089Y022332D01*
X029955Y022490D02*
X045659Y022490D01*
X045659Y022649D02*
X033213Y022649D01*
X033105Y022541D02*
X033339Y022775D01*
X033339Y023106D01*
X033105Y023341D01*
X032773Y023341D01*
X032539Y023106D01*
X032539Y022775D01*
X032773Y022541D01*
X033105Y022541D01*
X033339Y022807D02*
X045659Y022807D01*
X045659Y022966D02*
X033339Y022966D01*
X033321Y023125D02*
X045659Y023125D01*
X045659Y023283D02*
X033162Y023283D01*
X032716Y023283D02*
X031162Y023283D01*
X031105Y023341D02*
X031339Y023106D01*
X031339Y022775D01*
X031105Y022541D01*
X030773Y022541D01*
X030539Y022775D01*
X030539Y023106D01*
X030773Y023341D01*
X031105Y023341D01*
X031321Y023125D02*
X032557Y023125D01*
X032539Y022966D02*
X031339Y022966D01*
X031339Y022807D02*
X032539Y022807D01*
X032665Y022649D02*
X031213Y022649D01*
X030665Y022649D02*
X023422Y022649D01*
X023409Y022490D02*
X025423Y022490D01*
X025289Y022332D02*
X023326Y022332D01*
X023377Y022807D02*
X030539Y022807D01*
X030539Y022966D02*
X023249Y022966D01*
X022716Y022966D02*
X022461Y022966D01*
X021929Y022966D02*
X021674Y022966D01*
X021141Y022966D02*
X020886Y022966D01*
X020354Y022966D02*
X020099Y022966D01*
X019566Y022966D02*
X019312Y022966D01*
X018779Y022966D02*
X018524Y022966D01*
X017992Y022966D02*
X017737Y022966D01*
X017815Y022332D02*
X017914Y022332D01*
X017127Y022332D02*
X017027Y022332D01*
X016339Y022332D02*
X016240Y022332D01*
X016689Y021191D02*
X010439Y021191D01*
X012189Y020691D02*
X013439Y020691D01*
X014127Y020003D01*
X016877Y020003D01*
X018408Y018472D01*
X018713Y018786D02*
X018919Y018992D01*
X018919Y019390D01*
X018688Y019621D01*
X019209Y019621D01*
X019209Y019605D01*
X019282Y019429D01*
X019417Y019294D01*
X019594Y019221D01*
X019785Y019221D01*
X019961Y019294D01*
X020096Y019429D01*
X020169Y019605D01*
X020169Y020276D01*
X020096Y020453D01*
X020009Y020540D01*
X020009Y020558D01*
X020572Y021121D01*
X020667Y021121D01*
X020418Y020872D01*
X020369Y020754D01*
X020369Y020627D01*
X020369Y020540D01*
X020282Y020453D01*
X020209Y020276D01*
X020209Y019605D01*
X020282Y019429D01*
X020417Y019294D01*
X020594Y019221D01*
X020785Y019221D01*
X020961Y019294D01*
X021096Y019429D01*
X021169Y019605D01*
X021169Y020276D01*
X021096Y020453D01*
X021009Y020540D01*
X021009Y020558D01*
X021072Y020621D01*
X022497Y020621D01*
X022417Y020588D01*
X022282Y020453D01*
X022209Y020276D01*
X022209Y019605D01*
X022282Y019429D01*
X022417Y019294D01*
X022594Y019221D01*
X022785Y019221D01*
X022961Y019294D01*
X023096Y019429D01*
X023169Y019605D01*
X023169Y020276D01*
X023096Y020453D01*
X022961Y020588D01*
X022881Y020621D01*
X023497Y020621D01*
X023417Y020588D01*
X023282Y020453D01*
X023209Y020276D01*
X023209Y019605D01*
X023282Y019429D01*
X023369Y019342D01*
X023369Y018073D01*
X023008Y017712D01*
X022918Y017622D01*
X022912Y017608D01*
X022785Y017661D01*
X022594Y017661D01*
X022472Y017610D01*
X021714Y018368D01*
X023369Y018368D01*
X023369Y018210D02*
X021873Y018210D01*
X022031Y018051D02*
X023347Y018051D01*
X023188Y017893D02*
X022190Y017893D01*
X022348Y017734D02*
X023030Y017734D01*
X023189Y017441D02*
X023189Y014691D01*
X023439Y014441D01*
X023439Y013441D01*
X023689Y013191D01*
X024189Y013191D01*
X024689Y012691D01*
X025814Y012691D01*
X026189Y012316D01*
X026814Y012316D01*
X027189Y012691D01*
X026689Y012941D02*
X026439Y013191D01*
X026439Y015191D01*
X026689Y015691D02*
X028689Y015691D01*
X029259Y015197D02*
X029289Y015197D01*
X029289Y015039D02*
X029259Y015039D01*
X029259Y014880D02*
X029434Y014880D01*
X029259Y014722D02*
X031369Y014722D01*
X031369Y014563D02*
X029259Y014563D01*
X029944Y014880D02*
X031321Y014880D01*
X031209Y015039D02*
X030089Y015039D01*
X030089Y015197D02*
X031209Y015197D01*
X031369Y014405D02*
X030168Y014405D01*
X030327Y014246D02*
X031369Y014246D01*
X031369Y014088D02*
X030429Y014088D01*
X030429Y013929D02*
X031369Y013929D01*
X031369Y013770D02*
X030429Y013770D01*
X030303Y013612D02*
X031369Y013612D01*
X031369Y013453D02*
X030145Y013453D01*
X032009Y013612D02*
X033452Y013612D01*
X033294Y013770D02*
X032009Y013770D01*
X032009Y013929D02*
X033289Y013929D01*
X033289Y014088D02*
X032009Y014088D01*
X032009Y014246D02*
X033429Y014246D01*
X034089Y014088D02*
X034090Y014088D01*
X034089Y013929D02*
X034248Y013929D01*
X034407Y013770D02*
X034084Y013770D01*
X036314Y012316D02*
X031564Y017066D01*
X029564Y017066D01*
X029169Y017258D02*
X028459Y017258D01*
X028301Y017100D02*
X029126Y017100D01*
X029141Y016941D02*
X028142Y016941D01*
X027984Y016783D02*
X029227Y016783D01*
X029557Y016624D02*
X027761Y016624D01*
X027556Y017261D02*
X027169Y017261D01*
X027169Y017276D01*
X027096Y017453D01*
X026961Y017588D01*
X026785Y017661D01*
X026612Y017661D01*
X026960Y018009D01*
X027009Y018127D01*
X027009Y018254D01*
X027009Y019342D01*
X027096Y019429D01*
X027169Y019605D01*
X027169Y020258D01*
X027668Y019759D01*
X027758Y019669D01*
X027875Y019621D01*
X027959Y019621D01*
X027959Y019242D01*
X028240Y018961D01*
X028638Y018961D01*
X028919Y019242D01*
X028919Y019532D01*
X028990Y019461D01*
X029388Y019461D01*
X029669Y019742D01*
X029669Y020140D01*
X029388Y020421D01*
X028990Y020421D01*
X028830Y020261D01*
X028825Y020261D01*
X028839Y020275D01*
X028839Y020441D01*
X028839Y020606D01*
X028605Y020841D01*
X028439Y020841D01*
X028273Y020841D01*
X028039Y020606D01*
X028039Y020441D01*
X028439Y020441D01*
X028439Y020841D01*
X028439Y020441D01*
X028439Y020441D01*
X028439Y020441D01*
X028839Y020441D01*
X028439Y020441D01*
X028439Y020441D01*
X028039Y020441D01*
X028039Y020293D01*
X027212Y021121D01*
X028875Y021121D01*
X029003Y021121D01*
X029120Y021169D01*
X029142Y021191D01*
X030236Y021191D01*
X030369Y021058D01*
X030369Y019439D01*
X030138Y019671D01*
X029740Y019671D01*
X029459Y019390D01*
X029459Y019163D01*
X027556Y017261D01*
X027713Y017417D02*
X027111Y017417D01*
X026973Y017576D02*
X027871Y017576D01*
X028030Y017734D02*
X026685Y017734D01*
X026843Y017893D02*
X028188Y017893D01*
X028347Y018051D02*
X026978Y018051D01*
X027009Y018210D02*
X028505Y018210D01*
X028664Y018368D02*
X027009Y018368D01*
X027009Y018527D02*
X028823Y018527D01*
X028981Y018685D02*
X027009Y018685D01*
X027009Y018844D02*
X029140Y018844D01*
X029298Y019002D02*
X028679Y019002D01*
X028838Y019161D02*
X029457Y019161D01*
X029459Y019319D02*
X028919Y019319D01*
X028919Y019478D02*
X028973Y019478D01*
X029405Y019478D02*
X029548Y019478D01*
X029564Y019637D02*
X029706Y019637D01*
X029669Y019795D02*
X030369Y019795D01*
X030369Y019637D02*
X030172Y019637D01*
X030331Y019478D02*
X030369Y019478D01*
X030369Y019954D02*
X029669Y019954D01*
X029773Y020041D02*
X029939Y020041D01*
X030105Y020041D01*
X030339Y020275D01*
X030339Y020441D01*
X030339Y020606D01*
X030105Y020841D01*
X029939Y020841D01*
X029773Y020841D01*
X029539Y020606D01*
X029539Y020441D01*
X029939Y020441D01*
X029939Y020841D01*
X029939Y020441D01*
X029939Y020441D01*
X029939Y020441D01*
X030339Y020441D01*
X029939Y020441D01*
X029939Y020441D01*
X029539Y020441D01*
X029539Y020275D01*
X029773Y020041D01*
X029702Y020112D02*
X029669Y020112D01*
X029543Y020271D02*
X029538Y020271D01*
X029539Y020429D02*
X028839Y020429D01*
X028835Y020271D02*
X028840Y020271D01*
X028839Y020588D02*
X029539Y020588D01*
X029679Y020746D02*
X028699Y020746D01*
X028439Y020746D02*
X028439Y020746D01*
X028439Y020588D02*
X028439Y020588D01*
X028179Y020746D02*
X027586Y020746D01*
X027744Y020588D02*
X028039Y020588D01*
X028039Y020429D02*
X027903Y020429D01*
X027939Y019941D02*
X029189Y019941D01*
X029939Y020041D02*
X029939Y020440D01*
X029939Y020041D01*
X029939Y020112D02*
X029939Y020112D01*
X029939Y020271D02*
X029939Y020271D01*
X029939Y020429D02*
X029939Y020429D01*
X029939Y020440D02*
X029939Y020440D01*
X029939Y020588D02*
X029939Y020588D01*
X029939Y020746D02*
X029939Y020746D01*
X030199Y020746D02*
X030369Y020746D01*
X030369Y020588D02*
X030339Y020588D01*
X030339Y020429D02*
X030369Y020429D01*
X030369Y020271D02*
X030335Y020271D01*
X030369Y020112D02*
X030176Y020112D01*
X031009Y020112D02*
X033589Y020112D01*
X033459Y020242D02*
X033459Y020640D01*
X033740Y020921D01*
X034138Y020921D01*
X034419Y020640D01*
X034419Y020242D01*
X034138Y019961D01*
X033740Y019961D01*
X033459Y020242D01*
X033459Y020271D02*
X031009Y020271D01*
X031009Y020429D02*
X033459Y020429D01*
X033459Y020588D02*
X031009Y020588D01*
X031009Y020746D02*
X033566Y020746D01*
X033724Y020905D02*
X031009Y020905D01*
X031009Y021063D02*
X035515Y021063D01*
X035501Y020905D02*
X034154Y020905D01*
X034312Y020746D02*
X035545Y020746D01*
X035634Y020588D02*
X034419Y020588D01*
X034419Y020429D02*
X035475Y020429D01*
X035376Y020271D02*
X034419Y020271D01*
X034289Y020112D02*
X035369Y020112D01*
X035369Y019954D02*
X031009Y019954D01*
X030369Y020905D02*
X027427Y020905D01*
X027269Y021063D02*
X030364Y021063D01*
X030689Y021191D02*
X029689Y022191D01*
X028939Y021441D01*
X020439Y021441D01*
X019689Y020691D01*
X019689Y019941D01*
X017939Y019941D01*
X016689Y021191D01*
X017142Y021191D02*
X019736Y021191D01*
X019418Y020872D01*
X019369Y020754D01*
X019369Y020627D01*
X019369Y020540D01*
X019282Y020453D01*
X019209Y020276D01*
X019209Y020261D01*
X018825Y020261D01*
X018839Y020275D01*
X018839Y020441D01*
X018839Y020606D01*
X018605Y020841D01*
X018439Y020841D01*
X018273Y020841D01*
X018039Y020606D01*
X018039Y020441D01*
X018439Y020441D01*
X018439Y020841D01*
X018439Y020441D01*
X018439Y020441D01*
X018439Y020441D01*
X018839Y020441D01*
X018439Y020441D01*
X018439Y020441D01*
X018039Y020441D01*
X018039Y020293D01*
X017142Y021191D01*
X017269Y021063D02*
X019609Y021063D01*
X019451Y020905D02*
X017427Y020905D01*
X017586Y020746D02*
X018179Y020746D01*
X018039Y020588D02*
X017745Y020588D01*
X017903Y020429D02*
X018039Y020429D01*
X018439Y020588D02*
X018439Y020588D01*
X018439Y020746D02*
X018439Y020746D01*
X018699Y020746D02*
X019369Y020746D01*
X019369Y020588D02*
X018839Y020588D01*
X018839Y020429D02*
X019272Y020429D01*
X019209Y020271D02*
X018835Y020271D01*
X018831Y019478D02*
X019262Y019478D01*
X019391Y019319D02*
X018919Y019319D01*
X018919Y019161D02*
X023369Y019161D01*
X023369Y019319D02*
X022987Y019319D01*
X023116Y019478D02*
X023262Y019478D01*
X023209Y019637D02*
X023169Y019637D01*
X023169Y019795D02*
X023209Y019795D01*
X023209Y019954D02*
X023169Y019954D01*
X023169Y020112D02*
X023209Y020112D01*
X023209Y020271D02*
X023169Y020271D01*
X023106Y020429D02*
X023272Y020429D01*
X023418Y020588D02*
X022961Y020588D01*
X022418Y020588D02*
X021039Y020588D01*
X021106Y020429D02*
X021374Y020429D01*
X021378Y020436D02*
X021335Y020370D01*
X021304Y020297D01*
X021289Y020220D01*
X021289Y019941D01*
X021689Y019941D01*
X021689Y020581D01*
X021650Y020581D01*
X021572Y020565D01*
X021500Y020535D01*
X021434Y020491D01*
X021378Y020436D01*
X021299Y020271D02*
X021169Y020271D01*
X021169Y020112D02*
X021289Y020112D01*
X021289Y019954D02*
X021169Y019954D01*
X021289Y019941D02*
X021289Y019661D01*
X021304Y019584D01*
X021335Y019511D01*
X021378Y019446D01*
X021434Y019390D01*
X021500Y019346D01*
X021572Y019316D01*
X021650Y019301D01*
X021689Y019301D01*
X021728Y019301D01*
X021806Y019316D01*
X021879Y019346D01*
X021944Y019390D01*
X022000Y019446D01*
X022044Y019511D01*
X022074Y019584D01*
X022089Y019661D01*
X022089Y019941D01*
X022089Y020220D01*
X022074Y020297D01*
X022044Y020370D01*
X022000Y020436D01*
X021944Y020491D01*
X021879Y020535D01*
X021806Y020565D01*
X021728Y020581D01*
X021689Y020581D01*
X021689Y019941D01*
X021689Y019941D01*
X021689Y019941D01*
X022089Y019941D01*
X021689Y019941D01*
X021689Y019941D01*
X021289Y019941D01*
X021289Y019795D02*
X021169Y019795D01*
X021169Y019637D02*
X021294Y019637D01*
X021357Y019478D02*
X021116Y019478D01*
X020987Y019319D02*
X021564Y019319D01*
X021689Y019319D02*
X021689Y019319D01*
X021689Y019301D02*
X021689Y019940D01*
X021689Y019940D01*
X021689Y019301D01*
X021814Y019319D02*
X022391Y019319D01*
X022262Y019478D02*
X022021Y019478D01*
X022084Y019637D02*
X022209Y019637D01*
X022209Y019795D02*
X022089Y019795D01*
X022089Y019954D02*
X022209Y019954D01*
X022209Y020112D02*
X022089Y020112D01*
X022079Y020271D02*
X022209Y020271D01*
X022272Y020429D02*
X022004Y020429D01*
X021689Y020429D02*
X021689Y020429D01*
X021689Y020271D02*
X021689Y020271D01*
X021689Y020112D02*
X021689Y020112D01*
X021689Y019954D02*
X021689Y019954D01*
X021689Y019795D02*
X021689Y019795D01*
X021689Y019637D02*
X021689Y019637D01*
X021689Y019478D02*
X021689Y019478D01*
X020689Y019941D02*
X020689Y020691D01*
X020939Y020941D01*
X026939Y020941D01*
X027939Y019941D01*
X027837Y019637D02*
X027169Y019637D01*
X027169Y019795D02*
X027632Y019795D01*
X027474Y019954D02*
X027169Y019954D01*
X027169Y020112D02*
X027315Y020112D01*
X026689Y019941D02*
X026689Y018191D01*
X026189Y017691D01*
X026189Y016191D01*
X026689Y015691D01*
X025189Y016191D02*
X025189Y018691D01*
X025689Y019191D01*
X025689Y019941D01*
X024689Y019941D02*
X024689Y017941D01*
X024189Y017441D01*
X024189Y016191D01*
X023939Y015941D01*
X023939Y014941D01*
X024439Y014441D01*
X024439Y013441D01*
X024689Y013191D01*
X025689Y013191D01*
X025939Y013441D01*
X025939Y013941D01*
X024939Y013941D02*
X024939Y015941D01*
X025189Y016191D01*
X024767Y016221D02*
X024668Y016122D01*
X024619Y016004D01*
X024619Y015877D01*
X024619Y015576D01*
X024605Y015591D01*
X024439Y015591D01*
X024273Y015591D01*
X024259Y015576D01*
X024259Y015808D01*
X024370Y015919D01*
X024460Y016009D01*
X024509Y016127D01*
X024509Y016256D01*
X024594Y016221D01*
X024767Y016221D01*
X024694Y016149D02*
X024509Y016149D01*
X024441Y015990D02*
X024619Y015990D01*
X024619Y015832D02*
X024282Y015832D01*
X024259Y015673D02*
X024619Y015673D01*
X024439Y015591D02*
X024439Y015191D01*
X024439Y015591D01*
X024439Y015514D02*
X024439Y015514D01*
X024439Y015356D02*
X024439Y015356D01*
X024439Y015197D02*
X024439Y015197D01*
X024439Y015191D02*
X024439Y015191D01*
X022939Y013941D02*
X022939Y013441D01*
X023189Y013191D01*
X023189Y012441D01*
X022939Y012191D01*
X021852Y011075D02*
X021526Y011075D01*
X021364Y010917D02*
X022014Y010917D01*
X021937Y010758D02*
X022328Y010758D01*
X022209Y010600D02*
X022089Y010600D01*
X022089Y010606D02*
X021855Y010841D01*
X021689Y010841D01*
X021523Y010841D01*
X021289Y010606D01*
X021289Y010441D01*
X021689Y010441D01*
X021689Y010841D01*
X021689Y010441D01*
X021689Y010441D01*
X021689Y010441D01*
X022089Y010441D01*
X022089Y010606D01*
X022089Y010441D02*
X022209Y010441D01*
X022089Y010441D02*
X021689Y010441D01*
X021689Y010441D01*
X021289Y010441D01*
X018169Y010441D01*
X018169Y010283D02*
X021289Y010283D01*
X021289Y010275D02*
X021523Y010041D01*
X021689Y010041D01*
X021855Y010041D01*
X022089Y010275D01*
X022089Y010441D01*
X022089Y010283D02*
X022209Y010283D01*
X022327Y010124D02*
X021938Y010124D01*
X021689Y010124D02*
X021689Y010124D01*
X021689Y010041D02*
X021689Y010440D01*
X021689Y010440D01*
X021689Y010041D01*
X021689Y010283D02*
X021689Y010283D01*
X021440Y010124D02*
X018051Y010124D01*
X017892Y009965D02*
X022486Y009965D01*
X023218Y009648D02*
X021160Y009648D01*
X021169Y009640D02*
X020888Y009921D01*
X020490Y009921D01*
X020209Y009640D01*
X020209Y009242D01*
X020490Y008961D01*
X020888Y008961D01*
X021169Y009242D01*
X021169Y009640D01*
X021169Y009490D02*
X023209Y009490D01*
X023209Y009331D02*
X021169Y009331D01*
X021100Y009173D02*
X023278Y009173D01*
X023437Y009014D02*
X020941Y009014D01*
X021187Y008856D02*
X016631Y008856D01*
X016889Y008697D02*
X020930Y008697D01*
X020802Y008539D02*
X017016Y008539D01*
X017082Y008380D02*
X020736Y008380D01*
X020719Y008221D02*
X017099Y008221D01*
X017099Y008063D02*
X020719Y008063D01*
X020785Y007904D02*
X017033Y007904D01*
X017479Y007746D02*
X017610Y007746D01*
X017908Y007746D02*
X018089Y007746D01*
X017069Y007112D02*
X014195Y007112D01*
X014353Y006953D02*
X017069Y006953D01*
X017122Y006795D02*
X014432Y006795D01*
X014489Y006636D02*
X017208Y006636D01*
X017367Y006477D02*
X014489Y006477D01*
X014471Y006319D02*
X018028Y006319D01*
X018093Y006160D02*
X014405Y006160D01*
X014287Y006002D02*
X018211Y006002D01*
X018427Y005843D02*
X016992Y005843D01*
X017161Y005685D02*
X021077Y005685D01*
X020986Y005526D02*
X017252Y005526D01*
X017309Y005368D02*
X020929Y005368D01*
X020929Y005209D02*
X017309Y005209D01*
X017283Y005051D02*
X020955Y005051D01*
X021021Y004892D02*
X017217Y004892D01*
X017078Y004734D02*
X021161Y004734D01*
X022078Y004734D02*
X026161Y004734D01*
X026021Y004892D02*
X022217Y004892D01*
X022283Y005051D02*
X025955Y005051D01*
X025929Y005209D02*
X022309Y005209D01*
X022309Y005368D02*
X025929Y005368D01*
X025986Y005526D02*
X022252Y005526D01*
X022161Y005685D02*
X026077Y005685D01*
X026247Y005843D02*
X024071Y005843D01*
X023427Y005843D02*
X021992Y005843D01*
X022367Y006477D02*
X019489Y006477D01*
X019489Y006636D02*
X022208Y006636D01*
X022122Y006795D02*
X019432Y006795D01*
X019353Y006953D02*
X022069Y006953D01*
X022069Y007112D02*
X019195Y007112D01*
X019471Y006319D02*
X023028Y006319D01*
X023093Y006160D02*
X019405Y006160D01*
X019287Y006002D02*
X023211Y006002D01*
X021247Y005843D02*
X019071Y005843D01*
X019281Y004416D02*
X015257Y004416D01*
X015365Y004258D02*
X019174Y004258D01*
X019120Y004099D02*
X015418Y004099D01*
X015402Y003782D02*
X019136Y003782D01*
X019207Y003624D02*
X015331Y003624D01*
X015194Y003465D02*
X019344Y003465D01*
X019711Y003465D02*
X019827Y003465D01*
X019827Y003624D02*
X019711Y003624D01*
X019711Y003782D02*
X019827Y003782D01*
X020194Y003465D02*
X024344Y003465D01*
X024207Y003624D02*
X020331Y003624D01*
X020402Y003782D02*
X024136Y003782D01*
X024120Y004099D02*
X020418Y004099D01*
X020365Y004258D02*
X024174Y004258D01*
X024281Y004416D02*
X020257Y004416D01*
X016161Y004734D02*
X012078Y004734D01*
X012217Y004892D02*
X016021Y004892D01*
X015955Y005051D02*
X012283Y005051D01*
X012309Y005209D02*
X015929Y005209D01*
X015929Y005368D02*
X012309Y005368D01*
X012252Y005526D02*
X015986Y005526D01*
X016077Y005685D02*
X012161Y005685D01*
X011992Y005843D02*
X013427Y005843D01*
X013211Y006002D02*
X009287Y006002D01*
X009405Y006160D02*
X013093Y006160D01*
X013028Y006319D02*
X009471Y006319D01*
X009489Y006477D02*
X012367Y006477D01*
X012208Y006636D02*
X009489Y006636D01*
X009432Y006795D02*
X012122Y006795D01*
X012069Y006953D02*
X009353Y006953D01*
X009195Y007112D02*
X012069Y007112D01*
X012479Y007746D02*
X012610Y007746D01*
X012908Y007746D02*
X013089Y007746D01*
X012099Y008063D02*
X015719Y008063D01*
X015719Y008221D02*
X012099Y008221D01*
X012082Y008380D02*
X015736Y008380D01*
X015802Y008539D02*
X012016Y008539D01*
X011889Y008697D02*
X015930Y008697D01*
X015888Y008961D02*
X016169Y009242D01*
X016169Y009640D01*
X015888Y009921D01*
X015490Y009921D01*
X015209Y009640D01*
X015209Y009242D01*
X015490Y008961D01*
X015888Y008961D01*
X015941Y009014D02*
X018437Y009014D01*
X018490Y008961D02*
X018209Y009242D01*
X018209Y009640D01*
X018490Y009921D01*
X018888Y009921D01*
X019169Y009640D01*
X019169Y009242D01*
X018888Y008961D01*
X018490Y008961D01*
X018278Y009173D02*
X016100Y009173D01*
X016169Y009331D02*
X018209Y009331D01*
X018209Y009490D02*
X016169Y009490D01*
X016160Y009648D02*
X018218Y009648D01*
X018376Y009807D02*
X016002Y009807D01*
X016440Y010124D02*
X013051Y010124D01*
X013169Y010283D02*
X016289Y010283D01*
X016289Y010275D02*
X016523Y010041D01*
X016689Y010041D01*
X016855Y010041D01*
X017089Y010275D01*
X017089Y010441D01*
X017089Y010606D01*
X016855Y010841D01*
X016689Y010841D01*
X016523Y010841D01*
X016289Y010606D01*
X016289Y010441D01*
X016689Y010441D01*
X016689Y010841D01*
X016689Y010441D01*
X016689Y010441D01*
X016689Y010441D01*
X017089Y010441D01*
X017209Y010441D01*
X017089Y010441D02*
X016689Y010441D01*
X016689Y010441D01*
X016289Y010441D01*
X013169Y010441D01*
X013169Y010600D02*
X016289Y010600D01*
X016289Y010441D02*
X016289Y010275D01*
X016689Y010283D02*
X016689Y010283D01*
X016689Y010440D02*
X016689Y010041D01*
X016689Y010440D01*
X016689Y010440D01*
X016689Y010600D02*
X016689Y010600D01*
X016689Y010758D02*
X016689Y010758D01*
X016441Y010758D02*
X013050Y010758D01*
X012328Y010758D02*
X011937Y010758D01*
X011855Y010841D02*
X011689Y010841D01*
X011523Y010841D01*
X011289Y010606D01*
X011289Y010441D01*
X011689Y010441D01*
X011689Y010841D01*
X011689Y010441D01*
X011689Y010441D01*
X011689Y010441D01*
X012089Y010441D01*
X012089Y010606D01*
X011855Y010841D01*
X012014Y010917D02*
X011364Y010917D01*
X011441Y010758D02*
X008050Y010758D01*
X008169Y010600D02*
X011289Y010600D01*
X011289Y010441D02*
X008169Y010441D01*
X008169Y010283D02*
X011289Y010283D01*
X011289Y010275D02*
X011523Y010041D01*
X011689Y010041D01*
X011855Y010041D01*
X012089Y010275D01*
X012089Y010441D01*
X012209Y010441D01*
X012089Y010441D02*
X011689Y010441D01*
X011689Y010441D01*
X011289Y010441D01*
X011289Y010275D01*
X011440Y010124D02*
X008051Y010124D01*
X007892Y009965D02*
X012486Y009965D01*
X012327Y010124D02*
X011938Y010124D01*
X012089Y010283D02*
X012209Y010283D01*
X012209Y010600D02*
X012089Y010600D01*
X011689Y010600D02*
X011689Y010600D01*
X011689Y010758D02*
X011689Y010758D01*
X011689Y010440D02*
X011689Y010041D01*
X011689Y010440D01*
X011689Y010440D01*
X011689Y010283D02*
X011689Y010283D01*
X011689Y010124D02*
X011689Y010124D01*
X011169Y009640D02*
X010888Y009921D01*
X010490Y009921D01*
X010209Y009640D01*
X010209Y009242D01*
X010490Y008961D01*
X010888Y008961D01*
X011169Y009242D01*
X011169Y009640D01*
X011160Y009648D02*
X013218Y009648D01*
X013209Y009640D02*
X013209Y009242D01*
X013490Y008961D01*
X013888Y008961D01*
X014169Y009242D01*
X014169Y009640D01*
X013888Y009921D01*
X013490Y009921D01*
X013209Y009640D01*
X013209Y009490D02*
X011169Y009490D01*
X011169Y009331D02*
X013209Y009331D01*
X013278Y009173D02*
X011100Y009173D01*
X010941Y009014D02*
X013437Y009014D01*
X013941Y009014D02*
X015437Y009014D01*
X015278Y009173D02*
X014100Y009173D01*
X014169Y009331D02*
X015209Y009331D01*
X015209Y009490D02*
X014169Y009490D01*
X014160Y009648D02*
X015218Y009648D01*
X015376Y009807D02*
X014002Y009807D01*
X013376Y009807D02*
X011002Y009807D01*
X010376Y009807D02*
X009002Y009807D01*
X009160Y009648D02*
X010218Y009648D01*
X010209Y009490D02*
X009169Y009490D01*
X009169Y009331D02*
X010209Y009331D01*
X010278Y009173D02*
X009100Y009173D01*
X008941Y009014D02*
X010437Y009014D01*
X010930Y008697D02*
X006889Y008697D01*
X007016Y008539D02*
X010802Y008539D01*
X010736Y008380D02*
X007082Y008380D01*
X007099Y008221D02*
X010719Y008221D01*
X010719Y008063D02*
X007099Y008063D01*
X007033Y007904D02*
X010785Y007904D01*
X012033Y007904D02*
X015785Y007904D01*
X016187Y008856D02*
X011631Y008856D01*
X011187Y008856D02*
X006631Y008856D01*
X005437Y009014D02*
X003941Y009014D01*
X004100Y009173D02*
X005278Y009173D01*
X005209Y009331D02*
X004169Y009331D01*
X004169Y009490D02*
X005209Y009490D01*
X005218Y009648D02*
X004160Y009648D01*
X004002Y009807D02*
X005376Y009807D01*
X006467Y011234D02*
X002911Y011234D01*
X002888Y011211D02*
X003169Y011492D01*
X003169Y011890D01*
X002888Y012171D01*
X002490Y012171D01*
X002209Y011890D01*
X002209Y011492D01*
X002490Y011211D01*
X002888Y011211D01*
X003069Y011392D02*
X006309Y011392D01*
X006209Y011551D02*
X003169Y011551D01*
X003169Y011709D02*
X006209Y011709D01*
X006209Y011868D02*
X003169Y011868D01*
X003032Y012026D02*
X003901Y012026D01*
X003742Y012185D02*
X001719Y012185D01*
X001719Y012026D02*
X002346Y012026D01*
X002209Y011868D02*
X001719Y011868D01*
X001719Y011709D02*
X002209Y011709D01*
X002209Y011551D02*
X001719Y011551D01*
X001719Y011392D02*
X002309Y011392D01*
X002467Y011234D02*
X001719Y011234D01*
X001719Y012344D02*
X003584Y012344D01*
X003425Y012502D02*
X002929Y012502D01*
X003088Y012661D02*
X003267Y012661D01*
X003696Y013136D02*
X004838Y013136D01*
X004875Y013121D02*
X004758Y013169D01*
X004668Y013259D01*
X004668Y013260D01*
X004089Y013838D01*
X004089Y013775D01*
X003855Y013541D01*
X003689Y013541D01*
X003689Y013940D01*
X003689Y013940D01*
X003689Y013541D01*
X003523Y013541D01*
X003289Y013775D01*
X003289Y013941D01*
X003689Y013941D01*
X003689Y014341D01*
X003523Y014341D01*
X003289Y014106D01*
X003289Y013941D01*
X003689Y013941D01*
X003689Y013941D01*
X003689Y014341D01*
X003855Y014341D01*
X003869Y014326D01*
X003869Y015859D01*
X003825Y015782D01*
X003825Y015782D01*
X003825Y015782D01*
X003552Y015553D01*
X003552Y015553D01*
X003217Y015431D01*
X003217Y015431D01*
X003095Y015431D01*
X003095Y015431D01*
X003039Y015431D01*
X003012Y015431D01*
X002983Y015431D01*
X002983Y015431D01*
X002861Y015431D01*
X002861Y015431D01*
X002526Y015553D01*
X002526Y015553D01*
X002253Y015782D01*
X002253Y015782D01*
X002075Y016090D01*
X002075Y016090D01*
X002014Y016441D01*
X002014Y016441D01*
X002075Y016791D01*
X002075Y016792D01*
X002253Y017100D01*
X002253Y017100D01*
X002253Y017100D01*
X002162Y016941D02*
X001719Y016941D01*
X001719Y016783D02*
X002074Y016783D01*
X002046Y016624D02*
X001719Y016624D01*
X001719Y016466D02*
X002018Y016466D01*
X002037Y016307D02*
X001719Y016307D01*
X001719Y016149D02*
X002065Y016149D01*
X002133Y015990D02*
X001719Y015990D01*
X001719Y015832D02*
X002225Y015832D01*
X002383Y015673D02*
X001719Y015673D01*
X001719Y015514D02*
X002631Y015514D01*
X003447Y015514D02*
X003869Y015514D01*
X003869Y015356D02*
X001719Y015356D01*
X001719Y015197D02*
X003869Y015197D01*
X003869Y015039D02*
X001719Y015039D01*
X001719Y014880D02*
X003869Y014880D01*
X003869Y014722D02*
X001719Y014722D01*
X001719Y014563D02*
X003869Y014563D01*
X003869Y014405D02*
X002595Y014405D01*
X002562Y014437D02*
X002401Y014504D01*
X002227Y014504D01*
X002066Y014437D01*
X001942Y014314D01*
X001876Y014153D01*
X001896Y013929D02*
X001719Y013929D01*
X001719Y013770D02*
X001989Y013770D01*
X001719Y013612D02*
X002315Y013612D01*
X002474Y013453D02*
X001719Y013453D01*
X001719Y013295D02*
X002364Y013295D01*
X002209Y013136D02*
X001719Y013136D01*
X001719Y012978D02*
X002209Y012978D01*
X002209Y012819D02*
X001719Y012819D01*
X001719Y012661D02*
X002290Y012661D01*
X002449Y012502D02*
X001719Y012502D01*
X003062Y013770D02*
X003294Y013770D01*
X003289Y013929D02*
X002903Y013929D01*
X002752Y014080D02*
X002752Y014153D01*
X002686Y014314D01*
X002562Y014437D01*
X002714Y014246D02*
X003429Y014246D01*
X003289Y014088D02*
X002752Y014088D01*
X002752Y014080D02*
X004322Y012511D01*
X006440Y012511D01*
X006209Y012742D01*
X006209Y013140D01*
X006490Y013421D01*
X006888Y013421D01*
X007169Y013140D01*
X007169Y012742D01*
X006938Y012511D01*
X007440Y012511D01*
X007209Y012742D01*
X007209Y013140D01*
X007490Y013421D01*
X007888Y013421D01*
X008169Y013140D01*
X008169Y012742D01*
X007938Y012511D01*
X011440Y012511D01*
X011209Y012742D01*
X011209Y012758D01*
X011120Y012669D01*
X011003Y012621D01*
X010875Y012621D01*
X010125Y012621D01*
X010008Y012669D01*
X009918Y012759D01*
X009556Y013121D01*
X008375Y013121D01*
X008258Y013169D01*
X008168Y013259D01*
X008168Y013260D01*
X007806Y013621D01*
X006572Y013621D01*
X006120Y013169D01*
X006003Y013121D01*
X005875Y013121D01*
X004875Y013121D01*
X004632Y013295D02*
X003538Y013295D01*
X003379Y013453D02*
X004474Y013453D01*
X004315Y013612D02*
X003926Y013612D01*
X004084Y013770D02*
X004157Y013770D01*
X003689Y013770D02*
X003689Y013770D01*
X003689Y013612D02*
X003689Y013612D01*
X003452Y013612D02*
X003220Y013612D01*
X003689Y013929D02*
X003689Y013929D01*
X003689Y013941D02*
X003689Y013941D01*
X003689Y014088D02*
X003689Y014088D01*
X003689Y014246D02*
X003689Y014246D01*
X004564Y015566D02*
X004502Y015628D01*
X004502Y015628D01*
X003869Y015673D02*
X003695Y015673D01*
X003853Y015832D02*
X003869Y015832D01*
X003825Y017100D02*
X003825Y017100D01*
X003869Y017258D02*
X003636Y017258D01*
X003869Y017417D02*
X003310Y017417D01*
X003217Y017451D02*
X003217Y017451D01*
X003095Y017451D02*
X003095Y017451D01*
X002861Y017451D02*
X002861Y017451D01*
X002386Y018051D02*
X001719Y018051D01*
X001719Y018210D02*
X002227Y018210D01*
X002199Y018368D02*
X001719Y018368D01*
X001719Y018527D02*
X002199Y018527D01*
X002241Y018685D02*
X001719Y018685D01*
X001719Y018844D02*
X002399Y018844D01*
X002434Y019002D02*
X001719Y019002D01*
X001719Y019161D02*
X002276Y019161D01*
X002199Y019319D02*
X001719Y019319D01*
X001719Y019478D02*
X002199Y019478D01*
X002199Y019637D02*
X001719Y019637D01*
X001719Y019795D02*
X002350Y019795D01*
X002483Y019954D02*
X001719Y019954D01*
X001719Y020112D02*
X002325Y020112D01*
X002199Y020271D02*
X001719Y020271D01*
X001719Y020429D02*
X002199Y020429D01*
X002199Y020588D02*
X001719Y020588D01*
X001719Y020746D02*
X002302Y020746D01*
X002460Y020905D02*
X001719Y020905D01*
X001719Y021063D02*
X002373Y021063D01*
X005535Y021698D02*
X006106Y021698D01*
X006265Y021856D02*
X005694Y021856D01*
X005852Y022015D02*
X006424Y022015D01*
X006582Y022173D02*
X006011Y022173D01*
X006169Y022332D02*
X006741Y022332D01*
X006899Y022490D02*
X006328Y022490D01*
X006487Y022649D02*
X007058Y022649D01*
X007216Y022807D02*
X006645Y022807D01*
X006804Y022966D02*
X007375Y022966D01*
X007533Y023125D02*
X006962Y023125D01*
X007121Y023283D02*
X007692Y023283D01*
X007850Y023442D02*
X007279Y023442D01*
X007438Y023600D02*
X008009Y023600D01*
X007755Y023917D02*
X011309Y023917D01*
X011111Y024076D02*
X007913Y024076D01*
X008072Y024234D02*
X010994Y024234D01*
X011064Y023759D02*
X008937Y023759D01*
X009089Y023600D02*
X010509Y023600D01*
X010350Y023442D02*
X009089Y023442D01*
X009089Y023283D02*
X010192Y023283D01*
X010033Y023125D02*
X008938Y023125D01*
X008441Y023759D02*
X007596Y023759D01*
X008231Y024393D02*
X009171Y024393D01*
X008423Y022490D02*
X007578Y022490D01*
X007419Y022332D02*
X008289Y022332D01*
X008289Y022173D02*
X007261Y022173D01*
X007102Y022015D02*
X008299Y022015D01*
X008458Y021856D02*
X006944Y021856D01*
X006785Y021698D02*
X008607Y021698D01*
X006439Y019691D02*
X016439Y019691D01*
X018033Y018097D01*
X021533Y018097D01*
X022689Y016941D01*
X022209Y016941D02*
X022169Y016941D01*
X022169Y016783D02*
X022209Y016783D01*
X022209Y016624D02*
X022169Y016624D01*
X022111Y016466D02*
X022267Y016466D01*
X022404Y016307D02*
X021974Y016307D01*
X023189Y017441D02*
X023689Y017941D01*
X023689Y019941D01*
X023369Y019002D02*
X018919Y019002D01*
X018771Y018844D02*
X023369Y018844D01*
X023369Y018685D02*
X018794Y018685D01*
X018779Y018720D02*
X018846Y018559D01*
X018846Y018417D01*
X021469Y018417D01*
X021596Y018417D01*
X021714Y018368D01*
X020405Y017576D02*
X019973Y017576D01*
X020111Y017417D02*
X020267Y017417D01*
X020209Y017258D02*
X020169Y017258D01*
X020169Y017100D02*
X020209Y017100D01*
X020209Y016941D02*
X020169Y016941D01*
X020169Y016783D02*
X020209Y016783D01*
X020209Y016624D02*
X020169Y016624D01*
X020111Y016466D02*
X020267Y016466D01*
X020404Y016307D02*
X019974Y016307D01*
X019497Y016261D02*
X018825Y016261D01*
X018839Y016275D01*
X018839Y016441D01*
X018839Y016606D01*
X018825Y016621D01*
X019209Y016621D01*
X019209Y016605D01*
X019282Y016429D01*
X019417Y016294D01*
X019497Y016261D01*
X019404Y016307D02*
X018839Y016307D01*
X018839Y016441D02*
X018439Y016441D01*
X018839Y016441D01*
X018839Y016466D02*
X019267Y016466D01*
X018439Y016441D02*
X018439Y016441D01*
X017189Y017691D02*
X016439Y018441D01*
X014439Y018441D01*
X012189Y016191D02*
X010689Y016191D01*
X010189Y015691D01*
X010209Y014088D02*
X009089Y014088D01*
X009089Y013941D02*
X008689Y013941D01*
X008689Y013941D01*
X009089Y013941D01*
X009089Y013929D02*
X010209Y013929D01*
X010209Y013770D02*
X009084Y013770D01*
X009970Y013612D02*
X010339Y013612D01*
X010129Y013453D02*
X010999Y013453D01*
X011039Y013612D02*
X011158Y013612D01*
X010841Y013295D02*
X010288Y013295D01*
X009858Y012819D02*
X008169Y012819D01*
X008169Y012978D02*
X009699Y012978D01*
X010029Y012661D02*
X008088Y012661D01*
X008169Y013136D02*
X008338Y013136D01*
X008132Y013295D02*
X008014Y013295D01*
X007974Y013453D02*
X006404Y013453D01*
X006364Y013295D02*
X006246Y013295D01*
X006209Y013136D02*
X006040Y013136D01*
X006209Y012978D02*
X003855Y012978D01*
X004013Y012819D02*
X006209Y012819D01*
X006290Y012661D02*
X004172Y012661D01*
X006563Y013612D02*
X007815Y013612D01*
X007364Y013295D02*
X007014Y013295D01*
X007169Y013136D02*
X007209Y013136D01*
X007209Y012978D02*
X007169Y012978D01*
X007169Y012819D02*
X007209Y012819D01*
X007290Y012661D02*
X007088Y012661D01*
X006689Y011691D02*
X007189Y011191D01*
X011099Y012661D02*
X011290Y012661D01*
X013538Y013295D02*
X015716Y013295D01*
X015874Y013453D02*
X015395Y013453D01*
X015553Y013612D02*
X015825Y013612D01*
X015699Y013770D02*
X015679Y013770D01*
X015679Y013929D02*
X015699Y013929D01*
X015699Y014088D02*
X015679Y014088D01*
X015577Y014246D02*
X015801Y014246D01*
X015960Y014405D02*
X015418Y014405D01*
X015423Y014722D02*
X016479Y014722D01*
X016321Y014880D02*
X015581Y014880D01*
X015740Y015039D02*
X016209Y015039D01*
X016209Y015197D02*
X015898Y015197D01*
X016057Y015356D02*
X016209Y015356D01*
X016215Y015514D02*
X016334Y015514D01*
X017418Y014405D02*
X017960Y014405D01*
X017801Y014246D02*
X017577Y014246D01*
X017679Y014088D02*
X017699Y014088D01*
X017699Y013929D02*
X017679Y013929D01*
X017679Y013770D02*
X017699Y013770D01*
X017825Y013612D02*
X017553Y013612D01*
X017395Y013453D02*
X017984Y013453D01*
X017364Y013295D02*
X017014Y013295D01*
X016984Y013453D02*
X016779Y013453D01*
X017169Y013136D02*
X017209Y013136D01*
X017209Y012978D02*
X017169Y012978D01*
X017169Y012819D02*
X017209Y012819D01*
X017290Y012661D02*
X017088Y012661D01*
X015557Y013136D02*
X013696Y013136D01*
X014289Y015043D02*
X013962Y015371D01*
X014303Y015371D01*
X014289Y015356D01*
X013976Y015356D01*
X014135Y015197D02*
X014289Y015197D01*
X014289Y015191D02*
X014689Y015191D01*
X014689Y015191D01*
X014289Y015191D01*
X014289Y015356D01*
X014289Y015191D02*
X014289Y015043D01*
X018846Y018527D02*
X023369Y018527D01*
X020391Y019319D02*
X019987Y019319D01*
X020116Y019478D02*
X020262Y019478D01*
X020209Y019637D02*
X020169Y019637D01*
X020169Y019795D02*
X020209Y019795D01*
X020209Y019954D02*
X020169Y019954D01*
X020169Y020112D02*
X020209Y020112D01*
X020209Y020271D02*
X020169Y020271D01*
X020106Y020429D02*
X020272Y020429D01*
X020369Y020588D02*
X020039Y020588D01*
X020197Y020746D02*
X020369Y020746D01*
X020356Y020905D02*
X020451Y020905D01*
X020514Y021063D02*
X020609Y021063D01*
X020276Y022332D02*
X020177Y022332D01*
X019489Y022332D02*
X019389Y022332D01*
X018701Y022332D02*
X018602Y022332D01*
X020964Y022332D02*
X021064Y022332D01*
X021752Y022332D02*
X021851Y022332D01*
X022539Y022332D02*
X022638Y022332D01*
X025955Y022490D02*
X029423Y022490D01*
X029289Y022332D02*
X026089Y022332D01*
X026089Y022173D02*
X029289Y022173D01*
X029174Y022015D02*
X026079Y022015D01*
X027116Y019478D02*
X027959Y019478D01*
X027959Y019319D02*
X027009Y019319D01*
X027009Y019161D02*
X028040Y019161D01*
X028199Y019002D02*
X027009Y019002D01*
X028618Y017417D02*
X029295Y017417D01*
X029459Y017576D02*
X028776Y017576D01*
X028935Y017734D02*
X029459Y017734D01*
X029462Y017893D02*
X029093Y017893D01*
X029252Y018051D02*
X029621Y018051D01*
X030689Y018441D02*
X030689Y021191D01*
X030539Y021698D02*
X030522Y021698D01*
X030557Y023125D02*
X011816Y023125D01*
X011904Y023283D02*
X030716Y023283D01*
X030494Y026454D02*
X045659Y026454D01*
X045659Y026612D02*
X030700Y026612D01*
X030859Y026771D02*
X045659Y026771D01*
X045659Y026930D02*
X031017Y026930D01*
X031176Y027088D02*
X041853Y027088D01*
X041886Y027055D02*
X042053Y026986D01*
X042825Y026986D01*
X042992Y027055D01*
X043120Y027183D01*
X043190Y027350D01*
X043190Y027531D01*
X043120Y027699D01*
X042992Y027827D01*
X042825Y027896D01*
X042053Y027896D01*
X041886Y027827D01*
X041758Y027699D01*
X041689Y027531D01*
X041689Y027350D01*
X041758Y027183D01*
X041886Y027055D01*
X041731Y027247D02*
X031334Y027247D01*
X031493Y027405D02*
X041689Y027405D01*
X041702Y027564D02*
X031651Y027564D01*
X031810Y027722D02*
X041781Y027722D01*
X042016Y027881D02*
X031969Y027881D01*
X032127Y028039D02*
X041923Y028039D01*
X041752Y028198D02*
X032286Y028198D01*
X031924Y028515D02*
X030353Y028515D01*
X030339Y028501D02*
X033618Y031781D01*
X033859Y031781D01*
X034099Y032021D01*
X034099Y032361D01*
X033859Y032601D01*
X033519Y032601D01*
X033279Y032361D01*
X033279Y032120D01*
X030000Y028841D01*
X029773Y028841D01*
X029539Y028606D01*
X029539Y028275D01*
X029773Y028041D01*
X030105Y028041D01*
X030339Y028275D01*
X030339Y028501D01*
X030339Y028356D02*
X031765Y028356D01*
X031607Y028198D02*
X030262Y028198D01*
X029939Y028441D02*
X033689Y032191D01*
X033397Y032479D02*
X032731Y032479D01*
X032849Y032361D02*
X032609Y032601D01*
X032439Y032601D01*
X032269Y032601D01*
X032029Y032361D01*
X032029Y032191D01*
X032439Y032191D01*
X032439Y032601D01*
X032439Y032191D01*
X032439Y032191D01*
X032439Y032191D01*
X032849Y032191D01*
X032849Y032361D01*
X032849Y032320D02*
X033279Y032320D01*
X033279Y032161D02*
X032849Y032161D01*
X032849Y032191D02*
X032439Y032191D01*
X032439Y032191D01*
X032029Y032191D01*
X032029Y032021D01*
X032269Y031781D01*
X032439Y031781D01*
X032609Y031781D01*
X032849Y032021D01*
X032849Y032191D01*
X032831Y032003D02*
X033162Y032003D01*
X033003Y031844D02*
X032672Y031844D01*
X032439Y031844D02*
X032439Y031844D01*
X032439Y031781D02*
X032439Y032190D01*
X032439Y032190D01*
X032439Y031781D01*
X032439Y032003D02*
X032439Y032003D01*
X032439Y032161D02*
X032439Y032161D01*
X032439Y032320D02*
X032439Y032320D01*
X032439Y032479D02*
X032439Y032479D01*
X032147Y032479D02*
X031731Y032479D01*
X031849Y032320D02*
X032029Y032320D01*
X032029Y032161D02*
X031849Y032161D01*
X031831Y032003D02*
X032047Y032003D01*
X032206Y031844D02*
X031679Y031844D01*
X031679Y031686D02*
X032845Y031686D01*
X032686Y031527D02*
X031679Y031527D01*
X031679Y031369D02*
X032528Y031369D01*
X032369Y031210D02*
X031679Y031210D01*
X031639Y031052D02*
X032211Y031052D01*
X032052Y030893D02*
X031481Y030893D01*
X031322Y030735D02*
X031893Y030735D01*
X031735Y030576D02*
X031164Y030576D01*
X031005Y030418D02*
X031576Y030418D01*
X031418Y030259D02*
X030847Y030259D01*
X030688Y030100D02*
X031259Y030100D01*
X031101Y029942D02*
X030530Y029942D01*
X030371Y029783D02*
X030942Y029783D01*
X030784Y029625D02*
X030339Y029625D01*
X030280Y029466D02*
X030625Y029466D01*
X030467Y029308D02*
X030122Y029308D01*
X030308Y029149D02*
X028320Y029149D01*
X028479Y028991D02*
X030149Y028991D01*
X029765Y028832D02*
X028637Y028832D01*
X028796Y028674D02*
X029606Y028674D01*
X029539Y028515D02*
X028954Y028515D01*
X029113Y028356D02*
X029539Y028356D01*
X029616Y028198D02*
X029271Y028198D01*
X029430Y028039D02*
X031448Y028039D01*
X031290Y027881D02*
X029588Y027881D01*
X029747Y027722D02*
X031131Y027722D01*
X030973Y027564D02*
X030027Y027564D01*
X030259Y027405D02*
X030814Y027405D01*
X030656Y027247D02*
X030317Y027247D01*
X030306Y027088D02*
X030497Y027088D01*
X030511Y028674D02*
X032124Y028674D01*
X029939Y029691D02*
X031439Y031191D01*
X031439Y032191D01*
X031029Y032161D02*
X025308Y032161D01*
X025466Y032003D02*
X031047Y032003D01*
X031199Y031844D02*
X025625Y031844D01*
X025783Y031686D02*
X031199Y031686D01*
X031199Y031527D02*
X030204Y031527D01*
X030269Y031500D02*
X030074Y031581D01*
X029864Y031581D01*
X029669Y031500D01*
X029520Y031351D01*
X029439Y031156D01*
X029439Y030945D01*
X029520Y030751D01*
X029669Y030601D01*
X029864Y030521D01*
X030074Y030521D01*
X030269Y030601D01*
X030418Y030751D01*
X030499Y030945D01*
X030499Y031156D01*
X030418Y031351D01*
X030269Y031500D01*
X030401Y031369D02*
X031199Y031369D01*
X031119Y031210D02*
X030477Y031210D01*
X030499Y031052D02*
X030961Y031052D01*
X030802Y030893D02*
X030477Y030893D01*
X030402Y030735D02*
X030643Y030735D01*
X030485Y030576D02*
X030208Y030576D01*
X030326Y030418D02*
X027052Y030418D01*
X027131Y030597D02*
X027206Y030560D01*
X027285Y030534D01*
X027367Y030521D01*
X027389Y030521D01*
X027389Y031031D01*
X026879Y031031D01*
X026879Y031009D01*
X026892Y030927D01*
X026918Y030847D01*
X026956Y030773D01*
X027005Y030706D01*
X027064Y030647D01*
X027131Y030597D01*
X027173Y030576D02*
X026893Y030576D01*
X026984Y030735D02*
X026735Y030735D01*
X026576Y030893D02*
X026903Y030893D01*
X026879Y031071D02*
X027389Y031071D01*
X027389Y031581D01*
X027367Y031581D01*
X027285Y031568D01*
X027206Y031542D01*
X027131Y031504D01*
X027064Y031455D01*
X027005Y031396D01*
X026956Y031329D01*
X026918Y031254D01*
X026892Y031175D01*
X026879Y031092D01*
X026879Y031071D01*
X026904Y031210D02*
X026259Y031210D01*
X026418Y031052D02*
X027389Y031052D01*
X027389Y031071D02*
X027389Y031031D01*
X027429Y031031D01*
X027429Y031071D01*
X027389Y031071D01*
X027429Y031071D02*
X027429Y031581D01*
X027451Y031581D01*
X027533Y031568D01*
X027612Y031542D01*
X027687Y031504D01*
X027754Y031455D01*
X027813Y031396D01*
X027862Y031329D01*
X027900Y031254D01*
X027926Y031175D01*
X027939Y031092D01*
X027939Y031071D01*
X027429Y031071D01*
X027429Y031052D02*
X029439Y031052D01*
X029461Y031210D02*
X027915Y031210D01*
X027833Y031369D02*
X029538Y031369D01*
X029735Y031527D02*
X027641Y031527D01*
X027429Y031527D02*
X027389Y031527D01*
X027389Y031369D02*
X027429Y031369D01*
X027429Y031210D02*
X027389Y031210D01*
X027429Y031031D02*
X027939Y031031D01*
X027939Y031009D01*
X027926Y030927D01*
X027900Y030847D01*
X027862Y030773D01*
X027813Y030706D01*
X027754Y030647D01*
X027687Y030597D01*
X027612Y030560D01*
X027533Y030534D01*
X027451Y030521D01*
X027429Y030521D01*
X027429Y031031D01*
X027429Y030893D02*
X027389Y030893D01*
X027389Y030735D02*
X027429Y030735D01*
X027429Y030576D02*
X027389Y030576D01*
X027645Y030576D02*
X029730Y030576D01*
X029536Y030735D02*
X027834Y030735D01*
X027915Y030893D02*
X029461Y030893D01*
X030168Y030259D02*
X027210Y030259D01*
X027369Y030100D02*
X030009Y030100D01*
X029625Y029942D02*
X027527Y029942D01*
X027686Y029783D02*
X029539Y029783D01*
X029539Y029625D02*
X027844Y029625D01*
X028003Y029466D02*
X029598Y029466D01*
X029756Y029308D02*
X028161Y029308D01*
X026985Y031369D02*
X026100Y031369D01*
X025942Y031527D02*
X027177Y031527D01*
X027806Y032479D02*
X029572Y032479D01*
X029476Y032637D02*
X027902Y032637D01*
X027939Y032796D02*
X029439Y032796D01*
X029447Y032954D02*
X027932Y032954D01*
X027866Y033113D02*
X029512Y033113D01*
X029660Y033271D02*
X027718Y033271D01*
X030278Y033271D02*
X045012Y033271D01*
X045191Y033113D02*
X030426Y033113D01*
X033206Y031369D02*
X035895Y031369D01*
X035737Y031527D02*
X033365Y031527D01*
X033524Y031686D02*
X035671Y031686D01*
X035659Y031844D02*
X034922Y031844D01*
X034859Y031781D02*
X035099Y032021D01*
X035099Y032191D01*
X035099Y032361D01*
X034859Y032601D01*
X034689Y032601D01*
X034519Y032601D01*
X034279Y032361D01*
X034279Y032191D01*
X034689Y032191D01*
X034689Y032601D01*
X034689Y032191D01*
X034689Y032191D01*
X034689Y032191D01*
X035099Y032191D01*
X034689Y032191D01*
X034689Y032191D01*
X034279Y032191D01*
X034279Y032021D01*
X034519Y031781D01*
X034689Y031781D01*
X034859Y031781D01*
X034689Y031781D02*
X034689Y032190D01*
X034689Y032190D01*
X034689Y031781D01*
X034689Y031844D02*
X034689Y031844D01*
X034689Y032003D02*
X034689Y032003D01*
X034689Y032161D02*
X034689Y032161D01*
X034689Y032320D02*
X034689Y032320D01*
X034689Y032479D02*
X034689Y032479D01*
X034397Y032479D02*
X033981Y032479D01*
X034099Y032320D02*
X034279Y032320D01*
X034279Y032161D02*
X034099Y032161D01*
X034081Y032003D02*
X034297Y032003D01*
X034456Y031844D02*
X033922Y031844D01*
X034981Y032479D02*
X035659Y032479D01*
X035659Y032320D02*
X035099Y032320D01*
X035099Y032161D02*
X035659Y032161D01*
X035659Y032003D02*
X035081Y032003D01*
X036483Y031369D02*
X036895Y031369D01*
X036737Y031527D02*
X036641Y031527D01*
X038483Y031369D02*
X038895Y031369D01*
X038737Y031527D02*
X038641Y031527D01*
X043036Y029783D02*
X045659Y029783D01*
X045659Y029625D02*
X043151Y029625D01*
X043190Y029466D02*
X045659Y029466D01*
X045659Y029308D02*
X043172Y029308D01*
X043087Y029149D02*
X045659Y029149D01*
X045659Y028991D02*
X042837Y028991D01*
X042979Y028832D02*
X045659Y028832D01*
X045659Y028674D02*
X043131Y028674D01*
X043190Y028515D02*
X045659Y028515D01*
X045659Y028356D02*
X043190Y028356D01*
X043126Y028198D02*
X045659Y028198D01*
X045659Y028039D02*
X042955Y028039D01*
X042862Y027881D02*
X045659Y027881D01*
X045659Y027722D02*
X043097Y027722D01*
X043176Y027564D02*
X045659Y027564D01*
X045659Y027405D02*
X043190Y027405D01*
X043147Y027247D02*
X045659Y027247D01*
X045659Y027088D02*
X043026Y027088D01*
X045659Y024710D02*
X011849Y024710D01*
X011918Y024551D02*
X045659Y024551D01*
X045659Y024393D02*
X011928Y024393D01*
X011884Y024234D02*
X045659Y024234D01*
X045659Y024076D02*
X011767Y024076D01*
X006439Y019691D02*
X005939Y019191D01*
X005939Y016783D02*
X005939Y016783D01*
X005939Y016624D02*
X005939Y016624D01*
X005939Y016466D02*
X005939Y016466D01*
X002033Y014405D02*
X001719Y014405D01*
X007479Y007746D02*
X007610Y007746D01*
X007908Y007746D02*
X008089Y007746D01*
X011526Y011075D02*
X011852Y011075D01*
X012892Y009965D02*
X017486Y009965D01*
X017327Y010124D02*
X016938Y010124D01*
X017089Y010283D02*
X017209Y010283D01*
X017209Y010600D02*
X017089Y010600D01*
X016937Y010758D02*
X017328Y010758D01*
X017014Y010917D02*
X016364Y010917D01*
X016526Y011075D02*
X016852Y011075D01*
X016689Y010124D02*
X016689Y010124D01*
X018050Y010758D02*
X021441Y010758D01*
X021289Y010600D02*
X018169Y010600D01*
X019002Y009807D02*
X020376Y009807D01*
X020218Y009648D02*
X019160Y009648D01*
X019169Y009490D02*
X020209Y009490D01*
X020209Y009331D02*
X019169Y009331D01*
X019100Y009173D02*
X020278Y009173D01*
X020437Y009014D02*
X018941Y009014D01*
X021002Y009807D02*
X023376Y009807D01*
X021689Y010600D02*
X021689Y010600D01*
X021689Y010758D02*
X021689Y010758D01*
X021289Y010441D02*
X021289Y010275D01*
X021631Y008856D02*
X026187Y008856D01*
X026631Y008856D02*
X031187Y008856D01*
X032479Y007746D02*
X032610Y007746D01*
X032908Y007746D02*
X033089Y007746D01*
X032069Y007112D02*
X029195Y007112D01*
X029353Y006953D02*
X032069Y006953D01*
X032122Y006795D02*
X029432Y006795D01*
X029489Y006636D02*
X032208Y006636D01*
X032367Y006477D02*
X029489Y006477D01*
X029471Y006319D02*
X033028Y006319D01*
X033093Y006160D02*
X029405Y006160D01*
X029287Y006002D02*
X033211Y006002D01*
X033427Y005843D02*
X031992Y005843D01*
X032161Y005685D02*
X036077Y005685D01*
X035986Y005526D02*
X032252Y005526D01*
X032309Y005368D02*
X035929Y005368D01*
X035929Y005209D02*
X032309Y005209D01*
X032283Y005051D02*
X035955Y005051D01*
X036021Y004892D02*
X032217Y004892D01*
X031247Y005843D02*
X029071Y005843D01*
X024827Y003782D02*
X024711Y003782D01*
X024711Y003624D02*
X024827Y003624D01*
X024827Y003465D02*
X024711Y003465D01*
X023089Y007746D02*
X022908Y007746D01*
X022610Y007746D02*
X022479Y007746D01*
X028169Y011551D02*
X031097Y011551D01*
X031209Y011709D02*
X028169Y011709D01*
X028169Y011868D02*
X031209Y011868D01*
X031346Y012026D02*
X028032Y012026D01*
X027734Y013453D02*
X027379Y013453D01*
X027303Y013612D02*
X027575Y013612D01*
X027449Y013770D02*
X027429Y013770D01*
X032032Y012026D02*
X032346Y012026D01*
X032209Y011868D02*
X032169Y011868D01*
X032169Y011709D02*
X032209Y011709D01*
X033032Y012026D02*
X036176Y012026D01*
X036209Y011868D02*
X033169Y011868D01*
X033169Y011709D02*
X036209Y011709D01*
X036097Y011551D02*
X033169Y011551D01*
X031689Y010124D02*
X031689Y010124D01*
X032892Y009965D02*
X037486Y009965D01*
X037327Y010124D02*
X036938Y010124D01*
X037089Y010283D02*
X037209Y010283D01*
X037209Y010600D02*
X037089Y010600D01*
X036937Y010758D02*
X037328Y010758D01*
X037014Y010917D02*
X036364Y010917D01*
X036526Y011075D02*
X036852Y011075D01*
X036689Y010124D02*
X036689Y010124D01*
X035376Y009807D02*
X034002Y009807D01*
X034160Y009648D02*
X035218Y009648D01*
X035209Y009490D02*
X034169Y009490D01*
X034169Y009331D02*
X035209Y009331D01*
X035278Y009173D02*
X034100Y009173D01*
X033941Y009014D02*
X035437Y009014D01*
X036247Y005843D02*
X034071Y005843D01*
X041009Y007587D02*
X041087Y007587D01*
X038189Y014791D02*
X038189Y015190D01*
X038189Y015190D01*
X038189Y014791D01*
X038189Y014880D02*
X038189Y014880D01*
X038189Y015039D02*
X038189Y015039D01*
X035369Y015990D02*
X034167Y015990D01*
X034326Y016149D02*
X035369Y016149D01*
X035369Y016307D02*
X034419Y016307D01*
X034419Y016466D02*
X035369Y016466D01*
X035369Y016624D02*
X034419Y016624D01*
X037836Y020746D02*
X038066Y020746D01*
X044401Y033588D02*
X002977Y033588D01*
X002592Y033430D02*
X044786Y033430D01*
X018779Y018720D02*
X018713Y018786D01*
X006936Y030259D02*
X004828Y030259D01*
X004752Y030228D02*
X004955Y030312D01*
X005111Y030468D01*
X005195Y030671D01*
X005195Y031679D01*
X005111Y031882D01*
X004955Y032038D01*
X004752Y032122D01*
X004532Y032122D01*
X004328Y032038D01*
X004172Y031882D01*
X004088Y031679D01*
X004088Y030671D01*
X004172Y030468D01*
X004328Y030312D01*
X004532Y030228D01*
X004752Y030228D01*
X004456Y030259D02*
X001719Y030259D01*
X001719Y030418D02*
X004223Y030418D01*
X004127Y030576D02*
X001719Y030576D01*
X001719Y030735D02*
X004088Y030735D01*
X004088Y030893D02*
X001719Y030893D01*
X001719Y031052D02*
X004088Y031052D01*
X004088Y031210D02*
X001719Y031210D01*
X001719Y031369D02*
X004088Y031369D01*
X004088Y031527D02*
X001719Y031527D01*
X001719Y031686D02*
X004091Y031686D01*
X004157Y031844D02*
X001719Y031844D01*
X001722Y032003D02*
X004293Y032003D01*
X004991Y032003D02*
X006773Y032003D01*
X006637Y031844D02*
X005127Y031844D01*
X005193Y031686D02*
X006571Y031686D01*
X006568Y031527D02*
X005195Y031527D01*
X005195Y031369D02*
X006568Y031369D01*
X006568Y031210D02*
X005195Y031210D01*
X005195Y031052D02*
X006568Y031052D01*
X006568Y030893D02*
X005195Y030893D01*
X005195Y030735D02*
X006568Y030735D01*
X006608Y030576D02*
X005156Y030576D01*
X005061Y030418D02*
X006703Y030418D01*
X014071Y005843D02*
X016247Y005843D01*
X014281Y004416D02*
X010257Y004416D01*
X010365Y004258D02*
X014174Y004258D01*
X014120Y004099D02*
X010418Y004099D01*
X010402Y003782D02*
X014136Y003782D01*
X014207Y003624D02*
X010331Y003624D01*
X010194Y003465D02*
X014344Y003465D01*
X014711Y003465D02*
X014827Y003465D01*
X014827Y003624D02*
X014711Y003624D01*
X014711Y003782D02*
X014827Y003782D01*
X009827Y003782D02*
X009711Y003782D01*
X009711Y003624D02*
X009827Y003624D01*
X009827Y003465D02*
X009711Y003465D01*
D22*
X002314Y014066D03*
X012189Y020691D03*
X009439Y022191D03*
X010439Y025691D03*
X014439Y018441D03*
X017189Y017691D03*
X018408Y018472D03*
X027564Y017566D03*
X029564Y017066D03*
X030689Y018441D03*
X032939Y018441D03*
X036189Y016441D03*
X036439Y020441D03*
X035939Y020941D03*
D23*
X029939Y027191D03*
X024689Y027941D03*
X009939Y023441D03*
M02*
